<?xml version="1.0" encoding="utf-8"?>
<!-- Generator: Adobe Illustrator 19.0.0, SVG Export Plug-In . SVG Version: 6.00 Build 0)  -->
<svg version="1.1" id="Layer_1" xmlns="http://www.w3.org/2000/svg" xmlns:xlink="http://www.w3.org/1999/xlink" x="0px" y="0px"
	 viewBox="0 0 612 612" style="enable-background:new 0 0 612 612;" xml:space="preserve">
<metadata><?xpacket begin="﻿" id="W5M0MpCehiHzreSzNTczkc9d"?>
<x:xmpmeta xmlns:x="adobe:ns:meta/" x:xmptk="Adobe XMP Core 5.6-c067 79.157747, 2015/03/30-23:40:42        ">
   <rdf:RDF xmlns:rdf="http://www.w3.org/1999/02/22-rdf-syntax-ns#">
      <rdf:Description rdf:about=""/>
   </rdf:RDF>
</x:xmpmeta>
                                                                                                    
                                                                                                    
                                                                                                    
                                                                                                    
                                                                                                    
                                                                                                    
                                                                                                    
                                                                                                    
                                                                                                    
                                                                                                    
                                                                                                    
                                                                                                    
                                                                                                    
                                                                                                    
                                                                                                    
                                                                                                    
                                                                                                    
                                                                                                    
                                                                                                    
                                                                                                    
                           
<?xpacket end="w"?></metadata>
<style type="text/css">
	.st0{fill:#0083BF;}
	.st1{fill:#FFFFFF;}
	.st2{fill:#90CEF1;}
	.st3{fill:#74C1EC;}
</style>
<rect y="0" class="st0" width="612" height="612"/>
<g>
	<g>
		<path class="st1" d="M312.8,282.4h1.3V303H310l0-11.3l-5.2,5.5l-5.2-5.5V303h-4.1v-20.6h1.3l8,8.9L312.8,282.4z"/>
		<path class="st1" d="M325.4,282h0.4l8.5,21h-4.6l-0.8-2.2h-6.7l-0.8,2.2h-4.6L325.4,282z M327.5,297l-1.8-5.3l-1.9,5.3H327.5z"/>
		<path class="st1" d="M343.2,282h0.4l8.6,21h-4.6l-0.8-2.2h-6.7l-0.8,2.2h-4.6L343.2,282z M345.3,297l-1.8-5.3l-1.9,5.3H345.3z"/>
		<path class="st1" d="M355,303v-20.3h4.1V303H355z"/>
		<path class="st1" d="M368.3,282.7v16.2h6.5v4.1h-10.5v-20.3H368.3z"/>
		<path class="st1" d="M395.5,282.4h1.3V303h-4.1l0-11.3l-5.2,5.5l-5.2-5.5V303h-4.1v-20.6h1.3l8,8.9L395.5,282.4z"/>
		<path class="st1" d="M408.1,282h0.4l8.5,21h-4.6l-0.8-2.2h-6.7l-0.8,2.2h-4.6L408.1,282z M410.2,297l-1.8-5.3l-1.9,5.3H410.2z"/>
		<path class="st1" d="M423.9,303h-4.1v-20.7h1.1l10.2,11.9v-11.5h4.1v20.7h-1.1L423.9,292V303z"/>
		<path class="st1" d="M298.8,334.9v-16.2h-5.1v-4h14.2v4h-5.1v16.2H298.8z"/>
		<path class="st1" d="M310.9,334.9v-20.3h4.1v20.3H310.9z"/>
		<path class="st1" d="M324.3,314.6v16.2h6.5v4.1h-10.5v-20.3H324.3z"/>
		<path class="st1" d="M340,313.9h0.4l8.6,21h-4.6l-0.8-2.2h-6.7l-0.8,2.2h-4.6L340,313.9z M342.1,328.9l-1.8-5.3l-1.9,5.3H342.1z"
			/>
		<path class="st1" d="M351.4,329.4c2.3,1.6,4.9,1.7,5.8,1.6c1.2-0.1,2.2-0.9,2.1-2c-0.1-1.2-1-1.7-2.1-2.1c-3.2-1.2-6-2.8-6-6.2
			s2.3-6,5.7-6.2c1.1-0.1,2.4-0.1,5.1,0.9l-0.5,3.9c-2.2-0.9-3.5-0.9-4.1-0.9c-1.5,0.1-2.1,1.1-2,2.3c0.1,1.1,1.1,1.6,2.3,2
			c3.2,1.2,5.9,3,5.9,6.2c0,3.4-2.3,6-6.1,6.2c-1.1,0.1-3.7-0.1-6.4-1.5L351.4,329.4z"/>
		<path class="st1" d="M369.6,334.9v-16.2h-5v-4h14.2v4h-5.1v16.2H369.6z"/>
		<path class="st1" d="M390.8,314.3c14,0,14,20.9,0,20.9S376.8,314.3,390.8,314.3z M390.8,318.5c-8.1,0-8.1,12.5,0,12.5
			S398.9,318.5,390.8,318.5z"/>
		<path class="st1" d="M405.4,334.9v-20.3h8c7.9,0,7.9,12.5,0,12.5h-3.9v7.7H405.4z M413,323.2c2.7,0,2.7-4.5,0-4.5h-3.6v4.5H413z"
			/>
		<path class="st1" d="M429,314.4l8.2,20.6h-4.6l-0.8-2.2H425l-0.8,2.2h-4.6l8.2-20.6H429z M424.9,309.2c1.3,0,2.3,1,2.3,2.3
			c0,1.3-1,2.3-2.3,2.3c-1.2,0-2.3-1-2.3-2.3C422.6,310.1,423.7,309.2,424.9,309.2z M430.3,328.9l-1.8-5.4l-1.9,5.4H430.3z
			 M431.9,309.2c1.3,0,2.3,1,2.3,2.3c0,1.3-1,2.3-2.3,2.3c-1.2,0-2.3-1-2.3-2.3C429.6,310.1,430.7,309.2,431.9,309.2z"/>
		<path class="st1" d="M440,334.9v-20.3h4.1v20.3H440z"/>
		<path class="st1" d="M454.8,335.4l-8.4-20.7h4.7l2.7,6.8l1.5,4.2l1.4-4.1l2.7-6.9h4.7l-8.4,20.7H454.8z"/>
		<path class="st1" d="M472.9,314.4l8.2,20.6h-4.6l-0.8-2.2H469l-0.8,2.2h-4.6l8.2-20.6H472.9z M468.8,309.2c1.3,0,2.3,1,2.3,2.3
			c0,1.3-1,2.3-2.3,2.3c-1.2,0-2.3-1-2.3-2.3C466.5,310.1,467.6,309.2,468.8,309.2z M474.2,328.9l-1.8-5.4l-1.9,5.4H474.2z
			 M475.8,309.2c1.3,0,2.3,1,2.3,2.3c0,1.3-1,2.3-2.3,2.3c-1.2,0-2.3-1-2.3-2.3C473.5,310.1,474.6,309.2,475.8,309.2z"/>
		<path class="st2" d="M299.2,353.4c0-0.8-0.6-1.4-1.4-1.4c-1.2-0.1-2.8,0.7-3.2,1.1l-0.7-2.7c1.1-0.8,2.8-1.3,4.1-1.3
			c4.1,0.2,5.5,3.8,3.1,7.1l-2.8,4.3h4.1v2.8h-9.2l5.2-8.3C299.3,354,299.2,353.4,299.2,353.4z"/>
		<path class="st2" d="M304.9,356.3c0-4,1.3-7.2,4.8-7.2c3.5,0,4.8,3.2,4.8,7.2s-1.3,7.2-4.8,7.2
			C306.2,363.5,304.9,360.3,304.9,356.3z M311.7,356.3c0-2.5-0.5-4.5-2.1-4.5c-1.5,0-2.1,2-2.1,4.5c0,2.5,0.5,4.5,2.1,4.5
			C311.2,360.9,311.7,358.8,311.7,356.3z"/>
		<path class="st2" d="M318.1,363.5c-2.1,0-2.1-3.1,0-3.1C320.2,360.3,320.2,363.5,318.1,363.5z"/>
		<path class="st2" d="M321.3,349.4h5v13.9h-2.8v-11.1h-2.3V349.4z"/>
		<path class="st2" d="M329.5,356.3c0-4,1.3-7.2,4.8-7.2c3.5,0,4.8,3.2,4.8,7.2s-1.3,7.2-4.8,7.2
			C330.8,363.5,329.5,360.3,329.5,356.3z M336.3,356.3c0-2.5-0.5-4.5-2.1-4.5c-1.5,0-2.1,2-2.1,4.5c0,2.5,0.5,4.5,2.1,4.5
			C335.8,360.9,336.3,358.8,336.3,356.3z"/>
		<path class="st2" d="M342.7,363.5c-2.1,0-2.1-3.1,0-3.1C344.8,360.3,344.8,363.5,342.7,363.5z"/>
		<path class="st2" d="M352.2,353.4c0-0.8-0.6-1.4-1.4-1.4c-1.2-0.1-2.8,0.7-3.2,1.1l-0.7-2.7c1.1-0.8,2.8-1.3,4.1-1.3
			c4.1,0.2,5.5,3.8,3.1,7.1l-2.8,4.3h4.1v2.8h-9.2l5.2-8.3C352.2,354,352.2,353.4,352.2,353.4z"/>
		<path class="st2" d="M357.8,356.3c0-4,1.3-7.2,4.8-7.2c3.5,0,4.8,3.2,4.8,7.2s-1.3,7.2-4.8,7.2
			C359.1,363.5,357.8,360.3,357.8,356.3z M364.7,356.3c0-2.5-0.5-4.5-2.1-4.5c-1.5,0-2.1,2-2.1,4.5c0,2.5,0.5,4.5,2.1,4.5
			C364.1,360.9,364.7,358.8,364.7,356.3z"/>
		<path class="st2" d="M369.2,349.4h5v13.9h-2.8v-11.1h-2.3V349.4z"/>
		<path class="st2" d="M385.9,359.2c0,2.3-1.6,4.1-4.2,4.2c-0.7,0-2.6,0-4.4-0.6l0.3-2.8c4.3,1.5,5.6,0.3,5.6-0.9
			c0-1.6-1-2.1-5.3-2.5v-7.3h7.1v2.7h-4.3v2.4C384.1,354.8,385.9,356,385.9,359.2z"/>
		<path class="st1" d="M294.6,392.8v-12.7h5c4.9,0,4.9,7.8,0,7.8h-2.4v4.8H294.6z M299.4,385.5c1.7,0,1.7-2.8,0-2.8h-2.2v2.8H299.4z
			"/>
		<path class="st1" d="M309.5,379.7h0.3l5.3,13.1h-2.9l-0.5-1.4h-4.2l-0.5,1.4h-2.9L309.5,379.7z M310.8,389.1l-1.2-3.3l-1.2,3.3
			H310.8z"/>
		<path class="st1" d="M323.7,392.8l-2.6-4.8h-1.2v4.8h-2.5v-12.7h5c4.5,0,5,6.4,1.2,7.4l2.9,5.2H323.7z M319.9,385.5h2.2
			c1.7,0,1.7-2.8,0-2.8h-2.2V385.5z"/>
		<path class="st1" d="M329.3,392.8v-12.7h6.3v2.5h-3.8v2.5h3.3v2.5h-3.3v2.5h4v2.5H329.3z"/>
		<path class="st1" d="M350.1,380h0.8v12.9h-2.6l0-7.1l-3.2,3.4l-3.2-3.4v7.1h-2.6V380h0.8l5,5.6L350.1,380z"/>
		<path class="st1" d="M354.8,392.8v-12.7h5c4.9,0,4.9,7.8,0,7.8h-2.4v4.8H354.8z M359.6,385.5c1.7,0,1.7-2.8,0-2.8h-2.2v2.8H359.6z
			"/>
		<path class="st1" d="M366.1,392.8v-12.7h2.5v12.7H366.1z"/>
		<path class="st1" d="M381.5,392.8h-3.8v-12.7h3.8C389.9,380.2,389.9,392.8,381.5,392.8z M380.2,382.7v7.6h1.2c4.9,0,4.9-7.6,0-7.6
			H380.2z"/>
		<path class="st1" d="M394.6,379.7h0.3l5.3,13.1h-2.9l-0.5-1.4h-4.2l-0.5,1.4h-2.9L394.6,379.7z M395.9,389.1l-1.2-3.3l-1.2,3.3
			H395.9z"/>
		<path class="st1" d="M403.8,392.8v-10.1h-3.2v-2.5h8.9v2.5h-3.2v10.1H403.8z"/>
		<path class="st1" d="M415.4,379.7h0.3l5.3,13.1h-2.9l-0.5-1.4h-4.2l-0.5,1.4h-2.9L415.4,379.7z M416.7,389.1l-1.2-3.3l-1.2,3.3
			H416.7z"/>
		<path class="st1" d="M424.8,393c-1.9,0-1.9-2.9,0-2.9C426.8,390.1,426.7,393,424.8,393z"/>
		<path class="st1" d="M294.6,414.1v-12.7h5c4.9,0,4.9,7.8,0,7.8h-2.4v4.8H294.6z M299.4,406.8c1.7,0,1.7-2.8,0-2.8h-2.2v2.8H299.4z
			"/>
		<path class="st1" d="M309.5,401h0.3l5.3,13.1h-2.9l-0.5-1.4h-4.2l-0.5,1.4h-2.9L309.5,401z M310.8,410.4l-1.2-3.3l-1.2,3.3H310.8z
			"/>
		<path class="st1" d="M323.7,414.1l-2.6-4.8h-1.2v4.8h-2.5v-12.7h5c4.5,0,5,6.4,1.2,7.4l2.9,5.2H323.7z M319.9,406.8h2.2
			c1.7,0,1.7-2.8,0-2.8h-2.2V406.8z"/>
		<path class="st1" d="M329.3,414.1v-12.7h6.3v2.5h-3.8v2.5h3.3v2.5h-3.3v2.5h4v2.5H329.3z"/>
		<path class="st1" d="M350.1,401.3h0.8v12.9h-2.6l0-7.1l-3.2,3.4l-3.2-3.4v7.1h-2.6v-12.9h0.8l5,5.6L350.1,401.3z"/>
		<path class="st1" d="M354.8,414.1v-12.7h5c4.9,0,4.9,7.8,0,7.8h-2.4v4.8H354.8z M359.6,406.8c1.7,0,1.7-2.8,0-2.8h-2.2v2.8H359.6z
			"/>
		<path class="st1" d="M366.1,414.1v-12.7h2.5v12.7H366.1z"/>
		<path class="st1" d="M377.7,414.1v-12.7h6.3v2.5h-3.8v2.5h3.3v2.5h-3.3v2.5h4v2.5H377.7z"/>
		<path class="st1" d="M390.2,401.4v10.1h4v2.5h-6.6v-12.7H390.2z"/>
		<path class="st1" d="M401.1,401.3l5.1,12.8h-2.9l-0.5-1.4h-4.2l-0.5,1.4h-2.9l5.1-12.8H401.1z M398.6,398c0.8,0,1.5,0.6,1.5,1.5
			c0,0.8-0.6,1.4-1.5,1.4c-0.8,0-1.4-0.6-1.4-1.4C397.2,398.6,397.8,398,398.6,398z M401.9,410.4l-1.2-3.4l-1.2,3.4H401.9z M403,398
			c0.8,0,1.5,0.6,1.5,1.5c0,0.8-0.6,1.4-1.5,1.4c-0.8,0-1.4-0.6-1.4-1.4C401.5,398.6,402.2,398,403,398z"/>
		<path class="st1" d="M419.4,401.3h0.8v12.9h-2.6l0-7.1l-3.2,3.4l-3.2-3.4v7.1h-2.6v-12.9h0.8l5,5.6L419.4,401.3z"/>
		<path class="st1" d="M428.3,401.3l5.1,12.8h-2.9l-0.5-1.4h-4.2l-0.5,1.4h-2.9l5.1-12.8H428.3z M425.8,398c0.8,0,1.5,0.6,1.5,1.5
			c0,0.8-0.6,1.4-1.5,1.4c-0.8,0-1.4-0.6-1.4-1.4C424.4,398.6,425,398,425.8,398z M429.1,410.4L428,407l-1.2,3.4H429.1z M430.2,398
			c0.8,0,1.5,0.6,1.5,1.5c0,0.8-0.6,1.4-1.5,1.4c-0.8,0-1.4-0.6-1.4-1.4C428.7,398.6,429.4,398,430.2,398z"/>
		<path class="st1" d="M437.3,414.2c-1.9,0-1.9-2.9,0-2.9C439.2,411.4,439.2,414.2,437.3,414.2z"/>
	</g>
</g>
<g>
	<path class="st3" d="M181.4,347c-7.7,0-15.4-1-22.8-3c-1.3-0.4-2.6-0.7-3.9-1.1c-20.6-6.6-38-20.6-48.8-39.5
		c-11.5-20.1-14.6-43.6-8.5-66c6.1-22.4,20.5-41.1,40.7-52.7c13.2-7.6,28.1-11.5,43.1-11.5c7.7,0,15.4,1,22.9,3.1
		c22.4,6.1,41.1,20.5,52.6,40.7c9.8,17.1,13.5,36.4,10.6,55.8l-0.1,0.6h-8.5l0.1-0.8c2.9-17.9-0.4-35.7-9.4-51.4
		c-10.4-18.2-27.3-31.3-47.6-36.8c-6.8-1.8-13.8-2.8-20.7-2.8c-13.6,0-27,3.6-38.9,10.4c-18.2,10.4-31.3,27.3-36.8,47.6
		c-5.5,20.3-2.8,41.4,7.7,59.6c10.4,18.2,27.3,31.3,47.6,36.8c7.7,2.1,15.7,3,23.7,2.6l0.4-0.1c6.4-0.3,12.8-1.4,19.1-3.3l0.2,0
		l0.2,0c4.9,0.9,10,1.4,15.3,1.4l2.8,0l-2.5,1.2c-4.1,2-8.4,3.8-12.7,5.1l-0.2,0.1c-0.2,0.1-0.3,0.2-0.5,0.2
		C198.4,345.7,189.9,347,181.4,347z"/>
</g>
<path class="st1" d="M211.8,257.2c-1-7.2-7.8-12.2-15.3-11.2c-7.4,1-12.5,7.8-11.5,15c1,7.3,7.8,12.3,15.2,11.2
	C207.6,271.1,212.8,264.4,211.8,257.2z M199.2,265.5c-3.7,0.5-6.9-1.9-7.4-5.6c-0.5-3.6,1.9-7,5.6-7.5c3.7-0.5,6.9,2.1,7.4,5.7
	C205.3,261.8,202.9,265,199.2,265.5z"/>
<path class="st1" d="M247,289.1c-1-7.2-7.8-12.2-15.3-11.2c-7.4,1-12.5,7.8-11.5,15c1,7.3,7.8,12.3,15.2,11.2
	C242.8,303.1,248,296.4,247,289.1z M234.5,297.5c-3.7,0.5-6.9-1.9-7.4-5.6c-0.5-3.6,1.9-7,5.6-7.5c3.7-0.5,6.9,2.1,7.4,5.7
	C240.6,293.8,238.2,297,234.5,297.5z"/>
<g>
	<path class="st1" d="M196.9,301.8h-10.8l47.7-52.2h10.7L196.9,301.8z"/>
</g>
<path class="st1" d="M224.4,324.1c-1.4,0.1-2.9,0.1-4.3,0.1c-20.1,0-32.5-7.5-39.4-13.7c-9.7-8.8-15.2-21.2-15.2-33.9v-0.7h-8.4v0.7
	c0,15.1,6.5,29.7,17.9,40.1c8,7.3,22.2,16,45,16c2.6,0,5.2-0.1,7.9-0.4L224.4,324.1z"/>
</svg>
