<?xml version="1.0" encoding="utf-8"?>
<!-- Generator: Adobe Illustrator 19.0.0, SVG Export Plug-In . SVG Version: 6.00 Build 0)  -->
<svg version="1.1" id="Layer_1" xmlns="http://www.w3.org/2000/svg" xmlns:xlink="http://www.w3.org/1999/xlink" x="0px" y="0px"
	 viewBox="0 0 612 612" style="enable-background:new 0 0 612 612;" xml:space="preserve">
<metadata><?xpacket begin="﻿" id="W5M0MpCehiHzreSzNTczkc9d"?>
<x:xmpmeta xmlns:x="adobe:ns:meta/" x:xmptk="Adobe XMP Core 5.6-c067 79.157747, 2015/03/30-23:40:42        ">
   <rdf:RDF xmlns:rdf="http://www.w3.org/1999/02/22-rdf-syntax-ns#">
      <rdf:Description rdf:about=""/>
   </rdf:RDF>
</x:xmpmeta>
                                                                                                    
                                                                                                    
                                                                                                    
                                                                                                    
                                                                                                    
                                                                                                    
                                                                                                    
                                                                                                    
                                                                                                    
                                                                                                    
                                                                                                    
                                                                                                    
                                                                                                    
                                                                                                    
                                                                                                    
                                                                                                    
                                                                                                    
                                                                                                    
                                                                                                    
                                                                                                    
                           
<?xpacket end="w"?></metadata>
<style type="text/css">
	.st0{fill:#FFFFFF;}
	.st1{fill:#0083BF;}
	.st2{fill:#59AFE1;}
	.st3{fill:#74C1EC;}
</style>
<rect y="0" class="st0" width="612" height="612"/>
<g>
	<g>
		<path class="st1" d="M308.4,281.8h1.2v19.8h-4l0-10.9l-5,5.2l-5-5.2v10.9h-4v-19.8h1.3l7.7,8.6L308.4,281.8z"/>
		<path class="st1" d="M320.5,281.4h0.4l8.2,20.2h-4.4l-0.8-2.1h-6.5l-0.8,2.1h-4.4L320.5,281.4z M322.5,295.8l-1.8-5.1l-1.8,5.1
			H322.5z"/>
		<path class="st1" d="M337.6,281.4h0.4l8.2,20.2h-4.4l-0.8-2.1h-6.5l-0.8,2.1h-4.4L337.6,281.4z M339.6,295.8l-1.8-5.1l-1.8,5.1
			H339.6z"/>
		<path class="st1" d="M348.9,301.6v-19.5h3.9v19.5H348.9z"/>
		<path class="st1" d="M361.7,282.1v15.6h6.2v3.9h-10.1v-19.5H361.7z"/>
		<path class="st1" d="M387.8,281.8h1.2v19.8h-4l0-10.9l-5,5.2l-5-5.2v10.9h-4v-19.8h1.3l7.7,8.6L387.8,281.8z"/>
		<path class="st1" d="M399.9,281.4h0.4l8.2,20.2h-4.4l-0.8-2.1h-6.5l-0.8,2.1h-4.4L399.9,281.4z M401.9,295.8l-1.8-5.1l-1.8,5.1
			H401.9z"/>
		<path class="st1" d="M415.1,301.6h-3.9v-19.9h1l9.8,11.4v-11h3.9V302h-1l-9.9-11V301.6z"/>
		<path class="st1" d="M295,332.2v-15.6h-4.9v-3.9h13.6v3.9h-4.9v15.6H295z"/>
		<path class="st1" d="M306.6,332.2v-19.5h3.9v19.5H306.6z"/>
		<path class="st1" d="M319.4,312.7v15.6h6.2v3.9h-10.1v-19.5H319.4z"/>
		<path class="st1" d="M334.6,312h0.4l8.2,20.2h-4.4l-0.8-2.1h-6.5l-0.8,2.1h-4.4L334.6,312z M336.6,326.5l-1.8-5.1l-1.8,5.1H336.6z
			"/>
		<path class="st1" d="M345.5,326.9c2.2,1.6,4.7,1.6,5.6,1.6c1.1-0.1,2.1-0.9,2-2c-0.1-1.1-0.9-1.6-2-2c-3.1-1.1-5.8-2.7-5.8-5.9
			s2.3-5.8,5.5-5.9c1-0.1,2.3-0.1,4.9,0.8l-0.5,3.8c-2.2-0.9-3.4-0.8-4-0.8c-1.4,0.1-2,1.1-1.9,2.2c0.1,1.1,1.1,1.6,2.2,2
			c3,1.1,5.6,2.9,5.6,6c0,3.2-2.2,5.7-5.9,5.9c-1.1,0.1-3.5-0.1-6.2-1.4L345.5,326.9z"/>
		<path class="st1" d="M363,332.2v-15.6h-4.9v-3.9h13.6v3.9h-4.9v15.6H363z"/>
		<path class="st1" d="M383.3,312.4c13.4,0,13.4,20.1,0,20.1C369.9,332.5,369.9,312.4,383.3,312.4z M383.3,316.4c-7.8,0-7.8,12,0,12
			C391.1,328.5,391.1,316.4,383.3,316.4z"/>
		<path class="st1" d="M397.3,332.2v-19.5h7.7c7.6,0,7.5,12,0,12h-3.8v7.4H397.3z M404.7,321c2.6,0,2.6-4.4,0-4.4h-3.4v4.4H404.7z"
			/>
		<path class="st1" d="M420,312.5l7.8,19.7h-4.4l-0.8-2.1h-6.5l-0.8,2.1H411l7.9-19.7H420z M416.1,307.5c1.3,0,2.2,1,2.2,2.2
			c0,1.3-1,2.2-2.2,2.2c-1.2,0-2.2-1-2.2-2.2C413.9,308.4,414.9,307.5,416.1,307.5z M421.2,326.5l-1.8-5.2l-1.8,5.2H421.2z
			 M422.8,307.5c1.3,0,2.2,1,2.2,2.2c0,1.3-1,2.2-2.2,2.2c-1.2,0-2.2-1-2.2-2.2C420.6,308.4,421.6,307.5,422.8,307.5z"/>
		<path class="st1" d="M430.5,332.2v-19.5h3.9v19.5H430.5z"/>
		<path class="st1" d="M444.8,332.6l-8.1-19.9h4.5l2.6,6.5l1.4,4l1.4-3.9l2.6-6.6h4.5l-8.1,19.9H444.8z"/>
		<path class="st1" d="M462.2,312.5l7.8,19.7h-4.4l-0.8-2.1h-6.5l-0.8,2.1h-4.4l7.9-19.7H462.2z M458.2,307.5c1.3,0,2.2,1,2.2,2.2
			c0,1.3-1,2.2-2.2,2.2c-1.2,0-2.2-1-2.2-2.2C456,308.4,457,307.5,458.2,307.5z M463.4,326.5l-1.8-5.2l-1.8,5.2H463.4z M465,307.5
			c1.3,0,2.2,1,2.2,2.2c0,1.3-1,2.2-2.2,2.2c-1.2,0-2.2-1-2.2-2.2C462.8,308.4,463.8,307.5,465,307.5z"/>
		<path class="st2" d="M295.4,350c0-0.7-0.6-1.3-1.4-1.3c-1.2-0.1-2.7,0.7-3.1,1.1l-0.7-2.6c1-0.7,2.7-1.3,4-1.2
			c3.9,0.2,5.2,3.6,3,6.8l-2.6,4.1h4v2.7h-8.8l5-7.9C295.4,350.5,295.4,350,295.4,350z"/>
		<path class="st2" d="M300.8,352.8c0-3.8,1.3-6.9,4.6-6.9c3.3,0,4.6,3.1,4.6,6.9c0,3.8-1.3,6.9-4.6,6.9
			C302.1,359.7,300.8,356.6,300.8,352.8z M307.4,352.8c0-2.4-0.5-4.4-2-4.4c-1.5,0-2,2-2,4.4c0,2.4,0.5,4.4,2,4.4
			C306.9,357.1,307.4,355.2,307.4,352.8z"/>
		<path class="st2" d="M313.5,359.6c-2,0-2-3,0-3C315.6,356.6,315.5,359.6,313.5,359.6z"/>
		<path class="st2" d="M316.6,346.1h4.8v13.4h-2.7v-10.7h-2.2V346.1z"/>
		<path class="st2" d="M324.4,352.8c0-3.8,1.3-6.9,4.6-6.9c3.3,0,4.6,3.1,4.6,6.9c0,3.8-1.3,6.9-4.6,6.9
			C325.7,359.7,324.4,356.6,324.4,352.8z M331,352.8c0-2.4-0.5-4.4-2-4.4c-1.5,0-2,2-2,4.4c0,2.4,0.5,4.4,2,4.4
			C330.5,357.1,331,355.2,331,352.8z"/>
		<path class="st2" d="M337.1,359.6c-2,0-2-3,0-3C339.2,356.6,339.1,359.6,337.1,359.6z"/>
		<path class="st2" d="M346.2,350c0-0.7-0.6-1.3-1.4-1.3c-1.2-0.1-2.7,0.7-3.1,1.1l-0.7-2.6c1-0.7,2.7-1.3,4-1.2
			c3.9,0.2,5.2,3.6,3,6.8l-2.6,4.1h4v2.7h-8.8l5-7.9C346.3,350.5,346.2,350,346.2,350z"/>
		<path class="st2" d="M351.6,352.8c0-3.8,1.3-6.9,4.6-6.9c3.3,0,4.6,3.1,4.6,6.9c0,3.8-1.3,6.9-4.6,6.9
			C352.9,359.7,351.6,356.6,351.6,352.8z M358.2,352.8c0-2.4-0.5-4.4-2-4.4c-1.5,0-2,2-2,4.4c0,2.4,0.5,4.4,2,4.4
			C357.7,357.1,358.2,355.2,358.2,352.8z"/>
		<path class="st2" d="M362.6,346.1h4.8v13.4h-2.7v-10.7h-2.2V346.1z"/>
		<path class="st2" d="M378.6,355.5c0,2.2-1.5,3.9-4,4c-0.7,0-2.5,0-4.3-0.6l0.2-2.7c4.2,1.4,5.4,0.3,5.3-0.8c0-1.6-1-2.1-5.1-2.4
			v-7h6.8v2.6h-4.1v2.3C376.9,351.3,378.6,352.5,378.6,355.5z"/>
		<path class="st1" d="M291,387.8v-12.2h4.8c4.7,0,4.7,7.5,0,7.5h-2.3v4.6H291z M295.6,380.8c1.6,0,1.6-2.7,0-2.7h-2.1v2.7H295.6z"
			/>
		<path class="st1" d="M305.2,375.2h0.3l5.1,12.6h-2.7l-0.5-1.3h-4l-0.5,1.3h-2.8L305.2,375.2z M306.5,384.2l-1.1-3.2l-1.1,3.2
			H306.5z"/>
		<path class="st1" d="M318.9,387.8l-2.5-4.6h-1.2v4.6h-2.4v-12.2h4.8c4.3,0,4.8,6.1,1.2,7.1l2.8,5H318.9z M315.3,380.8h2.1
			c1.6,0,1.6-2.7,0-2.7h-2.1V380.8z"/>
		<path class="st1" d="M324.3,387.8v-12.2h6.1v2.4h-3.7v2.4h3.2v2.4h-3.2v2.4h3.9v2.4H324.3z"/>
		<path class="st1" d="M344.3,375.5h0.8v12.4h-2.5l0-6.8l-3.1,3.3l-3.1-3.3v6.8h-2.5v-12.4h0.8l4.8,5.3L344.3,375.5z"/>
		<path class="st1" d="M348.8,387.8v-12.2h4.8c4.7,0,4.7,7.5,0,7.5h-2.3v4.6H348.8z M353.3,380.8c1.6,0,1.6-2.7,0-2.7h-2.1v2.7
			H353.3z"/>
		<path class="st1" d="M359.7,387.8v-12.2h2.4v12.2H359.7z"/>
		<path class="st1" d="M374.3,387.8h-3.6v-12.2h3.6C382.5,375.6,382.5,387.8,374.3,387.8z M373.2,378.1v7.3h1.2c4.7,0,4.7-7.3,0-7.3
			H373.2z"/>
		<path class="st1" d="M387,375.2h0.3l5.1,12.6h-2.7l-0.5-1.3h-4l-0.5,1.3h-2.8L387,375.2z M388.2,384.2l-1.1-3.2l-1.1,3.2H388.2z"
			/>
		<path class="st1" d="M395.8,387.8v-9.7h-3v-2.4h8.5v2.4h-3v9.7H395.8z"/>
		<path class="st1" d="M406.9,375.2h0.3l5.1,12.6h-2.7l-0.5-1.3h-4l-0.5,1.3h-2.8L406.9,375.2z M408.2,384.2l-1.1-3.2l-1.1,3.2
			H408.2z"/>
		<path class="st1" d="M416,387.9c-1.8,0-1.8-2.7,0-2.7C417.9,385.2,417.8,387.9,416,387.9z"/>
		<path class="st1" d="M291,408.3v-12.2h4.8c4.7,0,4.7,7.5,0,7.5h-2.3v4.6H291z M295.6,401.2c1.6,0,1.6-2.7,0-2.7h-2.1v2.7H295.6z"
			/>
		<path class="st1" d="M305.2,395.6h0.3l5.1,12.6h-2.7l-0.5-1.3h-4l-0.5,1.3h-2.8L305.2,395.6z M306.5,404.7l-1.1-3.2l-1.1,3.2
			H306.5z"/>
		<path class="st1" d="M318.9,408.3l-2.5-4.6h-1.2v4.6h-2.4v-12.2h4.8c4.3,0,4.8,6.1,1.2,7.1l2.8,5H318.9z M315.3,401.2h2.1
			c1.6,0,1.6-2.7,0-2.7h-2.1V401.2z"/>
		<path class="st1" d="M324.3,408.3v-12.2h6.1v2.4h-3.7v2.4h3.2v2.4h-3.2v2.4h3.9v2.4H324.3z"/>
		<path class="st1" d="M344.3,395.9h0.8v12.4h-2.5l0-6.8l-3.1,3.3l-3.1-3.3v6.8h-2.5v-12.4h0.8l4.8,5.3L344.3,395.9z"/>
		<path class="st1" d="M348.8,408.3v-12.2h4.8c4.7,0,4.7,7.5,0,7.5h-2.3v4.6H348.8z M353.3,401.2c1.6,0,1.6-2.7,0-2.7h-2.1v2.7
			H353.3z"/>
		<path class="st1" d="M359.7,408.3v-12.2h2.4v12.2H359.7z"/>
		<path class="st1" d="M370.7,408.3v-12.2h6.1v2.4h-3.7v2.4h3.2v2.4h-3.2v2.4h3.9v2.4H370.7z"/>
		<path class="st1" d="M382.7,396.1v9.7h3.9v2.4h-6.3v-12.2H382.7z"/>
		<path class="st1" d="M393.3,395.9l4.9,12.3h-2.7l-0.5-1.3h-4l-0.5,1.3h-2.8l4.9-12.3H393.3z M390.8,392.8c0.8,0,1.4,0.6,1.4,1.4
			c0,0.8-0.6,1.4-1.4,1.4c-0.7,0-1.4-0.6-1.4-1.4C389.4,393.4,390.1,392.8,390.8,392.8z M394,404.7l-1.1-3.3l-1.1,3.3H394z
			 M395,392.8c0.8,0,1.4,0.6,1.4,1.4c0,0.8-0.6,1.4-1.4,1.4c-0.7,0-1.4-0.6-1.4-1.4C393.6,393.4,394.3,392.8,395,392.8z"/>
		<path class="st1" d="M410.8,395.9h0.8v12.4h-2.5l0-6.8l-3.1,3.3l-3.1-3.3v6.8h-2.5v-12.4h0.8l4.8,5.3L410.8,395.9z"/>
		<path class="st1" d="M419.4,395.9l4.9,12.3h-2.7L421,407h-4l-0.5,1.3h-2.8l4.9-12.3H419.4z M416.9,392.8c0.8,0,1.4,0.6,1.4,1.4
			c0,0.8-0.6,1.4-1.4,1.4c-0.7,0-1.4-0.6-1.4-1.4C415.5,393.4,416.2,392.8,416.9,392.8z M420.1,404.7l-1.1-3.3l-1.1,3.3H420.1z
			 M421.1,392.8c0.8,0,1.4,0.6,1.4,1.4c0,0.8-0.6,1.4-1.4,1.4c-0.7,0-1.4-0.6-1.4-1.4C419.7,393.4,420.4,392.8,421.1,392.8z"/>
		<path class="st1" d="M428,408.4c-1.8,0-1.8-2.7,0-2.7C429.8,405.6,429.8,408.4,428,408.4z"/>
	</g>
</g>
<g>
	<path class="st3" d="M182.2,343.8c-7.4,0-14.8-1-21.9-2.9c-1.2-0.3-2.5-0.7-3.7-1.1c-19.8-6.4-36.5-19.8-46.8-37.9
		c-11.1-19.3-14-41.8-8.1-63.4c5.8-21.5,19.7-39.5,39-50.6c12.7-7.3,27-11.1,41.4-11.1c7.4,0,14.8,1,22,2.9
		c21.5,5.8,39.5,19.7,50.5,39c9.4,16.4,12.9,34.9,10.2,53.6l-0.1,0.5h-8.1l0.1-0.7c2.8-17.2-0.3-34.3-9-49.4
		c-10-17.5-26.2-30-45.7-35.3c-6.5-1.8-13.2-2.7-19.9-2.7c-13,0-26,3.5-37.4,10c-17.5,10-30,26.2-35.3,45.7
		c-5.3,19.4-2.7,39.8,7.4,57.3c10,17.5,26.2,30,45.7,35.3c7.4,2,15.1,2.8,22.8,2.5l0.4-0.1c6.1-0.3,12.3-1.3,18.4-3.2l0.2,0l0.2,0
		c4.7,0.9,9.6,1.4,14.7,1.4l2.7,0l-2.4,1.2c-4,2-8.1,3.6-12.2,4.9l-0.2,0.1c-0.2,0.1-0.3,0.2-0.5,0.2
		C198.6,342.6,190.5,343.8,182.2,343.8z"/>
</g>
<path class="st1" d="M211.4,257.6c-1-6.9-7.5-11.8-14.7-10.8c-7.1,1-12,7.5-11.1,14.4c1,7,7.4,11.8,14.6,10.8
	C207.4,270.9,212.4,264.5,211.4,257.6z M199.4,265.6c-3.5,0.5-6.6-1.8-7.1-5.3c-0.5-3.4,1.8-6.7,5.3-7.2c3.5-0.5,6.6,2,7.1,5.4
	C205.2,262,202.9,265.1,199.4,265.6z"/>
<path class="st1" d="M245.3,288.3c-1-6.9-7.5-11.8-14.7-10.8c-7.1,1-12,7.5-11.1,14.4c1,7,7.5,11.8,14.6,10.8
	C241.3,301.6,246.3,295.2,245.3,288.3z M233.2,296.3c-3.5,0.5-6.6-1.8-7.1-5.3c-0.5-3.4,1.8-6.7,5.3-7.2c3.5-0.5,6.6,2,7.1,5.4
	C239.1,292.7,236.8,295.8,233.2,296.3z"/>
<g>
	<path class="st1" d="M197.1,300.4h-10.3l45.8-50.1h10.3L197.1,300.4z"/>
</g>
<path class="st1" d="M223.6,321.8c-1.4,0.1-2.8,0.1-4.1,0.1c-19.3,0-31.2-7.2-37.8-13.2c-9.3-8.5-14.6-20.3-14.6-32.6v-0.6h-8v0.6
	c0,14.5,6.3,28.5,17.2,38.5c7.7,7,21.4,15.3,43.2,15.3c2.5,0,5-0.1,7.6-0.4L223.6,321.8z"/>
</svg>
