<?xml version="1.0" encoding="utf-8"?>
<!-- Generator: Adobe Illustrator 19.0.0, SVG Export Plug-In . SVG Version: 6.00 Build 0)  -->
<svg version="1.1" id="Layer_1" xmlns="http://www.w3.org/2000/svg" xmlns:xlink="http://www.w3.org/1999/xlink" x="0px" y="0px"
	 viewBox="0 0 612 612" style="enable-background:new 0 0 612 612;" xml:space="preserve">
<style type="text/css">
	.st0{fill:#FFFFFF;stroke:#000000;stroke-miterlimit:10;}
	.st1{fill:#0083BF;}
	.st2{fill:#74C1EC;}
	.st3{fill:#59AFE1;}
</style>
<rect y="0" class="st0" width="612" height="612"/>
<g>
	<g>
		<path class="st1" d="M311.3,308.2v-20.3h8c7.9,0,7.9,12.5,0,12.5h-3.9v7.8H311.3z M318.9,296.5c2.7,0,2.7-4.5,0-4.5h-3.6v4.5
			H318.9z"/>
		<path class="st1" d="M333.9,287.1h0.4l8.5,21h-4.6l-0.8-2.2h-6.7l-0.8,2.2h-4.6L333.9,287.1z M336,302.2l-1.8-5.3l-1.9,5.3H336z"
			/>
		<path class="st1" d="M345.2,302.6c2.3,1.6,4.9,1.7,5.8,1.6c1.2-0.1,2.2-0.9,2.1-2c-0.1-1.2-1-1.7-2.1-2.1c-3.2-1.2-6-2.8-6-6.2
			c0-3.4,2.4-6,5.7-6.2c1.1-0.1,2.4-0.1,5.1,0.9l-0.5,3.9c-2.2-0.9-3.5-0.9-4.1-0.9c-1.4,0.1-2.1,1.1-2,2.3c0.1,1.1,1.1,1.6,2.3,2
			c3.2,1.2,5.9,3,5.9,6.2c0,3.4-2.3,6-6.1,6.2c-1.1,0.1-3.7-0.1-6.4-1.5L345.2,302.6z"/>
		<path class="st1" d="M367,287.1h0.4l8.5,21h-4.6l-0.8-2.2h-6.7l-0.8,2.2h-4.6L367,287.1z M369.1,302.2l-1.8-5.3l-1.9,5.3H369.1z"
			/>
		<path class="st1" d="M378.3,301.1v-13.2h4.1v13.2c0,4.3,6.6,4.3,6.6,0v-13.2h4v13.2C393,310.7,378.3,310.7,378.3,301.1z"/>
		<path class="st1" d="M402.2,287.9v16.2h6.4v4.1h-10.5v-20.3H402.2z"/>
		<path class="st1" d="M412.1,308.2v-20.3h4.1v20.3H412.1z"/>
		<path class="st1" d="M425.5,308.2h-4.1v-20.7h1.1l10.3,11.9v-11.5h4.1v20.7h-1.1l-10.3-11.5V308.2z"/>
		<path class="st1" d="M442.1,308.2v-20.3h10.2v4.1h-6.1v4.1h5.3v4.1h-5.3v4.1h6.4v4.1H442.1z M447.3,286.4c-3.1,0-3.1-4.1,0-4.1
			C450.4,282.3,450.4,286.4,447.3,286.4z"/>
		<path class="st1" d="M310.9,334.5c2.3,1.6,4.9,1.7,5.8,1.6c1.2-0.1,2.2-0.9,2.1-2c-0.1-1.2-1-1.7-2.1-2.1c-3.2-1.2-6-2.8-6-6.2
			c0-3.4,2.4-6,5.7-6.2c1.1-0.1,2.4-0.1,5.1,0.9l-0.5,3.9c-2.2-0.9-3.5-0.9-4.1-0.9c-1.4,0.1-2.1,1.1-2,2.3c0.1,1.1,1.1,1.6,2.3,2
			c3.2,1.2,5.9,3,5.9,6.2c0,3.4-2.3,6-6.1,6.2c-1.1,0.1-3.7-0.1-6.4-1.5L310.9,334.5z"/>
		<path class="st1" d="M329,340.1v-16.2H324v-4h14.2v4h-5.1v16.2H329z"/>
		<path class="st1" d="M346.4,319.1h0.4l8.5,21h-4.6l-0.8-2.2h-6.7l-0.8,2.2h-4.6L346.4,319.1z M348.5,334.1l-1.8-5.3l-1.9,5.3
			H348.5z"/>
		<path class="st1" d="M360,340.1v-16.2h-5.1v-4h14.2v4H364v16.2H360z"/>
		<path class="st1" d="M372,340.1v-20.3h4.1v20.3H372z"/>
		<path class="st1" d="M381,334.5c2.3,1.6,4.9,1.7,5.8,1.6c1.2-0.1,2.2-0.9,2.1-2c-0.1-1.2-1-1.7-2.1-2.1c-3.2-1.2-6-2.8-6-6.2
			c0-3.4,2.4-6,5.7-6.2c1.1-0.1,2.4-0.1,5.1,0.9l-0.5,3.9c-2.2-0.9-3.5-0.9-4.1-0.9c-1.4,0.1-2.1,1.1-2,2.3c0.1,1.1,1.1,1.6,2.3,2
			c3.2,1.2,5.9,3,5.9,6.2c0,3.4-2.3,6-6.1,6.2c-1.1,0.1-3.7-0.1-6.4-1.5L381,334.5z"/>
		<path class="st1" d="M399.1,340.1v-16.2h-5.1v-4h14.2v4h-5.1v16.2H399.1z"/>
		<path class="st1" d="M411.2,340.1v-20.3h4.1v20.3H411.2z"/>
		<path class="st1" d="M420.5,319.8h4.1c0,2.7,0,5.4,0,8.1l5.1-8.1h4.7l-6.6,10l7.2,10.3h-5l-5.4-8c0,2.6,0,5.3,0,8h-4.1V319.8z"/>
		<path class="st1" d="M446.9,319.5c14,0,14,20.9,0,20.9C432.9,340.4,432.9,319.5,446.9,319.5z M446.9,323.6c-8.1,0-8.1,12.6,0,12.6
			S455,323.6,446.9,323.6z"/>
		<path class="st1" d="M461.1,334.5c2.3,1.6,4.9,1.7,5.8,1.6c1.2-0.1,2.2-0.9,2.1-2c-0.1-1.2-1-1.7-2.1-2.1c-3.2-1.2-6-2.8-6-6.2
			c0-3.4,2.4-6,5.7-6.2c1.1-0.1,2.4-0.1,5.1,0.9l-0.5,3.9c-2.2-0.9-3.5-0.9-4.1-0.9c-1.4,0.1-2.1,1.1-2,2.3c0.1,1.1,1.1,1.6,2.3,2
			c3.2,1.2,5.9,3,5.9,6.2c0,3.4-2.3,6-6.1,6.2c-1.1,0.1-3.7-0.1-6.4-1.5L461.1,334.5z"/>
		<path class="st1" d="M317.3,372.1h-6v-20.3h6C330.9,351.8,330.9,372.1,317.3,372.1z M315.4,355.8V368h2c7.9,0,7.9-12.2,0-12.2
			H315.4z"/>
		<path class="st1" d="M331.7,372.1v-20.3h4.1v20.3H331.7z"/>
		<path class="st1" d="M341,372.1v-20.3h10.2v4.1h-6.1v4.1h5.3v4.1h-5.3v4.1h6.4v4.1H341z"/>
		<path class="st1" d="M360.2,372.1h-4.1v-20.7h1.1l10.3,11.9v-11.5h4.1v20.7h-1.1L360.2,361V372.1z"/>
		<path class="st1" d="M382.8,351h0.4l8.5,21h-4.6l-0.8-2.2h-6.7l-0.8,2.2h-4.6L382.8,351z M384.9,366.1l-1.8-5.3l-1.9,5.3H384.9z"
			/>
		<path class="st1" d="M316.3,428.9c-8.4,0-8.8-12.5,0-12.9c1.5-0.1,2.7,0.4,3,0.5l-0.3,2.6c-0.5-0.2-1.3-0.5-2.7-0.5
			c-5.1,0.2-4.9,7.8,0,7.8c0.2,0,0.5,0,0.7-0.1v-3.8h2.6v5.6C318.6,428.6,317.5,428.9,316.3,428.9z"/>
		<path class="st1" d="M323.3,428.9v-12.7h6.4v2.5h-3.8v2.5h3.3v2.5h-3.3v2.5h4v2.5H323.3z"/>
		<path class="st1" d="M339.6,428.9l-2.6-4.8h-1.2v4.8h-2.5v-12.7h5c4.5,0,5,6.4,1.2,7.5l2.9,5.2H339.6z M335.8,421.5h2.2
			c1.7,0,1.7-2.8,0-2.8h-2.2V421.5z"/>
		<path class="st1" d="M345.2,428.9v-12.7h6.4v2.5h-3.8v2.5h3.3v2.5h-3.3v2.5h4v2.5H345.2z"/>
		<path class="st1" d="M354.9,425.4c1.5,1,3,1.1,3.6,1c0.7-0.1,1.4-0.6,1.3-1.3c-0.1-0.7-0.6-1-1.3-1.3c-2-0.7-3.8-1.7-3.8-3.9
			c0-2.1,1.5-3.8,3.6-3.9c0.7,0,1.5,0,3.2,0.5l-0.3,2.4c-1.4-0.6-2.2-0.5-2.6-0.5c-0.9,0.1-1.3,0.7-1.3,1.4c0.1,0.7,0.7,1,1.4,1.3
			c2,0.7,3.7,1.9,3.7,3.9c0,2.1-1.5,3.7-3.8,3.9c-0.7,0.1-2.3,0-4-0.9L354.9,425.4z"/>
		<path class="st1" d="M368,428.9h-2.5v-13h0.7l6.4,7.5v-7.2h2.6v12.9h-0.7L368,422V428.9z"/>
		<path class="st1" d="M379,428.9v-12.7h6.4v2.5h-3.8v2.5h3.3v2.5h-3.3v2.5h4v2.5H379z M382.2,415.3c-1.9,0-1.9-2.6,0-2.6
			C384.2,412.7,384.1,415.3,382.2,415.3z"/>
		<path class="st1" d="M393.8,425.4c1.5,1,3,1.1,3.6,1c0.7-0.1,1.4-0.6,1.3-1.3c-0.1-0.7-0.6-1-1.3-1.3c-2-0.7-3.8-1.7-3.8-3.9
			c0-2.1,1.5-3.8,3.6-3.9c0.7,0,1.5,0,3.2,0.5l-0.3,2.4c-1.4-0.6-2.2-0.5-2.6-0.5c-0.9,0.1-1.3,0.7-1.3,1.4c0.1,0.7,0.7,1,1.4,1.3
			c2,0.7,3.7,1.9,3.7,3.9c0,2.1-1.5,3.7-3.8,3.9c-0.7,0.1-2.3,0-4-0.9L393.8,425.4z"/>
		<path class="st1" d="M405.7,428.9v-10.2h-3.2v-2.5h8.9v2.5h-3.2v10.2H405.7z"/>
		<path class="st1" d="M417.1,415.7h0.3l5.3,13.1h-2.9l-0.5-1.4h-4.2l-0.5,1.4h-2.9L417.1,415.7z M418.4,425.1l-1.2-3.3l-1.2,3.3
			H418.4z"/>
		<path class="st1" d="M426.1,428.9v-10.2H423v-2.5h8.9v2.5h-3.2v10.2H426.1z"/>
		<path class="st1" d="M434.2,428.9v-12.7h2.5v12.7H434.2z"/>
		<path class="st1" d="M440.3,425.4c1.5,1,3,1.1,3.6,1c0.7-0.1,1.4-0.6,1.3-1.3c-0.1-0.7-0.6-1-1.3-1.3c-2-0.7-3.8-1.7-3.8-3.9
			c0-2.1,1.5-3.8,3.6-3.9c0.7,0,1.5,0,3.2,0.5l-0.3,2.4c-1.4-0.6-2.2-0.5-2.6-0.5c-0.9,0.1-1.3,0.7-1.3,1.4c0.1,0.7,0.7,1,1.4,1.3
			c2,0.7,3.7,1.9,3.7,3.9c0,2.1-1.5,3.7-3.8,3.9c-0.7,0.1-2.3,0-4-0.9L440.3,425.4z"/>
		<path class="st1" d="M452.2,428.9v-10.2h-3.2v-2.5h8.9v2.5h-3.2v10.2H452.2z"/>
		<path class="st1" d="M460.3,428.9v-12.7h2.5v12.7H460.3z"/>
		<path class="st1" d="M466.6,416.2h2.5c0,1.7,0,3.4,0,5.1l3.2-5.1h3l-4.1,6.3l4.5,6.4h-3.1l-3.4-5c0,1.6,0,3.3,0,5h-2.5V416.2z"/>
		<path class="st1" d="M481.6,415.7h0.3l5.3,13.1h-2.9l-0.5-1.4h-4.2l-0.5,1.4h-2.9L481.6,415.7z M482.9,425.1l-1.2-3.3l-1.2,3.3
			H482.9z"/>
		<path class="st1" d="M491.1,429c-1.9,0-1.9-2.9,0-2.9C493,426.1,493,429,491.1,429z"/>
		<path class="st1" d="M316.3,450.2c-8.4,0-8.8-12.5,0-12.9c1.5-0.1,2.7,0.4,3,0.5l-0.3,2.6c-0.5-0.2-1.3-0.5-2.7-0.5
			c-5.1,0.2-4.9,7.8,0,7.8c0.2,0,0.5,0,0.7-0.1v-3.8h2.6v5.6C318.6,449.9,317.5,450.2,316.3,450.2z"/>
		<path class="st1" d="M323.3,450.2v-12.7h6.4v2.5h-3.8v2.5h3.3v2.5h-3.3v2.5h4v2.5H323.3z"/>
		<path class="st1" d="M339.6,450.2l-2.6-4.8h-1.2v4.8h-2.5v-12.7h5c4.5,0,5,6.4,1.2,7.5l2.9,5.2H339.6z M335.8,442.9h2.2
			c1.7,0,1.7-2.8,0-2.8h-2.2V442.9z"/>
		<path class="st1" d="M345.2,450.2v-12.7h6.4v2.5h-3.8v2.5h3.3v2.5h-3.3v2.5h4v2.5H345.2z"/>
		<path class="st1" d="M354.9,446.7c1.5,1,3,1.1,3.6,1c0.7-0.1,1.4-0.6,1.3-1.3c-0.1-0.7-0.6-1-1.3-1.3c-2-0.7-3.8-1.7-3.8-3.9
			c0-2.1,1.5-3.8,3.6-3.9c0.7,0,1.5,0,3.2,0.5l-0.3,2.4c-1.4-0.6-2.2-0.5-2.6-0.5c-0.9,0.1-1.3,0.7-1.3,1.4c0.1,0.7,0.7,1,1.4,1.3
			c2,0.7,3.7,1.9,3.7,3.9c0,2.1-1.5,3.7-3.8,3.9c-0.7,0.1-2.3,0-4-0.9L354.9,446.7z"/>
		<path class="st1" d="M368,450.2h-2.5v-13h0.7l6.4,7.5v-7.2h2.6v12.9h-0.7l-6.4-7.2V450.2z"/>
		<path class="st1" d="M379,450.2v-12.7h2.5v12.7H379z"/>
		<path class="st1" d="M385.1,446.7c1.5,1,3,1.1,3.6,1c0.7-0.1,1.4-0.6,1.3-1.3c-0.1-0.7-0.6-1-1.3-1.3c-2-0.7-3.8-1.7-3.8-3.9
			c0-2.1,1.5-3.8,3.6-3.9c0.7,0,1.5,0,3.2,0.5l-0.3,2.4c-1.4-0.6-2.2-0.5-2.6-0.5c-0.9,0.1-1.3,0.7-1.3,1.4c0.1,0.7,0.7,1,1.4,1.3
			c2,0.7,3.7,1.9,3.7,3.9c0,2.1-1.5,3.7-3.8,3.9c-0.7,0.1-2.3,0-4-0.9L385.1,446.7z"/>
		<path class="st1" d="M406.8,450.2c-8.4,0-8.8-12.5,0-12.9c1.5-0.1,2.7,0.4,3,0.5l-0.3,2.6c-0.5-0.2-1.3-0.5-2.7-0.5
			c-5.1,0.2-4.9,7.8,0,7.8c0.2,0,0.5,0,0.7-0.1v-3.8h2.6v5.6C409.1,449.9,408,450.2,406.8,450.2z"/>
		<path class="st1" d="M415.9,444.4l-4.4-7h3.1l2.6,4.4l2.6-4.4h3.1l-4.4,7v5.7h-2.5V444.4z"/>
		<path class="st1" d="M427.9,450.4l-5.3-13h2.9l1.7,4.2l0.9,2.6l0.9-2.5l1.7-4.3h2.9l-5.3,13H427.9z"/>
		<path class="st1" d="M435.7,450.2v-12.7h6.4v2.5h-3.8v2.5h3.3v2.5h-3.3v2.5h4v2.5H435.7z"/>
		<path class="st1" d="M448.2,450.2h-2.5v-13h0.7l6.4,7.5v-7.2h2.6v12.9h-0.7l-6.4-7.2V450.2z"/>
		<path class="st1" d="M459.2,450.2v-12.7h2.5v12.7H459.2z"/>
		<path class="st1" d="M476.4,437.3h0.8v12.9h-2.6l0-7.1l-3.2,3.4l-3.2-3.4v7.1h-2.6v-12.9h0.8l5,5.6L476.4,437.3z"/>
		<path class="st1" d="M484.7,437h0.3l5.3,13.1h-2.9l-0.5-1.4h-4.2l-0.5,1.4h-2.9L484.7,437z M486,446.4l-1.2-3.3l-1.2,3.3H486z"/>
		<path class="st1" d="M492.3,446.7c1.5,1,3,1.1,3.6,1c0.7-0.1,1.4-0.6,1.3-1.3c-0.1-0.7-0.6-1-1.3-1.3c-2-0.7-3.8-1.7-3.8-3.9
			c0-2.1,1.5-3.8,3.6-3.9c0.7,0,1.5,0,3.2,0.5l-0.3,2.4c-1.4-0.6-2.2-0.5-2.6-0.5c-0.9,0.1-1.3,0.7-1.3,1.4c0.1,0.7,0.7,1,1.4,1.3
			c2,0.7,3.7,1.9,3.7,3.9c0,2.1-1.5,3.7-3.8,3.9c-0.7,0.1-2.3,0-4-0.9L492.3,446.7z"/>
		<path class="st1" d="M503.8,450.3c-1.9,0-1.9-2.9,0-2.9C505.7,447.4,505.7,450.3,503.8,450.3z"/>
	</g>
</g>
<g>
	<path class="st2" d="M197.1,352.2c-7.7,0-15.4-1-22.8-3.1c-1.3-0.4-2.6-0.7-3.9-1.1c-20.7-6.6-38-20.7-48.8-39.5
		c-11.5-20.2-14.6-43.6-8.5-66c6.1-22.4,20.5-41.1,40.7-52.7c13.2-7.6,28.1-11.5,43.1-11.5c7.7,0,15.4,1,22.9,3.1
		c22.4,6.1,41.1,20.5,52.7,40.7c9.8,17.1,13.5,36.4,10.6,55.8l-0.1,0.6h-8.5l0.1-0.8c2.9-17.9-0.4-35.7-9.4-51.5
		c-10.4-18.2-27.4-31.3-47.6-36.8c-6.8-1.8-13.8-2.8-20.7-2.8c-13.6,0-27,3.6-39,10.4c-18.2,10.4-31.3,27.3-36.8,47.6
		c-5.5,20.3-2.8,41.5,7.7,59.7c10.4,18.2,27.3,31.3,47.6,36.8c7.7,2.1,15.7,3,23.7,2.6l0.4-0.1c6.4-0.3,12.8-1.4,19.1-3.3l0.2,0
		l0.2,0c4.9,0.9,10.1,1.4,15.3,1.4l2.8,0l-2.5,1.2c-4.1,2-8.4,3.8-12.7,5.1l-0.2,0.1c-0.2,0.1-0.3,0.2-0.5,0.2
		C214.2,350.9,205.7,352.2,197.1,352.2z"/>
</g>
<path class="st1" d="M227.6,262.3c-1-7.2-7.9-12.3-15.3-11.2c-7.4,1-12.5,7.8-11.5,15c1,7.3,7.8,12.3,15.2,11.2
	C223.4,276.3,228.6,269.6,227.6,262.3z M215,270.7c-3.7,0.5-6.9-1.9-7.4-5.6c-0.5-3.6,1.9-7,5.6-7.5c3.7-0.5,6.9,2.1,7.4,5.7
	C221.1,267,218.7,270.2,215,270.7z"/>
<path class="st1" d="M262.8,294.3c-1-7.2-7.8-12.3-15.3-11.2c-7.4,1-12.5,7.8-11.5,15c1,7.3,7.8,12.3,15.2,11.2
	S263.8,301.5,262.8,294.3z M250.3,302.7c-3.7,0.5-6.9-1.9-7.4-5.6c-0.5-3.6,1.9-7,5.6-7.5c3.7-0.5,6.9,2.1,7.4,5.7
	C256.4,298.9,254,302.1,250.3,302.7z"/>
<g>
	<path class="st1" d="M212.6,306.9h-10.8l47.7-52.2h10.7L212.6,306.9z"/>
</g>
<path class="st1" d="M240.2,329.2c-1.4,0.1-2.9,0.1-4.3,0.1c-20.1,0-32.5-7.5-39.4-13.7c-9.7-8.8-15.2-21.2-15.2-33.9V281h-8.4v0.7
	c0,15.1,6.5,29.7,17.9,40.1c8,7.3,22.3,16,45,16c2.6,0,5.2-0.1,7.9-0.4L240.2,329.2z"/>
<path class="st3" d="M388.7,390.2c0-0.8-0.6-1.4-1.5-1.5c-1.3-0.1-2.9,0.7-3.3,1.1l-0.7-2.8c1.1-0.8,2.9-1.4,4.3-1.3
	c4.2,0.2,5.6,3.9,3.2,7.3l-2.8,4.4h4.3v2.9h-9.5l5.4-8.6C388.7,390.8,388.7,390.2,388.7,390.2z"/>
<path class="st3" d="M394.5,393.2c0-4.1,1.4-7.4,4.9-7.4c3.6,0,5,3.3,5,7.4c0,4.1-1.4,7.4-5,7.4
	C395.9,400.7,394.5,397.3,394.5,393.2z M401.6,393.2c0-2.6-0.5-4.7-2.2-4.7c-1.6,0-2.1,2.1-2.1,4.7c0,2.6,0.5,4.7,2.1,4.7
	C401,397.9,401.6,395.8,401.6,393.2z"/>
<path class="st3" d="M357.4,386.1h5.2v14.4h-2.9v-11.5h-2.4V386.1z"/>
<path class="st3" d="M365.8,393.2c0-4.1,1.4-7.4,4.9-7.4c3.6,0,5,3.3,5,7.4c0,4.1-1.4,7.4-5,7.4
	C367.2,400.7,365.8,397.3,365.8,393.2z M372.9,393.2c0-2.6-0.5-4.7-2.2-4.7c-1.6,0-2.1,2.1-2.1,4.7c0,2.6,0.5,4.7,2.1,4.7
	C372.4,397.9,372.9,395.8,372.9,393.2z"/>
<path class="st3" d="M315.3,390.2c0-0.8-0.6-1.4-1.5-1.5c-1.3-0.1-2.9,0.7-3.3,1.1l-0.7-2.8c1.1-0.8,2.9-1.4,4.3-1.3
	c4.2,0.2,5.6,3.9,3.2,7.3l-2.8,4.4h4.3v2.9h-9.5l5.4-8.6C315.3,390.8,315.3,390.2,315.3,390.2z"/>
<path class="st3" d="M321.1,393.2c0-4.1,1.4-7.4,4.9-7.4c3.6,0,5,3.3,5,7.4c0,4.1-1.4,7.4-5,7.4
	C322.5,400.7,321.1,397.3,321.1,393.2z M328.2,393.2c0-2.6-0.5-4.7-2.2-4.7c-1.6,0-2.1,2.1-2.1,4.7c0,2.6,0.5,4.7,2.1,4.7
	C327.6,397.9,328.2,395.8,328.2,393.2z"/>
<path class="st3" d="M332.8,386.1h5.2v14.4h-2.9v-11.5h-2.4V386.1z"/>
<path class="st3" d="M350,396.2c0,2.4-1.6,4.2-4.3,4.4c-0.7,0-2.7,0-4.6-0.6l0.3-2.9c4.5,1.5,5.8,0.3,5.7-0.9c0-1.7-1.1-2.2-5.5-2.5
	V386h7.3v2.8h-4.4v2.5C348.2,391.6,350,392.9,350,396.2z"/>
</svg>
