<?xml version="1.0" encoding="utf-8"?>
<!-- Generator: Adobe Illustrator 19.0.0, SVG Export Plug-In . SVG Version: 6.00 Build 0)  -->
<svg version="1.1" id="Layer_1" xmlns="http://www.w3.org/2000/svg" xmlns:xlink="http://www.w3.org/1999/xlink" x="0px" y="0px"
	 viewBox="0 0 612 612" style="enable-background:new 0 0 612 612;" xml:space="preserve">
<style type="text/css">
	.st0{fill:#0083BF;}
	.st1{fill:#FFFFFF;}
	.st2{fill:#90CEF1;}
	.st3{fill:#74C1EC;}
</style>
<rect y="0" class="st0" width="612" height="612"/>
<path class="st1" d="M316.3,307.4v-21h8.2c8.2,0,8.1,12.9,0,12.9h-4v8H316.3z M324.2,295.3c2.8,0,2.8-4.7,0-4.7h-3.7v4.7H324.2z"/>
<path class="st1" d="M339.7,285.7h0.4l8.8,21.7h-4.7l-0.9-2.3h-7l-0.8,2.3h-4.8L339.7,285.7z M341.9,301.2l-1.9-5.5l-2,5.5H341.9z"
	/>
<path class="st1" d="M351.4,301.7c2.4,1.7,5,1.8,6,1.7c1.2-0.1,2.3-1,2.2-2.1c-0.1-1.2-1-1.7-2.2-2.1c-3.3-1.2-6.2-2.9-6.2-6.4
	s2.4-6.2,5.9-6.4c1.1-0.1,2.5-0.1,5.2,0.9l-0.5,4c-2.3-0.9-3.6-0.9-4.3-0.9c-1.5,0.1-2.2,1.2-2.1,2.3c0.1,1.2,1.1,1.7,2.3,2.1
	c3.3,1.2,6.1,3.1,6.1,6.4c0,3.5-2.4,6.2-6.3,6.4c-1.2,0.1-3.8-0.1-6.6-1.5L351.4,301.7z"/>
<path class="st1" d="M373.9,285.7h0.4l8.8,21.7h-4.7l-0.9-2.3h-7l-0.8,2.3h-4.8L373.9,285.7z M376.1,301.2l-1.9-5.5l-2,5.5H376.1z"
	/>
<path class="st1" d="M385.6,300.1v-13.7h4.2v13.6c0,4.4,6.8,4.4,6.8,0v-13.6h4.2v13.7C400.8,310.1,385.6,310.1,385.6,300.1z"/>
<path class="st1" d="M410.3,286.4v16.8h6.7v4.2h-10.9v-21H410.3z"/>
<path class="st1" d="M420.5,307.4v-21h4.2v21H420.5z"/>
<path class="st1" d="M434.3,307.4h-4.2V286h1.1l10.6,12.3v-11.9h4.2v21.4H445L434.3,296V307.4z"/>
<path class="st1" d="M451.5,307.4v-21h10.5v4.2h-6.3v4.2h5.5v4.2h-5.5v4.2h6.7v4.2H451.5z M456.9,284.9c-3.2,0-3.2-4.3,0-4.3
	C460.1,280.7,460.1,284.9,456.9,284.9z"/>
<path class="st1" d="M315.9,334.7c2.4,1.7,5,1.8,6,1.7c1.2-0.1,2.3-1,2.2-2.1c-0.1-1.2-1-1.7-2.2-2.1c-3.3-1.2-6.2-2.9-6.2-6.4
	s2.4-6.2,5.9-6.4c1.1-0.1,2.5-0.1,5.2,0.9l-0.5,4c-2.3-0.9-3.6-0.9-4.3-0.9c-1.5,0.1-2.2,1.2-2.1,2.3c0.1,1.2,1.1,1.7,2.3,2.1
	c3.3,1.2,6.1,3.1,6.1,6.4c0,3.5-2.4,6.2-6.3,6.4c-1.2,0.1-3.8-0.1-6.6-1.5L315.9,334.7z"/>
<path class="st1" d="M334.7,340.4v-16.8h-5.2v-4.2h14.6v4.2h-5.2v16.8H334.7z"/>
<path class="st1" d="M352.6,318.7h0.4l8.8,21.7h-4.7l-0.9-2.3h-7l-0.8,2.3h-4.8L352.6,318.7z M354.8,334.2l-1.9-5.5l-2,5.5H354.8z"
	/>
<path class="st1" d="M366.6,340.4v-16.8h-5.2v-4.2h14.6v4.2h-5.2v16.8H366.6z"/>
<path class="st1" d="M379.1,340.4v-21h4.2v21H379.1z"/>
<path class="st1" d="M388.4,334.7c2.4,1.7,5,1.8,6,1.7c1.2-0.1,2.3-1,2.2-2.1c-0.1-1.2-1-1.7-2.2-2.1c-3.3-1.2-6.2-2.9-6.2-6.4
	s2.4-6.2,5.9-6.4c1.1-0.1,2.5-0.1,5.2,0.9l-0.5,4c-2.3-0.9-3.6-0.9-4.3-0.9c-1.5,0.1-2.2,1.2-2.1,2.3c0.1,1.2,1.1,1.7,2.3,2.1
	c3.3,1.2,6.1,3.1,6.1,6.4c0,3.5-2.4,6.2-6.3,6.4c-1.2,0.1-3.8-0.1-6.6-1.5L388.4,334.7z"/>
<path class="st1" d="M407.1,340.4v-16.8h-5.2v-4.2h14.6v4.2h-5.2v16.8H407.1z"/>
<path class="st1" d="M419.6,340.4v-21h4.2v21H419.6z"/>
<path class="st1" d="M429.2,319.4h4.2c0,2.8,0,5.6,0,8.4l5.3-8.4h4.9l-6.8,10.4l7.4,10.6H439l-5.6-8.2c0,2.7,0,5.5,0,8.2h-4.2V319.4
	z"/>
<path class="st1" d="M456.5,319.1c14.4,0,14.4,21.6,0,21.6S442,319.1,456.5,319.1z M456.5,323.4c-8.4,0-8.4,13,0,13
	C464.9,336.4,464.9,323.4,456.5,323.4z"/>
<path class="st1" d="M471.1,334.7c2.4,1.7,5,1.8,6,1.7c1.2-0.1,2.3-1,2.2-2.1c-0.1-1.2-1-1.7-2.2-2.1c-3.3-1.2-6.2-2.9-6.2-6.4
	s2.4-6.2,5.9-6.4c1.1-0.1,2.5-0.1,5.2,0.9l-0.5,4c-2.3-0.9-3.6-0.9-4.3-0.9c-1.5,0.1-2.2,1.2-2.1,2.3c0.1,1.2,1.1,1.7,2.3,2.1
	c3.3,1.2,6.1,3.1,6.1,6.4c0,3.5-2.4,6.2-6.3,6.4c-1.2,0.1-3.8-0.1-6.6-1.5L471.1,334.7z"/>
<path class="st1" d="M322.6,373.4h-6.2v-21h6.2C336.6,352.5,336.6,373.4,322.6,373.4z M320.5,356.7v12.6h2.1c8.2,0,8.2-12.6,0-12.6
	H320.5z"/>
<path class="st1" d="M337.4,373.4v-21h4.2v21H337.4z"/>
<path class="st1" d="M347,373.4v-21h10.5v4.2h-6.3v4.2h5.5v4.2h-5.5v4.2h6.7v4.2H347z"/>
<path class="st1" d="M366.9,373.4h-4.2V352h1.1l10.6,12.3v-11.9h4.2v21.4h-1.1L366.9,362V373.4z"/>
<path class="st1" d="M390.2,351.7h0.4l8.8,21.7h-4.7l-0.9-2.3h-7l-0.8,2.3h-4.8L390.2,351.7z M392.4,367.2l-1.9-5.5l-2,5.5H392.4z"
	/>
<path class="st2" d="M393.3,392.6c0-0.8-0.6-1.4-1.5-1.5c-1.3-0.1-2.9,0.7-3.3,1.1l-0.7-2.8c1.1-0.8,2.9-1.4,4.3-1.3
	c4.2,0.2,5.6,3.9,3.2,7.3l-2.8,4.4h4.3v2.9h-9.5l5.4-8.6C393.3,393.1,393.3,392.6,393.3,392.6z"/>
<path class="st2" d="M399.1,395.6c0-4.1,1.4-7.4,4.9-7.4c3.6,0,5,3.3,5,7.4c0,4.1-1.4,7.4-5,7.4C400.5,403,399.1,399.7,399.1,395.6z
	 M406.2,395.6c0-2.6-0.5-4.7-2.2-4.7c-1.6,0-2.1,2.1-2.1,4.7c0,2.6,0.5,4.7,2.1,4.7C405.6,400.3,406.2,398.2,406.2,395.6z"/>
<path class="st2" d="M361.9,388.4h5.2v14.4h-2.9v-11.5h-2.4V388.4z"/>
<path class="st2" d="M370.4,395.6c0-4.1,1.4-7.4,4.9-7.4c3.6,0,5,3.3,5,7.4c0,4.1-1.4,7.4-5,7.4C371.8,403,370.4,399.7,370.4,395.6z
	 M377.5,395.6c0-2.6-0.5-4.7-2.2-4.7c-1.6,0-2.1,2.1-2.1,4.7c0,2.6,0.5,4.7,2.1,4.7C377,400.3,377.5,398.2,377.5,395.6z"/>
<path class="st2" d="M319.8,392.6c0-0.8-0.6-1.4-1.5-1.5c-1.3-0.1-2.9,0.7-3.3,1.1l-0.7-2.8c1.1-0.8,2.9-1.4,4.3-1.3
	c4.2,0.2,5.6,3.9,3.2,7.3l-2.8,4.4h4.3v2.9h-9.5l5.4-8.6C319.9,393.1,319.8,392.6,319.8,392.6z"/>
<path class="st2" d="M325.7,395.6c0-4.1,1.4-7.4,4.9-7.4c3.6,0,5,3.3,5,7.4c0,4.1-1.4,7.4-5,7.4C327,403,325.7,399.7,325.7,395.6z
	 M332.8,395.6c0-2.6-0.5-4.7-2.2-4.7c-1.6,0-2.1,2.1-2.1,4.7c0,2.6,0.5,4.7,2.1,4.7C332.2,400.3,332.8,398.2,332.8,395.6z"/>
<path class="st2" d="M337.4,388.4h5.2v14.4h-2.9v-11.5h-2.4V388.4z"/>
<path class="st2" d="M354.6,398.5c0,2.4-1.6,4.2-4.3,4.4c-0.7,0-2.7,0-4.6-0.6l0.3-2.9c4.5,1.5,5.8,0.3,5.7-0.9
	c0-1.7-1.1-2.2-5.5-2.5v-7.6h7.3v2.8h-4.4v2.5C352.8,394,354.6,395.2,354.6,398.5z"/>
<path class="st1" d="M321.5,432.2c-8.7,0-9.1-13,0-13.3c1.6-0.1,2.8,0.4,3.1,0.5l-0.3,2.7c-0.5-0.2-1.4-0.5-2.8-0.5
	c-5.3,0.2-5.1,8,0,8c0.2,0,0.5,0,0.7-0.1v-3.9h2.7v5.8C323.9,431.9,322.8,432.2,321.5,432.2z"/>
<path class="st1" d="M328.8,432.1V419h6.6v2.6h-3.9v2.6h3.4v2.6h-3.4v2.6h4.2v2.6H328.8z"/>
<path class="st1" d="M345.6,432.1l-2.6-5h-1.3v5h-2.6V419h5.2c4.7,0,5.1,6.6,1.3,7.7l3,5.4H345.6z M341.7,424.6h2.3
	c1.8,0,1.8-2.9,0-2.9h-2.3V424.6z"/>
<path class="st1" d="M351.4,432.1V419h6.6v2.6H354v2.6h3.4v2.6H354v2.6h4.2v2.6H351.4z"/>
<path class="st1" d="M361.4,428.5c1.5,1.1,3.1,1.1,3.7,1c0.8-0.1,1.4-0.6,1.4-1.3c-0.1-0.8-0.6-1.1-1.4-1.3c-2.1-0.8-3.9-1.8-3.9-4
	c0-2.2,1.5-3.9,3.7-4c0.7,0,1.6,0,3.3,0.6l-0.3,2.5c-1.4-0.6-2.3-0.6-2.7-0.5c-0.9,0.1-1.4,0.7-1.3,1.5c0.1,0.7,0.7,1.1,1.5,1.3
	c2,0.8,3.8,1.9,3.8,4c0,2.2-1.5,3.9-4,4c-0.7,0.1-2.4,0-4.1-1L361.4,428.5z"/>
<path class="st1" d="M375,432.1h-2.6v-13.4h0.7l6.6,7.7V419h2.6v13.4h-0.7L375,425V432.1z"/>
<path class="st1" d="M386.3,432.1V419h6.6v2.6h-3.9v2.6h3.4v2.6h-3.4v2.6h4.2v2.6H386.3z M389.6,418.1c-2,0-2-2.7,0-2.7
	C391.7,415.4,391.6,418.1,389.6,418.1z"/>
<path class="st1" d="M401.6,428.5c1.5,1.1,3.1,1.1,3.7,1c0.8-0.1,1.4-0.6,1.4-1.3c-0.1-0.8-0.6-1.1-1.4-1.3c-2.1-0.8-3.9-1.8-3.9-4
	c0-2.2,1.5-3.9,3.7-4c0.7,0,1.6,0,3.3,0.6l-0.3,2.5c-1.4-0.6-2.3-0.6-2.7-0.5c-0.9,0.1-1.4,0.7-1.3,1.5c0.1,0.7,0.7,1.1,1.5,1.3
	c2,0.8,3.8,1.9,3.8,4c0,2.2-1.5,3.9-4,4c-0.7,0.1-2.4,0-4.1-1L401.6,428.5z"/>
<path class="st1" d="M413.9,432.1v-10.5h-3.3V419h9.2v2.6h-3.3v10.5H413.9z"/>
<path class="st1" d="M425.7,418.5h0.3l5.5,13.6h-3l-0.5-1.4h-4.3l-0.5,1.4h-3L425.7,418.5z M427,428.3l-1.2-3.4l-1.2,3.4H427z"/>
<path class="st1" d="M435,432.1v-10.5h-3.3V419h9.2v2.6h-3.3v10.5H435z"/>
<path class="st1" d="M443.4,432.1V419h2.6v13.1H443.4z"/>
<path class="st1" d="M449.7,428.5c1.5,1.1,3.1,1.1,3.7,1c0.8-0.1,1.4-0.6,1.4-1.3c-0.1-0.8-0.6-1.1-1.4-1.3c-2.1-0.8-3.9-1.8-3.9-4
	c0-2.2,1.5-3.9,3.7-4c0.7,0,1.6,0,3.3,0.6l-0.3,2.5c-1.4-0.6-2.3-0.6-2.7-0.5c-0.9,0.1-1.4,0.7-1.3,1.5c0.1,0.7,0.7,1.1,1.5,1.3
	c2,0.8,3.8,1.9,3.8,4c0,2.2-1.5,3.9-4,4c-0.7,0.1-2.4,0-4.1-1L449.7,428.5z"/>
<path class="st1" d="M462,432.1v-10.5h-3.3V419h9.2v2.6h-3.3v10.5H462z"/>
<path class="st1" d="M470.3,432.1V419h2.6v13.1H470.3z"/>
<path class="st1" d="M476.9,419h2.6c0,1.7,0,3.5,0,5.2l3.3-5.2h3.1l-4.3,6.5l4.6,6.6H483l-3.5-5.1c0,1.7,0,3.4,0,5.1h-2.6V419z"/>
<path class="st1" d="M492.3,418.5h0.3l5.5,13.6h-3l-0.5-1.4h-4.3l-0.5,1.4h-3L492.3,418.5z M493.7,428.3l-1.2-3.4l-1.2,3.4H493.7z"
	/>
<path class="st1" d="M502.1,432.3c-2,0-2-3,0-3C504.1,429.3,504.1,432.3,502.1,432.3z"/>
<path class="st1" d="M321.5,454.2c-8.7,0-9.1-13,0-13.3c1.6-0.1,2.8,0.4,3.1,0.5l-0.3,2.7c-0.5-0.2-1.4-0.5-2.8-0.5
	c-5.3,0.2-5.1,8,0,8c0.2,0,0.5,0,0.7-0.1v-3.9h2.7v5.8C323.9,453.9,322.8,454.2,321.5,454.2z"/>
<path class="st1" d="M328.8,454.1V441h6.6v2.6h-3.9v2.6h3.4v2.6h-3.4v2.6h4.2v2.6H328.8z"/>
<path class="st1" d="M345.6,454.1l-2.6-5h-1.3v5h-2.6V441h5.2c4.7,0,5.1,6.6,1.3,7.7l3,5.4H345.6z M341.7,446.6h2.3
	c1.8,0,1.8-2.9,0-2.9h-2.3V446.6z"/>
<path class="st1" d="M351.4,454.1V441h6.6v2.6H354v2.6h3.4v2.6H354v2.6h4.2v2.6H351.4z"/>
<path class="st1" d="M361.4,450.6c1.5,1.1,3.1,1.1,3.7,1c0.8-0.1,1.4-0.6,1.4-1.3c-0.1-0.8-0.6-1.1-1.4-1.3c-2.1-0.8-3.9-1.8-3.9-4
	c0-2.2,1.5-3.9,3.7-4c0.7,0,1.6,0,3.3,0.6l-0.3,2.5c-1.4-0.6-2.3-0.6-2.7-0.5c-0.9,0.1-1.4,0.7-1.3,1.5c0.1,0.7,0.7,1.1,1.5,1.3
	c2,0.8,3.8,1.9,3.8,4c0,2.2-1.5,3.9-4,4c-0.7,0.1-2.4,0-4.1-1L361.4,450.6z"/>
<path class="st1" d="M375,454.1h-2.6v-13.4h0.7l6.6,7.7v-7.4h2.6v13.4h-0.7L375,447V454.1z"/>
<path class="st1" d="M386.3,454.1V441h2.6v13.1H386.3z"/>
<path class="st1" d="M392.6,450.6c1.5,1.1,3.1,1.1,3.7,1c0.8-0.1,1.4-0.6,1.4-1.3c-0.1-0.8-0.6-1.1-1.4-1.3c-2.1-0.8-3.9-1.8-3.9-4
	c0-2.2,1.5-3.9,3.7-4c0.7,0,1.6,0,3.3,0.6l-0.3,2.5c-1.4-0.6-2.3-0.6-2.7-0.5c-0.9,0.1-1.4,0.7-1.3,1.5c0.1,0.7,0.7,1.1,1.5,1.3
	c2,0.8,3.8,1.9,3.8,4c0,2.2-1.5,3.9-4,4c-0.7,0.1-2.4,0-4.1-1L392.6,450.6z"/>
<path class="st1" d="M415,454.2c-8.7,0-9.1-13,0-13.3c1.6-0.1,2.8,0.4,3.1,0.5l-0.3,2.7c-0.5-0.2-1.4-0.5-2.8-0.5
	c-5.3,0.2-5.1,8,0,8c0.2,0,0.5,0,0.7-0.1v-3.9h2.7v5.8C417.4,453.9,416.3,454.2,415,454.2z"/>
<path class="st1" d="M424.4,448.2l-4.6-7.2h3.2l2.7,4.5l2.7-4.5h3.2l-4.6,7.2v5.9h-2.6V448.2z"/>
<path class="st1" d="M436.8,454.4l-5.4-13.4h3l1.7,4.4l1,2.7l0.9-2.6l1.8-4.5h3l-5.4,13.4H436.8z"/>
<path class="st1" d="M444.9,454.1V441h6.6v2.6h-3.9v2.6h3.4v2.6h-3.4v2.6h4.2v2.6H444.9z"/>
<path class="st1" d="M457.9,454.1h-2.6v-13.4h0.7l6.6,7.7v-7.4h2.6v13.4h-0.7l-6.6-7.4V454.1z"/>
<path class="st1" d="M469.2,454.1V441h2.6v13.1H469.2z"/>
<path class="st1" d="M486.9,440.8h0.8v13.3h-2.7l0-7.3l-3.4,3.5l-3.4-3.5v7.3h-2.7v-13.3h0.8l5.2,5.8L486.9,440.8z"/>
<path class="st1" d="M495.6,440.6h0.3l5.5,13.6h-3l-0.5-1.4h-4.3l-0.5,1.4h-3L495.6,440.6z M496.9,450.3l-1.2-3.4l-1.2,3.4H496.9z"
	/>
<path class="st1" d="M503.4,450.6c1.5,1.1,3.1,1.1,3.7,1c0.8-0.1,1.4-0.6,1.4-1.3c-0.1-0.8-0.6-1.1-1.4-1.3c-2.1-0.8-3.9-1.8-3.9-4
	c0-2.2,1.5-3.9,3.7-4c0.7,0,1.6,0,3.3,0.6l-0.3,2.5c-1.4-0.6-2.3-0.6-2.7-0.5c-0.9,0.1-1.4,0.7-1.3,1.5c0.1,0.7,0.7,1.1,1.5,1.3
	c2,0.8,3.8,1.9,3.8,4c0,2.2-1.5,3.9-4,4c-0.7,0.1-2.4,0-4.1-1L503.4,450.6z"/>
<path class="st1" d="M515.3,454.3c-2,0-2-3,0-3C517.3,451.3,517.2,454.3,515.3,454.3z"/>
<g>
	<path class="st3" d="M198.4,352.9c-7.9,0-15.9-1.1-23.6-3.2c-1.3-0.4-2.7-0.8-4-1.2c-21.3-6.8-39.3-21.3-50.4-40.9
		c-11.9-20.8-15-45.1-8.8-68.2c6.3-23.2,21.2-42.5,42-54.4c13.6-7.8,29-11.9,44.5-11.9c8,0,15.9,1.1,23.7,3.2
		c23.2,6.3,42.5,21.2,54.4,42c10.1,17.7,13.9,37.6,10.9,57.7l-0.1,0.6h-8.8l0.1-0.8c3-18.5-0.4-36.9-9.7-53.2
		c-10.8-18.8-28.3-32.3-49.2-38c-7-1.9-14.2-2.9-21.4-2.9c-14,0-27.9,3.7-40.3,10.8c-18.8,10.8-32.3,28.3-38,49.2
		c-5.7,20.9-2.9,42.8,7.9,61.7c10.8,18.8,28.3,32.3,49.2,38c7.9,2.2,16.2,3.1,24.5,2.7l0.4-0.1c6.6-0.3,13.2-1.4,19.8-3.4l0.2,0
		l0.2,0c5.1,1,10.4,1.5,15.9,1.5l2.9,0l-2.6,1.3c-4.3,2.1-8.7,3.9-13.2,5.3l-0.2,0.1c-0.2,0.1-0.3,0.2-0.5,0.2
		C216,351.6,207.2,352.9,198.4,352.9z"/>
</g>
<path class="st1" d="M229.8,260c-1-7.4-8.1-12.7-15.8-11.6c-7.7,1.1-12.9,8.1-11.9,15.5c1,7.5,8,12.7,15.7,11.6
	C225.5,274.4,230.9,267.5,229.8,260z M216.9,268.7c-3.8,0.5-7.1-2-7.6-5.8c-0.5-3.7,1.9-7.2,5.7-7.7c3.8-0.5,7.1,2.1,7.6,5.8
	C223.1,264.8,220.7,268.1,216.9,268.7z"/>
<path class="st1" d="M266.2,293.1c-1-7.4-8.1-12.7-15.8-11.6c-7.7,1.1-12.9,8.1-11.9,15.5c1,7.5,8,12.7,15.7,11.6
	C261.9,307.5,267.3,300.6,266.2,293.1z M253.3,301.7c-3.8,0.5-7.1-2-7.6-5.8c-0.5-3.7,1.9-7.2,5.7-7.7c3.8-0.5,7.1,2.1,7.6,5.8
	C259.6,297.9,257.1,301.2,253.3,301.7z"/>
<g>
	<path class="st1" d="M214.4,306.2h-11.1l49.3-53.9h11.1L214.4,306.2z"/>
</g>
<path class="st1" d="M242.9,329.2c-1.5,0.1-3,0.2-4.4,0.2c-20.8,0-33.6-7.7-40.7-14.2c-10-9.1-15.7-21.9-15.7-35.1v-0.7h-8.6v0.7
	c0,15.6,6.7,30.7,18.5,41.5c8.2,7.5,23,16.5,46.5,16.5c2.6,0,5.4-0.1,8.2-0.4L242.9,329.2z"/>
</svg>
