<?xml version="1.0" encoding="utf-8"?>
<!-- Generator: Adobe Illustrator 19.0.0, SVG Export Plug-In . SVG Version: 6.00 Build 0)  -->
<svg version="1.1" id="Layer_1" xmlns="http://www.w3.org/2000/svg" xmlns:xlink="http://www.w3.org/1999/xlink" x="0px" y="0px"
	 viewBox="0 0 612 612" style="enable-background:new 0 0 612 612;" xml:space="preserve">
<metadata><?xpacket begin="﻿" id="W5M0MpCehiHzreSzNTczkc9d"?>
<x:xmpmeta xmlns:x="adobe:ns:meta/" x:xmptk="Adobe XMP Core 5.6-c067 79.157747, 2015/03/30-23:40:42        ">
   <rdf:RDF xmlns:rdf="http://www.w3.org/1999/02/22-rdf-syntax-ns#">
      <rdf:Description rdf:about=""/>
   </rdf:RDF>
</x:xmpmeta>
                                                                                                    
                                                                                                    
                                                                                                    
                                                                                                    
                                                                                                    
                                                                                                    
                                                                                                    
                                                                                                    
                                                                                                    
                                                                                                    
                                                                                                    
                                                                                                    
                                                                                                    
                                                                                                    
                                                                                                    
                                                                                                    
                                                                                                    
                                                                                                    
                                                                                                    
                                                                                                    
                           
<?xpacket end="w"?></metadata>
<style type="text/css">
	.st0{fill:#FFFFFF;stroke:#000000;stroke-miterlimit:10;}
	.st1{fill:#0083BF;}
	.st2{fill:#59AFE1;}
	.st3{fill:#74C1EC;}
</style>
<rect y="0" class="st0" width="612" height="612"/>
<g id="XMLID_15_">
	<g>
		<path id="XMLID_1571_" class="st1" d="M314.2,303.1V290h4v13.1c0,4.2,6.5,4.2,6.5,0V290h4v13.1
			C328.8,312.7,314.2,312.7,314.2,303.1z"/>
		<path id="XMLID_1569_" class="st1" d="M333.4,304.6c2.3,1.6,4.8,1.7,5.8,1.6c1.2-0.1,2.2-0.9,2.1-2c-0.1-1.2-1-1.7-2.1-2.1
			c-3.2-1.2-6-2.8-6-6.1c0-3.4,2.3-6,5.7-6.1c1-0.1,2.4-0.1,5,0.8l-0.5,3.9c-2.2-0.9-3.5-0.9-4.1-0.8c-1.4,0.1-2.1,1.1-2,2.3
			c0.1,1.1,1.1,1.6,2.3,2c3.1,1.2,5.8,3,5.8,6.2c0,3.4-2.3,5.9-6.1,6.1c-1.1,0.1-3.6-0.1-6.4-1.5L333.4,304.6z"/>
		<path id="XMLID_1567_" class="st1" d="M349.1,303.1V290h4v13.1c0,4.2,6.5,4.2,6.5,0V290h4v13.1
			C363.7,312.7,349.1,312.7,349.1,303.1z"/>
		<path id="XMLID_1565_" class="st1" d="M368.8,290h4c0,2.7,0,5.4,0,8l5.1-8h4.7l-6.5,10l7.1,10.2h-5l-5.4-7.9c0,2.6,0,5.3,0,7.9h-4
			V290z"/>
		<path id="XMLID_1563_" class="st1" d="M385.6,303.1V290h4v13.1c0,4.2,6.5,4.2,6.5,0V290h4v13.1
			C400.2,312.7,385.6,312.7,385.6,303.1z"/>
		<path id="XMLID_1561_" class="st1" d="M318.4,321.7v16.1h6.4v4h-10.4v-20.2H318.4z"/>
		<path id="XMLID_1559_" class="st1" d="M332.9,342.3l-8.3-20.6h4.5l4.1,10.3l3.9-10.1h0.2l3.9,10.1l4.1-10.3h4.5l-8.2,20.5h-0.7
			l-3.7-8.9l-3.7,9H332.9z"/>
		<path id="XMLID_1557_" class="st1" d="M352.4,341.9v-20.2h10.1v4h-6.1v4h5.3v4h-5.3v4h6.4v4H352.4z"/>
		<path id="XMLID_1555_" class="st1" d="M365.4,341.9c2.4-5.4,4.9-10.9,7.3-16.2h-6.2v-3.9h12.2c-2.4,5.4-4.8,10.7-7.3,16.1h7.5v4.1
			H365.4z"/>
		<path id="XMLID_1552_" class="st1" d="M391.8,321.4c13.9,0,13.9,20.8,0,20.8C377.9,342.2,377.9,321.4,391.8,321.4z M391.8,325.5
			c-8.1,0-8.1,12.5,0,12.5C399.8,338,399.8,325.5,391.8,325.5z"/>
		<path id="XMLID_1548_" class="st1" d="M406.3,321.7h8c3.6,0,5.8,2.6,5.7,6.1c-0.1,1.5-0.6,3.1-1.9,4c1.3,0.9,2.1,2.5,2.1,4
			c0,3.4-2.7,6.1-5.9,6.1h-8V321.7z M410.4,329.8h2.4h1.2c1.2,0,1.9-0.9,1.9-2c0-1.1-0.7-2-1.9-2h-3.6V329.8z M410.4,337.9h2.4h1.2
			c1.2,0,2-0.9,2-2s-0.9-2-2-2h-3.6V337.9z"/>
		<path id="XMLID_1545_" class="st1" d="M430.5,321h0.4l8.5,20.9h-4.5l-0.8-2.2h-6.7l-0.8,2.2H422L430.5,321z M432.5,335.9l-1.8-5.2
			l-1.9,5.2H432.5z"/>
		<path id="XMLID_1543_" class="st1" d="M446.2,321.7v16.1h6.4v4h-10.4v-20.2H446.2z"/>
		<path id="XMLID_1540_" class="st1" d="M465,321.4c13.9,0,13.9,20.8,0,20.8C451.1,342.2,451.1,321.4,465,321.4z M465,325.5
			c-8.1,0-8.1,12.5,0,12.5C473,338,473,325.5,465,325.5z"/>
		<path id="XMLID_1538_" class="st1" d="M314.3,353.4h4c0,2.7,0,5.4,0,8l5.1-8h4.7l-6.5,10l7.1,10.2h-5l-5.4-7.9c0,2.6,0,5.3,0,7.9
			h-4V353.4z"/>
		<path id="XMLID_1536_" class="st1" d="M336.7,374l-8.3-20.6h4.5l4.1,10.3l3.9-10.1h0.2l3.9,10.1l4.1-10.3h4.5l-8.2,20.5h-0.7
			L341,365l-3.7,9H336.7z"/>
		<path id="XMLID_1534_" class="st1" d="M356.1,373.6v-20.2h4v20.2H356.1z"/>
		<path id="XMLID_1532_" class="st1" d="M375.4,373.6v-8.1h-6v8.1h-4v-20.2h4v8.1h6v-8.1h4v20.2H375.4z"/>
		<path id="XMLID_1530_" class="st1" d="M388.7,353.4v16.1h6.4v4h-10.4v-20.2H388.7z"/>
		<path id="XMLID_1527_" class="st1" d="M404.4,352.7h0.4l8.5,20.9h-4.5l-0.8-2.2h-6.7l-0.8,2.2h-4.6L404.4,352.7z M406.4,367.7
			l-1.8-5.2l-1.9,5.2H406.4z"/>
		<path id="XMLID_1523_" class="st1" d="M416.1,353.4h8c3.6,0,5.8,2.6,5.7,6.1c-0.1,1.5-0.6,3.1-1.9,4c1.3,0.9,2.1,2.5,2.1,4
			c0,3.4-2.7,6.1-5.9,6.1h-8V353.4z M420.1,361.5h2.4h1.2c1.2,0,1.9-0.9,1.9-2c0-1.1-0.7-2-1.9-2h-3.6V361.5z M420.1,369.6h2.4h1.2
			c1.2,0,2-0.9,2-2c0-1.1-0.9-2-2-2h-3.6V369.6z"/>
		<path id="XMLID_1520_" class="st1" d="M440.2,352.7h0.4l8.5,20.9h-4.5l-0.8-2.2h-6.7l-0.8,2.2h-4.6L440.2,352.7z M442.3,367.7
			l-1.8-5.2l-1.9,5.2H442.3z"/>
		<path id="XMLID_1518_" class="st1" d="M453.9,373.6v-16.1h-5v-4h14.1v4h-5v16.1H453.9z"/>
		<path id="XMLID_1516_" class="st1" d="M475.9,373.6v-8.1h-6v8.1h-4v-20.2h4v8.1h6v-8.1h4v20.2H475.9z"/>
		<path id="XMLID_1514_" class="st1" d="M485.2,373.6v-20.2h4v20.2H485.2z"/>
		<path id="XMLID_1512_" class="st1" d="M318.4,385.2v16.1h6.4v4h-10.4v-20.2H318.4z"/>
		<path id="XMLID_1509_" class="st1" d="M337.1,384.8c13.9,0,13.9,20.8,0,20.8C323.2,405.6,323.2,384.8,337.1,384.8z M337.1,389
			c-8.1,0-8.1,12.5,0,12.5C345.2,401.4,345.2,389,337.1,389z"/>
		<path id="XMLID_1507_" class="st1" d="M355.7,405.3h-4v-20.6h1.1l10.2,11.8v-11.4h4.1v20.6h-1.1l-10.2-11.4V405.3z"/>
		<path id="XMLID_1505_" class="st1" d="M372.2,385.2h4c0,2.7,0,5.4,0,8l5.1-8h4.7l-6.5,10l7.1,10.2h-5l-5.4-7.9c0,2.6,0,5.3,0,7.9
			h-4V385.2z"/>
		<path id="XMLID_1503_" class="st1" d="M389.3,405.3v-20.2h10.1v4h-6.1v4h5.3v4h-5.3v4h6.4v4H389.3z"/>
		<path id="XMLID_1501_" class="st2" d="M318.1,423.7c0-0.8-0.6-1.4-1.4-1.4c-1.2-0.1-2.8,0.7-3.2,1.1l-0.7-2.7
			c1.1-0.8,2.8-1.3,4.1-1.3c4.1,0.2,5.4,3.8,3.1,7l-2.7,4.2h4.1v2.8h-9.1l5.2-8.2C318.1,424.3,318.1,423.7,318.1,423.7z"/>
		<path id="XMLID_1498_" class="st2" d="M323.7,426.6c0-3.9,1.3-7.1,4.7-7.1c3.4,0,4.8,3.2,4.8,7.1c0,3.9-1.3,7.1-4.8,7.1
			C325,433.7,323.7,430.5,323.7,426.6z M330.5,426.6c0-2.5-0.5-4.5-2.1-4.5c-1.5,0-2.1,2-2.1,4.5c0,2.5,0.5,4.5,2.1,4.5
			C330,431.1,330.5,429.1,330.5,426.6z"/>
		<path id="XMLID_1496_" class="st2" d="M336.8,433.7c-2.1,0-2.1-3.1,0-3.1C338.9,430.5,338.9,433.7,336.8,433.7z"/>
		<path id="XMLID_1494_" class="st2" d="M340,419.7h5v13.8h-2.7v-11.1H340V419.7z"/>
		<path id="XMLID_1491_" class="st2" d="M348.1,426.6c0-3.9,1.3-7.1,4.7-7.1c3.4,0,4.8,3.2,4.8,7.1c0,3.9-1.3,7.1-4.8,7.1
			C349.4,433.7,348.1,430.5,348.1,426.6z M354.9,426.6c0-2.5-0.5-4.5-2.1-4.5c-1.5,0-2.1,2-2.1,4.5c0,2.5,0.5,4.5,2.1,4.5
			C354.4,431.1,354.9,429.1,354.9,426.6z"/>
		<path id="XMLID_1489_" class="st2" d="M361.2,433.7c-2.1,0-2.1-3.1,0-3.1C363.4,430.5,363.3,433.7,361.2,433.7z"/>
		<path id="XMLID_1487_" class="st2" d="M370.6,423.7c0-0.8-0.6-1.4-1.4-1.4c-1.2-0.1-2.8,0.7-3.2,1.1l-0.7-2.7
			c1.1-0.8,2.8-1.3,4.1-1.3c4.1,0.2,5.4,3.8,3.1,7l-2.7,4.2h4.1v2.8h-9.1l5.2-8.2C370.7,424.3,370.6,423.7,370.6,423.7z"/>
		<path id="XMLID_1484_" class="st2" d="M376.2,426.6c0-3.9,1.3-7.1,4.7-7.1c3.4,0,4.8,3.2,4.8,7.1c0,3.9-1.3,7.1-4.8,7.1
			C377.6,433.7,376.2,430.5,376.2,426.6z M383.1,426.6c0-2.5-0.5-4.5-2.1-4.5c-1.5,0-2.1,2-2.1,4.5c0,2.5,0.5,4.5,2.1,4.5
			C382.5,431.1,383.1,429.1,383.1,426.6z"/>
		<path id="XMLID_1482_" class="st2" d="M387.6,419.7h5v13.8h-2.7v-11.1h-2.3V419.7z"/>
		<path id="XMLID_1480_" class="st2" d="M404.1,429.5c0,2.3-1.6,4-4.2,4.2c-0.7,0-2.6,0-4.4-0.6l0.3-2.8c4.3,1.5,5.5,0.3,5.5-0.9
			c0-1.6-1-2.1-5.2-2.4v-7.3h7v2.7h-4.3v2.4C402.3,425.1,404.1,426.3,404.1,429.5z"/>
		<path id="XMLID_1478_" class="st1" d="M313.5,462.8v-12.6h2.5v12.6H313.5z"/>
		<path id="XMLID_1476_" class="st1" d="M319.8,462.8v-12.6h2.5v12.6H319.8z"/>
		<path id="XMLID_1474_" class="st1" d="M328.6,462.8h-2.5V450h0.7l6.4,7.4v-7.1h2.5v12.8H335l-6.4-7.1V462.8z"/>
		<path id="XMLID_1472_" class="st1" d="M339.5,450.3h2.5c0,1.7,0,3.3,0,5l3.2-5h2.9l-4.1,6.2l4.4,6.4h-3.1l-3.3-4.9
			c0,1.6,0,3.3,0,4.9h-2.5V450.3z"/>
		<path id="XMLID_1470_" class="st1" d="M356.3,452.6c-5,0-5,7.7,0,7.7c1.1,0,2-0.3,2.4-0.6l0.3,2.6c-0.8,0.3-1.9,0.5-2.8,0.5
			c-8.5,0-8.5-12.8,0-12.8c0.9,0,1.7,0.2,2.5,0.5l-0.3,2.6C358,452.9,357.4,452.6,356.3,452.6z"/>
		<path id="XMLID_1468_" class="st1" d="M361.9,458.5v-8.2h2.5v8.2c0,2.6,4.1,2.6,4.1,0v-8.2h2.5v8.2
			C371,464.4,361.9,464.4,361.9,458.5z"/>
		<path id="XMLID_1466_" class="st1" d="M374.7,450.3h2.5c0,1.7,0,3.3,0,5l3.2-5h2.9l-4.1,6.2l4.4,6.4h-3.1l-3.3-4.9
			c0,1.6,0,3.3,0,4.9h-2.5V450.3z"/>
		<path id="XMLID_1463_" class="st1" d="M389.7,449.8h0.3l5.3,13.1h-2.8l-0.5-1.4h-4.2l-0.5,1.4h-2.9L389.7,449.8z M391,459.1
			l-1.1-3.3l-1.2,3.3H391z"/>
		<path id="XMLID_1461_" class="st1" d="M403.1,452.6c-5,0-5,7.7,0,7.7c1.1,0,2-0.3,2.4-0.6l0.3,2.6c-0.8,0.3-1.9,0.5-2.8,0.5
			c-8.5,0-8.5-12.8,0-12.8c0.9,0,1.7,0.2,2.5,0.5l-0.3,2.6C404.9,452.9,404.2,452.6,403.1,452.6z"/>
		<path id="XMLID_1459_" class="st1" d="M415.2,462.8v-5h-3.8v5h-2.5v-12.6h2.5v5h3.8v-5h2.5v12.6H415.2z"/>
		<path id="XMLID_1456_" class="st1" d="M425.3,449.8h0.3l5.3,13.1H428l-0.5-1.4h-4.2l-0.5,1.4H420L425.3,449.8z M426.6,459.1
			l-1.1-3.3l-1.2,3.3H426.6z"/>
		<path id="XMLID_1454_" class="st1" d="M438.7,462.8v-12.6h6.3v2.5h-3.8v2.5h3.3v2.5h-3.3v2.5h4v2.5H438.7z"/>
		<path id="XMLID_1452_" class="st1" d="M447.4,462.8c1.5-3.4,3-6.8,4.5-10.1h-3.9v-2.4h7.6c-1.5,3.4-3,6.7-4.5,10.1h4.7v2.5H447.4z
			"/>
		<path id="XMLID_1450_" class="st1" d="M458.9,462.8v-12.6h2.5v12.6H458.9z"/>
		<path id="XMLID_1448_" class="st1" d="M467.7,462.8h-2.5V450h0.7l6.4,7.4v-7.1h2.5v12.8h-0.7l-6.4-7.1V462.8z"/>
		<path id="XMLID_1446_" class="st1" d="M484.3,462.9c-8.3,0-8.7-12.4,0-12.8c1.5-0.1,2.7,0.4,2.9,0.5l-0.3,2.6
			c-0.5-0.2-1.3-0.5-2.6-0.5c-5.1,0.2-4.9,7.7,0,7.7c0.2,0,0.5,0,0.7-0.1v-3.8h2.6v5.5C486.6,462.6,485.5,462.9,484.3,462.9z"/>
		<path id="XMLID_1444_" class="st1" d="M496.9,452.6c-5,0-5,7.7,0,7.7c1.1,0,2-0.3,2.4-0.6l0.3,2.6c-0.8,0.3-1.9,0.5-2.8,0.5
			c-8.5,0-8.5-12.8,0-12.8c0.9,0,1.7,0.2,2.5,0.5l-0.3,2.6C498.6,452.9,497.9,452.6,496.9,452.6z"/>
		<path id="XMLID_1441_" class="st1" d="M508.3,450c8.7,0,8.7,13,0,13C499.7,463,499.7,450,508.3,450z M508.3,452.6
			c-5,0-5,7.8,0,7.8C513.4,460.4,513.4,452.6,508.3,452.6z"/>
		<path id="XMLID_1439_" class="st1" d="M520.5,462.8H518V450h0.7l6.4,7.4v-7.1h2.5v12.8h-0.7l-6.4-7.1V462.8z"/>
		<path id="XMLID_1436_" class="st1" d="M537.2,450c8.7,0,8.7,13,0,13C528.6,463,528.6,450,537.2,450z M537.2,452.6
			c-5,0-5,7.8,0,7.8C542.3,460.4,542.3,452.6,537.2,452.6z"/>
		<path id="XMLID_1434_" class="st1" d="M313.4,480.7v-8.2h2.5v8.2c0,2.6,4.1,2.6,4.1,0v-8.2h2.5v8.2
			C322.5,486.7,313.4,486.7,313.4,480.7z"/>
		<path id="XMLID_1430_" class="st1" d="M326.3,472.5h5c2.2,0,3.6,1.6,3.6,3.8c0,1-0.4,1.9-1.2,2.5c0.8,0.6,1.3,1.5,1.3,2.5
			c0,2.1-1.7,3.8-3.7,3.8h-5V472.5z M328.8,477.6h1.5h0.7c0.7,0,1.2-0.6,1.2-1.3c0-0.7-0.4-1.3-1.2-1.3h-2.2V477.6z M328.8,482.6
			h1.5h0.7c0.7,0,1.3-0.6,1.3-1.3c0-0.7-0.5-1.3-1.3-1.3h-2.2V482.6z"/>
		<path id="XMLID_1427_" class="st1" d="M344.1,472.3c8.7,0,8.7,13,0,13C335.5,485.3,335.5,472.3,344.1,472.3z M344.1,474.9
			c-5,0-5,7.8,0,7.8C349.2,482.7,349.2,474.9,344.1,474.9z"/>
		<path id="XMLID_1425_" class="st1" d="M364.5,472.3h0.8v12.8h-2.6l0-7l-3.2,3.4l-3.2-3.4v7h-2.6v-12.8h0.8l5,5.5L364.5,472.3z"/>
		<path id="XMLID_1423_" class="st1" d="M369.2,485.1v-12.6h2.5v12.6H369.2z"/>
		<path id="XMLID_1420_" class="st1" d="M386.7,472.3c8.7,0,8.7,13,0,13C378,485.3,378,472.3,386.7,472.3z M386.7,474.9
			c-5,0-5,7.8,0,7.8C391.7,482.7,391.7,474.9,386.7,474.9z"/>
		<path id="XMLID_1416_" class="st1" d="M396.3,472.5h5c2.2,0,3.6,1.6,3.6,3.8c0,1-0.4,1.9-1.2,2.5c0.8,0.6,1.3,1.5,1.3,2.5
			c0,2.1-1.7,3.8-3.7,3.8h-5V472.5z M398.9,477.6h1.5h0.7c0.7,0,1.2-0.6,1.2-1.3c0-0.7-0.4-1.3-1.2-1.3h-2.2V477.6z M398.9,482.6
			h1.5h0.7c0.7,0,1.3-0.6,1.3-1.3c0-0.7-0.5-1.3-1.3-1.3h-2.2V482.6z"/>
		<path id="XMLID_1414_" class="st1" d="M408.2,480.7v-8.2h2.5v8.2c0,2.6,4.1,2.6,4.1,0v-8.2h2.5v8.2
			C417.4,486.7,408.2,486.7,408.2,480.7z"/>
		<path id="XMLID_1412_" class="st1" d="M423.6,485.1h-2.5v-12.9h0.7l6.4,7.4v-7.1h2.5v12.8H430l-6.4-7.1V485.1z"/>
		<path id="XMLID_1410_" class="st1" d="M440.2,485.2c-8.3,0-8.7-12.4,0-12.8c1.5-0.1,2.7,0.4,2.9,0.5l-0.3,2.6
			c-0.5-0.2-1.3-0.5-2.6-0.5c-5.1,0.2-4.9,7.7,0,7.7c0.2,0,0.5,0,0.7-0.1v-3.8h2.6v5.5C442.5,484.9,441.4,485.2,440.2,485.2z"/>
		<path id="XMLID_1408_" class="st1" d="M452.8,474.9c-5,0-5,7.7,0,7.7c1.1,0,2-0.3,2.4-0.6l0.3,2.6c-0.8,0.3-1.9,0.5-2.8,0.5
			c-8.5,0-8.5-12.8,0-12.8c0.9,0,1.7,0.2,2.5,0.5l-0.3,2.6C454.5,475.2,453.9,474.9,452.8,474.9z"/>
		<path id="XMLID_1405_" class="st1" d="M464.3,472.3c8.7,0,8.7,13,0,13C455.6,485.3,455.6,472.3,464.3,472.3z M464.3,474.9
			c-5,0-5,7.8,0,7.8C469.3,482.7,469.3,474.9,464.3,474.9z"/>
		<path id="XMLID_1403_" class="st1" d="M476.4,485.1h-2.5v-12.9h0.7l6.4,7.4v-7.1h2.5v12.8h-0.7l-6.4-7.1V485.1z"/>
		<path id="XMLID_1400_" class="st1" d="M493.2,472.3c8.7,0,8.7,13,0,13C484.5,485.3,484.5,472.3,493.2,472.3z M493.2,474.9
			c-5,0-5,7.8,0,7.8C498.2,482.7,498.2,474.9,493.2,474.9z"/>
	</g>
</g>
<g id="XMLID_12_">
	<path id="XMLID_13_" class="st3" d="M201,353.9c-7.6,0-15.3-1-22.7-3c-1.3-0.3-2.6-0.7-3.8-1.1c-20.5-6.6-37.7-20.5-48.5-39.3
		c-11.5-20-14.5-43.3-8.4-65.5c6-22.3,20.4-40.8,40.4-52.3c13.1-7.5,27.9-11.5,42.8-11.5c7.6,0,15.3,1,22.8,3.1
		c22.3,6,40.8,20.4,52.3,40.4c9.7,17,13.4,36.1,10.5,55.4l-0.1,0.6h-8.4l0.1-0.8c2.9-17.8-0.4-35.4-9.3-51.1
		c-10.4-18.1-27.2-31.1-47.3-36.5c-6.7-1.8-13.7-2.8-20.6-2.8c-13.5,0-26.9,3.6-38.7,10.4c-18.1,10.4-31,27.2-36.5,47.3
		c-5.5,20.1-2.8,41.2,7.6,59.2c10.4,18.1,27.2,31.1,47.3,36.5c7.6,2.1,15.6,2.9,23.6,2.6l0.4-0.1c6.3-0.3,12.7-1.4,19-3.3l0.2,0
		l0.2,0c4.9,0.9,10,1.4,15.2,1.4l2.8,0l-2.5,1.2c-4.1,2-8.4,3.7-12.7,5.1l-0.2,0.1c-0.2,0.1-0.3,0.2-0.5,0.2
		C217.9,352.6,209.5,353.9,201,353.9z"/>
</g>
<path id="XMLID_9_" class="st1" d="M231.2,264.6c-1-7.1-7.8-12.2-15.2-11.1c-7.4,1-12.4,7.7-11.4,14.9c1,7.2,7.7,12.2,15.1,11.1
	C227,278.5,232.2,271.9,231.2,264.6z M218.7,272.9c-3.6,0.5-6.8-1.9-7.3-5.5c-0.5-3.6,1.9-6.9,5.5-7.4c3.7-0.5,6.8,2.1,7.3,5.6
	C224.8,269.3,222.4,272.4,218.7,272.9z"/>
<path id="XMLID_6_" class="st1" d="M266.2,296.4c-1-7.1-7.8-12.2-15.2-11.1c-7.4,1-12.4,7.7-11.4,14.9c1,7.2,7.7,12.2,15.1,11.1
	C262,310.2,267.2,303.6,266.2,296.4z M253.7,304.7c-3.6,0.5-6.8-1.9-7.3-5.5c-0.5-3.6,1.9-6.9,5.5-7.4c3.6-0.5,6.8,2.1,7.3,5.6
	C259.8,301,257.4,304.2,253.7,304.7z"/>
<g id="XMLID_3_">
	<path id="XMLID_4_" class="st1" d="M216.4,309h-10.7l47.4-51.8h10.7L216.4,309z"/>
</g>
<path id="XMLID_2_" class="st1" d="M243.7,331.1c-1.4,0.1-2.9,0.1-4.3,0.1c-20,0-32.3-7.4-39.1-13.7c-9.6-8.8-15.1-21-15.1-33.7
	v-0.7H177v0.7c0,15,6.5,29.5,17.8,39.8c7.9,7.2,22.1,15.9,44.7,15.9c2.5,0,5.2-0.1,7.8-0.4L243.7,331.1z"/>
</svg>
