<?xml version="1.0" encoding="utf-8"?>
<!-- Generator: Adobe Illustrator 19.0.0, SVG Export Plug-In . SVG Version: 6.00 Build 0)  -->
<svg version="1.1" id="Layer_1" xmlns="http://www.w3.org/2000/svg" xmlns:xlink="http://www.w3.org/1999/xlink" x="0px" y="0px"
	 viewBox="0 0 612 612" style="enable-background:new 0 0 612 612;" xml:space="preserve">
<metadata><?xpacket begin="﻿" id="W5M0MpCehiHzreSzNTczkc9d"?>
<x:xmpmeta xmlns:x="adobe:ns:meta/" x:xmptk="Adobe XMP Core 5.6-c067 79.157747, 2015/03/30-23:40:42        ">
   <rdf:RDF xmlns:rdf="http://www.w3.org/1999/02/22-rdf-syntax-ns#">
      <rdf:Description rdf:about=""/>
   </rdf:RDF>
</x:xmpmeta>
                                                                                                    
                                                                                                    
                                                                                                    
                                                                                                    
                                                                                                    
                                                                                                    
                                                                                                    
                                                                                                    
                                                                                                    
                                                                                                    
                                                                                                    
                                                                                                    
                                                                                                    
                                                                                                    
                                                                                                    
                                                                                                    
                                                                                                    
                                                                                                    
                                                                                                    
                                                                                                    
                           
<?xpacket end="w"?></metadata>
<style type="text/css">
	.st0{fill:#0083BF;}
	.st1{fill:#FFFFFF;}
	.st2{fill:#90CEF1;}
	.st3{fill:#74C1EC;}
</style>
<rect y="0" class="st0" width="612" height="612"/>
<g id="XMLID_15_">
	<g>
		<path id="XMLID_1571_" class="st1" d="M307.1,291.5v-13.1h4v13.1c0,4.2,6.5,4.2,6.5,0v-13.1h4v13.1
			C321.7,301.1,307.1,301.1,307.1,291.5z"/>
		<path id="XMLID_1569_" class="st1" d="M326.3,293c2.3,1.6,4.8,1.7,5.8,1.6c1.2-0.1,2.2-0.9,2.1-2c-0.1-1.2-1-1.7-2.1-2.1
			c-3.2-1.2-6-2.8-6-6.1c0-3.4,2.3-6,5.7-6.1c1-0.1,2.4-0.1,5,0.8l-0.5,3.9c-2.2-0.9-3.5-0.9-4.1-0.8c-1.4,0.1-2.1,1.1-2,2.3
			c0.1,1.1,1.1,1.6,2.3,2c3.1,1.2,5.8,3,5.8,6.2c0,3.4-2.3,5.9-6.1,6.1c-1.1,0.1-3.6-0.1-6.4-1.5L326.3,293z"/>
		<path id="XMLID_1567_" class="st1" d="M342.1,291.5v-13.1h4v13.1c0,4.2,6.5,4.2,6.5,0v-13.1h4v13.1
			C356.6,301.1,342.1,301.1,342.1,291.5z"/>
		<path id="XMLID_1565_" class="st1" d="M361.8,278.4h4c0,2.7,0,5.4,0,8l5.1-8h4.7l-6.5,10l7.1,10.2h-5l-5.4-7.9c0,2.6,0,5.3,0,7.9
			h-4V278.4z"/>
		<path id="XMLID_1563_" class="st1" d="M378.5,291.5v-13.1h4v13.1c0,4.2,6.5,4.2,6.5,0v-13.1h4v13.1
			C393.1,301.1,378.5,301.1,378.5,291.5z"/>
		<path id="XMLID_1561_" class="st1" d="M311.3,310.1v16.1h6.4v4h-10.4v-20.2H311.3z"/>
		<path id="XMLID_1559_" class="st1" d="M325.8,330.7l-8.3-20.6h4.5l4.1,10.3l3.9-10.1h0.2l3.9,10.1l4.1-10.3h4.5l-8.2,20.5h-0.7
			l-3.7-8.9l-3.7,9H325.8z"/>
		<path id="XMLID_1557_" class="st1" d="M345.3,330.3v-20.2h10.1v4h-6.1v4h5.3v4h-5.3v4h6.4v4H345.3z"/>
		<path id="XMLID_1555_" class="st1" d="M358.3,330.3c2.4-5.4,4.9-10.9,7.3-16.2h-6.2v-3.9h12.2c-2.4,5.4-4.8,10.7-7.3,16.1h7.5v4.1
			H358.3z"/>
		<path id="XMLID_1552_" class="st1" d="M384.7,309.8c13.9,0,13.9,20.8,0,20.8C370.8,330.6,370.8,309.8,384.7,309.8z M384.7,313.9
			c-8.1,0-8.1,12.5,0,12.5C392.8,326.4,392.8,313.9,384.7,313.9z"/>
		<path id="XMLID_1548_" class="st1" d="M399.2,310.1h8c3.6,0,5.8,2.6,5.7,6.1c-0.1,1.5-0.6,3.1-1.9,4c1.3,0.9,2.1,2.5,2.1,4
			c0,3.4-2.7,6.1-5.9,6.1h-8V310.1z M403.3,318.2h2.4h1.2c1.2,0,1.9-0.9,1.9-2c0-1.1-0.7-2-1.9-2h-3.6V318.2z M403.3,326.2h2.4h1.2
			c1.2,0,2-0.9,2-2s-0.9-2-2-2h-3.6V326.2z"/>
		<path id="XMLID_1545_" class="st1" d="M423.4,309.4h0.4l8.5,20.9h-4.5l-0.8-2.2h-6.7l-0.8,2.2h-4.6L423.4,309.4z M425.5,324.3
			l-1.8-5.2l-1.9,5.2H425.5z"/>
		<path id="XMLID_1543_" class="st1" d="M439.2,310.1v16.1h6.4v4h-10.4v-20.2H439.2z"/>
		<path id="XMLID_1540_" class="st1" d="M457.9,309.8c13.9,0,13.9,20.8,0,20.8C444,330.6,444,309.8,457.9,309.8z M457.9,313.9
			c-8.1,0-8.1,12.5,0,12.5C466,326.4,466,313.9,457.9,313.9z"/>
		<path id="XMLID_1538_" class="st1" d="M307.3,341.8h4c0,2.7,0,5.4,0,8l5.1-8h4.7l-6.5,10l7.1,10.2h-5l-5.4-7.9c0,2.6,0,5.3,0,7.9
			h-4V341.8z"/>
		<path id="XMLID_1536_" class="st1" d="M329.6,362.4l-8.3-20.6h4.5l4.1,10.3l3.9-10.1h0.2l3.9,10.1l4.1-10.3h4.5l-8.2,20.5h-0.7
			l-3.7-8.9l-3.7,9H329.6z"/>
		<path id="XMLID_1534_" class="st1" d="M349.1,362v-20.2h4V362H349.1z"/>
		<path id="XMLID_1532_" class="st1" d="M368.3,362v-8.1h-6v8.1h-4v-20.2h4v8.1h6v-8.1h4V362H368.3z"/>
		<path id="XMLID_1530_" class="st1" d="M381.6,341.8V358h6.4v4h-10.4v-20.2H381.6z"/>
		<path id="XMLID_1527_" class="st1" d="M397.3,341.1h0.4l8.5,20.9h-4.5l-0.8-2.2h-6.7l-0.8,2.2h-4.6L397.3,341.1z M399.4,356
			l-1.8-5.2l-1.9,5.2H399.4z"/>
		<path id="XMLID_1523_" class="st1" d="M409,341.8h8c3.6,0,5.8,2.6,5.7,6.1c-0.1,1.5-0.6,3.1-1.9,4c1.3,0.9,2.1,2.5,2.1,4
			c0,3.4-2.7,6.1-5.9,6.1h-8V341.8z M413.1,349.9h2.4h1.2c1.2,0,1.9-0.9,1.9-2c0-1.1-0.7-2-1.9-2h-3.6V349.9z M413.1,358h2.4h1.2
			c1.2,0,2-0.9,2-2c0-1.1-0.9-2-2-2h-3.6V358z"/>
		<path id="XMLID_1520_" class="st1" d="M433.2,341.1h0.4l8.5,20.9h-4.5l-0.8-2.2H430l-0.8,2.2h-4.6L433.2,341.1z M435.2,356
			l-1.8-5.2l-1.9,5.2H435.2z"/>
		<path id="XMLID_1518_" class="st1" d="M446.8,362v-16.1h-5v-4h14.1v4h-5V362H446.8z"/>
		<path id="XMLID_1516_" class="st1" d="M468.8,362v-8.1h-6v8.1h-4v-20.2h4v8.1h6v-8.1h4V362H468.8z"/>
		<path id="XMLID_1514_" class="st1" d="M478.1,362v-20.2h4V362H478.1z"/>
		<path id="XMLID_1512_" class="st1" d="M311.3,373.5v16.1h6.4v4h-10.4v-20.2H311.3z"/>
		<path id="XMLID_1509_" class="st1" d="M330,373.2c13.9,0,13.9,20.8,0,20.8C316.2,394,316.2,373.2,330,373.2z M330,377.4
			c-8.1,0-8.1,12.5,0,12.5C338.1,389.8,338.1,377.4,330,377.4z"/>
		<path id="XMLID_1507_" class="st1" d="M348.6,393.7h-4v-20.6h1.1l10.2,11.8v-11.4h4.1v20.6h-1.1l-10.2-11.4V393.7z"/>
		<path id="XMLID_1505_" class="st1" d="M365.1,373.5h4c0,2.7,0,5.4,0,8l5.1-8h4.7l-6.5,10l7.1,10.2h-5l-5.4-7.9c0,2.6,0,5.3,0,7.9
			h-4V373.5z"/>
		<path id="XMLID_1503_" class="st1" d="M382.2,393.7v-20.2h10.1v4h-6.1v4h5.3v4h-5.3v4h6.4v4H382.2z"/>
		<path id="XMLID_1501_" class="st2" d="M311,412.1c0-0.8-0.6-1.4-1.4-1.4c-1.2-0.1-2.8,0.7-3.2,1.1l-0.7-2.7
			c1.1-0.8,2.8-1.3,4.1-1.3c4.1,0.2,5.4,3.8,3.1,7l-2.7,4.2h4.1v2.8h-9.1l5.2-8.2C311,412.7,311,412.1,311,412.1z"/>
		<path id="XMLID_1498_" class="st2" d="M316.6,415c0-3.9,1.3-7.1,4.7-7.1c3.4,0,4.8,3.2,4.8,7.1c0,3.9-1.3,7.1-4.8,7.1
			C317.9,422.1,316.6,418.9,316.6,415z M323.4,415c0-2.5-0.5-4.5-2.1-4.5c-1.5,0-2.1,2-2.1,4.5c0,2.5,0.5,4.5,2.1,4.5
			C322.9,419.5,323.4,417.5,323.4,415z"/>
		<path id="XMLID_1496_" class="st2" d="M329.7,422c-2.1,0-2.1-3.1,0-3.1C331.9,418.9,331.8,422,329.7,422z"/>
		<path id="XMLID_1494_" class="st2" d="M332.9,408.1h5v13.8h-2.7v-11.1h-2.3V408.1z"/>
		<path id="XMLID_1491_" class="st2" d="M341,415c0-3.9,1.3-7.1,4.7-7.1c3.4,0,4.8,3.2,4.8,7.1c0,3.9-1.3,7.1-4.8,7.1
			C342.4,422.1,341,418.9,341,415z M347.9,415c0-2.5-0.5-4.5-2.1-4.5c-1.5,0-2.1,2-2.1,4.5c0,2.5,0.5,4.5,2.1,4.5
			C347.3,419.5,347.9,417.5,347.9,415z"/>
		<path id="XMLID_1489_" class="st2" d="M354.2,422c-2.1,0-2.1-3.1,0-3.1C356.3,418.9,356.2,422,354.2,422z"/>
		<path id="XMLID_1487_" class="st2" d="M363.6,412.1c0-0.8-0.6-1.4-1.4-1.4c-1.2-0.1-2.8,0.7-3.2,1.1l-0.7-2.7
			c1.1-0.8,2.8-1.3,4.1-1.3c4.1,0.2,5.4,3.8,3.1,7l-2.7,4.2h4.1v2.8h-9.1l5.2-8.2C363.6,412.7,363.6,412.1,363.6,412.1z"/>
		<path id="XMLID_1484_" class="st2" d="M369.2,415c0-3.9,1.3-7.1,4.7-7.1c3.4,0,4.8,3.2,4.8,7.1c0,3.9-1.3,7.1-4.8,7.1
			C370.5,422.1,369.2,418.9,369.2,415z M376,415c0-2.5-0.5-4.5-2.1-4.5c-1.5,0-2.1,2-2.1,4.5c0,2.5,0.5,4.5,2.1,4.5
			C375.5,419.5,376,417.5,376,415z"/>
		<path id="XMLID_1482_" class="st2" d="M380.5,408.1h5v13.8h-2.7v-11.1h-2.3V408.1z"/>
		<path id="XMLID_1480_" class="st2" d="M397,417.8c0,2.3-1.6,4-4.2,4.2c-0.7,0-2.6,0-4.4-0.6l0.3-2.8c4.3,1.5,5.5,0.3,5.5-0.9
			c0-1.6-1-2.1-5.2-2.4v-7.3h7v2.7h-4.3v2.4C395.3,413.4,397,414.6,397,417.8z"/>
		<path id="XMLID_1478_" class="st1" d="M306.4,451.2v-12.6h2.5v12.6H306.4z"/>
		<path id="XMLID_1476_" class="st1" d="M312.7,451.2v-12.6h2.5v12.6H312.7z"/>
		<path id="XMLID_1474_" class="st1" d="M321.6,451.2h-2.5v-12.9h0.7l6.4,7.4v-7.1h2.5v12.8h-0.7l-6.4-7.1V451.2z"/>
		<path id="XMLID_1472_" class="st1" d="M332.4,438.6h2.5c0,1.7,0,3.3,0,5l3.2-5h2.9l-4.1,6.2l4.4,6.4h-3.1l-3.3-4.9
			c0,1.6,0,3.3,0,4.9h-2.5V438.6z"/>
		<path id="XMLID_1470_" class="st1" d="M349.3,441c-5,0-5,7.7,0,7.7c1.1,0,2-0.3,2.4-0.6l0.3,2.6c-0.8,0.3-1.9,0.5-2.8,0.5
			c-8.5,0-8.5-12.8,0-12.8c0.9,0,1.7,0.2,2.5,0.5l-0.3,2.6C351,441.3,350.4,441,349.3,441z"/>
		<path id="XMLID_1468_" class="st1" d="M354.8,446.8v-8.2h2.5v8.2c0,2.6,4.1,2.6,4.1,0v-8.2h2.5v8.2
			C363.9,452.8,354.8,452.8,354.8,446.8z"/>
		<path id="XMLID_1466_" class="st1" d="M367.7,438.6h2.5c0,1.7,0,3.3,0,5l3.2-5h2.9l-4.1,6.2l4.4,6.4h-3.1l-3.3-4.9
			c0,1.6,0,3.3,0,4.9h-2.5V438.6z"/>
		<path id="XMLID_1463_" class="st1" d="M382.6,438.2h0.3l5.3,13.1h-2.8l-0.5-1.4h-4.2l-0.5,1.4h-2.9L382.6,438.2z M383.9,447.5
			l-1.1-3.3l-1.2,3.3H383.9z"/>
		<path id="XMLID_1461_" class="st1" d="M396.1,441c-5,0-5,7.7,0,7.7c1.1,0,2-0.3,2.4-0.6l0.3,2.6c-0.8,0.3-1.9,0.5-2.8,0.5
			c-8.5,0-8.5-12.8,0-12.8c0.9,0,1.7,0.2,2.5,0.5l-0.3,2.6C397.8,441.3,397.2,441,396.1,441z"/>
		<path id="XMLID_1459_" class="st1" d="M408.1,451.2v-5h-3.8v5h-2.5v-12.6h2.5v5h3.8v-5h2.5v12.6H408.1z"/>
		<path id="XMLID_1456_" class="st1" d="M418.2,438.2h0.3l5.3,13.1H421l-0.5-1.4h-4.2l-0.5,1.4h-2.9L418.2,438.2z M419.5,447.5
			l-1.1-3.3l-1.2,3.3H419.5z"/>
		<path id="XMLID_1454_" class="st1" d="M431.7,451.2v-12.6h6.3v2.5h-3.8v2.5h3.3v2.5h-3.3v2.5h4v2.5H431.7z"/>
		<path id="XMLID_1452_" class="st1" d="M440.4,451.2c1.5-3.4,3-6.8,4.5-10.1H441v-2.4h7.6c-1.5,3.4-3,6.7-4.5,10.1h4.7v2.5H440.4z"
			/>
		<path id="XMLID_1450_" class="st1" d="M451.8,451.2v-12.6h2.5v12.6H451.8z"/>
		<path id="XMLID_1448_" class="st1" d="M460.7,451.2h-2.5v-12.9h0.7l6.4,7.4v-7.1h2.5v12.8H467l-6.4-7.1V451.2z"/>
		<path id="XMLID_1446_" class="st1" d="M477.2,451.3c-8.3,0-8.7-12.4,0-12.8c1.5-0.1,2.7,0.4,2.9,0.5l-0.3,2.6
			c-0.5-0.2-1.3-0.5-2.6-0.5c-5.1,0.2-4.9,7.7,0,7.7c0.2,0,0.5,0,0.7-0.1v-3.8h2.6v5.5C479.5,451,478.4,451.3,477.2,451.3z"/>
		<path id="XMLID_1444_" class="st1" d="M489.8,441c-5,0-5,7.7,0,7.7c1.1,0,2-0.3,2.4-0.6l0.3,2.6c-0.8,0.3-1.9,0.5-2.8,0.5
			c-8.5,0-8.5-12.8,0-12.8c0.9,0,1.7,0.2,2.5,0.5l-0.3,2.6C491.5,441.3,490.9,441,489.8,441z"/>
		<path id="XMLID_1441_" class="st1" d="M501.3,438.4c8.7,0,8.7,13,0,13C492.6,451.4,492.6,438.4,501.3,438.4z M501.3,441
			c-5,0-5,7.8,0,7.8C506.3,448.8,506.3,441,501.3,441z"/>
		<path id="XMLID_1439_" class="st1" d="M513.4,451.2h-2.5v-12.9h0.7l6.4,7.4v-7.1h2.5v12.8h-0.7l-6.4-7.1V451.2z"/>
		<path id="XMLID_1436_" class="st1" d="M530.2,438.4c8.7,0,8.7,13,0,13C521.5,451.4,521.5,438.4,530.2,438.4z M530.2,441
			c-5,0-5,7.8,0,7.8C535.2,448.8,535.2,441,530.2,441z"/>
		<path id="XMLID_1434_" class="st1" d="M306.3,469.1v-8.2h2.5v8.2c0,2.6,4.1,2.6,4.1,0v-8.2h2.5v8.2
			C315.4,475.1,306.3,475.1,306.3,469.1z"/>
		<path id="XMLID_1430_" class="st1" d="M319.2,460.9h5c2.2,0,3.6,1.6,3.6,3.8c0,1-0.4,1.9-1.2,2.5c0.8,0.6,1.3,1.5,1.3,2.5
			c0,2.1-1.7,3.8-3.7,3.8h-5V460.9z M321.8,465.9h1.5h0.7c0.7,0,1.2-0.6,1.2-1.3c0-0.7-0.4-1.3-1.2-1.3h-2.2V465.9z M321.8,471h1.5
			h0.7c0.7,0,1.3-0.6,1.3-1.3c0-0.7-0.5-1.3-1.3-1.3h-2.2V471z"/>
		<path id="XMLID_1427_" class="st1" d="M337.1,460.7c8.7,0,8.7,13,0,13C328.4,473.7,328.4,460.7,337.1,460.7z M337.1,463.3
			c-5,0-5,7.8,0,7.8C342.1,471.1,342.1,463.3,337.1,463.3z"/>
		<path id="XMLID_1425_" class="st1" d="M357.5,460.7h0.8v12.8h-2.6l0-7l-3.2,3.4l-3.2-3.4v7h-2.6v-12.8h0.8l5,5.5L357.5,460.7z"/>
		<path id="XMLID_1423_" class="st1" d="M362.1,473.5v-12.6h2.5v12.6H362.1z"/>
		<path id="XMLID_1420_" class="st1" d="M379.6,460.7c8.7,0,8.7,13,0,13C370.9,473.7,370.9,460.7,379.6,460.7z M379.6,463.3
			c-5,0-5,7.8,0,7.8C384.6,471.1,384.6,463.3,379.6,463.3z"/>
		<path id="XMLID_1416_" class="st1" d="M389.3,460.9h5c2.2,0,3.6,1.6,3.6,3.8c0,1-0.4,1.9-1.2,2.5c0.8,0.6,1.3,1.5,1.3,2.5
			c0,2.1-1.7,3.8-3.7,3.8h-5V460.9z M391.8,465.9h1.5h0.7c0.7,0,1.2-0.6,1.2-1.3c0-0.7-0.4-1.3-1.2-1.3h-2.2V465.9z M391.8,471h1.5
			h0.7c0.7,0,1.3-0.6,1.3-1.3c0-0.7-0.5-1.3-1.3-1.3h-2.2V471z"/>
		<path id="XMLID_1414_" class="st1" d="M401.2,469.1v-8.2h2.5v8.2c0,2.6,4.1,2.6,4.1,0v-8.2h2.5v8.2
			C410.3,475.1,401.2,475.1,401.2,469.1z"/>
		<path id="XMLID_1412_" class="st1" d="M416.6,473.5h-2.5v-12.9h0.7l6.4,7.4v-7.1h2.5v12.8H423l-6.4-7.1V473.5z"/>
		<path id="XMLID_1410_" class="st1" d="M433.1,473.6c-8.3,0-8.7-12.4,0-12.8c1.5-0.1,2.7,0.4,2.9,0.5l-0.3,2.6
			c-0.5-0.2-1.3-0.5-2.6-0.5c-5.1,0.2-4.9,7.7,0,7.7c0.2,0,0.5,0,0.7-0.1v-3.8h2.6v5.5C435.4,473.3,434.3,473.6,433.1,473.6z"/>
		<path id="XMLID_1408_" class="st1" d="M445.7,463.3c-5,0-5,7.7,0,7.7c1.1,0,2-0.3,2.4-0.6l0.3,2.6c-0.8,0.3-1.9,0.5-2.8,0.5
			c-8.5,0-8.5-12.8,0-12.8c0.9,0,1.7,0.2,2.5,0.5l-0.3,2.6C447.4,463.6,446.8,463.3,445.7,463.3z"/>
		<path id="XMLID_1405_" class="st1" d="M457.2,460.7c8.7,0,8.7,13,0,13C448.5,473.7,448.5,460.7,457.2,460.7z M457.2,463.3
			c-5,0-5,7.8,0,7.8C462.2,471.1,462.2,463.3,457.2,463.3z"/>
		<path id="XMLID_1403_" class="st1" d="M469.4,473.5h-2.5v-12.9h0.7l6.4,7.4v-7.1h2.5v12.8h-0.7l-6.4-7.1V473.5z"/>
		<path id="XMLID_1400_" class="st1" d="M486.1,460.7c8.7,0,8.7,13,0,13C477.4,473.7,477.4,460.7,486.1,460.7z M486.1,463.3
			c-5,0-5,7.8,0,7.8C491.1,471.1,491.1,463.3,486.1,463.3z"/>
	</g>
</g>
<g id="XMLID_12_">
	<path id="XMLID_13_" class="st3" d="M193.9,342.3c-7.6,0-15.3-1-22.7-3c-1.3-0.3-2.6-0.7-3.8-1.1c-20.5-6.6-37.7-20.5-48.5-39.3
		c-11.5-20-14.5-43.3-8.4-65.5c6-22.3,20.4-40.8,40.4-52.3c13.1-7.5,27.9-11.5,42.8-11.5c7.6,0,15.3,1,22.8,3.1
		c22.3,6,40.8,20.4,52.3,40.4c9.7,17,13.4,36.1,10.5,55.4l-0.1,0.6h-8.4l0.1-0.8c2.9-17.8-0.4-35.4-9.3-51.1
		c-10.4-18.1-27.2-31.1-47.3-36.5c-6.7-1.8-13.7-2.8-20.6-2.8c-13.5,0-26.9,3.6-38.7,10.4c-18.1,10.4-31,27.2-36.5,47.3
		c-5.5,20.1-2.8,41.2,7.6,59.2c10.4,18.1,27.2,31.1,47.3,36.5c7.6,2.1,15.6,2.9,23.6,2.6l0.4-0.1c6.3-0.3,12.7-1.4,19-3.3l0.2,0
		l0.2,0c4.9,0.9,10,1.4,15.2,1.4l2.8,0l-2.5,1.2c-4.1,2-8.4,3.7-12.7,5.1l-0.2,0.1c-0.2,0.1-0.3,0.2-0.5,0.2
		C210.8,341,202.4,342.3,193.9,342.3z"/>
</g>
<path id="XMLID_9_" class="st1" d="M224.1,253c-1-7.1-7.8-12.2-15.2-11.1c-7.4,1-12.4,7.7-11.4,14.9c1,7.2,7.7,12.2,15.1,11.1
	C220,266.9,225.1,260.2,224.1,253z M211.7,261.3c-3.6,0.5-6.8-1.9-7.3-5.5c-0.5-3.6,1.9-6.9,5.5-7.4c3.7-0.5,6.8,2.1,7.3,5.6
	C217.7,257.6,215.3,260.8,211.7,261.3z"/>
<path id="XMLID_6_" class="st1" d="M259.1,284.8c-1-7.1-7.8-12.2-15.2-11.1c-7.4,1-12.4,7.7-11.4,14.9c1,7.2,7.7,12.2,15.1,11.1
	C255,298.6,260.1,292,259.1,284.8z M246.7,293.1c-3.6,0.5-6.8-1.9-7.3-5.5c-0.5-3.6,1.9-6.9,5.5-7.4c3.6-0.5,6.8,2.1,7.3,5.6
	C252.7,289.4,250.3,292.6,246.7,293.1z"/>
<g id="XMLID_3_">
	<path id="XMLID_4_" class="st1" d="M209.3,297.3h-10.7l47.4-51.8h10.7L209.3,297.3z"/>
</g>
<path id="XMLID_2_" class="st1" d="M236.7,319.5c-1.4,0.1-2.9,0.1-4.3,0.1c-20,0-32.3-7.4-39.1-13.7c-9.6-8.8-15.1-21-15.1-33.7
	v-0.7h-8.3v0.7c0,15,6.5,29.5,17.8,39.8c7.9,7.2,22.1,15.9,44.7,15.9c2.5,0,5.2-0.1,7.8-0.4L236.7,319.5z"/>
</svg>
