<?xml version="1.0" encoding="utf-8"?>
<!-- Generator: Adobe Illustrator 19.0.0, SVG Export Plug-In . SVG Version: 6.00 Build 0)  -->
<svg version="1.1" id="Layer_1" xmlns="http://www.w3.org/2000/svg" xmlns:xlink="http://www.w3.org/1999/xlink" x="0px" y="0px"
	 viewBox="0 0 612 612" style="enable-background:new 0 0 612 612;" xml:space="preserve">
<style type="text/css">
	.st0{fill:#0083BF;}
	.st1{fill:#FFFFFF;}
	.st2{fill:#90CEF1;}
	.st3{fill:#74C1EC;}
</style>
<rect y="0" class="st0" width="612" height="612"/>
<g>
	<g>
		<path class="st1" d="M329.9,307.3c-2,0.7-3.1,1-4.4,1c-3.4,0-5.9-1.3-7.5-2.9c-1.9-1.9-2.9-4.5-2.9-7.1c0-2.8,1.2-5.4,2.9-7.2
			c1.7-1.8,4.3-3,7.3-3c0.9,0,2.5,0.1,4.5,1v6c-1.6-2-3.6-2.1-4.4-2.1c-1.5,0-2.6,0.4-3.5,1.3c-1.2,1.1-1.7,2.6-1.7,4
			c0,1.3,0.6,2.8,1.6,3.8c0.8,0.8,2.2,1.3,3.6,1.3c0.8,0,2.6-0.1,4.4-2V307.3z"/>
		<path class="st1" d="M333.9,307.8v-19.4h7.5c1.4,0,3.1,0.2,4.3,1.5c0.7,0.7,1.2,1.9,1.2,3.6c0,0.8-0.1,1.6-0.6,2.4
			c-0.4,0.8-0.8,1.2-1.6,1.5c1,0.1,2,0.6,2.7,1.2c0.8,0.8,1.3,2,1.3,3.6c0,1.8-0.7,3.1-1.4,3.8c-1,1.1-2.9,1.8-5.3,1.8H333.9z
			 M338.9,296h0.9c0.5,0,1.4-0.1,1.9-0.6c0.3-0.3,0.5-0.8,0.5-1.3c0-0.5-0.2-1-0.5-1.3c-0.3-0.3-0.9-0.6-1.9-0.6h-0.9V296z
			 M338.9,303.9h1.1c1.4,0,2.6-0.1,3.1-0.8c0.2-0.3,0.4-0.7,0.4-1.3c0-0.6-0.2-1.1-0.5-1.4c-0.6-0.6-1.9-0.6-3.1-0.6h-1V303.9z"/>
		<path class="st1" d="M363.2,292.6h-6v3.2h5.7v4.3h-5.7v3.4h6v4.3h-11.1v-19.4h11.1V292.6z"/>
		<path class="st1" d="M374.6,292.6v15.2h-5v-15.2h-4.1v-4.3h13.4v4.3H374.6z"/>
		<path class="st1" d="M395.3,307.3c-2,0.7-3.1,1-4.4,1c-3.4,0-5.9-1.3-7.5-2.9c-1.9-1.9-2.9-4.5-2.9-7.1c0-2.8,1.2-5.4,2.9-7.2
			c1.7-1.8,4.3-3,7.3-3c0.9,0,2.5,0.1,4.5,1v6c-1.6-2-3.6-2.1-4.4-2.1c-1.5,0-2.6,0.4-3.5,1.3c-1.2,1.1-1.7,2.6-1.7,4
			c0,1.3,0.6,2.8,1.6,3.8c0.8,0.8,2.2,1.3,3.6,1.3c0.8,0,2.6-0.1,4.4-2V307.3z"/>
		<path class="st1" d="M404.3,296.4l6.2-8h6.2l-7.7,9.2l8.4,10.2h-6.5l-6.6-8.4v8.4h-5v-19.4h5V296.4z"/>
		<path class="st1" d="M425.2,288.4v12.2l7.3-12.2h5.2v19.4h-5.1v-12.2l-7.3,12.2h-5.2v-19.4H425.2z"/>
		<path class="st1" d="M332.7,321.2v15.5h2.3v8.3h-4.5v-4.4h-11.8v4.4h-4.5v-8.3c0.8-0.1,1.5-0.4,2.2-1.2c1.5-1.5,1.7-3.6,1.7-6.4
			v-8H332.7z M322.9,329.6c0,0.9-0.1,2.6-0.5,4.1c-0.3,1.2-0.9,2.1-1.7,3h6.9v-11.6h-4.7V329.6z"/>
		<path class="st1" d="M349.2,325.4h-6v3.2h5.7v4.3h-5.7v3.4h6v4.3h-11.1v-19.4h11.1V325.4z"/>
		<path class="st1" d="M358.2,328.4h7.3v-7.3h5.1v19.4h-5.1v-7.9h-7.3v7.9h-5v-19.4h5V328.4z"/>
		<path class="st1" d="M386.5,328.4h7.3v-7.3h5.1v19.4h-5.1v-7.9h-7.3v7.9h-5v-19.4h5V328.4z"/>
		<path class="st1" d="M415.4,337.3h-7.1l-1.3,3.3h-5.3l7.5-19.4h5.5l7.3,19.4h-5.4L415.4,337.3z M414,333.5l-2.2-6.3l-2.1,6.3H414z
			"/>
		<path class="st1" d="M329.9,372.9c-2,0.7-3.1,1-4.4,1c-3.4,0-5.9-1.3-7.5-2.9c-1.9-1.9-2.9-4.5-2.9-7.1c0-2.8,1.2-5.4,2.9-7.2
			c1.7-1.8,4.3-3,7.3-3c0.9,0,2.5,0.1,4.5,1v6c-1.6-2-3.6-2.1-4.4-2.1c-1.5,0-2.6,0.4-3.5,1.3c-1.2,1.1-1.7,2.6-1.7,4
			c0,1.3,0.6,2.8,1.6,3.8c0.8,0.8,2.2,1.3,3.6,1.3c0.8,0,2.6-0.1,4.4-2V372.9z"/>
		<path class="st1" d="M341.4,358.2v15.2h-5v-15.2h-4.1V354h13.4v4.3H341.4z"/>
		<path class="st1" d="M359.1,370.1h-7.1l-1.3,3.3h-5.3l7.5-19.4h5.5l7.3,19.4h-5.4L359.1,370.1z M357.8,366.3l-2.2-6.3l-2.1,6.3
			H357.8z"/>
		<path class="st1" d="M374.8,358.2v15.2h-5v-15.2h-4.1V354H379v4.3H374.8z"/>
		<path class="st1" d="M386.8,354v12.2l7.3-12.2h5.2v19.4h-5.1v-12.2l-7.3,12.2h-5.2V354H386.8z"/>
		<path class="st1" d="M417.5,372.9c-2,0.7-3.1,1-4.4,1c-3.4,0-5.9-1.3-7.5-2.9c-1.9-1.9-2.9-4.5-2.9-7.1c0-2.8,1.2-5.4,2.9-7.2
			c1.7-1.8,4.3-3,7.3-3c0.9,0,2.5,0.1,4.5,1v6c-1.6-2-3.6-2.1-4.4-2.1c-1.5,0-2.6,0.4-3.5,1.3c-1.2,1.1-1.7,2.6-1.7,4
			c0,1.3,0.6,2.8,1.6,3.8c0.8,0.8,2.2,1.3,3.6,1.3c0.8,0,2.6-0.1,4.4-2V372.9z"/>
		<path class="st1" d="M429,358.2v15.2h-5v-15.2h-4.1V354h13.4v4.3H429z"/>
		<path class="st1" d="M441,354v12.2l7.3-12.2h5.2v19.4h-5.1v-12.2l-7.3,12.2H436V354H441z"/>
		<path class="st0" d="M463,362l6.2-8h6.2l-7.7,9.2l8.4,10.2h-6.5L463,365v8.4h-5V354h5V362z"/>
		<path class="st0" d="M491.6,370.1h-7.1l-1.3,3.3h-5.3l7.5-19.4h5.5l7.3,19.4h-5.4L491.6,370.1z M490.2,366.3L488,360l-2.1,6.3
			H490.2z"/>
		<path class="st0" d="M507.2,358.2v15.2h-5v-15.2h-4.1V354h13.4v4.3H507.2z"/>
		<path class="st0" d="M524.9,370.1h-7.1l-1.3,3.3h-5.3l7.5-19.4h5.5l7.3,19.4h-5.4L524.9,370.1z M523.6,366.3l-2.2-6.3l-2.1,6.3
			H523.6z"/>
		<path class="st2" d="M320.1,392.4c0-0.8-0.6-1.4-1.5-1.4c-1.3-0.1-2.8,0.7-3.3,1.1l-0.7-2.8c1.1-0.8,2.8-1.4,4.2-1.3
			c4.2,0.2,5.6,3.9,3.2,7.2l-2.8,4.4h4.2v2.9H314l5.3-8.5C320.1,393,320.1,392.4,320.1,392.4z"/>
		<path class="st2" d="M325.9,395.4c0-4.1,1.4-7.3,4.9-7.3c3.6,0,4.9,3.3,4.9,7.3c0,4.1-1.4,7.4-4.9,7.4
			C327.3,402.8,325.9,399.5,325.9,395.4z M333,395.4c0-2.6-0.5-4.7-2.2-4.7c-1.6,0-2.1,2.1-2.1,4.7c0,2.6,0.5,4.7,2.1,4.7
			C332.4,400.1,333,398,333,395.4z"/>
		<path class="st2" d="M339.5,402.7c-2.2,0-2.2-3.2,0-3.2C341.7,399.5,341.6,402.7,339.5,402.7z"/>
		<path class="st2" d="M342.8,388.3h5.2v14.3h-2.8v-11.4h-2.3V388.3z"/>
		<path class="st2" d="M351.2,395.4c0-4.1,1.4-7.3,4.9-7.3c3.6,0,4.9,3.3,4.9,7.3c0,4.1-1.4,7.4-4.9,7.4
			C352.5,402.8,351.2,399.5,351.2,395.4z M358.2,395.4c0-2.6-0.5-4.7-2.2-4.7c-1.6,0-2.1,2.1-2.1,4.7c0,2.6,0.5,4.7,2.1,4.7
			C357.7,400.1,358.2,398,358.2,395.4z"/>
		<path class="st2" d="M364.8,402.7c-2.2,0-2.2-3.2,0-3.2C367,399.5,366.9,402.7,364.8,402.7z"/>
		<path class="st2" d="M374.5,392.4c0-0.8-0.6-1.4-1.5-1.4c-1.3-0.1-2.8,0.7-3.3,1.1l-0.7-2.8c1.1-0.8,2.8-1.4,4.2-1.3
			c4.2,0.2,5.6,3.9,3.2,7.2l-2.8,4.4h4.2v2.9h-9.5l5.3-8.5C374.5,393,374.5,392.4,374.5,392.4z"/>
		<path class="st2" d="M380.3,395.4c0-4.1,1.4-7.3,4.9-7.3c3.6,0,4.9,3.3,4.9,7.3c0,4.1-1.4,7.4-4.9,7.4
			C381.6,402.8,380.3,399.5,380.3,395.4z M387.3,395.4c0-2.6-0.5-4.7-2.2-4.7c-1.6,0-2.1,2.1-2.1,4.7c0,2.6,0.5,4.7,2.1,4.7
			C386.8,400.1,387.3,398,387.3,395.4z"/>
		<path class="st2" d="M392,388.3h5.2v14.3h-2.8v-11.4H392V388.3z"/>
		<path class="st2" d="M409.1,398.4c0,2.4-1.6,4.2-4.3,4.3c-0.7,0-2.7,0-4.6-0.6l0.3-2.8c4.4,1.5,5.7,0.3,5.7-0.9
			c0-1.7-1.1-2.2-5.4-2.5v-7.5h7.3v2.7h-4.4v2.5C407.2,393.8,409.1,395.1,409.1,398.4z"/>
		<path class="st1" d="M322.7,432.9v-9.5h-4.4v9.5h-3.2v-12.1h10.7v12.1H322.7z"/>
		<path class="st1" d="M340.2,431.3c-1.2,1.2-3,1.8-4.8,1.8c-1.8,0-3.6-0.6-4.8-1.8c-1.3-1.2-1.9-2.9-1.9-4.5c0-1.6,0.6-3.3,1.9-4.6
			c1.2-1.2,3-1.8,4.8-1.8c1.8,0,3.5,0.6,4.8,1.8c1.3,1.2,1.9,2.9,1.9,4.6C342.1,428.4,341.5,430.1,340.2,431.3z M333,424.5
			c-0.7,0.6-1,1.5-1,2.4c0,1.1,0.5,1.8,1,2.3c0.6,0.6,1.4,1,2.5,1c1.1,0,1.9-0.4,2.4-0.9c0.6-0.6,1-1.4,1-2.3c0-0.9-0.4-1.8-1-2.3
			c-0.7-0.6-1.6-1-2.4-1C334.6,423.5,333.6,423.8,333,424.5z"/>
		<path class="st1" d="M355.5,420.7v9.7h1.5v5.2h-2.8v-2.7h-7.4v2.7h-2.8v-5.2c0.5-0.1,0.9-0.3,1.4-0.7c0.9-0.9,1.1-2.3,1.1-4v-5
			H355.5z M349.3,426c0,0.6,0,1.6-0.3,2.5c-0.2,0.8-0.5,1.3-1.1,1.9h4.3v-7.3h-2.9V426z"/>
		<path class="st1" d="M370.3,431.3c-1.2,1.2-3,1.8-4.8,1.8c-1.8,0-3.6-0.6-4.8-1.8c-1.3-1.2-1.9-2.9-1.9-4.5c0-1.6,0.6-3.3,1.9-4.6
			c1.2-1.2,3-1.8,4.8-1.8c1.8,0,3.5,0.6,4.8,1.8c1.3,1.2,1.9,2.9,1.9,4.6C372.2,428.4,371.6,430.1,370.3,431.3z M363,424.5
			c-0.7,0.6-1,1.5-1,2.4c0,1.1,0.5,1.8,1,2.3c0.6,0.6,1.4,1,2.5,1c1.1,0,1.9-0.4,2.4-0.9c0.6-0.6,1-1.4,1-2.3c0-0.9-0.4-1.8-1-2.3
			c-0.7-0.6-1.6-1-2.4-1C364.6,423.5,363.7,423.8,363,424.5z"/>
		<path class="st1" d="M375,420.7h7.9v2.7h-4.7v2.1h1.2c1.5,0,2.9,0.2,3.8,1.2c0.6,0.6,0.9,1.5,0.9,2.5c0,1-0.3,1.9-1,2.6
			c-1,0.9-2.4,1.1-3.9,1.1H375V420.7z M379.3,430.4c0.3,0,1,0,1.4-0.4c0.2-0.2,0.3-0.5,0.3-0.9c0-0.4-0.2-0.7-0.4-0.9
			c-0.4-0.3-0.9-0.3-1.3-0.3h-1.1v2.5H379.3z"/>
		<path class="st1" d="M390.2,428.9v4h-3.2v-12.1h5c1.1,0,2.2,0.2,3.1,1.1c0.9,0.9,1.1,1.9,1.1,3c0,1-0.1,2.1-1.1,3
			c-0.9,0.9-2.1,1.1-3,1.1H390.2z M390.2,426.3h1.1c0.3,0,0.9,0,1.3-0.4c0.4-0.3,0.4-0.8,0.4-1.1c0-0.3,0-0.8-0.4-1.1
			c-0.4-0.4-0.9-0.4-1.3-0.4h-1.1V426.3z"/>
		<path class="st1" d="M402.1,420.7v7.6l4.6-7.6h3.2v12.1h-3.2v-7.6l-4.6,7.6h-3.2v-12.1H402.1z"/>
		<path class="st1" d="M425.3,432.9v-9.5h-4.4v9.5h-3.2v-12.1h10.7v12.1H425.3z"/>
		<path class="st1" d="M442.8,431.3c-1.2,1.2-3,1.8-4.8,1.8c-1.8,0-3.6-0.6-4.8-1.8c-1.3-1.2-1.9-2.9-1.9-4.5c0-1.6,0.6-3.3,1.9-4.6
			c1.2-1.2,3-1.8,4.8-1.8c1.8,0,3.5,0.6,4.8,1.8c1.3,1.2,1.9,2.9,1.9,4.6C444.7,428.4,444.1,430.1,442.8,431.3z M435.6,424.5
			c-0.7,0.6-1,1.5-1,2.4c0,1.1,0.5,1.8,1,2.3c0.6,0.6,1.4,1,2.5,1c1.1,0,1.9-0.4,2.4-0.9c0.6-0.6,1-1.4,1-2.3c0-0.9-0.4-1.8-1-2.3
			c-0.7-0.6-1.6-1-2.4-1C437.1,423.5,436.2,423.8,435.6,424.5z"/>
		<path class="st1" d="M458,420.7v9.7h1.5v5.2h-2.8v-2.7h-7.4v2.7h-2.8v-5.2c0.5-0.1,0.9-0.3,1.4-0.7c0.9-0.9,1.1-2.3,1.1-4v-5H458z
			 M451.9,426c0,0.6,0,1.6-0.3,2.5c-0.2,0.8-0.5,1.3-1.1,1.9h4.3v-7.3h-2.9V426z"/>
		<path class="st1" d="M470,430.8h-4.4l-0.8,2h-3.3l4.7-12.1h3.4l4.6,12.1h-3.4L470,430.8z M469.2,428.4l-1.4-3.9l-1.3,3.9H469.2z"
			/>
		<path class="st1" d="M480.5,423.4v9.5h-3.2v-9.5h-2.6v-2.7h8.3v2.7H480.5z"/>
		<path class="st1" d="M496.4,431.3c-1.2,1.2-3,1.8-4.8,1.8c-1.8,0-3.6-0.6-4.8-1.8c-1.3-1.2-1.9-2.9-1.9-4.5c0-1.6,0.6-3.3,1.9-4.6
			c1.2-1.2,3-1.8,4.8-1.8c1.8,0,3.5,0.6,4.8,1.8c1.3,1.2,1.9,2.9,1.9,4.6C498.3,428.4,497.7,430.1,496.4,431.3z M489.1,424.5
			c-0.7,0.6-1,1.5-1,2.4c0,1.1,0.5,1.8,1,2.3c0.6,0.6,1.4,1,2.5,1c1.1,0,1.9-0.4,2.4-0.9c0.6-0.6,1-1.4,1-2.3c0-0.9-0.4-1.8-1-2.3
			c-0.7-0.6-1.6-1-2.4-1C490.7,423.5,489.8,423.8,489.1,424.5z"/>
		<path class="st1" d="M501.1,420.7h3.2v9.5h4.2v-9.5h3.2v9.5h1.5v5.4h-2.8v-2.7h-9.2V420.7z"/>
		<path class="st1" d="M519,420.7v7.6l4.6-7.6h3.2v12.1h-3.2v-7.6l-4.6,7.6h-3.2v-12.1H519z"/>
		<path class="st1" d="M530.5,432.7c-0.2-0.2-0.6-0.7-0.6-1.3c0-0.7,0.3-1.1,0.6-1.3c0.4-0.4,0.9-0.6,1.3-0.6c0.5,0,0.9,0.2,1.3,0.6
			c0.3,0.3,0.5,0.7,0.5,1.3c0,0.6-0.2,1-0.5,1.3c-0.4,0.4-0.9,0.6-1.3,0.6C531.4,433.2,531,433.1,530.5,432.7z"/>
		<path class="st1" d="M322.7,454.8v-9.5h-4.4v9.5h-3.2v-12.1h10.7v12.1H322.7z"/>
		<path class="st1" d="M340.2,453.2c-1.2,1.2-3,1.8-4.8,1.8c-1.8,0-3.6-0.6-4.8-1.8c-1.3-1.2-1.9-2.9-1.9-4.5c0-1.6,0.6-3.3,1.9-4.6
			c1.2-1.2,3-1.8,4.8-1.8c1.8,0,3.5,0.6,4.8,1.8c1.3,1.2,1.9,2.9,1.9,4.6C342.1,450.3,341.5,452,340.2,453.2z M333,446.4
			c-0.7,0.6-1,1.5-1,2.4c0,1.1,0.5,1.8,1,2.3c0.6,0.6,1.4,1,2.5,1c1.1,0,1.9-0.4,2.4-0.9c0.6-0.6,1-1.4,1-2.3c0-0.9-0.4-1.8-1-2.3
			c-0.7-0.6-1.6-1-2.4-1C334.6,445.4,333.6,445.7,333,446.4z"/>
		<path class="st1" d="M355.5,442.6v9.7h1.5v5.2h-2.8v-2.7h-7.4v2.7h-2.8v-5.2c0.5-0.1,0.9-0.3,1.4-0.7c0.9-0.9,1.1-2.3,1.1-4v-5
			H355.5z M349.3,447.9c0,0.6,0,1.6-0.3,2.5c-0.2,0.8-0.5,1.3-1.1,1.9h4.3V445h-2.9V447.9z"/>
		<path class="st1" d="M370.3,453.2c-1.2,1.2-3,1.8-4.8,1.8c-1.8,0-3.6-0.6-4.8-1.8c-1.3-1.2-1.9-2.9-1.9-4.5c0-1.6,0.6-3.3,1.9-4.6
			c1.2-1.2,3-1.8,4.8-1.8c1.8,0,3.5,0.6,4.8,1.8c1.3,1.2,1.9,2.9,1.9,4.6C372.2,450.3,371.6,452,370.3,453.2z M363,446.4
			c-0.7,0.6-1,1.5-1,2.4c0,1.1,0.5,1.8,1,2.3c0.6,0.6,1.4,1,2.5,1c1.1,0,1.9-0.4,2.4-0.9c0.6-0.6,1-1.4,1-2.3c0-0.9-0.4-1.8-1-2.3
			c-0.7-0.6-1.6-1-2.4-1C364.6,445.4,363.7,445.7,363,446.4z"/>
		<path class="st1" d="M375,442.6h7.9v2.7h-4.7v2.1h1.2c1.5,0,2.9,0.2,3.8,1.2c0.6,0.6,0.9,1.5,0.9,2.5c0,1-0.3,1.9-1,2.6
			c-1,0.9-2.4,1.1-3.9,1.1H375V442.6z M379.3,452.3c0.3,0,1,0,1.4-0.4c0.2-0.2,0.3-0.5,0.3-0.9c0-0.4-0.2-0.7-0.4-0.9
			c-0.4-0.3-0.9-0.3-1.3-0.3h-1.1v2.5H379.3z"/>
		<path class="st1" d="M394.5,452.7h-4.4l-0.8,2h-3.3l4.7-12.1h3.4l4.6,12.1h-3.4L394.5,452.7z M393.6,450.3l-1.4-3.9l-1.3,3.9
			H393.6z"/>
		<path class="st1" d="M404.2,450.7v4H401v-12.1h5c1.1,0,2.2,0.2,3.1,1.1c0.9,0.9,1.1,1.9,1.1,3c0,1-0.1,2.1-1.1,3
			c-0.9,0.9-2.1,1.1-3,1.1H404.2z M404.2,448.2h1.1c0.3,0,0.9,0,1.3-0.4c0.4-0.3,0.4-0.8,0.4-1.1c0-0.3,0-0.8-0.4-1.1
			c-0.4-0.4-0.9-0.4-1.3-0.4h-1.1V448.2z"/>
		<path class="st1" d="M423.3,449.4l-3.3,5.3h-4l4.4-6.2l-4.1-6h3.6l3.2,5.3v-5.3h3.1v5.3l3.2-5.3h3.6l-4.1,6l4.4,6.2h-4l-3.3-5.3
			v5.3h-3.1V449.4z"/>
		<path class="st1" d="M439.3,442.6v7.6l4.6-7.6h3.2v12.1h-3.2v-7.6l-4.6,7.6h-3.2v-12.1H439.3z"/>
		<path class="st1" d="M450.6,454.8v-12.1h4.7c0.9,0,1.9,0.1,2.7,0.9c0.4,0.5,0.7,1.2,0.7,2.3c0,0.5-0.1,1-0.3,1.5
			c-0.3,0.5-0.5,0.7-1,0.9c0.6,0.1,1.3,0.4,1.7,0.7c0.5,0.5,0.8,1.3,0.8,2.2c0,1.1-0.4,1.9-0.9,2.4c-0.7,0.7-1.8,1.1-3.3,1.1H450.6z
			 M453.7,447.4h0.6c0.3,0,0.9,0,1.2-0.4c0.2-0.2,0.3-0.5,0.3-0.8c0-0.3-0.1-0.6-0.3-0.8c-0.2-0.2-0.6-0.4-1.2-0.4h-0.6V447.4z
			 M453.7,452.3h0.7c0.9,0,1.6-0.1,1.9-0.5c0.1-0.2,0.3-0.4,0.3-0.8c0-0.4-0.1-0.7-0.3-0.9c-0.4-0.4-1.2-0.4-1.9-0.4h-0.7V452.3z"/>
		<path class="st1" d="M473.7,453.2c-1.2,1.2-3,1.8-4.8,1.8c-1.8,0-3.6-0.6-4.8-1.8c-1.3-1.2-1.9-2.9-1.9-4.5c0-1.6,0.6-3.3,1.9-4.6
			c1.2-1.2,3-1.8,4.8-1.8c1.8,0,3.5,0.6,4.8,1.8c1.3,1.2,1.9,2.9,1.9,4.6C475.6,450.3,475,452,473.7,453.2z M466.4,446.4
			c-0.7,0.6-1,1.5-1,2.4c0,1.1,0.5,1.8,1,2.3c0.6,0.6,1.4,1,2.5,1c1.1,0,1.9-0.4,2.4-0.9c0.6-0.6,1-1.4,1-2.3c0-0.9-0.4-1.8-1-2.3
			c-0.7-0.6-1.6-1-2.4-1C468,445.4,467.1,445.7,466.4,446.4z"/>
		<path class="st1" d="M483.1,445.3v9.5h-3.2v-9.5h-2.6v-2.7h8.3v2.7H483.1z"/>
		<path class="st1" d="M487.6,454.5c-0.2-0.2-0.6-0.7-0.6-1.3s0.3-1.1,0.6-1.3c0.4-0.4,0.9-0.6,1.3-0.6c0.5,0,0.9,0.2,1.3,0.6
			c0.3,0.3,0.5,0.7,0.5,1.3s-0.2,1-0.5,1.3c-0.4,0.4-0.9,0.6-1.3,0.6C488.5,455.1,488,455,487.6,454.5z"/>
	</g>
</g>
<g>
	<path class="st3" d="M199,353c-7.9,0-15.8-1.1-23.4-3.1c-1.3-0.4-2.7-0.8-4-1.2c-21.2-6.8-39-21.2-50.1-40.6
		c-11.9-20.7-14.9-44.8-8.7-67.8c6.2-23,21.1-42.2,41.8-54.1c13.5-7.8,28.8-11.9,44.3-11.9c7.9,0,15.8,1.1,23.5,3.2
		c23,6.2,42.2,21.1,54.1,41.8c10.1,17.6,13.8,37.4,10.9,57.3l-0.1,0.6h-8.7l0.1-0.8c3-18.4-0.4-36.7-9.6-52.8
		c-10.7-18.7-28.1-32.1-48.9-37.8c-7-1.9-14.1-2.8-21.3-2.8c-13.9,0-27.8,3.7-40,10.7c-18.7,10.7-32.1,28.1-37.8,48.9
		c-5.6,20.8-2.9,42.6,7.9,61.3c10.7,18.7,28.1,32.1,48.9,37.8c7.9,2.1,16.1,3,24.4,2.7l0.4-0.1c6.5-0.3,13.2-1.4,19.7-3.4l0.2,0
		l0.2,0c5,1,10.3,1.5,15.8,1.5l2.9,0l-2.6,1.3c-4.2,2.1-8.6,3.9-13.1,5.3l-0.2,0.1c-0.2,0.1-0.3,0.2-0.5,0.2
		C216.6,351.7,207.8,353,199,353z"/>
</g>
<path class="st1" d="M230.3,260.7c-1-7.4-8.1-12.6-15.7-11.5c-7.6,1.1-12.9,8-11.8,15.4c1,7.5,8,12.6,15.6,11.5
	C226,275,231.3,268.2,230.3,260.7z M217.4,269.3c-3.8,0.5-7-1.9-7.6-5.7c-0.5-3.7,1.9-7.1,5.7-7.7c3.8-0.5,7.1,2.1,7.6,5.8
	C223.7,265.5,221.2,268.8,217.4,269.3z"/>
<path class="st1" d="M266.5,293.6c-1-7.4-8.1-12.6-15.7-11.5c-7.6,1.1-12.9,8-11.8,15.4c1,7.5,8,12.6,15.6,11.5
	C262.2,307.9,267.5,301,266.5,293.6z M253.6,302.1c-3.8,0.5-7.1-1.9-7.6-5.7c-0.5-3.7,1.9-7.1,5.7-7.7c3.8-0.5,7.1,2.1,7.6,5.8
	C259.8,298.3,257.4,301.6,253.6,302.1z"/>
<g>
	<path class="st1" d="M215,306.5h-11.1l49-53.6h11L215,306.5z"/>
</g>
<path class="st1" d="M243.3,329.4c-1.5,0.1-3,0.2-4.4,0.2c-20.7,0-33.4-7.7-40.4-14.1c-9.9-9.1-15.6-21.8-15.6-34.8v-0.7h-8.6v0.7
	c0,15.5,6.7,30.5,18.4,41.2c8.2,7.5,22.9,16.4,46.2,16.4c2.6,0,5.4-0.2,8.1-0.4L243.3,329.4z"/>
</svg>
