<?xml version="1.0" encoding="utf-8"?>
<!-- Generator: Adobe Illustrator 19.0.0, SVG Export Plug-In . SVG Version: 6.00 Build 0)  -->
<svg version="1.1" id="Layer_1" xmlns="http://www.w3.org/2000/svg" xmlns:xlink="http://www.w3.org/1999/xlink" x="0px" y="0px"
	 viewBox="0 0 612 612" style="enable-background:new 0 0 612 612;" xml:space="preserve">
<metadata><?xpacket begin="﻿" id="W5M0MpCehiHzreSzNTczkc9d"?>
<x:xmpmeta xmlns:x="adobe:ns:meta/" x:xmptk="Adobe XMP Core 5.6-c067 79.157747, 2015/03/30-23:40:42        ">
   <rdf:RDF xmlns:rdf="http://www.w3.org/1999/02/22-rdf-syntax-ns#">
      <rdf:Description rdf:about=""/>
   </rdf:RDF>
</x:xmpmeta>
                                                                                                    
                                                                                                    
                                                                                                    
                                                                                                    
                                                                                                    
                                                                                                    
                                                                                                    
                                                                                                    
                                                                                                    
                                                                                                    
                                                                                                    
                                                                                                    
                                                                                                    
                                                                                                    
                                                                                                    
                                                                                                    
                                                                                                    
                                                                                                    
                                                                                                    
                                                                                                    
                           
<?xpacket end="w"?></metadata>
<style type="text/css">
	.st0{fill:#FFFFFF;}
	.st1{fill:#0083BF;}
	.st2{fill:#59AFE1;}
	.st3{fill:#74C1EC;}
</style>
<rect y="0" class="st0" width="612" height="612"/>
<g>
	<g>
		<path class="st1" d="M297.8,299.7c-1.8,0.7-2.8,0.9-3.9,0.9c-3,0-5.3-1.2-6.7-2.6c-1.7-1.7-2.6-4.1-2.6-6.3c0-2.5,1.1-4.8,2.6-6.4
			c1.5-1.6,3.9-2.7,6.6-2.7c0.8,0,2.2,0.1,4.1,0.9v5.4c-1.5-1.8-3.2-1.9-3.9-1.9c-1.3,0-2.3,0.4-3.1,1.1c-1.1,1-1.5,2.3-1.5,3.6
			c0,1.2,0.5,2.5,1.4,3.4c0.8,0.7,2,1.2,3.2,1.2c0.7,0,2.3-0.1,3.9-1.8V299.7z"/>
		<path class="st1" d="M301.3,300.2v-17.4h6.7c1.3,0,2.7,0.2,3.8,1.4c0.6,0.7,1.1,1.7,1.1,3.3c0,0.8-0.1,1.4-0.5,2.1
			c-0.4,0.7-0.8,1.1-1.4,1.4c0.9,0.1,1.8,0.5,2.4,1c0.7,0.7,1.2,1.8,1.2,3.2c0,1.6-0.6,2.8-1.3,3.4c-0.9,1-2.6,1.6-4.7,1.6H301.3z
			 M305.8,289.7h0.8c0.5,0,1.2-0.1,1.7-0.5c0.3-0.3,0.4-0.8,0.4-1.1c0-0.4-0.2-0.9-0.4-1.2c-0.3-0.3-0.8-0.5-1.7-0.5h-0.8V289.7z
			 M305.8,296.7h1c1.3,0,2.3-0.1,2.8-0.7c0.2-0.2,0.4-0.6,0.4-1.1c0-0.5-0.2-1-0.4-1.2c-0.5-0.5-1.7-0.6-2.8-0.6h-0.9V296.7z"/>
		<path class="st1" d="M327.5,286.7h-5.4v2.9h5.1v3.8h-5.1v3h5.4v3.8h-9.9v-17.4h9.9V286.7z"/>
		<path class="st1" d="M337.7,286.7v13.5h-4.5v-13.5h-3.7v-3.8h11.9v3.8H337.7z"/>
		<path class="st1" d="M359.4,298c-1.8,1.7-4.3,2.6-6.8,2.6c-2.6,0-5.1-0.9-6.8-2.6c-1.8-1.8-2.7-4.2-2.7-6.5c0-2.3,0.9-4.8,2.7-6.5
			c1.8-1.7,4.3-2.6,6.8-2.6c2.6,0,5.1,0.9,6.8,2.6c1.8,1.7,2.7,4.2,2.7,6.5C362.1,293.8,361.2,296.2,359.4,298z M349,288.2
			c-0.9,0.9-1.4,2.2-1.4,3.4c0,1.5,0.7,2.6,1.4,3.2c0.8,0.8,2,1.4,3.5,1.4c1.5,0,2.7-0.5,3.5-1.4c0.8-0.8,1.4-2,1.4-3.3
			c0-1.4-0.6-2.5-1.4-3.3c-1-0.9-2.3-1.4-3.5-1.4C351.3,286.8,350,287.3,349,288.2z"/>
		<path class="st1" d="M365.2,300.2v-17.4h6.7c1.3,0,2.7,0.2,3.8,1.4c0.6,0.7,1.1,1.7,1.1,3.3c0,0.8-0.1,1.4-0.5,2.1
			c-0.4,0.7-0.8,1.1-1.4,1.4c0.9,0.1,1.8,0.5,2.4,1c0.7,0.7,1.2,1.8,1.2,3.2c0,1.6-0.6,2.8-1.3,3.4c-0.9,1-2.6,1.6-4.7,1.6H365.2z
			 M369.7,289.7h0.8c0.5,0,1.2-0.1,1.7-0.5c0.3-0.3,0.4-0.8,0.4-1.1c0-0.4-0.2-0.9-0.4-1.2c-0.3-0.3-0.8-0.5-1.7-0.5h-0.8V289.7z
			 M369.7,296.7h1c1.3,0,2.3-0.1,2.8-0.7c0.2-0.2,0.4-0.6,0.4-1.1c0-0.5-0.2-1-0.4-1.2c-0.5-0.5-1.7-0.6-2.8-0.6h-0.9V296.7z"/>
		<path class="st1" d="M391.3,286.7H386v2.9h5.1v3.8H386v3h5.4v3.8h-9.9v-17.4h9.9V286.7z"/>
		<path class="st1" d="M399.3,289.3h6.5v-6.5h4.5v17.4h-4.5v-7h-6.5v7h-4.5v-17.4h4.5V289.3z"/>
		<path class="st1" d="M435,282.8v13.9h2.1v7.4H433v-3.9h-10.6v3.9h-4.1v-7.4c0.7-0.1,1.3-0.4,2-1c1.3-1.4,1.5-3.2,1.5-5.7v-7.1H435
			z M426.2,290.4c0,0.8-0.1,2.3-0.4,3.6c-0.3,1.1-0.8,1.9-1.5,2.7h6.1v-10.4h-4.2V290.4z"/>
		<path class="st1" d="M449.8,286.7h-5.4v2.9h5.1v3.8h-5.1v3h5.4v3.8h-9.9v-17.4h9.9V286.7z"/>
		<path class="st1" d="M457.8,289.3h6.5v-6.5h4.5v17.4h-4.5v-7h-6.5v7h-4.5v-17.4h4.5V289.3z"/>
		<path class="st1" d="M483,289.3h6.5v-6.5h4.5v17.4h-4.5v-7H483v7h-4.5v-17.4h4.5V289.3z"/>
		<path class="st1" d="M508.8,297.3h-6.3l-1.2,2.9h-4.8l6.7-17.4h4.9l6.5,17.4h-4.8L508.8,297.3z M507.6,293.8l-2-5.6l-1.9,5.6
			H507.6z"/>
		<path class="st1" d="M297.8,329c-1.8,0.6-2.8,0.9-3.9,0.9c-3,0-5.3-1.2-6.7-2.6c-1.7-1.7-2.6-4.1-2.6-6.3c0-2.5,1.1-4.8,2.6-6.4
			c1.5-1.6,3.9-2.7,6.6-2.7c0.8,0,2.2,0.1,4.1,0.9v5.4c-1.5-1.8-3.2-1.9-3.9-1.9c-1.3,0-2.3,0.4-3.1,1.1c-1.1,1-1.5,2.3-1.5,3.6
			c0,1.2,0.5,2.5,1.4,3.4c0.8,0.7,2,1.2,3.2,1.2c0.7,0,2.3-0.1,3.9-1.8V329z"/>
		<path class="st1" d="M308,315.9v13.5h-4.5v-13.5h-3.7v-3.8h11.9v3.8H308z"/>
		<path class="st1" d="M323.8,326.6h-6.3l-1.2,2.9h-4.8l6.7-17.4h4.9l6.5,17.4h-4.8L323.8,326.6z M322.7,323.1l-2-5.6l-1.9,5.6
			H322.7z"/>
		<path class="st1" d="M337.8,315.9v13.5h-4.5v-13.5h-3.7v-3.8h11.9v3.8H337.8z"/>
		<path class="st1" d="M348.5,312.1V323l6.5-10.9h4.6v17.4h-4.5v-10.9l-6.5,10.9H344v-17.4H348.5z"/>
		<path class="st1" d="M376,329c-1.8,0.6-2.8,0.9-3.9,0.9c-3,0-5.3-1.2-6.7-2.6c-1.7-1.7-2.6-4.1-2.6-6.3c0-2.5,1.1-4.8,2.6-6.4
			c1.5-1.6,3.9-2.7,6.6-2.7c0.8,0,2.2,0.1,4.1,0.9v5.4c-1.5-1.8-3.2-1.9-3.9-1.9c-1.3,0-2.3,0.4-3.1,1.1c-1.1,1-1.5,2.3-1.5,3.6
			c0,1.2,0.5,2.5,1.4,3.4c0.8,0.7,2,1.2,3.2,1.2c0.7,0,2.3-0.1,3.9-1.8V329z"/>
		<path class="st1" d="M386.2,315.9v13.5h-4.5v-13.5H378v-3.8h11.9v3.8H386.2z"/>
		<path class="st1" d="M396.9,312.1V323l6.5-10.9h4.6v17.4h-4.5v-10.9l-6.5,10.9h-4.6v-17.4H396.9z"/>
		<path class="st1" d="M416.6,319.3l5.5-7.2h5.6l-6.9,8.2l7.5,9.1h-5.8l-5.9-7.5v7.5h-4.5v-17.4h4.5V319.3z"/>
		<path class="st1" d="M442,326.6h-6.3l-1.2,2.9h-4.8l6.7-17.4h4.9l6.5,17.4h-4.8L442,326.6z M440.8,323.1l-2-5.6l-1.9,5.6H440.8z"
			/>
		<path class="st1" d="M456,315.9v13.5h-4.5v-13.5h-3.7v-3.8h11.9v3.8H456z"/>
		<path class="st1" d="M471.8,326.6h-6.3l-1.2,2.9h-4.8l6.7-17.4h4.9l6.5,17.4h-4.8L471.8,326.6z M470.6,323.1l-2-5.6l-1.9,5.6
			H470.6z"/>
		<path class="st2" d="M289,346.4c0-0.7-0.6-1.3-1.3-1.3c-1.1-0.1-2.5,0.7-2.9,1l-0.6-2.5c1-0.7,2.5-1.2,3.8-1.2
			c3.8,0.2,5,3.5,2.9,6.5l-2.5,3.9h3.8v2.6h-8.4l4.8-7.6C289.1,346.9,289,346.4,289,346.4z"/>
		<path class="st2" d="M294.2,349.1c0-3.6,1.2-6.6,4.4-6.6c3.2,0,4.4,2.9,4.4,6.6c0,3.6-1.2,6.6-4.4,6.6
			C295.4,355.7,294.2,352.7,294.2,349.1z M300.5,349.1c0-2.3-0.5-4.2-1.9-4.2c-1.4,0-1.9,1.9-1.9,4.2c0,2.3,0.5,4.2,1.9,4.2
			C300,353.3,300.5,351.4,300.5,349.1z"/>
		<path class="st2" d="M306.3,355.6c-1.9,0-1.9-2.9,0-2.9C308.3,352.7,308.2,355.6,306.3,355.6z"/>
		<path class="st2" d="M309.3,342.7h4.6v12.8h-2.5v-10.2h-2.1V342.7z"/>
		<path class="st2" d="M316.7,349.1c0-3.6,1.2-6.6,4.4-6.6c3.2,0,4.4,2.9,4.4,6.6c0,3.6-1.2,6.6-4.4,6.6
			C318,355.7,316.7,352.7,316.7,349.1z M323.1,349.1c0-2.3-0.5-4.2-1.9-4.2c-1.4,0-1.9,1.9-1.9,4.2c0,2.3,0.5,4.2,1.9,4.2
			C322.6,353.3,323.1,351.4,323.1,349.1z"/>
		<path class="st2" d="M328.9,355.6c-1.9,0-1.9-2.9,0-2.9C330.8,352.7,330.8,355.6,328.9,355.6z"/>
		<path class="st2" d="M337.5,346.4c0-0.7-0.6-1.3-1.3-1.3c-1.1-0.1-2.5,0.7-2.9,1l-0.6-2.5c1-0.7,2.5-1.2,3.8-1.2
			c3.8,0.2,5,3.5,2.9,6.5l-2.5,3.9h3.8v2.6h-8.4l4.8-7.6C337.6,346.9,337.5,346.4,337.5,346.4z"/>
		<path class="st2" d="M342.7,349.1c0-3.6,1.2-6.6,4.4-6.6c3.2,0,4.4,2.9,4.4,6.6c0,3.6-1.2,6.6-4.4,6.6
			C343.9,355.7,342.7,352.7,342.7,349.1z M349,349.1c0-2.3-0.5-4.2-1.9-4.2c-1.4,0-1.9,1.9-1.9,4.2c0,2.3,0.5,4.2,1.9,4.2
			C348.5,353.3,349,351.4,349,349.1z"/>
		<path class="st2" d="M353.2,342.7h4.6v12.8h-2.5v-10.2h-2.1V342.7z"/>
		<path class="st2" d="M368.4,351.7c0,2.1-1.4,3.7-3.8,3.9c-0.7,0-2.4,0-4.1-0.6l0.2-2.5c4,1.4,5.1,0.3,5.1-0.8c0-1.5-0.9-2-4.8-2.3
			v-6.7h6.5v2.4h-3.9v2.2C366.8,347.7,368.4,348.8,368.4,351.7z"/>
		<path class="st1" d="M291.3,382.5v-8.4h-3.9v8.4h-2.8v-10.8h9.5v10.8H291.3z"/>
		<path class="st1" d="M307,381.2c-1.1,1.1-2.7,1.6-4.3,1.6s-3.2-0.6-4.3-1.6c-1.2-1.1-1.7-2.6-1.7-4c0-1.4,0.6-3,1.7-4.1
			c1.1-1.1,2.7-1.6,4.3-1.6s3.2,0.6,4.3,1.6c1.2,1.1,1.7,2.6,1.7,4.1C308.7,378.6,308.1,380.1,307,381.2z M300.5,375
			c-0.6,0.6-0.9,1.4-0.9,2.1c0,1,0.5,1.6,0.9,2c0.5,0.5,1.3,0.9,2.2,0.9c1,0,1.7-0.3,2.2-0.8c0.5-0.5,0.9-1.3,0.9-2.1
			c0-0.8-0.4-1.6-0.9-2.1c-0.6-0.6-1.4-0.9-2.2-0.9C301.9,374.2,301.1,374.5,300.5,375z"/>
		<path class="st1" d="M311.4,375.9h4.1v2.2h-4.1V375.9z"/>
		<path class="st1" d="M327.2,371.7v8.7h1.3v4.6H326v-2.4h-6.6v2.4h-2.5v-4.6c0.4-0.1,0.8-0.2,1.2-0.7c0.8-0.8,0.9-2,0.9-3.6v-4.5
			H327.2z M321.8,376.4c0,0.5,0,1.5-0.3,2.3c-0.2,0.7-0.5,1.2-0.9,1.7h3.8v-6.5h-2.6V376.4z"/>
		<path class="st1" d="M340.4,381.2c-1.1,1.1-2.7,1.6-4.3,1.6s-3.2-0.6-4.3-1.6c-1.2-1.1-1.7-2.6-1.7-4c0-1.4,0.6-3,1.7-4.1
			c1.1-1.1,2.7-1.6,4.3-1.6s3.2,0.6,4.3,1.6c1.2,1.1,1.7,2.6,1.7,4.1C342.2,378.6,341.6,380.1,340.4,381.2z M334,375
			c-0.6,0.6-0.9,1.4-0.9,2.1c0,1,0.5,1.6,0.9,2c0.5,0.5,1.3,0.9,2.2,0.9c1,0,1.7-0.3,2.2-0.8c0.5-0.5,0.9-1.3,0.9-2.1
			c0-0.8-0.4-1.6-0.9-2.1c-0.6-0.6-1.4-0.9-2.2-0.9C335.4,374.2,334.6,374.5,334,375z"/>
		<path class="st1" d="M344.7,371.7h7.1v2.4h-4.2v1.9h1.1c1.4,0,2.6,0.2,3.4,1.1c0.5,0.5,0.8,1.3,0.8,2.2c0,0.9-0.3,1.7-0.9,2.3
			c-0.9,0.8-2.2,1-3.5,1h-3.8V371.7z M348.5,380.3c0.3,0,0.9,0,1.3-0.4c0.2-0.2,0.3-0.4,0.3-0.8c0-0.4-0.1-0.7-0.3-0.8
			c-0.3-0.3-0.8-0.3-1.2-0.3h-1v2.2H348.5z"/>
		<path class="st1" d="M358.3,378.9v3.6h-2.8v-10.8h4.5c0.9,0,1.9,0.2,2.7,1c0.8,0.8,1,1.7,1,2.6c0,0.9-0.1,1.9-1,2.7
			c-0.8,0.8-1.9,0.9-2.7,0.9H358.3z M358.3,376.7h0.9c0.3,0,0.8,0,1.2-0.3c0.3-0.3,0.4-0.7,0.4-1c0-0.3,0-0.7-0.3-1
			c-0.3-0.3-0.8-0.4-1.2-0.4h-1V376.7z"/>
		<path class="st1" d="M368.8,371.7v6.8l4.1-6.8h2.9v10.8h-2.8v-6.8l-4.1,6.8H366v-10.8H368.8z"/>
		<path class="st1" d="M392.2,371.7v8.7h1.3v4.6h-2.5v-2.4h-6.6v2.4h-2.5v-4.6c0.4-0.1,0.8-0.2,1.2-0.7c0.8-0.8,0.9-2,0.9-3.6v-4.5
			H392.2z M386.7,376.4c0,0.5,0,1.5-0.3,2.3c-0.2,0.7-0.5,1.2-0.9,1.7h3.8v-6.5h-2.6V376.4z"/>
		<path class="st1" d="M402.8,380.7h-3.9l-0.7,1.8h-3l4.2-10.8h3.1l4.1,10.8h-3L402.8,380.7z M402.1,378.6l-1.2-3.5l-1.2,3.5H402.1z
			"/>
		<path class="st1" d="M411.5,375.7h4.1v-4h2.8v10.8h-2.8v-4.4h-4.1v4.4h-2.8v-10.8h2.8V375.7z"/>
		<path class="st1" d="M424.3,375.7h4.1v-4h2.8v10.8h-2.8v-4.4h-4.1v4.4h-2.8v-10.8h2.8V375.7z"/>
		<path class="st1" d="M437.2,371.7v6.8l4.1-6.8h2.9v10.8h-2.8v-6.8l-4.1,6.8h-2.9v-10.8H437.2z"/>
		<path class="st1" d="M447.5,382.3c-0.2-0.2-0.5-0.6-0.5-1.2c0-0.6,0.3-1,0.5-1.2c0.4-0.4,0.8-0.5,1.2-0.5c0.4,0,0.8,0.2,1.2,0.5
			c0.3,0.3,0.5,0.6,0.5,1.2c0,0.5-0.2,0.9-0.5,1.2c-0.3,0.3-0.8,0.5-1.2,0.5C448.3,382.8,447.9,382.7,447.5,382.3z"/>
		<path class="st1" d="M291.3,402.1v-8.4h-3.9v8.4h-2.8v-10.8h9.5v10.8H291.3z"/>
		<path class="st1" d="M307,400.7c-1.1,1.1-2.7,1.6-4.3,1.6s-3.2-0.6-4.3-1.6c-1.2-1.1-1.7-2.6-1.7-4c0-1.4,0.6-3,1.7-4.1
			c1.1-1.1,2.7-1.6,4.3-1.6s3.2,0.6,4.3,1.6c1.2,1.1,1.7,2.6,1.7,4.1C308.7,398.1,308.1,399.6,307,400.7z M300.5,394.6
			c-0.6,0.6-0.9,1.4-0.9,2.1c0,1,0.5,1.6,0.9,2c0.5,0.5,1.3,0.9,2.2,0.9c1,0,1.7-0.3,2.2-0.8c0.5-0.5,0.9-1.3,0.9-2.1
			c0-0.8-0.4-1.6-0.9-2.1c-0.6-0.6-1.4-0.9-2.2-0.9C301.9,393.7,301.1,394,300.5,394.6z"/>
		<path class="st1" d="M311.4,395.4h4.1v2.2h-4.1V395.4z"/>
		<path class="st1" d="M327.2,391.2v8.7h1.3v4.6H326v-2.4h-6.6v2.4h-2.5v-4.6c0.4-0.1,0.8-0.2,1.2-0.7c0.8-0.8,0.9-2,0.9-3.6v-4.5
			H327.2z M321.8,395.9c0,0.5,0,1.5-0.3,2.3c-0.2,0.7-0.5,1.2-0.9,1.7h3.8v-6.5h-2.6V395.9z"/>
		<path class="st1" d="M340.4,400.7c-1.1,1.1-2.7,1.6-4.3,1.6s-3.2-0.6-4.3-1.6c-1.2-1.1-1.7-2.6-1.7-4c0-1.4,0.6-3,1.7-4.1
			c1.1-1.1,2.7-1.6,4.3-1.6s3.2,0.6,4.3,1.6c1.2,1.1,1.7,2.6,1.7,4.1C342.2,398.1,341.6,399.6,340.4,400.7z M334,394.6
			c-0.6,0.6-0.9,1.4-0.9,2.1c0,1,0.5,1.6,0.9,2c0.5,0.5,1.3,0.9,2.2,0.9c1,0,1.7-0.3,2.2-0.8c0.5-0.5,0.9-1.3,0.9-2.1
			c0-0.8-0.4-1.6-0.9-2.1c-0.6-0.6-1.4-0.9-2.2-0.9C335.4,393.7,334.6,394,334,394.6z"/>
		<path class="st1" d="M344.7,391.2h7.1v2.4h-4.2v1.9h1.1c1.4,0,2.6,0.2,3.4,1.1c0.5,0.5,0.8,1.3,0.8,2.2c0,0.9-0.3,1.7-0.9,2.3
			c-0.9,0.8-2.2,1-3.5,1h-3.8V391.2z M348.5,399.9c0.3,0,0.9,0,1.3-0.4c0.2-0.2,0.3-0.4,0.3-0.8c0-0.4-0.1-0.7-0.3-0.8
			c-0.3-0.3-0.8-0.3-1.2-0.3h-1v2.2H348.5z"/>
		<path class="st1" d="M356.5,393.6h-2.2v-2.4h5.1v4.2h1.4c0.8,0,2.3,0.1,3.2,1c0.7,0.7,0.9,1.7,0.9,2.3c0,1.1-0.3,1.8-0.8,2.3
			c-0.9,0.9-2.4,1-3.4,1h-4V393.6z M360.5,399.9c0.3,0,0.9,0,1.2-0.3c0.2-0.2,0.3-0.5,0.3-0.8c0-0.4-0.1-0.7-0.3-0.8
			c-0.3-0.3-0.8-0.3-1.2-0.3h-1.1v2.3H360.5z"/>
		<path class="st1" d="M370.1,398.5v3.6h-2.8v-10.8h4.5c0.9,0,1.9,0.2,2.7,1c0.8,0.8,1,1.7,1,2.6c0,0.9-0.1,1.9-1,2.7
			c-0.8,0.8-1.9,0.9-2.7,0.9H370.1z M370.1,396.2h0.9c0.3,0,0.8,0,1.2-0.3c0.3-0.3,0.4-0.7,0.4-1c0-0.3,0-0.7-0.3-1
			c-0.3-0.3-0.8-0.4-1.2-0.4h-1V396.2z"/>
		<path class="st1" d="M387.2,397.3l-2.9,4.8h-3.5l3.9-5.5l-3.6-5.3h3.3l2.9,4.7v-4.7h2.8v4.7l2.9-4.7h3.3l-3.6,5.3l3.9,5.5h-3.5
			l-2.9-4.8v4.8h-2.8V397.3z"/>
		<path class="st1" d="M401.4,391.2v6.8l4.1-6.8h2.9v10.8h-2.8v-6.8l-4.1,6.8h-2.9v-10.8H401.4z"/>
		<path class="st1" d="M411.5,402.1v-10.8h4.2c0.8,0,1.7,0.1,2.4,0.8c0.4,0.4,0.7,1.1,0.7,2c0,0.5-0.1,0.9-0.3,1.3
			c-0.2,0.4-0.5,0.7-0.9,0.8c0.6,0.1,1.1,0.3,1.5,0.6c0.4,0.4,0.7,1.1,0.7,2c0,1-0.4,1.7-0.8,2.1c-0.6,0.6-1.6,1-2.9,1H411.5z
			 M414.3,395.5h0.5c0.3,0,0.8,0,1.1-0.3c0.2-0.2,0.3-0.5,0.3-0.7c0-0.3-0.1-0.6-0.3-0.7c-0.2-0.2-0.5-0.3-1.1-0.3h-0.5V395.5z
			 M414.3,399.9h0.6c0.8,0,1.4-0.1,1.7-0.4c0.1-0.1,0.2-0.4,0.2-0.7c0-0.3-0.1-0.6-0.3-0.8c-0.3-0.3-1-0.4-1.7-0.4h-0.6V399.9z"/>
		<path class="st1" d="M432.1,400.7c-1.1,1.1-2.7,1.6-4.3,1.6s-3.2-0.6-4.3-1.6c-1.2-1.1-1.7-2.6-1.7-4c0-1.4,0.6-3,1.7-4.1
			c1.1-1.1,2.7-1.6,4.3-1.6s3.2,0.6,4.3,1.6c1.2,1.1,1.7,2.6,1.7,4.1C433.8,398.1,433.3,399.6,432.1,400.7z M425.7,394.6
			c-0.6,0.6-0.9,1.4-0.9,2.1c0,1,0.5,1.6,0.9,2c0.5,0.5,1.3,0.9,2.2,0.9c1,0,1.7-0.3,2.2-0.8c0.5-0.5,0.9-1.3,0.9-2.1
			c0-0.8-0.4-1.6-0.9-2.1c-0.6-0.6-1.4-0.9-2.2-0.9C427.1,393.7,426.2,394,425.7,394.6z"/>
		<path class="st1" d="M440.5,393.6v8.5h-2.8v-8.5h-2.3v-2.4h7.4v2.4H440.5z"/>
		<path class="st1" d="M444.5,401.9c-0.2-0.2-0.5-0.6-0.5-1.2c0-0.6,0.3-1,0.5-1.2c0.4-0.4,0.8-0.5,1.2-0.5c0.4,0,0.8,0.2,1.2,0.5
			c0.3,0.3,0.5,0.6,0.5,1.2c0,0.5-0.2,0.9-0.5,1.2c-0.3,0.3-0.8,0.5-1.2,0.5C445.4,402.4,444.9,402.2,444.5,401.9z"/>
	</g>
</g>
<g>
	<path class="st3" d="M181,340.5c-7,0-14.1-0.9-20.9-2.8c-1.2-0.3-2.4-0.7-3.5-1c-18.9-6.1-34.8-18.9-44.7-36.2
		c-10.6-18.5-13.3-39.9-7.8-60.5c5.6-20.5,18.8-37.7,37.3-48.3c12.1-6.9,25.7-10.6,39.5-10.6c7,0,14.1,0.9,21,2.8
		c20.5,5.6,37.7,18.8,48.3,37.3c9,15.7,12.3,33.4,9.7,51.1l-0.1,0.5h-7.8l0.1-0.7c2.6-16.4-0.3-32.7-8.6-47.1
		c-9.6-16.7-25.1-28.7-43.6-33.7c-6.2-1.7-12.6-2.5-19-2.5c-12.4,0-24.8,3.3-35.7,9.6c-16.7,9.6-28.6,25.1-33.7,43.6
		c-5,18.6-2.5,38,7,54.7c9.6,16.7,25.1,28.7,43.6,33.7c7,1.9,14.4,2.7,21.8,2.4l0.4-0.1c5.8-0.3,11.7-1.3,17.5-3l0.1,0l0.1,0
		c4.5,0.9,9.2,1.3,14.1,1.3l2.6,0l-2.3,1.1c-3.8,1.9-7.7,3.5-11.7,4.7l-0.2,0.1c-0.2,0.1-0.3,0.1-0.4,0.2
		C196.6,339.4,188.8,340.5,181,340.5z"/>
</g>
<path class="st1" d="M208.9,258.2c-0.9-6.6-7.2-11.2-14-10.3c-6.8,1-11.5,7.1-10.6,13.7c0.9,6.6,7.1,11.2,13.9,10.3
	C205,271,209.8,264.8,208.9,258.2z M197.4,265.9c-3.4,0.5-6.3-1.7-6.8-5.1c-0.5-3.3,1.7-6.4,5.1-6.8c3.4-0.5,6.3,1.9,6.8,5.2
	C203,262.5,200.7,265.4,197.4,265.9z"/>
<path class="st1" d="M241.2,287.5c-0.9-6.6-7.2-11.2-14-10.3c-6.8,1-11.5,7.1-10.6,13.7c0.9,6.6,7.1,11.2,13.9,10.3
	C237.3,300.3,242.1,294.1,241.2,287.5z M229.7,295.1c-3.4,0.5-6.3-1.7-6.8-5.1c-0.5-3.3,1.7-6.4,5.1-6.8c3.4-0.5,6.3,1.9,6.8,5.2
	C235.3,291.8,233.1,294.7,229.7,295.1z"/>
<g>
	<path class="st1" d="M195.2,299.1h-9.9l43.7-47.8h9.8L195.2,299.1z"/>
</g>
<path class="st1" d="M220.5,319.5c-1.3,0.1-2.7,0.1-3.9,0.1c-18.4,0-29.8-6.8-36.1-12.6c-8.8-8.1-13.9-19.4-13.9-31.1v-0.6h-7.7v0.6
	c0,13.8,6,27.2,16.4,36.8c7.3,6.7,20.4,14.6,41.2,14.6c2.3,0,4.8-0.1,7.2-0.3L220.5,319.5z"/>
</svg>
