<?xml version="1.0" encoding="utf-8"?>
<!-- Generator: Adobe Illustrator 19.0.0, SVG Export Plug-In . SVG Version: 6.00 Build 0)  -->
<svg version="1.1" id="Layer_1" xmlns="http://www.w3.org/2000/svg" xmlns:xlink="http://www.w3.org/1999/xlink" x="0px" y="0px"
	 viewBox="0 0 612 612" style="enable-background:new 0 0 612 612;" xml:space="preserve">
<metadata><?xpacket begin="﻿" id="W5M0MpCehiHzreSzNTczkc9d"?>
<x:xmpmeta xmlns:x="adobe:ns:meta/" x:xmptk="Adobe XMP Core 5.6-c067 79.157747, 2015/03/30-23:40:42        ">
   <rdf:RDF xmlns:rdf="http://www.w3.org/1999/02/22-rdf-syntax-ns#">
      <rdf:Description rdf:about=""/>
   </rdf:RDF>
</x:xmpmeta>
                                                                                                    
                                                                                                    
                                                                                                    
                                                                                                    
                                                                                                    
                                                                                                    
                                                                                                    
                                                                                                    
                                                                                                    
                                                                                                    
                                                                                                    
                                                                                                    
                                                                                                    
                                                                                                    
                                                                                                    
                                                                                                    
                                                                                                    
                                                                                                    
                                                                                                    
                                                                                                    
                           
<?xpacket end="w"?></metadata>
<style type="text/css">
	.st0{fill:#0083BF;}
	.st1{fill:#FFFFFF;}
	.st2{fill:#90CEF1;}
	.st3{fill:#74C1EC;}
</style>
<rect y="0" class="st0" width="612" height="612"/>
<g>
	<g>
		<path class="st1" d="M298.7,300.9c-1.8,0.7-2.8,0.9-4,0.9c-3.1,0-5.4-1.2-6.8-2.6c-1.7-1.7-2.7-4.1-2.7-6.4c0-2.5,1.1-4.9,2.7-6.5
			c1.6-1.6,3.9-2.7,6.7-2.7c0.8,0,2.2,0.1,4.1,0.9v5.5c-1.5-1.8-3.2-1.9-4-1.9c-1.3,0-2.3,0.4-3.2,1.2c-1.1,1-1.5,2.4-1.5,3.6
			c0,1.2,0.5,2.6,1.4,3.4c0.8,0.7,2,1.2,3.3,1.2c0.7,0,2.4-0.1,4-1.8V300.9z"/>
		<path class="st1" d="M302.3,301.4v-17.6h6.8c1.3,0,2.8,0.2,3.9,1.4c0.6,0.7,1.1,1.7,1.1,3.3c0,0.8-0.1,1.4-0.5,2.2
			c-0.4,0.7-0.8,1.1-1.4,1.4c0.9,0.1,1.8,0.5,2.4,1.1c0.7,0.7,1.2,1.8,1.2,3.2c0,1.7-0.6,2.8-1.3,3.5c-0.9,1-2.6,1.7-4.8,1.7H302.3z
			 M306.9,290.8h0.8c0.5,0,1.3-0.1,1.7-0.6c0.3-0.3,0.4-0.8,0.4-1.2c0-0.4-0.2-0.9-0.4-1.2c-0.3-0.3-0.8-0.5-1.7-0.5h-0.8V290.8z
			 M306.9,297.9h1c1.3,0,2.3-0.1,2.8-0.7c0.2-0.2,0.4-0.6,0.4-1.1c0-0.6-0.2-1-0.4-1.3c-0.6-0.6-1.7-0.6-2.8-0.6h-0.9V297.9z"/>
		<path class="st1" d="M328.8,287.7h-5.4v2.9h5.1v3.9h-5.1v3h5.4v3.9h-10v-17.6h10V287.7z"/>
		<path class="st1" d="M339.2,287.7v13.7h-4.6v-13.7h-3.7v-3.9H343v3.9H339.2z"/>
		<path class="st1" d="M361.2,299.2c-1.8,1.7-4.3,2.6-6.9,2.6c-2.6,0-5.1-0.9-6.9-2.6c-1.9-1.8-2.8-4.2-2.8-6.6
			c0-2.4,0.9-4.8,2.8-6.6c1.8-1.7,4.3-2.6,6.9-2.6c2.6,0,5.1,0.9,6.9,2.6c1.9,1.8,2.8,4.2,2.8,6.6C364,295,363.1,297.4,361.2,299.2z
			 M350.7,289.3c-0.9,0.9-1.4,2.2-1.4,3.5c0,1.6,0.7,2.6,1.4,3.3c0.8,0.8,2,1.4,3.6,1.4c1.6,0,2.7-0.6,3.5-1.4
			c0.8-0.8,1.4-2,1.4-3.4c0-1.4-0.6-2.6-1.4-3.4c-1-0.9-2.3-1.4-3.5-1.4C353,287.9,351.6,288.3,350.7,289.3z"/>
		<path class="st1" d="M367.1,301.4v-17.6h6.8c1.3,0,2.8,0.2,3.9,1.4c0.6,0.7,1.1,1.7,1.1,3.3c0,0.8-0.1,1.4-0.5,2.2
			c-0.4,0.7-0.8,1.1-1.4,1.4c0.9,0.1,1.8,0.5,2.4,1.1c0.7,0.7,1.2,1.8,1.2,3.2c0,1.7-0.6,2.8-1.3,3.5c-0.9,1-2.6,1.7-4.8,1.7H367.1z
			 M371.6,290.8h0.8c0.5,0,1.3-0.1,1.7-0.6c0.3-0.3,0.4-0.8,0.4-1.2c0-0.4-0.2-0.9-0.4-1.2c-0.3-0.3-0.8-0.5-1.7-0.5h-0.8V290.8z
			 M371.6,297.9h1c1.3,0,2.3-0.1,2.8-0.7c0.2-0.2,0.4-0.6,0.4-1.1c0-0.6-0.2-1-0.4-1.3c-0.6-0.6-1.7-0.6-2.8-0.6h-0.9V297.9z"/>
		<path class="st1" d="M393.6,287.7h-5.4v2.9h5.1v3.9h-5.1v3h5.4v3.9h-10v-17.6h10V287.7z"/>
		<path class="st1" d="M401.7,290.4h6.6v-6.6h4.6v17.6h-4.6v-7.1h-6.6v7.1h-4.6v-17.6h4.6V290.4z"/>
		<path class="st1" d="M437.9,283.8v14.1h2.1v7.5h-4.1v-4h-10.7v4H421v-7.5c0.7-0.1,1.3-0.4,2-1.1c1.3-1.4,1.5-3.3,1.5-5.8v-7.2
			H437.9z M429,291.5c0,0.8-0.1,2.4-0.4,3.7c-0.3,1.1-0.8,1.9-1.5,2.7h6.2v-10.5H429V291.5z"/>
		<path class="st1" d="M452.9,287.7h-5.4v2.9h5.1v3.9h-5.1v3h5.4v3.9h-10v-17.6h10V287.7z"/>
		<path class="st1" d="M461,290.4h6.6v-6.6h4.6v17.6h-4.6v-7.1H461v7.1h-4.6v-17.6h4.6V290.4z"/>
		<path class="st1" d="M486.6,290.4h6.6v-6.6h4.6v17.6h-4.6v-7.1h-6.6v7.1H482v-17.6h4.6V290.4z"/>
		<path class="st1" d="M512.7,298.5h-6.4l-1.2,3h-4.8l6.8-17.6h5l6.6,17.6h-4.9L512.7,298.5z M511.5,295l-2-5.7l-1.9,5.7H511.5z"/>
		<path class="st1" d="M298.7,330.6c-1.8,0.7-2.8,0.9-4,0.9c-3.1,0-5.4-1.2-6.8-2.6c-1.7-1.7-2.7-4.1-2.7-6.4c0-2.5,1.1-4.9,2.7-6.5
			c1.6-1.6,3.9-2.7,6.7-2.7c0.8,0,2.2,0.1,4.1,0.9v5.5c-1.5-1.8-3.2-1.9-4-1.9c-1.3,0-2.3,0.4-3.2,1.2c-1.1,1-1.5,2.4-1.5,3.6
			c0,1.2,0.5,2.6,1.4,3.4c0.8,0.7,2,1.2,3.3,1.2c0.7,0,2.4-0.1,4-1.8V330.6z"/>
		<path class="st1" d="M309.1,317.4v13.7h-4.6v-13.7h-3.7v-3.9h12.1v3.9H309.1z"/>
		<path class="st1" d="M325.2,328.2h-6.4l-1.2,3h-4.8l6.8-17.6h5l6.6,17.6h-4.9L325.2,328.2z M323.9,324.7l-2-5.7l-1.9,5.7H323.9z"
			/>
		<path class="st1" d="M339.3,317.4v13.7h-4.6v-13.7H331v-3.9h12.1v3.9H339.3z"/>
		<path class="st1" d="M350.2,313.5v11.1l6.6-11.1h4.7v17.6h-4.6V320l-6.6,11.1h-4.7v-17.6H350.2z"/>
		<path class="st1" d="M378,330.6c-1.8,0.7-2.8,0.9-4,0.9c-3.1,0-5.4-1.2-6.8-2.6c-1.7-1.7-2.7-4.1-2.7-6.4c0-2.5,1.1-4.9,2.7-6.5
			c1.6-1.6,3.9-2.7,6.7-2.7c0.8,0,2.2,0.1,4.1,0.9v5.5c-1.5-1.8-3.2-1.9-4-1.9c-1.3,0-2.3,0.4-3.2,1.2c-1.1,1-1.5,2.4-1.5,3.6
			c0,1.2,0.5,2.6,1.4,3.4c0.8,0.7,2,1.2,3.3,1.2c0.7,0,2.4-0.1,4-1.8V330.6z"/>
		<path class="st1" d="M388.4,317.4v13.7h-4.6v-13.7h-3.7v-3.9h12.1v3.9H388.4z"/>
		<path class="st1" d="M399.3,313.5v11.1l6.6-11.1h4.7v17.6H406V320l-6.6,11.1h-4.7v-17.6H399.3z"/>
		<path class="st1" d="M419.2,320.8l5.6-7.3h5.6l-7,8.3l7.6,9.3h-5.9l-6-7.6v7.6h-4.6v-17.6h4.6V320.8z"/>
		<path class="st1" d="M445,328.2h-6.4l-1.2,3h-4.8l6.8-17.6h5l6.6,17.6h-4.9L445,328.2z M443.8,324.7l-2-5.7l-1.9,5.7H443.8z"/>
		<path class="st1" d="M459.2,317.4v13.7h-4.6v-13.7h-3.7v-3.9H463v3.9H459.2z"/>
		<path class="st1" d="M475.2,328.2h-6.4l-1.2,3h-4.8l6.8-17.6h5l6.6,17.6h-4.9L475.2,328.2z M474,324.7l-2-5.7l-1.9,5.7H474z"/>
		<path class="st2" d="M289.8,348.3c0-0.7-0.6-1.3-1.3-1.3c-1.1-0.1-2.6,0.7-3,1l-0.6-2.5c1-0.7,2.6-1.2,3.8-1.2
			c3.8,0.2,5.1,3.5,2.9,6.6l-2.6,3.9h3.8v2.6h-8.6l4.8-7.7C289.9,348.8,289.8,348.3,289.8,348.3z"/>
		<path class="st2" d="M295.1,351c0-3.7,1.3-6.6,4.4-6.6c3.2,0,4.5,3,4.5,6.6c0,3.7-1.2,6.7-4.5,6.7
			C296.3,357.7,295.1,354.7,295.1,351z M301.5,351c0-2.3-0.5-4.2-2-4.2c-1.4,0-1.9,1.9-1.9,4.2c0,2.3,0.5,4.2,1.9,4.2
			C301,355.2,301.5,353.3,301.5,351z"/>
		<path class="st2" d="M307.4,357.6c-2,0-2-2.9,0-2.9C309.4,354.7,309.3,357.6,307.4,357.6z"/>
		<path class="st2" d="M310.4,344.6h4.7v12.9h-2.6v-10.4h-2.1V344.6z"/>
		<path class="st2" d="M318,351c0-3.7,1.3-6.6,4.4-6.6c3.2,0,4.5,3,4.5,6.6c0,3.7-1.2,6.7-4.5,6.7C319.2,357.7,318,354.7,318,351z
			 M324.3,351c0-2.3-0.5-4.2-2-4.2c-1.4,0-1.9,1.9-1.9,4.2c0,2.3,0.5,4.2,1.9,4.2C323.9,355.2,324.3,353.3,324.3,351z"/>
		<path class="st2" d="M330.2,357.6c-2,0-2-2.9,0-2.9C332.2,354.7,332.2,357.6,330.2,357.6z"/>
		<path class="st2" d="M339,348.3c0-0.7-0.6-1.3-1.3-1.3c-1.1-0.1-2.6,0.7-3,1l-0.6-2.5c1-0.7,2.6-1.2,3.8-1.2
			c3.8,0.2,5.1,3.5,2.9,6.6l-2.6,3.9h3.8v2.6h-8.6l4.8-7.7C339.1,348.8,339,348.3,339,348.3z"/>
		<path class="st2" d="M344.3,351c0-3.7,1.3-6.6,4.4-6.6c3.2,0,4.5,3,4.5,6.6c0,3.7-1.2,6.7-4.5,6.7
			C345.5,357.7,344.3,354.7,344.3,351z M350.7,351c0-2.3-0.5-4.2-2-4.2c-1.4,0-1.9,1.9-1.9,4.2c0,2.3,0.5,4.2,1.9,4.2
			C350.2,355.2,350.7,353.3,350.7,351z"/>
		<path class="st2" d="M354.9,344.6h4.7v12.9H357v-10.4h-2.1V344.6z"/>
		<path class="st2" d="M370.4,353.7c0,2.2-1.5,3.8-3.9,3.9c-0.7,0-2.4,0-4.1-0.6l0.2-2.6c4,1.4,5.2,0.3,5.2-0.8c0-1.5-1-2-4.9-2.3
			v-6.8h6.6v2.5h-4v2.3C368.7,349.6,370.4,350.7,370.4,353.7z"/>
		<path class="st1" d="M292.2,384.9v-8.6h-3.9v8.6h-2.9v-11h9.7v11H292.2z"/>
		<path class="st1" d="M308.1,383.5c-1.1,1.1-2.7,1.6-4.3,1.6s-3.2-0.6-4.3-1.6c-1.2-1.1-1.7-2.7-1.7-4.1c0-1.5,0.6-3,1.7-4.1
			c1.1-1.1,2.7-1.6,4.3-1.6s3.2,0.6,4.3,1.6c1.2,1.1,1.7,2.7,1.7,4.1C309.8,380.9,309.2,382.4,308.1,383.5z M301.5,377.3
			c-0.6,0.6-0.9,1.4-0.9,2.2c0,1,0.5,1.6,0.9,2c0.5,0.5,1.3,0.9,2.2,0.9c1,0,1.7-0.3,2.2-0.9c0.5-0.5,0.9-1.3,0.9-2.1
			c0-0.9-0.4-1.6-0.9-2.1c-0.6-0.6-1.5-0.9-2.2-0.9C302.9,376.5,302.1,376.7,301.5,377.3z"/>
		<path class="st1" d="M312.5,378.2h4.2v2.2h-4.2V378.2z"/>
		<path class="st1" d="M328.6,373.9v8.8h1.3v4.7h-2.6v-2.5h-6.7v2.5h-2.6v-4.7c0.4-0.1,0.8-0.2,1.3-0.7c0.8-0.9,1-2,1-3.6v-4.5
			H328.6z M323.1,378.7c0,0.5,0,1.5-0.3,2.3c-0.2,0.7-0.5,1.2-1,1.7h3.9v-6.6h-2.7V378.7z"/>
		<path class="st1" d="M342,383.5c-1.1,1.1-2.7,1.6-4.3,1.6s-3.2-0.6-4.3-1.6c-1.2-1.1-1.7-2.7-1.7-4.1c0-1.5,0.6-3,1.7-4.1
			c1.1-1.1,2.7-1.6,4.3-1.6s3.2,0.6,4.3,1.6c1.2,1.1,1.7,2.7,1.7,4.1C343.7,380.9,343.2,382.4,342,383.5z M335.4,377.3
			c-0.6,0.6-0.9,1.4-0.9,2.2c0,1,0.5,1.6,0.9,2c0.5,0.5,1.3,0.9,2.2,0.9c1,0,1.7-0.3,2.2-0.9c0.5-0.5,0.9-1.3,0.9-2.1
			c0-0.9-0.4-1.6-0.9-2.1c-0.6-0.6-1.5-0.9-2.2-0.9C336.9,376.5,336,376.7,335.4,377.3z"/>
		<path class="st1" d="M346.3,373.9h7.2v2.4h-4.3v1.9h1.1c1.4,0,2.7,0.2,3.5,1.1c0.5,0.5,0.8,1.3,0.8,2.3c0,0.9-0.3,1.7-0.9,2.3
			c-0.9,0.9-2.2,1-3.5,1h-3.9V373.9z M350.2,382.7c0.3,0,0.9,0,1.3-0.4c0.2-0.2,0.3-0.4,0.3-0.8c0-0.4-0.1-0.7-0.3-0.8
			c-0.3-0.3-0.9-0.3-1.2-0.3h-1v2.3H350.2z"/>
		<path class="st1" d="M360.1,381.3v3.6h-2.9v-11h4.5c1,0,1.9,0.2,2.8,1c0.9,0.8,1,1.7,1,2.7c0,0.9-0.1,1.9-1,2.7
			c-0.9,0.8-1.9,1-2.7,1H360.1z M360.1,379h1c0.3,0,0.9,0,1.2-0.3c0.3-0.3,0.4-0.7,0.4-1c0-0.3,0-0.7-0.3-1
			c-0.3-0.3-0.9-0.4-1.2-0.4h-1V379z"/>
		<path class="st1" d="M370.8,373.9v6.9l4.1-6.9h2.9v11h-2.9V378l-4.1,6.9h-2.9v-11H370.8z"/>
		<path class="st1" d="M394.4,373.9v8.8h1.3v4.7h-2.6v-2.5h-6.7v2.5h-2.6v-4.7c0.4-0.1,0.8-0.2,1.3-0.7c0.8-0.9,1-2,1-3.6v-4.5
			H394.4z M388.9,378.7c0,0.5,0,1.5-0.3,2.3c-0.2,0.7-0.5,1.2-1,1.7h3.9v-6.6h-2.7V378.7z"/>
		<path class="st1" d="M405.3,383.1h-4l-0.7,1.8h-3l4.2-11h3.1l4.1,11h-3L405.3,383.1z M404.5,380.9l-1.2-3.6l-1.2,3.6H404.5z"/>
		<path class="st1" d="M414.1,378h4.1v-4.1h2.9v11h-2.9v-4.4h-4.1v4.4h-2.9v-11h2.9V378z"/>
		<path class="st1" d="M427.1,378h4.1v-4.1h2.9v11h-2.9v-4.4h-4.1v4.4h-2.9v-11h2.9V378z"/>
		<path class="st1" d="M440.1,373.9v6.9l4.1-6.9h2.9v11h-2.9V378l-4.1,6.9h-2.9v-11H440.1z"/>
		<path class="st1" d="M450.5,384.7c-0.2-0.2-0.5-0.6-0.5-1.2c0-0.6,0.3-1,0.5-1.2c0.4-0.4,0.8-0.5,1.2-0.5c0.4,0,0.9,0.2,1.2,0.5
			c0.3,0.3,0.5,0.6,0.5,1.2c0,0.5-0.2,0.9-0.5,1.2c-0.3,0.3-0.8,0.5-1.2,0.5C451.4,385.2,450.9,385.1,450.5,384.7z"/>
		<path class="st1" d="M292.2,404.7v-8.6h-3.9v8.6h-2.9v-11h9.7v11H292.2z"/>
		<path class="st1" d="M308.1,403.3c-1.1,1.1-2.7,1.6-4.3,1.6s-3.2-0.6-4.3-1.6c-1.2-1.1-1.7-2.7-1.7-4.1c0-1.5,0.6-3,1.7-4.1
			c1.1-1.1,2.7-1.6,4.3-1.6s3.2,0.6,4.3,1.6c1.2,1.1,1.7,2.7,1.7,4.1C309.8,400.7,309.2,402.2,308.1,403.3z M301.5,397.1
			c-0.6,0.6-0.9,1.4-0.9,2.2c0,1,0.5,1.6,0.9,2c0.5,0.5,1.3,0.9,2.2,0.9c1,0,1.7-0.3,2.2-0.9c0.5-0.5,0.9-1.3,0.9-2.1
			c0-0.9-0.4-1.6-0.9-2.1c-0.6-0.6-1.5-0.9-2.2-0.9C302.9,396.2,302.1,396.5,301.5,397.1z"/>
		<path class="st1" d="M312.5,398h4.2v2.2h-4.2V398z"/>
		<path class="st1" d="M328.6,393.7v8.8h1.3v4.7h-2.6v-2.5h-6.7v2.5h-2.6v-4.7c0.4-0.1,0.8-0.2,1.3-0.7c0.8-0.9,1-2,1-3.6v-4.5
			H328.6z M323.1,398.5c0,0.5,0,1.5-0.3,2.3c-0.2,0.7-0.5,1.2-1,1.7h3.9v-6.6h-2.7V398.5z"/>
		<path class="st1" d="M342,403.3c-1.1,1.1-2.7,1.6-4.3,1.6s-3.2-0.6-4.3-1.6c-1.2-1.1-1.7-2.7-1.7-4.1c0-1.5,0.6-3,1.7-4.1
			c1.1-1.1,2.7-1.6,4.3-1.6s3.2,0.6,4.3,1.6c1.2,1.1,1.7,2.7,1.7,4.1C343.7,400.7,343.2,402.2,342,403.3z M335.4,397.1
			c-0.6,0.6-0.9,1.4-0.9,2.2c0,1,0.5,1.6,0.9,2c0.5,0.5,1.3,0.9,2.2,0.9c1,0,1.7-0.3,2.2-0.9c0.5-0.5,0.9-1.3,0.9-2.1
			c0-0.9-0.4-1.6-0.9-2.1c-0.6-0.6-1.5-0.9-2.2-0.9C336.9,396.2,336,396.5,335.4,397.1z"/>
		<path class="st1" d="M346.3,393.7h7.2v2.4h-4.3v1.9h1.1c1.4,0,2.7,0.2,3.5,1.1c0.5,0.5,0.8,1.3,0.8,2.3c0,0.9-0.3,1.7-0.9,2.3
			c-0.9,0.9-2.2,1-3.5,1h-3.9V393.7z M350.2,402.5c0.3,0,0.9,0,1.3-0.4c0.2-0.2,0.3-0.4,0.3-0.8c0-0.4-0.1-0.7-0.3-0.8
			c-0.3-0.3-0.9-0.3-1.2-0.3h-1v2.3H350.2z"/>
		<path class="st1" d="M358.3,396.1h-2.3v-2.4h5.1v4.3h1.4c0.8,0,2.3,0.1,3.3,1c0.7,0.7,0.9,1.7,0.9,2.3c0,1.1-0.3,1.8-0.8,2.3
			c-1,1-2.5,1.1-3.5,1.1h-4.1V396.1z M362.3,402.5c0.3,0,0.9,0,1.2-0.3c0.2-0.2,0.3-0.5,0.3-0.8c0-0.4-0.1-0.7-0.3-0.8
			c-0.3-0.3-0.8-0.3-1.2-0.3h-1.1v2.3H362.3z"/>
		<path class="st1" d="M372.1,401.1v3.6h-2.9v-11h4.5c1,0,1.9,0.2,2.8,1c0.9,0.8,1,1.7,1,2.7c0,0.9-0.1,1.9-1,2.7
			c-0.9,0.8-1.9,1-2.7,1H372.1z M372.1,398.8h1c0.3,0,0.9,0,1.2-0.3c0.3-0.3,0.4-0.7,0.4-1c0-0.3,0-0.7-0.3-1
			c-0.3-0.3-0.9-0.4-1.2-0.4h-1V398.8z"/>
		<path class="st1" d="M389.4,399.9l-3,4.8h-3.6l4-5.6l-3.7-5.4h3.3l2.9,4.8v-4.8h2.8v4.8l2.9-4.8h3.3l-3.7,5.4l4,5.6h-3.6l-3-4.8
			v4.8h-2.8V399.9z"/>
		<path class="st1" d="M403.8,393.7v6.9l4.1-6.9h2.9v11H408v-6.9l-4.1,6.9H401v-11H403.8z"/>
		<path class="st1" d="M414,404.7v-11h4.3c0.8,0,1.7,0.1,2.4,0.9c0.4,0.4,0.7,1.1,0.7,2.1c0,0.5-0.1,0.9-0.3,1.3
			c-0.2,0.4-0.5,0.7-0.9,0.9c0.6,0.1,1.2,0.3,1.5,0.7c0.4,0.4,0.7,1.1,0.7,2c0,1-0.4,1.7-0.8,2.2c-0.6,0.6-1.6,1-3,1H414z
			 M416.9,398.1h0.5c0.3,0,0.8,0,1.1-0.3c0.2-0.2,0.3-0.5,0.3-0.7c0-0.3-0.1-0.6-0.3-0.7c-0.2-0.2-0.5-0.3-1.1-0.3h-0.5V398.1z
			 M416.9,402.5h0.6c0.8,0,1.5-0.1,1.8-0.4c0.1-0.1,0.2-0.4,0.2-0.7c0-0.3-0.1-0.6-0.3-0.8c-0.3-0.3-1.1-0.4-1.8-0.4h-0.6V402.5z"/>
		<path class="st1" d="M435,403.3c-1.1,1.1-2.7,1.6-4.3,1.6s-3.2-0.6-4.3-1.6c-1.2-1.1-1.7-2.7-1.7-4.1c0-1.5,0.6-3,1.7-4.1
			c1.1-1.1,2.7-1.6,4.3-1.6s3.2,0.6,4.3,1.6c1.2,1.1,1.7,2.7,1.7,4.1C436.7,400.7,436.1,402.2,435,403.3z M428.4,397.1
			c-0.6,0.6-0.9,1.4-0.9,2.2c0,1,0.5,1.6,0.9,2c0.5,0.5,1.3,0.9,2.2,0.9c1,0,1.7-0.3,2.2-0.9c0.5-0.5,0.9-1.3,0.9-2.1
			c0-0.9-0.4-1.6-0.9-2.1c-0.6-0.6-1.5-0.9-2.2-0.9C429.8,396.2,429,396.5,428.4,397.1z"/>
		<path class="st1" d="M443.5,396.1v8.6h-2.9v-8.6h-2.3v-2.4h7.5v2.4H443.5z"/>
		<path class="st1" d="M447.6,404.5c-0.2-0.2-0.5-0.6-0.5-1.2c0-0.6,0.3-1,0.5-1.2c0.4-0.4,0.8-0.5,1.2-0.5c0.4,0,0.9,0.2,1.2,0.5
			c0.3,0.3,0.5,0.6,0.5,1.2s-0.2,0.9-0.5,1.2c-0.3,0.3-0.8,0.5-1.2,0.5C448.4,405,448,404.9,447.6,404.5z"/>
	</g>
</g>
<g>
	<path class="st3" d="M180.3,342.3c-7.1,0-14.3-1-21.2-2.8c-1.2-0.3-2.4-0.7-3.6-1.1c-19.2-6.2-35.3-19.2-45.3-36.7
		c-10.7-18.7-13.5-40.5-7.9-61.3c5.6-20.8,19.1-38.2,37.8-48.9c12.3-7,26.1-10.7,40-10.7c7.1,0,14.3,1,21.3,2.9
		c20.8,5.7,38.2,19.1,48.9,37.8c9.1,15.9,12.5,33.8,9.8,51.9l-0.1,0.5h-7.9l0.1-0.7c2.7-16.6-0.3-33.2-8.7-47.8
		c-9.7-16.9-25.4-29.1-44.2-34.2c-6.3-1.7-12.8-2.6-19.2-2.6c-12.6,0-25.1,3.4-36.2,9.7c-16.9,9.7-29.1,25.4-34.2,44.2
		c-5.1,18.8-2.6,38.5,7.1,55.4c9.7,16.9,25.4,29.1,44.2,34.2c7.1,1.9,14.6,2.8,22.1,2.5l0.4-0.1c5.9-0.3,11.9-1.3,17.8-3.1l0.1,0
		l0.1,0c4.5,0.9,9.3,1.3,14.3,1.3l2.6,0l-2.3,1.2c-3.8,1.9-7.8,3.5-11.8,4.8l-0.2,0.1c-0.2,0.1-0.3,0.1-0.4,0.2
		C196.1,341.2,188.2,342.3,180.3,342.3z"/>
</g>
<path class="st1" d="M208.6,258.8c-0.9-6.7-7.3-11.4-14.2-10.4c-6.9,1-11.6,7.2-10.7,13.9c0.9,6.7,7.2,11.4,14.1,10.4
	C204.7,271.8,209.5,265.6,208.6,258.8z M196.9,266.6c-3.4,0.5-6.4-1.8-6.9-5.2c-0.5-3.3,1.7-6.5,5.2-6.9c3.4-0.5,6.4,1.9,6.9,5.3
	C202.6,263.1,200.3,266.1,196.9,266.6z"/>
<path class="st1" d="M241.3,288.5c-0.9-6.7-7.3-11.4-14.2-10.4c-6.9,1-11.6,7.2-10.7,13.9c0.9,6.7,7.2,11.4,14.1,10.4
	C237.4,301.5,242.3,295.3,241.3,288.5z M229.7,296.3c-3.4,0.5-6.4-1.8-6.9-5.2c-0.5-3.3,1.7-6.5,5.2-6.9c3.4-0.5,6.4,1.9,6.9,5.3
	C235.3,292.9,233.1,295.8,229.7,296.3z"/>
<g>
	<path class="st1" d="M194.7,300.3h-10l44.3-48.5h10L194.7,300.3z"/>
</g>
<path class="st1" d="M220.3,321c-1.3,0.1-2.7,0.1-4,0.1c-18.7,0-30.2-6.9-36.6-12.8c-9-8.2-14.1-19.7-14.1-31.5v-0.6h-7.8v0.6
	c0,14,6.1,27.6,16.7,37.3c7.4,6.8,20.7,14.8,41.8,14.8c2.4,0,4.9-0.1,7.3-0.3L220.3,321z"/>
</svg>
