<svg xmlns="http://www.w3.org/2000/svg" viewBox="0 0 792 612"><defs><style>.a{fill:#009edb;}.b{fill:#fff;}.c{fill:#c7e2f6;}.d{fill:#90cef1;}.e{fill:#acd6f2;}.f{fill:#72c6ef;}</style></defs><rect class="a" width="792" height="612"/><path class="b" d="M324.88,229.44l-8.13,29.42a77.19,77.19,0,1,1-79.2,80.64l-29.83-8.23c-.07,1.57-.11,3.15-.11,4.75A107.06,107.06,0,1,0,324.88,229.44Z"/><polygon class="c" points="340.93 283.45 312.21 275.51 303.85 306.15 293.72 343.31 322.44 351.26 332.53 314.24 340.93 283.45"/><polygon class="d" points="340.93 283.45 312.21 275.51 303.85 306.29 332.53 314.24 340.93 283.45"/><polygon class="c" points="270.58 264.02 251.77 331.74 280.49 339.69 299.29 272 310.51 231.61 281.79 223.67 270.58 264.02"/><polygon class="d" points="283.5 217.43 270.58 264.02 299.29 272 312.22 225.37 283.5 217.43"/><polygon class="c" points="254.84 157.18 232.32 238.99 219.96 283.89 181.38 232.49 171.4 268.83 209.91 320.39 209.91 320.39 238.63 328.34 261.04 246.92 283.56 165.12 254.84 157.18"/><polygon class="d" points="254.84 157.18 232.32 238.99 261.04 246.92 283.56 165.12 254.84 157.18"/><path class="b" d="M467.76,179.36a11.24,11.24,0,0,1,4.18,4.56,13.43,13.43,0,0,1,0,12,11.2,11.2,0,0,1-4.18,4.57,12.35,12.35,0,0,1-6.7,1.74h-7.34V177.62h7.34A12.35,12.35,0,0,1,467.76,179.36Zm-9.11,3.18v14.78h2.41a7.1,7.1,0,0,0,3.91-1,6.69,6.69,0,0,0,2.46-2.74,8.22,8.22,0,0,0,0-7.2,6.75,6.75,0,0,0-2.46-2.74,7.1,7.1,0,0,0-3.91-1.05Z"/><path class="b" d="M477.42,202.25V177.62h4.92v24.63Zm4.48-26.6h-4.35l1.69-4.44h5.86Z"/><path class="b" d="M495.47,176.72H496l10.37,25.53h-5.55l-1-2.66h-8.16l-1,2.66h-5.58ZM498,195l-2.24-6.41L493.44,195Z"/><path class="b" d="M539.57,177.24h1.55v25h-5l0-13.75-6.31,6.62-6.3-6.62v13.75h-5v-25h1.59l9.71,10.81Z"/><path class="b" d="M562.74,198.46a7.89,7.89,0,0,1-3.29,3,9.64,9.64,0,0,1-4.34,1,9.74,9.74,0,0,1-4.35-1,7.94,7.94,0,0,1-3.31-3,8.79,8.79,0,0,1-1.26-4.79v-16h4.93v16a3.53,3.53,0,0,0,1.19,2.85,4.4,4.4,0,0,0,5.61,0,3.56,3.56,0,0,0,1.19-2.85v-16H564v16A8.79,8.79,0,0,1,562.74,198.46Z"/><path class="b" d="M574,202.25h-4.93V177.1h1.31l12.44,14.47V177.65h5v25.11h-1.31L574,188.85Z"/><path class="b" d="M607.06,179.36a11.26,11.26,0,0,1,4.19,4.56,13.51,13.51,0,0,1,0,12,11.22,11.22,0,0,1-4.19,4.57,12.32,12.32,0,0,1-6.69,1.74H593V177.62h7.34A12.32,12.32,0,0,1,607.06,179.36ZM598,182.54v14.78h2.42a7.12,7.12,0,0,0,3.91-1,6.69,6.69,0,0,0,2.46-2.74,8.31,8.31,0,0,0,0-7.2,6.75,6.75,0,0,0-2.46-2.74,7.12,7.12,0,0,0-3.91-1.05Z"/><path class="b" d="M616.71,202.25V177.62h4.92v24.63Z"/><path class="b" d="M634.76,176.72h.52l10.37,25.53H640.1l-1-2.66h-8.16l-1,2.66h-5.58ZM637.28,195,635,188.57,632.73,195Z"/><path class="b" d="M653.37,177.62v19.7h7.82v4.93H648.44V177.62Z"/><path class="b" d="M467.76,218.09a11.2,11.2,0,0,1,4.18,4.57,13.43,13.43,0,0,1,0,12,11.24,11.24,0,0,1-4.18,4.56,12.35,12.35,0,0,1-6.7,1.74h-7.34V216.35h7.34A12.35,12.35,0,0,1,467.76,218.09Zm-9.11,3.19v14.78h2.41A7.1,7.1,0,0,0,465,235a6.75,6.75,0,0,0,2.46-2.74,8.15,8.15,0,0,0,.83-3.62,8,8,0,0,0-.83-3.58,6.69,6.69,0,0,0-2.46-2.74,7.1,7.1,0,0,0-3.91-1.05Z"/><path class="b" d="M477.42,241V216.35h12.33v4.93h-7.41v4.93h6.48v4.92h-6.48v4.93h7.82V241Z"/><path class="b" d="M508.45,216.35v19.71h7.83V241H503.53V216.35Z"/><path class="b" d="M528.79,215.46h.52L539.68,241h-5.55l-1-2.65H525L524,241h-5.58Zm2.52,18.26-2.24-6.41-2.31,6.41Z"/><path class="b" d="M453.72,279.72V255.09h12.33V260h-7.4v4.92h6.47v4.93h-6.47v4.92h7.82v4.93Z"/><path class="b" d="M470.29,273a9.74,9.74,0,0,0,3.25,1.57,12.78,12.78,0,0,0,3.08.43l.69,0a2.85,2.85,0,0,0,1.81-.72,2,2,0,0,0,.74-1.55,2.18,2.18,0,0,0-.65-1.67,5.68,5.68,0,0,0-1.9-1.05,16.54,16.54,0,0,1-5.35-3,5.75,5.75,0,0,1-1.95-4.54,7.85,7.85,0,0,1,.88-3.72,6.86,6.86,0,0,1,2.46-2.69,7.34,7.34,0,0,1,3.62-1.1l.83,0a16.36,16.36,0,0,1,5.3,1.07l-.62,4.76a12,12,0,0,0-5-1,2.56,2.56,0,0,0-1.81.78,2.52,2.52,0,0,0-.63,1.74,2.06,2.06,0,0,0,.72,1.67,6.48,6.48,0,0,0,2,1.05,15.17,15.17,0,0,1,5.2,3,6,6,0,0,1,1.93,4.53,7.5,7.5,0,0,1-1,3.88,7,7,0,0,1-2.84,2.67,9.17,9.17,0,0,1-4.29,1,15.8,15.8,0,0,1-7.09-1.82Z"/><path class="b" d="M492.23,279.72V260h-6.14v-4.9h17.19V260h-6.13v19.7Z"/><path class="b" d="M512.47,254.19H513l10.37,25.53h-5.54l-1-2.65h-8.17l-1,2.65H502.1ZM515,272.45,512.74,266l-2.3,6.41Z"/><path class="b" d="M540.18,256.83a11.26,11.26,0,0,1,4.19,4.56,13.53,13.53,0,0,1,0,12,11.26,11.26,0,0,1-4.19,4.56,12.33,12.33,0,0,1-6.7,1.74h-7.33V255.09h7.33A12.33,12.33,0,0,1,540.18,256.83ZM531.07,260v14.77h2.41a7.07,7.07,0,0,0,3.91-1.05,6.75,6.75,0,0,0,2.47-2.73,8.17,8.17,0,0,0,.82-3.62,8,8,0,0,0-.82-3.58,6.71,6.71,0,0,0-2.47-2.74,7.07,7.07,0,0,0-3.91-1.05Z"/><path class="b" d="M549.84,279.72V255.09h4.93v24.63Zm4.48-26.59H550l1.69-4.45h5.86Z"/><path class="b" d="M559.53,273a9.83,9.83,0,0,0,3.25,1.57,12.86,12.86,0,0,0,3.09.43l.69,0a2.9,2.9,0,0,0,1.81-.72,2,2,0,0,0,.74-1.55,2.15,2.15,0,0,0-.66-1.67,5.62,5.62,0,0,0-1.89-1.05,16.6,16.6,0,0,1-5.36-3,5.75,5.75,0,0,1-2-4.54,8,8,0,0,1,.88-3.72A6.89,6.89,0,0,1,562.6,256a7.3,7.3,0,0,1,3.61-1.1l.83,0a16.31,16.31,0,0,1,5.3,1.07l-.62,4.76a11.91,11.91,0,0,0-5-1,2.52,2.52,0,0,0-1.81.78,2.48,2.48,0,0,0-.64,1.74,2.06,2.06,0,0,0,.72,1.67,6.44,6.44,0,0,0,2,1.05,15.27,15.27,0,0,1,5.2,3,6,6,0,0,1,1.93,4.53,7.6,7.6,0,0,1-1,3.88,7.07,7.07,0,0,1-2.85,2.67,9.1,9.1,0,0,1-4.28,1,15.77,15.77,0,0,1-3.31-.41,16.14,16.14,0,0,1-3.79-1.41Z"/><path class="b" d="M581.47,279.72V260h-6.13v-4.9h17.19V260H586.4v19.7Z"/><path class="b" d="M595.47,279.72V255.09h4.93v24.63Z"/><path class="b" d="M619.27,260a8.3,8.3,0,0,0-2.36-.29,7.15,7.15,0,0,0-4,1.07,6.92,6.92,0,0,0-2.5,2.79,8.35,8.35,0,0,0,0,7.3,6.92,6.92,0,0,0,2.5,2.79,7.15,7.15,0,0,0,4,1.07,10.17,10.17,0,0,0,2.67-.33,10.45,10.45,0,0,0,2.09-.77l.65,5.1a16.55,16.55,0,0,1-2.62.74,14.78,14.78,0,0,1-2.79.29,12.67,12.67,0,0,1-6.82-1.76,11.27,11.27,0,0,1-4.25-4.63,13.49,13.49,0,0,1-1.43-6.12,13.34,13.34,0,0,1,1.43-6.09,11.48,11.48,0,0,1,4.25-4.64,12.59,12.59,0,0,1,6.82-1.77,11.91,11.91,0,0,1,4.86,1l-.59,5.07A13.24,13.24,0,0,0,619.27,260Z"/><path class="b" d="M634.58,254.19h.52l10.37,25.53h-5.55l-1-2.65h-8.16l-1,2.65h-5.58Zm2.52,18.26L634.86,266l-2.31,6.41Z"/><path class="b" d="M648.26,279.72V255.09h12.33V260h-7.4v4.92h6.47v4.93h-6.47v4.92H661v4.93Z"/><path class="b" d="M467.76,179.36a11.24,11.24,0,0,1,4.18,4.56,13.43,13.43,0,0,1,0,12,11.2,11.2,0,0,1-4.18,4.57,12.35,12.35,0,0,1-6.7,1.74h-7.34V177.62h7.34A12.35,12.35,0,0,1,467.76,179.36Zm-9.11,3.18v14.78h2.41a7.1,7.1,0,0,0,3.91-1,6.69,6.69,0,0,0,2.46-2.74,8.22,8.22,0,0,0,0-7.2,6.75,6.75,0,0,0-2.46-2.74,7.1,7.1,0,0,0-3.91-1.05Z"/><path class="b" d="M477.42,202.25V177.62h4.92v24.63Zm4.48-26.6h-4.35l1.69-4.44h5.86Z"/><path class="b" d="M495.47,176.72H496l10.37,25.53h-5.55l-1-2.66h-8.16l-1,2.66h-5.58ZM498,195l-2.24-6.41L493.44,195Z"/><path class="b" d="M539.57,177.24h1.55v25h-5l0-13.75-6.31,6.62-6.3-6.62v13.75h-5v-25h1.59l9.71,10.81Z"/><path class="b" d="M562.74,198.46a7.89,7.89,0,0,1-3.29,3,9.64,9.64,0,0,1-4.34,1,9.74,9.74,0,0,1-4.35-1,7.94,7.94,0,0,1-3.31-3,8.79,8.79,0,0,1-1.26-4.79v-16h4.93v16a3.53,3.53,0,0,0,1.19,2.85,4.4,4.4,0,0,0,5.61,0,3.56,3.56,0,0,0,1.19-2.85v-16H564v16A8.79,8.79,0,0,1,562.74,198.46Z"/><path class="b" d="M574,202.25h-4.93V177.1h1.31l12.44,14.47V177.65h5v25.11h-1.31L574,188.85Z"/><path class="b" d="M607.06,179.36a11.26,11.26,0,0,1,4.19,4.56,13.51,13.51,0,0,1,0,12,11.22,11.22,0,0,1-4.19,4.57,12.32,12.32,0,0,1-6.69,1.74H593V177.62h7.34A12.32,12.32,0,0,1,607.06,179.36ZM598,182.54v14.78h2.42a7.12,7.12,0,0,0,3.91-1,6.69,6.69,0,0,0,2.46-2.74,8.31,8.31,0,0,0,0-7.2,6.75,6.75,0,0,0-2.46-2.74,7.12,7.12,0,0,0-3.91-1.05Z"/><path class="b" d="M616.71,202.25V177.62h4.92v24.63Z"/><path class="b" d="M634.76,176.72h.52l10.37,25.53H640.1l-1-2.66h-8.16l-1,2.66h-5.58ZM637.28,195,635,188.57,632.73,195Z"/><path class="b" d="M653.37,177.62v19.7h7.82v4.93H648.44V177.62Z"/><path class="b" d="M467.76,218.09a11.2,11.2,0,0,1,4.18,4.57,13.43,13.43,0,0,1,0,12,11.24,11.24,0,0,1-4.18,4.56,12.35,12.35,0,0,1-6.7,1.74h-7.34V216.35h7.34A12.35,12.35,0,0,1,467.76,218.09Zm-9.11,3.19v14.78h2.41A7.1,7.1,0,0,0,465,235a6.75,6.75,0,0,0,2.46-2.74,8.15,8.15,0,0,0,.83-3.62,8,8,0,0,0-.83-3.58,6.69,6.69,0,0,0-2.46-2.74,7.1,7.1,0,0,0-3.91-1.05Z"/><path class="b" d="M477.42,241V216.35h12.33v4.93h-7.41v4.93h6.48v4.92h-6.48v4.93h7.82V241Z"/><path class="b" d="M508.45,216.35v19.71h7.83V241H503.53V216.35Z"/><path class="b" d="M528.79,215.46h.52L539.68,241h-5.55l-1-2.65H525L524,241h-5.58Zm2.52,18.26-2.24-6.41-2.31,6.41Z"/><path class="b" d="M453.72,279.72V255.09h12.33V260h-7.4v4.92h6.47v4.93h-6.47v4.92h7.82v4.93Z"/><path class="b" d="M470.29,273a9.74,9.74,0,0,0,3.25,1.57,12.78,12.78,0,0,0,3.08.43l.69,0a2.85,2.85,0,0,0,1.81-.72,2,2,0,0,0,.74-1.55,2.18,2.18,0,0,0-.65-1.67,5.68,5.68,0,0,0-1.9-1.05,16.54,16.54,0,0,1-5.35-3,5.75,5.75,0,0,1-1.95-4.54,7.85,7.85,0,0,1,.88-3.72,6.86,6.86,0,0,1,2.46-2.69,7.34,7.34,0,0,1,3.62-1.1l.83,0a16.36,16.36,0,0,1,5.3,1.07l-.62,4.76a12,12,0,0,0-5-1,2.56,2.56,0,0,0-1.81.78,2.52,2.52,0,0,0-.63,1.74,2.06,2.06,0,0,0,.72,1.67,6.48,6.48,0,0,0,2,1.05,15.17,15.17,0,0,1,5.2,3,6,6,0,0,1,1.93,4.53,7.5,7.5,0,0,1-1,3.88,7,7,0,0,1-2.84,2.67,9.17,9.17,0,0,1-4.29,1,15.8,15.8,0,0,1-7.09-1.82Z"/><path class="b" d="M492.23,279.72V260h-6.14v-4.9h17.19V260h-6.13v19.7Z"/><path class="b" d="M512.47,254.19H513l10.37,25.53h-5.54l-1-2.65h-8.17l-1,2.65H502.1ZM515,272.45,512.74,266l-2.3,6.41Z"/><path class="b" d="M540.18,256.83a11.26,11.26,0,0,1,4.19,4.56,13.53,13.53,0,0,1,0,12,11.26,11.26,0,0,1-4.19,4.56,12.33,12.33,0,0,1-6.7,1.74h-7.33V255.09h7.33A12.33,12.33,0,0,1,540.18,256.83ZM531.07,260v14.77h2.41a7.07,7.07,0,0,0,3.91-1.05,6.75,6.75,0,0,0,2.47-2.73,8.17,8.17,0,0,0,.82-3.62,8,8,0,0,0-.82-3.58,6.71,6.71,0,0,0-2.47-2.74,7.07,7.07,0,0,0-3.91-1.05Z"/><path class="b" d="M549.84,279.72V255.09h4.93v24.63Zm4.48-26.59H550l1.69-4.45h5.86Z"/><path class="b" d="M559.53,273a9.83,9.83,0,0,0,3.25,1.57,12.86,12.86,0,0,0,3.09.43l.69,0a2.9,2.9,0,0,0,1.81-.72,2,2,0,0,0,.74-1.55,2.15,2.15,0,0,0-.66-1.67,5.62,5.62,0,0,0-1.89-1.05,16.6,16.6,0,0,1-5.36-3,5.75,5.75,0,0,1-2-4.54,8,8,0,0,1,.88-3.72A6.89,6.89,0,0,1,562.6,256a7.3,7.3,0,0,1,3.61-1.1l.83,0a16.31,16.31,0,0,1,5.3,1.07l-.62,4.76a11.91,11.91,0,0,0-5-1,2.52,2.52,0,0,0-1.81.78,2.48,2.48,0,0,0-.64,1.74,2.06,2.06,0,0,0,.72,1.67,6.44,6.44,0,0,0,2,1.05,15.27,15.27,0,0,1,5.2,3,6,6,0,0,1,1.93,4.53,7.6,7.6,0,0,1-1,3.88,7.07,7.07,0,0,1-2.85,2.67,9.1,9.1,0,0,1-4.28,1,15.77,15.77,0,0,1-3.31-.41,16.14,16.14,0,0,1-3.79-1.41Z"/><path class="b" d="M581.47,279.72V260h-6.13v-4.9h17.19V260H586.4v19.7Z"/><path class="b" d="M595.47,279.72V255.09h4.93v24.63Z"/><path class="b" d="M619.27,260a8.3,8.3,0,0,0-2.36-.29,7.15,7.15,0,0,0-4,1.07,6.92,6.92,0,0,0-2.5,2.79,8.35,8.35,0,0,0,0,7.3,6.92,6.92,0,0,0,2.5,2.79,7.15,7.15,0,0,0,4,1.07,10.17,10.17,0,0,0,2.67-.33,10.45,10.45,0,0,0,2.09-.77l.65,5.1a16.55,16.55,0,0,1-2.62.74,14.78,14.78,0,0,1-2.79.29,12.67,12.67,0,0,1-6.82-1.76,11.27,11.27,0,0,1-4.25-4.63,13.49,13.49,0,0,1-1.43-6.12,13.34,13.34,0,0,1,1.43-6.09,11.48,11.48,0,0,1,4.25-4.64,12.59,12.59,0,0,1,6.82-1.77,11.91,11.91,0,0,1,4.86,1l-.59,5.07A13.24,13.24,0,0,0,619.27,260Z"/><path class="b" d="M634.58,254.19h.52l10.37,25.53h-5.55l-1-2.65h-8.16l-1,2.65h-5.58Zm2.52,18.26L634.86,266l-2.31,6.41Z"/><path class="b" d="M648.26,279.72V255.09h12.33V260h-7.4v4.92h6.47v4.93h-6.47v4.92H661v4.93Z"/><path class="e" d="M458.32,303.14a2.61,2.61,0,0,0,.2-.84A1.59,1.59,0,0,0,458,301a2.15,2.15,0,0,0-1.46-.49,5.77,5.77,0,0,0-2.15.47,6.47,6.47,0,0,0-1.66.92l-.86-3.37a8.73,8.73,0,0,1,2.47-1.19A7.91,7.91,0,0,1,457,297a6.5,6.5,0,0,1,2.9.73,4.52,4.52,0,0,1,2.46,4.11,6.79,6.79,0,0,1-1.45,4l-3.45,5.34h5.19v3.54H451.11l6.53-10.37A6.05,6.05,0,0,0,458.32,303.14Z"/><path class="e" d="M466.45,312.45a15.11,15.11,0,0,1,0-13,5.4,5.4,0,0,1,9.08,0,15.15,15.15,0,0,1,0,13,5.38,5.38,0,0,1-9.08,0Zm6.55-2.36a14.13,14.13,0,0,0,0-8.28,2.13,2.13,0,0,0-2-1.57,2.08,2.08,0,0,0-2,1.57,14.13,14.13,0,0,0,0,8.28,2.07,2.07,0,0,0,2,1.56A2.12,2.12,0,0,0,473,310.09Z"/><path class="f" d="M482.48,311.51a2,2,0,0,1,.51,1.38,2,2,0,0,1-.53,1.4,1.84,1.84,0,0,1-1.45.58,1.86,1.86,0,0,1-1.46-.58,2,2,0,0,1-.52-1.4,2,2,0,0,1,.52-1.38,2.17,2.17,0,0,1,2.93,0Z"/><path class="e" d="M485,297.23h6.34V314.7h-3.48v-14H485Z"/><path class="e" d="M496.08,312.45a15.11,15.11,0,0,1,0-13,5.39,5.39,0,0,1,9.07,0,15.15,15.15,0,0,1,0,13,5.37,5.37,0,0,1-9.07,0Zm6.54-2.36a13.92,13.92,0,0,0,0-8.28,2.12,2.12,0,0,0-2-1.57,2.09,2.09,0,0,0-2,1.57,14.35,14.35,0,0,0,0,8.28,2.08,2.08,0,0,0,2,1.56A2.11,2.11,0,0,0,502.62,310.09Z"/><path class="f" d="M512.1,311.51a2,2,0,0,1,.52,1.38,2,2,0,0,1-.53,1.4,1.86,1.86,0,0,1-1.46.58,1.84,1.84,0,0,1-1.45-.58,2,2,0,0,1-.53-1.4,2,2,0,0,1,.53-1.38,2.15,2.15,0,0,1,2.92,0Z"/><path class="e" d="M521.26,303.14a2.42,2.42,0,0,0,.21-.84,1.59,1.59,0,0,0-.57-1.27,2.17,2.17,0,0,0-1.46-.49,5.73,5.73,0,0,0-2.15.47,6.75,6.75,0,0,0-1.67.92l-.85-3.37a8.6,8.6,0,0,1,2.47-1.19A7.89,7.89,0,0,1,520,297a6.43,6.43,0,0,1,2.9.73,4.47,4.47,0,0,1,2.46,4.11,6.78,6.78,0,0,1-1.44,4l-3.45,5.34h5.19v3.54H514.06l6.53-10.37A6,6,0,0,0,521.26,303.14Z"/><path class="e" d="M529.4,312.45a15.11,15.11,0,0,1,0-13,5.4,5.4,0,0,1,9.08,0,15.24,15.24,0,0,1,0,13,5.38,5.38,0,0,1-9.08,0Zm6.54-2.36a13.92,13.92,0,0,0,0-8.28,2.06,2.06,0,0,0-4,0,14.35,14.35,0,0,0,0,8.28,2.06,2.06,0,0,0,4,0Z"/><path class="e" d="M548.62,303.14a2.61,2.61,0,0,0,.2-.84,1.59,1.59,0,0,0-.57-1.27,2.15,2.15,0,0,0-1.46-.49,5.77,5.77,0,0,0-2.15.47,6.47,6.47,0,0,0-1.66.92l-.86-3.37a8.73,8.73,0,0,1,2.47-1.19,7.91,7.91,0,0,1,2.72-.4,6.5,6.5,0,0,1,2.9.73,4.68,4.68,0,0,1,1.83,1.72,4.61,4.61,0,0,1,.63,2.39,6.79,6.79,0,0,1-1.45,4l-3.45,5.34H553v3.54H541.41l6.53-10.37A6.05,6.05,0,0,0,548.62,303.14Z"/><path class="e" d="M556.75,312.45a15.11,15.11,0,0,1,0-13,5.4,5.4,0,0,1,9.08,0,15.24,15.24,0,0,1,0,13,5.38,5.38,0,0,1-9.08,0Zm6.54-2.36a13.92,13.92,0,0,0,0-8.28,2.06,2.06,0,0,0-4,0,14.35,14.35,0,0,0,0,8.28,2.06,2.06,0,0,0,4,0Z"/><path class="b" d="M461.41,336.49a4.86,4.86,0,0,0-1.49-.19,4.49,4.49,0,0,0-2.5.68,4.31,4.31,0,0,0-1.58,1.76,5.16,5.16,0,0,0-.54,2.31,5.09,5.09,0,0,0,.54,2.31,4.28,4.28,0,0,0,1.58,1.77,4.49,4.49,0,0,0,2.5.67,6.93,6.93,0,0,0,1.69-.2,6.41,6.41,0,0,0,1.32-.5l.41,3.23a9.28,9.28,0,0,1-1.65.47,9.49,9.49,0,0,1-1.77.18,8,8,0,0,1-4.31-1.11,7.11,7.11,0,0,1-2.7-2.93,8.73,8.73,0,0,1,0-7.72,7.26,7.26,0,0,1,2.7-2.94,8,8,0,0,1,4.31-1.12,7.58,7.58,0,0,1,3.07.61l-.37,3.21A6.82,6.82,0,0,0,461.41,336.49Z"/><path class="b" d="M469.15,348a7.31,7.31,0,0,1-2.73-3,8.81,8.81,0,0,1,0-7.84,7.31,7.31,0,0,1,2.73-3,9.11,9.11,0,0,1,8.79,0,7.31,7.31,0,0,1,2.73,3,8.81,8.81,0,0,1,0,7.84,7.31,7.31,0,0,1-2.73,3,9.11,9.11,0,0,1-8.79,0Zm6.94-2.78a4.39,4.39,0,0,0,1.61-1.79,5.35,5.35,0,0,0,.53-2.34,5.47,5.47,0,0,0-.53-2.36,4.25,4.25,0,0,0-1.61-1.78,4.67,4.67,0,0,0-2.55-.68A4.6,4.6,0,0,0,471,337a4.33,4.33,0,0,0-1.6,1.77,5.45,5.45,0,0,0-.53,2.37,5.35,5.35,0,0,0,.53,2.34,4.44,4.44,0,0,0,1.6,1.79,4.6,4.6,0,0,0,2.53.68A4.67,4.67,0,0,0,476.09,345.25Z"/><path class="b" d="M488.2,348.94h-3.12V333h.83l7.87,9.16v-8.81h3.13v15.89h-.82l-7.89-8.81Z"/><path class="b" d="M501.13,348.94V333.36h7.8v3.11h-4.69v3.12h4.1v3.12h-4.1v3.11h4.95v3.12Z"/><path class="b" d="M521.25,336.49a4.82,4.82,0,0,0-1.49-.19,4.49,4.49,0,0,0-2.5.68,4.31,4.31,0,0,0-1.58,1.76,5.16,5.16,0,0,0-.54,2.31,5.09,5.09,0,0,0,.54,2.31,4.28,4.28,0,0,0,1.58,1.77,4.49,4.49,0,0,0,2.5.67,6.87,6.87,0,0,0,1.69-.2,6.41,6.41,0,0,0,1.32-.5l.41,3.23a9.28,9.28,0,0,1-1.65.47,9.49,9.49,0,0,1-1.77.18,8,8,0,0,1-4.31-1.11,7.09,7.09,0,0,1-2.69-2.93,8.64,8.64,0,0,1,0-7.72,7.24,7.24,0,0,1,2.69-2.94,8,8,0,0,1,4.31-1.12,7.58,7.58,0,0,1,3.07.61l-.37,3.21A6.82,6.82,0,0,0,521.25,336.49Z"/><path class="b" d="M529.1,348.94V336.47h-3.88v-3.09h10.87v3.09h-3.88v12.47Z"/><path class="b" d="M542.85,332.79h.33l6.56,16.15h-3.51l-.63-1.68h-5.17l-.61,1.68h-3.53Zm1.59,11.55-1.41-4-1.46,4Z"/><path class="b" d="M555.55,348.94h-3.12V333h.83l7.87,9.16v-8.81h3.14v15.89h-.83l-7.89-8.81Z"/><path class="b" d="M577.36,334.46a7.15,7.15,0,0,1,2.65,2.89,8.56,8.56,0,0,1,0,7.6,7.15,7.15,0,0,1-2.65,2.89,7.85,7.85,0,0,1-4.24,1.1h-4.64V333.36h4.64A7.85,7.85,0,0,1,577.36,334.46Zm-5.77,2v9.35h1.53a4.49,4.49,0,0,0,2.47-.66,4.26,4.26,0,0,0,1.56-1.73,5.13,5.13,0,0,0,.52-2.29,5.07,5.07,0,0,0-.52-2.27,4.26,4.26,0,0,0-1.56-1.73,4.49,4.49,0,0,0-2.47-.67Z"/><path class="b" d="M587.35,348a7.31,7.31,0,0,1-2.73-3,8.81,8.81,0,0,1,0-7.84,7.31,7.31,0,0,1,2.73-3,9.09,9.09,0,0,1,8.78,0,7.26,7.26,0,0,1,2.74,3,8.9,8.9,0,0,1,0,7.84,7.26,7.26,0,0,1-2.74,3,9.09,9.09,0,0,1-8.78,0Zm6.94-2.78a4.37,4.37,0,0,0,1.6-1.79,5.22,5.22,0,0,0,.54-2.34,5.34,5.34,0,0,0-.54-2.36,4.22,4.22,0,0,0-1.6-1.78,5.1,5.1,0,0,0-5.09,0,4.37,4.37,0,0,0-1.59,1.77,5.45,5.45,0,0,0-.53,2.37,5.35,5.35,0,0,0,.53,2.34,4.49,4.49,0,0,0,1.59,1.79,5.1,5.1,0,0,0,5.09,0Z"/><path class="b" d="M452.71,376.5V360.92h7.8V364h-4.69v3.12h4.1v3.12h-4.1v3.11h4.95v3.12Z"/><path class="b" d="M467.61,360.92v12.46h4.94v3.12h-8.06V360.92Z"/><path class="b" d="M495.72,360.68h1V376.5h-3.16l0-8.7-4,4.19-4-4.19v8.7h-3.16V360.68h1l6.15,6.84Z"/><path class="b" d="M511.31,374.1a5.09,5.09,0,0,1-2.09,1.9,6.12,6.12,0,0,1-2.74.63,6.27,6.27,0,0,1-2.76-.63,5.09,5.09,0,0,1-2.09-1.9,5.56,5.56,0,0,1-.8-3V360.92H504v10.13a2.25,2.25,0,0,0,.75,1.8,2.8,2.8,0,0,0,3.56,0,2.25,2.25,0,0,0,.75-1.8V360.92h3.09v10.15A5.56,5.56,0,0,1,511.31,374.1Z"/><path class="b" d="M519.37,376.5h-3.11V360.59h.82l7.87,9.15v-8.8h3.14v15.89h-.83L519.37,368Z"/><path class="b" d="M541.18,362a7,7,0,0,1,2.65,2.89,8.56,8.56,0,0,1,0,7.6,7.08,7.08,0,0,1-2.65,2.89,7.83,7.83,0,0,1-4.23,1.1H532.3V360.92H537A7.75,7.75,0,0,1,541.18,362Zm-5.76,2v9.35H537a4.51,4.51,0,0,0,2.47-.66A4.26,4.26,0,0,0,541,371a5.16,5.16,0,0,0,.52-2.29,5.07,5.07,0,0,0-.52-2.27,4.26,4.26,0,0,0-1.56-1.73A4.43,4.43,0,0,0,537,364Z"/><path class="b" d="M551.18,375.58a7.18,7.18,0,0,1-2.74-3,8.92,8.92,0,0,1,0-7.85,7.24,7.24,0,0,1,2.74-3,9.09,9.09,0,0,1,8.78,0,7.28,7.28,0,0,1,2.73,3,8.83,8.83,0,0,1,0,7.85,7.22,7.22,0,0,1-2.73,3,9,9,0,0,1-8.78,0Zm6.94-2.77a4.44,4.44,0,0,0,1.6-1.79,5.41,5.41,0,0,0,.53-2.34,5.47,5.47,0,0,0-.53-2.36,4.38,4.38,0,0,0-1.6-1.79,4.69,4.69,0,0,0-2.55-.67,4.6,4.6,0,0,0-2.54.67,4.32,4.32,0,0,0-1.59,1.78,5.41,5.41,0,0,0,0,4.71,4.34,4.34,0,0,0,1.59,1.79,4.61,4.61,0,0,0,2.54.68A4.69,4.69,0,0,0,558.12,372.81Z"/><path class="b" d="M461.41,391.6a5.23,5.23,0,0,0-1.49-.18,4.49,4.49,0,0,0-2.5.67,4.28,4.28,0,0,0-1.58,1.77,5.21,5.21,0,0,0,0,4.62,4.25,4.25,0,0,0,1.58,1.76,4.49,4.49,0,0,0,2.5.68,6.73,6.73,0,0,0,3-.7l.41,3.23a10.2,10.2,0,0,1-1.65.47,9.49,9.49,0,0,1-1.77.18,8,8,0,0,1-4.31-1.11,7.17,7.17,0,0,1-2.7-2.93,8.75,8.75,0,0,1,0-7.73,7.3,7.3,0,0,1,2.7-2.93,7.93,7.93,0,0,1,4.31-1.12,7.41,7.41,0,0,1,3.07.61l-.37,3.2A8.77,8.77,0,0,0,461.41,391.6Z"/><path class="b" d="M469.15,403.14a7.22,7.22,0,0,1-2.73-3,8.83,8.83,0,0,1,0-7.85,7.22,7.22,0,0,1,2.73-3,9,9,0,0,1,8.79,0,7.22,7.22,0,0,1,2.73,3,8.83,8.83,0,0,1,0,7.85,7.22,7.22,0,0,1-2.73,3,9,9,0,0,1-8.79,0Zm6.94-2.78a4.31,4.31,0,0,0,1.61-1.78,5.47,5.47,0,0,0,0-4.7,4.27,4.27,0,0,0-1.61-1.79,4.66,4.66,0,0,0-2.55-.67,4.59,4.59,0,0,0-2.53.67,4.35,4.35,0,0,0-1.6,1.78,5.5,5.5,0,0,0,0,4.71,4.35,4.35,0,0,0,1.6,1.78,4.52,4.52,0,0,0,2.53.69A4.59,4.59,0,0,0,476.09,400.36Z"/><path class="b" d="M488.2,404.06h-3.12V388.15h.83l7.87,9.15v-8.8h3.13v15.89h-.82l-7.89-8.81Z"/><path class="b" d="M516.5,389.58a7.1,7.1,0,0,1,2.64,2.88,8.49,8.49,0,0,1,0,7.61A7.19,7.19,0,0,1,516.5,403a7.87,7.87,0,0,1-4.24,1.1h-4.64V388.48h4.64A7.78,7.78,0,0,1,516.5,389.58Zm-5.77,2v9.35h1.53a4.49,4.49,0,0,0,2.47-.66,4.28,4.28,0,0,0,1.56-1.74,5.24,5.24,0,0,0,0-4.55,4.26,4.26,0,0,0-1.56-1.73,4.41,4.41,0,0,0-2.47-.67Z"/><path class="b" d="M527.8,387.91h.33l6.56,16.15h-3.51l-.63-1.68h-5.17l-.6,1.68h-3.54Zm1.59,11.55-1.41-4-1.46,4Z"/><path class="b" d="M538.72,404.06V391.59h-3.88V388.5h10.87v3.09h-3.88v12.47Z"/><path class="b" d="M551.3,403.14a7.18,7.18,0,0,1-2.74-3,8.92,8.92,0,0,1,0-7.85,7.18,7.18,0,0,1,2.74-3,9,9,0,0,1,8.78,0,7.24,7.24,0,0,1,2.74,3,8.92,8.92,0,0,1,0,7.85,7.24,7.24,0,0,1-2.74,3,9,9,0,0,1-8.78,0Zm6.94-2.78a4.28,4.28,0,0,0,1.6-1.78,5.47,5.47,0,0,0,0-4.7,4.25,4.25,0,0,0-1.6-1.79,5.17,5.17,0,0,0-5.09,0,4.4,4.4,0,0,0-1.59,1.78,5.5,5.5,0,0,0,0,4.71,4.4,4.4,0,0,0,1.59,1.78,5,5,0,0,0,5.09,0Z"/><path class="b" d="M566.77,399.79a6.19,6.19,0,0,0,2.06,1,8,8,0,0,0,1.95.27l.44,0a1.82,1.82,0,0,0,1.14-.46,1.23,1.23,0,0,0,.47-1,1.4,1.4,0,0,0-.41-1.06,3.71,3.71,0,0,0-1.2-.66,10.36,10.36,0,0,1-3.39-1.88,3.64,3.64,0,0,1-1.23-2.87,5.06,5.06,0,0,1,.55-2.36,4.48,4.48,0,0,1,1.56-1.7,4.63,4.63,0,0,1,2.29-.69l.52,0a10.37,10.37,0,0,1,3.36.68l-.39,3a7.68,7.68,0,0,0-3.18-.66,1.64,1.64,0,0,0-1.15.49,1.59,1.59,0,0,0-.4,1.1,1.28,1.28,0,0,0,.46,1.06,3.91,3.91,0,0,0,1.28.67,9.64,9.64,0,0,1,3.29,1.9,3.76,3.76,0,0,1,1.22,2.87,4.75,4.75,0,0,1-.63,2.45,4.39,4.39,0,0,1-1.8,1.69,5.7,5.7,0,0,1-2.71.61,10,10,0,0,1-2.09-.26,10.21,10.21,0,0,1-2.4-.89Z"/><path class="b" d="M461.41,419.16a5.23,5.23,0,0,0-1.49-.18,4.49,4.49,0,0,0-2.5.67,4.28,4.28,0,0,0-1.58,1.77,5.09,5.09,0,0,0-.54,2.31,5.16,5.16,0,0,0,.54,2.31,4.31,4.31,0,0,0,1.58,1.76,4.49,4.49,0,0,0,2.5.68,6.73,6.73,0,0,0,3-.7l.41,3.23a10.2,10.2,0,0,1-1.65.47,9.49,9.49,0,0,1-1.77.18,8,8,0,0,1-4.31-1.11,7.17,7.17,0,0,1-2.7-2.93,8.66,8.66,0,0,1-.9-3.87,8.55,8.55,0,0,1,.9-3.86,7.3,7.3,0,0,1,2.7-2.93,7.93,7.93,0,0,1,4.31-1.12,7.41,7.41,0,0,1,3.07.61l-.37,3.2A8.77,8.77,0,0,0,461.41,419.16Z"/><path class="b" d="M469.15,430.7a7.28,7.28,0,0,1-2.73-3,8.83,8.83,0,0,1,0-7.85,7.22,7.22,0,0,1,2.73-3,9,9,0,0,1,8.79,0,7.22,7.22,0,0,1,2.73,3,8.83,8.83,0,0,1,0,7.85,7.28,7.28,0,0,1-2.73,3,9.11,9.11,0,0,1-8.79,0Zm6.94-2.78a4.37,4.37,0,0,0,1.61-1.78,5.47,5.47,0,0,0,0-4.7,4.27,4.27,0,0,0-1.61-1.79,4.66,4.66,0,0,0-2.55-.67,4.59,4.59,0,0,0-2.53.67,4.29,4.29,0,0,0-1.6,1.78,5.5,5.5,0,0,0,0,4.71,4.41,4.41,0,0,0,1.6,1.78,4.52,4.52,0,0,0,2.53.69A4.59,4.59,0,0,0,476.09,427.92Z"/><path class="b" d="M488.2,431.62h-3.12V415.71h.83l7.87,9.15v-8.8h3.13v15.88h-.82l-7.89-8.8Z"/><path class="b" d="M504.24,419.15v3.12h4v3.11h-4v6.24h-3.11V416h7.78v3.12Z"/><path class="b" d="M512.11,431.62V416h3.12v15.59Z"/><path class="b" d="M524.46,415.47h.33l6.56,16.15h-3.51l-.63-1.68H522l-.61,1.68H517.9ZM526.05,427,524.63,423,523.18,427Z"/><path class="b" d="M534,416h6.17a4.56,4.56,0,0,1,2.33.59,4,4,0,0,1,1.55,1.62,5,5,0,0,1,.54,2.37,4.8,4.8,0,0,1-.36,1.85,3,3,0,0,1-1.08,1.37,3.55,3.55,0,0,1,1.19,1.36,3.85,3.85,0,0,1,.43,1.76,4.62,4.62,0,0,1-.63,2.37,4.69,4.69,0,0,1-1.67,1.7,4.54,4.54,0,0,1-2.3.62H534Zm3.14,6.26H540a1.32,1.32,0,0,0,1-.46,1.67,1.67,0,0,0,.39-1.11,1.63,1.63,0,0,0-.39-1.12,1.31,1.31,0,0,0-1-.45h-2.77Zm0,6.23H540a1.58,1.58,0,0,0,1.12-2.67,1.52,1.52,0,0,0-1.12-.45h-2.77Z"/><path class="b" d="M551.52,416V428.5h5v3.12h-8.06V416Z"/><path class="b" d="M559.42,431.62V416h7.8v3.12h-4.68v3.12h4.09v3.11h-4.09v3.12h4.94v3.12Z"/><path class="b" d="M570.82,427.35a6.29,6.29,0,0,0,2.06,1,7.86,7.86,0,0,0,2,.27l.44,0a1.82,1.82,0,0,0,1.14-.46,1.28,1.28,0,0,0,.47-1,1.37,1.37,0,0,0-.42-1.06,3.55,3.55,0,0,0-1.19-.66,10.54,10.54,0,0,1-3.39-1.88,3.64,3.64,0,0,1-1.23-2.87,5,5,0,0,1,.55-2.36,4.33,4.33,0,0,1,1.56-1.7,4.63,4.63,0,0,1,2.29-.69l.52,0a10.37,10.37,0,0,1,3.36.68l-.4,3a7.62,7.62,0,0,0-3.18-.66,1.63,1.63,0,0,0-1.14.49,1.59,1.59,0,0,0-.4,1.1,1.31,1.31,0,0,0,.45,1.06,4.29,4.29,0,0,0,1.29.67,9.48,9.48,0,0,1,3.29,1.9,3.79,3.79,0,0,1,1.22,2.87,4.78,4.78,0,0,1-.63,2.45,4.39,4.39,0,0,1-1.8,1.69,5.73,5.73,0,0,1-2.71.61,10,10,0,0,1-2.09-.26,9.68,9.68,0,0,1-2.4-.9Z"/><path class="b" d="M461.41,336.49a4.86,4.86,0,0,0-1.49-.19,4.49,4.49,0,0,0-2.5.68,4.31,4.31,0,0,0-1.58,1.76,5.16,5.16,0,0,0-.54,2.31,5.09,5.09,0,0,0,.54,2.31,4.28,4.28,0,0,0,1.58,1.77,4.49,4.49,0,0,0,2.5.67,6.93,6.93,0,0,0,1.69-.2,6.41,6.41,0,0,0,1.32-.5l.41,3.23a9.28,9.28,0,0,1-1.65.47,9.49,9.49,0,0,1-1.77.18,8,8,0,0,1-4.31-1.11,7.11,7.11,0,0,1-2.7-2.93,8.73,8.73,0,0,1,0-7.72,7.26,7.26,0,0,1,2.7-2.94,8,8,0,0,1,4.31-1.12,7.58,7.58,0,0,1,3.07.61l-.37,3.21A6.82,6.82,0,0,0,461.41,336.49Z"/><path class="b" d="M469.15,348a7.31,7.31,0,0,1-2.73-3,8.81,8.81,0,0,1,0-7.84,7.31,7.31,0,0,1,2.73-3,9.11,9.11,0,0,1,8.79,0,7.31,7.31,0,0,1,2.73,3,8.81,8.81,0,0,1,0,7.84,7.31,7.31,0,0,1-2.73,3,9.11,9.11,0,0,1-8.79,0Zm6.94-2.78a4.39,4.39,0,0,0,1.61-1.79,5.35,5.35,0,0,0,.53-2.34,5.47,5.47,0,0,0-.53-2.36,4.25,4.25,0,0,0-1.61-1.78,4.67,4.67,0,0,0-2.55-.68A4.6,4.6,0,0,0,471,337a4.33,4.33,0,0,0-1.6,1.77,5.45,5.45,0,0,0-.53,2.37,5.35,5.35,0,0,0,.53,2.34,4.44,4.44,0,0,0,1.6,1.79,4.6,4.6,0,0,0,2.53.68A4.67,4.67,0,0,0,476.09,345.25Z"/><path class="b" d="M488.2,348.94h-3.12V333h.83l7.87,9.16v-8.81h3.13v15.89h-.82l-7.89-8.81Z"/><path class="b" d="M501.13,348.94V333.36h7.8v3.11h-4.69v3.12h4.1v3.12h-4.1v3.11h4.95v3.12Z"/><path class="b" d="M521.25,336.49a4.82,4.82,0,0,0-1.49-.19,4.49,4.49,0,0,0-2.5.68,4.31,4.31,0,0,0-1.58,1.76,5.16,5.16,0,0,0-.54,2.31,5.09,5.09,0,0,0,.54,2.31,4.28,4.28,0,0,0,1.58,1.77,4.49,4.49,0,0,0,2.5.67,6.87,6.87,0,0,0,1.69-.2,6.41,6.41,0,0,0,1.32-.5l.41,3.23a9.28,9.28,0,0,1-1.65.47,9.49,9.49,0,0,1-1.77.18,8,8,0,0,1-4.31-1.11,7.09,7.09,0,0,1-2.69-2.93,8.64,8.64,0,0,1,0-7.72,7.24,7.24,0,0,1,2.69-2.94,8,8,0,0,1,4.31-1.12,7.58,7.58,0,0,1,3.07.61l-.37,3.21A6.82,6.82,0,0,0,521.25,336.49Z"/><path class="b" d="M529.1,348.94V336.47h-3.88v-3.09h10.87v3.09h-3.88v12.47Z"/><path class="b" d="M542.85,332.79h.33l6.56,16.15h-3.51l-.63-1.68h-5.17l-.61,1.68h-3.53Zm1.59,11.55-1.41-4-1.46,4Z"/><path class="b" d="M555.55,348.94h-3.12V333h.83l7.87,9.16v-8.81h3.14v15.89h-.83l-7.89-8.81Z"/><path class="b" d="M577.36,334.46a7.15,7.15,0,0,1,2.65,2.89,8.56,8.56,0,0,1,0,7.6,7.15,7.15,0,0,1-2.65,2.89,7.85,7.85,0,0,1-4.24,1.1h-4.64V333.36h4.64A7.85,7.85,0,0,1,577.36,334.46Zm-5.77,2v9.35h1.53a4.49,4.49,0,0,0,2.47-.66,4.26,4.26,0,0,0,1.56-1.73,5.13,5.13,0,0,0,.52-2.29,5.07,5.07,0,0,0-.52-2.27,4.26,4.26,0,0,0-1.56-1.73,4.49,4.49,0,0,0-2.47-.67Z"/><path class="b" d="M587.35,348a7.31,7.31,0,0,1-2.73-3,8.81,8.81,0,0,1,0-7.84,7.31,7.31,0,0,1,2.73-3,9.09,9.09,0,0,1,8.78,0,7.26,7.26,0,0,1,2.74,3,8.9,8.9,0,0,1,0,7.84,7.26,7.26,0,0,1-2.74,3,9.09,9.09,0,0,1-8.78,0Zm6.94-2.78a4.37,4.37,0,0,0,1.6-1.79,5.22,5.22,0,0,0,.54-2.34,5.34,5.34,0,0,0-.54-2.36,4.22,4.22,0,0,0-1.6-1.78,5.1,5.1,0,0,0-5.09,0,4.37,4.37,0,0,0-1.59,1.77,5.45,5.45,0,0,0-.53,2.37,5.35,5.35,0,0,0,.53,2.34,4.49,4.49,0,0,0,1.59,1.79,5.1,5.1,0,0,0,5.09,0Z"/><path class="b" d="M452.71,376.5V360.92h7.8V364h-4.69v3.12h4.1v3.12h-4.1v3.11h4.95v3.12Z"/><path class="b" d="M467.61,360.92v12.46h4.94v3.12h-8.06V360.92Z"/><path class="b" d="M495.72,360.68h1V376.5h-3.16l0-8.7-4,4.19-4-4.19v8.7h-3.16V360.68h1l6.15,6.84Z"/><path class="b" d="M511.31,374.1a5.09,5.09,0,0,1-2.09,1.9,6.12,6.12,0,0,1-2.74.63,6.27,6.27,0,0,1-2.76-.63,5.09,5.09,0,0,1-2.09-1.9,5.56,5.56,0,0,1-.8-3V360.92H504v10.13a2.25,2.25,0,0,0,.75,1.8,2.8,2.8,0,0,0,3.56,0,2.25,2.25,0,0,0,.75-1.8V360.92h3.09v10.15A5.56,5.56,0,0,1,511.31,374.1Z"/><path class="b" d="M519.37,376.5h-3.11V360.59h.82l7.87,9.15v-8.8h3.14v15.89h-.83L519.37,368Z"/><path class="b" d="M541.18,362a7,7,0,0,1,2.65,2.89,8.56,8.56,0,0,1,0,7.6,7.08,7.08,0,0,1-2.65,2.89,7.83,7.83,0,0,1-4.23,1.1H532.3V360.92H537A7.75,7.75,0,0,1,541.18,362Zm-5.76,2v9.35H537a4.51,4.51,0,0,0,2.47-.66A4.26,4.26,0,0,0,541,371a5.16,5.16,0,0,0,.52-2.29,5.07,5.07,0,0,0-.52-2.27,4.26,4.26,0,0,0-1.56-1.73A4.43,4.43,0,0,0,537,364Z"/><path class="b" d="M551.18,375.58a7.18,7.18,0,0,1-2.74-3,8.92,8.92,0,0,1,0-7.85,7.24,7.24,0,0,1,2.74-3,9.09,9.09,0,0,1,8.78,0,7.28,7.28,0,0,1,2.73,3,8.83,8.83,0,0,1,0,7.85,7.22,7.22,0,0,1-2.73,3,9,9,0,0,1-8.78,0Zm6.94-2.77a4.44,4.44,0,0,0,1.6-1.79,5.41,5.41,0,0,0,.53-2.34,5.47,5.47,0,0,0-.53-2.36,4.38,4.38,0,0,0-1.6-1.79,4.69,4.69,0,0,0-2.55-.67,4.6,4.6,0,0,0-2.54.67,4.32,4.32,0,0,0-1.59,1.78,5.41,5.41,0,0,0,0,4.71,4.34,4.34,0,0,0,1.59,1.79,4.61,4.61,0,0,0,2.54.68A4.69,4.69,0,0,0,558.12,372.81Z"/><path class="b" d="M461.41,391.6a5.23,5.23,0,0,0-1.49-.18,4.49,4.49,0,0,0-2.5.67,4.28,4.28,0,0,0-1.58,1.77,5.21,5.21,0,0,0,0,4.62,4.25,4.25,0,0,0,1.58,1.76,4.49,4.49,0,0,0,2.5.68,6.73,6.73,0,0,0,3-.7l.41,3.23a10.2,10.2,0,0,1-1.65.47,9.49,9.49,0,0,1-1.77.18,8,8,0,0,1-4.31-1.11,7.17,7.17,0,0,1-2.7-2.93,8.75,8.75,0,0,1,0-7.73,7.3,7.3,0,0,1,2.7-2.93,7.93,7.93,0,0,1,4.31-1.12,7.41,7.41,0,0,1,3.07.61l-.37,3.2A8.77,8.77,0,0,0,461.41,391.6Z"/><path class="b" d="M469.15,403.14a7.22,7.22,0,0,1-2.73-3,8.83,8.83,0,0,1,0-7.85,7.22,7.22,0,0,1,2.73-3,9,9,0,0,1,8.79,0,7.22,7.22,0,0,1,2.73,3,8.83,8.83,0,0,1,0,7.85,7.22,7.22,0,0,1-2.73,3,9,9,0,0,1-8.79,0Zm6.94-2.78a4.31,4.31,0,0,0,1.61-1.78,5.47,5.47,0,0,0,0-4.7,4.27,4.27,0,0,0-1.61-1.79,4.66,4.66,0,0,0-2.55-.67,4.59,4.59,0,0,0-2.53.67,4.35,4.35,0,0,0-1.6,1.78,5.5,5.5,0,0,0,0,4.71,4.35,4.35,0,0,0,1.6,1.78,4.52,4.52,0,0,0,2.53.69A4.59,4.59,0,0,0,476.09,400.36Z"/><path class="b" d="M488.2,404.06h-3.12V388.15h.83l7.87,9.15v-8.8h3.13v15.89h-.82l-7.89-8.81Z"/><path class="b" d="M516.5,389.58a7.1,7.1,0,0,1,2.64,2.88,8.49,8.49,0,0,1,0,7.61A7.19,7.19,0,0,1,516.5,403a7.87,7.87,0,0,1-4.24,1.1h-4.64V388.48h4.64A7.78,7.78,0,0,1,516.5,389.58Zm-5.77,2v9.35h1.53a4.49,4.49,0,0,0,2.47-.66,4.28,4.28,0,0,0,1.56-1.74,5.24,5.24,0,0,0,0-4.55,4.26,4.26,0,0,0-1.56-1.73,4.41,4.41,0,0,0-2.47-.67Z"/><path class="b" d="M527.8,387.91h.33l6.56,16.15h-3.51l-.63-1.68h-5.17l-.6,1.68h-3.54Zm1.59,11.55-1.41-4-1.46,4Z"/><path class="b" d="M538.72,404.06V391.59h-3.88V388.5h10.87v3.09h-3.88v12.47Z"/><path class="b" d="M551.3,403.14a7.18,7.18,0,0,1-2.74-3,8.92,8.92,0,0,1,0-7.85,7.18,7.18,0,0,1,2.74-3,9,9,0,0,1,8.78,0,7.24,7.24,0,0,1,2.74,3,8.92,8.92,0,0,1,0,7.85,7.24,7.24,0,0,1-2.74,3,9,9,0,0,1-8.78,0Zm6.94-2.78a4.28,4.28,0,0,0,1.6-1.78,5.47,5.47,0,0,0,0-4.7,4.25,4.25,0,0,0-1.6-1.79,5.17,5.17,0,0,0-5.09,0,4.4,4.4,0,0,0-1.59,1.78,5.5,5.5,0,0,0,0,4.71,4.4,4.4,0,0,0,1.59,1.78,5,5,0,0,0,5.09,0Z"/><path class="b" d="M566.77,399.79a6.19,6.19,0,0,0,2.06,1,8,8,0,0,0,1.95.27l.44,0a1.82,1.82,0,0,0,1.14-.46,1.23,1.23,0,0,0,.47-1,1.4,1.4,0,0,0-.41-1.06,3.71,3.71,0,0,0-1.2-.66,10.36,10.36,0,0,1-3.39-1.88,3.64,3.64,0,0,1-1.23-2.87,5.06,5.06,0,0,1,.55-2.36,4.48,4.48,0,0,1,1.56-1.7,4.63,4.63,0,0,1,2.29-.69l.52,0a10.37,10.37,0,0,1,3.36.68l-.39,3a7.68,7.68,0,0,0-3.18-.66,1.64,1.64,0,0,0-1.15.49,1.59,1.59,0,0,0-.4,1.1,1.28,1.28,0,0,0,.46,1.06,3.91,3.91,0,0,0,1.28.67,9.64,9.64,0,0,1,3.29,1.9,3.76,3.76,0,0,1,1.22,2.87,4.75,4.75,0,0,1-.63,2.45,4.39,4.39,0,0,1-1.8,1.69,5.7,5.7,0,0,1-2.71.61,10,10,0,0,1-2.09-.26,10.21,10.21,0,0,1-2.4-.89Z"/><path class="b" d="M461.41,419.16a5.23,5.23,0,0,0-1.49-.18,4.49,4.49,0,0,0-2.5.67,4.28,4.28,0,0,0-1.58,1.77,5.09,5.09,0,0,0-.54,2.31,5.16,5.16,0,0,0,.54,2.31,4.31,4.31,0,0,0,1.58,1.76,4.49,4.49,0,0,0,2.5.68,6.73,6.73,0,0,0,3-.7l.41,3.23a10.2,10.2,0,0,1-1.65.47,9.49,9.49,0,0,1-1.77.18,8,8,0,0,1-4.31-1.11,7.17,7.17,0,0,1-2.7-2.93,8.66,8.66,0,0,1-.9-3.87,8.55,8.55,0,0,1,.9-3.86,7.3,7.3,0,0,1,2.7-2.93,7.93,7.93,0,0,1,4.31-1.12,7.41,7.41,0,0,1,3.07.61l-.37,3.2A8.77,8.77,0,0,0,461.41,419.16Z"/><path class="b" d="M469.15,430.7a7.28,7.28,0,0,1-2.73-3,8.83,8.83,0,0,1,0-7.85,7.22,7.22,0,0,1,2.73-3,9,9,0,0,1,8.79,0,7.22,7.22,0,0,1,2.73,3,8.83,8.83,0,0,1,0,7.85,7.28,7.28,0,0,1-2.73,3,9.11,9.11,0,0,1-8.79,0Zm6.94-2.78a4.37,4.37,0,0,0,1.61-1.78,5.47,5.47,0,0,0,0-4.7,4.27,4.27,0,0,0-1.61-1.79,4.66,4.66,0,0,0-2.55-.67,4.59,4.59,0,0,0-2.53.67,4.29,4.29,0,0,0-1.6,1.78,5.5,5.5,0,0,0,0,4.71,4.41,4.41,0,0,0,1.6,1.78,4.52,4.52,0,0,0,2.53.69A4.59,4.59,0,0,0,476.09,427.92Z"/><path class="b" d="M488.2,431.62h-3.12V415.71h.83l7.87,9.15v-8.8h3.13v15.88h-.82l-7.89-8.8Z"/><path class="b" d="M504.24,419.15v3.12h4v3.11h-4v6.24h-3.11V416h7.78v3.12Z"/><path class="b" d="M512.11,431.62V416h3.12v15.59Z"/><path class="b" d="M524.46,415.47h.33l6.56,16.15h-3.51l-.63-1.68H522l-.61,1.68H517.9ZM526.05,427,524.63,423,523.18,427Z"/><path class="b" d="M534,416h6.17a4.56,4.56,0,0,1,2.33.59,4,4,0,0,1,1.55,1.62,5,5,0,0,1,.54,2.37,4.8,4.8,0,0,1-.36,1.85,3,3,0,0,1-1.08,1.37,3.55,3.55,0,0,1,1.19,1.36,3.85,3.85,0,0,1,.43,1.76,4.62,4.62,0,0,1-.63,2.37,4.69,4.69,0,0,1-1.67,1.7,4.54,4.54,0,0,1-2.3.62H534Zm3.14,6.26H540a1.32,1.32,0,0,0,1-.46,1.67,1.67,0,0,0,.39-1.11,1.63,1.63,0,0,0-.39-1.12,1.31,1.31,0,0,0-1-.45h-2.77Zm0,6.23H540a1.58,1.58,0,0,0,1.12-2.67,1.52,1.52,0,0,0-1.12-.45h-2.77Z"/><path class="b" d="M551.52,416V428.5h5v3.12h-8.06V416Z"/><path class="b" d="M559.42,431.62V416h7.8v3.12h-4.68v3.12h4.09v3.11h-4.09v3.12h4.94v3.12Z"/><path class="b" d="M570.82,427.35a6.29,6.29,0,0,0,2.06,1,7.86,7.86,0,0,0,2,.27l.44,0a1.82,1.82,0,0,0,1.14-.46,1.28,1.28,0,0,0,.47-1,1.37,1.37,0,0,0-.42-1.06,3.55,3.55,0,0,0-1.19-.66,10.54,10.54,0,0,1-3.39-1.88,3.64,3.64,0,0,1-1.23-2.87,5,5,0,0,1,.55-2.36,4.33,4.33,0,0,1,1.56-1.7,4.63,4.63,0,0,1,2.29-.69l.52,0a10.37,10.37,0,0,1,3.36.68l-.4,3a7.62,7.62,0,0,0-3.18-.66,1.63,1.63,0,0,0-1.14.49,1.59,1.59,0,0,0-.4,1.1,1.31,1.31,0,0,0,.45,1.06,4.29,4.29,0,0,0,1.29.67,9.48,9.48,0,0,1,3.29,1.9,3.79,3.79,0,0,1,1.22,2.87,4.78,4.78,0,0,1-.63,2.45,4.39,4.39,0,0,1-1.8,1.69,5.73,5.73,0,0,1-2.71.61,10,10,0,0,1-2.09-.26,9.68,9.68,0,0,1-2.4-.9Z"/></svg>