<svg xmlns="http://www.w3.org/2000/svg" viewBox="0 0 792 612"><defs><style>.a{fill:#009edb;}.b{fill:#fff;}.c{fill:#c7e2f6;}.d{fill:#90cef1;}.e{fill:#acd6f2;}</style></defs><rect class="a" width="792" height="612"/><path class="b" d="M324.88,229.44l-8.13,29.42a77.19,77.19,0,1,1-79.2,80.64l-29.83-8.23c-.07,1.57-.11,3.15-.11,4.75A107.06,107.06,0,1,0,324.88,229.44Z"/><polygon class="c" points="340.93 283.45 312.21 275.51 303.85 306.15 293.72 343.31 322.44 351.26 332.53 314.24 340.93 283.45"/><polygon class="d" points="340.93 283.45 312.21 275.51 303.85 306.29 332.53 314.24 340.93 283.45"/><polygon class="c" points="270.58 264.02 251.77 331.74 280.49 339.69 299.29 272 310.51 231.61 281.79 223.67 270.58 264.02"/><polygon class="d" points="283.5 217.43 270.58 264.02 299.29 272 312.22 225.37 283.5 217.43"/><polygon class="c" points="254.84 157.18 232.32 238.99 219.96 283.89 181.38 232.49 171.4 268.83 209.91 320.39 209.91 320.39 238.63 328.34 261.04 246.92 283.56 165.12 254.84 157.18"/><polygon class="d" points="254.84 157.18 232.32 238.99 261.04 246.92 283.56 165.12 254.84 157.18"/><path class="b" d="M452.07,187.32h4.72a2.37,2.37,0,0,0,1.77-.72,2.43,2.43,0,0,0,.71-1.76V167.62h5v17.22q0,3.75-1.84,5.58a7.5,7.5,0,0,1-5.5,1.83h-4.85Z"/><path class="b" d="M474,190.8a11.48,11.48,0,0,1-4.32-4.7,14,14,0,0,1,0-12.4A11.57,11.57,0,0,1,474,169a14.37,14.37,0,0,1,13.89,0,11.57,11.57,0,0,1,4.32,4.71,14,14,0,0,1,0,12.4,11.48,11.48,0,0,1-4.32,4.7,14.37,14.37,0,0,1-13.89,0Zm11-4.39a7,7,0,0,0,2.53-2.83,8.39,8.39,0,0,0,.84-3.7,8.51,8.51,0,0,0-.84-3.72,6.9,6.9,0,0,0-2.53-2.83,7.42,7.42,0,0,0-4-1.06,7.29,7.29,0,0,0-4,1.06,6.86,6.86,0,0,0-2.51,2.81,8.37,8.37,0,0,0-.85,3.74,8.27,8.27,0,0,0,.85,3.7,7,7,0,0,0,2.51,2.83,7.22,7.22,0,0,0,4,1.08A7.34,7.34,0,0,0,485,186.41Z"/><path class="b" d="M514.06,188.46a8,8,0,0,1-3.29,3,10,10,0,0,1-8.7,0,7.94,7.94,0,0,1-3.31-3,8.79,8.79,0,0,1-1.26-4.79v-16h4.93v16a3.56,3.56,0,0,0,1.19,2.85,4.4,4.4,0,0,0,5.61,0,3.53,3.53,0,0,0,1.19-2.85v-16h4.89v16A8.88,8.88,0,0,1,514.06,188.46Z"/><path class="b" d="M527.72,182.84h-2.37v9.41h-4.93V167.62h9.72a7.17,7.17,0,0,1,4,1.06,6.83,6.83,0,0,1,2.48,2.78,8.21,8.21,0,0,1,.82,3.63,7.87,7.87,0,0,1-1.27,4.38,6.09,6.09,0,0,1-3.58,2.61l5.72,10.17h-5.59Zm2-4.79a2.26,2.26,0,0,0,1.86-.81,3,3,0,0,0,.65-1.94,3,3,0,0,0-.65-2,2.26,2.26,0,0,0-1.86-.81h-4.34v5.51Z"/><path class="b" d="M546.37,192.25h-4.92V167.1h1.31l12.43,14.47V167.65h5v25.11h-1.31l-12.47-13.91Z"/><path class="b" d="M565.36,192.25V167.62h12.33v4.92h-7.4v4.93h6.47v4.93h-6.47v4.92h7.82v4.93Zm8.17-26.32h-4.45l1.69-4h6.06Z"/><path class="b" d="M582.53,192.25V167.62h12.34v4.92h-7.41v4.93h6.48v4.93h-6.48v4.92h7.82v4.93Z"/><path class="b" d="M474.73,206h1.55v25h-5l0-13.74-6.3,6.61-6.31-6.61V231h-5V206h1.58L465,216.79Z"/><path class="b" d="M486.2,229.54a11.53,11.53,0,0,1-4.33-4.71,14.07,14.07,0,0,1,0-12.4,11.57,11.57,0,0,1,4.33-4.7,14.35,14.35,0,0,1,13.88,0,11.47,11.47,0,0,1,4.32,4.7,14,14,0,0,1,0,12.4,11.44,11.44,0,0,1-4.32,4.71,14.35,14.35,0,0,1-13.88,0Zm11-4.39a7,7,0,0,0,2.53-2.83,8.4,8.4,0,0,0,.85-3.7,8.52,8.52,0,0,0-.85-3.72,6.77,6.77,0,0,0-2.53-2.83,7.41,7.41,0,0,0-4-1.07,7.3,7.3,0,0,0-4,1.07,6.75,6.75,0,0,0-2.52,2.81,8.5,8.5,0,0,0-.84,3.74,8.39,8.39,0,0,0,.84,3.7,6.93,6.93,0,0,0,2.52,2.83,7.22,7.22,0,0,0,4,1.08A7.33,7.33,0,0,0,497.17,225.15Z"/><path class="b" d="M514.84,231h-4.93V205.84h1.31l12.44,14.46V206.39h5V231.5h-1.31l-12.47-13.92Z"/><path class="b" d="M547.86,208.09a11.22,11.22,0,0,1,4.19,4.57,13.51,13.51,0,0,1,0,12,11.26,11.26,0,0,1-4.19,4.56,12.35,12.35,0,0,1-6.7,1.74h-7.33V206.35h7.33A12.35,12.35,0,0,1,547.86,208.09Zm-9.11,3.19v14.78h2.41a7.07,7.07,0,0,0,3.91-1.05,6.85,6.85,0,0,0,2.47-2.74,8.14,8.14,0,0,0,.82-3.62,8,8,0,0,0-.82-3.58,6.78,6.78,0,0,0-2.47-2.74,7.07,7.07,0,0,0-3.91-1.05Z"/><path class="b" d="M557.5,231V206.35h4.93V231Z"/><path class="b" d="M575.56,205.46h.52L586.44,231H580.9l-1-2.65h-8.16l-1,2.65h-5.58Zm2.51,18.26-2.24-6.41-2.3,6.41Z"/><path class="b" d="M594.16,206.35v19.71H602V231H589.24V206.35Z"/><path class="b" d="M605.18,231V206.35h12.33v4.93H610.1v4.93h6.48v4.92H610.1v4.93h7.82V231Z"/><path class="b" d="M645.33,208.09a11.27,11.27,0,0,1,4.18,4.57,13.51,13.51,0,0,1,0,12,11.31,11.31,0,0,1-4.18,4.56,12.38,12.38,0,0,1-6.7,1.74h-7.34V206.35h7.34A12.38,12.38,0,0,1,645.33,208.09Zm-9.12,3.19v14.78h2.42a7.1,7.1,0,0,0,3.91-1.05,6.75,6.75,0,0,0,2.46-2.74,8.15,8.15,0,0,0,.83-3.62,8,8,0,0,0-.83-3.58,6.69,6.69,0,0,0-2.46-2.74,7.1,7.1,0,0,0-3.91-1.05Z"/><path class="b" d="M655,231V206.35h12.33v4.93h-7.41v4.93h6.48v4.92h-6.48v4.93h7.82V231Z"/><path class="b" d="M458.65,245.09v19.7h7.82v4.93H453.72V245.09Z"/><path class="b" d="M479,244.19h.52l10.37,25.53h-5.55l-1-2.65h-8.17l-1,2.65h-5.58Zm2.52,18.26L479.26,256,477,262.45Z"/><path class="b" d="M501.55,263a9.74,9.74,0,0,0,3.25,1.57,12.79,12.79,0,0,0,3.09.43l.69,0a2.85,2.85,0,0,0,1.8-.72,2,2,0,0,0,.74-1.55,2.14,2.14,0,0,0-.65-1.67,5.73,5.73,0,0,0-1.89-1.05,16.6,16.6,0,0,1-5.36-3,5.75,5.75,0,0,1-2-4.54,7.85,7.85,0,0,1,.88-3.72,6.94,6.94,0,0,1,2.46-2.69,7.34,7.34,0,0,1,3.62-1.1l.83,0a16.36,16.36,0,0,1,5.3,1.07l-.62,4.76a12,12,0,0,0-5-1,2.56,2.56,0,0,0-1.81.78,2.52,2.52,0,0,0-.63,1.74,2.06,2.06,0,0,0,.72,1.67,6.48,6.48,0,0,0,2,1,15.17,15.17,0,0,1,5.2,3,6,6,0,0,1,1.93,4.53,7.5,7.5,0,0,1-1,3.88,7,7,0,0,1-2.84,2.67,9.17,9.17,0,0,1-4.29,1,15.76,15.76,0,0,1-3.3-.41,16,16,0,0,1-3.79-1.41Z"/><path class="b" d="M523.49,269.72V250h-6.13v-4.9h17.19V250h-6.14v19.7Z"/><path class="b" d="M543.73,244.19h.52l10.36,25.53h-5.54l-1-2.65h-8.16l-1,2.65h-5.58Zm2.51,18.26L544,256l-2.3,6.41Z"/><path class="b" d="M559.48,269.72V250h-6.14v-4.9h17.19V250H564.4v19.7Z"/><path class="b" d="M573.48,269.72V245.09h4.93v24.63Z"/><path class="b" d="M583.21,263a9.83,9.83,0,0,0,3.25,1.57,12.86,12.86,0,0,0,3.09.43l.69,0a2.9,2.9,0,0,0,1.81-.72,2,2,0,0,0,.74-1.55,2.15,2.15,0,0,0-.66-1.67,5.62,5.62,0,0,0-1.89-1.05,16.6,16.6,0,0,1-5.36-3,5.75,5.75,0,0,1-2-4.54,8,8,0,0,1,.88-3.72,6.89,6.89,0,0,1,2.47-2.69,7.3,7.3,0,0,1,3.61-1.1l.83,0A16.31,16.31,0,0,1,596,246l-.62,4.76a12,12,0,0,0-5-1,2.52,2.52,0,0,0-1.8.78,2.48,2.48,0,0,0-.64,1.74,2.06,2.06,0,0,0,.72,1.67,6.48,6.48,0,0,0,2,1,15.22,15.22,0,0,1,5.21,3,6,6,0,0,1,1.93,4.53,7.6,7.6,0,0,1-1,3.88A7.07,7.07,0,0,1,594,269a9.1,9.1,0,0,1-4.28,1,15.77,15.77,0,0,1-3.31-.41,16,16,0,0,1-3.79-1.41Z"/><path class="b" d="M605.15,269.72V250H599v-4.9h17.19V250h-6.13v19.7Z"/><path class="b" d="M619.15,269.72V245.09h4.93v24.63Z"/><path class="b" d="M640.61,269.79a12.5,12.5,0,0,1-6.77-1.76,11.17,11.17,0,0,1-4.22-4.6,13.64,13.64,0,0,1,0-12.12,11.17,11.17,0,0,1,4.22-4.6,13.88,13.88,0,0,1,13.53,0,11.28,11.28,0,0,1,4.24,4.62,13.31,13.31,0,0,1,1.43,6.09,13.14,13.14,0,0,1-.76,4.43,12.38,12.38,0,0,1-2.17,3.87l3.24,4.14h-5.44l-1.21-1.41A13.2,13.2,0,0,1,640.61,269.79Zm4.47-10.51,1.73,2.21a8.1,8.1,0,0,0,1-4.07,8.25,8.25,0,0,0-.83-3.63,6.77,6.77,0,0,0-2.46-2.77,7,7,0,0,0-3.94-1.07A7.07,7.07,0,0,0,636.7,251a6.74,6.74,0,0,0-2.47,2.75,8.47,8.47,0,0,0,0,7.27,6.7,6.7,0,0,0,2.47,2.76,7.07,7.07,0,0,0,3.91,1.05,7.7,7.7,0,0,0,2.79-.48l-4.14-5.07Z"/><path class="b" d="M673.65,265.93a8.1,8.1,0,0,1-3.29,3,9.8,9.8,0,0,1-4.34,1,9.92,9.92,0,0,1-4.36-1,8,8,0,0,1-3.31-3,8.79,8.79,0,0,1-1.25-4.79v-16H662v16a3.54,3.54,0,0,0,1.19,2.84,4.38,4.38,0,0,0,5.62,0,3.53,3.53,0,0,0,1.18-2.84v-16h4.9v16A8.79,8.79,0,0,1,673.65,265.93Z"/><path class="b" d="M680,269.72V245.09h12.34V250h-7.41v4.92h6.48v4.93h-6.48v4.92h7.82v4.93Z"/><path class="e" d="M458.32,293.14a2.61,2.61,0,0,0,.2-.84A1.59,1.59,0,0,0,458,291a2.15,2.15,0,0,0-1.46-.49,5.77,5.77,0,0,0-2.15.47,6.47,6.47,0,0,0-1.66.92l-.86-3.37a8.73,8.73,0,0,1,2.47-1.19A7.91,7.91,0,0,1,457,287a6.5,6.5,0,0,1,2.9.73,4.52,4.52,0,0,1,2.46,4.11,6.79,6.79,0,0,1-1.45,4l-3.45,5.34h5.19v3.54H451.11l6.53-10.37A6.05,6.05,0,0,0,458.32,293.14Z"/><path class="e" d="M466.45,302.45a15.11,15.11,0,0,1,0-13,5.4,5.4,0,0,1,9.08,0,15.15,15.15,0,0,1,0,13,5.38,5.38,0,0,1-9.08,0Zm6.55-2.36a14.13,14.13,0,0,0,0-8.28,2.13,2.13,0,0,0-2-1.57,2.08,2.08,0,0,0-2,1.57,14.13,14.13,0,0,0,0,8.28,2.07,2.07,0,0,0,2,1.56A2.12,2.12,0,0,0,473,300.09Z"/><path class="e" d="M482.47,301.51a2,2,0,0,1,.52,1.38,2,2,0,0,1-.53,1.4,1.84,1.84,0,0,1-1.45.58,1.86,1.86,0,0,1-1.46-.58,2,2,0,0,1-.52-1.4,2,2,0,0,1,.52-1.38,1.89,1.89,0,0,1,1.46-.57A1.86,1.86,0,0,1,482.47,301.51Z"/><path class="e" d="M485,287.23h6.34V304.7h-3.48v-14H485Z"/><path class="e" d="M496.08,302.45a15.11,15.11,0,0,1,0-13,5.39,5.39,0,0,1,9.07,0,15.15,15.15,0,0,1,0,13,5.37,5.37,0,0,1-9.07,0Zm6.54-2.36a13.92,13.92,0,0,0,0-8.28,2.12,2.12,0,0,0-2-1.57,2.09,2.09,0,0,0-2,1.57,14.35,14.35,0,0,0,0,8.28,2.08,2.08,0,0,0,2,1.56A2.11,2.11,0,0,0,502.62,300.09Z"/><path class="e" d="M512.1,301.51a2,2,0,0,1,.52,1.38,2,2,0,0,1-.53,1.4,1.86,1.86,0,0,1-1.46.58,1.84,1.84,0,0,1-1.45-.58,2,2,0,0,1-.53-1.4,2,2,0,0,1,.53-1.38,2.15,2.15,0,0,1,2.92,0Z"/><path class="e" d="M521.26,293.14a2.42,2.42,0,0,0,.21-.84,1.59,1.59,0,0,0-.57-1.27,2.17,2.17,0,0,0-1.46-.49,5.73,5.73,0,0,0-2.15.47,6.75,6.75,0,0,0-1.67.92l-.85-3.37a8.6,8.6,0,0,1,2.47-1.19A7.89,7.89,0,0,1,520,287a6.43,6.43,0,0,1,2.9.73,4.64,4.64,0,0,1,1.84,1.72,4.7,4.7,0,0,1,.62,2.39,6.78,6.78,0,0,1-1.44,4l-3.45,5.34h5.19v3.54H514.06l6.53-10.37A6,6,0,0,0,521.26,293.14Z"/><path class="e" d="M529.4,302.45a15.11,15.11,0,0,1,0-13,5.4,5.4,0,0,1,9.08,0,15.24,15.24,0,0,1,0,13,5.38,5.38,0,0,1-9.08,0Zm6.54-2.36a13.92,13.92,0,0,0,0-8.28,2.12,2.12,0,0,0-2-1.57,2.09,2.09,0,0,0-2,1.57,14.35,14.35,0,0,0,0,8.28,2.08,2.08,0,0,0,2,1.56A2.11,2.11,0,0,0,535.94,300.09Z"/><path class="e" d="M548.62,293.14a2.61,2.61,0,0,0,.2-.84,1.59,1.59,0,0,0-.57-1.27,2.15,2.15,0,0,0-1.46-.49,5.77,5.77,0,0,0-2.15.47,6.47,6.47,0,0,0-1.66.92l-.86-3.37a8.73,8.73,0,0,1,2.47-1.19,7.91,7.91,0,0,1,2.72-.4,6.5,6.5,0,0,1,2.9.73,4.68,4.68,0,0,1,1.83,1.72,4.61,4.61,0,0,1,.62,2.39,6.78,6.78,0,0,1-1.44,4l-3.45,5.34H553v3.54H541.41l6.53-10.37A6.05,6.05,0,0,0,548.62,293.14Z"/><path class="e" d="M556.75,302.45a15.11,15.11,0,0,1,0-13,5.4,5.4,0,0,1,9.08,0,15.24,15.24,0,0,1,0,13,5.38,5.38,0,0,1-9.08,0Zm6.54-2.36a13.92,13.92,0,0,0,0-8.28,2.06,2.06,0,0,0-4,0,14.35,14.35,0,0,0,0,8.28,2.06,2.06,0,0,0,4,0Z"/><path class="b" d="M461.41,326.49a4.86,4.86,0,0,0-1.49-.19,4.55,4.55,0,0,0-2.51.68,4.46,4.46,0,0,0-1.58,1.76,5.28,5.28,0,0,0-.53,2.31,5.22,5.22,0,0,0,.53,2.31,4.42,4.42,0,0,0,1.58,1.77,4.55,4.55,0,0,0,2.51.67,6.93,6.93,0,0,0,1.69-.2,6.41,6.41,0,0,0,1.32-.5l.41,3.23a9.28,9.28,0,0,1-1.65.47,9.49,9.49,0,0,1-1.77.18,8,8,0,0,1-4.31-1.11,7.11,7.11,0,0,1-2.7-2.93,8.73,8.73,0,0,1,0-7.72,7.26,7.26,0,0,1,2.7-2.94,8,8,0,0,1,4.31-1.12,7.58,7.58,0,0,1,3.07.61l-.37,3.21A6.82,6.82,0,0,0,461.41,326.49Z"/><path class="b" d="M469.15,338a7.31,7.31,0,0,1-2.73-3,8.81,8.81,0,0,1,0-7.84,7.31,7.31,0,0,1,2.73-3,9.11,9.11,0,0,1,8.79,0,7.31,7.31,0,0,1,2.73,3,8.81,8.81,0,0,1,0,7.84,7.31,7.31,0,0,1-2.73,3,9.11,9.11,0,0,1-8.79,0Zm6.94-2.78a4.39,4.39,0,0,0,1.61-1.79,5.35,5.35,0,0,0,.53-2.34,5.47,5.47,0,0,0-.53-2.36,4.25,4.25,0,0,0-1.61-1.78,4.67,4.67,0,0,0-2.55-.68A4.6,4.6,0,0,0,471,327a4.33,4.33,0,0,0-1.6,1.77,5.45,5.45,0,0,0-.53,2.37,5.35,5.35,0,0,0,.53,2.34,4.44,4.44,0,0,0,1.6,1.79,4.6,4.6,0,0,0,2.53.68A4.67,4.67,0,0,0,476.09,335.25Z"/><path class="b" d="M488.2,338.94h-3.12V323h.83l7.87,9.16v-8.81h3.13v15.89h-.82l-7.89-8.81Z"/><path class="b" d="M504.24,338.94h-3.11V323H502l7.87,9.16v-8.81H513v15.89h-.83l-7.89-8.81Z"/><path class="b" d="M517.17,338.94V323.36H525v3.11h-4.69v3.12h4.1v3.12h-4.1v3.11h5v3.12Z"/><path class="b" d="M537.3,326.49a4.91,4.91,0,0,0-1.49-.19,4.53,4.53,0,0,0-2.51.68,4.38,4.38,0,0,0-1.58,1.76,5.28,5.28,0,0,0-.53,2.31,5.22,5.22,0,0,0,.53,2.31,4.35,4.35,0,0,0,1.58,1.77,4.52,4.52,0,0,0,2.51.67,6.39,6.39,0,0,0,3-.7l.41,3.23a9.16,9.16,0,0,1-1.66.47,9.3,9.3,0,0,1-1.76.18,8,8,0,0,1-4.32-1.11,7.09,7.09,0,0,1-2.69-2.93,8.73,8.73,0,0,1,0-7.72,7.24,7.24,0,0,1,2.69-2.94,8,8,0,0,1,4.32-1.12,7.58,7.58,0,0,1,3.07.61l-.37,3.21A7.14,7.14,0,0,0,537.3,326.49Z"/><path class="b" d="M545.14,338.94V326.47h-3.88v-3.09h10.88v3.09h-3.88v12.47Z"/><path class="b" d="M554.93,338.94V323.36h7.8v3.11H558v3.12h4.1v3.12H558v3.11h5v3.12Z"/><path class="b" d="M571.33,333h-1.5v5.95h-3.12V323.36h6.15a4.49,4.49,0,0,1,2.5.67,4.29,4.29,0,0,1,1.57,1.76,5.18,5.18,0,0,1,.53,2.3,5,5,0,0,1-.81,2.77,3.86,3.86,0,0,1-2.27,1.65l3.62,6.43h-3.53Zm1.24-3a1.43,1.43,0,0,0,1.18-.51,2,2,0,0,0,0-2.46,1.43,1.43,0,0,0-1.18-.52h-2.74V330Z"/><path class="b" d="M590.38,323.36v12.46h5v3.12h-8.07V323.36Z"/><path class="b" d="M598.28,338.94V323.36h7.8v3.11h-4.69v3.12h4.1v3.12h-4.1v3.11h5v3.12Z"/><path class="b" d="M629.75,323.12h1v15.82h-3.16l0-8.69-4,4.18-4-4.18v8.69h-3.16V323.12h1L623.6,330Z"/><path class="b" d="M637.92,338a7.31,7.31,0,0,1-2.73-3,8.81,8.81,0,0,1,0-7.84,7.31,7.31,0,0,1,2.73-3,9.11,9.11,0,0,1,8.79,0,7.31,7.31,0,0,1,2.73,3,8.81,8.81,0,0,1,0,7.84,7.31,7.31,0,0,1-2.73,3,9.11,9.11,0,0,1-8.79,0Zm7-2.78a4.44,4.44,0,0,0,1.6-1.79,5.35,5.35,0,0,0,.53-2.34,5.47,5.47,0,0,0-.53-2.36,4.29,4.29,0,0,0-1.6-1.78,4.71,4.71,0,0,0-2.55-.68,4.61,4.61,0,0,0-2.54.68,4.23,4.23,0,0,0-1.59,1.77,5.32,5.32,0,0,0-.54,2.37,5.22,5.22,0,0,0,.54,2.34,4.34,4.34,0,0,0,1.59,1.79,4.61,4.61,0,0,0,2.54.68A4.71,4.71,0,0,0,644.87,335.25Z"/><path class="b" d="M657,338.94h-3.12V323h.83l7.87,9.16v-8.81h3.14v15.89h-.83L657,330.46Z"/><path class="b" d="M678.78,324.46a7.15,7.15,0,0,1,2.65,2.89,8.56,8.56,0,0,1,0,7.6,7.15,7.15,0,0,1-2.65,2.89,7.85,7.85,0,0,1-4.24,1.1H669.9V323.36h4.64A7.85,7.85,0,0,1,678.78,324.46Zm-5.77,2v9.35h1.53a4.49,4.49,0,0,0,2.47-.66,4.26,4.26,0,0,0,1.56-1.73,5.13,5.13,0,0,0,.52-2.29,5.07,5.07,0,0,0-.52-2.27,4.26,4.26,0,0,0-1.56-1.73,4.49,4.49,0,0,0-2.47-.67Z"/><path class="b" d="M685.81,338.94V323.36h7.81v3.11h-4.69v3.12H693v3.12h-4.1v3.11h5v3.12Z"/><path class="b" d="M457.87,350.35h.33l6.56,16.15h-3.51l-.63-1.68h-5.17l-.61,1.68h-3.53Zm1.59,11.55-1.41-4-1.46,4Z"/><path class="b" d="M464.41,350.92H468l2.07,5.18,1.13,3.23,1.11-3.12,2.1-5.29H478l-6.45,15.91h-.7Z"/><path class="b" d="M480.58,366.5V350.92h7.8V354h-4.69v3.12h4.1v3.12h-4.1v3.11h4.95v3.12Z"/><path class="b" d="M500.71,354a5.3,5.3,0,0,0-1.5-.18,4.49,4.49,0,0,0-2.5.67,4.34,4.34,0,0,0-1.58,1.77,5.21,5.21,0,0,0,0,4.62,4.28,4.28,0,0,0,1.58,1.77,4.49,4.49,0,0,0,2.5.67,6.41,6.41,0,0,0,1.69-.21,5.9,5.9,0,0,0,1.32-.49l.41,3.23a9.92,9.92,0,0,1-1.65.47,9.49,9.49,0,0,1-1.77.18,8,8,0,0,1-4.31-1.11,7.15,7.15,0,0,1-2.69-2.93,8.66,8.66,0,0,1,0-7.73,7.27,7.27,0,0,1,2.69-2.93,8,8,0,0,1,4.31-1.12,7.46,7.46,0,0,1,3.08.61l-.38,3.2A8.65,8.65,0,0,0,500.71,354Z"/><path class="b" d="M521.19,352a7.08,7.08,0,0,1,2.65,2.89,8.56,8.56,0,0,1,0,7.6,7.15,7.15,0,0,1-2.65,2.89,7.85,7.85,0,0,1-4.24,1.1h-4.64V350.92H517A7.76,7.76,0,0,1,521.19,352Zm-5.76,2v9.35H517a4.52,4.52,0,0,0,2.48-.66A4.16,4.16,0,0,0,521,361a5.17,5.17,0,0,0,.53-2.29,5.08,5.08,0,0,0-.53-2.27,4.16,4.16,0,0,0-1.55-1.73A4.44,4.44,0,0,0,517,354Z"/><path class="b" d="M528.23,366.5V350.92H536V354h-4.69v3.12h4.1v3.12h-4.1v3.11h4.95v3.12Z"/><path class="b" d="M539.63,362.23a6,6,0,0,0,2.06,1,7.86,7.86,0,0,0,1.95.27l.43,0a1.88,1.88,0,0,0,1.15-.46,1.26,1.26,0,0,0,.47-1,1.37,1.37,0,0,0-.42-1.06,3.51,3.51,0,0,0-1.2-.66,10.54,10.54,0,0,1-3.39-1.87,3.67,3.67,0,0,1-1.23-2.88,5,5,0,0,1,.56-2.35,4.27,4.27,0,0,1,1.56-1.7,4.5,4.5,0,0,1,2.28-.7l.53,0a10.27,10.27,0,0,1,3.35.67l-.39,3a7.5,7.5,0,0,0-3.18-.65,1.53,1.53,0,0,0-1.14.49,1.56,1.56,0,0,0-.41,1.1,1.27,1.27,0,0,0,.46,1,3.87,3.87,0,0,0,1.29.67,9.58,9.58,0,0,1,3.29,1.91,3.76,3.76,0,0,1,1.22,2.86,4.75,4.75,0,0,1-.63,2.45,4.45,4.45,0,0,1-1.8,1.69,5.74,5.74,0,0,1-2.72.61,10.07,10.07,0,0,1-2.09-.26,9.93,9.93,0,0,1-2.4-.89Z"/><path class="b" d="M567.56,352a7.06,7.06,0,0,1,2.64,2.89,8.47,8.47,0,0,1,0,7.6,7.12,7.12,0,0,1-2.64,2.89,7.87,7.87,0,0,1-4.24,1.1h-4.65V350.92h4.65A7.78,7.78,0,0,1,567.56,352Zm-5.77,2v9.35h1.53a4.49,4.49,0,0,0,2.47-.66,4.26,4.26,0,0,0,1.56-1.73,5.16,5.16,0,0,0,.52-2.29,5.07,5.07,0,0,0-.52-2.27,4.26,4.26,0,0,0-1.56-1.73,4.41,4.41,0,0,0-2.47-.67Z"/><path class="b" d="M577.55,365.58a7.18,7.18,0,0,1-2.74-3,8.92,8.92,0,0,1,0-7.85,7.24,7.24,0,0,1,2.74-3,9.09,9.09,0,0,1,8.78,0,7.31,7.31,0,0,1,2.74,3,8.92,8.92,0,0,1,0,7.85,7.24,7.24,0,0,1-2.74,3,9,9,0,0,1-8.78,0Zm6.94-2.77a4.37,4.37,0,0,0,1.6-1.79,5.27,5.27,0,0,0,.53-2.34,5.33,5.33,0,0,0-.53-2.36,4.31,4.31,0,0,0-1.6-1.79,5.17,5.17,0,0,0-5.09,0,4.39,4.39,0,0,0-1.59,1.78,5.5,5.5,0,0,0,0,4.71,4.42,4.42,0,0,0,1.59,1.79,5.1,5.1,0,0,0,5.09,0Z"/><path class="b" d="M596.59,366.5h-3.12V350.59h.83l7.87,9.15v-8.8h3.14v15.89h-.83L596.59,358Z"/><path class="b" d="M612.64,366.5h-3.12V350.59h.83l7.87,9.15v-8.8h3.14v15.89h-.83L612.64,358Z"/><path class="b" d="M625.57,366.5V350.92h7.8V354h-4.69v3.12h4.1v3.12h-4.1v3.11h5v3.12Zm5.16-16.65h-2.81l1.07-2.51h3.84Z"/><path class="b" d="M637.35,366.5V350.92h7.8V354h-4.68v3.12h4.1v3.12h-4.1v3.11h4.94v3.12Z"/><path class="b" d="M648.75,362.23a6.19,6.19,0,0,0,2.06,1,8,8,0,0,0,2,.27l.44,0a1.82,1.82,0,0,0,1.14-.46,1.26,1.26,0,0,0,.47-1,1.4,1.4,0,0,0-.41-1.06,3.71,3.71,0,0,0-1.2-.66,10.54,10.54,0,0,1-3.39-1.87,3.67,3.67,0,0,1-1.23-2.88,5,5,0,0,1,.55-2.35,4.27,4.27,0,0,1,1.56-1.7,4.54,4.54,0,0,1,2.29-.7l.52,0a10.32,10.32,0,0,1,3.36.67l-.39,3a7.5,7.5,0,0,0-3.18-.65,1.52,1.52,0,0,0-1.55,1.59,1.27,1.27,0,0,0,.46,1,3.91,3.91,0,0,0,1.28.67,9.49,9.49,0,0,1,3.29,1.91A3.72,3.72,0,0,1,658,361.9a4.75,4.75,0,0,1-.63,2.45,4.33,4.33,0,0,1-1.8,1.69,5.7,5.7,0,0,1-2.71.61,10,10,0,0,1-2.09-.26,9.64,9.64,0,0,1-2.4-.89Z"/><path class="b" d="M676.68,352a7.08,7.08,0,0,1,2.65,2.89,8.56,8.56,0,0,1,0,7.6,7.15,7.15,0,0,1-2.65,2.89,7.85,7.85,0,0,1-4.24,1.1H667.8V350.92h4.64A7.76,7.76,0,0,1,676.68,352Zm-5.76,2v9.35h1.52a4.49,4.49,0,0,0,2.47-.66,4.19,4.19,0,0,0,1.56-1.73,5.17,5.17,0,0,0,.53-2.29,5.08,5.08,0,0,0-.53-2.27,4.19,4.19,0,0,0-1.56-1.73,4.41,4.41,0,0,0-2.47-.67Z"/><path class="b" d="M688,350.35h.33l6.56,16.15h-3.51l-.63-1.68h-5.17L685,366.5h-3.53Zm1.59,11.55-1.42-4-1.46,4Z"/><path class="b" d="M700.68,366.5h-3.11V350.59h.83l7.86,9.15v-8.8h3.14v15.89h-.83L700.68,358Z"/><path class="b" d="M713.33,362.23a6.19,6.19,0,0,0,2.06,1,8,8,0,0,0,2,.27l.43,0a1.88,1.88,0,0,0,1.15-.46,1.25,1.25,0,0,0,.46-1A1.36,1.36,0,0,0,719,361a3.71,3.71,0,0,0-1.2-.66,10.54,10.54,0,0,1-3.39-1.87,3.67,3.67,0,0,1-1.23-2.88,5,5,0,0,1,.56-2.35,4.27,4.27,0,0,1,1.56-1.7,4.5,4.5,0,0,1,2.28-.7l.53,0a10.32,10.32,0,0,1,3.35.67l-.39,3a7.5,7.5,0,0,0-3.18-.65,1.52,1.52,0,0,0-1.55,1.59,1.27,1.27,0,0,0,.46,1,3.91,3.91,0,0,0,1.28.67,9.63,9.63,0,0,1,3.3,1.91,3.76,3.76,0,0,1,1.22,2.86,4.67,4.67,0,0,1-.64,2.45,4.36,4.36,0,0,1-1.79,1.69,5.77,5.77,0,0,1-2.72.61,10.11,10.11,0,0,1-4.49-1.15Z"/><path class="b" d="M455.82,378.48v12.46h4.95v3.12h-8.06V378.48Z"/><path class="b" d="M463.72,394.06V378.48h7.8v3.11h-4.68v3.12h4.1v3.12h-4.1v3.11h5v3.12Z"/><path class="b" d="M475.12,389.79a6.19,6.19,0,0,0,2.06,1,8,8,0,0,0,1.95.27l.44,0a1.82,1.82,0,0,0,1.14-.46,1.26,1.26,0,0,0,.47-1,1.4,1.4,0,0,0-.41-1.06,3.71,3.71,0,0,0-1.2-.66,10.36,10.36,0,0,1-3.39-1.88,3.64,3.64,0,0,1-1.23-2.87,5.06,5.06,0,0,1,.55-2.36,4.4,4.4,0,0,1,1.56-1.7,4.63,4.63,0,0,1,2.29-.69l.52,0a10.37,10.37,0,0,1,3.36.68l-.39,3a7.68,7.68,0,0,0-3.18-.66,1.64,1.64,0,0,0-1.15.49,1.59,1.59,0,0,0-.4,1.1,1.28,1.28,0,0,0,.46,1.06,3.91,3.91,0,0,0,1.28.67,9.64,9.64,0,0,1,3.29,1.9,3.76,3.76,0,0,1,1.22,2.87,4.75,4.75,0,0,1-.63,2.45,4.39,4.39,0,0,1-1.8,1.69,5.7,5.7,0,0,1-2.71.61,10.11,10.11,0,0,1-4.49-1.15Z"/><path class="b" d="M494.71,394.1a7.93,7.93,0,0,1-4.28-1.11,7.18,7.18,0,0,1-2.67-2.91,8.71,8.71,0,0,1,0-7.67,7.18,7.18,0,0,1,2.67-2.91,8.83,8.83,0,0,1,8.57,0,7.24,7.24,0,0,1,2.68,2.92,8.55,8.55,0,0,1,.9,3.86,8.37,8.37,0,0,1-.48,2.8,8,8,0,0,1-1.37,2.45l2,2.62h-3.45l-.76-.9A8.29,8.29,0,0,1,494.71,394.1Zm2.84-6.65,1.09,1.4a5.38,5.38,0,0,0,.13-4.87,4.33,4.33,0,0,0-1.56-1.76,4.47,4.47,0,0,0-2.5-.67,4.51,4.51,0,0,0-2.47.66,4.31,4.31,0,0,0-1.56,1.75,5.35,5.35,0,0,0,0,4.6,4.28,4.28,0,0,0,1.56,1.74,4.51,4.51,0,0,0,2.47.66,4.9,4.9,0,0,0,1.77-.3l-2.62-3.21Z"/><path class="b" d="M516.55,391.66a5.13,5.13,0,0,1-2.08,1.9,6.2,6.2,0,0,1-2.75.63,6.27,6.27,0,0,1-2.76-.63,5.09,5.09,0,0,1-2.09-1.9,5.56,5.56,0,0,1-.79-3V378.48h3.11v10.13a2.25,2.25,0,0,0,.75,1.8,2.8,2.8,0,0,0,3.56,0,2.25,2.25,0,0,0,.75-1.8V378.48h3.09v10.15A5.56,5.56,0,0,1,516.55,391.66Z"/><path class="b" d="M521.5,394.06V378.48h7.8v3.11h-4.69v3.12h4.1v3.12h-4.1v3.11h4.95v3.12Z"/><path class="b" d="M536.4,378.48v12.46h4.94v3.12h-8.06V378.48Z"/><path class="b" d="M547.41,378.48v12.46h5v3.12h-8.07V378.48Z"/><path class="b" d="M555.31,394.06V378.48h7.8v3.11h-4.68v3.12h4.09v3.12h-4.09v3.11h4.94v3.12Z"/><path class="b" d="M566.71,389.79a6.1,6.1,0,0,0,2.06,1,7.86,7.86,0,0,0,2,.27l.44,0a1.82,1.82,0,0,0,1.14-.46,1.26,1.26,0,0,0,.47-1,1.37,1.37,0,0,0-.42-1.06,3.55,3.55,0,0,0-1.19-.66,10.36,10.36,0,0,1-3.39-1.88,3.64,3.64,0,0,1-1.23-2.87,5.06,5.06,0,0,1,.55-2.36,4.4,4.4,0,0,1,1.56-1.7,4.63,4.63,0,0,1,2.29-.69l.52,0a10.37,10.37,0,0,1,3.36.68l-.4,3a7.62,7.62,0,0,0-3.18-.66,1.63,1.63,0,0,0-1.14.49,1.59,1.59,0,0,0-.4,1.1,1.3,1.3,0,0,0,.45,1.06,4.07,4.07,0,0,0,1.29.67,9.64,9.64,0,0,1,3.29,1.9,3.79,3.79,0,0,1,1.22,2.87,4.75,4.75,0,0,1-.63,2.45,4.39,4.39,0,0,1-1.8,1.69,5.73,5.73,0,0,1-2.71.61,10,10,0,0,1-4.49-1.15Z"/><path class="b" d="M588.87,394.06h-3.11V378.15h.82l7.87,9.15v-8.8h3.14v15.89h-.83l-7.89-8.81Z"/><path class="b" d="M604.79,393.14a7.18,7.18,0,0,1-2.74-3,8.92,8.92,0,0,1,0-7.85,7.18,7.18,0,0,1,2.74-3,9,9,0,0,1,8.78,0,7.24,7.24,0,0,1,2.74,3,8.92,8.92,0,0,1,0,7.85,7.24,7.24,0,0,1-2.74,3,9,9,0,0,1-8.78,0Zm6.94-2.78a4.35,4.35,0,0,0,1.6-1.78,5.47,5.47,0,0,0,0-4.7,4.32,4.32,0,0,0-1.6-1.79,4.66,4.66,0,0,0-2.55-.67,4.6,4.6,0,0,0-2.54.67,4.26,4.26,0,0,0-1.59,1.78,5.41,5.41,0,0,0,0,4.71,4.26,4.26,0,0,0,1.59,1.78,4.53,4.53,0,0,0,2.54.69A4.59,4.59,0,0,0,611.73,390.36Z"/><path class="b" d="M631.05,391.66a5.13,5.13,0,0,1-2.08,1.9,6.2,6.2,0,0,1-2.75.63,6.27,6.27,0,0,1-2.76-.63,5.09,5.09,0,0,1-2.09-1.9,5.56,5.56,0,0,1-.79-3V378.48h3.11v10.13a2.22,2.22,0,0,0,.76,1.8,2.78,2.78,0,0,0,3.55,0,2.25,2.25,0,0,0,.75-1.8V378.48h3.09v10.15A5.56,5.56,0,0,1,631.05,391.66Z"/><path class="b" d="M635.59,389.79a6,6,0,0,0,2.06,1,7.86,7.86,0,0,0,2,.27l.43,0a1.88,1.88,0,0,0,1.15-.46,1.25,1.25,0,0,0,.46-1,1.36,1.36,0,0,0-.41-1.06,3.71,3.71,0,0,0-1.2-.66,10.36,10.36,0,0,1-3.39-1.88,3.64,3.64,0,0,1-1.23-2.87,5.07,5.07,0,0,1,.56-2.36,4.4,4.4,0,0,1,1.56-1.7,4.59,4.59,0,0,1,2.28-.69l.53,0a10.31,10.31,0,0,1,3.35.68l-.39,3a7.68,7.68,0,0,0-3.18-.66,1.52,1.52,0,0,0-1.55,1.59A1.28,1.28,0,0,0,639,384a3.87,3.87,0,0,0,1.29.67,9.73,9.73,0,0,1,3.29,1.9,3.79,3.79,0,0,1,1.22,2.87,4.67,4.67,0,0,1-.64,2.45,4.42,4.42,0,0,1-1.79,1.69,5.77,5.77,0,0,1-2.72.61,10,10,0,0,1-2.09-.26,10.37,10.37,0,0,1-2.4-.89Z"/><path class="b" d="M654.63,394.06V378.5h6.13a4.41,4.41,0,0,1,2.47.67,4.23,4.23,0,0,1,1.55,1.78,5.47,5.47,0,0,1,.51,2.34,5.61,5.61,0,0,1-.51,2.37,4.2,4.2,0,0,1-1.55,1.77,4.42,4.42,0,0,1-2.47.68h-3v5.95Zm5.87-9a1.41,1.41,0,0,0,1.15-.52,2,2,0,0,0,0-2.46,1.41,1.41,0,0,0-1.15-.51h-2.75v3.49Z"/><path class="b" d="M671.41,393.14a7.22,7.22,0,0,1-2.73-3,8.83,8.83,0,0,1,0-7.85,7.22,7.22,0,0,1,2.73-3,9,9,0,0,1,8.79,0,7.22,7.22,0,0,1,2.73,3,8.83,8.83,0,0,1,0,7.85,7.22,7.22,0,0,1-2.73,3,9,9,0,0,1-8.79,0Zm7-2.78a4.35,4.35,0,0,0,1.6-1.78,5.47,5.47,0,0,0,0-4.7,4.32,4.32,0,0,0-1.6-1.79,4.71,4.71,0,0,0-2.55-.67,4.6,4.6,0,0,0-2.54.67,4.26,4.26,0,0,0-1.59,1.78,5.41,5.41,0,0,0,0,4.71,4.26,4.26,0,0,0,1.59,1.78,4.53,4.53,0,0,0,2.54.69A4.63,4.63,0,0,0,678.36,390.36Z"/><path class="b" d="M697.68,391.66a5.09,5.09,0,0,1-2.09,1.9,6.12,6.12,0,0,1-2.74.63,6.24,6.24,0,0,1-2.76-.63,5.09,5.09,0,0,1-2.09-1.9,5.56,5.56,0,0,1-.8-3V378.48h3.12v10.13a2.25,2.25,0,0,0,.75,1.8,2.78,2.78,0,0,0,3.55,0,2.22,2.22,0,0,0,.76-1.8V378.48h3.09v10.15A5.56,5.56,0,0,1,697.68,391.66Z"/><path class="b" d="M701,378.48h3.6l2.07,5.18,1.13,3.23,1.11-3.12,2.1-5.29h3.59l-6.45,15.91h-.7Z"/><path class="b" d="M719.4,393.14a7.24,7.24,0,0,1-2.74-3,8.92,8.92,0,0,1,0-7.85,7.24,7.24,0,0,1,2.74-3,9,9,0,0,1,8.78,0,7.18,7.18,0,0,1,2.74,3,8.92,8.92,0,0,1,0,7.85,7.18,7.18,0,0,1-2.74,3,9,9,0,0,1-8.78,0Zm6.94-2.78a4.28,4.28,0,0,0,1.6-1.78,5.38,5.38,0,0,0,0-4.7,4.25,4.25,0,0,0-1.6-1.79,5.17,5.17,0,0,0-5.09,0,4.4,4.4,0,0,0-1.59,1.78,5.5,5.5,0,0,0,0,4.71,4.4,4.4,0,0,0,1.59,1.78,5,5,0,0,0,5.09,0Z"/><path class="b" d="M738.44,394.06h-3.11V378.15h.82L744,387.3v-8.8h3.14v15.89h-.83l-7.89-8.81Z"/><path class="a" d="M751.09,389.79a6.19,6.19,0,0,0,2.06,1,8,8,0,0,0,2,.27l.44,0a1.82,1.82,0,0,0,1.14-.46,1.23,1.23,0,0,0,.47-1,1.4,1.4,0,0,0-.41-1.06,3.71,3.71,0,0,0-1.2-.66,10.36,10.36,0,0,1-3.39-1.88,3.64,3.64,0,0,1-1.23-2.87,5.06,5.06,0,0,1,.55-2.36,4.56,4.56,0,0,1,1.56-1.7,4.63,4.63,0,0,1,2.29-.69l.52,0a10.37,10.37,0,0,1,3.36.68l-.39,3a7.68,7.68,0,0,0-3.18-.66,1.64,1.64,0,0,0-1.15.49,1.59,1.59,0,0,0-.4,1.1,1.28,1.28,0,0,0,.46,1.06,3.91,3.91,0,0,0,1.28.67,9.64,9.64,0,0,1,3.29,1.9,3.76,3.76,0,0,1,1.22,2.87,4.75,4.75,0,0,1-.63,2.45,4.39,4.39,0,0,1-1.8,1.69,5.7,5.7,0,0,1-2.71.61,10.11,10.11,0,0,1-4.49-1.15Z"/><path class="b" d="M457.87,405.47h.33l6.56,16.15h-3.51l-.63-1.68h-5.17l-.61,1.68h-3.53ZM459.46,417,458.05,413,456.59,417Z"/><path class="b" d="M464.41,406H468l2.07,5.19,1.13,3.23,1.11-3.12,2.1-5.3H478l-6.45,15.91h-.7Z"/><path class="b" d="M482.81,420.7a7.31,7.31,0,0,1-2.74-3,8.92,8.92,0,0,1,0-7.85,7.24,7.24,0,0,1,2.74-3,9,9,0,0,1,8.78,0,7.24,7.24,0,0,1,2.74,3,8.92,8.92,0,0,1,0,7.85,7.31,7.31,0,0,1-2.74,3,9.09,9.09,0,0,1-8.78,0Zm6.94-2.78a4.34,4.34,0,0,0,1.6-1.78,5.38,5.38,0,0,0,0-4.7,4.25,4.25,0,0,0-1.6-1.79,5.17,5.17,0,0,0-5.09,0,4.33,4.33,0,0,0-1.59,1.78,5.5,5.5,0,0,0,0,4.71,4.46,4.46,0,0,0,1.59,1.78,5,5,0,0,0,5.09,0Z"/><path class="b" d="M498.77,421.62V406h3.11v15.59Z"/><path class="b" d="M510.71,415.67h-1.5v5.95h-3.12V406h6.15a4.52,4.52,0,0,1,2.5.68,4.32,4.32,0,0,1,1.57,1.75,5.2,5.2,0,0,1,.52,2.3,5,5,0,0,1-.8,2.77,3.88,3.88,0,0,1-2.27,1.66l3.62,6.43h-3.53Zm1.24-3a1.44,1.44,0,0,0,1.18-.51,1.91,1.91,0,0,0,.41-1.24,1.87,1.87,0,0,0-.41-1.23,1.44,1.44,0,0,0-1.18-.51h-2.74v3.49Z"/><path class="b" d="M535.35,409.16a5.28,5.28,0,0,0-1.49-.18,4.52,4.52,0,0,0-2.51.67,4.28,4.28,0,0,0-1.58,1.77,5.09,5.09,0,0,0-.53,2.31,5.15,5.15,0,0,0,.53,2.31,4.31,4.31,0,0,0,1.58,1.76,4.53,4.53,0,0,0,2.51.68,6.33,6.33,0,0,0,1.68-.21,6.43,6.43,0,0,0,1.32-.49l.42,3.23a10.05,10.05,0,0,1-1.66.47,9.3,9.3,0,0,1-1.76.18,8,8,0,0,1-4.32-1.11,7.15,7.15,0,0,1-2.69-2.93,8.67,8.67,0,0,1-.91-3.87,8.56,8.56,0,0,1,.91-3.86,7.27,7.27,0,0,1,2.69-2.93,7.94,7.94,0,0,1,4.32-1.12,7.45,7.45,0,0,1,3.07.61l-.37,3.2A9.3,9.3,0,0,0,535.35,409.16Z"/><path class="b" d="M543.09,420.7a7.24,7.24,0,0,1-2.74-3,8.92,8.92,0,0,1,0-7.85,7.18,7.18,0,0,1,2.74-3,9,9,0,0,1,8.78,0,7.24,7.24,0,0,1,2.74,3,8.92,8.92,0,0,1,0,7.85,7.31,7.31,0,0,1-2.74,3,9.09,9.09,0,0,1-8.78,0Zm6.94-2.78a4.41,4.41,0,0,0,1.6-1.78,5.47,5.47,0,0,0,0-4.7,4.32,4.32,0,0,0-1.6-1.79,4.66,4.66,0,0,0-2.55-.67,4.6,4.6,0,0,0-2.54.67,4.2,4.2,0,0,0-1.59,1.78,5.41,5.41,0,0,0,0,4.71,4.32,4.32,0,0,0,1.59,1.78,4.53,4.53,0,0,0,2.54.69A4.59,4.59,0,0,0,550,417.92Z"/><path class="b" d="M562.13,421.62H559V405.71h.83l7.87,9.15v-8.8h3.14v15.88H570l-7.89-8.8Z"/><path class="b" d="M578.18,409.15v3.12h4v3.11h-4v6.24h-3.12V406h7.78v3.12Z"/><path class="b" d="M586.05,421.62V406h3.11v15.59Z"/><path class="b" d="M598.39,405.47h.33l6.56,16.15h-3.51l-.63-1.68H596l-.61,1.68h-3.54ZM600,417,598.57,413,597.11,417Z"/><path class="b" d="M611.09,421.62H608V405.71h.83l7.87,9.15v-8.8h3.14v15.88H619l-7.89-8.8Z"/><path class="b" d="M632.64,409.16a5.28,5.28,0,0,0-1.49-.18,4.52,4.52,0,0,0-2.51.67,4.35,4.35,0,0,0-1.58,1.77,5.09,5.09,0,0,0-.53,2.31,5.15,5.15,0,0,0,.53,2.31,4.38,4.38,0,0,0,1.58,1.76,4.53,4.53,0,0,0,2.51.68,6.47,6.47,0,0,0,1.69-.21,6.55,6.55,0,0,0,1.31-.49l.42,3.23a10.05,10.05,0,0,1-1.66.47,9.3,9.3,0,0,1-1.76.18,8,8,0,0,1-4.32-1.11,7.15,7.15,0,0,1-2.69-2.93,8.66,8.66,0,0,1-.9-3.87,8.55,8.55,0,0,1,.9-3.86,7.27,7.27,0,0,1,2.69-2.93,7.94,7.94,0,0,1,4.32-1.12,7.45,7.45,0,0,1,3.07.61l-.37,3.2A9.3,9.3,0,0,0,632.64,409.16Z"/><path class="b" d="M637.74,421.62V406h7.8v3.12h-4.68v3.12H645v3.11h-4.09v3.12h4.94v3.12Z"/></svg>