<svg xmlns="http://www.w3.org/2000/svg" viewBox="0 0 792 612"><defs><style>.a{fill:#001740;}.b{fill:#badaf3;}.c{fill:#72c6ef;}.d{fill:#009edb;}</style></defs><rect class="a" width="792" height="612"/><path class="b" d="M466.16,198.39V188.15h-4.69v14.13h21.47v4H457.2V188.15h-4.65v-4h4.65v-7.27h4.27v7.27h4.69v-8h4.06v8H475v-7.68h4.31v7.68h4.54v4h-4.54v10.24Zm4.06-10.24v6.48H475v-6.48Z"/><path class="b" d="M509.42,191.74a24.58,24.58,0,0,0,9.44,4.65,18.57,18.57,0,0,0-2.72,3.51,25.17,25.17,0,0,1-5.82-2.79V208h-4.27V195.87h2.58a20.71,20.71,0,0,1-4-4.13h-3.55a23.58,23.58,0,0,1-4.13,4.1h2.92v2.38c0,3.27-1,7.61-7.85,10.12a15,15,0,0,0-2.83-3.3c5.76-1.9,6.45-4.79,6.45-7V196.8a27.94,27.94,0,0,1-6.27,3.21,19.38,19.38,0,0,0-2.69-3.38,25.83,25.83,0,0,0,9.3-4.89h-5.48V177.09H515v14.65Zm-14.85-8.86h6V180.4h-6Zm0,5.55h6V186h-6Zm16.2-8h-6v2.48h6Zm0,5.55h-6v2.48h6Z"/><path class="b" d="M463.88,233.44a18.53,18.53,0,0,0,0,3.58c-8.2,1.9-9.61,2.38-10.54,2.93a30.81,30.81,0,0,0-1.31-3.79c.9-.21,1.66-.93,2.72-2.2a36.24,36.24,0,0,0,2.42-3.17c-2.69.31-3.52.51-4,.79a41.26,41.26,0,0,0-1.44-4.1c.76-.17,1.31-.9,2.06-2a42.27,42.27,0,0,0,4.1-9.16l4.17,1.93a47.94,47.94,0,0,1-5,9l2.48-.2c.69-1.14,1.34-2.35,1.93-3.59l3.55,2.24a68.69,68.69,0,0,1-5.89,8.72Zm.69,9.51c-3.86,1.62-8.06,3.27-11.4,4.51l-.93-4.06c2.89-.83,7.3-2.41,11.58-3.9Zm7.38-9c-.28,7.23-1.17,12.19-7.45,15a11.67,11.67,0,0,0-2.48-3.37c5.21-2.21,5.69-5.83,5.9-11.68Zm8.82,1c-.28-.72-.69-1.55-1.14-2.45-11.75,1.21-13.47,1.45-14.61,2a34.09,34.09,0,0,0-1.2-3.93,6.12,6.12,0,0,0,2.51-1.14c.59-.62,2.31-2.79,3.72-4.65h-5.41v-3.65h7.65c-.34-1.07-.86-2.55-1.34-3.69l3.86-1a29.22,29.22,0,0,1,1.72,4l-2.21.62h9.48v3.65h-9c-1.24,1.69-2.65,3.62-3.93,5.17l6.83-.55c-.56-.86-1.11-1.69-1.62-2.45l3.13-1.55a43.21,43.21,0,0,1,4.93,7.75Zm-.62,9.82c.55,0,.69-.76.76-5.1a11.47,11.47,0,0,0,3.47,1.58c-.3,5.41-1.2,7-3.82,7h-2.38c-3.06,0-3.79-1.17-3.79-4.61v-9.72h4v9.68c0,1.07.07,1.21.56,1.21Z"/><path class="b" d="M501,238.09a17.06,17.06,0,0,0,1.31,3.76c-6.93,5-8.2,6-8.86,6.85a17,17,0,0,0-2-3.82,4.09,4.09,0,0,0,1.86-3.21V231.3h-5v-4.06h9.2V240.5Zm-4.41-13a44.6,44.6,0,0,0-5.62-5.45l2.58-2.62a45.75,45.75,0,0,1,5.79,5.07Zm23.56,6.65h-7.92v17.12h-4.41V231.72h-8.27v-4.28h8.27V216.8h4.41v10.64h7.92Z"/><path class="b" d="M480.25,259.46v29.63h-4.41v-2.17h-15.3v2.24H456.3v-29.7Zm-19.71,4.14V271h15.3V263.6Zm15.3,19.19v-7.72h-15.3v7.72Z"/><path class="b" d="M466.16,198.39V188.15h-4.69v14.13h21.47v4H457.2V188.15h-4.65v-4h4.65v-7.27h4.27v7.27h4.69v-8h4.06v8H475v-7.68h4.31v7.68h4.54v4h-4.54v10.24Zm4.06-10.24v6.48H475v-6.48Z"/><path class="b" d="M509.42,191.74a24.58,24.58,0,0,0,9.44,4.65,18.57,18.57,0,0,0-2.72,3.51,25.17,25.17,0,0,1-5.82-2.79V208h-4.27V195.87h2.58a20.71,20.71,0,0,1-4-4.13h-3.55a23.58,23.58,0,0,1-4.13,4.1h2.92v2.38c0,3.27-1,7.61-7.85,10.12a15,15,0,0,0-2.83-3.3c5.76-1.9,6.45-4.79,6.45-7V196.8a27.94,27.94,0,0,1-6.27,3.21,19.38,19.38,0,0,0-2.69-3.38,25.83,25.83,0,0,0,9.3-4.89h-5.48V177.09H515v14.65Zm-14.85-8.86h6V180.4h-6Zm0,5.55h6V186h-6Zm16.2-8h-6v2.48h6Zm0,5.55h-6v2.48h6Z"/><path class="b" d="M463.88,233.44a18.53,18.53,0,0,0,0,3.58c-8.2,1.9-9.61,2.38-10.54,2.93a30.81,30.81,0,0,0-1.31-3.79c.9-.21,1.66-.93,2.72-2.2a36.24,36.24,0,0,0,2.42-3.17c-2.69.31-3.52.51-4,.79a41.26,41.26,0,0,0-1.44-4.1c.76-.17,1.31-.9,2.06-2a42.27,42.27,0,0,0,4.1-9.16l4.17,1.93a47.94,47.94,0,0,1-5,9l2.48-.2c.69-1.14,1.34-2.35,1.93-3.59l3.55,2.24a68.69,68.69,0,0,1-5.89,8.72Zm.69,9.51c-3.86,1.62-8.06,3.27-11.4,4.51l-.93-4.06c2.89-.83,7.3-2.41,11.58-3.9Zm7.38-9c-.28,7.23-1.17,12.19-7.45,15a11.67,11.67,0,0,0-2.48-3.37c5.21-2.21,5.69-5.83,5.9-11.68Zm8.82,1c-.28-.72-.69-1.55-1.14-2.45-11.75,1.21-13.47,1.45-14.61,2a34.09,34.09,0,0,0-1.2-3.93,6.12,6.12,0,0,0,2.51-1.14c.59-.62,2.31-2.79,3.72-4.65h-5.41v-3.65h7.65c-.34-1.07-.86-2.55-1.34-3.69l3.86-1a29.22,29.22,0,0,1,1.72,4l-2.21.62h9.48v3.65h-9c-1.24,1.69-2.65,3.62-3.93,5.17l6.83-.55c-.56-.86-1.11-1.69-1.62-2.45l3.13-1.55a43.21,43.21,0,0,1,4.93,7.75Zm-.62,9.82c.55,0,.69-.76.76-5.1a11.47,11.47,0,0,0,3.47,1.58c-.3,5.41-1.2,7-3.82,7h-2.38c-3.06,0-3.79-1.17-3.79-4.61v-9.72h4v9.68c0,1.07.07,1.21.56,1.21Z"/><path class="b" d="M501,238.09a17.06,17.06,0,0,0,1.31,3.76c-6.93,5-8.2,6-8.86,6.85a17,17,0,0,0-2-3.82,4.09,4.09,0,0,0,1.86-3.21V231.3h-5v-4.06h9.2V240.5Zm-4.41-13a44.6,44.6,0,0,0-5.62-5.45l2.58-2.62a45.75,45.75,0,0,1,5.79,5.07Zm23.56,6.65h-7.92v17.12h-4.41V231.72h-8.27v-4.28h8.27V216.8h4.41v10.64h7.92Z"/><path class="b" d="M480.25,259.46v29.63h-4.41v-2.17h-15.3v2.24H456.3v-29.7Zm-19.71,4.14V271h15.3V263.6Zm15.3,19.19v-7.72h-15.3v7.72Z"/><path class="c" d="M458.32,314a2.61,2.61,0,0,0,.2-.84,1.59,1.59,0,0,0-.57-1.27,2.15,2.15,0,0,0-1.46-.49,5.77,5.77,0,0,0-2.15.47,6.47,6.47,0,0,0-1.66.92l-.86-3.37a8.73,8.73,0,0,1,2.47-1.19,7.91,7.91,0,0,1,2.72-.4,6.5,6.5,0,0,1,2.9.73,4.52,4.52,0,0,1,2.46,4.11,6.79,6.79,0,0,1-1.45,4L457.47,322h5.19v3.54H451.11l6.53-10.37A6.05,6.05,0,0,0,458.32,314Z"/><path class="c" d="M466.45,323.31a15.11,15.11,0,0,1,0-13,5.4,5.4,0,0,1,9.08,0,15.15,15.15,0,0,1,0,13,5.38,5.38,0,0,1-9.08,0ZM473,321a14.13,14.13,0,0,0,0-8.28,2.13,2.13,0,0,0-2-1.57,2.08,2.08,0,0,0-2,1.57,14.13,14.13,0,0,0,0,8.28,2.06,2.06,0,0,0,2,1.55A2.11,2.11,0,0,0,473,321Z"/><path class="c" d="M482.47,322.37a2,2,0,0,1,.52,1.38,2,2,0,0,1-.53,1.4,1.84,1.84,0,0,1-1.45.58,1.86,1.86,0,0,1-1.46-.58,2,2,0,0,1-.52-1.4,2,2,0,0,1,.52-1.38,1.9,1.9,0,0,1,1.46-.58A1.87,1.87,0,0,1,482.47,322.37Z"/><path class="c" d="M485,308.09h6.34v17.47h-3.48v-14H485Z"/><path class="c" d="M496.08,323.31a15.11,15.11,0,0,1,0-13,5.39,5.39,0,0,1,9.07,0,15.15,15.15,0,0,1,0,13,5.37,5.37,0,0,1-9.07,0Zm6.54-2.36a13.92,13.92,0,0,0,0-8.28,2.12,2.12,0,0,0-2-1.57,2.09,2.09,0,0,0-2,1.57,14.35,14.35,0,0,0,0,8.28,2.07,2.07,0,0,0,2,1.55A2.1,2.1,0,0,0,502.62,321Z"/><path class="c" d="M512.1,322.37a2,2,0,0,1,.52,1.38,2,2,0,0,1-.53,1.4,1.86,1.86,0,0,1-1.46.58,1.84,1.84,0,0,1-1.45-.58,2,2,0,0,1-.53-1.4,2,2,0,0,1,.53-1.38,2.13,2.13,0,0,1,2.92,0Z"/><path class="c" d="M521.26,314a2.42,2.42,0,0,0,.21-.84,1.59,1.59,0,0,0-.57-1.27,2.17,2.17,0,0,0-1.46-.49,5.73,5.73,0,0,0-2.15.47,6.75,6.75,0,0,0-1.67.92l-.85-3.37a8.6,8.6,0,0,1,2.47-1.19,7.89,7.89,0,0,1,2.71-.4,6.43,6.43,0,0,1,2.9.73,4.64,4.64,0,0,1,1.84,1.72,4.7,4.7,0,0,1,.62,2.39,6.78,6.78,0,0,1-1.44,4L520.42,322h5.19v3.54H514.06l6.53-10.37A6,6,0,0,0,521.26,314Z"/><path class="c" d="M529.4,323.31a15.11,15.11,0,0,1,0-13,5.4,5.4,0,0,1,9.08,0,15.24,15.24,0,0,1,0,13,5.38,5.38,0,0,1-9.08,0Zm6.54-2.36a13.92,13.92,0,0,0,0-8.28,2.12,2.12,0,0,0-2-1.57,2.09,2.09,0,0,0-2,1.57,14.35,14.35,0,0,0,0,8.28,2.07,2.07,0,0,0,2,1.55A2.1,2.1,0,0,0,535.94,321Z"/><path class="c" d="M548.62,314a2.61,2.61,0,0,0,.2-.84,1.59,1.59,0,0,0-.57-1.27,2.15,2.15,0,0,0-1.46-.49,5.77,5.77,0,0,0-2.15.47,6.47,6.47,0,0,0-1.66.92l-.86-3.37a8.73,8.73,0,0,1,2.47-1.19,7.91,7.91,0,0,1,2.72-.4,6.5,6.5,0,0,1,2.9.73,4.68,4.68,0,0,1,1.83,1.72,4.61,4.61,0,0,1,.62,2.39,6.78,6.78,0,0,1-1.44,4L547.77,322H553v3.54H541.41l6.53-10.37A6.05,6.05,0,0,0,548.62,314Z"/><path class="c" d="M556.75,323.31a15.11,15.11,0,0,1,0-13,5.4,5.4,0,0,1,9.08,0,15.24,15.24,0,0,1,0,13,5.38,5.38,0,0,1-9.08,0Zm6.54-2.36a13.92,13.92,0,0,0,0-8.28,2.06,2.06,0,0,0-4,0,14.35,14.35,0,0,0,0,8.28,2.07,2.07,0,0,0,4,0Z"/><path class="b" d="M471.27,358.62c0,1.4-.3,2.09-1.17,2.49a10.3,10.3,0,0,1-4.19.46,9.47,9.47,0,0,0-.83-2.49c1.22.07,2.66,0,3.06,0s.56-.13.56-.52v-3.27h-4.6v6.08h-2.61v-6.08H457a12.39,12.39,0,0,1-2.74,6.47,9.79,9.79,0,0,0-2.05-1.67c2.38-2.62,2.57-6.5,2.57-9.55V342.8h16.45Zm-9.78-5.73v-2.68h-4.1v.39c0,.7,0,1.49-.06,2.29Zm-4.1-7.62v2.52h4.1v-2.52Zm11.31,0h-4.6v2.52h4.6Zm0,7.62v-2.68h-4.6v2.68Z"/><path class="b" d="M495.57,351.67a21.14,21.14,0,0,1-3.62,4.77c.59,1.68,1.26,2.68,1.92,2.68.45,0,.72-1,.83-3.61a6.45,6.45,0,0,0,2.13,1.48c-.41,3.81-1.22,4.77-3.2,4.77-1.59,0-2.81-1.31-3.75-3.44a23,23,0,0,1-4,2.66,11.51,11.51,0,0,0-1.72-2.1,22.51,22.51,0,0,0,4.86-3.07,41.27,41.27,0,0,1-1.12-5.84h-4.42v2.49c1.11-.2,2.25-.42,3.36-.61l.19,2.35-3.55.72v3.73c0,1.41-.3,2.11-1.18,2.52a9.12,9.12,0,0,1-3.92.5,10.41,10.41,0,0,0-.91-2.61c1.22.06,2.48,0,2.87,0s.53-.11.53-.46v-3.16c-1.4.29-2.75.57-3.9.79l-.64-2.62c1.25-.19,2.82-.43,4.54-.74V350h-4.12v-2.46h4.12V345c-1.18.19-2.38.34-3.49.48a9.83,9.83,0,0,0-.74-2.18,55.86,55.86,0,0,0,8.65-1.83l1.74,2.2c-1.09.32-2.29.61-3.55.87v2.94h4.18c-.17-2-.23-4-.26-6h2.73a50.9,50.9,0,0,0,.22,6h5.92V350h-5.66c.17,1.31.39,2.57.63,3.69a18.62,18.62,0,0,0,2.07-3ZM494,346.88a17.51,17.51,0,0,0-3.1-3.6l2-1.33a18.67,18.67,0,0,1,3.23,3.47Z"/><path class="b" d="M506.72,342.11a39.78,39.78,0,0,1-1.7,4.7v14.86h-2.46V351.45c-.28.42-.56.79-.85,1.16a15,15,0,0,0-1.26-2.77,25,25,0,0,0,3.88-8.43Zm.07,4h2.53v15.53h-2.53Zm2.92-4.82a36.77,36.77,0,0,1,2.68,4.1l-2.11,1.33a30,30,0,0,0-2.53-4.27Zm10.5,17.54c0,1.29-.28,1.94-1.09,2.33a8.38,8.38,0,0,1-3.66.46,10.42,10.42,0,0,0-.8-2.4c1,.07,2.15.07,2.5,0s.48-.13.48-.48V344.39h-5.27v-2.33h7.84Z"/><path class="b" d="M544.49,345.42H542v13c0,1.56-.37,2.33-1.39,2.76a14.61,14.61,0,0,1-4.93.48,11.21,11.21,0,0,0-1.07-2.74c1.55.08,3.45.06,4,.06s.7-.15.7-.61V345.42h-14.4V342.8h19.63Zm-15.1,10.87V358h-2.53V347.86h9.24v8.43Zm0-6v3.49h4.14v-3.49Z"/><path class="b" d="M556.9,352.87a16,16,0,0,0,.67,2.49c-6.21,3.26-7.21,3.92-7.84,4.53a7.67,7.67,0,0,0-1.42-2.05,3.4,3.4,0,0,0,1.61-2.51v-12.5h2.84V355Zm8.89,8.74a35.54,35.54,0,0,0-3.66-4.6,14,14,0,0,1-5.67,4.77,15.4,15.4,0,0,0-2-2.26c6.54-2.66,8.06-8.07,8.41-17.26l2.77.13c-.24,5.06-.85,9.09-2.23,12.25a43.89,43.89,0,0,1,4.65,5.25ZM557.68,350a24.81,24.81,0,0,0-3.09-5.14l2.22-1.24a28.36,28.36,0,0,1,3.23,4.94Z"/><path class="b" d="M459.14,376.37a33.52,33.52,0,0,1-1.62,3.85V396h-2.35V384.3c-.52.74-1.07,1.46-1.59,2.07a17.33,17.33,0,0,0-1.33-2.55,23.61,23.61,0,0,0,4.58-8.15Zm13.4,2.59v2.11h-14V379h6.23a19.38,19.38,0,0,0-1.35-2.59l2.2-.83a17.15,17.15,0,0,1,1.59,2.87L466,379Zm-12.82,9.67h11.53v7.22H469v-.61h-7v.67h-2.21ZM471,384.25H460.05v-2H471Zm-10.92,1.14H471v2H460.05Zm1.88,5.31v2.47h7V390.7Z"/><path class="b" d="M485.06,392.9a22.6,22.6,0,0,0-2.09-2.48v5.47h-2.4v-5.12a15.36,15.36,0,0,1-2.85,3.88,13.18,13.18,0,0,0-1.13-2.49A14.24,14.24,0,0,0,480,388h-2.6v-6.41h3.23V380h-3.75v-2.22h3.75v-2.09H483v2.09h3.62V380H483v1.55h3.23V388h-2.79a31.92,31.92,0,0,1,3.2,3.38Zm-5.55-6.9h1.37v-2.49h-1.37Zm4.44-2.49h-1.26V386H484Zm11.77,12.36a36.61,36.61,0,0,0-4.25-3.21,7.44,7.44,0,0,1-4.75,3.38,5.92,5.92,0,0,0-1.18-1.72c4.86-1.42,5-3.94,5.08-10.33h2.11c0,3.86-.19,6.58-1.2,8.54l1.25-1.3a39.06,39.06,0,0,1,4.4,3Zm-8.5-14.21a8.39,8.39,0,0,0-1.09-.61,17.88,17.88,0,0,0,3.36-5.49l2.26.39c-.15.37-.33.79-.52,1.18h2.64l.32-.09,1.46.92a29.91,29.91,0,0,1-1.85,3.44h2.37v9.89h-2.3v-8.06h-4.45v8.15h-2.2Zm2.92-2.48a16,16,0,0,1-1.46,2.22h2.81a18.58,18.58,0,0,0,1.22-2.22Z"/><path class="b" d="M520.63,378.94s0,.87,0,1.17c-.28,9.74-.52,13.21-1.41,14.36a2.89,2.89,0,0,1-2.1,1.2,23.35,23.35,0,0,1-3.42,0,6,6,0,0,0-.85-2.52c1.4.13,2.68.13,3.25.13a1.18,1.18,0,0,0,1-.37c.63-.7.91-4,1.15-11.66h-4.66a18.4,18.4,0,0,1-1.92,3.44,19.93,19.93,0,0,0-1.67-1.22v10.18h-5.82v1.59h-2.36V379.09h2.47a24.05,24.05,0,0,0,.63-3.51l2.83.39c-.37,1.09-.76,2.18-1.13,3.12h3.38v3.53a22.59,22.59,0,0,0,2.94-7l2.46.57a25.23,25.23,0,0,1-.85,2.77Zm-13.05,2.42h-3.46v3.53h3.46Zm0,10v-4.27h-3.46v4.27Zm7.24-1.18a46.9,46.9,0,0,0-3-5l2-1.15a53.61,53.61,0,0,1,3.21,4.83Z"/><path class="b" d="M529.48,383.4a14.56,14.56,0,0,1-3.25,2.51,8.36,8.36,0,0,0-1.33-1.9,11.14,11.14,0,0,0,3.68-2.55h-3.22v-2h1.7a12.39,12.39,0,0,0-1.15-2.71l1.83-.76a8.77,8.77,0,0,1,1.3,2.68l-1.76.79h2.2v-3.84h2.4v3.84H536v2h-3.18c1,.57,2.2,1.29,2.57,1.55L534,384.82c-.48-.46-1.33-1.18-2.15-1.83v2.38h-2.4ZM533,394.56a19.77,19.77,0,0,0-1.66-1.11,15.21,15.21,0,0,1-5.16,2.44A7,7,0,0,0,525,394a13.8,13.8,0,0,0,4.27-1.68c-1-.54-2.11-1-3.09-1.46.39-.56.8-1.24,1.24-2h-1.66v-2.09h2.73c.19-.44.37-.85.52-1.27l2.29.42c-.11.28-.24.56-.37.85h2.76l.4-.07,1.39.53A11.74,11.74,0,0,1,533,392a16.5,16.5,0,0,1,1.55.95Zm-3.08-5.73c-.21.41-.43.81-.65,1.15.59.29,1.2.59,1.77.9a8.21,8.21,0,0,0,1.52-2.05Zm5.89-12.12c-.72,1-1.4,2-2,2.64l-1.66-.74a21.12,21.12,0,0,0,1.44-2.74Zm8,5.28a25.81,25.81,0,0,1-2.1,7.73,10.49,10.49,0,0,0,4,4,8.11,8.11,0,0,0-1.68,2.05,11.75,11.75,0,0,1-3.68-3.71,13.34,13.34,0,0,1-4.84,4,10.82,10.82,0,0,0-1.37-2.11,10.58,10.58,0,0,0,4.92-4.16,27.69,27.69,0,0,1-1.54-4.56,14.63,14.63,0,0,1-1.16,1.94,13,13,0,0,0-1.85-1.65c1.74-2.27,2.7-5.95,3.2-9.85l2.36.35c-.18,1.22-.4,2.44-.66,3.59h5.8V382Zm-4.8,0a32.56,32.56,0,0,0,1.33,5,24.67,24.67,0,0,0,1.07-5Z"/><path class="b" d="M556.5,387.13l-2.22.68v5.12c0,1.19-.2,1.83-.85,2.22a5.48,5.48,0,0,1-3,.5,9.75,9.75,0,0,0-.65-2.38,16.77,16.77,0,0,0,1.78,0c.26,0,.37-.08.37-.37v-4.4l-2,.59-.58-2.51c.76-.17,1.63-.39,2.63-.65V382.1h-2.29v-2.4h2.29v-4.12h2.36v4.12h2.17v2.4h-2.17v3.22l1.91-.52Zm8.74-.28v2.09h3.92v7h-2.33v-.61h-5.28v.63h-2.22v-7h3.49v-2.09h-3.36c-.24,3.18-.93,6.69-2.59,9.15a12.16,12.16,0,0,0-2.09-1.53c2.13-3.2,2.31-8,2.31-11.37v-6.65h12v6.3h-3.81v1.92h4.42v2.18Zm-2.42-2.18v-1.92h-3.21v.35c0,.5,0,1,0,1.57Zm-3.21-6v1.88h7v-1.88Zm7.22,12.42h-5.28v2.18h5.28Z"/><path class="b" d="M457.55,425.55c.34.24.76.52,1.28.83,1.5.89,3.53,1,6.06,1a62.73,62.73,0,0,0,8.17-.56,11.65,11.65,0,0,0-.76,2.89c-1.59.09-5.23.24-7.54.24-2.88,0-4.71-.26-6.32-1.17-1-.55-1.79-1.27-2.27-1.27-.63,0-1.54,1.49-2.29,2.84L452,427.75a9.61,9.61,0,0,1,3.07-2.44v-5.93h-2.48V417h5Zm-1.4-10.24a27.76,27.76,0,0,0-2.87-4l2-1.29a24.77,24.77,0,0,1,3,3.84Zm8.8,8.52h-6.36v-2.42H465v-2h-3a4,4,0,0,0-2.11.37c-.14-.54-.57-1.74-.85-2.44.45-.13.8-.61,1.24-1.37.17-.31.5-1,.87-1.81h-2.33V412H462c.24-.72.48-1.44.65-2.18l2.7.72c-.15.48-.32,1-.52,1.46H472v2.22h-8.15c-.46,1-1,2-1.46,2.85H465v-2.13h2.68v2.13h3.73l0,2.4h-3.71v2h4.65v2.42h-4.65v3.07H465Z"/><path class="b" d="M482.21,425.77c.33.22.72.5,1.22.78,1.44.85,3.38,1,5.73,1a72.2,72.2,0,0,0,8.24-.5,9.87,9.87,0,0,0-.7,2.49c-1.67.08-5.29.21-7.6.21-2.72,0-4.49-.23-6-1.08-.87-.53-1.59-1.18-2.07-1.18-.66,0-1.72,1.28-2.64,2.61l-1.59-2.18a10.65,10.65,0,0,1,2.92-2.2v-5.18H477v-2.4h5.23Zm-1.15-9.89a34.53,34.53,0,0,0-3.79-3.73L479,410.6a35.93,35.93,0,0,1,3.92,3.49Zm5.47,10.61h-2.44V415.27h4.75c-1.07-.48-2.16-1-3.12-1.36l1.68-1.37c.83.31,1.85.72,2.83,1.14a16.7,16.7,0,0,0,1.83-1.23h-7.78v-2h10l.52-.13,1.52,1.25a23.66,23.66,0,0,1-3.94,3c.41.2.81.42,1.13.59l0,0h2.92v9c0,1.07-.2,1.59-.89,1.94a6.48,6.48,0,0,1-2.92.37,7.84,7.84,0,0,0-.66-2c.7,0,1.44,0,1.66,0s.32-.11.32-.33v-1h-2.57v3.18H489v-3.18h-2.5Zm0-9.35v1.18H489v-1.18Zm2.5,4.21v-1.23h-2.5v1.23Zm4.88-4.21h-2.57v1.18h2.57Zm0,4.21v-1.23h-2.57v1.23Z"/><path class="b" d="M509.67,424v-6.48h-3v8.94h13.57V429H504V417.55h-2.94v-2.5H504v-4.6h2.7v4.6h3V410h2.57v5.06h3v-4.86H518v4.86h2.88v2.5H518V424Zm2.57-6.48v4.1h3v-4.1Z"/><path class="b" d="M538.42,419.82a15.4,15.4,0,0,0,6,2.94,11.75,11.75,0,0,0-1.72,2.22,15.59,15.59,0,0,1-3.68-1.76v6.89h-2.71v-7.67h1.64a13.43,13.43,0,0,1-2.55-2.62h-2.25a14.23,14.23,0,0,1-2.61,2.59h1.85v1.51c0,2.07-.63,4.81-5,6.4a9.82,9.82,0,0,0-1.78-2.09c3.64-1.2,4.07-3,4.07-4.42V423a17.45,17.45,0,0,1-4,2,12.58,12.58,0,0,0-1.7-2.14,16.27,16.27,0,0,0,5.88-3.09h-3.47v-9.26H542v9.26Zm-9.39-5.6h3.81v-1.57H529Zm0,3.51h3.81v-1.57H529Zm10.24-5.08h-3.81v1.57h3.81Zm0,3.51h-3.81v1.57h3.81Z"/><path class="b" d="M471.27,358.62c0,1.4-.3,2.09-1.17,2.49a10.3,10.3,0,0,1-4.19.46,9.47,9.47,0,0,0-.83-2.49c1.22.07,2.66,0,3.06,0s.56-.13.56-.52v-3.27h-4.6v6.08h-2.61v-6.08H457a12.39,12.39,0,0,1-2.74,6.47,9.79,9.79,0,0,0-2.05-1.67c2.38-2.62,2.57-6.5,2.57-9.55V342.8h16.45Zm-9.78-5.73v-2.68h-4.1v.39c0,.7,0,1.49-.06,2.29Zm-4.1-7.62v2.52h4.1v-2.52Zm11.31,0h-4.6v2.52h4.6Zm0,7.62v-2.68h-4.6v2.68Z"/><path class="b" d="M495.57,351.67a21.14,21.14,0,0,1-3.62,4.77c.59,1.68,1.26,2.68,1.92,2.68.45,0,.72-1,.83-3.61a6.45,6.45,0,0,0,2.13,1.48c-.41,3.81-1.22,4.77-3.2,4.77-1.59,0-2.81-1.31-3.75-3.44a23,23,0,0,1-4,2.66,11.51,11.51,0,0,0-1.72-2.1,22.51,22.51,0,0,0,4.86-3.07,41.27,41.27,0,0,1-1.12-5.84h-4.42v2.49c1.11-.2,2.25-.42,3.36-.61l.19,2.35-3.55.72v3.73c0,1.41-.3,2.11-1.18,2.52a9.12,9.12,0,0,1-3.92.5,10.41,10.41,0,0,0-.91-2.61c1.22.06,2.48,0,2.87,0s.53-.11.53-.46v-3.16c-1.4.29-2.75.57-3.9.79l-.64-2.62c1.25-.19,2.82-.43,4.54-.74V350h-4.12v-2.46h4.12V345c-1.18.19-2.38.34-3.49.48a9.83,9.83,0,0,0-.74-2.18,55.86,55.86,0,0,0,8.65-1.83l1.74,2.2c-1.09.32-2.29.61-3.55.87v2.94h4.18c-.17-2-.23-4-.26-6h2.73a50.9,50.9,0,0,0,.22,6h5.92V350h-5.66c.17,1.31.39,2.57.63,3.69a18.62,18.62,0,0,0,2.07-3ZM494,346.88a17.51,17.51,0,0,0-3.1-3.6l2-1.33a18.67,18.67,0,0,1,3.23,3.47Z"/><path class="b" d="M506.72,342.11a39.78,39.78,0,0,1-1.7,4.7v14.86h-2.46V351.45c-.28.42-.56.79-.85,1.16a15,15,0,0,0-1.26-2.77,25,25,0,0,0,3.88-8.43Zm.07,4h2.53v15.53h-2.53Zm2.92-4.82a36.77,36.77,0,0,1,2.68,4.1l-2.11,1.33a30,30,0,0,0-2.53-4.27Zm10.5,17.54c0,1.29-.28,1.94-1.09,2.33a8.38,8.38,0,0,1-3.66.46,10.42,10.42,0,0,0-.8-2.4c1,.07,2.15.07,2.5,0s.48-.13.48-.48V344.39h-5.27v-2.33h7.84Z"/><path class="b" d="M544.49,345.42H542v13c0,1.56-.37,2.33-1.39,2.76a14.61,14.61,0,0,1-4.93.48,11.21,11.21,0,0,0-1.07-2.74c1.55.08,3.45.06,4,.06s.7-.15.7-.61V345.42h-14.4V342.8h19.63Zm-15.1,10.87V358h-2.53V347.86h9.24v8.43Zm0-6v3.49h4.14v-3.49Z"/><path class="b" d="M556.9,352.87a16,16,0,0,0,.67,2.49c-6.21,3.26-7.21,3.92-7.84,4.53a7.67,7.67,0,0,0-1.42-2.05,3.4,3.4,0,0,0,1.61-2.51v-12.5h2.84V355Zm8.89,8.74a35.54,35.54,0,0,0-3.66-4.6,14,14,0,0,1-5.67,4.77,15.4,15.4,0,0,0-2-2.26c6.54-2.66,8.06-8.07,8.41-17.26l2.77.13c-.24,5.06-.85,9.09-2.23,12.25a43.89,43.89,0,0,1,4.65,5.25ZM557.68,350a24.81,24.81,0,0,0-3.09-5.14l2.22-1.24a28.36,28.36,0,0,1,3.23,4.94Z"/><path class="b" d="M459.14,376.37a33.52,33.52,0,0,1-1.62,3.85V396h-2.35V384.3c-.52.74-1.07,1.46-1.59,2.07a17.33,17.33,0,0,0-1.33-2.55,23.61,23.61,0,0,0,4.58-8.15Zm13.4,2.59v2.11h-14V379h6.23a19.38,19.38,0,0,0-1.35-2.59l2.2-.83a17.15,17.15,0,0,1,1.59,2.87L466,379Zm-12.82,9.67h11.53v7.22H469v-.61h-7v.67h-2.21ZM471,384.25H460.05v-2H471Zm-10.92,1.14H471v2H460.05Zm1.88,5.31v2.47h7V390.7Z"/><path class="b" d="M485.06,392.9a22.6,22.6,0,0,0-2.09-2.48v5.47h-2.4v-5.12a15.36,15.36,0,0,1-2.85,3.88,13.18,13.18,0,0,0-1.13-2.49A14.24,14.24,0,0,0,480,388h-2.6v-6.41h3.23V380h-3.75v-2.22h3.75v-2.09H483v2.09h3.62V380H483v1.55h3.23V388h-2.79a31.92,31.92,0,0,1,3.2,3.38Zm-5.55-6.9h1.37v-2.49h-1.37Zm4.44-2.49h-1.26V386H484Zm11.77,12.36a36.61,36.61,0,0,0-4.25-3.21,7.44,7.44,0,0,1-4.75,3.38,5.92,5.92,0,0,0-1.18-1.72c4.86-1.42,5-3.94,5.08-10.33h2.11c0,3.86-.19,6.58-1.2,8.54l1.25-1.3a39.06,39.06,0,0,1,4.4,3Zm-8.5-14.21a8.39,8.39,0,0,0-1.09-.61,17.88,17.88,0,0,0,3.36-5.49l2.26.39c-.15.37-.33.79-.52,1.18h2.64l.32-.09,1.46.92a29.91,29.91,0,0,1-1.85,3.44h2.37v9.89h-2.3v-8.06h-4.45v8.15h-2.2Zm2.92-2.48a16,16,0,0,1-1.46,2.22h2.81a18.58,18.58,0,0,0,1.22-2.22Z"/><path class="b" d="M520.63,378.94s0,.87,0,1.17c-.28,9.74-.52,13.21-1.41,14.36a2.89,2.89,0,0,1-2.1,1.2,23.35,23.35,0,0,1-3.42,0,6,6,0,0,0-.85-2.52c1.4.13,2.68.13,3.25.13a1.18,1.18,0,0,0,1-.37c.63-.7.91-4,1.15-11.66h-4.66a18.4,18.4,0,0,1-1.92,3.44,19.93,19.93,0,0,0-1.67-1.22v10.18h-5.82v1.59h-2.36V379.09h2.47a24.05,24.05,0,0,0,.63-3.51l2.83.39c-.37,1.09-.76,2.18-1.13,3.12h3.38v3.53a22.59,22.59,0,0,0,2.94-7l2.46.57a25.23,25.23,0,0,1-.85,2.77Zm-13.05,2.42h-3.46v3.53h3.46Zm0,10v-4.27h-3.46v4.27Zm7.24-1.18a46.9,46.9,0,0,0-3-5l2-1.15a53.61,53.61,0,0,1,3.21,4.83Z"/><path class="b" d="M529.48,383.4a14.56,14.56,0,0,1-3.25,2.51,8.36,8.36,0,0,0-1.33-1.9,11.14,11.14,0,0,0,3.68-2.55h-3.22v-2h1.7a12.39,12.39,0,0,0-1.15-2.71l1.83-.76a8.77,8.77,0,0,1,1.3,2.68l-1.76.79h2.2v-3.84h2.4v3.84H536v2h-3.18c1,.57,2.2,1.29,2.57,1.55L534,384.82c-.48-.46-1.33-1.18-2.15-1.83v2.38h-2.4ZM533,394.56a19.77,19.77,0,0,0-1.66-1.11,15.21,15.21,0,0,1-5.16,2.44A7,7,0,0,0,525,394a13.8,13.8,0,0,0,4.27-1.68c-1-.54-2.11-1-3.09-1.46.39-.56.8-1.24,1.24-2h-1.66v-2.09h2.73c.19-.44.37-.85.52-1.27l2.29.42c-.11.28-.24.56-.37.85h2.76l.4-.07,1.39.53A11.74,11.74,0,0,1,533,392a16.5,16.5,0,0,1,1.55.95Zm-3.08-5.73c-.21.41-.43.81-.65,1.15.59.29,1.2.59,1.77.9a8.21,8.21,0,0,0,1.52-2.05Zm5.89-12.12c-.72,1-1.4,2-2,2.64l-1.66-.74a21.12,21.12,0,0,0,1.44-2.74Zm8,5.28a25.81,25.81,0,0,1-2.1,7.73,10.49,10.49,0,0,0,4,4,8.11,8.11,0,0,0-1.68,2.05,11.75,11.75,0,0,1-3.68-3.71,13.34,13.34,0,0,1-4.84,4,10.82,10.82,0,0,0-1.37-2.11,10.58,10.58,0,0,0,4.92-4.16,27.69,27.69,0,0,1-1.54-4.56,14.63,14.63,0,0,1-1.16,1.94,13,13,0,0,0-1.85-1.65c1.74-2.27,2.7-5.95,3.2-9.85l2.36.35c-.18,1.22-.4,2.44-.66,3.59h5.8V382Zm-4.8,0a32.56,32.56,0,0,0,1.33,5,24.67,24.67,0,0,0,1.07-5Z"/><path class="b" d="M556.5,387.13l-2.22.68v5.12c0,1.19-.2,1.83-.85,2.22a5.48,5.48,0,0,1-3,.5,9.75,9.75,0,0,0-.65-2.38,16.77,16.77,0,0,0,1.78,0c.26,0,.37-.08.37-.37v-4.4l-2,.59-.58-2.51c.76-.17,1.63-.39,2.63-.65V382.1h-2.29v-2.4h2.29v-4.12h2.36v4.12h2.17v2.4h-2.17v3.22l1.91-.52Zm8.74-.28v2.09h3.92v7h-2.33v-.61h-5.28v.63h-2.22v-7h3.49v-2.09h-3.36c-.24,3.18-.93,6.69-2.59,9.15a12.16,12.16,0,0,0-2.09-1.53c2.13-3.2,2.31-8,2.31-11.37v-6.65h12v6.3h-3.81v1.92h4.42v2.18Zm-2.42-2.18v-1.92h-3.21v.35c0,.5,0,1,0,1.57Zm-3.21-6v1.88h7v-1.88Zm7.22,12.42h-5.28v2.18h5.28Z"/><path class="b" d="M457.55,425.55c.34.24.76.52,1.28.83,1.5.89,3.53,1,6.06,1a62.73,62.73,0,0,0,8.17-.56,11.65,11.65,0,0,0-.76,2.89c-1.59.09-5.23.24-7.54.24-2.88,0-4.71-.26-6.32-1.17-1-.55-1.79-1.27-2.27-1.27-.63,0-1.54,1.49-2.29,2.84L452,427.75a9.61,9.61,0,0,1,3.07-2.44v-5.93h-2.48V417h5Zm-1.4-10.24a27.76,27.76,0,0,0-2.87-4l2-1.29a24.77,24.77,0,0,1,3,3.84Zm8.8,8.52h-6.36v-2.42H465v-2h-3a4,4,0,0,0-2.11.37c-.14-.54-.57-1.74-.85-2.44.45-.13.8-.61,1.24-1.37.17-.31.5-1,.87-1.81h-2.33V412H462c.24-.72.48-1.44.65-2.18l2.7.72c-.15.48-.32,1-.52,1.46H472v2.22h-8.15c-.46,1-1,2-1.46,2.85H465v-2.13h2.68v2.13h3.73l0,2.4h-3.71v2h4.65v2.42h-4.65v3.07H465Z"/><path class="b" d="M482.21,425.77c.33.22.72.5,1.22.78,1.44.85,3.38,1,5.73,1a72.2,72.2,0,0,0,8.24-.5,9.87,9.87,0,0,0-.7,2.49c-1.67.08-5.29.21-7.6.21-2.72,0-4.49-.23-6-1.08-.87-.53-1.59-1.18-2.07-1.18-.66,0-1.72,1.28-2.64,2.61l-1.59-2.18a10.65,10.65,0,0,1,2.92-2.2v-5.18H477v-2.4h5.23Zm-1.15-9.89a34.53,34.53,0,0,0-3.79-3.73L479,410.6a35.93,35.93,0,0,1,3.92,3.49Zm5.47,10.61h-2.44V415.27h4.75c-1.07-.48-2.16-1-3.12-1.36l1.68-1.37c.83.31,1.85.72,2.83,1.14a16.7,16.7,0,0,0,1.83-1.23h-7.78v-2h10l.52-.13,1.52,1.25a23.66,23.66,0,0,1-3.94,3c.41.2.81.42,1.13.59l0,0h2.92v9c0,1.07-.2,1.59-.89,1.94a6.48,6.48,0,0,1-2.92.37,7.84,7.84,0,0,0-.66-2c.7,0,1.44,0,1.66,0s.32-.11.32-.33v-1h-2.57v3.18H489v-3.18h-2.5Zm0-9.35v1.18H489v-1.18Zm2.5,4.21v-1.23h-2.5v1.23Zm4.88-4.21h-2.57v1.18h2.57Zm0,4.21v-1.23h-2.57v1.23Z"/><path class="b" d="M509.67,424v-6.48h-3v8.94h13.57V429H504V417.55h-2.94v-2.5H504v-4.6h2.7v4.6h3V410h2.57v5.06h3v-4.86H518v4.86h2.88v2.5H518V424Zm2.57-6.48v4.1h3v-4.1Z"/><path class="b" d="M538.42,419.82a15.4,15.4,0,0,0,6,2.94,11.75,11.75,0,0,0-1.72,2.22,15.59,15.59,0,0,1-3.68-1.76v6.89h-2.71v-7.67h1.64a13.43,13.43,0,0,1-2.55-2.62h-2.25a14.23,14.23,0,0,1-2.61,2.59h1.85v1.51c0,2.07-.63,4.81-5,6.4a9.82,9.82,0,0,0-1.78-2.09c3.64-1.2,4.07-3,4.07-4.42V423a17.45,17.45,0,0,1-4,2,12.58,12.58,0,0,0-1.7-2.14,16.27,16.27,0,0,0,5.88-3.09h-3.47v-9.26H542v9.26Zm-9.39-5.6h3.81v-1.57H529Zm0,3.51h3.81v-1.57H529Zm10.24-5.08h-3.81v1.57h3.81Zm0,3.51h-3.81v1.57h3.81Z"/><path class="d" d="M324.88,229.45l-8.12,29.41a77.19,77.19,0,1,1-79.21,80.64l-29.83-8.23c-.07,1.57-.11,3.15-.11,4.75A107.06,107.06,0,1,0,324.88,229.45Z"/><polygon class="c" points="340.93 283.45 312.21 275.51 303.85 306.15 293.72 343.31 322.44 351.26 332.53 314.24 340.93 283.45"/><polygon class="b" points="340.93 283.45 312.21 275.51 303.85 306.29 332.53 314.24 340.93 283.45"/><polygon class="c" points="270.58 264.02 251.77 331.75 280.49 339.69 299.29 272 310.51 231.62 281.79 223.67 270.58 264.02"/><polygon class="b" points="283.5 217.44 270.58 264.02 299.29 272 312.22 225.37 283.5 217.44"/><polygon class="c" points="254.84 157.18 232.32 239 219.96 283.89 181.38 232.49 171.4 268.83 209.91 320.39 209.91 320.39 238.63 328.34 261.04 246.92 283.56 165.12 254.84 157.18"/><polygon class="b" points="254.84 157.18 232.32 239 261.04 246.92 283.56 165.12 254.84 157.18"/></svg>