<?xml version="1.0" encoding="utf-8"?>
<!-- Generator: Adobe Illustrator 19.0.0, SVG Export Plug-In . SVG Version: 6.00 Build 0)  -->
<svg version="1.1" id="Layer_1" xmlns="http://www.w3.org/2000/svg" xmlns:xlink="http://www.w3.org/1999/xlink" x="0px" y="0px"
	 viewBox="0 0 612 612" style="enable-background:new 0 0 612 612;" xml:space="preserve">
<style type="text/css">
	.st0{fill:#0083BF;}
	.st1{fill:#FFFFFF;}
	.st2{fill:#90CEF1;}
	.st3{fill:#74C1EC;}
</style>
<rect y="0" class="st0" width="612" height="612"/>
<g>
	<g>
		<path class="st1" d="M316.7,308.2v-21h8.3c8.2,0,8.1,13,0,13h-4.1v8H316.7z M324.6,296c2.8,0,2.8-4.7,0-4.7h-3.7v4.7H324.6z"/>
		<path class="st1" d="M340.1,286.4h0.4l8.9,21.8h-4.7l-0.9-2.3h-7l-0.8,2.3h-4.8L340.1,286.4z M342.3,301.9l-1.9-5.5l-2,5.5H342.3z
			"/>
		<path class="st1" d="M351.8,302.4c2.4,1.7,5,1.8,6,1.7c1.2-0.1,2.3-1,2.2-2.1c-0.1-1.2-1-1.7-2.2-2.1c-3.3-1.2-6.2-2.9-6.2-6.4
			s2.4-6.2,5.9-6.4c1.1-0.1,2.5-0.1,5.2,0.9l-0.5,4.1c-2.3-0.9-3.6-0.9-4.3-0.9c-1.5,0.1-2.2,1.2-2.1,2.4c0.1,1.2,1.1,1.7,2.4,2.1
			c3.3,1.2,6.1,3.1,6.1,6.4c0,3.5-2.4,6.2-6.4,6.4c-1.2,0.1-3.8-0.1-6.6-1.5L351.8,302.4z"/>
		<path class="st1" d="M374.4,286.4h0.4l8.9,21.8H379l-0.9-2.3h-7l-0.8,2.3h-4.8L374.4,286.4z M376.5,301.9l-1.9-5.5l-2,5.5H376.5z"
			/>
		<path class="st1" d="M386.1,300.8v-13.7h4.2v13.7c0,4.4,6.8,4.4,6.8,0v-13.7h4.2v13.7C401.3,310.8,386.1,310.8,386.1,300.8z"/>
		<path class="st1" d="M410.8,287.1v16.8h6.7v4.2h-10.9v-21H410.8z"/>
		<path class="st1" d="M421,308.2v-21h10.5v4.2h-6.3v4.2h5.5v4.2h-5.5v4.2h6.7v4.2H421z"/>
		<path class="st1" d="M436.1,302.4c2.4,1.7,5,1.8,6,1.7c1.2-0.1,2.3-1,2.2-2.1c-0.1-1.2-1-1.7-2.2-2.1c-3.3-1.2-6.2-2.9-6.2-6.4
			s2.4-6.2,5.9-6.4c1.1-0.1,2.5-0.1,5.2,0.9l-0.5,4.1c-2.3-0.9-3.6-0.9-4.3-0.9c-1.5,0.1-2.2,1.2-2.1,2.4c0.1,1.2,1.1,1.7,2.4,2.1
			c3.3,1.2,6.1,3.1,6.1,6.4c0,3.5-2.4,6.2-6.4,6.4c-1.2,0.1-3.8-0.1-6.6-1.5L436.1,302.4z"/>
		<path class="st1" d="M316.2,335.5c2.4,1.7,5,1.8,6,1.7c1.2-0.1,2.3-1,2.2-2.1c-0.1-1.2-1-1.7-2.2-2.1c-3.3-1.2-6.2-2.9-6.2-6.4
			s2.4-6.2,5.9-6.4c1.1-0.1,2.5-0.1,5.2,0.9l-0.5,4.1c-2.3-0.9-3.6-0.9-4.3-0.9c-1.5,0.1-2.2,1.2-2.1,2.4c0.1,1.2,1.1,1.7,2.4,2.1
			c3.3,1.2,6.1,3.1,6.1,6.4c0,3.5-2.4,6.2-6.4,6.4c-1.2,0.1-3.8-0.1-6.6-1.5L316.2,335.5z"/>
		<path class="st1" d="M335,341.2v-16.8h-5.2v-4.2h14.7v4.2h-5.2v16.8H335z"/>
		<path class="st1" d="M353,319.4h0.4l8.9,21.8h-4.7l-0.9-2.3h-7l-0.8,2.3h-4.8L353,319.4z M355.2,335l-1.9-5.5l-2,5.5H355.2z"/>
		<path class="st1" d="M367.1,341.2v-16.8h-5.2v-4.2h14.7v4.2h-5.2v16.8H367.1z"/>
		<path class="st1" d="M379.5,341.2v-21h4.2v21H379.5z"/>
		<path class="st1" d="M388.8,335.5c2.4,1.7,5,1.8,6,1.7c1.2-0.1,2.3-1,2.2-2.1c-0.1-1.2-1-1.7-2.2-2.1c-3.3-1.2-6.2-2.9-6.2-6.4
			s2.4-6.2,5.9-6.4c1.1-0.1,2.5-0.1,5.2,0.9l-0.5,4.1c-2.3-0.9-3.6-0.9-4.3-0.9c-1.5,0.1-2.2,1.2-2.1,2.4c0.1,1.2,1.1,1.7,2.4,2.1
			c3.3,1.2,6.1,3.1,6.1,6.4c0,3.5-2.4,6.2-6.4,6.4c-1.2,0.1-3.8-0.1-6.6-1.5L388.8,335.5z"/>
		<path class="st1" d="M407.6,341.2v-16.8h-5.2v-4.2h14.7v4.2h-5.2v16.8H407.6z"/>
		<path class="st1" d="M420.1,341.2v-21h4.2v21H420.1z"/>
		<path class="st1" d="M429.8,320.2h4.2c0,2.8,0,5.6,0,8.4l5.3-8.4h4.9l-6.8,10.4l7.4,10.6h-5.2L434,333c0,2.7,0,5.5,0,8.2h-4.2
			V320.2z"/>
		<path class="st1" d="M453.6,319.4h0.4l8.9,21.8h-4.7l-0.9-2.3h-7l-0.8,2.3h-4.8L453.6,319.4z M455.7,335l-1.9-5.5l-2,5.5H455.7z"
			/>
		<path class="st1" d="M465.2,335.5c2.4,1.7,5,1.8,6,1.7c1.2-0.1,2.3-1,2.2-2.1c-0.1-1.2-1-1.7-2.2-2.1c-3.3-1.2-6.2-2.9-6.2-6.4
			s2.4-6.2,5.9-6.4c1.1-0.1,2.5-0.1,5.2,0.9l-0.5,4.1c-2.3-0.9-3.6-0.9-4.3-0.9c-1.5,0.1-2.2,1.2-2.1,2.4c0.1,1.2,1.1,1.7,2.4,2.1
			c3.3,1.2,6.1,3.1,6.1,6.4c0,3.5-2.4,6.2-6.4,6.4c-1.2,0.1-3.8-0.1-6.6-1.5L465.2,335.5z"/>
		<path class="st1" d="M322.9,374.3h-6.3v-21h6.3C336.9,353.3,336.9,374.3,322.9,374.3z M320.9,357.5v12.6h2.1
			c8.2,0,8.2-12.6,0-12.6H320.9z"/>
		<path class="st1" d="M337.8,374.3v-21h4.2v21H337.8z"/>
		<path class="st1" d="M347.4,374.3v-21H358v4.2h-6.3v4.2h5.5v4.2h-5.5v4.2h6.7v4.2H347.4z"/>
		<path class="st1" d="M367.3,374.3h-4.2v-21.5h1.1l10.6,12.3v-11.9h4.2v21.4h-1.1l-10.6-11.9V374.3z"/>
		<path class="st1" d="M390.7,352.5h0.4l8.9,21.8h-4.7l-0.9-2.3h-7l-0.8,2.3h-4.8L390.7,352.5z M392.9,368.1l-1.9-5.5l-2,5.5H392.9z
			"/>
		<path class="st2" d="M320.6,393.5c0-0.8-0.6-1.4-1.5-1.5c-1.3-0.1-2.9,0.7-3.3,1.2l-0.7-2.8c1.1-0.8,2.9-1.4,4.3-1.3
			c4.2,0.2,5.7,3.9,3.2,7.3l-2.9,4.4h4.3v2.9h-9.5l5.4-8.6C320.6,394,320.6,393.5,320.6,393.5z"/>
		<path class="st2" d="M326.4,396.5c0-4.1,1.4-7.4,5-7.4c3.6,0,5,3.3,5,7.4c0,4.1-1.4,7.4-5,7.4
			C327.8,403.9,326.4,400.6,326.4,396.5z M333.5,396.5c0-2.6-0.5-4.7-2.2-4.7c-1.6,0-2.1,2.1-2.1,4.7c0,2.6,0.5,4.7,2.1,4.7
			C333,401.2,333.5,399.1,333.5,396.5z"/>
		<path class="st2" d="M340.1,403.9c-2.2,0-2.2-3.3,0-3.3C342.3,400.6,342.2,403.9,340.1,403.9z"/>
		<path class="st2" d="M343.3,389.3h5.2v14.4h-2.9v-11.5h-2.4V389.3z"/>
		<path class="st2" d="M351.8,396.5c0-4.1,1.4-7.4,5-7.4c3.6,0,5,3.3,5,7.4c0,4.1-1.4,7.4-5,7.4
			C353.2,403.9,351.8,400.6,351.8,396.5z M358.9,396.5c0-2.6-0.5-4.7-2.2-4.7c-1.6,0-2.1,2.1-2.1,4.7c0,2.6,0.5,4.7,2.1,4.7
			C358.4,401.2,358.9,399.1,358.9,396.5z"/>
		<path class="st2" d="M365.5,403.9c-2.2,0-2.2-3.3,0-3.3C367.7,400.6,367.6,403.9,365.5,403.9z"/>
		<path class="st2" d="M375.3,393.5c0-0.8-0.6-1.4-1.5-1.5c-1.3-0.1-2.9,0.7-3.3,1.2l-0.7-2.8c1.1-0.8,2.9-1.4,4.3-1.3
			c4.2,0.2,5.7,3.9,3.2,7.3l-2.9,4.4h4.3v2.9h-9.5l5.4-8.6C375.3,394,375.3,393.5,375.3,393.5z"/>
		<path class="st2" d="M381.1,396.5c0-4.1,1.4-7.4,5-7.4c3.6,0,5,3.3,5,7.4c0,4.1-1.4,7.4-5,7.4
			C382.5,403.9,381.1,400.6,381.1,396.5z M388.2,396.5c0-2.6-0.5-4.7-2.2-4.7c-1.6,0-2.1,2.1-2.1,4.7c0,2.6,0.5,4.7,2.1,4.7
			C387.7,401.2,388.2,399.1,388.2,396.5z"/>
		<path class="st2" d="M392.9,389.3h5.2v14.4h-2.9v-11.5h-2.4V389.3z"/>
		<path class="st2" d="M410.2,399.5c0,2.4-1.6,4.2-4.3,4.4c-0.7,0-2.7,0-4.6-0.6l0.3-2.9c4.5,1.5,5.8,0.3,5.8-0.9
			c0-1.7-1.1-2.2-5.5-2.5v-7.6h7.4v2.8h-4.4v2.5C408.3,394.9,410.2,396.1,410.2,399.5z"/>
		<path class="st1" d="M318.4,420v10.5h4.2v2.6h-6.8V420H318.4z"/>
		<path class="st1" d="M329.1,419.5h0.3l5.5,13.6h-3l-0.5-1.4h-4.4l-0.5,1.4h-3L329.1,419.5z M330.5,429.2l-1.2-3.4l-1.2,3.4H330.5z
			"/>
		<path class="st1" d="M337.3,420h5.2c2.3,0,3.8,1.7,3.7,4c0,1-0.4,2-1.2,2.6c0.9,0.6,1.4,1.6,1.4,2.6c0,2.2-1.7,3.9-3.9,3.9h-5.2
			V420z M339.9,425.2h1.6h0.8c0.8,0,1.2-0.6,1.2-1.3c0-0.7-0.5-1.3-1.2-1.3h-2.3V425.2z M339.9,430.5h1.6h0.8c0.8,0,1.3-0.6,1.3-1.3
			s-0.6-1.3-1.3-1.3h-2.3V430.5z"/>
		<path class="st1" d="M354.1,419.7l5.3,13.4h-3l-0.5-1.4h-4.4l-0.5,1.4h-3l5.3-13.4H354.1z M351.3,416.6h4.9v2.4h-4.9V416.6z
			 M354.9,429.2l-1.2-3.6l-1.2,3.6H354.9z"/>
		<path class="st1" d="M361.7,420h2.6c0,1.7,0,3.5,0,5.2l3.3-5.2h3.1l-4.3,6.5l4.6,6.7h-3.3l-3.5-5.1c0,1.7,0,3.5,0,5.1h-2.6V420z"
			/>
		<path class="st1" d="M373.4,433.1V420h2.6v13.1H373.4z"/>
		<path class="st1" d="M389.3,433.1h-3.9V420h3.9C398,420,398,433.1,389.3,433.1z M388,422.6v7.9h1.3c5.1,0,5.1-7.9,0-7.9H388z"/>
		<path class="st1" d="M402.8,419.5h0.3l5.5,13.6h-3l-0.5-1.4h-4.4l-0.5,1.4h-3L402.8,419.5z M404.2,429.2l-1.2-3.4l-1.2,3.4H404.2z
			"/>
		<path class="st1" d="M412.2,433.1v-10.5h-3.3V420h9.2v2.6h-3.3v10.5H412.2z"/>
		<path class="st1" d="M420.5,433.1V420h2.6v13.1H420.5z"/>
		<path class="st1" d="M318.4,442v10.5h4.2v2.6h-6.8V442H318.4z"/>
		<path class="st1" d="M329.1,441.6h0.3l5.5,13.6h-3l-0.5-1.4h-4.4l-0.5,1.4h-3L329.1,441.6z M330.5,451.3l-1.2-3.4l-1.2,3.4H330.5z
			"/>
		<path class="st1" d="M337.3,442h5.2c2.3,0,3.8,1.7,3.7,4c0,1-0.4,2-1.2,2.6c0.9,0.6,1.4,1.6,1.4,2.6c0,2.2-1.7,3.9-3.9,3.9h-5.2
			V442z M339.9,447.3h1.6h0.8c0.8,0,1.2-0.6,1.2-1.3c0-0.7-0.5-1.3-1.2-1.3h-2.3V447.3z M339.9,452.5h1.6h0.8c0.8,0,1.3-0.6,1.3-1.3
			s-0.6-1.3-1.3-1.3h-2.3V452.5z"/>
		<path class="st1" d="M354.1,441.8l5.3,13.4h-3l-0.5-1.4h-4.4l-0.5,1.4h-3l5.3-13.4H354.1z M351.3,438.6h4.9v2.4h-4.9V438.6z
			 M354.9,451.3l-1.2-3.6l-1.2,3.6H354.9z"/>
		<path class="st1" d="M361.7,442h2.6c0,1.7,0,3.5,0,5.2l3.3-5.2h3.1l-4.3,6.5l4.6,6.7h-3.3l-3.5-5.1c0,1.7,0,3.5,0,5.1h-2.6V442z"
			/>
		<path class="st1" d="M377.2,441.6h0.3l5.5,13.6h-3l-0.5-1.4h-4.4l-0.5,1.4h-3L377.2,441.6z M378.5,451.3l-1.2-3.4l-1.2,3.4H378.5z
			"/>
		<path class="st1" d="M385.3,455.2V442h2.6v13.1H385.3z"/>
		<path class="st1" d="M401.2,455.2h-3.9V442h3.9C409.9,442,409.9,455.2,401.2,455.2z M399.9,444.7v7.9h1.3c5.1,0,5.1-7.9,0-7.9
			H399.9z"/>
		<path class="st1" d="M409.5,455.2c1.6-3.5,3.2-7.1,4.7-10.6h-4V442h8c-1.6,3.5-3.2,7-4.7,10.5h4.9v2.6H409.5z"/>
		<path class="st1" d="M420.3,438.6h4.7v2.3h-4.7V438.6z M421.3,455.2V442h2.6v13.1H421.3z"/>
		<path class="st1" d="M431.4,455.4L426,442h3l1.7,4.4l1,2.7l0.9-2.6l1.8-4.5h3l-5.4,13.4H431.4z"/>
		<path class="st1" d="M439.5,455.2V442h6.6v2.6h-4v2.6h3.5v2.6h-3.5v2.6h4.2v2.6H439.5z"/>
		<path class="st1" d="M449.9,455.2V442h2.6v13.1H449.9z"/>
		<path class="st1" d="M457.3,455.3c-2,0-2-3,0-3C459.3,452.3,459.3,455.3,457.3,455.3z"/>
	</g>
</g>
<g>
	<path class="st3" d="M198.5,353.7c-8,0-15.9-1.1-23.6-3.2c-1.3-0.4-2.7-0.8-4-1.2c-21.4-6.9-39.3-21.4-50.5-40.9
		c-12-20.9-15.1-45.1-8.8-68.3c6.3-23.2,21.3-42.6,42.1-54.5c13.7-7.8,29.1-12,44.6-12c8,0,15.9,1.1,23.7,3.2
		c23.2,6.3,42.6,21.3,54.5,42.1c10.1,17.7,13.9,37.7,11,57.8l-0.1,0.6h-8.8l0.1-0.8c3-18.5-0.4-37-9.7-53.3
		c-10.8-18.9-28.3-32.4-49.3-38.1c-7-1.9-14.2-2.9-21.4-2.9c-14.1,0-28,3.7-40.3,10.8c-18.9,10.8-32.4,28.3-38.1,49.3
		c-5.7,21-2.9,42.9,7.9,61.8c10.8,18.9,28.3,32.4,49.3,38.1c7.9,2.2,16.3,3.1,24.6,2.7l0.4-0.1c6.6-0.3,13.3-1.4,19.8-3.4l0.2,0
		l0.2,0c5.1,1,10.4,1.5,15.9,1.5l2.9,0l-2.6,1.3c-4.3,2.1-8.7,3.9-13.2,5.3l-0.2,0.1c-0.2,0.1-0.3,0.2-0.5,0.2
		C216.1,352.4,207.4,353.7,198.5,353.7z"/>
</g>
<path class="st1" d="M230,260.7c-1-7.4-8.1-12.7-15.8-11.6c-7.7,1.1-13,8.1-11.9,15.5c1.1,7.5,8,12.7,15.7,11.6
	C225.7,275.1,231,268.2,230,260.7z M217,269.3c-3.8,0.5-7.1-2-7.6-5.8c-0.5-3.7,1.9-7.2,5.8-7.7c3.8-0.5,7.1,2.1,7.7,5.9
	C223.3,265.5,220.8,268.8,217,269.3z"/>
<path class="st1" d="M266.5,293.8c-1-7.4-8.1-12.7-15.8-11.6c-7.7,1.1-13,8.1-11.9,15.5c1.1,7.5,8,12.7,15.7,11.6
	C262.2,308.2,267.5,301.3,266.5,293.8z M253.5,302.4c-3.8,0.5-7.1-2-7.6-5.8c-0.5-3.7,1.9-7.2,5.8-7.7c3.8-0.5,7.1,2.1,7.7,5.9
	C259.8,298.6,257.3,301.9,253.5,302.4z"/>
<g>
	<path class="st1" d="M214.5,306.9h-11.2l49.4-54h11.1L214.5,306.9z"/>
</g>
<path class="st1" d="M243.1,330c-1.5,0.1-3,0.2-4.5,0.2c-20.8,0-33.7-7.7-40.8-14.2c-10-9.1-15.7-21.9-15.7-35.1v-0.7h-8.7v0.7
	c0,15.6,6.8,30.8,18.6,41.5c8.3,7.5,23,16.5,46.6,16.5c2.6,0,5.4-0.1,8.2-0.4L243.1,330z"/>
</svg>
