<?xml version="1.0" encoding="utf-8"?>
<!-- Generator: Adobe Illustrator 19.0.0, SVG Export Plug-In . SVG Version: 6.00 Build 0)  -->
<svg version="1.1" id="Layer_1" xmlns="http://www.w3.org/2000/svg" xmlns:xlink="http://www.w3.org/1999/xlink" x="0px" y="0px"
	 viewBox="0 0 612 612" style="enable-background:new 0 0 612 612;" xml:space="preserve">
<style type="text/css">
	.st0{fill:#FFFFFF;stroke:#000000;stroke-miterlimit:10;}
	.st1{fill:#0083BF;}
	.st2{fill:#59AFE1;}
	.st3{fill:#74C1EC;}
</style>
<rect y="0" class="st0" width="612" height="612"/>
<g>
	<g>
		<path class="st1" d="M313.8,308.1v-20.2h8c7.9,0,7.9,12.5,0,12.5h-3.9v7.7H313.8z M321.4,296.4c2.7,0,2.7-4.5,0-4.5h-3.6v4.5
			H321.4z"/>
		<path class="st1" d="M336.4,287.1h0.4l8.5,21h-4.6l-0.8-2.2h-6.7l-0.8,2.2h-4.6L336.4,287.1z M338.4,302.1l-1.8-5.3l-1.9,5.3
			H338.4z"/>
		<path class="st1" d="M347.6,302.5c2.3,1.6,4.8,1.7,5.8,1.6c1.2-0.1,2.2-0.9,2.1-2c-0.1-1.2-1-1.7-2.1-2.1c-3.2-1.2-6-2.8-6-6.2
			c0-3.4,2.4-6,5.7-6.2c1-0.1,2.4-0.1,5,0.9l-0.5,3.9c-2.2-0.9-3.5-0.9-4.1-0.9c-1.4,0.1-2.1,1.1-2,2.3c0.1,1.1,1.1,1.6,2.3,2
			c3.1,1.2,5.9,3,5.9,6.2c0,3.4-2.3,6-6.1,6.2c-1.1,0.1-3.7-0.1-6.4-1.5L347.6,302.5z"/>
		<path class="st1" d="M369.4,287.1h0.4l8.5,21h-4.6l-0.8-2.2h-6.7l-0.8,2.2h-4.6L369.4,287.1z M371.5,302.1l-1.8-5.3l-1.9,5.3
			H371.5z"/>
		<path class="st1" d="M380.6,301v-13.2h4.1V301c0,4.3,6.6,4.3,6.6,0v-13.2h4V301C395.3,310.6,380.6,310.6,380.6,301z"/>
		<path class="st1" d="M404.5,287.8V304h6.4v4.1h-10.5v-20.3H404.5z"/>
		<path class="st1" d="M414.3,308.1v-20.3h10.1v4.1h-6.1v4.1h5.3v4.1h-5.3v4.1h6.4v4.1H414.3z"/>
		<path class="st1" d="M428.9,302.5c2.3,1.6,4.8,1.7,5.8,1.6c1.2-0.1,2.2-0.9,2.1-2c-0.1-1.2-1-1.7-2.1-2.1c-3.2-1.2-6-2.8-6-6.2
			c0-3.4,2.4-6,5.7-6.2c1-0.1,2.4-0.1,5,0.9l-0.5,3.9c-2.2-0.9-3.5-0.9-4.1-0.9c-1.4,0.1-2.1,1.1-2,2.3c0.1,1.1,1.1,1.6,2.3,2
			c3.1,1.2,5.9,3,5.9,6.2c0,3.4-2.3,6-6.1,6.2c-1.1,0.1-3.7-0.1-6.4-1.5L428.9,302.5z"/>
		<path class="st1" d="M313.3,334.4c2.3,1.6,4.8,1.7,5.8,1.6c1.2-0.1,2.2-0.9,2.1-2c-0.1-1.2-1-1.7-2.1-2.1c-3.2-1.2-6-2.8-6-6.2
			c0-3.4,2.4-6,5.7-6.2c1-0.1,2.4-0.1,5,0.9l-0.5,3.9c-2.2-0.9-3.5-0.9-4.1-0.9c-1.4,0.1-2.1,1.1-2,2.3c0.1,1.1,1.1,1.6,2.3,2
			c3.1,1.2,5.9,3,5.9,6.2c0,3.4-2.3,6-6.1,6.2c-1.1,0.1-3.7-0.1-6.4-1.5L313.3,334.4z"/>
		<path class="st1" d="M331.5,340v-16.2h-5v-4h14.1v4h-5V340H331.5z"/>
		<path class="st1" d="M348.8,319h0.4l8.5,21h-4.6l-0.8-2.2h-6.7l-0.8,2.2h-4.6L348.8,319z M350.9,334l-1.8-5.3l-1.9,5.3H350.9z"/>
		<path class="st1" d="M362.3,340v-16.2h-5v-4h14.1v4h-5V340H362.3z"/>
		<path class="st1" d="M374.4,340v-20.3h4.1V340H374.4z"/>
		<path class="st1" d="M383.3,334.4c2.3,1.6,4.8,1.7,5.8,1.6c1.2-0.1,2.2-0.9,2.1-2c-0.1-1.2-1-1.7-2.1-2.1c-3.2-1.2-6-2.8-6-6.2
			c0-3.4,2.4-6,5.7-6.2c1-0.1,2.4-0.1,5,0.9l-0.5,3.9c-2.2-0.9-3.5-0.9-4.1-0.9c-1.4,0.1-2.1,1.1-2,2.3c0.1,1.1,1.1,1.6,2.3,2
			c3.1,1.2,5.9,3,5.9,6.2c0,3.4-2.3,6-6.1,6.2c-1.1,0.1-3.7-0.1-6.4-1.5L383.3,334.4z"/>
		<path class="st1" d="M401.4,340v-16.2h-5v-4h14.1v4h-5V340H401.4z"/>
		<path class="st1" d="M413.5,340v-20.3h4.1V340H413.5z"/>
		<path class="st1" d="M422.8,319.7h4.1c0,2.7,0,5.4,0,8.1l5.1-8.1h4.7l-6.6,10l7.1,10.3h-5l-5.4-7.9c0,2.6,0,5.3,0,7.9h-4.1V319.7z
			"/>
		<path class="st1" d="M445.7,319h0.4l8.5,21h-4.6l-0.8-2.2h-6.7l-0.8,2.2h-4.6L445.7,319z M447.8,334l-1.8-5.3l-1.9,5.3H447.8z"/>
		<path class="st1" d="M457,334.4c2.3,1.6,4.8,1.7,5.8,1.6c1.2-0.1,2.2-0.9,2.1-2c-0.1-1.2-1-1.7-2.1-2.1c-3.2-1.2-6-2.8-6-6.2
			c0-3.4,2.4-6,5.7-6.2c1-0.1,2.4-0.1,5,0.9l-0.5,3.9c-2.2-0.9-3.5-0.9-4.1-0.9c-1.4,0.1-2.1,1.1-2,2.3c0.1,1.1,1.1,1.6,2.3,2
			c3.1,1.2,5.9,3,5.9,6.2c0,3.4-2.3,6-6.1,6.2c-1.1,0.1-3.7-0.1-6.4-1.5L457,334.4z"/>
		<path class="st1" d="M319.8,371.9h-6v-20.3h6C333.3,351.6,333.3,371.9,319.8,371.9z M317.8,355.6v12.2h2c7.9,0,7.9-12.2,0-12.2
			H317.8z"/>
		<path class="st1" d="M334.1,371.9v-20.3h4.1v20.3H334.1z"/>
		<path class="st1" d="M343.4,371.9v-20.3h10.1v4.1h-6.1v4.1h5.3v4.1h-5.3v4.1h6.4v4.1H343.4z"/>
		<path class="st1" d="M362.6,371.9h-4.1v-20.7h1.1l10.2,11.9v-11.5h4.1v20.7h-1.1l-10.3-11.5V371.9z"/>
		<path class="st1" d="M385.1,350.9h0.4l8.5,21h-4.6l-0.8-2.2H382l-0.8,2.2h-4.6L385.1,350.9z M387.2,365.9l-1.8-5.3l-1.9,5.3H387.2
			z"/>
		<path class="st2" d="M317.5,390.3c0-0.8-0.6-1.4-1.4-1.4c-1.2-0.1-2.8,0.7-3.2,1.1l-0.7-2.7c1.1-0.8,2.8-1.3,4.1-1.3
			c4.1,0.2,5.5,3.8,3.1,7.1l-2.7,4.2h4.1v2.8h-9.2l5.2-8.3C317.5,390.9,317.5,390.3,317.5,390.3z"/>
		<path class="st2" d="M323.1,393.2c0-4,1.3-7.2,4.8-7.2c3.5,0,4.8,3.2,4.8,7.2s-1.3,7.2-4.8,7.2
			C324.5,400.4,323.1,397.2,323.1,393.2z M330,393.2c0-2.5-0.5-4.5-2.1-4.5c-1.5,0-2.1,2-2.1,4.5c0,2.5,0.5,4.5,2.1,4.5
			C329.5,397.8,330,395.8,330,393.2z"/>
		<path class="st2" d="M336.3,400.3c-2.1,0-2.1-3.1,0-3.1C338.5,397.2,338.4,400.3,336.3,400.3z"/>
		<path class="st2" d="M339.4,386.3h5v13.9h-2.8v-11.1h-2.3V386.3z"/>
		<path class="st2" d="M347.6,393.2c0-4,1.3-7.2,4.8-7.2c3.5,0,4.8,3.2,4.8,7.2s-1.3,7.2-4.8,7.2
			C348.9,400.4,347.6,397.2,347.6,393.2z M354.5,393.2c0-2.5-0.5-4.5-2.1-4.5c-1.5,0-2.1,2-2.1,4.5c0,2.5,0.5,4.5,2.1,4.5
			C353.9,397.8,354.5,395.8,354.5,393.2z"/>
		<path class="st2" d="M360.8,400.3c-2.1,0-2.1-3.1,0-3.1C362.9,397.2,362.9,400.3,360.8,400.3z"/>
		<path class="st2" d="M370.3,390.3c0-0.8-0.6-1.4-1.4-1.4c-1.2-0.1-2.8,0.7-3.2,1.1l-0.7-2.7c1.1-0.8,2.8-1.3,4.1-1.3
			c4.1,0.2,5.5,3.8,3.1,7.1l-2.7,4.2h4.1v2.8h-9.2l5.2-8.3C370.3,390.9,370.3,390.3,370.3,390.3z"/>
		<path class="st2" d="M375.9,393.2c0-4,1.3-7.2,4.8-7.2c3.5,0,4.8,3.2,4.8,7.2s-1.3,7.2-4.8,7.2
			C377.2,400.4,375.9,397.2,375.9,393.2z M382.7,393.2c0-2.5-0.5-4.5-2.1-4.5c-1.5,0-2.1,2-2.1,4.5c0,2.5,0.5,4.5,2.1,4.5
			C382.2,397.8,382.7,395.8,382.7,393.2z"/>
		<path class="st2" d="M387.2,386.3h5v13.9h-2.8v-11.1h-2.3V386.3z"/>
		<path class="st2" d="M403.9,396.1c0,2.3-1.6,4.1-4.2,4.2c-0.7,0-2.6,0-4.4-0.6l0.3-2.8c4.3,1.5,5.6,0.3,5.6-0.9
			c0-1.6-1-2.1-5.3-2.5v-7.3h7.1v2.7h-4.3v2.4C402.1,391.7,403.9,392.9,403.9,396.1z"/>
		<path class="st1" d="M315.4,415.9V426h4v2.5h-6.6v-12.7H315.4z"/>
		<path class="st1" d="M325.7,415.4h0.3l5.3,13.1h-2.9l-0.5-1.4h-4.2l-0.5,1.4h-2.9L325.7,415.4z M327,424.8l-1.2-3.3l-1.2,3.3H327z
			"/>
		<path class="st1" d="M333.6,415.9h5c2.2,0,3.6,1.6,3.6,3.8c0,1-0.4,1.9-1.2,2.5c0.8,0.6,1.3,1.5,1.3,2.5c0,2.1-1.7,3.8-3.7,3.8h-5
			V415.9z M336.2,421h1.5h0.7c0.7,0,1.2-0.6,1.2-1.3c0-0.7-0.4-1.3-1.2-1.3h-2.2V421z M336.2,426h1.5h0.7c0.7,0,1.3-0.6,1.3-1.3
			c0-0.7-0.5-1.3-1.3-1.3h-2.2V426z"/>
		<path class="st1" d="M349.8,415.7l5.1,12.9H352l-0.5-1.4h-4.2l-0.5,1.4H344l5.1-12.9H349.8z M347.1,412.6h4.7v2.3h-4.7V412.6z
			 M350.6,424.8l-1.2-3.5l-1.2,3.5H350.6z"/>
		<path class="st1" d="M357.2,415.9h2.5c0,1.7,0,3.4,0,5l3.2-5h3l-4.1,6.3l4.5,6.4h-3.1l-3.4-5c0,1.6,0,3.3,0,5h-2.5V415.9z"/>
		<path class="st1" d="M368.5,428.6v-12.7h2.5v12.7H368.5z"/>
		<path class="st1" d="M383.7,428.6H380v-12.7h3.8C392.2,415.9,392.2,428.6,383.7,428.6z M382.5,418.4v7.6h1.2c4.9,0,4.9-7.6,0-7.6
			H382.5z"/>
		<path class="st1" d="M396.8,415.4h0.3l5.3,13.1h-2.9l-0.5-1.4h-4.2l-0.5,1.4h-2.9L396.8,415.4z M398.1,424.8l-1.2-3.3l-1.2,3.3
			H398.1z"/>
		<path class="st1" d="M405.8,428.6v-10.1h-3.2v-2.5h8.8v2.5h-3.2v10.1H405.8z"/>
		<path class="st1" d="M413.9,428.6v-12.7h2.5v12.7H413.9z"/>
		<path class="st1" d="M315.4,437.2v10.1h4v2.5h-6.6v-12.7H315.4z"/>
		<path class="st1" d="M325.7,436.7h0.3l5.3,13.1h-2.9l-0.5-1.4h-4.2l-0.5,1.4h-2.9L325.7,436.7z M327,446.1l-1.2-3.3l-1.2,3.3H327z
			"/>
		<path class="st1" d="M333.6,437.1h5c2.2,0,3.6,1.6,3.6,3.8c0,1-0.4,1.9-1.2,2.5c0.8,0.6,1.3,1.5,1.3,2.5c0,2.1-1.7,3.8-3.7,3.8h-5
			V437.1z M336.2,442.2h1.5h0.7c0.7,0,1.2-0.6,1.2-1.3c0-0.7-0.4-1.3-1.2-1.3h-2.2V442.2z M336.2,447.3h1.5h0.7
			c0.7,0,1.3-0.6,1.3-1.3c0-0.7-0.5-1.3-1.3-1.3h-2.2V447.3z"/>
		<path class="st1" d="M349.8,436.9l5.1,12.9H352l-0.5-1.4h-4.2l-0.5,1.4H344l5.1-12.9H349.8z M347.1,433.9h4.7v2.3h-4.7V433.9z
			 M350.6,446.1l-1.2-3.5l-1.2,3.5H350.6z"/>
		<path class="st1" d="M357.2,437.2h2.5c0,1.7,0,3.4,0,5l3.2-5h3l-4.1,6.3l4.5,6.4h-3.1l-3.4-5c0,1.6,0,3.3,0,5h-2.5V437.2z"/>
		<path class="st1" d="M372.1,436.7h0.3l5.3,13.1h-2.9l-0.5-1.4h-4.2l-0.5,1.4h-2.9L372.1,436.7z M373.4,446.1l-1.2-3.3l-1.2,3.3
			H373.4z"/>
		<path class="st1" d="M379.9,449.8v-12.7h2.5v12.7H379.9z"/>
		<path class="st1" d="M395.2,449.8h-3.8v-12.7h3.8C403.6,437.2,403.6,449.8,395.2,449.8z M394,439.7v7.6h1.2c4.9,0,4.9-7.6,0-7.6
			H394z"/>
		<path class="st1" d="M403.3,449.8c1.5-3.4,3-6.8,4.6-10.2h-3.9v-2.5h7.7c-1.5,3.4-3,6.7-4.6,10.1h4.7v2.6H403.3z"/>
		<path class="st1" d="M413.7,433.8h4.6v2.2h-4.6V433.8z M414.6,449.8v-12.7h2.5v12.7H414.6z"/>
		<path class="st1" d="M424.4,450.1l-5.2-12.9h2.9l1.7,4.2l0.9,2.6l0.9-2.5l1.7-4.3h2.9l-5.2,12.9H424.4z"/>
		<path class="st1" d="M432.2,449.8v-12.7h6.3v2.5h-3.8v2.5h3.3v2.5h-3.3v2.5h4v2.5H432.2z"/>
		<path class="st1" d="M442.2,449.8v-12.7h2.5v12.7H442.2z"/>
		<path class="st1" d="M449.3,450c-1.9,0-1.9-2.9,0-2.9C451.3,447.1,451.2,450,449.3,450z"/>
	</g>
</g>
<g>
	<path class="st3" d="M199.8,352c-7.7,0-15.3-1-22.8-3c-1.3-0.3-2.6-0.7-3.9-1.1c-20.6-6.6-37.9-20.6-48.7-39.5
		c-11.5-20.1-14.5-43.5-8.5-65.9c6.1-22.4,20.5-41.1,40.6-52.6c13.2-7.5,28-11.5,43-11.5c7.7,0,15.4,1,22.9,3.1
		c22.4,6.1,41.1,20.5,52.6,40.6c9.8,17.1,13.4,36.3,10.6,55.7l-0.1,0.6h-8.5l0.1-0.8c2.9-17.9-0.4-35.6-9.4-51.4
		c-10.4-18.2-27.3-31.2-47.5-36.7c-6.8-1.8-13.7-2.8-20.7-2.8c-13.5,0-27,3.6-38.9,10.4c-18.2,10.4-31.2,27.3-36.7,47.5
		c-5.5,20.2-2.8,41.4,7.7,59.6c10.4,18.2,27.3,31.2,47.5,36.7c7.7,2.1,15.7,3,23.7,2.6l0.4-0.1c6.4-0.3,12.8-1.4,19.1-3.3l0.2,0
		l0.2,0c4.9,0.9,10,1.4,15.3,1.4l2.8,0l-2.5,1.2c-4.1,2-8.4,3.8-12.7,5.1l-0.2,0.1c-0.2,0.1-0.3,0.2-0.5,0.2
		C216.8,350.8,208.3,352,199.8,352z"/>
</g>
<path class="st1" d="M230.2,262.3c-1-7.2-7.8-12.2-15.3-11.2c-7.4,1-12.5,7.8-11.5,14.9c1,7.2,7.7,12.2,15.2,11.2
	C226,276.2,231.2,269.5,230.2,262.3z M217.6,270.6c-3.7,0.5-6.9-1.9-7.4-5.6c-0.5-3.6,1.9-6.9,5.5-7.5c3.7-0.5,6.9,2.1,7.4,5.6
	C223.7,266.9,221.3,270.1,217.6,270.6z"/>
<path class="st1" d="M265.4,294.2c-1-7.2-7.8-12.2-15.3-11.2c-7.4,1-12.5,7.8-11.5,14.9c1,7.2,7.8,12.2,15.2,11.2
	C261.2,308.1,266.4,301.5,265.4,294.2z M252.8,302.6c-3.7,0.5-6.9-1.9-7.4-5.6c-0.5-3.6,1.9-6.9,5.5-7.5c3.7-0.5,6.9,2.1,7.4,5.6
	C258.9,298.9,256.5,302.1,252.8,302.6z"/>
<g>
	<path class="st1" d="M215.3,306.9h-10.8l47.6-52.1h10.7L215.3,306.9z"/>
</g>
<path class="st1" d="M242.8,329.1c-1.4,0.1-2.9,0.1-4.3,0.1c-20.1,0-32.5-7.5-39.3-13.7c-9.6-8.8-15.2-21.2-15.2-33.9V281h-8.3v0.7
	c0,15.1,6.5,29.7,17.9,40c8,7.3,22.2,15.9,44.9,15.9c2.6,0,5.2-0.1,7.9-0.4L242.8,329.1z"/>
</svg>
