<?xml version="1.0" encoding="utf-8"?>
<!-- Generator: Adobe Illustrator 19.0.0, SVG Export Plug-In . SVG Version: 6.00 Build 0)  -->
<svg version="1.1" id="Layer_1" xmlns="http://www.w3.org/2000/svg" xmlns:xlink="http://www.w3.org/1999/xlink" x="0px" y="0px"
	 viewBox="0 0 612 612" style="enable-background:new 0 0 612 612;" xml:space="preserve">
<style type="text/css">
	.st0{fill:#FFFFFF;stroke:#000000;stroke-miterlimit:10;}
	.st1{fill:#0083BF;}
	.st2{fill:#59AFE1;}
	.st3{fill:#74C1EC;}
</style>
<rect y="0" class="st0" width="612" height="612"/>
<g>
	<g>
		<path class="st1" d="M323,304.2c-1.9,0.7-3,0.9-4.2,0.9c-3.2,0-5.6-1.3-7.2-2.8c-1.8-1.8-2.8-4.3-2.8-6.8c0-2.6,1.1-5.1,2.8-6.8
			c1.6-1.7,4.1-2.9,7-2.9c0.9,0,2.4,0.1,4.3,0.9v5.8c-1.6-1.9-3.4-2-4.2-2c-1.4,0-2.4,0.4-3.3,1.2c-1.1,1.1-1.6,2.5-1.6,3.8
			c0,1.3,0.5,2.7,1.5,3.6c0.8,0.8,2.1,1.3,3.4,1.3c0.7,0,2.5-0.1,4.2-1.9V304.2z"/>
		<path class="st1" d="M326.8,304.7v-18.5h7.2c1.3,0,2.9,0.2,4.1,1.4c0.6,0.7,1.1,1.8,1.1,3.5c0,0.8-0.1,1.5-0.5,2.3
			c-0.4,0.7-0.8,1.1-1.5,1.4c1,0.1,1.9,0.6,2.5,1.1c0.8,0.7,1.3,1.9,1.3,3.4c0,1.8-0.7,2.9-1.4,3.6c-1,1-2.8,1.8-5,1.8H326.8z
			 M331.6,293.4h0.9c0.5,0,1.3-0.1,1.8-0.6c0.3-0.3,0.4-0.8,0.4-1.2c0-0.5-0.2-0.9-0.4-1.3c-0.3-0.3-0.9-0.6-1.8-0.6h-0.9V293.4z
			 M331.6,300.9h1.1c1.3,0,2.4-0.1,3-0.8c0.2-0.3,0.4-0.7,0.4-1.2c0-0.6-0.2-1.1-0.5-1.3c-0.6-0.6-1.8-0.6-3-0.6h-1V300.9z"/>
		<path class="st1" d="M354.7,290.2H349v3.1h5.4v4.1H349v3.2h5.7v4.1h-10.5v-18.5h10.5V290.2z"/>
		<path class="st1" d="M365.7,290.2v14.5h-4.8v-14.5h-3.9v-4.1h12.7v4.1H365.7z"/>
		<path class="st1" d="M385.4,304.2c-1.9,0.7-3,0.9-4.2,0.9c-3.2,0-5.6-1.3-7.2-2.8c-1.8-1.8-2.8-4.3-2.8-6.8c0-2.6,1.1-5.1,2.8-6.8
			c1.6-1.7,4.1-2.9,7-2.9c0.9,0,2.4,0.1,4.3,0.9v5.8c-1.6-1.9-3.4-2-4.2-2c-1.4,0-2.4,0.4-3.3,1.2c-1.1,1.1-1.6,2.5-1.6,3.8
			c0,1.3,0.5,2.7,1.5,3.6c0.8,0.8,2.1,1.3,3.4,1.3c0.7,0,2.5-0.1,4.2-1.9V304.2z"/>
		<path class="st1" d="M393.9,293.8l5.9-7.6h6l-7.4,8.8l8,9.8h-6.2l-6.3-8v8h-4.8v-18.5h4.8V293.8z"/>
		<path class="st1" d="M413.9,286.1v11.7l6.9-11.7h4.9v18.5h-4.8V293l-6.9,11.7H409v-18.5H413.9z"/>
		<path class="st1" d="M325.6,317.4v14.8h2.2v7.9h-4.3v-4.2h-11.3v4.2h-4.3v-7.9c0.7-0.1,1.4-0.4,2.1-1.1c1.4-1.4,1.6-3.4,1.6-6.1
			v-7.6H325.6z M316.3,325.5c0,0.9-0.1,2.5-0.4,3.9c-0.3,1.2-0.8,2-1.6,2.8h6.6v-11.1h-4.5V325.5z"/>
		<path class="st1" d="M341.4,321.5h-5.7v3.1h5.4v4.1h-5.4v3.2h5.7v4.1h-10.5v-18.5h10.5V321.5z"/>
		<path class="st1" d="M350,324.3h6.9v-6.9h4.8v18.5h-4.8v-7.5H350v7.5h-4.8v-18.5h4.8V324.3z"/>
		<path class="st1" d="M377,324.3h6.9v-6.9h4.8v18.5h-4.8v-7.5H377v7.5h-4.8v-18.5h4.8V324.3z"/>
		<path class="st1" d="M404.5,332.8h-6.7l-1.3,3.1h-5.1l7.1-18.5h5.3l7,18.5h-5.1L404.5,332.8z M403.2,329.1l-2.1-6l-2,6H403.2z"/>
		<path class="st1" d="M323,366.7c-1.9,0.7-3,0.9-4.2,0.9c-3.2,0-5.6-1.3-7.2-2.8c-1.8-1.8-2.8-4.3-2.8-6.8c0-2.6,1.1-5.1,2.8-6.8
			c1.6-1.7,4.1-2.9,7-2.9c0.9,0,2.4,0.1,4.3,0.9v5.8c-1.6-1.9-3.4-2-4.2-2c-1.4,0-2.4,0.4-3.3,1.2c-1.1,1.1-1.6,2.5-1.6,3.8
			c0,1.3,0.5,2.7,1.5,3.6c0.8,0.8,2.1,1.3,3.4,1.3c0.7,0,2.5-0.1,4.2-1.9V366.7z"/>
		<path class="st1" d="M334,352.8v14.5h-4.8v-14.5h-3.9v-4.1H338v4.1H334z"/>
		<path class="st1" d="M350.9,364.1h-6.7l-1.3,3.1h-5.1l7.1-18.5h5.3l7,18.5H352L350.9,364.1z M349.6,360.4l-2.1-6l-2,6H349.6z"/>
		<path class="st1" d="M365.8,352.8v14.5H361v-14.5H357v-4.1h12.7v4.1H365.8z"/>
		<path class="st1" d="M377.3,348.7v11.7l6.9-11.7h4.9v18.5h-4.8v-11.7l-6.9,11.7h-4.9v-18.5H377.3z"/>
		<path class="st1" d="M406.6,366.7c-1.9,0.7-3,0.9-4.2,0.9c-3.2,0-5.6-1.3-7.2-2.8c-1.8-1.8-2.8-4.3-2.8-6.8c0-2.6,1.1-5.1,2.8-6.8
			c1.6-1.7,4.1-2.9,7-2.9c0.9,0,2.4,0.1,4.3,0.9v5.8c-1.6-1.9-3.4-2-4.2-2c-1.4,0-2.4,0.4-3.3,1.2c-1.1,1.1-1.6,2.5-1.6,3.8
			c0,1.3,0.5,2.7,1.5,3.6c0.8,0.8,2.1,1.3,3.4,1.3c0.7,0,2.5-0.1,4.2-1.9V366.7z"/>
		<path class="st1" d="M417.5,352.8v14.5h-4.8v-14.5h-3.9v-4.1h12.7v4.1H417.5z"/>
		<path class="st1" d="M429,348.7v11.7l6.9-11.7h4.9v18.5H436v-11.7l-6.9,11.7h-4.9v-18.5H429z"/>
		<path class="st1" d="M449.9,356.3l5.9-7.6h6l-7.4,8.8l8,9.8h-6.2l-6.3-8v8h-4.8v-18.5h4.8V356.3z"/>
		<path class="st1" d="M477.2,364.1h-6.7l-1.3,3.1h-5.1l7.1-18.5h5.3l7,18.5h-5.1L477.2,364.1z M475.9,360.4l-2.1-6l-2,6H475.9z"/>
		<path class="st1" d="M492.1,352.8v14.5h-4.8v-14.5h-3.9v-4.1h12.7v4.1H492.1z"/>
		<path class="st1" d="M509,364.1h-6.7l-1.3,3.1h-5.1l7.1-18.5h5.3l7,18.5h-5.1L509,364.1z M507.7,360.4l-2.1-6l-2,6H507.7z"/>
		<path class="st2" d="M313.7,385.3c0-0.8-0.6-1.3-1.4-1.4c-1.2-0.1-2.7,0.7-3.2,1.1l-0.7-2.6c1.1-0.8,2.7-1.3,4-1.2
			c4,0.2,5.3,3.7,3.1,6.9l-2.7,4.2h4v2.8h-9l5.1-8.1C313.7,385.9,313.7,385.3,313.7,385.3z"/>
		<path class="st2" d="M319.2,388.2c0-3.9,1.3-7,4.7-7c3.4,0,4.7,3.1,4.7,7c0,3.9-1.3,7-4.7,7C320.5,395.2,319.2,392.1,319.2,388.2z
			 M325.9,388.2c0-2.4-0.5-4.4-2.1-4.4c-1.5,0-2,2-2,4.4c0,2.5,0.5,4.4,2,4.4C325.4,392.6,325.9,390.6,325.9,388.2z"/>
		<path class="st2" d="M332.1,395.1c-2.1,0-2.1-3.1,0-3.1C334.2,392.1,334.2,395.1,332.1,395.1z"/>
		<path class="st2" d="M335.3,381.4h4.9V395h-2.7v-10.9h-2.2V381.4z"/>
		<path class="st2" d="M343.3,388.2c0-3.9,1.3-7,4.7-7c3.4,0,4.7,3.1,4.7,7c0,3.9-1.3,7-4.7,7C344.6,395.2,343.3,392.1,343.3,388.2z
			 M350,388.2c0-2.4-0.5-4.4-2.1-4.4c-1.5,0-2,2-2,4.4c0,2.5,0.5,4.4,2,4.4C349.5,392.6,350,390.6,350,388.2z"/>
		<path class="st2" d="M356.2,395.1c-2.1,0-2.1-3.1,0-3.1C358.3,392.1,358.3,395.1,356.2,395.1z"/>
		<path class="st2" d="M365.5,385.3c0-0.8-0.6-1.3-1.4-1.4c-1.2-0.1-2.7,0.7-3.2,1.1l-0.7-2.6c1.1-0.8,2.7-1.3,4-1.2
			c4,0.2,5.3,3.7,3.1,6.9l-2.7,4.2h4v2.8h-9l5.1-8.1C365.5,385.9,365.5,385.3,365.5,385.3z"/>
		<path class="st2" d="M371,388.2c0-3.9,1.3-7,4.7-7c3.4,0,4.7,3.1,4.7,7c0,3.9-1.3,7-4.7,7C372.3,395.2,371,392.1,371,388.2z
			 M377.8,388.2c0-2.4-0.5-4.4-2.1-4.4c-1.5,0-2,2-2,4.4c0,2.5,0.5,4.4,2,4.4C377.2,392.6,377.8,390.6,377.8,388.2z"/>
		<path class="st2" d="M382.2,381.4h4.9V395h-2.7v-10.9h-2.2V381.4z"/>
		<path class="st2" d="M398.5,391c0,2.3-1.5,4-4.1,4.1c-0.7,0-2.6,0-4.4-0.6l0.2-2.7c4.2,1.5,5.5,0.3,5.4-0.9c0-1.6-1-2.1-5.2-2.4
			v-7.2h6.9v2.6h-4.2v2.4C396.8,386.7,398.5,387.8,398.5,391z"/>
		<path class="st1" d="M316.1,423.9v-9H312v9h-3v-11.6h10.2v11.6H316.1z"/>
		<path class="st1" d="M332.9,422.5c-1.2,1.1-2.8,1.7-4.6,1.7s-3.4-0.6-4.6-1.7c-1.2-1.2-1.8-2.8-1.8-4.3c0-1.5,0.6-3.2,1.8-4.3
			c1.2-1.1,2.8-1.7,4.6-1.7s3.4,0.6,4.6,1.7c1.2,1.2,1.8,2.8,1.8,4.3C334.7,419.7,334.1,421.3,332.9,422.5z M325.9,415.9
			c-0.6,0.6-0.9,1.5-0.9,2.3c0,1,0.5,1.7,0.9,2.2c0.6,0.5,1.3,0.9,2.3,0.9c1,0,1.8-0.4,2.3-0.9c0.5-0.5,0.9-1.3,0.9-2.2
			c0-0.9-0.4-1.7-0.9-2.2c-0.6-0.6-1.5-0.9-2.3-0.9C327.5,415,326.6,415.3,325.9,415.9z"/>
		<path class="st1" d="M347.4,412.3v9.3h1.4v4.9h-2.7v-2.6h-7v2.6h-2.7v-4.9c0.5-0.1,0.9-0.2,1.3-0.7c0.9-0.9,1-2.2,1-3.8v-4.8
			H347.4z M341.5,417.4c0,0.6,0,1.6-0.3,2.4c-0.2,0.7-0.5,1.3-1,1.8h4.1v-6.9h-2.8V417.4z"/>
		<path class="st1" d="M361.5,422.5c-1.2,1.1-2.8,1.7-4.6,1.7s-3.4-0.6-4.6-1.7c-1.2-1.2-1.8-2.8-1.8-4.3c0-1.5,0.6-3.2,1.8-4.3
			c1.2-1.1,2.8-1.7,4.6-1.7s3.4,0.6,4.6,1.7c1.2,1.2,1.8,2.8,1.8,4.3C363.3,419.7,362.7,421.3,361.5,422.5z M354.6,415.9
			c-0.6,0.6-0.9,1.5-0.9,2.3c0,1,0.5,1.7,0.9,2.2c0.6,0.5,1.3,0.9,2.3,0.9c1,0,1.8-0.4,2.3-0.9c0.5-0.5,0.9-1.3,0.9-2.2
			c0-0.9-0.4-1.7-0.9-2.2c-0.6-0.6-1.5-0.9-2.3-0.9C356.1,415,355.2,415.3,354.6,415.9z"/>
		<path class="st1" d="M366,412.3h7.5v2.6h-4.5v2h1.2c1.5,0,2.8,0.2,3.7,1.1c0.5,0.6,0.9,1.4,0.9,2.4c0,0.9-0.3,1.8-1,2.5
			c-0.9,0.9-2.3,1-3.7,1H366V412.3z M370.1,421.6c0.3,0,1,0,1.3-0.4c0.2-0.2,0.3-0.5,0.3-0.8c0-0.4-0.2-0.7-0.3-0.9
			c-0.3-0.3-0.9-0.3-1.3-0.3h-1v2.4H370.1z"/>
		<path class="st1" d="M380.5,420.1v3.8h-3v-11.6h4.8c1,0,2.1,0.2,2.9,1c0.9,0.9,1.1,1.8,1.1,2.8c0,0.9-0.1,2-1,2.9
			c-0.9,0.9-2,1-2.9,1H380.5z M380.5,417.6h1c0.3,0,0.9,0,1.3-0.4c0.4-0.3,0.4-0.8,0.4-1.1c0-0.3,0-0.7-0.3-1
			c-0.3-0.4-0.9-0.4-1.3-0.4h-1V417.6z"/>
		<path class="st1" d="M391.8,412.3v7.3l4.3-7.3h3.1v11.6h-3v-7.3l-4.3,7.3h-3.1v-11.6H391.8z"/>
		<path class="st1" d="M413.9,423.9v-9h-4.1v9h-3v-11.6H417v11.6H413.9z"/>
		<path class="st1" d="M430.7,422.5c-1.2,1.1-2.8,1.7-4.6,1.7s-3.4-0.6-4.6-1.7c-1.2-1.2-1.8-2.8-1.8-4.3c0-1.5,0.6-3.2,1.8-4.3
			c1.2-1.1,2.8-1.7,4.6-1.7s3.4,0.6,4.6,1.7c1.2,1.2,1.8,2.8,1.8,4.3C432.5,419.7,431.9,421.3,430.7,422.5z M423.8,415.9
			c-0.6,0.6-0.9,1.5-0.9,2.3c0,1,0.5,1.7,0.9,2.2c0.6,0.5,1.3,0.9,2.3,0.9c1,0,1.8-0.4,2.3-0.9c0.5-0.5,0.9-1.3,0.9-2.2
			c0-0.9-0.4-1.7-0.9-2.2c-0.6-0.6-1.5-0.9-2.3-0.9C425.3,415,424.4,415.3,423.8,415.9z"/>
		<path class="st1" d="M445.2,412.3v9.3h1.4v4.9h-2.7v-2.6h-7v2.6h-2.7v-4.9c0.5-0.1,0.9-0.2,1.3-0.7c0.9-0.9,1-2.2,1-3.8v-4.8
			H445.2z M439.3,417.4c0,0.6,0,1.6-0.3,2.4c-0.2,0.7-0.5,1.3-1,1.8h4.1v-6.9h-2.8V417.4z"/>
		<path class="st1" d="M456.6,422h-4.2l-0.8,1.9h-3.2l4.4-11.6h3.3l4.4,11.6h-3.2L456.6,422z M455.8,419.7l-1.3-3.7l-1.3,3.7H455.8z
			"/>
		<path class="st1" d="M466.6,414.9v9h-3v-9h-2.4v-2.6h8v2.6H466.6z"/>
		<path class="st1" d="M481.7,422.5c-1.2,1.1-2.8,1.7-4.6,1.7s-3.4-0.6-4.6-1.7c-1.2-1.2-1.8-2.8-1.8-4.3c0-1.5,0.6-3.2,1.8-4.3
			c1.2-1.1,2.8-1.7,4.6-1.7s3.4,0.6,4.6,1.7c1.2,1.2,1.8,2.8,1.8,4.3C483.5,419.7,483,421.3,481.7,422.5z M474.8,415.9
			c-0.6,0.6-0.9,1.5-0.9,2.3c0,1,0.5,1.7,0.9,2.2c0.6,0.5,1.3,0.9,2.3,0.9c1,0,1.8-0.4,2.3-0.9c0.5-0.5,0.9-1.3,0.9-2.2
			c0-0.9-0.4-1.7-0.9-2.2c-0.6-0.6-1.5-0.9-2.3-0.9C476.3,415,475.4,415.3,474.8,415.9z"/>
		<path class="st1" d="M486.3,412.3h3v9h4v-9h3v9h1.5v5.1h-2.7v-2.6h-8.8V412.3z"/>
		<path class="st1" d="M503.3,412.3v7.3l4.3-7.3h3.1v11.6h-3v-7.3l-4.3,7.3h-3.1v-11.6H503.3z"/>
		<path class="st1" d="M514.3,423.7c-0.2-0.2-0.5-0.6-0.5-1.3s0.3-1,0.5-1.3c0.4-0.4,0.9-0.5,1.3-0.5c0.4,0,0.9,0.2,1.3,0.6
			c0.3,0.3,0.5,0.7,0.5,1.3s-0.2,1-0.5,1.3c-0.4,0.4-0.8,0.5-1.3,0.5C515.2,424.2,514.7,424.1,514.3,423.7z"/>
		<path class="st1" d="M316.1,444.8v-9H312v9h-3v-11.6h10.2v11.6H316.1z"/>
		<path class="st1" d="M332.9,443.3c-1.2,1.1-2.8,1.7-4.6,1.7s-3.4-0.6-4.6-1.7c-1.2-1.2-1.8-2.8-1.8-4.3c0-1.5,0.6-3.2,1.8-4.3
			c1.2-1.1,2.8-1.7,4.6-1.7s3.4,0.6,4.6,1.7c1.2,1.2,1.8,2.8,1.8,4.3C334.7,440.5,334.1,442.1,332.9,443.3z M325.9,436.8
			c-0.6,0.6-0.9,1.5-0.9,2.3c0,1,0.5,1.7,0.9,2.2c0.6,0.5,1.3,0.9,2.3,0.9c1,0,1.8-0.4,2.3-0.9c0.5-0.5,0.9-1.3,0.9-2.2
			c0-0.9-0.4-1.7-0.9-2.2c-0.6-0.6-1.5-0.9-2.3-0.9C327.5,435.8,326.6,436.1,325.9,436.8z"/>
		<path class="st1" d="M347.4,433.2v9.3h1.4v4.9h-2.7v-2.6h-7v2.6h-2.7v-4.9c0.5-0.1,0.9-0.2,1.3-0.7c0.9-0.9,1-2.2,1-3.8v-4.8
			H347.4z M341.5,438.2c0,0.6,0,1.6-0.3,2.4c-0.2,0.7-0.5,1.3-1,1.8h4.1v-6.9h-2.8V438.2z"/>
		<path class="st1" d="M361.5,443.3c-1.2,1.1-2.8,1.7-4.6,1.7s-3.4-0.6-4.6-1.7c-1.2-1.2-1.8-2.8-1.8-4.3c0-1.5,0.6-3.2,1.8-4.3
			c1.2-1.1,2.8-1.7,4.6-1.7s3.4,0.6,4.6,1.7c1.2,1.2,1.8,2.8,1.8,4.3C363.3,440.5,362.7,442.1,361.5,443.3z M354.6,436.8
			c-0.6,0.6-0.9,1.5-0.9,2.3c0,1,0.5,1.7,0.9,2.2c0.6,0.5,1.3,0.9,2.3,0.9c1,0,1.8-0.4,2.3-0.9c0.5-0.5,0.9-1.3,0.9-2.2
			c0-0.9-0.4-1.7-0.9-2.2c-0.6-0.6-1.5-0.9-2.3-0.9C356.1,435.8,355.2,436.1,354.6,436.8z"/>
		<path class="st1" d="M366,433.2h7.5v2.6h-4.5v2h1.2c1.5,0,2.8,0.2,3.7,1.1c0.5,0.6,0.9,1.4,0.9,2.4c0,0.9-0.3,1.8-1,2.5
			c-0.9,0.9-2.3,1-3.7,1H366V433.2z M370.1,442.4c0.3,0,1,0,1.3-0.4c0.2-0.2,0.3-0.5,0.3-0.8c0-0.4-0.2-0.7-0.3-0.9
			c-0.3-0.3-0.9-0.3-1.3-0.3h-1v2.4H370.1z"/>
		<path class="st1" d="M384.6,442.8h-4.2l-0.8,1.9h-3.2l4.4-11.6h3.3l4.4,11.6h-3.2L384.6,442.8z M383.8,440.5l-1.3-3.7l-1.3,3.7
			H383.8z"/>
		<path class="st1" d="M393.8,440.9v3.8h-3v-11.6h4.8c1,0,2.1,0.2,2.9,1c0.9,0.9,1.1,1.8,1.1,2.8c0,0.9-0.1,2-1,2.9s-2,1-2.9,1
			H393.8z M393.8,438.5h1c0.3,0,0.9,0,1.3-0.4c0.4-0.3,0.4-0.8,0.4-1.1c0-0.3,0-0.7-0.3-1c-0.3-0.4-0.9-0.4-1.3-0.4h-1V438.5z"/>
		<path class="st1" d="M412.1,439.7l-3.1,5.1h-3.8l4.2-5.9l-3.9-5.7h3.5l3.1,5v-5h3v5l3.1-5h3.5l-3.9,5.7l4.2,5.9h-3.8l-3.1-5.1v5.1
			h-3V439.7z"/>
		<path class="st1" d="M427.3,433.2v7.3l4.3-7.3h3.1v11.6h-3v-7.3l-4.3,7.3h-3.1v-11.6H427.3z"/>
		<path class="st1" d="M438.1,444.8v-11.6h4.5c0.8,0,1.8,0.1,2.5,0.9c0.4,0.4,0.7,1.1,0.7,2.2c0,0.5-0.1,0.9-0.3,1.4
			c-0.2,0.5-0.5,0.7-0.9,0.9c0.6,0.1,1.2,0.3,1.6,0.7c0.5,0.5,0.8,1.2,0.8,2.1c0,1.1-0.4,1.8-0.9,2.3c-0.6,0.6-1.7,1.1-3.1,1.1
			H438.1z M441.1,437.8h0.6c0.3,0,0.8,0,1.1-0.4c0.2-0.2,0.3-0.5,0.3-0.8c0-0.3-0.1-0.6-0.3-0.8c-0.2-0.2-0.6-0.3-1.1-0.3h-0.6
			V437.8z M441.1,442.4h0.7c0.8,0,1.5-0.1,1.9-0.5c0.1-0.2,0.2-0.4,0.2-0.7c0-0.4-0.1-0.7-0.3-0.8c-0.4-0.4-1.1-0.4-1.9-0.4h-0.6
			V442.4z"/>
		<path class="st1" d="M460.1,443.3c-1.2,1.1-2.8,1.7-4.6,1.7s-3.4-0.6-4.6-1.7c-1.2-1.2-1.8-2.8-1.8-4.3c0-1.5,0.6-3.2,1.8-4.3
			c1.2-1.1,2.8-1.7,4.6-1.7s3.4,0.6,4.6,1.7c1.2,1.2,1.8,2.8,1.8,4.3C461.9,440.5,461.3,442.1,460.1,443.3z M453.2,436.8
			c-0.6,0.6-0.9,1.5-0.9,2.3c0,1,0.5,1.7,0.9,2.2c0.6,0.5,1.3,0.9,2.3,0.9c1,0,1.8-0.4,2.3-0.9c0.5-0.5,0.9-1.3,0.9-2.2
			c0-0.9-0.4-1.7-0.9-2.2c-0.6-0.6-1.5-0.9-2.3-0.9C454.7,435.8,453.8,436.1,453.2,436.8z"/>
		<path class="st1" d="M469.1,435.7v9h-3v-9h-2.4v-2.6h8v2.6H469.1z"/>
		<path class="st1" d="M473.4,444.6c-0.2-0.2-0.5-0.6-0.5-1.3c0-0.6,0.3-1,0.5-1.3c0.4-0.4,0.9-0.5,1.3-0.5c0.4,0,0.9,0.2,1.3,0.6
			c0.3,0.3,0.5,0.7,0.5,1.3s-0.2,1-0.5,1.3c-0.4,0.4-0.8,0.5-1.3,0.5C474.3,445.1,473.8,445,473.4,444.6z"/>
	</g>
</g>
<g>
	<path class="st3" d="M198.2,347.8c-7.5,0-15-1-22.4-3c-1.3-0.3-2.5-0.7-3.8-1.1c-20.2-6.5-37.2-20.2-47.8-38.7
		c-11.3-19.7-14.3-42.7-8.3-64.6c6-21.9,20.1-40.3,39.8-51.6c12.9-7.4,27.5-11.3,42.2-11.3c7.5,0,15.1,1,22.4,3
		c21.9,6,40.3,20.1,51.6,39.8c9.6,16.7,13.2,35.6,10.4,54.6l-0.1,0.6H274l0.1-0.8c2.8-17.5-0.4-34.9-9.2-50.4
		c-10.2-17.8-26.8-30.6-46.6-36c-6.6-1.8-13.5-2.7-20.3-2.7c-13.3,0-26.5,3.5-38.1,10.2c-17.8,10.2-30.6,26.8-36,46.6
		c-5.4,19.8-2.7,40.6,7.5,58.4c10.2,17.8,26.8,30.6,46.6,36c7.5,2,15.4,2.9,23.2,2.6l0.4-0.1c6.2-0.3,12.5-1.4,18.7-3.2l0.2,0l0.2,0
		c4.8,0.9,9.8,1.4,15,1.4l2.8,0l-2.5,1.2c-4,2-8.2,3.7-12.5,5l-0.2,0.1c-0.2,0.1-0.3,0.2-0.5,0.2
		C214.9,346.5,206.6,347.8,198.2,347.8z"/>
</g>
<path class="st1" d="M228,259.8c-1-7-7.7-12-15-11c-7.3,1-12.3,7.6-11.3,14.7c1,7.1,7.6,12,14.9,11C223.9,273.4,229,266.9,228,259.8
	z M215.7,268c-3.6,0.5-6.7-1.9-7.2-5.5c-0.5-3.5,1.8-6.8,5.4-7.3c3.6-0.5,6.7,2,7.2,5.5C221.7,264.3,219.3,267.5,215.7,268z"/>
<path class="st1" d="M262.5,291.1c-1-7-7.7-12-15-11c-7.3,1-12.3,7.6-11.3,14.7c1,7.1,7.6,12,14.9,11
	C258.4,304.7,263.5,298.2,262.5,291.1z M250.3,299.3c-3.6,0.5-6.7-1.9-7.2-5.4c-0.5-3.5,1.8-6.8,5.4-7.3c3.6-0.5,6.7,2,7.2,5.5
	C256.2,295.6,253.9,298.8,250.3,299.3z"/>
<g>
	<path class="st1" d="M213.4,303.5h-10.5l46.7-51.1h10.5L213.4,303.5z"/>
</g>
<path class="st1" d="M240.4,325.3c-1.4,0.1-2.8,0.1-4.2,0.1c-19.7,0-31.8-7.3-38.6-13.5c-9.5-8.6-14.9-20.7-14.9-33.2v-0.7h-8.2v0.7
	c0,14.8,6.4,29.1,17.5,39.3c7.8,7.1,21.8,15.6,44.1,15.6c2.5,0,5.1-0.1,7.7-0.4L240.4,325.3z"/>
</svg>
