<?xml version="1.0" encoding="utf-8"?>
<!-- Generator: Adobe Illustrator 19.0.0, SVG Export Plug-In . SVG Version: 6.00 Build 0)  -->
<svg version="1.1" id="Layer_1" xmlns="http://www.w3.org/2000/svg" xmlns:xlink="http://www.w3.org/1999/xlink" x="0px" y="0px"
	 viewBox="0 0 612 612" style="enable-background:new 0 0 612 612;" xml:space="preserve">
<style type="text/css">
	.st0{fill:#0083BF;}
	.st1{fill:#FFFFFF;}
	.st2{fill:#90CEF1;}
	.st3{fill:#74C1EC;}
</style>
<rect y="0" class="st0" width="612" height="612"/>
<g>
	<g>
		<path class="st1" d="M330.3,307.6c-2,0.7-3.1,1-4.4,1c-3.4,0-6-1.3-7.6-2.9c-1.9-1.9-3-4.6-3-7.1c0-2.8,1.2-5.4,3-7.2
			c1.7-1.8,4.3-3.1,7.4-3.1c0.9,0,2.5,0.1,4.6,1v6.1c-1.6-2-3.6-2.1-4.4-2.1c-1.5,0-2.6,0.4-3.5,1.3c-1.2,1.1-1.7,2.6-1.7,4
			c0,1.3,0.6,2.8,1.6,3.8c0.9,0.8,2.2,1.3,3.6,1.3c0.8,0,2.6-0.1,4.4-2.1V307.6z"/>
		<path class="st1" d="M334.3,308.1v-19.6h7.6c1.4,0,3.1,0.2,4.3,1.5c0.7,0.7,1.2,1.9,1.2,3.7c0,0.9-0.1,1.6-0.6,2.4
			c-0.4,0.8-0.9,1.2-1.6,1.5c1,0.1,2.1,0.6,2.7,1.2c0.8,0.8,1.3,2,1.3,3.6c0,1.8-0.7,3.1-1.4,3.8c-1.1,1.1-2.9,1.8-5.3,1.8H334.3z
			 M339.4,296.2h0.9c0.5,0,1.4-0.1,1.9-0.6c0.3-0.3,0.5-0.8,0.5-1.3c0-0.5-0.2-1-0.5-1.3c-0.3-0.3-0.9-0.6-1.9-0.6h-0.9V296.2z
			 M339.4,304.1h1.1c1.4,0,2.6-0.2,3.1-0.8c0.2-0.3,0.4-0.7,0.4-1.3c0-0.6-0.2-1.1-0.5-1.4c-0.6-0.6-1.9-0.6-3.1-0.6h-1.1V304.1z"/>
		<path class="st1" d="M363.8,292.8h-6v3.3h5.7v4.3h-5.7v3.4h6v4.3h-11.1v-19.6h11.1V292.8z"/>
		<path class="st1" d="M375.3,292.8v15.2h-5.1v-15.2h-4.1v-4.3h13.4v4.3H375.3z"/>
		<path class="st1" d="M396.1,307.6c-2,0.7-3.1,1-4.4,1c-3.4,0-6-1.3-7.6-2.9c-1.9-1.9-3-4.6-3-7.1c0-2.8,1.2-5.4,3-7.2
			c1.7-1.8,4.3-3.1,7.4-3.1c0.9,0,2.5,0.1,4.6,1v6.1c-1.6-2-3.6-2.1-4.4-2.1c-1.5,0-2.6,0.4-3.5,1.3c-1.2,1.1-1.7,2.6-1.7,4
			c0,1.3,0.6,2.8,1.6,3.8c0.9,0.8,2.2,1.3,3.6,1.3c0.8,0,2.6-0.1,4.4-2.1V307.6z"/>
		<path class="st1" d="M405.1,296.6l6.2-8.1h6.3l-7.8,9.3l8.5,10.3h-6.6l-6.6-8.5v8.5h-5.1v-19.6h5.1V296.6z"/>
		<path class="st1" d="M426.1,288.5v12.3l7.3-12.3h5.2v19.6h-5.1v-12.3l-7.3,12.3H421v-19.6H426.1z"/>
		<path class="st1" d="M333.1,321.5v15.6h2.3v8.3h-4.6v-4.4H319v4.4h-4.6v-8.3c0.8-0.1,1.5-0.4,2.2-1.2c1.5-1.5,1.7-3.6,1.7-6.4v-8
			H333.1z M323.3,330c0,0.9-0.1,2.6-0.5,4.1c-0.4,1.2-0.9,2.1-1.7,3h6.9v-11.7h-4.7V330z"/>
		<path class="st1" d="M349.8,325.8h-6v3.3h5.7v4.3h-5.7v3.4h6v4.3h-11.1v-19.6h11.1V325.8z"/>
		<path class="st1" d="M358.8,328.8h7.3v-7.3h5.1v19.6h-5.1v-7.9h-7.3v7.9h-5.1v-19.6h5.1V328.8z"/>
		<path class="st1" d="M387.3,328.8h7.3v-7.3h5.1v19.6h-5.1v-7.9h-7.3v7.9h-5.1v-19.6h5.1V328.8z"/>
		<path class="st1" d="M416.3,337.8h-7.1l-1.3,3.3h-5.4l7.5-19.6h5.5l7.4,19.6h-5.4L416.3,337.8z M414.9,333.9l-2.2-6.3l-2.1,6.3
			H414.9z"/>
		<path class="st1" d="M330.3,373.5c-2,0.7-3.1,1-4.4,1c-3.4,0-6-1.3-7.6-2.9c-1.9-1.9-3-4.6-3-7.1c0-2.8,1.2-5.4,3-7.2
			c1.7-1.8,4.3-3.1,7.4-3.1c0.9,0,2.5,0.1,4.6,1v6.1c-1.6-2-3.6-2.1-4.4-2.1c-1.5,0-2.6,0.4-3.5,1.3c-1.2,1.1-1.7,2.6-1.7,4
			c0,1.3,0.6,2.8,1.6,3.8c0.9,0.8,2.2,1.3,3.6,1.3c0.8,0,2.6-0.1,4.4-2.1V373.5z"/>
		<path class="st1" d="M341.9,358.8v15.2h-5.1v-15.2h-4.1v-4.3h13.4v4.3H341.9z"/>
		<path class="st1" d="M359.7,370.8h-7.1l-1.3,3.3h-5.4l7.5-19.6h5.5l7.4,19.6h-5.4L359.7,370.8z M358.3,366.9l-2.2-6.3l-2.1,6.3
			H358.3z"/>
		<path class="st1" d="M375.4,358.8v15.2h-5.1v-15.2h-4.1v-4.3h13.4v4.3H375.4z"/>
		<path class="st1" d="M387.5,354.5v12.3l7.3-12.3h5.2v19.6h-5.1v-12.3l-7.3,12.3h-5.2v-19.6H387.5z"/>
		<path class="st1" d="M418.4,373.5c-2,0.7-3.1,1-4.4,1c-3.4,0-6-1.3-7.6-2.9c-1.9-1.9-3-4.6-3-7.1c0-2.8,1.2-5.4,3-7.2
			c1.7-1.8,4.3-3.1,7.4-3.1c0.9,0,2.5,0.1,4.6,1v6.1c-1.6-2-3.6-2.1-4.4-2.1c-1.5,0-2.6,0.4-3.5,1.3c-1.2,1.1-1.7,2.6-1.7,4
			c0,1.3,0.6,2.8,1.6,3.8c0.9,0.8,2.2,1.3,3.6,1.3c0.8,0,2.6-0.1,4.4-2.1V373.5z"/>
		<path class="st1" d="M430,358.8v15.2h-5.1v-15.2h-4.1v-4.3h13.4v4.3H430z"/>
		<path class="st1" d="M442.1,354.5v12.3l7.3-12.3h5.2v19.6h-5.1v-12.3l-7.3,12.3H437v-19.6H442.1z"/>
		<path class="st1" d="M464.2,362.6l6.2-8.1h6.3l-7.8,9.3l8.5,10.3h-6.6l-6.6-8.5v8.5h-5.1v-19.6h5.1V362.6z"/>
		<path class="st1" d="M492.9,370.8h-7.1l-1.3,3.3h-5.4l7.5-19.6h5.5l7.4,19.6h-5.4L492.9,370.8z M491.5,366.9l-2.2-6.3l-2.1,6.3
			H491.5z"/>
		<path class="st1" d="M508.6,358.8v15.2h-5.1v-15.2h-4.1v-4.3h13.4v4.3H508.6z"/>
		<path class="st1" d="M526.4,370.8h-7.1l-1.3,3.3h-5.4l7.5-19.6h5.5l7.4,19.6h-5.4L526.4,370.8z M525.1,366.9l-2.2-6.3l-2.1,6.3
			H525.1z"/>
		<path class="st2" d="M321.3,393.2c0-0.8-0.6-1.4-1.5-1.5c-1.3-0.1-2.9,0.7-3.3,1.1l-0.7-2.8c1.1-0.8,2.9-1.4,4.3-1.3
			c4.2,0.2,5.6,3.9,3.2,7.3l-2.8,4.4h4.3v2.9h-9.5l5.4-8.5C321.4,393.8,321.3,393.2,321.3,393.2z"/>
		<path class="st2" d="M327.1,396.2c0-4.1,1.4-7.4,4.9-7.4c3.6,0,5,3.3,5,7.4c0,4.1-1.4,7.4-5,7.4
			C328.5,403.6,327.1,400.3,327.1,396.2z M334.2,396.2c0-2.6-0.5-4.7-2.2-4.7c-1.6,0-2.1,2.1-2.1,4.7c0,2.6,0.5,4.7,2.1,4.7
			C333.7,400.9,334.2,398.8,334.2,396.2z"/>
		<path class="st2" d="M340.8,403.5c-2.2,0-2.2-3.2,0-3.2C343,400.3,343,403.5,340.8,403.5z"/>
		<path class="st2" d="M344.1,389h5.2v14.4h-2.9v-11.5h-2.4V389z"/>
		<path class="st2" d="M352.6,396.2c0-4.1,1.4-7.4,4.9-7.4c3.6,0,5,3.3,5,7.4c0,4.1-1.4,7.4-5,7.4
			C353.9,403.6,352.6,400.3,352.6,396.2z M359.7,396.2c0-2.6-0.5-4.7-2.2-4.7c-1.6,0-2.1,2.1-2.1,4.7c0,2.6,0.5,4.7,2.1,4.7
			C359.1,400.9,359.7,398.8,359.7,396.2z"/>
		<path class="st2" d="M366.2,403.5c-2.2,0-2.2-3.2,0-3.2C368.4,400.3,368.4,403.5,366.2,403.5z"/>
		<path class="st2" d="M376,393.2c0-0.8-0.6-1.4-1.5-1.5c-1.3-0.1-2.9,0.7-3.3,1.1l-0.7-2.8c1.1-0.8,2.9-1.4,4.3-1.3
			c4.2,0.2,5.6,3.9,3.2,7.3l-2.8,4.4h4.3v2.9h-9.5l5.4-8.5C376,393.8,376,393.2,376,393.2z"/>
		<path class="st2" d="M381.8,396.2c0-4.1,1.4-7.4,4.9-7.4c3.6,0,5,3.3,5,7.4c0,4.1-1.4,7.4-5,7.4
			C383.2,403.6,381.8,400.3,381.8,396.2z M388.9,396.2c0-2.6-0.5-4.7-2.2-4.7c-1.6,0-2.1,2.1-2.1,4.7c0,2.6,0.5,4.7,2.1,4.7
			C388.4,400.9,388.9,398.8,388.9,396.2z"/>
		<path class="st2" d="M393.6,389h5.2v14.4H396v-11.5h-2.4V389z"/>
		<path class="st2" d="M410.8,399.1c0,2.4-1.6,4.2-4.3,4.3c-0.7,0-2.7,0-4.6-0.6l0.3-2.9c4.5,1.5,5.8,0.3,5.7-0.9
			c0-1.7-1.1-2.2-5.5-2.5V389h7.3v2.8h-4.4v2.5C409,394.6,410.8,395.8,410.8,399.1z"/>
		<path class="st1" d="M323.8,433.9v-9.5h-4.4v9.5h-3.2v-12.2H327v12.2H323.8z"/>
		<path class="st1" d="M341.5,432.3c-1.2,1.2-3,1.8-4.8,1.8s-3.6-0.6-4.8-1.8c-1.3-1.2-1.9-3-1.9-4.6c0-1.6,0.6-3.4,1.9-4.6
			c1.2-1.2,3-1.8,4.8-1.8s3.6,0.6,4.8,1.8c1.3,1.2,1.9,2.9,1.9,4.6C343.4,429.4,342.8,431.1,341.5,432.3z M334.2,425.4
			c-0.7,0.6-1,1.5-1,2.4c0,1.1,0.5,1.8,1,2.3c0.6,0.6,1.4,1,2.5,1c1.1,0,1.9-0.4,2.5-1c0.6-0.6,1-1.4,1-2.3c0-1-0.4-1.8-1-2.3
			c-0.7-0.6-1.6-1-2.5-1C335.8,424.4,334.8,424.8,334.2,425.4z"/>
		<path class="st1" d="M356.8,421.6v9.8h1.5v5.2h-2.9v-2.7H348v2.7h-2.9v-5.2c0.5-0.1,0.9-0.3,1.4-0.7c0.9-0.9,1.1-2.3,1.1-4v-5
			H356.8z M350.6,427c0,0.6,0,1.6-0.3,2.6c-0.2,0.8-0.6,1.3-1.1,1.9h4.3v-7.3h-3V427z"/>
		<path class="st1" d="M371.7,432.3c-1.2,1.2-3,1.8-4.8,1.8s-3.6-0.6-4.8-1.8c-1.3-1.2-1.9-3-1.9-4.6c0-1.6,0.6-3.4,1.9-4.6
			c1.2-1.2,3-1.8,4.8-1.8s3.6,0.6,4.8,1.8c1.3,1.2,1.9,2.9,1.9,4.6C373.6,429.4,373,431.1,371.7,432.3z M364.4,425.4
			c-0.7,0.6-1,1.5-1,2.4c0,1.1,0.5,1.8,1,2.3c0.6,0.6,1.4,1,2.5,1c1.1,0,1.9-0.4,2.5-1c0.6-0.6,1-1.4,1-2.3c0-1-0.4-1.8-1-2.3
			c-0.7-0.6-1.6-1-2.5-1C366,424.4,365,424.8,364.4,425.4z"/>
		<path class="st1" d="M376.5,421.6h7.9v2.7h-4.8v2.1h1.2c1.6,0,2.9,0.2,3.9,1.2c0.6,0.6,0.9,1.5,0.9,2.5c0,1-0.3,1.9-1,2.6
			c-1,1-2.4,1.1-3.9,1.1h-4.3V421.6z M380.7,431.4c0.4,0,1,0,1.4-0.4c0.2-0.2,0.3-0.5,0.3-0.9c0-0.4-0.2-0.7-0.4-0.9
			c-0.4-0.3-1-0.3-1.4-0.3h-1.1v2.5H380.7z"/>
		<path class="st1" d="M391.7,429.8v4h-3.2v-12.2h5.1c1.1,0,2.2,0.2,3.1,1.1c0.9,0.9,1.1,1.9,1.1,3c0,1-0.1,2.1-1.1,3
			c-1,0.9-2.1,1.1-3,1.1H391.7z M391.7,427.3h1.1c0.3,0,0.9,0,1.3-0.4c0.4-0.3,0.4-0.8,0.4-1.1c0-0.3,0-0.8-0.4-1.1
			c-0.4-0.4-1-0.4-1.4-0.4h-1.1V427.3z"/>
		<path class="st1" d="M403.7,421.6v7.7l4.6-7.7h3.2v12.2h-3.2v-7.7l-4.6,7.7h-3.2v-12.2H403.7z"/>
		<path class="st1" d="M427,433.9v-9.5h-4.4v9.5h-3.2v-12.2h10.7v12.2H427z"/>
		<path class="st1" d="M444.6,432.3c-1.2,1.2-3,1.8-4.8,1.8s-3.6-0.6-4.8-1.8c-1.3-1.2-1.9-3-1.9-4.6c0-1.6,0.6-3.4,1.9-4.6
			c1.2-1.2,3-1.8,4.8-1.8s3.6,0.6,4.8,1.8c1.3,1.2,1.9,2.9,1.9,4.6C446.6,429.4,445.9,431.1,444.6,432.3z M437.3,425.4
			c-0.7,0.6-1,1.5-1,2.4c0,1.1,0.5,1.8,1,2.3c0.6,0.6,1.4,1,2.5,1c1.1,0,1.9-0.4,2.5-1c0.6-0.6,1-1.4,1-2.3c0-1-0.4-1.8-1-2.3
			c-0.7-0.6-1.6-1-2.5-1C438.9,424.4,438,424.8,437.3,425.4z"/>
		<path class="st1" d="M459.9,421.6v9.8h1.5v5.2h-2.9v-2.7h-7.4v2.7h-2.9v-5.2c0.5-0.1,0.9-0.3,1.4-0.7c0.9-0.9,1.1-2.3,1.1-4v-5
			H459.9z M453.8,427c0,0.6,0,1.6-0.3,2.6c-0.2,0.8-0.6,1.3-1.1,1.9h4.3v-7.3h-3V427z"/>
		<path class="st1" d="M472,431.8h-4.4l-0.8,2.1h-3.4l4.7-12.2h3.5l4.6,12.2h-3.4L472,431.8z M471.1,429.4l-1.4-4l-1.3,4H471.1z"/>
		<path class="st1" d="M482.5,424.3v9.5h-3.2v-9.5h-2.6v-2.7h8.4v2.7H482.5z"/>
		<path class="st1" d="M498.5,432.3c-1.2,1.2-3,1.8-4.8,1.8s-3.6-0.6-4.8-1.8c-1.3-1.2-1.9-3-1.9-4.6c0-1.6,0.6-3.4,1.9-4.6
			c1.2-1.2,3-1.8,4.8-1.8s3.6,0.6,4.8,1.8c1.3,1.2,1.9,2.9,1.9,4.6C500.4,429.4,499.8,431.1,498.5,432.3z M491.2,425.4
			c-0.7,0.6-1,1.5-1,2.4c0,1.1,0.5,1.8,1,2.3c0.6,0.6,1.4,1,2.5,1c1.1,0,1.9-0.4,2.5-1c0.6-0.6,1-1.4,1-2.3c0-1-0.4-1.8-1-2.3
			c-0.7-0.6-1.6-1-2.5-1C492.8,424.4,491.9,424.8,491.2,425.4z"/>
		<path class="st1" d="M503.3,421.6h3.2v9.5h4.2v-9.5h3.2v9.5h1.5v5.4h-2.9v-2.7h-9.3V421.6z"/>
		<path class="st1" d="M521.2,421.6v7.7l4.6-7.7h3.2v12.2h-3.2v-7.7l-4.6,7.7h-3.2v-12.2H521.2z"/>
		<path class="st1" d="M532.8,433.6c-0.2-0.2-0.6-0.7-0.6-1.3c0-0.7,0.3-1.1,0.6-1.3c0.4-0.4,0.9-0.6,1.3-0.6c0.5,0,0.9,0.2,1.4,0.6
			c0.3,0.3,0.5,0.7,0.5,1.3c0,0.6-0.2,1-0.6,1.3c-0.4,0.4-0.9,0.6-1.3,0.6C533.8,434.2,533.3,434.1,532.8,433.6z"/>
		<path class="st1" d="M323.8,455.9v-9.5h-4.4v9.5h-3.2v-12.2H327v12.2H323.8z"/>
		<path class="st1" d="M341.5,454.3c-1.2,1.2-3,1.8-4.8,1.8s-3.6-0.6-4.8-1.8c-1.3-1.2-1.9-3-1.9-4.6c0-1.6,0.6-3.4,1.9-4.6
			c1.2-1.2,3-1.8,4.8-1.8s3.6,0.6,4.8,1.8c1.3,1.2,1.9,2.9,1.9,4.6C343.4,451.4,342.8,453.1,341.5,454.3z M334.2,447.4
			c-0.7,0.6-1,1.5-1,2.4c0,1.1,0.5,1.8,1,2.3c0.6,0.6,1.4,1,2.5,1c1.1,0,1.9-0.4,2.5-1c0.6-0.6,1-1.4,1-2.3c0-1-0.4-1.8-1-2.3
			c-0.7-0.6-1.6-1-2.5-1C335.8,446.4,334.8,446.8,334.2,447.4z"/>
		<path class="st1" d="M356.8,443.6v9.8h1.5v5.2h-2.9v-2.7H348v2.7h-2.9v-5.2c0.5-0.1,0.9-0.3,1.4-0.7c0.9-0.9,1.1-2.3,1.1-4v-5
			H356.8z M350.6,449c0,0.6,0,1.6-0.3,2.6c-0.2,0.8-0.6,1.3-1.1,1.9h4.3v-7.3h-3V449z"/>
		<path class="st1" d="M371.7,454.3c-1.2,1.2-3,1.8-4.8,1.8s-3.6-0.6-4.8-1.8c-1.3-1.2-1.9-3-1.9-4.6c0-1.6,0.6-3.4,1.9-4.6
			c1.2-1.2,3-1.8,4.8-1.8s3.6,0.6,4.8,1.8c1.3,1.2,1.9,2.9,1.9,4.6C373.6,451.4,373,453.1,371.7,454.3z M364.4,447.4
			c-0.7,0.6-1,1.5-1,2.4c0,1.1,0.5,1.8,1,2.3c0.6,0.6,1.4,1,2.5,1c1.1,0,1.9-0.4,2.5-1c0.6-0.6,1-1.4,1-2.3c0-1-0.4-1.8-1-2.3
			c-0.7-0.6-1.6-1-2.5-1C366,446.4,365,446.8,364.4,447.4z"/>
		<path class="st1" d="M376.5,443.6h7.9v2.7h-4.8v2.1h1.2c1.6,0,2.9,0.2,3.9,1.2c0.6,0.6,0.9,1.5,0.9,2.5c0,1-0.3,1.9-1,2.6
			c-1,1-2.4,1.1-3.9,1.1h-4.3V443.6z M380.7,453.4c0.4,0,1,0,1.4-0.4c0.2-0.2,0.3-0.5,0.3-0.9c0-0.4-0.2-0.7-0.4-0.9
			c-0.4-0.3-1-0.3-1.4-0.3h-1.1v2.5H380.7z"/>
		<path class="st1" d="M396,453.8h-4.4l-0.8,2.1h-3.4l4.7-12.2h3.5l4.6,12.2h-3.4L396,453.8z M395.2,451.4l-1.4-4l-1.3,4H395.2z"/>
		<path class="st1" d="M405.8,451.8v4h-3.2v-12.2h5.1c1.1,0,2.2,0.2,3.1,1.1c0.9,0.9,1.1,1.9,1.1,3c0,1-0.1,2.1-1.1,3
			c-1,0.9-2.1,1.1-3,1.1H405.8z M405.8,449.2h1.1c0.3,0,0.9,0,1.3-0.4c0.4-0.3,0.4-0.8,0.4-1.1c0-0.3,0-0.8-0.4-1.1
			c-0.4-0.4-1-0.4-1.4-0.4h-1.1V449.2z"/>
		<path class="st1" d="M425,450.5l-3.3,5.4h-4l4.5-6.2l-4.1-6h3.7l3.3,5.3v-5.3h3.2v5.3l3.3-5.3h3.7l-4.1,6l4.5,6.2h-4l-3.3-5.4v5.4
			H425V450.5z"/>
		<path class="st1" d="M441.1,443.6v7.7l4.6-7.7h3.2v12.2h-3.2v-7.7l-4.6,7.7h-3.2v-12.2H441.1z"/>
		<path class="st1" d="M452.4,455.9v-12.2h4.7c0.9,0,1.9,0.1,2.7,0.9c0.4,0.5,0.8,1.2,0.8,2.3c0,0.5-0.1,1-0.4,1.5
			c-0.3,0.5-0.5,0.8-1,1c0.6,0.1,1.3,0.4,1.7,0.7c0.5,0.5,0.8,1.3,0.8,2.2c0,1.2-0.4,1.9-0.9,2.4c-0.7,0.7-1.8,1.2-3.3,1.2H452.4z
			 M455.6,448.5h0.6c0.3,0,0.9,0,1.2-0.4c0.2-0.2,0.3-0.5,0.3-0.8c0-0.3-0.1-0.6-0.3-0.8c-0.2-0.2-0.6-0.4-1.2-0.4h-0.6V448.5z
			 M455.6,453.4h0.7c0.9,0,1.6-0.1,2-0.5c0.1-0.2,0.3-0.4,0.3-0.8c0-0.4-0.1-0.7-0.3-0.9c-0.4-0.4-1.2-0.4-2-0.4h-0.7V453.4z"/>
		<path class="st1" d="M475.7,454.3c-1.2,1.2-3,1.8-4.8,1.8s-3.6-0.6-4.8-1.8c-1.3-1.2-1.9-3-1.9-4.6c0-1.6,0.6-3.4,1.9-4.6
			c1.2-1.2,3-1.8,4.8-1.8s3.6,0.6,4.8,1.8c1.3,1.2,1.9,2.9,1.9,4.6C477.6,451.4,477,453.1,475.7,454.3z M468.4,447.4
			c-0.7,0.6-1,1.5-1,2.4c0,1.1,0.5,1.8,1,2.3c0.6,0.6,1.4,1,2.5,1c1.1,0,1.9-0.4,2.5-1c0.6-0.6,1-1.4,1-2.3c0-1-0.4-1.8-1-2.3
			c-0.7-0.6-1.6-1-2.5-1C470,446.4,469,446.8,468.4,447.4z"/>
		<path class="st1" d="M485.1,446.3v9.5H482v-9.5h-2.6v-2.7h8.4v2.7H485.1z"/>
		<path class="st1" d="M489.7,455.6c-0.2-0.2-0.6-0.7-0.6-1.3c0-0.7,0.3-1.1,0.6-1.3c0.4-0.4,0.9-0.6,1.3-0.6c0.5,0,0.9,0.2,1.4,0.6
			c0.3,0.3,0.5,0.7,0.5,1.3c0,0.6-0.2,1-0.6,1.3c-0.4,0.4-0.9,0.6-1.3,0.6C490.6,456.2,490.1,456.1,489.7,455.6z"/>
	</g>
</g>
<g>
	<path class="st3" d="M199.6,353.5c-7.9,0-15.9-1.1-23.6-3.2c-1.3-0.4-2.7-0.8-4-1.2c-21.3-6.8-39.2-21.3-50.4-40.8
		c-11.9-20.8-15-45-8.8-68.2c6.3-23.1,21.2-42.5,42-54.4c13.6-7.8,29-11.9,44.5-11.9c7.9,0,15.9,1.1,23.7,3.2
		c23.1,6.3,42.5,21.2,54.4,42c10.1,17.7,13.9,37.6,10.9,57.6l-0.1,0.6h-8.8l0.1-0.8c3-18.5-0.4-36.9-9.7-53.1
		c-10.8-18.8-28.2-32.3-49.2-38c-7-1.9-14.2-2.9-21.4-2.9c-14,0-27.9,3.7-40.2,10.8c-18.8,10.8-32.3,28.2-38,49.2
		c-5.7,20.9-2.9,42.8,7.9,61.6c10.8,18.8,28.2,32.3,49.2,38c7.9,2.1,16.2,3.1,24.5,2.7l0.4-0.1c6.6-0.3,13.2-1.4,19.8-3.4l0.2,0
		l0.2,0c5,1,10.4,1.5,15.8,1.5l2.9,0l-2.6,1.3c-4.3,2.1-8.7,3.9-13.2,5.3l-0.2,0.1c-0.2,0.1-0.3,0.2-0.5,0.2
		C217.2,352.2,208.4,353.5,199.6,353.5z"/>
</g>
<path class="st1" d="M231,260.7c-1-7.4-8.1-12.6-15.8-11.6c-7.7,1.1-12.9,8.1-11.9,15.5c1,7.5,8,12.7,15.7,11.6
	C226.7,275.1,232,268.2,231,260.7z M218,269.4c-3.8,0.5-7.1-2-7.6-5.8c-0.5-3.7,1.9-7.2,5.7-7.7c3.8-0.5,7.1,2.1,7.6,5.8
	C224.3,265.5,221.8,268.8,218,269.4z"/>
<path class="st1" d="M267.4,293.8c-1-7.4-8.1-12.6-15.8-11.6c-7.7,1.1-12.9,8.1-11.9,15.5c1,7.5,8,12.7,15.7,11.6
	C263.1,308.2,268.4,301.2,267.4,293.8z M254.4,302.4c-3.8,0.5-7.1-2-7.6-5.7c-0.5-3.7,1.9-7.2,5.7-7.7c3.8-0.5,7.1,2.1,7.6,5.8
	C260.7,298.6,258.2,301.9,254.4,302.4z"/>
<g>
	<path class="st1" d="M215.6,306.8h-11.1l49.3-53.9h11.1L215.6,306.8z"/>
</g>
<path class="st1" d="M244,329.8c-1.5,0.1-3,0.2-4.4,0.2c-20.8,0-33.6-7.7-40.7-14.2c-10-9.1-15.7-21.9-15.7-35v-0.7h-8.6v0.7
	c0,15.6,6.7,30.7,18.5,41.4c8.2,7.5,23,16.5,46.5,16.5c2.6,0,5.4-0.2,8.1-0.4L244,329.8z"/>
</svg>
