<?xml version="1.0" encoding="utf-8"?>
<!-- Generator: Adobe Illustrator 19.0.0, SVG Export Plug-In . SVG Version: 6.00 Build 0)  -->
<svg version="1.1" id="Layer_1" xmlns="http://www.w3.org/2000/svg" xmlns:xlink="http://www.w3.org/1999/xlink" x="0px" y="0px"
	 viewBox="0 0 612 612" style="enable-background:new 0 0 612 612;" xml:space="preserve">
<style type="text/css">
	.st0{fill:#FFFFFF;stroke:#000000;stroke-miterlimit:10;}
	.st1{fill:#0083BF;}
	.st2{fill:#59AFE1;}
	.st3{fill:#74C1EC;}
</style>
<rect y="0" class="st0" width="612" height="612"/>
<g>
	<g>
		<path class="st1" d="M331.7,287.2h1.3v21h-4.2l0-11.5l-5.3,5.6l-5.3-5.6v11.5H314v-21h1.3l8.2,9.1L331.7,287.2z"/>
		<path class="st1" d="M344.5,286.8h0.4l8.7,21.4H349l-0.8-2.2h-6.9l-0.8,2.2h-4.7L344.5,286.8z M346.6,302.1l-1.9-5.4l-1.9,5.4
			H346.6z"/>
		<path class="st1" d="M362.5,286.8h0.4l8.7,21.4H367l-0.8-2.2h-6.9l-0.8,2.2h-4.7L362.5,286.8z M364.6,302.1l-1.9-5.4l-1.9,5.4
			H364.6z"/>
		<path class="st1" d="M374.5,308.2v-20.7h4.1v20.7H374.5z"/>
		<path class="st1" d="M388.1,287.5v16.5h6.6v4.1h-10.7v-20.7H388.1z"/>
		<path class="st1" d="M415.7,287.2h1.3v21h-4.2l0-11.5l-5.3,5.6l-5.3-5.6v11.5h-4.2v-21h1.3l8.2,9.1L415.7,287.2z"/>
		<path class="st1" d="M428.5,286.8h0.4l8.7,21.4H433l-0.8-2.2h-6.9l-0.8,2.2h-4.7L428.5,286.8z M430.6,302.1l-1.9-5.4l-1.9,5.4
			H430.6z"/>
		<path class="st1" d="M313.6,335.1c2.4,1.7,4.9,1.7,5.9,1.6c1.2-0.1,2.3-1,2.1-2.1c-0.1-1.2-1-1.7-2.1-2.1
			c-3.2-1.2-6.1-2.8-6.1-6.3s2.4-6.1,5.8-6.3c1.1-0.1,2.5-0.1,5.1,0.9l-0.5,4c-2.3-0.9-3.6-0.9-4.2-0.9c-1.5,0.1-2.1,1.2-2.1,2.3
			c0.1,1.2,1.1,1.7,2.3,2.1c3.2,1.2,6,3,6,6.3c0,3.4-2.4,6.1-6.2,6.3c-1.2,0.1-3.7-0.1-6.5-1.5L313.6,335.1z"/>
		<path class="st1" d="M332.1,340.7v-16.5h-5.2v-4.1h14.4v4.1h-5.1v16.5H332.1z"/>
		<path class="st1" d="M349.8,319.3h0.4l8.7,21.4h-4.7l-0.8-2.2h-6.9l-0.8,2.2h-4.7L349.8,319.3z M351.9,334.6l-1.9-5.4l-1.9,5.4
			H351.9z"/>
		<path class="st1" d="M363.6,340.7v-16.5h-5.1v-4.1h14.4v4.1h-5.1v16.5H363.6z"/>
		<path class="st1" d="M375.9,340.7v-20.7h4.1v20.7H375.9z"/>
		<path class="st1" d="M385,335.1c2.4,1.7,4.9,1.7,5.9,1.6c1.2-0.1,2.3-1,2.1-2.1c-0.1-1.2-1-1.7-2.1-2.1c-3.2-1.2-6.1-2.8-6.1-6.3
			s2.4-6.1,5.8-6.3c1.1-0.1,2.5-0.1,5.1,0.9l-0.5,4c-2.3-0.9-3.6-0.9-4.2-0.9c-1.5,0.1-2.1,1.2-2.1,2.3c0.1,1.2,1.1,1.7,2.3,2.1
			c3.2,1.2,6,3,6,6.3c0,3.4-2.4,6.1-6.2,6.3c-1.2,0.1-3.7-0.1-6.5-1.5L385,335.1z"/>
		<path class="st1" d="M403.5,340.7v-16.5h-5.1v-4.1h14.4v4.1h-5.1v16.5H403.5z"/>
		<path class="st1" d="M415.8,340.7v-20.7h4.1v20.7H415.8z"/>
		<path class="st1" d="M425.3,320.1h4.1c0,2.7,0,5.5,0,8.2l5.2-8.2h4.8l-6.7,10.2l7.3,10.5h-5.1l-5.5-8.1c0,2.7,0,5.4,0,8.1h-4.1
			V320.1z"/>
		<path class="st1" d="M448.7,319.3h0.4l8.7,21.4h-4.7l-0.8-2.2h-6.9l-0.8,2.2H440L448.7,319.3z M450.8,334.6l-1.9-5.4l-1.9,5.4
			H450.8z"/>
		<path class="st1" d="M460.7,340.7v-20.7h8.1c8,0,8,12.8,0,12.8h-4v7.9H460.7z M468.4,328.8c2.8,0,2.8-4.6,0-4.6h-3.6v4.6H468.4z"
			/>
		<path class="st1" d="M484.5,319.8l8.3,20.9h-4.7l-0.8-2.2h-6.9l-0.8,2.2H475l8.3-20.9H484.5z M480.4,314.5c1.3,0,2.4,1,2.4,2.4
			c0,1.3-1,2.3-2.4,2.3c-1.3,0-2.3-1-2.3-2.3C478,315.5,479.1,314.5,480.4,314.5z M485.8,334.6l-1.9-5.5l-1.9,5.5H485.8z
			 M487.5,314.5c1.3,0,2.4,1,2.4,2.4c0,1.3-1,2.3-2.4,2.3c-1.2,0-2.3-1-2.3-2.3C485.2,315.5,486.3,314.5,487.5,314.5z"/>
		<path class="st1" d="M495.7,340.7v-20.7H506v4.1h-6.2v4.1h5.4v4.1h-5.4v4.1h6.6v4.1H495.7z"/>
		<path class="st1" d="M516.4,341.2l-8.6-21.1h4.8l2.7,6.9l1.5,4.3l1.5-4.1l2.8-7h4.8l-8.6,21.1H516.4z"/>
		<path class="st2" d="M317.9,359.6c0-0.8-0.6-1.4-1.5-1.4c-1.3-0.1-2.8,0.7-3.3,1.1l-0.7-2.7c1.1-0.8,2.8-1.4,4.2-1.3
			c4.2,0.2,5.6,3.9,3.2,7.2l-2.8,4.3h4.2v2.9h-9.4l5.3-8.4C317.9,360.2,317.9,359.6,317.9,359.6z"/>
		<path class="st2" d="M323.6,362.6c0-4,1.4-7.3,4.9-7.3c3.5,0,4.9,3.3,4.9,7.3s-1.4,7.3-4.9,7.3C325,369.9,323.6,366.6,323.6,362.6
			z M330.6,362.6c0-2.5-0.5-4.6-2.1-4.6c-1.6,0-2.1,2.1-2.1,4.6c0,2.6,0.5,4.6,2.1,4.6C330.1,367.2,330.6,365.1,330.6,362.6z"/>
		<path class="st2" d="M337,369.8c-2.1,0-2.1-3.2,0-3.2C339.2,366.6,339.2,369.8,337,369.8z"/>
		<path class="st2" d="M340.2,355.5h5.1v14.2h-2.8v-11.4h-2.3V355.5z"/>
		<path class="st2" d="M348.5,362.6c0-4,1.4-7.3,4.9-7.3c3.5,0,4.9,3.3,4.9,7.3s-1.4,7.3-4.9,7.3
			C349.9,369.9,348.5,366.6,348.5,362.6z M355.6,362.6c0-2.5-0.5-4.6-2.1-4.6c-1.6,0-2.1,2.1-2.1,4.6c0,2.6,0.5,4.6,2.1,4.6
			C355,367.2,355.6,365.1,355.6,362.6z"/>
		<path class="st2" d="M362,369.8c-2.1,0-2.1-3.2,0-3.2C364.2,366.6,364.1,369.8,362,369.8z"/>
		<path class="st2" d="M371.7,359.6c0-0.8-0.6-1.4-1.5-1.4c-1.3-0.1-2.8,0.7-3.3,1.1l-0.7-2.7c1.1-0.8,2.8-1.4,4.2-1.3
			c4.2,0.2,5.6,3.9,3.2,7.2l-2.8,4.3h4.2v2.9h-9.4l5.3-8.4C371.7,360.2,371.7,359.6,371.7,359.6z"/>
		<path class="st2" d="M377.4,362.6c0-4,1.4-7.3,4.9-7.3c3.5,0,4.9,3.3,4.9,7.3s-1.4,7.3-4.9,7.3
			C378.8,369.9,377.4,366.6,377.4,362.6z M384.4,362.6c0-2.5-0.5-4.6-2.1-4.6c-1.6,0-2.1,2.1-2.1,4.6c0,2.6,0.5,4.6,2.1,4.6
			C383.9,367.2,384.4,365.1,384.4,362.6z"/>
		<path class="st2" d="M389,355.5h5.1v14.2h-2.8v-11.4H389V355.5z"/>
		<path class="st2" d="M406,365.5c0,2.4-1.6,4.2-4.3,4.3c-0.7,0-2.7,0-4.5-0.6l0.3-2.8c4.4,1.5,5.7,0.3,5.7-0.9
			c0-1.7-1.1-2.2-5.4-2.5v-7.5h7.2v2.7h-4.4v2.5C404.1,361,406,362.2,406,365.5z"/>
		<path class="st1" d="M313.2,398.6v-12.9h5.1c5,0,5,8,0,8h-2.5v4.9H313.2z M318,391.2c1.7,0,1.7-2.9,0-2.9h-2.3v2.9H318z"/>
		<path class="st1" d="M328.1,385.2h0.3l5.4,13.4h-2.9l-0.5-1.4h-4.3l-0.5,1.4h-2.9L328.1,385.2z M329.5,394.8l-1.2-3.4l-1.2,3.4
			H329.5z"/>
		<path class="st1" d="M342.6,398.6l-2.6-4.9h-1.2v4.9h-2.6v-12.9h5.1c4.6,0,5.1,6.5,1.3,7.6l3,5.3H342.6z M338.7,391.2h2.3
			c1.8,0,1.8-2.9,0-2.9h-2.3V391.2z"/>
		<path class="st1" d="M348.3,398.6v-12.9h6.5v2.6h-3.9v2.6h3.4v2.6h-3.4v2.6h4.1v2.6H348.3z"/>
		<path class="st1" d="M369.5,385.5h0.8v13.1h-2.6l0-7.2l-3.3,3.5l-3.3-3.5v7.2h-2.6v-13.1h0.8l5.1,5.7L369.5,385.5z"/>
		<path class="st1" d="M378.1,385.2h0.3l5.4,13.4h-2.9l-0.5-1.4H376l-0.5,1.4h-2.9L378.1,385.2z M379.4,394.8l-1.2-3.4l-1.2,3.4
			H379.4z"/>
		<path class="st1" d="M389.9,398.6h-3.9v-12.9h3.9C398.5,385.7,398.5,398.6,389.9,398.6z M388.7,388.3v7.8h1.3c5,0,5-7.8,0-7.8
			H388.7z"/>
		<path class="st1" d="M409.3,385.2h0.3l5.4,13.4h-2.9l-0.5-1.4h-4.3l-0.5,1.4h-2.9L409.3,385.2z M410.7,394.8l-1.2-3.4l-1.2,3.4
			H410.7z"/>
		<path class="st1" d="M419.9,398.6h-2.6v-13.2h0.7l6.5,7.6v-7.3h2.6v13.2h-0.7l-6.5-7.3V398.6z"/>
		<path class="st1" d="M434.9,398.6h-3.9v-12.9h3.9C443.5,385.7,443.5,398.6,434.9,398.6z M433.7,388.3v7.8h1.3c5,0,5-7.8,0-7.8
			H433.7z"/>
		<path class="st1" d="M455.7,385.5h0.8v13.1h-2.6l0-7.2l-3.3,3.5l-3.3-3.5v7.2h-2.6v-13.1h0.8l5.1,5.7L455.7,385.5z"/>
		<path class="st1" d="M460.4,398.6v-12.9h6.5v2.6H463v2.6h3.4v2.6H463v2.6h4.1v2.6H460.4z"/>
		<path class="st1" d="M474.4,398.6h-3.9v-12.9h3.9C483,385.7,483,398.6,474.4,398.6z M473.1,388.3v7.8h1.3c5,0,5-7.8,0-7.8H473.1z"
			/>
		<path class="st1" d="M484.4,398.7c-2,0-2-2.9,0-2.9C486.4,395.8,486.3,398.7,484.4,398.7z"/>
		<path class="st1" d="M313.2,420.3v-12.9h5.1c5,0,5,8,0,8h-2.5v4.9H313.2z M318,412.9c1.7,0,1.7-2.9,0-2.9h-2.3v2.9H318z"/>
		<path class="st1" d="M328.1,406.9h0.3l5.4,13.4h-2.9l-0.5-1.4h-4.3l-0.5,1.4h-2.9L328.1,406.9z M329.5,416.5l-1.2-3.4l-1.2,3.4
			H329.5z"/>
		<path class="st1" d="M342.6,420.3l-2.6-4.9h-1.2v4.9h-2.6v-12.9h5.1c4.6,0,5.1,6.5,1.3,7.6l3,5.3H342.6z M338.7,412.9h2.3
			c1.8,0,1.8-2.9,0-2.9h-2.3V412.9z"/>
		<path class="st1" d="M348.3,420.3v-12.9h6.5v2.6h-3.9v2.6h3.4v2.6h-3.4v2.6h4.1v2.6H348.3z"/>
		<path class="st1" d="M369.5,407.2h0.8v13.1h-2.6l0-7.2l-3.3,3.5l-3.3-3.5v7.2h-2.6v-13.1h0.8l5.1,5.7L369.5,407.2z"/>
		<path class="st1" d="M379.5,420.3v-12.9h6.5v2.6h-3.9v2.6h3.4v2.6h-3.4v2.6h4.1v2.6H379.5z"/>
		<path class="st1" d="M392.2,407.4v10.3h4.1v2.6h-6.7v-12.9H392.2z"/>
		<path class="st1" d="M398.6,415.8v-8.4h2.6v8.4c0,2.7,4.2,2.7,4.2,0v-8.4h2.6v8.4C408,422,398.6,422,398.6,415.8z"/>
		<path class="st1" d="M412.2,420.4c-2,0-2-2.9,0-2.9C414.2,417.5,414.2,420.4,412.2,420.4z"/>
	</g>
</g>
<g>
	<path class="st3" d="M197.7,353.1c-7.8,0-15.7-1-23.3-3.1c-1.3-0.4-2.6-0.8-3.9-1.2c-21-6.7-38.7-21-49.7-40.3
		c-11.8-20.5-14.8-44.4-8.6-67.2c6.2-22.8,20.9-41.9,41.4-53.7c13.4-7.7,28.6-11.8,43.9-11.8c7.8,0,15.7,1,23.3,3.1
		c22.8,6.2,41.9,20.9,53.7,41.4c10,17.4,13.7,37.1,10.8,56.9l-0.1,0.6h-8.6l0.1-0.8c2.9-18.2-0.4-36.4-9.6-52.4
		c-10.6-18.6-27.9-31.9-48.5-37.5c-6.9-1.9-14-2.8-21.1-2.8c-13.8,0-27.5,3.7-39.7,10.6c-18.6,10.6-31.9,27.9-37.5,48.5
		c-5.6,20.6-2.8,42.2,7.8,60.8c10.6,18.6,27.9,31.9,48.5,37.5c7.8,2.1,16,3,24.2,2.7l0.4-0.1c6.5-0.3,13.1-1.4,19.5-3.4l0.2,0l0.2,0
		c5,1,10.2,1.5,15.6,1.5l2.9,0l-2.6,1.3c-4.2,2.1-8.6,3.8-13,5.2l-0.2,0.1c-0.2,0.1-0.3,0.2-0.5,0.2
		C215.1,351.8,206.5,353.1,197.7,353.1z"/>
</g>
<path class="st1" d="M228.7,261.5c-1-7.3-8-12.5-15.6-11.4c-7.6,1.1-12.8,7.9-11.7,15.2c1,7.4,7.9,12.5,15.5,11.4
	C224.5,275.7,229.8,268.9,228.7,261.5z M216,270c-3.7,0.5-7-1.9-7.5-5.7c-0.5-3.7,1.9-7.1,5.7-7.6c3.7-0.5,7,2.1,7.5,5.8
	C222.2,266.2,219.7,269.5,216,270z"/>
<path class="st1" d="M264.6,294.1c-1-7.3-8-12.5-15.6-11.4c-7.6,1.1-12.8,7.9-11.7,15.2c1,7.4,7.9,12.5,15.5,11.4
	C260.4,308.3,265.7,301.5,264.6,294.1z M251.9,302.6c-3.7,0.5-7-1.9-7.5-5.7c-0.5-3.7,1.9-7.1,5.7-7.6c3.7-0.5,7,2.1,7.5,5.8
	C258.1,298.8,255.6,302.1,251.9,302.6z"/>
<g>
	<path class="st1" d="M213.5,307h-11l48.6-53.2h10.9L213.5,307z"/>
</g>
<path class="st1" d="M241.6,329.7c-1.5,0.1-3,0.2-4.4,0.2c-20.5,0-33.1-7.6-40.1-14c-9.8-9-15.5-21.6-15.5-34.6v-0.7h-8.5v0.7
	c0,15.4,6.7,30.3,18.3,40.9c8.1,7.4,22.7,16.3,45.8,16.3c2.6,0,5.3-0.1,8-0.4L241.6,329.7z"/>
</svg>
