<?xml version="1.0" encoding="utf-8"?>
<!-- Generator: Adobe Illustrator 19.0.0, SVG Export Plug-In . SVG Version: 6.00 Build 0)  -->
<svg version="1.1" id="Layer_1" xmlns="http://www.w3.org/2000/svg" xmlns:xlink="http://www.w3.org/1999/xlink" x="0px" y="0px"
	 viewBox="0 0 612 612" style="enable-background:new 0 0 612 612;" xml:space="preserve">
<style type="text/css">
	.st0{fill:#0083BF;}
	.st1{fill:#FFFFFF;}
	.st2{fill:#90CEF1;}
	.st3{fill:#74C1EC;}
</style>
<rect y="0" class="st0" width="612" height="612"/>
<g>
	<g>
		<path class="st1" d="M333.6,285.5h1.3v21.3h-4.2l0-11.7l-5.4,5.6l-5.4-5.6v11.7h-4.2v-21.3h1.3l8.3,9.2L333.6,285.5z"/>
		<path class="st1" d="M346.6,285h0.4l8.8,21.7h-4.7l-0.8-2.3h-6.9l-0.8,2.3h-4.7L346.6,285z M348.7,300.6l-1.9-5.4l-2,5.4H348.7z"
			/>
		<path class="st1" d="M364.9,285h0.4l8.8,21.7h-4.7l-0.8-2.3h-6.9l-0.8,2.3H356L364.9,285z M367,300.6l-1.9-5.4l-2,5.4H367z"/>
		<path class="st1" d="M377,306.7v-20.9h4.2v20.9H377z"/>
		<path class="st1" d="M390.8,285.8v16.8h6.7v4.2h-10.8v-20.9H390.8z"/>
		<path class="st1" d="M418.7,285.5h1.3v21.3h-4.2l0-11.7l-5.4,5.6l-5.4-5.6v11.7h-4.2v-21.3h1.3l8.3,9.2L418.7,285.5z"/>
		<path class="st1" d="M431.7,285h0.4l8.8,21.7h-4.7l-0.8-2.3h-6.9l-0.8,2.3h-4.7L431.7,285z M433.8,300.6l-1.9-5.4l-2,5.4H433.8z"
			/>
		<path class="st1" d="M315.3,334c2.4,1.7,5,1.8,6,1.7c1.2-0.1,2.3-1,2.2-2.1c-0.1-1.2-1-1.7-2.2-2.1c-3.3-1.2-6.2-2.9-6.2-6.4
			s2.4-6.2,5.9-6.4c1.1-0.1,2.5-0.1,5.2,0.9l-0.5,4c-2.3-0.9-3.6-0.9-4.3-0.9c-1.5,0.1-2.2,1.2-2.1,2.3c0.1,1.2,1.1,1.7,2.3,2.1
			c3.3,1.2,6.1,3.1,6.1,6.4c0,3.5-2.4,6.2-6.3,6.4c-1.2,0.1-3.8-0.1-6.6-1.5L315.3,334z"/>
		<path class="st1" d="M334,339.7V323h-5.2v-4.2h14.6v4.2h-5.2v16.8H334z"/>
		<path class="st1" d="M352,318h0.4l8.8,21.7h-4.7l-0.8-2.3h-6.9l-0.8,2.3h-4.7L352,318z M354.1,333.5l-1.9-5.4l-2,5.4H354.1z"/>
		<path class="st1" d="M365.9,339.7V323h-5.2v-4.2h14.6v4.2h-5.2v16.8H365.9z"/>
		<path class="st1" d="M378.4,339.7v-20.9h4.2v20.9H378.4z"/>
		<path class="st1" d="M387.7,334c2.4,1.7,5,1.8,6,1.7c1.2-0.1,2.3-1,2.2-2.1c-0.1-1.2-1-1.7-2.2-2.1c-3.3-1.2-6.2-2.9-6.2-6.4
			s2.4-6.2,5.9-6.4c1.1-0.1,2.5-0.1,5.2,0.9l-0.5,4c-2.3-0.9-3.6-0.9-4.3-0.9c-1.5,0.1-2.2,1.2-2.1,2.3c0.1,1.2,1.1,1.7,2.3,2.1
			c3.3,1.2,6.1,3.1,6.1,6.4c0,3.5-2.4,6.2-6.3,6.4c-1.2,0.1-3.8-0.1-6.6-1.5L387.7,334z"/>
		<path class="st1" d="M406.4,339.7V323h-5.2v-4.2h14.6v4.2h-5.2v16.8H406.4z"/>
		<path class="st1" d="M418.8,339.7v-20.9h4.2v20.9H418.8z"/>
		<path class="st1" d="M428.4,318.8h4.2c0,2.8,0,5.6,0,8.3l5.3-8.3h4.9l-6.8,10.3l7.4,10.6h-5.2l-5.6-8.2c0,2.7,0,5.5,0,8.2h-4.2
			V318.8z"/>
		<path class="st1" d="M452.2,318h0.4l8.8,21.7h-4.7l-0.8-2.3h-6.9l-0.8,2.3h-4.7L452.2,318z M454.3,333.5l-1.9-5.4l-2,5.4H454.3z"
			/>
		<path class="st1" d="M464.3,339.7v-20.9h8.2c8.1,0,8.1,12.9,0,12.9h-4v8H464.3z M472.2,327.6c2.8,0,2.8-4.7,0-4.7h-3.7v4.7H472.2z
			"/>
		<path class="st1" d="M488.5,318.5l8.4,21.2h-4.7l-0.8-2.3h-6.9l-0.8,2.3h-4.7l8.4-21.2H488.5z M484.2,313.1c1.3,0,2.4,1,2.4,2.4
			c0,1.3-1.1,2.4-2.4,2.4c-1.3,0-2.4-1-2.4-2.4C481.9,314.1,483,313.1,484.2,313.1z M489.8,333.5l-1.9-5.6l-2,5.6H489.8z
			 M491.5,313.1c1.3,0,2.4,1,2.4,2.4c0,1.3-1.1,2.3-2.4,2.4c-1.3,0-2.4-1-2.4-2.4C489.1,314.1,490.2,313.1,491.5,313.1z"/>
		<path class="st1" d="M499.8,339.7v-20.9h10.5v4.2h-6.3v4.2h5.5v4.2h-5.5v4.2h6.7v4.2H499.8z"/>
		<path class="st1" d="M520.7,340.1l-8.7-21.4h4.8l2.8,7l1.5,4.3l1.5-4.2l2.8-7.1h4.8l-8.7,21.4H520.7z"/>
		<path class="st2" d="M319.6,358.8c0-0.8-0.6-1.4-1.5-1.5c-1.3-0.1-2.9,0.7-3.3,1.1l-0.7-2.8c1.1-0.8,2.9-1.4,4.3-1.3
			c4.2,0.2,5.6,3.9,3.2,7.3l-2.8,4.4h4.3v2.9h-9.5l5.4-8.5C319.7,359.4,319.6,358.8,319.6,358.8z"/>
		<path class="st2" d="M325.4,361.8c0-4.1,1.4-7.4,4.9-7.4c3.6,0,5,3.3,5,7.4c0,4.1-1.4,7.4-5,7.4
			C326.8,369.2,325.4,365.9,325.4,361.8z M332.5,361.8c0-2.6-0.5-4.7-2.2-4.7c-1.6,0-2.1,2.1-2.1,4.7c0,2.6,0.5,4.7,2.1,4.7
			C332,366.5,332.5,364.4,332.5,361.8z"/>
		<path class="st2" d="M339.1,369.2c-2.2,0-2.2-3.2,0-3.2C341.3,365.9,341.2,369.2,339.1,369.2z"/>
		<path class="st2" d="M342.3,354.6h5.2V369h-2.9v-11.5h-2.4V354.6z"/>
		<path class="st2" d="M350.7,361.8c0-4.1,1.4-7.4,4.9-7.4c3.6,0,5,3.3,5,7.4c0,4.1-1.4,7.4-5,7.4
			C352.1,369.2,350.7,365.9,350.7,361.8z M357.8,361.8c0-2.6-0.5-4.7-2.2-4.7c-1.6,0-2.1,2.1-2.1,4.7c0,2.6,0.5,4.7,2.1,4.7
			C357.3,366.5,357.8,364.4,357.8,361.8z"/>
		<path class="st2" d="M364.3,369.2c-2.2,0-2.2-3.2,0-3.2C366.6,365.9,366.5,369.2,364.3,369.2z"/>
		<path class="st2" d="M374.1,358.8c0-0.8-0.6-1.4-1.5-1.5c-1.3-0.1-2.9,0.7-3.3,1.1l-0.7-2.8c1.1-0.8,2.9-1.4,4.3-1.3
			c4.2,0.2,5.6,3.9,3.2,7.3l-2.8,4.4h4.3v2.9H368l5.4-8.5C374.2,359.4,374.1,358.8,374.1,358.8z"/>
		<path class="st2" d="M379.9,361.8c0-4.1,1.4-7.4,4.9-7.4c3.6,0,5,3.3,5,7.4c0,4.1-1.4,7.4-5,7.4
			C381.3,369.2,379.9,365.9,379.9,361.8z M387.1,361.8c0-2.6-0.5-4.7-2.2-4.7c-1.6,0-2.1,2.1-2.1,4.7c0,2.6,0.5,4.7,2.1,4.7
			C386.5,366.5,387.1,364.4,387.1,361.8z"/>
		<path class="st2" d="M391.7,354.6h5.2V369H394v-11.5h-2.4V354.6z"/>
		<path class="st2" d="M408.9,364.8c0,2.4-1.6,4.2-4.3,4.4c-0.7,0-2.7,0-4.6-0.6l0.3-2.9c4.5,1.5,5.8,0.3,5.7-0.9
			c0-1.7-1.1-2.2-5.5-2.5v-7.6h7.3v2.8h-4.4v2.5C407,360.2,408.9,361.5,408.9,364.8z"/>
		<path class="st1" d="M314.9,398.3v-13.1h5.1c5.1,0,5.1,8.1,0,8.1h-2.5v5H314.9z M319.8,390.8c1.8,0,1.8-2.9,0-2.9h-2.3v2.9H319.8z
			"/>
		<path class="st1" d="M330,384.7h0.3l5.5,13.6h-2.9l-0.5-1.4H328l-0.5,1.4h-3L330,384.7z M331.4,394.5l-1.2-3.4l-1.2,3.4H331.4z"/>
		<path class="st1" d="M344.7,398.3l-2.6-5h-1.3v5h-2.6v-13.1h5.2c4.7,0,5.1,6.6,1.3,7.7l3,5.4H344.7z M340.8,390.8h2.3
			c1.8,0,1.8-2.9,0-2.9h-2.3V390.8z"/>
		<path class="st1" d="M350.5,398.3v-13.1h6.6v2.6h-3.9v2.6h3.4v2.6h-3.4v2.6h4.2v2.6H350.5z"/>
		<path class="st1" d="M371.9,385h0.8v13.3h-2.7l0-7.3l-3.4,3.5l-3.4-3.5v7.3h-2.7V385h0.8l5.2,5.7L371.9,385z"/>
		<path class="st1" d="M380.6,384.7h0.3l5.5,13.6h-2.9l-0.5-1.4h-4.3l-0.5,1.4h-3L380.6,384.7z M381.9,394.5l-1.2-3.4l-1.2,3.4
			H381.9z"/>
		<path class="st1" d="M392.6,398.3h-3.9v-13.1h3.9C401.3,385.2,401.3,398.3,392.6,398.3z M391.3,387.8v7.9h1.3c5.1,0,5.1-7.9,0-7.9
			H391.3z"/>
		<path class="st1" d="M412.3,384.7h0.3l5.5,13.6h-2.9l-0.5-1.4h-4.3l-0.5,1.4h-3L412.3,384.7z M413.6,394.5l-1.2-3.4l-1.2,3.4
			H413.6z"/>
		<path class="st1" d="M423,398.3h-2.6v-13.4h0.7l6.6,7.7v-7.4h2.6v13.3h-0.7l-6.6-7.4V398.3z"/>
		<path class="st1" d="M438.2,398.3h-3.9v-13.1h3.9C446.9,385.2,446.9,398.3,438.2,398.3z M436.9,387.8v7.9h1.3c5.1,0,5.1-7.9,0-7.9
			H436.9z"/>
		<path class="st1" d="M459.2,385h0.8v13.3h-2.7l0-7.3l-3.4,3.5l-3.4-3.5v7.3H448V385h0.8l5.2,5.7L459.2,385z"/>
		<path class="st1" d="M464,398.3v-13.1h6.6v2.6h-3.9v2.6h3.4v2.6h-3.4v2.6h4.2v2.6H464z"/>
		<path class="st1" d="M478.2,398.3h-3.9v-13.1h3.9C486.9,385.2,486.9,398.3,478.2,398.3z M476.9,387.8v7.9h1.3c5.1,0,5.1-7.9,0-7.9
			H476.9z"/>
		<path class="st1" d="M488.3,398.4c-2,0-2-2.9,0-2.9C490.3,395.5,490.3,398.4,488.3,398.4z"/>
		<path class="st1" d="M314.9,420.3v-13.1h5.1c5.1,0,5.1,8.1,0,8.1h-2.5v5H314.9z M319.8,412.8c1.8,0,1.8-2.9,0-2.9h-2.3v2.9H319.8z
			"/>
		<path class="st1" d="M330,406.7h0.3l5.5,13.6h-2.9l-0.5-1.4H328l-0.5,1.4h-3L330,406.7z M331.4,416.4l-1.2-3.4l-1.2,3.4H331.4z"/>
		<path class="st1" d="M344.7,420.3l-2.6-5h-1.3v5h-2.6v-13.1h5.2c4.7,0,5.1,6.6,1.3,7.7l3,5.4H344.7z M340.8,412.8h2.3
			c1.8,0,1.8-2.9,0-2.9h-2.3V412.8z"/>
		<path class="st1" d="M350.5,420.3v-13.1h6.6v2.6h-3.9v2.6h3.4v2.6h-3.4v2.6h4.2v2.6H350.5z"/>
		<path class="st1" d="M371.9,407h0.8v13.3h-2.7l0-7.3l-3.4,3.5l-3.4-3.5v7.3h-2.7V407h0.8l5.2,5.7L371.9,407z"/>
		<path class="st1" d="M382,420.3v-13.1h6.6v2.6h-3.9v2.6h3.4v2.6h-3.4v2.6h4.2v2.6H382z"/>
		<path class="st1" d="M395,407.2v10.5h4.2v2.6h-6.8v-13.1H395z"/>
		<path class="st1" d="M401.4,415.7v-8.5h2.6v8.5c0,2.7,4.2,2.7,4.2,0v-8.5h2.6v8.5C410.9,422,401.4,422,401.4,415.7z"/>
		<path class="st1" d="M415.2,420.4c-2,0-2-2.9,0-2.9C417.2,417.5,417.2,420.4,415.2,420.4z"/>
	</g>
</g>
<g>
	<path class="st3" d="M197.9,352.2c-7.9,0-15.9-1.1-23.6-3.1c-1.3-0.4-2.7-0.8-4-1.2c-21.3-6.8-39.2-21.3-50.4-40.8
		c-11.9-20.8-15-45-8.7-68.1c6.3-23.1,21.2-42.4,42-54.4c13.6-7.8,29-11.9,44.5-11.9c7.9,0,15.9,1.1,23.6,3.2
		c23.1,6.3,42.4,21.2,54.4,42c10.1,17.6,13.9,37.6,10.9,57.6l-0.1,0.6h-8.8l0.1-0.8c3-18.5-0.4-36.8-9.7-53.1
		c-10.8-18.8-28.2-32.3-49.1-37.9c-7-1.9-14.2-2.9-21.4-2.9c-14,0-27.9,3.7-40.2,10.8c-18.8,10.8-32.3,28.2-37.9,49.1
		c-5.7,20.9-2.9,42.8,7.9,61.6c10.8,18.8,28.2,32.3,49.1,37.9c7.9,2.1,16.2,3.1,24.5,2.7l0.4-0.1c6.6-0.3,13.2-1.4,19.8-3.4l0.2,0
		l0.2,0c5,1,10.4,1.5,15.8,1.5l2.9,0l-2.6,1.3c-4.3,2.1-8.7,3.9-13.1,5.3l-0.2,0.1c-0.2,0.1-0.3,0.2-0.5,0.2
		C215.5,350.9,206.8,352.2,197.9,352.2z"/>
</g>
<path class="st1" d="M229.3,259.4c-1-7.4-8.1-12.6-15.8-11.6c-7.7,1.1-12.9,8-11.9,15.4c1,7.5,8,12.7,15.7,11.6
	C225,273.8,230.4,266.9,229.3,259.4z M216.4,268.1c-3.8,0.5-7.1-2-7.6-5.8c-0.5-3.7,1.9-7.2,5.7-7.7c3.8-0.5,7.1,2.1,7.6,5.8
	C222.7,264.2,220.2,267.5,216.4,268.1z"/>
<path class="st1" d="M265.7,292.4c-1-7.4-8.1-12.6-15.8-11.6c-7.7,1.1-12.9,8-11.9,15.4c1,7.5,8,12.7,15.7,11.6
	C261.4,306.8,266.8,299.9,265.7,292.4z M252.8,301.1c-3.8,0.5-7.1-2-7.6-5.7c-0.5-3.7,1.9-7.2,5.7-7.7c3.8-0.5,7.1,2.1,7.6,5.8
	C259,297.2,256.6,300.5,252.8,301.1z"/>
<g>
	<path class="st1" d="M213.9,305.5h-11.1l49.2-53.8h11.1L213.9,305.5z"/>
</g>
<path class="st1" d="M242.4,328.5c-1.5,0.1-3,0.2-4.4,0.2c-20.8,0-33.6-7.7-40.7-14.2c-10-9.1-15.7-21.9-15.7-35v-0.7H173v0.7
	c0,15.6,6.7,30.7,18.5,41.4c8.2,7.5,23,16.5,46.4,16.5c2.6,0,5.4-0.1,8.1-0.4L242.4,328.5z"/>
</svg>
