<?xml version="1.0" encoding="utf-8"?>
<!-- Generator: Adobe Illustrator 19.0.0, SVG Export Plug-In . SVG Version: 6.00 Build 0)  -->
<svg version="1.1" id="Layer_1" xmlns="http://www.w3.org/2000/svg" xmlns:xlink="http://www.w3.org/1999/xlink" x="0px" y="0px"
	 viewBox="0 0 612 612" style="enable-background:new 0 0 612 612;" xml:space="preserve">
<metadata><?xpacket begin="﻿" id="W5M0MpCehiHzreSzNTczkc9d"?>
<x:xmpmeta xmlns:x="adobe:ns:meta/" x:xmptk="Adobe XMP Core 5.6-c067 79.157747, 2015/03/30-23:40:42        ">
   <rdf:RDF xmlns:rdf="http://www.w3.org/1999/02/22-rdf-syntax-ns#">
      <rdf:Description rdf:about=""/>
   </rdf:RDF>
</x:xmpmeta>
                                                                                                    
                                                                                                    
                                                                                                    
                                                                                                    
                                                                                                    
                                                                                                    
                                                                                                    
                                                                                                    
                                                                                                    
                                                                                                    
                                                                                                    
                                                                                                    
                                                                                                    
                                                                                                    
                                                                                                    
                                                                                                    
                                                                                                    
                                                                                                    
                                                                                                    
                                                                                                    
                           
<?xpacket end="w"?></metadata>
<style type="text/css">
	.st0{fill:#0083BF;}
	.st1{fill:#FFFFFF;}
	.st2{fill:#90CEF1;}
	.st3{fill:#74C1EC;}
</style>
<rect y="0" class="st0" width="612" height="612"/>
<g>
	<g>
		<path class="st1" d="M313.3,280.8h1.3V301h-4l0-11.1l-5.1,5.3l-5.1-5.3V301h-4v-20.2h1.3l7.8,8.7L313.3,280.8z"/>
		<path class="st1" d="M319.7,294.1v-13h4v12.9c0,4.2,6.4,4.2,6.4,0v-12.9h3.9v13C334,303.5,319.7,303.5,319.7,294.1z M327.8,279.3
			l-1-1.3l-1,1.3h-4.2l3.9-3.9h2.6l4,3.9H327.8z"/>
		<path class="st1" d="M341.4,301v-15.9h-4.9v-3.9h13.9v3.9h-4.9V301H341.4z"/>
		<path class="st1" d="M363.1,301v-8h-5.9v8h-4v-19.9h4v8h5.9v-8h4V301H363.1z"/>
		<path class="st1" d="M372.2,301v-19.9h10v4h-6v4h5.2v4h-5.2v4h6.3v4H372.2z"/>
		<path class="st1" d="M391,301h-4v-20.3h1.1l10,11.7v-11.2h4v20.3h-1.1L391,290.2V301z"/>
		<path class="st1" d="M410.8,292.1l-6.9-10.9h4.8l4.1,6.8l4.1-6.8h4.9l-7,10.9v9h-3.9V292.1z"/>
		<path class="st1" d="M428.9,280.4h0.4l8.4,20.6h-4.5l-0.8-2.1h-6.6L425,301h-4.5L428.9,280.4z M430.9,295.1l-1.8-5.2l-1.9,5.2
			H430.9z"/>
		<path class="st1" d="M454.4,301.4l-8.1-20.3h4.5l4,10.1l3.9-10h0.2l3.9,10l4-10.1h4.5l-8.1,20.2h-0.7l-3.6-8.8l-3.6,8.9H454.4z"/>
		<path class="st1" d="M478.9,280.4h0.4l8.4,20.6h-4.5l-0.8-2.1h-6.6L475,301h-4.5L478.9,280.4z M480.9,295.1l-1.8-5.2l-1.9,5.2
			H480.9z"/>
		<path class="st1" d="M504.4,301.4l-8.1-20.3h4.5l4,10.1l3.9-10h0.2l3.9,10l4-10.1h4.5l-8.1,20.2h-0.7l-3.6-8.8l-3.6,8.9H504.4z"/>
		<path class="st1" d="M528.9,280.4h0.4l8.4,20.6h-4.5l-0.8-2.1h-6.6L525,301h-4.5L528.9,280.4z M530.9,295.1l-1.8-5.2l-1.9,5.2
			H530.9z"/>
		<path class="st1" d="M305.6,332.4c-13.1,0-13.8-19.7,0-20.2c2.4-0.1,4.3,0.6,4.6,0.7l-0.5,4c-0.8-0.3-2.1-0.8-4.2-0.7
			c-8,0.3-7.7,12.1,0,12.1c0.4,0,0.8-0.1,1.1-0.1v-6h4v8.7C309.2,331.9,307.5,332.4,305.6,332.4z"/>
		<path class="st1" d="M315.4,325.4v-13h4v12.9c0,4.2,6.4,4.2,6.4,0v-12.9h3.9v13C329.8,334.8,315.4,334.8,315.4,325.4z
			 M323.6,310.6l-1-1.3l-1,1.3h-4.2l3.9-3.9h2.6l4,3.9H323.6z"/>
		<path class="st1" d="M334.9,312.4h4c0,2.6,0,5.3,0,7.9l5-7.9h4.6l-6.5,9.8l7,10.1h-4.9l-5.3-7.8c0,2.6,0,5.2,0,7.8h-4V312.4z"/>
		<path class="st1" d="M351.3,325.4v-13h4v12.9c0,4.2,6.4,4.2,6.4,0v-12.9h3.9v13C365.7,334.8,351.3,334.8,351.3,325.4z
			 M359.5,310.6l-1-1.3l-1,1.3h-4.2l3.9-3.9h2.6l4,3.9H359.5z"/>
		<path class="st1" d="M374.7,332.3h-4V312h1.1l10,11.7v-11.2h4v20.3h-1.1l-10.1-11.2V332.3z"/>
		<path class="st1" d="M399.9,332.4c-13.1,0-13.8-19.7,0-20.2c2.4-0.1,4.3,0.6,4.6,0.7l-0.5,4c-0.8-0.3-2.1-0.8-4.2-0.7
			c-8,0.3-7.7,12.1,0,12.1c0.4,0,0.8-0.1,1.1-0.1v-6h4v8.7C403.6,331.9,401.8,332.4,399.9,332.4z"/>
		<path class="st1" d="M409.8,325.4v-13h4v12.9c0,4.2,6.4,4.2,6.4,0v-12.9h3.9v13C424.2,334.8,409.8,334.8,409.8,325.4z M418,310.6
			l-1-1.3l-1,1.3h-4.2l3.9-3.9h2.6l4,3.9H418z"/>
		<path class="st1" d="M432,310.9l-1-1.3l-0.9,1.3h-3.9l3.7-4h2.4l3.7,4H432z M429.2,332.3v-19.9h4v19.9H429.2z"/>
		<path class="st1" d="M448.2,332.3l-4-7.6h-1.9v7.6h-4v-19.9h7.8c7.1,0,7.8,10,1.9,11.7l4.6,8.2H448.2z M442.3,320.8h3.5
			c2.7,0,2.7-4.4,0-4.4h-3.5V320.8z"/>
		<path class="st1" d="M461.8,311.7h0.4l8.4,20.6h-4.5l-0.8-2.1h-6.6l-0.8,2.1h-4.5L461.8,311.7z M463.8,326.4l-1.8-5.2l-1.9,5.2
			H463.8z"/>
		<path class="st1" d="M313.3,343.4h1.3v20.2h-4l0-11.1l-5.1,5.3l-5.1-5.3v11.1h-4v-20.2h1.3l7.8,8.7L313.3,343.4z"/>
		<path class="st1" d="M325.6,342.9h0.4l8.4,20.6h-4.5l-0.8-2.1h-6.6l-0.8,2.1h-4.5L325.6,342.9z M327.6,357.7l-1.8-5.2l-1.9,5.2
			H327.6z"/>
		<path class="st1" d="M338.9,363.5v-15.9h-4.9v-3.9h13.9v3.9h-4.9v15.9H338.9z"/>
		<path class="st1" d="M360.5,363.5v-8h-5.9v8h-4v-19.9h4v8h5.9v-8h4v19.9H360.5z"/>
		<path class="st1" d="M375.5,342.9h0.4l8.4,20.6h-4.5l-0.8-2.1h-6.6l-0.8,2.1h-4.5L375.5,342.9z M377.5,357.7l-1.8-5.2l-1.9,5.2
			H377.5z"/>
		<path class="st1" d="M387,343.6h7.9c3.5,0,5.7,2.5,5.6,6c-0.1,1.5-0.6,3.1-1.8,3.9c1.3,0.9,2.1,2.4,2.1,4c0,3.3-2.6,6-5.9,6H387
			V343.6z M391,351.6h2.4h1.1c1.1,0,1.8-0.9,1.8-2c0-1.1-0.7-2-1.8-2H391V351.6z M391,359.6h2.4h1.1c1.1,0,2-0.9,2-2
			c0-1.1-0.9-2-2-2H391V359.6z"/>
		<path class="st1" d="M404.9,356.6v-13h4v12.9c0,4.2,6.4,4.2,6.4,0v-12.9h3.9v13C419.3,366.1,404.9,366.1,404.9,356.6z"/>
		<path class="st1" d="M425,363.7c-3,0-3-4.5,0-4.5C428.1,359.3,428,363.7,425,363.7z"/>
		<path class="st2" d="M300,381.7c0-0.8-0.6-1.3-1.4-1.4c-1.2-0.1-2.7,0.7-3.2,1.1l-0.7-2.6c1.1-0.8,2.7-1.3,4-1.2
			c4,0.2,5.3,3.7,3.1,6.9l-2.7,4.2h4v2.8h-9l5.1-8.1C300.1,382.2,300,381.7,300,381.7z"/>
		<path class="st2" d="M305.5,384.5c0-3.9,1.3-7,4.7-7c3.4,0,4.7,3.1,4.7,7c0,3.9-1.3,7-4.7,7C306.9,391.5,305.5,388.4,305.5,384.5z
			 M312.3,384.5c0-2.4-0.5-4.5-2.1-4.5c-1.5,0-2,2-2,4.5c0,2.5,0.5,4.5,2,4.5C311.8,389,312.3,387,312.3,384.5z"/>
		<path class="st2" d="M318.5,391.5c-2.1,0-2.1-3.1,0-3.1C320.6,388.4,320.5,391.5,318.5,391.5z"/>
		<path class="st2" d="M321.5,377.7h4.9v13.6h-2.7v-10.9h-2.2V377.7z"/>
		<path class="st2" d="M329.5,384.5c0-3.9,1.3-7,4.7-7c3.4,0,4.7,3.1,4.7,7c0,3.9-1.3,7-4.7,7C330.8,391.5,329.5,388.4,329.5,384.5z
			 M336.3,384.5c0-2.4-0.5-4.5-2.1-4.5c-1.5,0-2,2-2,4.5c0,2.5,0.5,4.5,2,4.5C335.7,389,336.3,387,336.3,384.5z"/>
		<path class="st2" d="M342.5,391.5c-2.1,0-2.1-3.1,0-3.1C344.6,388.4,344.5,391.5,342.5,391.5z"/>
		<path class="st2" d="M351.7,381.7c0-0.8-0.6-1.3-1.4-1.4c-1.2-0.1-2.7,0.7-3.2,1.1l-0.7-2.6c1.1-0.8,2.7-1.3,4-1.2
			c4,0.2,5.3,3.7,3.1,6.9l-2.7,4.2h4v2.8h-9l5.1-8.1C351.8,382.2,351.7,381.7,351.7,381.7z"/>
		<path class="st2" d="M357.2,384.5c0-3.9,1.3-7,4.7-7c3.4,0,4.7,3.1,4.7,7c0,3.9-1.3,7-4.7,7C358.6,391.5,357.2,388.4,357.2,384.5z
			 M364,384.5c0-2.4-0.5-4.5-2.1-4.5c-1.5,0-2,2-2,4.5c0,2.5,0.5,4.5,2,4.5C363.5,389,364,387,364,384.5z"/>
		<path class="st2" d="M368.4,377.7h4.9v13.6h-2.7v-10.9h-2.2V377.7z"/>
		<path class="st2" d="M384.7,387.3c0,2.3-1.5,4-4.1,4.1c-0.7,0-2.6,0-4.4-0.6l0.2-2.7c4.2,1.5,5.5,0.3,5.4-0.9c0-1.6-1-2.1-5.2-2.4
			v-7.2h7v2.6h-4.2v2.4C382.9,383,384.7,384.2,384.7,387.3z"/>
		<path class="st1" d="M306.1,407.6h0.8v12.6h-2.5l0-6.9l-3.2,3.3l-3.2-3.3v6.9h-2.5v-12.6h0.8l4.9,5.5L306.1,407.6z"/>
		<path class="st1" d="M314.3,407.4h0.3l5.2,12.9H317l-0.5-1.3h-4.1l-0.5,1.3h-2.8L314.3,407.4z M315.6,416.6l-1.1-3.2l-1.2,3.2
			H315.6z"/>
		<path class="st1" d="M323.2,420.2v-9.9h-3.1v-2.5h8.7v2.5h-3.1v9.9H323.2z"/>
		<path class="st1" d="M337.2,420.2v-5h-3.7v5H331v-12.4h2.5v5h3.7v-5h2.5v12.4H337.2z"/>
		<path class="st1" d="M347.1,407.4h0.3l5.2,12.9h-2.8l-0.5-1.3h-4.1l-0.5,1.3h-2.8L347.1,407.4z M348.4,416.6l-1.1-3.2l-1.2,3.2
			H348.4z"/>
		<path class="st1" d="M354.8,407.8h4.9c2.2,0,3.6,1.6,3.5,3.8c0,0.9-0.4,1.9-1.1,2.5c0.8,0.6,1.3,1.5,1.3,2.5
			c0,2.1-1.7,3.7-3.7,3.7h-4.9V407.8z M357.3,412.8h1.5h0.7c0.7,0,1.1-0.6,1.1-1.3c0-0.7-0.4-1.3-1.1-1.3h-2.2V412.8z M357.3,417.8
			h1.5h0.7c0.7,0,1.3-0.6,1.3-1.3c0-0.7-0.5-1.2-1.3-1.2h-2.2V417.8z"/>
		<path class="st1" d="M366.6,415.9v-8.1h2.5v8.1c0,2.6,4,2.6,4,0v-8.1h2.5v8.1C375.5,421.8,366.6,421.8,366.6,415.9z"/>
		<path class="st1" d="M394.9,407.6h0.8v12.6h-2.5l0-6.9l-3.2,3.3l-3.2-3.3v6.9h-2.5v-12.6h0.8l4.9,5.5L394.9,407.6z"/>
		<path class="st1" d="M403.1,407.4h0.3l5.2,12.9h-2.8l-0.5-1.3h-4.1l-0.5,1.3h-2.8L403.1,407.4z M404.4,416.6l-1.1-3.2l-1.2,3.2
			H404.4z"/>
		<path class="st1" d="M410.8,420.2v-12.4h2.5v12.4H410.8z"/>
		<path class="st1" d="M422.6,420.3c-8.2,0-8.6-12.3,0-12.6c1.5-0.1,2.7,0.4,2.9,0.5l-0.3,2.5c-0.5-0.2-1.3-0.5-2.6-0.5
			c-5,0.2-4.8,7.6,0,7.6c0.2,0,0.5,0,0.7-0.1V414h2.5v5.5C424.8,420,423.8,420.3,422.6,420.3z"/>
		<path class="st1" d="M431.2,406.9l-0.6-0.8l-0.6,0.8h-2.5l2.3-2.5h1.5l2.3,2.5H431.2z M429.4,420.2v-12.4h2.5v12.4H429.4z"/>
		<path class="st1" d="M441.8,420.2l-2.5-4.7h-1.2v4.7h-2.5v-12.4h4.9c4.4,0,4.9,6.2,1.2,7.3l2.9,5.1H441.8z M438.1,413.1h2.2
			c1.7,0,1.7-2.8,0-2.8h-2.2V413.1z"/>
		<path class="st1" d="M449.1,406.9l-0.6-0.8l-0.6,0.8h-2.5l2.3-2.5h1.5l2.3,2.5H449.1z M447.3,420.2v-12.4h2.5v12.4H447.3z"/>
		<path class="st1" d="M459.7,420.2l-2.5-4.7H456v4.7h-2.5v-12.4h4.9c4.4,0,4.9,6.2,1.2,7.3l2.9,5.1H459.7z M456,413.1h2.2
			c1.7,0,1.7-2.8,0-2.8H456V413.1z"/>
		<path class="st1" d="M466.9,406.9l-0.6-0.8l-0.6,0.8h-2.5l2.3-2.5h1.5l2.3,2.5H466.9z M465.1,420.2v-12.4h2.5v12.4H465.1z"/>
		<path class="st1" d="M471.4,407.8h2.5c0,1.7,0,3.3,0,5l3.1-5h2.9l-4,6.1l4.4,6.3h-3.1l-3.3-4.9c0,1.6,0,3.3,0,4.9h-2.5V407.8z"/>
		<path class="st1" d="M482.2,415.9v-8.1h2.5v8.1c0,2.6,4,2.6,4,0v-8.1h2.5v8.1C491.1,421.8,482.2,421.8,482.2,415.9z"/>
		<path class="st1" d="M495.2,420.4c-1.9,0-1.9-2.8,0-2.8C497.1,417.6,497.1,420.4,495.2,420.4z"/>
		<path class="st1" d="M295.5,437.9v-8.1h2.5v8.1c0,2.6,4,2.6,4,0v-8.1h2.5v8.1C304.4,443.8,295.5,443.8,295.5,437.9z M300.6,428.6
			l-0.6-0.8l-0.6,0.8h-2.6l2.5-2.4h1.6l2.5,2.4H300.6z"/>
		<path class="st1" d="M309.6,442.2v-9.9h-3.1v-2.5h8.7v2.5h-3.1v9.9H309.6z"/>
		<path class="st1" d="M317.3,437.9v-8.1h2.5v8.1c0,2.6,4,2.6,4,0v-8.1h2.5v8.1C326.3,443.8,317.3,443.8,317.3,437.9z M322.4,428.6
			l-0.6-0.8l-0.6,0.8h-2.6l2.5-2.4h1.6l2.5,2.4H322.4z"/>
		<path class="st1" d="M336.2,442.2l-2.5-4.7h-1.2v4.7H330v-12.4h4.9c4.4,0,4.9,6.2,1.2,7.3l2.9,5.1H336.2z M332.5,435h2.2
			c1.7,0,1.7-2.8,0-2.8h-2.2V435z"/>
		<path class="st1" d="M347.4,429.6c8.6,0,8.6,12.8,0,12.8S338.8,429.6,347.4,429.6z M347.4,432.1c-5,0-5,7.7,0,7.7
			S352.3,432.1,347.4,432.1z"/>
		<path class="st1" d="M372.7,429.6h0.8v12.6H371l0-6.9l-3.2,3.3l-3.2-3.3v6.9h-2.5v-12.6h0.8l4.9,5.5L372.7,429.6z"/>
		<path class="st1" d="M377.2,437.9v-8.1h2.5v8.1c0,2.6,4,2.6,4,0v-8.1h2.5v8.1C386.2,443.8,377.2,443.8,377.2,437.9z M382.3,428.6
			l-0.6-0.8l-0.6,0.8h-2.6l2.5-2.4h1.6l2.5,2.4H382.3z"/>
		<path class="st1" d="M389.9,429.8h2.5c0,1.7,0,3.3,0,5l3.1-5h2.9l-4,6.1l4.4,6.3h-3.1l-3.3-4.9c0,1.6,0,3.3,0,4.9h-2.5V429.8z"/>
		<path class="st1" d="M400.9,442.2v-12.4h2.5v12.4H400.9z"/>
		<path class="st1" d="M409.6,442.2h-2.5v-12.7h0.7l6.3,7.3v-7h2.5v12.7h-0.7l-6.3-7V442.2z"/>
		<path class="st1" d="M422.6,436.6l-4.3-6.8h3l2.5,4.3l2.5-4.3h3l-4.3,6.8v5.6h-2.5V436.6z"/>
		<path class="st1" d="M434.4,429.3h0.3l5.2,12.9h-2.8l-0.5-1.3h-4.1l-0.5,1.3h-2.8L434.4,429.3z M435.6,438.5l-1.1-3.2l-1.2,3.2
			H435.6z"/>
		<path class="st1" d="M444.6,442.2h-2.5v-12.7h0.7l6.3,7.3v-7h2.5v12.7h-0.7l-6.3-7V442.2z"/>
		<path class="st1" d="M457.1,428.8l-0.6-0.8l-0.6,0.8h-2.5l2.3-2.5h1.5l2.3,2.5H457.1z M455.3,442.2v-12.4h2.5v12.4H455.3z"/>
		<path class="st1" d="M467.7,442.2l-2.5-4.7H464v4.7h-2.5v-12.4h4.9c4.4,0,4.9,6.2,1.2,7.3l2.9,5.1H467.7z M464,435h2.2
			c1.7,0,1.7-2.8,0-2.8H464V435z"/>
		<path class="st1" d="M473.1,437.9v-8.1h2.5v8.1c0,2.6,4,2.6,4,0v-8.1h2.5v8.1C482,443.8,473.1,443.8,473.1,437.9z"/>
		<path class="st1" d="M486.1,442.3c-1.9,0-1.9-2.8,0-2.8C488,439.5,488,442.3,486.1,442.3z"/>
	</g>
</g>
<g>
	<path class="st3" d="M184.6,344.1c-7.5,0-15-1-22.3-3c-1.3-0.3-2.5-0.7-3.8-1.1c-20.2-6.5-37.2-20.2-47.8-38.7
		c-11.3-19.7-14.3-42.7-8.3-64.6c6-21.9,20.1-40.3,39.8-51.6c12.9-7.4,27.5-11.3,42.2-11.3c7.5,0,15.1,1,22.4,3
		c21.9,6,40.3,20.1,51.6,39.8c9.6,16.7,13.2,35.6,10.4,54.6l-0.1,0.6h-8.3l0.1-0.8c2.8-17.5-0.4-34.9-9.2-50.4
		c-10.2-17.8-26.8-30.6-46.6-36c-6.6-1.8-13.5-2.7-20.3-2.7c-13.3,0-26.5,3.5-38.1,10.2c-17.8,10.2-30.6,26.8-36,46.6
		c-5.4,19.8-2.7,40.6,7.5,58.4c10.2,17.8,26.8,30.6,46.6,36c7.5,2,15.4,2.9,23.2,2.6l0.4-0.1c6.2-0.3,12.5-1.4,18.7-3.2l0.2,0l0.2,0
		c4.8,0.9,9.8,1.4,15,1.4l2.8,0l-2.5,1.2c-4,2-8.2,3.7-12.5,5l-0.2,0.1c-0.2,0.1-0.3,0.2-0.5,0.2C201.3,342.9,193,344.1,184.6,344.1
		z"/>
</g>
<path class="st1" d="M214.4,256.1c-1-7-7.7-12-15-11c-7.3,1-12.3,7.6-11.3,14.6c1,7.1,7.6,12,14.9,11
	C210.3,269.8,215.4,263.2,214.4,256.1z M202.1,264.3c-3.6,0.5-6.7-1.9-7.2-5.5c-0.5-3.5,1.8-6.8,5.4-7.3c3.6-0.5,6.7,2,7.2,5.5
	C208.1,260.7,205.7,263.8,202.1,264.3z"/>
<path class="st1" d="M248.9,287.4c-1-7-7.7-12-15-11c-7.3,1-12.3,7.6-11.3,14.6c1,7.1,7.6,12,14.9,11
	C244.8,301.1,249.9,294.5,248.9,287.4z M236.6,295.6c-3.6,0.5-6.7-1.9-7.2-5.4c-0.5-3.5,1.8-6.8,5.4-7.3c3.6-0.5,6.7,2,7.2,5.5
	C242.6,292,240.2,295.1,236.6,295.6z"/>
<g>
	<path class="st1" d="M199.8,299.8h-10.5l46.7-51.1h10.5L199.8,299.8z"/>
</g>
<path class="st1" d="M226.8,321.6c-1.4,0.1-2.8,0.1-4.2,0.1c-19.7,0-31.8-7.3-38.6-13.5c-9.5-8.6-14.9-20.7-14.9-33.2v-0.7h-8.2v0.7
	c0,14.8,6.4,29.1,17.5,39.3c7.8,7.1,21.8,15.6,44.1,15.6c2.5,0,5.1-0.1,7.7-0.4L226.8,321.6z"/>
</svg>
