<?xml version="1.0" encoding="utf-8"?>
<!-- Generator: Adobe Illustrator 19.0.0, SVG Export Plug-In . SVG Version: 6.00 Build 0)  -->
<svg version="1.1" id="Layer_1" xmlns="http://www.w3.org/2000/svg" xmlns:xlink="http://www.w3.org/1999/xlink" x="0px" y="0px"
	 viewBox="0 0 612 612" style="enable-background:new 0 0 612 612;" xml:space="preserve">
<metadata><?xpacket begin="﻿" id="W5M0MpCehiHzreSzNTczkc9d"?>
<x:xmpmeta xmlns:x="adobe:ns:meta/" x:xmptk="Adobe XMP Core 5.6-c067 79.157747, 2015/03/30-23:40:42        ">
   <rdf:RDF xmlns:rdf="http://www.w3.org/1999/02/22-rdf-syntax-ns#">
      <rdf:Description rdf:about=""/>
   </rdf:RDF>
</x:xmpmeta>
                                                                                                    
                                                                                                    
                                                                                                    
                                                                                                    
                                                                                                    
                                                                                                    
                                                                                                    
                                                                                                    
                                                                                                    
                                                                                                    
                                                                                                    
                                                                                                    
                                                                                                    
                                                                                                    
                                                                                                    
                                                                                                    
                                                                                                    
                                                                                                    
                                                                                                    
                                                                                                    
                           
<?xpacket end="w"?></metadata>
<style type="text/css">
	.st0{fill:#FFFFFF;}
	.st1{fill:#0083BF;}
	.st2{fill:#59AFE1;}
	.st3{fill:#74C1EC;}
</style>
<rect y="0" class="st0" width="612" height="612"/>
<g>
	<g>
		<path class="st1" d="M319.1,281.4h1.3v20.2h-4l0-11.1l-5.1,5.3l-5.1-5.3v11.1h-4v-20.2h1.3l7.8,8.7L319.1,281.4z"/>
		<path class="st1" d="M325.4,294.7v-13h4v12.9c0,4.2,6.4,4.2,6.4,0v-12.9h3.9v13C339.8,304.1,325.4,304.1,325.4,294.7z
			 M333.6,279.9l-1-1.3l-1,1.3h-4.2l3.9-3.9h2.6l4,3.9H333.6z"/>
		<path class="st1" d="M347.2,301.6v-15.9h-4.9v-3.9h13.9v3.9h-4.9v15.9H347.2z"/>
		<path class="st1" d="M368.8,301.6v-8h-5.9v8h-4v-19.9h4v8h5.9v-8h4v19.9H368.8z"/>
		<path class="st1" d="M378,301.6v-19.9h10v4h-6v4h5.2v4H382v4h6.3v4H378z"/>
		<path class="st1" d="M396.8,301.6h-4v-20.3h1.1l10,11.7v-11.2h4V302h-1.1l-10.1-11.2V301.6z"/>
		<path class="st1" d="M416.6,292.6l-6.9-10.9h4.8l4.1,6.8l4.1-6.8h4.9l-7,10.9v9h-3.9V292.6z"/>
		<path class="st1" d="M434.6,281h0.4l8.4,20.6h-4.5l-0.8-2.1h-6.6l-0.8,2.1h-4.5L434.6,281z M436.6,295.7l-1.8-5.2l-1.9,5.2H436.6z
			"/>
		<path class="st1" d="M460.2,302l-8.1-20.3h4.5l4,10.1l3.9-10h0.2l3.9,10l4-10.1h4.5l-8.1,20.2h-0.7l-3.6-8.8l-3.6,8.9H460.2z"/>
		<path class="st1" d="M484.6,281h0.4l8.4,20.6H489l-0.8-2.1h-6.6l-0.8,2.1h-4.5L484.6,281z M486.7,295.7l-1.8-5.2l-1.9,5.2H486.7z"
			/>
		<path class="st1" d="M510.2,302l-8.1-20.3h4.5l4,10.1l3.9-10h0.2l3.9,10l4-10.1h4.5l-8.1,20.2h-0.7l-3.6-8.8l-3.6,8.9H510.2z"/>
		<path class="st1" d="M534.7,281h0.4l8.4,20.6H539l-0.8-2.1h-6.6l-0.8,2.1h-4.5L534.7,281z M536.7,295.7l-1.8-5.2l-1.9,5.2H536.7z"
			/>
		<path class="st1" d="M311.3,333c-13.1,0-13.8-19.7,0-20.2c2.4-0.1,4.3,0.6,4.6,0.7l-0.5,4c-0.8-0.3-2.1-0.8-4.2-0.7
			c-8,0.3-7.7,12.1,0,12.1c0.4,0,0.8-0.1,1.1-0.1v-6h4v8.7C314.9,332.5,313.2,333,311.3,333z"/>
		<path class="st1" d="M321.2,325.9v-13h4v12.9c0,4.2,6.4,4.2,6.4,0V313h3.9v13C335.5,335.4,321.2,335.4,321.2,325.9z M329.3,311.1
			l-1-1.3l-1,1.3h-4.2l3.9-3.9h2.6l4,3.9H329.3z"/>
		<path class="st1" d="M340.6,313h4c0,2.6,0,5.3,0,7.9l5-7.9h4.6l-6.5,9.8l7,10.1h-4.9l-5.3-7.8c0,2.6,0,5.2,0,7.8h-4V313z"/>
		<path class="st1" d="M357.1,325.9v-13h4v12.9c0,4.2,6.4,4.2,6.4,0V313h3.9v13C371.4,335.4,357.1,335.4,357.1,325.9z M365.2,311.1
			l-1-1.3l-1,1.3H359l3.9-3.9h2.6l4,3.9H365.2z"/>
		<path class="st1" d="M380.5,332.9h-4v-20.3h1.1l10,11.7V313h4v20.3h-1.1L380.5,322V332.9z"/>
		<path class="st1" d="M405.7,333c-13.1,0-13.8-19.7,0-20.2c2.4-0.1,4.3,0.6,4.6,0.7l-0.5,4c-0.8-0.3-2.1-0.8-4.2-0.7
			c-8,0.3-7.7,12.1,0,12.1c0.4,0,0.8-0.1,1.1-0.1v-6h4v8.7C409.3,332.5,407.6,333,405.7,333z"/>
		<path class="st1" d="M415.6,325.9v-13h4v12.9c0,4.2,6.4,4.2,6.4,0V313h3.9v13C429.9,335.4,415.6,335.4,415.6,325.9z M423.7,311.1
			l-1-1.3l-1,1.3h-4.2l3.9-3.9h2.6l4,3.9H423.7z"/>
		<path class="st1" d="M437.8,311.5l-1-1.3l-0.9,1.3H432l3.7-4h2.4l3.7,4H437.8z M434.9,332.9V313h4v19.9H434.9z"/>
		<path class="st1" d="M454,332.9l-4-7.6H448v7.6h-4V313h7.8c7.1,0,7.8,10,1.9,11.7l4.6,8.2H454z M448,321.4h3.5
			c2.7,0,2.7-4.4,0-4.4H448V321.4z"/>
		<path class="st1" d="M467.6,312.3h0.4l8.4,20.6h-4.5l-0.8-2.1h-6.6l-0.8,2.1h-4.5L467.6,312.3z M469.6,327l-1.8-5.2l-1.9,5.2
			H469.6z"/>
		<path class="st1" d="M319.1,343.9h1.3v20.2h-4l0-11.1l-5.1,5.3l-5.1-5.3v11.1h-4v-20.2h1.3l7.8,8.7L319.1,343.9z"/>
		<path class="st1" d="M331.4,343.5h0.4l8.4,20.6h-4.5l-0.8-2.1h-6.6l-0.8,2.1H323L331.4,343.5z M333.4,358.3l-1.8-5.2l-1.9,5.2
			H333.4z"/>
		<path class="st1" d="M344.6,364.1v-15.9h-4.9v-3.9h13.9v3.9h-4.9v15.9H344.6z"/>
		<path class="st1" d="M366.3,364.1v-8h-5.9v8h-4v-19.9h4v8h5.9v-8h4v19.9H366.3z"/>
		<path class="st1" d="M381.3,343.5h0.4l8.4,20.6h-4.5l-0.8-2.1h-6.6l-0.8,2.1h-4.5L381.3,343.5z M383.3,358.3l-1.8-5.2l-1.9,5.2
			H383.3z"/>
		<path class="st1" d="M392.8,344.2h7.9c3.5,0,5.7,2.5,5.6,6c-0.1,1.5-0.6,3.1-1.8,3.9c1.3,0.9,2.1,2.4,2.1,4c0,3.3-2.6,6-5.9,6
			h-7.9V344.2z M396.8,352.2h2.4h1.1c1.1,0,1.8-0.9,1.8-2c0-1.1-0.7-2-1.8-2h-3.5V352.2z M396.8,360.2h2.4h1.1c1.1,0,2-0.9,2-2
			c0-1.1-0.9-2-2-2h-3.5V360.2z"/>
		<path class="st1" d="M410.7,357.2v-13h4v12.9c0,4.2,6.4,4.2,6.4,0v-12.9h3.9v13C425.1,366.7,410.7,366.7,410.7,357.2z"/>
		<path class="st1" d="M430.8,364.3c-3,0-3-4.5,0-4.5C433.8,359.9,433.7,364.3,430.8,364.3z"/>
		<path class="st2" d="M305.8,382.2c0-0.8-0.6-1.3-1.4-1.4c-1.2-0.1-2.7,0.7-3.2,1.1l-0.7-2.6c1.1-0.8,2.7-1.3,4-1.2
			c4,0.2,5.3,3.7,3.1,6.9l-2.7,4.2h4v2.8h-9l5.1-8.1C305.8,382.8,305.8,382.2,305.8,382.2z"/>
		<path class="st2" d="M311.3,385.1c0-3.9,1.3-7,4.7-7c3.4,0,4.7,3.1,4.7,7c0,3.9-1.3,7-4.7,7C312.6,392.1,311.3,389,311.3,385.1z
			 M318,385.1c0-2.4-0.5-4.5-2.1-4.5c-1.5,0-2,2-2,4.5c0,2.5,0.5,4.5,2,4.5C317.5,389.5,318,387.6,318,385.1z"/>
		<path class="st2" d="M324.2,392.1c-2.1,0-2.1-3.1,0-3.1C326.3,389,326.3,392.1,324.2,392.1z"/>
		<path class="st2" d="M327.3,378.3h4.9v13.6h-2.7V381h-2.2V378.3z"/>
		<path class="st2" d="M335.3,385.1c0-3.9,1.3-7,4.7-7c3.4,0,4.7,3.1,4.7,7c0,3.9-1.3,7-4.7,7C336.6,392.1,335.3,389,335.3,385.1z
			 M342,385.1c0-2.4-0.5-4.5-2.1-4.5c-1.5,0-2,2-2,4.5c0,2.5,0.5,4.5,2,4.5C341.5,389.5,342,387.6,342,385.1z"/>
		<path class="st2" d="M348.2,392.1c-2.1,0-2.1-3.1,0-3.1C350.3,389,350.3,392.1,348.2,392.1z"/>
		<path class="st2" d="M357.5,382.2c0-0.8-0.6-1.3-1.4-1.4c-1.2-0.1-2.7,0.7-3.2,1.1l-0.7-2.6c1.1-0.8,2.7-1.3,4-1.2
			c4,0.2,5.3,3.7,3.1,6.9l-2.7,4.2h4v2.8h-9l5.1-8.1C357.6,382.8,357.5,382.2,357.5,382.2z"/>
		<path class="st2" d="M363,385.1c0-3.9,1.3-7,4.7-7c3.4,0,4.7,3.1,4.7,7c0,3.9-1.3,7-4.7,7C364.3,392.1,363,389,363,385.1z
			 M369.8,385.1c0-2.4-0.5-4.5-2.1-4.5c-1.5,0-2,2-2,4.5c0,2.5,0.5,4.5,2,4.5C369.2,389.5,369.8,387.6,369.8,385.1z"/>
		<path class="st2" d="M374.1,378.3h4.9v13.6h-2.7V381h-2.2V378.3z"/>
		<path class="st2" d="M390.5,387.9c0,2.3-1.5,4-4.1,4.1c-0.7,0-2.6,0-4.4-0.6l0.2-2.7c4.2,1.5,5.5,0.3,5.4-0.9c0-1.6-1-2.1-5.2-2.4
			v-7.2h7v2.6h-4.2v2.4C388.7,383.6,390.5,384.8,390.5,387.9z"/>
		<path class="st1" d="M311.9,408.2h0.8v12.6h-2.5l0-6.9l-3.2,3.3l-3.2-3.3v6.9h-2.5v-12.6h0.8l4.9,5.5L311.9,408.2z"/>
		<path class="st1" d="M320.1,408h0.3l5.2,12.9h-2.8l-0.5-1.3h-4.1l-0.5,1.3h-2.8L320.1,408z M321.4,417.2l-1.1-3.2l-1.2,3.2H321.4z
			"/>
		<path class="st1" d="M328.9,420.8v-9.9h-3.1v-2.5h8.7v2.5h-3.1v9.9H328.9z"/>
		<path class="st1" d="M343,420.8v-5h-3.7v5h-2.5v-12.4h2.5v5h3.7v-5h2.5v12.4H343z"/>
		<path class="st1" d="M352.9,408h0.3l5.2,12.9h-2.8l-0.5-1.3H351l-0.5,1.3h-2.8L352.9,408z M354.2,417.2l-1.1-3.2l-1.2,3.2H354.2z"
			/>
		<path class="st1" d="M360.6,408.4h4.9c2.2,0,3.6,1.6,3.5,3.8c0,0.9-0.4,1.9-1.1,2.5c0.8,0.6,1.3,1.5,1.3,2.5
			c0,2.1-1.7,3.7-3.7,3.7h-4.9V408.4z M363.1,413.4h1.5h0.7c0.7,0,1.1-0.6,1.1-1.3c0-0.7-0.4-1.3-1.1-1.3h-2.2V413.4z M363.1,418.3
			h1.5h0.7c0.7,0,1.3-0.6,1.3-1.3c0-0.7-0.5-1.2-1.3-1.2h-2.2V418.3z"/>
		<path class="st1" d="M372.3,416.5v-8.1h2.5v8.1c0,2.6,4,2.6,4,0v-8.1h2.5v8.1C381.3,422.4,372.3,422.4,372.3,416.5z"/>
		<path class="st1" d="M400.7,408.2h0.8v12.6h-2.5l0-6.9l-3.2,3.3l-3.2-3.3v6.9h-2.5v-12.6h0.8l4.9,5.5L400.7,408.2z"/>
		<path class="st1" d="M408.9,408h0.3l5.2,12.9h-2.8l-0.5-1.3h-4.1l-0.5,1.3h-2.8L408.9,408z M410.1,417.2l-1.1-3.2l-1.2,3.2H410.1z
			"/>
		<path class="st1" d="M416.6,420.8v-12.4h2.5v12.4H416.6z"/>
		<path class="st1" d="M428.3,420.9c-8.2,0-8.6-12.3,0-12.6c1.5-0.1,2.7,0.4,2.9,0.5l-0.3,2.5c-0.5-0.2-1.3-0.5-2.6-0.5
			c-5,0.2-4.8,7.6,0,7.6c0.2,0,0.5,0,0.7-0.1v-3.7h2.5v5.5C430.6,420.6,429.5,420.9,428.3,420.9z"/>
		<path class="st1" d="M436.9,407.4l-0.6-0.8l-0.6,0.8h-2.5l2.3-2.5h1.5l2.3,2.5H436.9z M435.1,420.8v-12.4h2.5v12.4H435.1z"/>
		<path class="st1" d="M447.6,420.8l-2.5-4.7h-1.2v4.7h-2.5v-12.4h4.9c4.4,0,4.9,6.2,1.2,7.3l2.9,5.1H447.6z M443.9,413.7h2.2
			c1.7,0,1.7-2.8,0-2.8h-2.2V413.7z"/>
		<path class="st1" d="M454.8,407.4l-0.6-0.8l-0.6,0.8h-2.5l2.3-2.5h1.5l2.3,2.5H454.8z M453,420.8v-12.4h2.5v12.4H453z"/>
		<path class="st1" d="M465.4,420.8l-2.5-4.7h-1.2v4.7h-2.5v-12.4h4.9c4.4,0,4.9,6.2,1.2,7.3l2.9,5.1H465.4z M461.7,413.7h2.2
			c1.7,0,1.7-2.8,0-2.8h-2.2V413.7z"/>
		<path class="st1" d="M472.7,407.4l-0.6-0.8l-0.6,0.8H469l2.3-2.5h1.5l2.3,2.5H472.7z M470.9,420.8v-12.4h2.5v12.4H470.9z"/>
		<path class="st1" d="M477.1,408.4h2.5c0,1.7,0,3.3,0,5l3.1-5h2.9l-4,6.1l4.4,6.3h-3.1l-3.3-4.9c0,1.6,0,3.3,0,4.9h-2.5V408.4z"/>
		<path class="st1" d="M487.9,416.5v-8.1h2.5v8.1c0,2.6,4,2.6,4,0v-8.1h2.5v8.1C496.9,422.4,487.9,422.4,487.9,416.5z"/>
		<path class="st1" d="M501,421c-1.9,0-1.9-2.8,0-2.8C502.9,418.2,502.9,421,501,421z"/>
		<path class="st1" d="M301.2,438.5v-8.1h2.5v8.1c0,2.6,4,2.6,4,0v-8.1h2.5v8.1C310.2,444.4,301.2,444.4,301.2,438.5z M306.3,429.2
			l-0.6-0.8l-0.6,0.8h-2.6l2.5-2.4h1.6l2.5,2.4H306.3z"/>
		<path class="st1" d="M315.4,442.8v-9.9h-3.1v-2.5h8.7v2.5h-3.1v9.9H315.4z"/>
		<path class="st1" d="M323.1,438.5v-8.1h2.5v8.1c0,2.6,4,2.6,4,0v-8.1h2.5v8.1C332.1,444.4,323.1,444.4,323.1,438.5z M328.2,429.2
			l-0.6-0.8l-0.6,0.8h-2.6l2.5-2.4h1.6l2.5,2.4H328.2z"/>
		<path class="st1" d="M341.9,442.8l-2.5-4.7h-1.2v4.7h-2.5v-12.4h4.9c4.4,0,4.9,6.2,1.2,7.3l2.9,5.1H341.9z M338.2,435.6h2.2
			c1.7,0,1.7-2.8,0-2.8h-2.2V435.6z"/>
		<path class="st1" d="M353.1,430.1c8.6,0,8.6,12.8,0,12.8S344.6,430.1,353.1,430.1z M353.1,432.7c-5,0-5,7.7,0,7.7
			S358.1,432.7,353.1,432.7z"/>
		<path class="st1" d="M378.5,430.2h0.8v12.6h-2.5l0-6.9l-3.2,3.3l-3.2-3.3v6.9h-2.5v-12.6h0.8l4.9,5.5L378.5,430.2z"/>
		<path class="st1" d="M383,438.5v-8.1h2.5v8.1c0,2.6,4,2.6,4,0v-8.1h2.5v8.1C391.9,444.4,383,444.4,383,438.5z M388.1,429.2
			l-0.6-0.8l-0.6,0.8h-2.6l2.5-2.4h1.6l2.5,2.4H388.1z"/>
		<path class="st1" d="M395.6,430.4h2.5c0,1.7,0,3.3,0,5l3.1-5h2.9l-4,6.1l4.4,6.3h-3.1l-3.3-4.9c0,1.6,0,3.3,0,4.9h-2.5V430.4z"/>
		<path class="st1" d="M406.7,442.8v-12.4h2.5v12.4H406.7z"/>
		<path class="st1" d="M415.4,442.8h-2.5v-12.7h0.7l6.3,7.3v-7h2.5V443h-0.7l-6.3-7V442.8z"/>
		<path class="st1" d="M428.3,437.2l-4.3-6.8h3l2.5,4.3l2.5-4.3h3l-4.3,6.8v5.6h-2.5V437.2z"/>
		<path class="st1" d="M440.1,429.9h0.3l5.2,12.9h-2.8l-0.5-1.3h-4.1l-0.5,1.3h-2.8L440.1,429.9z M441.4,439.1l-1.1-3.2l-1.2,3.2
			H441.4z"/>
		<path class="st1" d="M450.3,442.8h-2.5v-12.7h0.7l6.3,7.3v-7h2.5V443h-0.7l-6.3-7V442.8z"/>
		<path class="st1" d="M462.9,429.4l-0.6-0.8l-0.6,0.8h-2.5l2.3-2.5h1.5l2.3,2.5H462.9z M461.1,442.8v-12.4h2.5v12.4H461.1z"/>
		<path class="st1" d="M473.5,442.8L471,438h-1.2v4.7h-2.5v-12.4h4.9c4.4,0,4.9,6.2,1.2,7.3l2.9,5.1H473.5z M469.8,435.6h2.2
			c1.7,0,1.7-2.8,0-2.8h-2.2V435.6z"/>
		<path class="st1" d="M478.8,438.5v-8.1h2.5v8.1c0,2.6,4,2.6,4,0v-8.1h2.5v8.1C487.8,444.4,478.8,444.4,478.8,438.5z"/>
		<path class="st1" d="M491.9,442.9c-1.9,0-1.9-2.8,0-2.8C493.8,440.1,493.7,442.9,491.9,442.9z"/>
	</g>
</g>
<g>
	<path class="st3" d="M190.4,344.7c-7.5,0-15-1-22.3-3c-1.3-0.3-2.5-0.7-3.8-1.1c-20.2-6.5-37.2-20.2-47.8-38.7
		c-11.3-19.7-14.3-42.7-8.3-64.6c6-21.9,20.1-40.3,39.8-51.6c12.9-7.4,27.5-11.3,42.2-11.3c7.5,0,15.1,1,22.4,3
		c21.9,6,40.3,20.1,51.6,39.8c9.6,16.7,13.2,35.6,10.4,54.6l-0.1,0.6h-8.3l0.1-0.8c2.8-17.5-0.4-34.9-9.2-50.4
		c-10.2-17.8-26.8-30.6-46.6-36c-6.6-1.8-13.5-2.7-20.3-2.7c-13.3,0-26.5,3.5-38.1,10.2c-17.8,10.2-30.6,26.8-36,46.6
		c-5.4,19.8-2.7,40.6,7.5,58.4c10.2,17.8,26.8,30.6,46.6,36c7.5,2,15.4,2.9,23.2,2.6l0.4-0.1c6.2-0.3,12.5-1.4,18.7-3.2l0.2,0l0.2,0
		c4.8,0.9,9.8,1.4,15,1.4l2.8,0l-2.5,1.2c-4,2-8.2,3.7-12.5,5l-0.2,0.1c-0.2,0.1-0.3,0.2-0.5,0.2
		C207.1,343.5,198.8,344.7,190.4,344.7z"/>
</g>
<path class="st1" d="M220.2,256.7c-1-7-7.7-12-15-11c-7.3,1-12.3,7.6-11.3,14.6c1,7.1,7.6,12,14.9,11
	C216.1,270.4,221.2,263.8,220.2,256.7z M207.9,264.9c-3.6,0.5-6.7-1.9-7.2-5.5c-0.5-3.5,1.8-6.8,5.4-7.3c3.6-0.5,6.7,2,7.2,5.5
	C213.8,261.3,211.5,264.4,207.9,264.9z"/>
<path class="st1" d="M254.7,288c-1-7-7.7-12-15-11c-7.3,1-12.3,7.6-11.3,14.6c1,7.1,7.6,12,14.9,11
	C250.6,301.7,255.7,295.1,254.7,288z M242.4,296.2c-3.6,0.5-6.7-1.9-7.2-5.4c-0.5-3.5,1.8-6.8,5.4-7.3c3.6-0.5,6.7,2,7.2,5.5
	C248.4,292.6,246,295.7,242.4,296.2z"/>
<g>
	<path class="st1" d="M205.6,300.4H195l46.7-51.1h10.5L205.6,300.4z"/>
</g>
<path class="st1" d="M232.5,322.2c-1.4,0.1-2.8,0.1-4.2,0.1c-19.7,0-31.8-7.3-38.6-13.5c-9.5-8.6-14.9-20.7-14.9-33.2V275h-8.2v0.7
	c0,14.8,6.4,29.1,17.5,39.3c7.8,7.1,21.8,15.6,44.1,15.6c2.5,0,5.1-0.1,7.7-0.4L232.5,322.2z"/>
</svg>
