<?xml version="1.0" encoding="utf-8"?>
<!-- Generator: Adobe Illustrator 19.0.0, SVG Export Plug-In . SVG Version: 6.00 Build 0)  -->
<svg version="1.1" id="Layer_1" xmlns="http://www.w3.org/2000/svg" xmlns:xlink="http://www.w3.org/1999/xlink" x="0px" y="0px"
	 viewBox="0 0 612 612" style="enable-background:new 0 0 612 612;" xml:space="preserve">
<metadata><?xpacket begin="﻿" id="W5M0MpCehiHzreSzNTczkc9d"?>
<x:xmpmeta xmlns:x="adobe:ns:meta/" x:xmptk="Adobe XMP Core 5.6-c067 79.157747, 2015/03/30-23:40:42        ">
   <rdf:RDF xmlns:rdf="http://www.w3.org/1999/02/22-rdf-syntax-ns#">
      <rdf:Description rdf:about=""/>
   </rdf:RDF>
</x:xmpmeta>
                                                                                                    
                                                                                                    
                                                                                                    
                                                                                                    
                                                                                                    
                                                                                                    
                                                                                                    
                                                                                                    
                                                                                                    
                                                                                                    
                                                                                                    
                                                                                                    
                                                                                                    
                                                                                                    
                                                                                                    
                                                                                                    
                                                                                                    
                                                                                                    
                                                                                                    
                                                                                                    
                           
<?xpacket end="w"?></metadata>
<style type="text/css">
	.st0{fill:#0083BF;}
	.st1{fill:#FFFFFF;}
	.st2{fill:#90CEF1;}
	.st3{fill:#74C1EC;}
</style>
<rect y="0" class="st0" width="612" height="612"/>
<g>
	<g>
		<path class="st1" d="M308,294.1V281h4v13.1c0,4.2,6.5,4.2,6.5,0V281h4v13.1C322.6,303.7,308,303.7,308,294.1z"/>
		<path class="st1" d="M327.2,295.6c2.3,1.6,4.8,1.7,5.8,1.6c1.2-0.1,2.2-0.9,2.1-2c-0.1-1.2-1-1.7-2.1-2.1c-3.2-1.2-6-2.8-6-6.1
			c0-3.4,2.3-6,5.7-6.1c1-0.1,2.4-0.1,5,0.8l-0.5,3.9c-2.2-0.9-3.5-0.9-4.1-0.8c-1.4,0.1-2.1,1.1-2,2.3c0.1,1.1,1.1,1.6,2.3,2
			c3.1,1.2,5.8,3,5.8,6.2c0,3.4-2.3,5.9-6.1,6.1c-1.1,0.1-3.6-0.1-6.4-1.5L327.2,295.6z"/>
		<path class="st1" d="M343,294.1V281h4v13.1c0,4.2,6.5,4.2,6.5,0V281h4v13.1C357.5,303.7,343,303.7,343,294.1z"/>
		<path class="st1" d="M362.7,281h4c0,2.7,0,5.4,0,8l5.1-8h4.7l-6.5,10l7.1,10.2h-5l-5.4-7.9c0,2.6,0,5.3,0,7.9h-4V281z"/>
		<path class="st1" d="M379.4,294.1V281h4v13.1c0,4.2,6.5,4.2,6.5,0V281h4v13.1C394,303.7,379.4,303.7,379.4,294.1z"/>
		<path class="st1" d="M312.2,312.7v16.1h6.4v4h-10.4v-20.2H312.2z"/>
		<path class="st1" d="M326.7,333.3l-8.3-20.6h4.5L327,323l3.9-10.1h0.2l3.9,10.1l4.1-10.3h4.5l-8.2,20.5h-0.7l-3.7-8.9l-3.7,9
			H326.7z"/>
		<path class="st1" d="M346.2,332.8v-20.2h10.1v4h-6.1v4h5.3v4h-5.3v4h6.4v4H346.2z"/>
		<path class="st1" d="M359.2,332.8c2.4-5.4,4.9-10.9,7.3-16.2h-6.2v-3.9h12.2c-2.4,5.4-4.8,10.7-7.3,16.1h7.5v4.1H359.2z"/>
		<path class="st1" d="M385.6,312.3c13.9,0,13.9,20.8,0,20.8C371.7,333.1,371.7,312.3,385.6,312.3z M385.6,316.5
			c-8.1,0-8.1,12.5,0,12.5C393.7,328.9,393.7,316.5,385.6,316.5z"/>
		<path class="st1" d="M400.1,312.6h8c3.6,0,5.8,2.6,5.7,6.1c-0.1,1.5-0.6,3.1-1.9,4c1.3,0.9,2.1,2.5,2.1,4c0,3.4-2.7,6.1-5.9,6.1
			h-8V312.6z M404.2,320.7h2.4h1.2c1.2,0,1.9-0.9,1.9-2c0-1.1-0.7-2-1.9-2h-3.6V320.7z M404.2,328.8h2.4h1.2c1.2,0,2-0.9,2-2
			c0-1.1-0.9-2-2-2h-3.6V328.8z"/>
		<path class="st1" d="M424.3,311.9h0.4l8.5,20.9h-4.5l-0.8-2.2h-6.7l-0.8,2.2h-4.6L424.3,311.9z M426.4,326.9l-1.8-5.2l-1.9,5.2
			H426.4z"/>
		<path class="st1" d="M440.1,312.7v16.1h6.4v4H436v-20.2H440.1z"/>
		<path class="st1" d="M458.8,312.3c13.9,0,13.9,20.8,0,20.8C444.9,333.1,444.9,312.3,458.8,312.3z M458.8,316.5
			c-8.1,0-8.1,12.5,0,12.5C466.9,328.9,466.9,316.5,458.8,316.5z"/>
		<path class="st1" d="M308.2,344.4h4c0,2.7,0,5.4,0,8l5.1-8h4.7l-6.5,10l7.1,10.2h-5l-5.4-7.9c0,2.6,0,5.3,0,7.9h-4V344.4z"/>
		<path class="st1" d="M324.9,357.5v-13.1h4v13.1c0,4.2,6.5,4.2,6.5,0v-13.1h4v13.1C339.5,367.1,324.9,367.1,324.9,357.5z"/>
		<path class="st1" d="M342.4,364.6c2.4-5.4,4.9-10.9,7.3-16.2h-6.2v-3.9h12.2c-2.4,5.4-4.8,10.7-7.3,16.1h7.5v4.1H342.4z"/>
		<path class="st1" d="M365,365l-8.3-20.6h4.5l4.1,10.3l3.9-10.1h0.2l3.9,10.1l4.1-10.3h4.5l-8.2,20.5H373l-3.7-8.9l-3.7,9H365z"/>
		<path class="st1" d="M384.4,364.6v-20.2h10.1v4h-6.1v4h5.3v4h-5.3v4h6.4v4H384.4z"/>
		<path class="st1" d="M403.4,344.4v16.1h6.4v4h-10.4v-20.2H403.4z"/>
		<path class="st1" d="M422.2,344.1c13.9,0,13.9,20.8,0,20.8C408.3,364.8,408.3,344.1,422.2,344.1z M422.2,348.2
			c-8.1,0-8.1,12.5,0,12.5C430.2,360.7,430.2,348.2,422.2,348.2z"/>
		<path class="st1" d="M440.8,364.6h-4V344h1.1l10.2,11.8v-11.4h4.1V365H451l-10.2-11.4V364.6z"/>
		<path class="st1" d="M457.3,344.4h4c0,2.7,0,5.4,0,8l5.1-8h4.7l-6.5,10l7.1,10.2h-5l-5.4-7.9c0,2.6,0,5.3,0,7.9h-4V344.4z"/>
		<path class="st1" d="M474.3,364.6v-20.2h10.1v4h-6.1v4h5.3v4h-5.3v4h6.4v4H474.3z"/>
		<path class="st2" d="M311.9,382.9c0-0.8-0.6-1.4-1.4-1.4c-1.2-0.1-2.8,0.7-3.2,1.1l-0.7-2.7c1.1-0.8,2.8-1.3,4.1-1.3
			c4.1,0.2,5.4,3.8,3.1,7l-2.7,4.2h4.1v2.8H306l5.2-8.2C311.9,383.5,311.9,382.9,311.9,382.9z"/>
		<path class="st2" d="M317.5,385.8c0-3.9,1.3-7.1,4.7-7.1c3.4,0,4.8,3.2,4.8,7.1c0,3.9-1.3,7.1-4.8,7.1
			C318.8,392.9,317.5,389.8,317.5,385.8z M324.3,385.8c0-2.5-0.5-4.5-2.1-4.5c-1.5,0-2.1,2-2.1,4.5c0,2.5,0.5,4.5,2.1,4.5
			C323.8,390.3,324.3,388.3,324.3,385.8z"/>
		<path class="st2" d="M330.6,392.9c-2.1,0-2.1-3.1,0-3.1C332.8,389.8,332.7,392.9,330.6,392.9z"/>
		<path class="st2" d="M333.8,378.9h5v13.8h-2.7v-11.1h-2.3V378.9z"/>
		<path class="st2" d="M341.9,385.8c0-3.9,1.3-7.1,4.7-7.1c3.4,0,4.8,3.2,4.8,7.1c0,3.9-1.3,7.1-4.8,7.1
			C343.3,392.9,341.9,389.8,341.9,385.8z M348.8,385.8c0-2.5-0.5-4.5-2.1-4.5c-1.5,0-2.1,2-2.1,4.5c0,2.5,0.5,4.5,2.1,4.5
			C348.2,390.3,348.8,388.3,348.8,385.8z"/>
		<path class="st2" d="M355.1,392.9c-2.1,0-2.1-3.1,0-3.1C357.2,389.8,357.1,392.9,355.1,392.9z"/>
		<path class="st2" d="M364.5,382.9c0-0.8-0.6-1.4-1.4-1.4c-1.2-0.1-2.8,0.7-3.2,1.1l-0.7-2.7c1.1-0.8,2.8-1.3,4.1-1.3
			c4.1,0.2,5.4,3.8,3.1,7l-2.7,4.2h4.1v2.8h-9.1l5.2-8.2C364.5,383.5,364.5,382.9,364.5,382.9z"/>
		<path class="st2" d="M370.1,385.8c0-3.9,1.3-7.1,4.7-7.1c3.4,0,4.8,3.2,4.8,7.1c0,3.9-1.3,7.1-4.8,7.1
			C371.4,392.9,370.1,389.8,370.1,385.8z M376.9,385.8c0-2.5-0.5-4.5-2.1-4.5c-1.5,0-2.1,2-2.1,4.5c0,2.5,0.5,4.5,2.1,4.5
			C376.4,390.3,376.9,388.3,376.9,385.8z"/>
		<path class="st2" d="M381.4,378.9h5v13.8h-2.7v-11.1h-2.3V378.9z"/>
		<path class="st2" d="M397.9,388.7c0,2.3-1.6,4-4.2,4.2c-0.7,0-2.6,0-4.4-0.6l0.3-2.8c4.3,1.5,5.5,0.3,5.5-0.9c0-1.6-1-2.1-5.2-2.4
			v-7.3h7v2.7h-4.3v2.4C396.2,384.3,397.9,385.5,397.9,388.7z"/>
		<path class="st1" d="M307.2,417.7v-8.2h2.5v8.2c0,2.6,4.1,2.6,4.1,0v-8.2h2.5v8.2C316.4,423.7,307.2,423.7,307.2,417.7z"/>
		<path class="st1" d="M322.6,409.5v10.1h4v2.5h-6.5v-12.6H322.6z"/>
		<path class="st1" d="M332.3,422.3l-5.2-12.9h2.8l2.5,6.4l2.5-6.3h0.1l2.5,6.3l2.5-6.4h2.8l-5.1,12.8h-0.5l-2.3-5.6l-2.3,5.6H332.3
			z"/>
		<path class="st1" d="M348.5,409h0.3l5.3,13.1h-2.8l-0.5-1.4h-4.2l-0.5,1.4h-2.9L348.5,409z M349.8,418.4l-1.1-3.3l-1.2,3.3H349.8z
			"/>
		<path class="st1" d="M355.2,422.1c1.5-3.4,3-6.8,4.5-10.1h-3.9v-2.4h7.6c-1.5,3.4-3,6.7-4.5,10.1h4.7v2.5H355.2z"/>
		<path class="st1" d="M366.6,422.1v-12.6h2.5v12.6H366.6z"/>
		<path class="st1" d="M384.1,409.3c8.7,0,8.7,13,0,13C375.5,422.2,375.5,409.3,384.1,409.3z M384.1,411.9c-5,0-5,7.8,0,7.8
			C389.2,419.6,389.2,411.9,384.1,411.9z"/>
		<path class="st1" d="M396.3,409.5v10.1h4v2.5h-6.5v-12.6H396.3z"/>
		<path class="st1" d="M402.6,417.7v-8.2h2.5v8.2c0,2.6,4.1,2.6,4.1,0v-8.2h2.5v8.2C411.7,423.7,402.6,423.7,402.6,417.7z"/>
		<path class="st1" d="M418,422.1h-2.5v-12.9h0.7l6.4,7.4v-7.1h2.5v12.8h-0.7l-6.4-7.1V422.1z"/>
		<path class="st1" d="M434.6,422.1c-8.3,0-8.7-12.4,0-12.8c1.5-0.1,2.7,0.4,2.9,0.5l-0.3,2.6c-0.5-0.2-1.3-0.5-2.6-0.5
			c-5.1,0.2-4.9,7.7,0,7.7c0.2,0,0.5,0,0.7-0.1v-3.8h2.6v5.5C436.9,421.8,435.8,422.1,434.6,422.1z"/>
		<path class="st1" d="M447.2,411.9c-5,0-5,7.7,0,7.7c1.1,0,2-0.3,2.4-0.6l0.3,2.6c-0.8,0.3-1.9,0.5-2.8,0.5c-8.5,0-8.5-12.8,0-12.8
			c0.9,0,1.7,0.2,2.5,0.5l-0.3,2.6C448.9,412.2,448.3,411.9,447.2,411.9z"/>
		<path class="st1" d="M458.6,409.3c8.7,0,8.7,13,0,13C450,422.2,450,409.3,458.6,409.3z M458.6,411.9c-5,0-5,7.8,0,7.8
			C463.7,419.6,463.7,411.9,458.6,411.9z"/>
		<path class="st1" d="M470.8,422.1h-2.5v-12.9h0.7l6.4,7.4v-7.1h2.5v12.8h-0.7l-6.4-7.1V422.1z"/>
		<path class="st1" d="M487.5,409.3c8.7,0,8.7,13,0,13C478.9,422.2,478.9,409.3,487.5,409.3z M487.5,411.9c-5,0-5,7.8,0,7.8
			C492.6,419.6,492.6,411.9,487.5,411.9z"/>
		<path class="st1" d="M307.3,444.3v-12.6h2.5v12.6H307.3z"/>
		<path class="st1" d="M324.4,431.5h0.8v12.8h-2.6l0-7l-3.2,3.4l-3.2-3.4v7h-2.6v-12.8h0.8l5,5.5L324.4,431.5z"/>
		<path class="st1" d="M329,444.3v-12.6h4.9c4.9,0,4.9,7.8,0,7.8h-2.4v4.8H329z M333.8,437.1c1.7,0,1.7-2.8,0-2.8h-2.2v2.8H333.8z"
			/>
		<path class="st1" d="M340.3,444.3v-12.6h2.5v12.6H340.3z"/>
		<path class="st1" d="M349.1,431.7v10.1h4v2.5h-6.5v-12.6H349.1z"/>
		<path class="st1" d="M361.4,431.5c8.7,0,8.7,13,0,13C352.7,444.5,352.7,431.5,361.4,431.5z M361.4,434.1c-5,0-5,7.8,0,7.8
			C366.4,441.9,366.4,434.1,361.4,434.1z"/>
		<path class="st1" d="M376.4,444.3v-12.6h6.3v2.5h-3.8v2.5h3.3v2.5h-3.3v2.5h4v2.5H376.4z"/>
		<path class="st1" d="M388.8,444.3h-2.5v-12.9h0.7l6.4,7.4v-7.1h2.5v12.8h-0.7l-6.4-7.1V444.3z"/>
		<path class="st1" d="M405.4,444.4c-8.3,0-8.7-12.4,0-12.8c1.5-0.1,2.7,0.4,2.9,0.5l-0.3,2.6c-0.5-0.2-1.3-0.5-2.6-0.5
			c-5.1,0.2-4.9,7.7,0,7.7c0.2,0,0.5,0,0.7-0.1V438h2.6v5.5C407.7,444.1,406.6,444.4,405.4,444.4z"/>
		<path class="st1" d="M417.9,434.1c-5,0-5,7.7,0,7.7c1.1,0,2-0.3,2.4-0.6l0.3,2.6c-0.8,0.3-1.9,0.5-2.8,0.5c-8.5,0-8.5-12.8,0-12.8
			c0.9,0,1.7,0.2,2.5,0.5l-0.3,2.6C419.7,434.4,419,434.1,417.9,434.1z"/>
		<path class="st1" d="M429.4,431.5c8.7,0,8.7,13,0,13C420.8,444.5,420.8,431.5,429.4,431.5z M429.4,434.1c-5,0-5,7.8,0,7.8
			C434.5,441.9,434.5,434.1,429.4,434.1z"/>
		<path class="st1" d="M441.6,444.3h-2.5v-12.9h0.7l6.4,7.4v-7.1h2.5v12.8H448l-6.4-7.1V444.3z"/>
		<path class="st1" d="M458.3,431.5c8.7,0,8.7,13,0,13C449.7,444.5,449.7,431.5,458.3,431.5z M458.3,434.1c-5,0-5,7.8,0,7.8
			C463.4,441.9,463.4,434.1,458.3,434.1z"/>
	</g>
</g>
<g>
	<path class="st3" d="M194.8,344.8c-7.6,0-15.3-1-22.7-3c-1.3-0.3-2.6-0.7-3.8-1.1c-20.5-6.6-37.7-20.5-48.5-39.3
		c-11.5-20-14.5-43.3-8.4-65.5c6-22.3,20.4-40.8,40.4-52.3c13.1-7.5,27.9-11.5,42.8-11.5c7.6,0,15.3,1,22.8,3.1
		c22.3,6,40.8,20.4,52.3,40.4c9.7,17,13.4,36.1,10.5,55.4l-0.1,0.6h-8.4l0.1-0.8c2.9-17.8-0.4-35.4-9.3-51.1
		c-10.4-18.1-27.2-31.1-47.3-36.5c-6.7-1.8-13.7-2.8-20.6-2.8c-13.5,0-26.9,3.6-38.7,10.4c-18.1,10.4-31,27.2-36.5,47.3
		c-5.5,20.1-2.8,41.2,7.6,59.2c10.4,18.1,27.2,31.1,47.3,36.5c7.6,2.1,15.6,2.9,23.6,2.6l0.4-0.1c6.3-0.3,12.7-1.4,19-3.3l0.2,0
		l0.2,0c4.9,0.9,10,1.4,15.2,1.4l2.8,0l-2.5,1.2c-4.1,2-8.4,3.7-12.7,5.1l-0.2,0.1c-0.2,0.1-0.3,0.2-0.5,0.2
		C211.7,343.6,203.3,344.8,194.8,344.8z"/>
</g>
<path class="st1" d="M225,255.6c-1-7.1-7.8-12.2-15.2-11.1c-7.4,1-12.4,7.7-11.4,14.9c1,7.2,7.7,12.2,15.1,11.1
	C220.9,269.4,226,262.8,225,255.6z M212.6,263.9c-3.6,0.5-6.8-1.9-7.3-5.5c-0.5-3.6,1.9-6.9,5.5-7.4c3.7-0.5,6.8,2.1,7.3,5.6
	C218.6,260.2,216.2,263.4,212.6,263.9z"/>
<path class="st1" d="M260,287.3c-1-7.1-7.8-12.2-15.2-11.1c-7.4,1-12.4,7.7-11.4,14.9c1,7.2,7.7,12.2,15.1,11.1
	C255.9,301.2,261,294.5,260,287.3z M247.6,295.6c-3.6,0.5-6.8-1.9-7.3-5.5c-0.5-3.6,1.9-6.9,5.5-7.4c3.6-0.5,6.8,2.1,7.3,5.6
	C253.6,292,251.2,295.1,247.6,295.6z"/>
<g>
	<path class="st1" d="M210.2,299.9h-10.7l47.4-51.8h10.7L210.2,299.9z"/>
</g>
<path class="st1" d="M237.6,322c-1.4,0.1-2.9,0.1-4.3,0.1c-20,0-32.3-7.4-39.1-13.7c-9.6-8.8-15.1-21-15.1-33.7v-0.7h-8.3v0.7
	c0,15,6.5,29.5,17.8,39.8c7.9,7.2,22.1,15.9,44.7,15.9c2.5,0,5.2-0.1,7.8-0.4L237.6,322z"/>
</svg>
