<?xml version="1.0" encoding="utf-8"?>
<!-- Generator: Adobe Illustrator 19.0.0, SVG Export Plug-In . SVG Version: 6.00 Build 0)  -->
<svg version="1.1" id="Layer_1" xmlns="http://www.w3.org/2000/svg" xmlns:xlink="http://www.w3.org/1999/xlink" x="0px" y="0px"
	 viewBox="0 0 612 612" style="enable-background:new 0 0 612 612;" xml:space="preserve">
<metadata><?xpacket begin="﻿" id="W5M0MpCehiHzreSzNTczkc9d"?>
<x:xmpmeta xmlns:x="adobe:ns:meta/" x:xmptk="Adobe XMP Core 5.6-c067 79.157747, 2015/03/30-23:40:42        ">
   <rdf:RDF xmlns:rdf="http://www.w3.org/1999/02/22-rdf-syntax-ns#">
      <rdf:Description rdf:about=""/>
   </rdf:RDF>
</x:xmpmeta>
                                                                                                    
                                                                                                    
                                                                                                    
                                                                                                    
                                                                                                    
                                                                                                    
                                                                                                    
                                                                                                    
                                                                                                    
                                                                                                    
                                                                                                    
                                                                                                    
                                                                                                    
                                                                                                    
                                                                                                    
                                                                                                    
                                                                                                    
                                                                                                    
                                                                                                    
                                                                                                    
                           
<?xpacket end="w"?></metadata>
<style type="text/css">
	.st0{fill:#FFFFFF;stroke:#000000;stroke-miterlimit:10;}
	.st1{fill:#0083BF;}
	.st2{fill:#59AFE1;}
	.st3{fill:#74C1EC;}
</style>
<rect y="0" class="st0" width="612" height="612"/>
<g>
	<g>
		<path class="st1" d="M312.8,302.6v-13.1h4v13.1c0,4.2,6.5,4.2,6.5,0v-13.1h4v13.1C327.4,312.2,312.8,312.2,312.8,302.6z"/>
		<path class="st1" d="M332,304.1c2.3,1.6,4.8,1.7,5.8,1.6c1.2-0.1,2.2-0.9,2.1-2c-0.1-1.2-1-1.7-2.1-2.1c-3.2-1.2-6-2.8-6-6.1
			c0-3.4,2.3-6,5.7-6.1c1-0.1,2.4-0.1,5,0.8L342,294c-2.2-0.9-3.5-0.9-4.1-0.8c-1.4,0.1-2.1,1.1-2,2.3c0.1,1.1,1.1,1.6,2.3,2
			c3.1,1.2,5.8,3,5.8,6.2c0,3.4-2.3,5.9-6.1,6.1c-1.1,0.1-3.6-0.1-6.4-1.5L332,304.1z"/>
		<path class="st1" d="M347.8,302.6v-13.1h4v13.1c0,4.2,6.5,4.2,6.5,0v-13.1h4v13.1C362.3,312.2,347.8,312.2,347.8,302.6z"/>
		<path class="st1" d="M367.5,289.4h4c0,2.7,0,5.4,0,8l5.1-8h4.7l-6.5,10l7.1,10.2h-5l-5.4-7.9c0,2.6,0,5.3,0,7.9h-4V289.4z"/>
		<path class="st1" d="M384.2,302.6v-13.1h4v13.1c0,4.2,6.5,4.2,6.5,0v-13.1h4v13.1C398.8,312.2,384.2,312.2,384.2,302.6z"/>
		<path class="st1" d="M317,321.2v16.1h6.4v4h-10.4v-20.2H317z"/>
		<path class="st1" d="M331.5,341.8l-8.3-20.6h4.5l4.1,10.3l3.9-10.1h0.2l3.9,10.1l4.1-10.3h4.5l-8.2,20.5h-0.7l-3.7-8.9l-3.7,9
			H331.5z"/>
		<path class="st1" d="M351,341.3v-20.2h10.1v4H355v4h5.3v4H355v4h6.4v4H351z"/>
		<path class="st1" d="M364,341.3c2.4-5.4,4.9-10.9,7.3-16.2h-6.2v-3.9h12.2c-2.4,5.4-4.8,10.7-7.3,16.1h7.5v4.1H364z"/>
		<path class="st1" d="M390.4,320.8c13.9,0,13.9,20.8,0,20.8C376.5,341.6,376.5,320.8,390.4,320.8z M390.4,325
			c-8.1,0-8.1,12.5,0,12.5C398.5,337.4,398.5,325,390.4,325z"/>
		<path class="st1" d="M404.9,321.1h8c3.6,0,5.8,2.6,5.7,6.1c-0.1,1.5-0.6,3.1-1.9,4c1.3,0.9,2.1,2.5,2.1,4c0,3.4-2.7,6.1-5.9,6.1
			h-8V321.1z M409,329.2h2.4h1.2c1.2,0,1.9-0.9,1.9-2c0-1.1-0.7-2-1.9-2H409V329.2z M409,337.3h2.4h1.2c1.2,0,2-0.9,2-2
			c0-1.1-0.9-2-2-2H409V337.3z"/>
		<path class="st1" d="M429.1,320.4h0.4l8.5,20.9h-4.5l-0.8-2.2H426l-0.8,2.2h-4.6L429.1,320.4z M431.2,335.4l-1.8-5.2l-1.9,5.2
			H431.2z"/>
		<path class="st1" d="M444.8,321.2v16.1h6.4v4h-10.4v-20.2H444.8z"/>
		<path class="st1" d="M463.6,320.8c13.9,0,13.9,20.8,0,20.8C449.7,341.6,449.7,320.8,463.6,320.8z M463.6,325
			c-8.1,0-8.1,12.5,0,12.5C471.6,337.4,471.6,325,463.6,325z"/>
		<path class="st1" d="M312.9,352.9h4c0,2.7,0,5.4,0,8l5.1-8h4.7l-6.5,10l7.1,10.2h-5l-5.4-7.9c0,2.6,0,5.3,0,7.9h-4V352.9z"/>
		<path class="st1" d="M329.7,366v-13.1h4V366c0,4.2,6.5,4.2,6.5,0v-13.1h4V366C344.3,375.6,329.7,375.6,329.7,366z"/>
		<path class="st1" d="M347.2,373c2.4-5.4,4.9-10.9,7.3-16.2h-6.2v-3.9h12.2c-2.4,5.4-4.8,10.7-7.3,16.1h7.5v4.1H347.2z"/>
		<path class="st1" d="M369.7,373.5l-8.3-20.6h4.5l4.1,10.3l3.9-10.1h0.2l3.9,10.1l4.1-10.3h4.5l-8.2,20.5h-0.7l-3.7-8.9l-3.7,9
			H369.7z"/>
		<path class="st1" d="M389.2,373v-20.2h10.1v4h-6.1v4h5.3v4h-5.3v4h6.4v4H389.2z"/>
		<path class="st1" d="M408.2,352.9V369h6.4v4h-10.4v-20.2H408.2z"/>
		<path class="st1" d="M427,352.5c13.9,0,13.9,20.8,0,20.8C413.1,373.3,413.1,352.5,427,352.5z M427,356.7c-8.1,0-8.1,12.5,0,12.5
			C435,369.2,435,356.7,427,356.7z"/>
		<path class="st1" d="M445.5,373h-4v-20.6h1.1l10.2,11.8v-11.4h4.1v20.6h-1.1l-10.2-11.4V373z"/>
		<path class="st1" d="M462.1,352.9h4c0,2.7,0,5.4,0,8l5.1-8h4.7l-6.5,10l7.1,10.2h-5l-5.4-7.9c0,2.6,0,5.3,0,7.9h-4V352.9z"/>
		<path class="st1" d="M479.1,373v-20.2h10.1v4h-6.1v4h5.3v4h-5.3v4h6.4v4H479.1z"/>
		<path class="st2" d="M316.7,391.4c0-0.8-0.6-1.4-1.4-1.4c-1.2-0.1-2.8,0.7-3.2,1.1l-0.7-2.7c1.1-0.8,2.8-1.3,4.1-1.3
			c4.1,0.2,5.4,3.8,3.1,7l-2.7,4.2h4.1v2.8h-9.1l5.2-8.2C316.7,392,316.7,391.4,316.7,391.4z"/>
		<path class="st2" d="M322.3,394.3c0-3.9,1.3-7.1,4.7-7.1c3.4,0,4.8,3.2,4.8,7.1c0,3.9-1.3,7.1-4.8,7.1
			C323.6,401.4,322.3,398.2,322.3,394.3z M329.1,394.3c0-2.5-0.5-4.5-2.1-4.5c-1.5,0-2.1,2-2.1,4.5c0,2.5,0.5,4.5,2.1,4.5
			C328.6,398.8,329.1,396.8,329.1,394.3z"/>
		<path class="st2" d="M335.4,401.4c-2.1,0-2.1-3.1,0-3.1C337.5,398.3,337.5,401.4,335.4,401.4z"/>
		<path class="st2" d="M338.6,387.4h5v13.8h-2.7v-11.1h-2.3V387.4z"/>
		<path class="st2" d="M346.7,394.3c0-3.9,1.3-7.1,4.7-7.1c3.4,0,4.8,3.2,4.8,7.1c0,3.9-1.3,7.1-4.8,7.1
			C348,401.4,346.7,398.2,346.7,394.3z M353.5,394.3c0-2.5-0.5-4.5-2.1-4.5c-1.5,0-2.1,2-2.1,4.5c0,2.5,0.5,4.5,2.1,4.5
			C353,398.8,353.5,396.8,353.5,394.3z"/>
		<path class="st2" d="M359.9,401.4c-2.1,0-2.1-3.1,0-3.1C362,398.3,361.9,401.4,359.9,401.4z"/>
		<path class="st2" d="M369.2,391.4c0-0.8-0.6-1.4-1.4-1.4c-1.2-0.1-2.8,0.7-3.2,1.1l-0.7-2.7c1.1-0.8,2.8-1.3,4.1-1.3
			c4.1,0.2,5.4,3.8,3.1,7l-2.7,4.2h4.1v2.8h-9.1l5.2-8.2C369.3,392,369.2,391.4,369.2,391.4z"/>
		<path class="st2" d="M374.8,394.3c0-3.9,1.3-7.1,4.7-7.1c3.4,0,4.8,3.2,4.8,7.1c0,3.9-1.3,7.1-4.8,7.1
			C376.2,401.4,374.8,398.2,374.8,394.3z M381.7,394.3c0-2.5-0.5-4.5-2.1-4.5c-1.5,0-2.1,2-2.1,4.5c0,2.5,0.5,4.5,2.1,4.5
			C381.2,398.8,381.7,396.8,381.7,394.3z"/>
		<path class="st2" d="M386.2,387.4h5v13.8h-2.7v-11.1h-2.3V387.4z"/>
		<path class="st2" d="M402.7,397.2c0,2.3-1.6,4-4.2,4.2c-0.7,0-2.6,0-4.4-0.6l0.3-2.8c4.3,1.5,5.5,0.3,5.5-0.9c0-1.6-1-2.1-5.2-2.4
			v-7.3h7v2.7h-4.3v2.4C400.9,392.8,402.7,394,402.7,397.2z"/>
		<path class="st1" d="M312,426.2V418h2.5v8.2c0,2.6,4.1,2.6,4.1,0V418h2.5v8.2C321.1,432.2,312,432.2,312,426.2z"/>
		<path class="st1" d="M327.4,418V428h4v2.5h-6.5V418H327.4z"/>
		<path class="st1" d="M337.1,430.8l-5.2-12.9h2.8l2.5,6.4l2.5-6.3h0.1l2.5,6.3l2.5-6.4h2.8l-5.1,12.8h-0.5l-2.3-5.6l-2.3,5.6H337.1
			z"/>
		<path class="st1" d="M353.3,417.5h0.3l5.3,13.1h-2.8l-0.5-1.4h-4.2l-0.5,1.4H348L353.3,417.5z M354.6,426.8l-1.1-3.3l-1.2,3.3
			H354.6z"/>
		<path class="st1" d="M360,430.6c1.5-3.4,3-6.8,4.5-10.1h-3.9V418h7.6c-1.5,3.4-3,6.7-4.5,10.1h4.7v2.5H360z"/>
		<path class="st1" d="M371.4,430.6V418h2.5v12.6H371.4z"/>
		<path class="st1" d="M388.9,417.8c8.7,0,8.7,13,0,13C380.3,430.7,380.3,417.8,388.9,417.8z M388.9,420.3c-5,0-5,7.8,0,7.8
			C394,428.1,394,420.3,388.9,420.3z"/>
		<path class="st1" d="M401.1,418V428h4v2.5h-6.5V418H401.1z"/>
		<path class="st1" d="M407.4,426.2V418h2.5v8.2c0,2.6,4.1,2.6,4.1,0V418h2.5v8.2C416.5,432.2,407.4,432.2,407.4,426.2z"/>
		<path class="st1" d="M422.8,430.6h-2.5v-12.9h0.7l6.4,7.4V418h2.5v12.8h-0.7l-6.4-7.1V430.6z"/>
		<path class="st1" d="M439.4,430.6c-8.3,0-8.7-12.4,0-12.8c1.5-0.1,2.7,0.4,2.9,0.5l-0.3,2.6c-0.5-0.2-1.3-0.5-2.6-0.5
			c-5.1,0.2-4.9,7.7,0,7.7c0.2,0,0.5,0,0.7-0.1v-3.8h2.6v5.5C441.7,430.3,440.6,430.6,439.4,430.6z"/>
		<path class="st1" d="M452,420.3c-5,0-5,7.7,0,7.7c1.1,0,2-0.3,2.4-0.6l0.3,2.6c-0.8,0.3-1.9,0.5-2.8,0.5c-8.5,0-8.5-12.8,0-12.8
			c0.9,0,1.7,0.2,2.5,0.5l-0.3,2.6C453.7,420.6,453,420.3,452,420.3z"/>
		<path class="st1" d="M463.4,417.8c8.7,0,8.7,13,0,13C454.8,430.7,454.8,417.8,463.4,417.8z M463.4,420.3c-5,0-5,7.8,0,7.8
			C468.5,428.1,468.5,420.3,463.4,420.3z"/>
		<path class="st1" d="M475.6,430.6h-2.5v-12.9h0.7l6.4,7.4V418h2.5v12.8H482l-6.4-7.1V430.6z"/>
		<path class="st1" d="M492.3,417.8c8.7,0,8.7,13,0,13C483.7,430.7,483.7,417.8,492.3,417.8z M492.3,420.3c-5,0-5,7.8,0,7.8
			C497.4,428.1,497.4,420.3,492.3,420.3z"/>
		<path class="st1" d="M312.1,452.8v-12.6h2.5v12.6H312.1z"/>
		<path class="st1" d="M329.2,440h0.8v12.8h-2.6l0-7l-3.2,3.4l-3.2-3.4v7h-2.6V440h0.8l5,5.5L329.2,440z"/>
		<path class="st1" d="M333.8,452.8v-12.6h4.9c4.9,0,4.9,7.8,0,7.8h-2.4v4.8H333.8z M338.5,445.6c1.7,0,1.7-2.8,0-2.8h-2.2v2.8
			H338.5z"/>
		<path class="st1" d="M345.1,452.8v-12.6h2.5v12.6H345.1z"/>
		<path class="st1" d="M353.9,440.2v10.1h4v2.5h-6.5v-12.6H353.9z"/>
		<path class="st1" d="M366.2,440c8.7,0,8.7,13,0,13C357.5,453,357.5,440,366.2,440z M366.2,442.6c-5,0-5,7.8,0,7.8
			C371.2,450.4,371.2,442.6,366.2,442.6z"/>
		<path class="st1" d="M381.2,452.8v-12.6h6.3v2.5h-3.8v2.5h3.3v2.5h-3.3v2.5h4v2.5H381.2z"/>
		<path class="st1" d="M393.6,452.8h-2.5V440h0.7l6.4,7.4v-7.1h2.5v12.8H400l-6.4-7.1V452.8z"/>
		<path class="st1" d="M410.2,452.9c-8.3,0-8.7-12.4,0-12.8c1.5-0.1,2.7,0.4,2.9,0.5l-0.3,2.6c-0.5-0.2-1.3-0.5-2.6-0.5
			c-5.1,0.2-4.9,7.7,0,7.7c0.2,0,0.5,0,0.7-0.1v-3.8h2.6v5.5C412.4,452.6,411.4,452.9,410.2,452.9z"/>
		<path class="st1" d="M422.7,442.6c-5,0-5,7.7,0,7.7c1.1,0,2-0.3,2.4-0.6l0.3,2.6c-0.8,0.3-1.9,0.5-2.8,0.5c-8.5,0-8.5-12.8,0-12.8
			c0.9,0,1.7,0.2,2.5,0.5l-0.3,2.6C424.4,442.9,423.8,442.6,422.7,442.6z"/>
		<path class="st1" d="M434.2,440c8.7,0,8.7,13,0,13C425.5,453,425.5,440,434.2,440z M434.2,442.6c-5,0-5,7.8,0,7.8
			C439.2,450.4,439.2,442.6,434.2,442.6z"/>
		<path class="st1" d="M446.4,452.8h-2.5V440h0.7l6.4,7.4v-7.1h2.5v12.8h-0.7l-6.4-7.1V452.8z"/>
		<path class="st1" d="M463.1,440c8.7,0,8.7,13,0,13C454.4,453,454.4,440,463.1,440z M463.1,442.6c-5,0-5,7.8,0,7.8
			C468.1,450.4,468.1,442.6,463.1,442.6z"/>
	</g>
</g>
<g>
	<path class="st3" d="M199.6,353.3c-7.6,0-15.3-1-22.7-3c-1.3-0.3-2.6-0.7-3.8-1.1c-20.5-6.6-37.7-20.5-48.5-39.3
		c-11.5-20-14.5-43.3-8.4-65.5c6-22.3,20.4-40.8,40.4-52.3c13.1-7.5,27.9-11.5,42.8-11.5c7.6,0,15.3,1,22.8,3.1
		c22.3,6,40.8,20.4,52.3,40.4c9.7,17,13.4,36.1,10.5,55.4l-0.1,0.6h-8.4l0.1-0.8c2.9-17.8-0.4-35.4-9.3-51.1
		c-10.4-18.1-27.2-31.1-47.3-36.5c-6.7-1.8-13.7-2.8-20.6-2.8c-13.5,0-26.9,3.6-38.7,10.4c-18.1,10.4-31,27.2-36.5,47.3
		c-5.5,20.1-2.8,41.2,7.6,59.2c10.4,18.1,27.2,31.1,47.3,36.5c7.6,2.1,15.6,2.9,23.6,2.6l0.4-0.1c6.3-0.3,12.7-1.4,19-3.3l0.2,0
		l0.2,0c4.9,0.9,10,1.4,15.2,1.4l2.8,0l-2.5,1.2c-4.1,2-8.4,3.7-12.7,5.1l-0.2,0.1c-0.2,0.1-0.3,0.2-0.5,0.2
		C216.5,352.1,208.1,353.3,199.6,353.3z"/>
</g>
<path class="st1" d="M229.8,264.1c-1-7.1-7.8-12.2-15.2-11.1c-7.4,1-12.4,7.7-11.4,14.9c1,7.2,7.7,12.2,15.1,11.1
	C225.7,277.9,230.8,271.3,229.8,264.1z M217.4,272.4c-3.6,0.5-6.8-1.9-7.3-5.5c-0.5-3.6,1.9-6.9,5.5-7.4c3.7-0.5,6.8,2.1,7.3,5.6
	C223.4,268.7,221,271.9,217.4,272.4z"/>
<path class="st1" d="M264.8,295.8c-1-7.1-7.8-12.2-15.2-11.1c-7.4,1-12.4,7.7-11.4,14.9c1,7.2,7.7,12.2,15.1,11.1
	C260.7,309.7,265.8,303,264.8,295.8z M252.4,304.1c-3.6,0.5-6.8-1.9-7.3-5.5c-0.5-3.6,1.9-6.9,5.5-7.4c3.6-0.5,6.8,2.1,7.3,5.6
	C258.4,300.5,256,303.6,252.4,304.1z"/>
<g>
	<path class="st1" d="M215,308.4h-10.7l47.4-51.8h10.7L215,308.4z"/>
</g>
<path class="st1" d="M242.4,330.5c-1.4,0.1-2.9,0.1-4.3,0.1c-20,0-32.3-7.4-39.1-13.7c-9.6-8.8-15.1-21-15.1-33.7v-0.7h-8.3v0.7
	c0,15,6.5,29.5,17.8,39.8c7.9,7.2,22.1,15.9,44.7,15.9c2.5,0,5.2-0.1,7.8-0.4L242.4,330.5z"/>
</svg>
