<?xml version="1.0" encoding="utf-8"?>
<!-- Generator: Adobe Illustrator 16.0.4, SVG Export Plug-In . SVG Version: 6.00 Build 0)  -->
<!DOCTYPE svg PUBLIC "-//W3C//DTD SVG 1.1//EN" "http://www.w3.org/Graphics/SVG/1.1/DTD/svg11.dtd">
<svg version="1.1" id="Layer_1" xmlns="http://www.w3.org/2000/svg" xmlns:xlink="http://www.w3.org/1999/xlink" x="0px" y="0px"
	 width="612px" height="612px" viewBox="0 0 612 612" enable-background="new 0 0 612 612" xml:space="preserve">
<rect y="0" fill="#FFFFFF" stroke="#000000" stroke-miterlimit="10" width="612" height="612.001"/>
<g>
	<g>
		<path fill="#59AFE1" d="M321.436,362.388c0-0.809-0.645-1.413-1.49-1.451c-1.277-0.083-2.871,0.748-3.33,1.148l-0.713-2.788
			c1.111-0.809,2.871-1.368,4.285-1.308c4.238,0.219,5.652,3.937,3.227,7.307l-2.85,4.396h4.283v2.932h-9.527l5.389-8.56
			C321.48,362.978,321.436,362.388,321.436,362.388z"/>
		<path fill="#59AFE1" d="M327.266,365.395c0-4.095,1.398-7.404,4.951-7.404c3.588,0,4.963,3.309,4.963,7.404
			c0,4.103-1.375,7.427-4.963,7.427C328.664,372.822,327.266,369.498,327.266,365.395z M334.391,365.395
			c0-2.584-0.543-4.7-2.174-4.7c-1.596,0-2.139,2.115-2.139,4.7c0,2.607,0.543,4.708,2.139,4.708
			C333.848,370.103,334.391,368.002,334.391,365.395z"/>
		<path fill="#59AFE1" d="M340.965,372.762c-2.176,0-2.176-3.249,0-3.249C343.186,369.513,343.127,372.762,340.965,372.762z"/>
		<path fill="#59AFE1" d="M348.15,358.21h5.227v14.416h-2.861v-11.529h-2.365V358.21z"/>
		<path fill="#59AFE1" d="M356.611,365.395c0-4.095,1.391-7.404,4.941-7.404c3.596,0,4.973,3.309,4.973,7.404
			c0,4.103-1.377,7.427-4.973,7.427C358.002,372.822,356.611,369.498,356.611,365.395z M363.736,365.395
			c0-2.584-0.545-4.7-2.184-4.7c-1.594,0-2.139,2.115-2.139,4.7c0,2.607,0.545,4.708,2.139,4.708
			C363.191,370.103,363.736,368.002,363.736,365.395z"/>
		<path fill="#59AFE1" d="M370.311,372.762c-2.184,0-2.184-3.249,0-3.249C372.531,369.513,372.471,372.762,370.311,372.762z"/>
		<path fill="#59AFE1" d="M383.971,362.388c0-0.809-0.643-1.413-1.49-1.451c-1.275-0.083-2.869,0.748-3.33,1.148l-0.711-2.788
			c1.109-0.809,2.871-1.368,4.285-1.308c4.238,0.219,5.65,3.937,3.225,7.307l-2.848,4.396h4.283v2.932h-9.527l5.387-8.56
			C384.016,362.978,383.971,362.388,383.971,362.388z"/>
		<path fill="#59AFE1" d="M389.811,365.395c0-4.095,1.391-7.404,4.941-7.404c3.596,0,4.971,3.309,4.971,7.404
			c0,4.103-1.375,7.427-4.971,7.427C391.201,372.822,389.811,369.498,389.811,365.395z M396.936,365.395
			c0-2.584-0.545-4.7-2.184-4.7c-1.594,0-2.139,2.115-2.139,4.7c0,2.607,0.545,4.708,2.139,4.708
			C396.391,370.103,396.936,368.002,396.936,365.395z"/>
		<path fill="#59AFE1" d="M401.635,358.21h5.229v14.416h-2.865v-11.529h-2.363V358.21z"/>
		<path fill="#59AFE1" d="M418.877,368.387c0,2.403-1.641,4.216-4.346,4.359c-0.748,0.039-2.705,0-4.602-0.649l0.264-2.864
			c4.482,1.534,5.773,0.303,5.75-0.906c0-1.7-1.064-2.222-5.469-2.546v-7.593h7.352v2.765h-4.443v2.523
			C417.018,363.801,418.877,365.055,418.877,368.387z"/>
	</g>
	<g>
		<path fill="#74C1EC" d="M197.239,352.303c-7.963,0-15.91-1.065-23.633-3.159c-1.336-0.362-2.674-0.763-3.996-1.186
			c-21.383-6.853-39.318-21.382-50.516-40.92c-11.951-20.857-15.072-45.121-8.779-68.323c6.293-23.203,21.252-42.567,42.107-54.52
			c13.652-7.819,29.072-11.953,44.613-11.953c7.965,0,15.934,1.066,23.717,3.177c23.203,6.298,42.559,21.253,54.512,42.11
			c10.146,17.694,13.934,37.674,10.955,57.776l-0.09,0.589h-8.779l0.127-0.802c2.992-18.526-0.369-36.946-9.723-53.261
			c-10.805-18.858-28.303-32.371-49.268-38.061c-7.035-1.903-14.242-2.871-21.436-2.871c-14.047,0-27.984,3.736-40.324,10.804
			c-18.842,10.804-32.359,28.302-38.057,49.272c-5.688,20.978-2.871,42.907,7.934,61.754c10.805,18.851,28.303,32.367,49.277,38.057
			c7.932,2.153,16.258,3.067,24.578,2.735l0.414-0.076c6.598-0.295,13.268-1.443,19.818-3.423l0.166-0.045l0.166,0.03
			c5.055,0.967,10.404,1.473,15.883,1.496l2.914,0.015l-2.605,1.292c-4.277,2.115-8.711,3.899-13.193,5.296l-0.172,0.09
			c-0.203,0.099-0.34,0.167-0.49,0.212C214.89,350.997,206.095,352.303,197.239,352.303z"/>
	</g>
	<path fill="#0083BF" d="M228.724,259.281c-1.043-7.419-8.129-12.678-15.82-11.605c-7.691,1.077-12.967,8.073-11.93,15.488
		c1.051,7.506,8.029,12.694,15.73,11.62C224.396,273.704,229.774,266.791,228.724,259.281z M215.735,267.932
		c-3.801,0.533-7.102-1.96-7.631-5.768c-0.52-3.709,1.941-7.2,5.75-7.729c3.809-0.532,7.133,2.146,7.654,5.856
		C222.044,264.094,219.544,267.404,215.735,267.932z"/>
	<path fill="#0083BF" d="M265.216,292.374c-1.043-7.416-8.121-12.678-15.812-11.605c-7.699,1.081-12.973,8.069-11.938,15.489
		c1.049,7.51,8.039,12.696,15.73,11.619C260.888,306.801,266.265,299.884,265.216,292.374z M252.235,301.028
		c-3.801,0.533-7.109-1.957-7.639-5.765c-0.521-3.713,1.943-7.2,5.75-7.732c3.801-0.529,7.133,2.142,7.654,5.855
		C258.53,297.191,256.044,300.492,252.235,301.028z"/>
	<g>
		<path fill="#0083BF" d="M213.288,305.467h-11.152l49.383-54.005h11.121L213.288,305.467z"/>
	</g>
	<path fill="#0083BF" d="M241.802,328.538c-1.496,0.079-2.998,0.155-4.451,0.155c-20.82,0-33.666-7.736-40.773-14.227
		c-9.998-9.134-15.732-21.933-15.732-35.125v-0.687h-8.65v0.687c0,15.617,6.754,30.75,18.549,41.517
		c8.25,7.54,23.037,16.524,46.578,16.524c2.652,0,5.41-0.147,8.168-0.374L241.802,328.538z"/>
</g>
<g>
	<path fill="#0083BF" d="M322.215,306.503h-6.179v-20.74h6.179C336.022,285.764,336.022,306.503,322.215,306.503z M320.185,289.912
		v12.444h2.03c8.063,0,8.063-12.444,0-12.444H320.185z"/>
	<path fill="#0083BF" d="M336.452,306.503v-20.74h4.148v20.74H336.452z"/>
	<path fill="#0083BF" d="M352.143,285.009h0.435l8.731,21.494h-4.67l-0.842-2.233h-6.874l-0.812,2.233h-4.699L352.143,285.009z
		 M354.26,300.383l-1.885-5.395l-1.944,5.395H354.26z"/>
	<path fill="#0083BF" d="M390.135,285.444h1.306v21.059h-4.206l0.029-11.574l-5.309,5.569l-5.309-5.569v11.574h-4.206v-21.059h1.335
		l8.18,9.108L390.135,285.444z"/>
	<path fill="#0083BF" d="M395.988,299.281v-13.517h4.148v13.488c0,4.351,6.729,4.351,6.729,0v-13.488h4.119v13.517
		C410.985,309.143,395.988,309.143,395.988,299.281z"/>
	<path fill="#0083BF" d="M419.712,306.503h-4.148v-21.175h1.103l10.472,12.183v-11.719h4.177v21.146h-1.103l-10.5-11.719V306.503z"
		/>
	<path fill="#0083BF" d="M442.157,306.503h-6.179v-20.74h6.179C455.965,285.764,455.965,306.503,442.157,306.503z M440.127,289.912
		v12.444h2.03c8.063,0,8.063-12.444,0-12.444H440.127z"/>
	<path fill="#0083BF" d="M456.395,306.503v-20.74h4.148v20.74H456.395z"/>
	<path fill="#0083BF" d="M472.085,285.009h0.435l8.731,21.494h-4.67l-0.842-2.233h-6.874l-0.812,2.233h-4.699L472.085,285.009z
		 M474.202,300.383l-1.885-5.395l-1.944,5.395H474.202z"/>
	<path fill="#0083BF" d="M488.296,285.764v16.592h6.584v4.148h-10.732v-20.74H488.296z"/>
	<path fill="#0083BF" d="M322.215,341.303h-6.179v-20.74h6.179C336.022,320.563,336.022,341.303,322.215,341.303z M320.185,324.711
		v12.444h2.03c8.063,0,8.063-12.444,0-12.444H320.185z"/>
	<path fill="#0083BF" d="M342.66,319.809h0.435l8.731,21.494h-4.67l-0.842-2.233h-6.874l-0.812,2.233h-4.699L342.66,319.809z
		 M344.777,335.183l-1.885-5.395l-1.944,5.395H344.777z"/>
	<path fill="#0083BF" d="M362.958,341.303v-20.74h10.385v4.148h-6.236v4.148h5.453v4.148h-5.453v4.148h6.584v4.148H362.958z"/>
	<path fill="#0083BF" d="M377.14,335.618c2.378,1.683,4.96,1.741,5.917,1.654c1.219-0.087,2.263-0.958,2.146-2.089
		c-0.087-1.189-0.986-1.711-2.146-2.117c-3.249-1.189-6.149-2.843-6.149-6.324s2.407-6.149,5.859-6.324
		c1.073-0.058,2.495-0.058,5.163,0.871l-0.521,4.003c-2.292-0.928-3.598-0.899-4.235-0.87c-1.479,0.087-2.146,1.16-2.06,2.32
		c0.116,1.16,1.131,1.683,2.32,2.088c3.22,1.189,6.005,3.046,6.005,6.353c0,3.452-2.379,6.092-6.266,6.294
		c-1.16,0.087-3.742-0.058-6.556-1.508L377.14,335.618z"/>
	<path fill="#0083BF" d="M396.338,341.303v-16.592h-5.163v-4.119h14.475v4.119h-5.163v16.592H396.338z"/>
	<path fill="#0083BF" d="M413.826,319.809h0.435l8.731,21.494h-4.67l-0.842-2.233h-6.874l-0.812,2.233h-4.699L413.826,319.809z
		 M415.943,335.183l-1.885-5.395l-1.944,5.395H415.943z"/>
	<path fill="#0083BF" d="M427.948,341.303v-16.592h-5.163v-4.119h14.475v4.119h-5.163v16.592H427.948z"/>
	<path fill="#0083BF" d="M440.388,341.303v-20.74h4.148v20.74H440.388z M446.856,315.168l-2.697,3.742h-3.655l1.422-3.742H446.856z"
		/>
	<path fill="#0083BF" d="M448.769,335.618c2.378,1.683,4.96,1.741,5.917,1.654c1.219-0.087,2.263-0.958,2.146-2.089
		c-0.087-1.189-0.986-1.711-2.146-2.117c-3.249-1.189-6.149-2.843-6.149-6.324s2.407-6.149,5.859-6.324
		c1.073-0.058,2.495-0.058,5.163,0.871l-0.521,4.003c-2.292-0.928-3.598-0.899-4.235-0.87c-1.479,0.087-2.146,1.16-2.06,2.32
		c0.116,1.16,1.131,1.683,2.32,2.088c3.22,1.189,6.005,3.046,6.005,6.353c0,3.452-2.379,6.092-6.266,6.294
		c-1.16,0.087-3.742-0.058-6.556-1.508L448.769,335.618z"/>
	<path fill="#0083BF" d="M467.967,341.303v-16.592h-5.163v-4.119h14.475v4.119h-5.163v16.592H467.967z"/>
	<path fill="#0083BF" d="M480.407,341.303v-20.74h4.148v20.74H480.407z"/>
	<path fill="#0083BF" d="M498.824,324.479c-8.209,0-8.209,12.647,0,12.647c1.799,0,3.22-0.522,4.003-0.928l0.551,4.293
		c-1.276,0.522-3.104,0.87-4.554,0.87c-14.068,0-14.039-21.059,0-21.059c1.45,0,2.843,0.261,4.09,0.812l-0.493,4.264
		C501.638,324.972,500.623,324.479,498.824,324.479z"/>
	<path fill="#0083BF" d="M513.556,319.809h0.435l8.731,21.494h-4.67l-0.842-2.233h-6.874l-0.812,2.233h-4.699L513.556,319.809z
		 M515.673,335.183l-1.885-5.395l-1.944,5.395H515.673z"/>
</g>
<g>
	<path fill="#0083BF" d="M326.859,388.596h0.811v13.072h-2.611l0.019-7.184l-3.296,3.457l-3.295-3.457v7.184h-2.61v-13.072h0.828
		l5.077,5.654L326.859,388.596z"/>
	<path fill="#0083BF" d="M330.563,401.668v-12.874h6.446v2.575h-3.871v2.575h3.385v2.575h-3.385v2.575h4.087v2.575H330.563z"/>
	<path fill="#0083BF" d="M342.211,388.794v10.299h4.087v2.575h-6.662v-12.874H342.211z"/>
	<path fill="#0083BF" d="M354.938,401.668v-5.149h-3.853v5.149h-2.575v-12.874h2.575v5.15h3.853v-5.15h2.575v12.874H354.938z"/>
	<path fill="#0083BF" d="M366.602,388.578c8.858,0,8.858,13.27,0,13.27C357.742,401.848,357.742,388.578,366.602,388.578z
		 M366.602,391.225c-5.15,0-5.15,7.958,0,7.958C371.751,399.183,371.751,391.225,366.602,391.225z"/>
	<path fill="#0083BF" d="M382.063,401.668l-2.593-4.916h-1.242v4.916h-2.575v-12.874h5.077c4.592,0,5.042,6.464,1.261,7.562
		l2.989,5.312H382.063z M378.229,394.25h2.269c1.746,0,1.746-2.881,0-2.881h-2.269V394.25z"/>
	<path fill="#0083BF" d="M386.688,401.668v-12.874h6.446v2.575h-3.871v2.575h3.385v2.575h-3.385v2.575h4.087v2.575H386.688z"/>
	<path fill="#0083BF" d="M395.488,398.139c1.477,1.044,3.079,1.081,3.674,1.026c0.756-0.054,1.404-0.594,1.332-1.296
		c-0.054-0.738-0.612-1.062-1.332-1.314c-2.017-0.738-3.817-1.765-3.817-3.925s1.494-3.817,3.637-3.925
		c0.667-0.036,1.549-0.036,3.205,0.54l-0.324,2.485c-1.422-0.576-2.232-0.558-2.629-0.54c-0.918,0.054-1.332,0.72-1.278,1.44
		c0.072,0.72,0.702,1.044,1.44,1.296c1.999,0.738,3.728,1.891,3.728,3.943c0,2.143-1.477,3.781-3.89,3.907
		c-0.72,0.054-2.322-0.036-4.068-0.936L395.488,398.139z"/>
	<path fill="#0083BF" d="M414.228,401.668h-3.835v-12.874h3.835C422.798,388.794,422.798,401.668,414.228,401.668z M412.968,391.369
		v7.724h1.26c5.006,0,5.006-7.724,0-7.724H412.968z"/>
	<path fill="#0083BF" d="M426.919,388.326h0.27l5.42,13.342h-2.899l-0.521-1.386h-4.268l-0.504,1.386h-2.917L426.919,388.326z
		 M428.233,397.869l-1.171-3.349l-1.206,3.349H428.233z"/>
	<path fill="#0083BF" d="M438.24,401.668h-3.835v-12.874h3.835C446.811,388.794,446.811,401.668,438.24,401.668z M436.98,391.369
		v7.724h1.26c5.006,0,5.006-7.724,0-7.724H436.98z"/>
	<path fill="#0083BF" d="M453.271,388.578c8.858,0,8.858,13.27,0,13.27C444.412,401.848,444.412,388.578,453.271,388.578z
		 M453.271,391.225c-5.15,0-5.15,7.958,0,7.958C458.421,399.183,458.421,391.225,453.271,391.225z"/>
	<path fill="#0083BF" d="M462.052,398.139c1.477,1.044,3.079,1.081,3.674,1.026c0.756-0.054,1.404-0.594,1.332-1.296
		c-0.054-0.738-0.612-1.062-1.332-1.314c-2.017-0.738-3.817-1.765-3.817-3.925s1.494-3.817,3.637-3.925
		c0.666-0.036,1.549-0.036,3.205,0.54l-0.324,2.485c-1.422-0.576-2.232-0.558-2.629-0.54c-0.918,0.054-1.332,0.72-1.278,1.44
		c0.072,0.72,0.702,1.044,1.44,1.296c1.999,0.738,3.728,1.891,3.728,3.943c0,2.143-1.477,3.781-3.89,3.907
		c-0.72,0.054-2.322-0.036-4.068-0.936L462.052,398.139z"/>
	<path fill="#0083BF" d="M472.385,401.794c-1.944,0-1.944-2.899,0-2.899C474.365,398.895,474.312,401.794,472.385,401.794z"/>
	<path fill="#0083BF" d="M326.859,410.196h0.811v13.072h-2.611l0.019-7.184l-3.296,3.457l-3.295-3.457v7.184h-2.61v-13.072h0.828
		l5.077,5.653L326.859,410.196z"/>
	<path fill="#0083BF" d="M330.563,423.268v-12.874h6.446v2.575h-3.871v2.575h3.385v2.575h-3.385v2.575h4.087v2.575H330.563z"/>
	<path fill="#0083BF" d="M342.211,410.394v10.299h4.087v2.575h-6.662v-12.874H342.211z"/>
	<path fill="#0083BF" d="M354.938,423.268v-5.149h-3.853v5.149h-2.575v-12.874h2.575v5.15h3.853v-5.15h2.575v12.874H354.938z"/>
	<path fill="#0083BF" d="M366.602,410.178c8.858,0,8.858,13.27,0,13.27C357.742,423.448,357.742,410.178,366.602,410.178z
		 M366.602,412.825c-5.15,0-5.15,7.958,0,7.958C371.751,420.783,371.751,412.825,366.602,412.825z"/>
	<path fill="#0083BF" d="M382.063,423.268l-2.593-4.916h-1.242v4.916h-2.575v-12.874h5.077c4.592,0,5.042,6.464,1.261,7.562
		l2.989,5.312H382.063z M378.229,415.85h2.269c1.746,0,1.746-2.881,0-2.881h-2.269V415.85z"/>
	<path fill="#0083BF" d="M386.688,423.268v-12.874h6.446v2.575h-3.871v2.575h3.385v2.575h-3.385v2.575h4.087v2.575H386.688z"/>
	<path fill="#0083BF" d="M395.488,419.739c1.477,1.044,3.079,1.08,3.674,1.026c0.756-0.054,1.404-0.594,1.332-1.296
		c-0.054-0.738-0.612-1.062-1.332-1.314c-2.017-0.738-3.817-1.764-3.817-3.925s1.494-3.817,3.637-3.925
		c0.667-0.036,1.549-0.036,3.205,0.54l-0.324,2.485c-1.422-0.576-2.232-0.558-2.629-0.54c-0.918,0.054-1.332,0.72-1.278,1.44
		c0.072,0.72,0.702,1.044,1.44,1.296c1.999,0.738,3.728,1.891,3.728,3.943c0,2.143-1.477,3.781-3.89,3.907
		c-0.72,0.054-2.322-0.036-4.068-0.936L395.488,419.739z"/>
	<path fill="#0083BF" d="M414.39,423.538l-5.329-13.144h2.971l1.71,4.286l0.937,2.665l0.918-2.575l1.729-4.375h2.972l-5.33,13.144
		H414.39z"/>
	<path fill="#0083BF" d="M421.858,423.268v-12.874h2.575v12.874H421.858z"/>
	<path fill="#0083BF" d="M431.166,423.268h-3.835v-12.874h3.835C439.736,410.394,439.736,423.268,431.166,423.268z M429.906,412.969
		v7.725h1.26c5.006,0,5.006-7.725,0-7.725H429.906z"/>
	<path fill="#0083BF" d="M443.856,409.926h0.27l5.42,13.342h-2.899l-0.521-1.386h-4.268l-0.504,1.386h-2.917L443.856,409.926z
		 M445.171,419.469L444,416.12l-1.206,3.349H445.171z"/>
	<path fill="#0083BF" d="M451.072,419.739c1.477,1.044,3.079,1.08,3.674,1.026c0.756-0.054,1.404-0.594,1.332-1.296
		c-0.054-0.738-0.612-1.062-1.332-1.314c-2.017-0.738-3.817-1.764-3.817-3.925s1.494-3.817,3.637-3.925
		c0.667-0.036,1.549-0.036,3.205,0.54l-0.324,2.485c-1.422-0.576-2.232-0.558-2.629-0.54c-0.918,0.054-1.332,0.72-1.278,1.44
		c0.072,0.72,0.702,1.044,1.44,1.296c1.999,0.738,3.728,1.891,3.728,3.943c0,2.143-1.477,3.781-3.89,3.907
		c-0.72,0.054-2.322-0.036-4.068-0.936L451.072,419.739z"/>
	<path fill="#0083BF" d="M461.404,423.394c-1.944,0-1.944-2.899,0-2.899C463.385,420.495,463.331,423.394,461.404,423.394z"/>
</g>
</svg>
