<?xml version="1.0" encoding="utf-8"?>
<!-- Generator: Adobe Illustrator 19.0.0, SVG Export Plug-In . SVG Version: 6.00 Build 0)  -->
<svg version="1.1" id="Layer_1" xmlns="http://www.w3.org/2000/svg" xmlns:xlink="http://www.w3.org/1999/xlink" x="0px" y="0px"
	 viewBox="0 0 612 612" style="enable-background:new 0 0 612 612;" xml:space="preserve">
<metadata><?xpacket begin="﻿" id="W5M0MpCehiHzreSzNTczkc9d"?>
<x:xmpmeta xmlns:x="adobe:ns:meta/" x:xmptk="Adobe XMP Core 5.6-c067 79.157747, 2015/03/30-23:40:42        ">
   <rdf:RDF xmlns:rdf="http://www.w3.org/1999/02/22-rdf-syntax-ns#">
      <rdf:Description rdf:about=""/>
   </rdf:RDF>
</x:xmpmeta>
                                                                                                    
                                                                                                    
                                                                                                    
                                                                                                    
                                                                                                    
                                                                                                    
                                                                                                    
                                                                                                    
                                                                                                    
                                                                                                    
                                                                                                    
                                                                                                    
                                                                                                    
                                                                                                    
                                                                                                    
                                                                                                    
                                                                                                    
                                                                                                    
                                                                                                    
                                                                                                    
                           
<?xpacket end="w"?></metadata>
<style type="text/css">
	.st0{fill:#FFFFFF;}
	.st1{fill:#0083BF;}
	.st2{fill:#59AFE1;}
	.st3{fill:#74C1EC;}
</style>
<rect y="0" class="st0" width="612" height="612"/>
<g>
	<g>
		<path class="st1" d="M315.3,287.4v-15.7h-5.2v15.7h-4.9v-20.1h15.1v20.1H315.3z"/>
		<path class="st1" d="M335.6,287.4l-0.9-3h-6.2l-1,3h-5.2l7.3-20.1h3.8l7.3,20.1H335.6z M331.7,274.9l-1.8,5.4h3.5L331.7,274.9z"/>
		<path class="st1" d="M347.9,271.7v15.7H343v-20.1h13.2v4.4H347.9z"/>
		<path class="st1" d="M369.9,287.4l-4.6-8.2l-1.7,1.9v6.3h-4.9v-20.1h4.9v7.1l5.8-7.1h6l-6.8,8.1l7.1,11.9H369.9z"/>
		<path class="st1" d="M389.4,285.3c-1.5,1.5-3.2,2.3-5.6,2.3s-4.1-0.8-5.6-2.3c-2.1-2.1-2-4.9-2-7.9s-0.1-5.8,2-7.9
			c1.5-1.5,3.2-2.3,5.6-2.3s4.1,0.8,5.6,2.3c2.1,2.1,2,4.9,2,7.9S391.5,283.2,389.4,285.3z M385.8,272.4c-0.4-0.5-1.1-0.9-2-0.9
			s-1.6,0.4-2,0.9c-0.5,0.6-0.7,1.3-0.7,4.9c0,3.7,0.3,4.3,0.7,4.9c0.4,0.5,1.1,0.9,2,0.9s1.6-0.4,2-0.9c0.5-0.6,0.7-1.2,0.7-4.9
			C386.5,273.7,386.2,273,385.8,272.4z"/>
		<path class="st1" d="M399.7,271.7l3.3,5.4l-3.8,5.9h7.7v4.4h-13.6v-3.8l4.3-6.5l-3.9-5.9v-3.8h13.3v4.4H399.7z"/>
		<path class="st1" d="M423.5,287.4v-9.6l-2.8,5h-3.2l-2.8-5v9.6h-4.9v-20.1h4.8l4.5,8.8l4.5-8.8h4.8v20.1H423.5z"/>
		<path class="st1" d="M432.1,287.4v-20.1h4.9v20.1H432.1z"/>
		<path class="st1" d="M452.4,287.4l-0.9-3h-6.2l-1,3h-5.2l7.3-20.1h3.8l7.3,20.1H452.4z M448.5,274.9l-1.8,5.4h3.5L448.5,274.9z"/>
		<path class="st1" d="M315.3,319.1v-7.9h-5.2v7.9h-4.9V299h4.9v7.7h5.2V299h4.9v20.1H315.3z"/>
		<path class="st1" d="M337.7,319.1v-9.6l-2.8,5h-3.2l-2.8-5v9.6h-4.9V299h4.8l4.5,8.8l4.5-8.8h4.8v20.1H337.7z"/>
		<path class="st1" d="M346.3,319.1V299h13.6v4.4h-8.7v3.4h7.4v4.4h-7.4v3.5h8.7v4.4H346.3z"/>
		<path class="st1" d="M371.1,311.9h-3v7.2h-4.9V299h7.9c4.5,0,6.8,3.2,6.8,6.5S375.6,311.9,371.1,311.9z M370.9,303.4h-2.8v4.1h2.8
			c1.4,0,2.1-1,2.1-2C373,304.4,372.2,303.4,370.9,303.4z"/>
		<path class="st1" d="M390.6,319.1l-0.9-3h-6.2l-1,3h-5.2l7.3-20.1h3.8l7.3,20.1H390.6z M386.6,306.6l-1.8,5.4h3.5L386.6,306.6z"/>
		<path class="st1" d="M310.3,335.1l3.3,5.4l-3.8,5.9h7.7v4.4h-13.6v-3.8l4.3-6.5l-3.9-5.9v-3.8h13.3v4.4H310.3z"/>
		<path class="st1" d="M329.5,335.1v15.7h-4.9v-15.7h-4.9v-4.4h14.8v4.4H329.5z"/>
		<path class="st1" d="M346.7,350.8l-0.9-3h-6.2l-1,3h-5.2l7.3-20.1h3.8l7.3,20.1H346.7z M342.7,338.3l-1.8,5.4h3.5L342.7,338.3z"/>
		<path class="st1" d="M360.7,335.1v15.7h-4.9v-15.7h-4.9v-4.4h14.8v4.4H360.7z"/>
		<path class="st1" d="M368.2,350.8v-20.1h4.9v20.1H368.2z"/>
		<path class="st1" d="M382.2,335.1l3.3,5.4l-3.8,5.9h7.7v4.4h-13.6v-3.8l4.3-6.5l-3.9-5.9v-3.8h13.3v4.4H382.2z"/>
		<path class="st1" d="M401.3,335.1v15.7h-4.9v-15.7h-4.9v-4.4h14.8v4.4H401.3z"/>
		<path class="st1" d="M408.8,350.8v-20.1h4.9v20.1H408.8z"/>
		<path class="st1" d="M428.5,350.8l-4.6-8.2l-1.7,1.9v6.3h-4.9v-20.1h4.9v7.1l5.8-7.1h6l-6.8,8.1l7.1,11.9H428.5z"/>
		<path class="st1" d="M446.6,350.8v-7.9h-5.2v7.9h-4.9v-20.1h4.9v7.7h5.2v-7.7h4.9v20.1H446.6z"/>
		<path class="st1" d="M460.6,335.1l3.3,5.4l-3.8,5.9h7.7v4.4h-13.6v-3.8l4.3-6.5l-3.9-5.9v-3.8h13.3v4.4H460.6z"/>
		<path class="st2" d="M309.1,369.1c0-0.8-0.6-1.4-1.4-1.4c-1.2-0.1-2.8,0.7-3.2,1.1l-0.7-2.7c1.1-0.8,2.8-1.3,4.1-1.3
			c4.1,0.2,5.4,3.8,3.1,7l-2.7,4.2h4.1v2.8h-9.1l5.2-8.2C309.1,369.7,309.1,369.1,309.1,369.1z"/>
		<path class="st2" d="M314.6,372c0-3.9,1.3-7.1,4.7-7.1c3.4,0,4.8,3.2,4.8,7.1c0,3.9-1.3,7.1-4.8,7.1
			C316,379.1,314.6,376,314.6,372z M321.5,372c0-2.5-0.5-4.5-2.1-4.5c-1.5,0-2.1,2-2.1,4.5c0,2.5,0.5,4.5,2.1,4.5
			C321,376.5,321.5,374.5,321.5,372z"/>
		<path class="st2" d="M327.8,379.1c-2.1,0-2.1-3.1,0-3.1C329.9,376,329.8,379.1,327.8,379.1z"/>
		<path class="st2" d="M330.9,365.1h5V379h-2.8v-11.1h-2.3V365.1z"/>
		<path class="st2" d="M339,372c0-3.9,1.3-7.1,4.7-7.1c3.4,0,4.8,3.2,4.8,7.1c0,3.9-1.3,7.1-4.8,7.1C340.3,379.1,339,376,339,372z
			 M345.8,372c0-2.5-0.5-4.5-2.1-4.5c-1.5,0-2.1,2-2.1,4.5c0,2.5,0.5,4.5,2.1,4.5C345.3,376.5,345.8,374.5,345.8,372z"/>
		<path class="st2" d="M352.1,379.1c-2.1,0-2.1-3.1,0-3.1C354.2,376,354.2,379.1,352.1,379.1z"/>
		<path class="st2" d="M361.5,369.1c0-0.8-0.6-1.4-1.4-1.4c-1.2-0.1-2.8,0.7-3.2,1.1l-0.7-2.7c1.1-0.8,2.8-1.3,4.1-1.3
			c4.1,0.2,5.4,3.8,3.1,7l-2.7,4.2h4.1v2.8h-9.1l5.2-8.2C361.5,369.7,361.5,369.1,361.5,369.1z"/>
		<path class="st2" d="M367.1,372c0-3.9,1.3-7.1,4.7-7.1c3.4,0,4.8,3.2,4.8,7.1c0,3.9-1.3,7.1-4.8,7.1
			C368.4,379.1,367.1,376,367.1,372z M373.9,372c0-2.5-0.5-4.5-2.1-4.5c-1.5,0-2.1,2-2.1,4.5c0,2.5,0.5,4.5,2.1,4.5
			C373.4,376.5,373.9,374.5,373.9,372z"/>
		<path class="st2" d="M378.4,365.1h5V379h-2.8v-11.1h-2.3V365.1z"/>
		<path class="st2" d="M394.9,374.9c0,2.3-1.6,4-4.2,4.2c-0.7,0-2.6,0-4.4-0.6l0.3-2.8c4.3,1.5,5.5,0.3,5.5-0.9c0-1.6-1-2.1-5.3-2.4
			v-7.3h7.1v2.7h-4.3v2.4C393.1,370.5,394.9,371.7,394.9,374.9z"/>
		<path class="st1" d="M311.3,408.3l-2.9-5.1l-1.1,1.2v3.9h-3v-12.5h3v4.4l3.6-4.4h3.8l-4.3,5.1l4.4,7.5H311.3z"/>
		<path class="st1" d="M324.5,408.3l-0.6-1.9h-3.9l-0.6,1.9h-3.2l4.6-12.5h2.4l4.6,12.5H324.5z M322.1,400.5l-1.1,3.3h2.2
			L322.1,400.5z"/>
		<path class="st1" d="M337,408.3l-2.3-7.7l-2.4,7.7h-3.2l4.4-12.5h2.4l4.4,12.5H337z"/>
		<path class="st1" d="M346.5,403.2v5.1h-3.1v-5.1l-3.8-7.4h3.4l2,4.5l2-4.5h3.4L346.5,403.2z"/>
		<path class="st1" d="M358.1,398.5v9.8H355v-9.8h-3.1v-2.7h9.2v2.7H358.1z"/>
		<path class="st1" d="M363.4,408.3v-12.5h8.5v2.7h-5.4v2.1h4.6v2.7h-4.6v2.2h5.4v2.7H363.4z"/>
		<path class="st1" d="M379.5,403.8h-1.9v4.5h-3.1v-12.5h5c2.8,0,4.3,2,4.3,4S382.3,403.8,379.5,403.8z M379.3,398.5h-1.7v2.5h1.7
			c0.8,0,1.3-0.6,1.3-1.3C380.7,399.1,380.2,398.5,379.3,398.5z"/>
		<path class="st1" d="M392.3,408.3l-0.6-1.9h-3.9l-0.6,1.9H384l4.6-12.5h2.4l4.6,12.5H392.3z M389.8,400.5l-1.1,3.3h2.2
			L389.8,400.5z"/>
		<path class="st1" d="M405,398.5l2.1,3.3l-2.4,3.7h4.8v2.7H401v-2.4l2.7-4l-2.4-3.7v-2.4h8.3v2.7H405z"/>
		<path class="st1" d="M417.6,398.5v9.8h-3.1v-9.8h-3.1v-2.7h9.2v2.7H417.6z"/>
		<path class="st1" d="M430.8,407c-0.9,0.9-2,1.4-3.5,1.4s-2.6-0.5-3.5-1.4c-1.3-1.3-1.3-3.1-1.3-5c0-1.9-0.1-3.6,1.3-5
			c0.9-0.9,2-1.4,3.5-1.4s2.6,0.5,3.5,1.4c1.3,1.3,1.3,3.1,1.3,5C432.1,403.9,432.1,405.6,430.8,407z M428.5,398.9
			c-0.2-0.3-0.7-0.5-1.2-0.5s-1,0.2-1.2,0.5c-0.3,0.4-0.5,0.8-0.5,3.1s0.2,2.7,0.5,3.1c0.2,0.3,0.7,0.6,1.2,0.6s1-0.3,1.2-0.6
			c0.3-0.4,0.5-0.8,0.5-3.1S428.8,399.3,428.5,398.9z"/>
		<path class="st1" d="M434.6,408.3v-12.5h3.1v12.5H434.6z"/>
		<path class="st1" d="M447.2,408.3l-2.1-3.9l-2.1,3.9h-3.5l3.9-6.4l-3.7-6.1h3.5l1.8,3.5l1.8-3.5h3.5l-3.7,6.1l3.9,6.4H447.2z"/>
		<path class="st1" d="M452.7,408.3v-12.5h8.5v2.7h-5.4v2.1h4.6v2.7h-4.6v2.2h5.4v2.7H452.7z"/>
		<path class="st1" d="M463.9,408.3v-12.5h3.1v12.5H463.9z"/>
		<path class="st1" d="M477.2,408.3l-0.6-1.9h-3.9l-0.6,1.9h-3.2l4.6-12.5h2.4l4.6,12.5H477.2z M474.7,400.5l-1.1,3.3h2.2
			L474.7,400.5z"/>
		<path class="st1" d="M311.3,429.4l-2.9-5.1l-1.1,1.2v3.9h-3v-12.5h3v4.4l3.6-4.4h3.8l-4.3,5.1l4.4,7.5H311.3z"/>
		<path class="st1" d="M324.5,429.4l-0.6-1.9h-3.9l-0.6,1.9h-3.2l4.6-12.5h2.4l4.6,12.5H324.5z M322.1,421.6L321,425h2.2
			L322.1,421.6z"/>
		<path class="st1" d="M337,429.4l-2.3-7.7l-2.4,7.7h-3.2l4.4-12.5h2.4l4.4,12.5H337z"/>
		<path class="st1" d="M346.5,424.3v5.1h-3.1v-5.1l-3.8-7.4h3.4l2,4.5l2-4.5h3.4L346.5,424.3z"/>
		<path class="st1" d="M358.1,419.6v9.8H355v-9.8h-3.1v-2.7h9.2v2.7H358.1z"/>
		<path class="st1" d="M363.4,429.4v-12.5h8.5v2.7h-5.4v2.1h4.6v2.7h-4.6v2.2h5.4v2.7H363.4z"/>
		<path class="st1" d="M379.5,424.9h-1.9v4.5h-3.1v-12.5h5c2.8,0,4.3,2,4.3,4S382.3,424.9,379.5,424.9z M379.3,419.6h-1.7v2.5h1.7
			c0.8,0,1.3-0.6,1.3-1.3C380.7,420.2,380.2,419.6,379.3,419.6z"/>
		<path class="st1" d="M392.3,429.4v-5h-3.3v5H386v-12.5h3.1v4.8h3.3v-4.8h3.1v12.5H392.3z"/>
		<path class="st1" d="M402.2,429.4V427l4.8-7.4h-4.6v-2.7h8.3v2.4l-4.8,7.4h4.8v2.7H402.2z"/>
		<path class="st1" d="M418.2,429.4V427c0.2-0.1,0.4-0.3,0.6-0.4c0.3-0.4,0.5-1,0.5-3.3c0-2.3-0.2-2.9-0.5-3.2
			c-0.2-0.3-0.7-0.6-1.2-0.6s-1,0.3-1.2,0.6c-0.3,0.4-0.5,0.9-0.5,3.2c0,2.3,0.2,2.9,0.5,3.3c0.1,0.2,0.3,0.3,0.6,0.4v2.4h-4.1v-2.7
			h0.8c-0.2-0.3-0.4-0.6-0.4-0.8c-0.3-0.8-0.4-1.7-0.4-2.7c0-1.9-0.1-3.6,1.3-5c0.9-0.9,2-1.4,3.5-1.4s2.6,0.5,3.5,1.4
			c1.3,1.3,1.3,3.1,1.3,5c0,1-0.1,1.9-0.4,2.7c-0.1,0.3-0.2,0.6-0.4,0.8h0.8v2.7H418.2z"/>
		<path class="st1" d="M431.3,429.4v-5H428v5h-3.1v-12.5h3.1v4.8h3.3v-4.8h3.1v12.5H431.3z"/>
	</g>
</g>
<g>
	<path class="st3" d="M192.1,331.1c-7.6,0-15.3-1-22.7-3c-1.3-0.3-2.6-0.7-3.8-1.1c-20.5-6.6-37.7-20.5-48.4-39.2
		c-11.5-20-14.4-43.3-8.4-65.5c6-22.2,20.4-40.8,40.4-52.3c13.1-7.5,27.9-11.5,42.8-11.5c7.6,0,15.3,1,22.7,3
		c22.2,6,40.8,20.4,52.3,40.4c9.7,17,13.4,36.1,10.5,55.4l-0.1,0.6h-8.4l0.1-0.8c2.9-17.8-0.4-35.4-9.3-51.1
		c-10.4-18.1-27.1-31-47.2-36.5c-6.7-1.8-13.7-2.8-20.5-2.8c-13.5,0-26.8,3.6-38.7,10.4c-18.1,10.4-31,27.1-36.5,47.2
		c-5.5,20.1-2.8,41.1,7.6,59.2c10.4,18.1,27.1,31,47.2,36.5c7.6,2.1,15.6,2.9,23.6,2.6l0.4-0.1c6.3-0.3,12.7-1.4,19-3.3l0.2,0l0.2,0
		c4.9,0.9,10,1.4,15.2,1.4l2.8,0l-2.5,1.2c-4.1,2-8.3,3.7-12.6,5.1l-0.2,0.1c-0.2,0.1-0.3,0.2-0.5,0.2
		C209,329.8,200.6,331.1,192.1,331.1z"/>
</g>
<path class="st1" d="M222.2,241.9c-1-7.1-7.8-12.2-15.2-11.1c-7.4,1-12.4,7.7-11.4,14.9c1,7.2,7.7,12.2,15.1,11.1
	C218.1,255.7,223.3,249.1,222.2,241.9z M209.8,250.2c-3.6,0.5-6.8-1.9-7.3-5.5c-0.5-3.6,1.9-6.9,5.5-7.4c3.6-0.5,6.8,2.1,7.3,5.6
	C215.8,246.5,213.4,249.7,209.8,250.2z"/>
<path class="st1" d="M257.2,273.6c-1-7.1-7.8-12.2-15.2-11.1c-7.4,1-12.4,7.7-11.4,14.9c1,7.2,7.7,12.2,15.1,11.1
	C253.1,287.4,258.2,280.8,257.2,273.6z M244.8,281.9c-3.6,0.5-6.8-1.9-7.3-5.5c-0.5-3.6,1.9-6.9,5.5-7.4c3.6-0.5,6.8,2.1,7.3,5.6
	C250.8,278.2,248.4,281.4,244.8,281.9z"/>
<g>
	<path class="st1" d="M207.5,286.2h-10.7l47.3-51.8h10.7L207.5,286.2z"/>
</g>
<path class="st1" d="M234.8,308.3c-1.4,0.1-2.9,0.1-4.3,0.1c-20,0-32.3-7.4-39.1-13.6c-9.6-8.8-15.1-21-15.1-33.7v-0.7H168v0.7
	c0,15,6.5,29.5,17.8,39.8c7.9,7.2,22.1,15.8,44.7,15.8c2.5,0,5.2-0.1,7.8-0.4L234.8,308.3z"/>
</svg>
