<?xml version="1.0" encoding="utf-8"?>
<!-- Generator: Adobe Illustrator 19.0.0, SVG Export Plug-In . SVG Version: 6.00 Build 0)  -->
<svg version="1.1" id="Layer_1" xmlns="http://www.w3.org/2000/svg" xmlns:xlink="http://www.w3.org/1999/xlink" x="0px" y="0px"
	 viewBox="0 0 612 612" style="enable-background:new 0 0 612 612;" xml:space="preserve">
<metadata><?xpacket begin="﻿" id="W5M0MpCehiHzreSzNTczkc9d"?>
<x:xmpmeta xmlns:x="adobe:ns:meta/" x:xmptk="Adobe XMP Core 5.6-c067 79.157747, 2015/03/30-23:40:42        ">
   <rdf:RDF xmlns:rdf="http://www.w3.org/1999/02/22-rdf-syntax-ns#">
      <rdf:Description rdf:about=""/>
   </rdf:RDF>
</x:xmpmeta>
                                                                                                    
                                                                                                    
                                                                                                    
                                                                                                    
                                                                                                    
                                                                                                    
                                                                                                    
                                                                                                    
                                                                                                    
                                                                                                    
                                                                                                    
                                                                                                    
                                                                                                    
                                                                                                    
                                                                                                    
                                                                                                    
                                                                                                    
                                                                                                    
                                                                                                    
                                                                                                    
                           
<?xpacket end="w"?></metadata>
<style type="text/css">
	.st0{fill:#0083BF;}
	.st1{fill:#FFFFFF;}
	.st2{fill:#90CEF1;}
	.st3{fill:#74C1EC;}
</style>
<rect class="st0" width="612" height="612"/>
<g>
	<path class="st1" d="M316.6,301v-15.7h-5.2V301h-4.9v-20.1h15.1V301H316.6z"/>
	<path class="st1" d="M337,301l-0.9-3h-6.2l-1,3h-5.2l7.3-20.1h3.8l7.3,20.1H337z M333.1,288.5l-1.8,5.4h3.5L333.1,288.5z"/>
	<path class="st1" d="M349.2,285.3V301h-4.9v-20.1h13.2v4.4H349.2z"/>
	<path class="st1" d="M371.3,301l-4.6-8.2l-1.7,1.9v6.3h-4.9v-20.1h4.9v7.1l5.8-7.1h6L370,289L377,301H371.3z"/>
	<path class="st1" d="M390.7,298.9c-1.5,1.5-3.2,2.3-5.6,2.3s-4.1-0.8-5.6-2.3c-2.1-2.1-2-4.9-2-7.9s-0.1-5.8,2-7.9
		c1.5-1.5,3.2-2.3,5.6-2.3s4.1,0.8,5.6,2.3c2.1,2.1,2,4.9,2,7.9S392.9,296.8,390.7,298.9z M387.1,286c-0.4-0.5-1.1-0.9-2-0.9
		s-1.6,0.4-2,0.9c-0.5,0.6-0.7,1.3-0.7,4.9c0,3.7,0.3,4.3,0.7,4.9c0.4,0.5,1.1,0.9,2,0.9s1.6-0.4,2-0.9c0.5-0.6,0.7-1.2,0.7-4.9
		C387.8,287.3,387.6,286.6,387.1,286z"/>
	<path class="st1" d="M401.1,285.3l3.3,5.4l-3.8,5.9h7.7v4.4h-13.6v-3.8l4.3-6.5l-3.9-5.9v-3.8h13.3v4.4H401.1z"/>
	<path class="st1" d="M424.8,301v-9.6l-2.8,5h-3.2l-2.8-5v9.6h-4.9v-20.1h4.8l4.5,8.8l4.5-8.8h4.8V301H424.8z"/>
	<path class="st1" d="M433.4,301v-20.1h4.9V301H433.4z"/>
	<path class="st1" d="M453.8,301l-0.9-3h-6.2l-1,3h-5.2l7.3-20.1h3.8l7.3,20.1H453.8z M449.8,288.5l-1.8,5.4h3.5L449.8,288.5z"/>
	<path class="st1" d="M316.6,332.7v-7.9h-5.2v7.9h-4.9v-20.1h4.9v7.7h5.2v-7.7h4.9v20.1H316.6z"/>
	<path class="st1" d="M339,332.7v-9.6l-2.8,5H333l-2.8-5v9.6h-4.9v-20.1h4.8l4.5,8.8l4.5-8.8h4.8v20.1H339z"/>
	<path class="st1" d="M347.7,332.7v-20.1h13.6v4.4h-8.7v3.4h7.4v4.4h-7.4v3.5h8.7v4.4H347.7z"/>
	<path class="st1" d="M372.5,325.5h-3v7.2h-4.9v-20.1h7.9c4.5,0,6.8,3.2,6.8,6.5S376.9,325.5,372.5,325.5z M372.2,317h-2.8v4.1h2.8
		c1.4,0,2.1-1,2.1-2C374.4,318,373.6,317,372.2,317z"/>
	<path class="st1" d="M391.9,332.7l-0.9-3h-6.2l-1,3h-5.2l7.3-20.1h3.8l7.3,20.1H391.9z M388,320.2l-1.8,5.4h3.5L388,320.2z"/>
	<path class="st1" d="M311.7,348.7l3.3,5.4l-3.8,5.9h7.7v4.4h-13.6v-3.8l4.3-6.5l-3.9-5.9v-3.8H319v4.4H311.7z"/>
	<path class="st1" d="M330.8,348.7v15.7h-4.9v-15.7h-4.9v-4.4h14.8v4.4H330.8z"/>
	<path class="st1" d="M348,364.4l-0.9-3h-6.2l-1,3h-5.2l7.3-20.1h3.8l7.3,20.1H348z M344.1,351.9l-1.8,5.4h3.5L344.1,351.9z"/>
	<path class="st1" d="M362.1,348.7v15.7h-4.9v-15.7h-4.9v-4.4H367v4.4H362.1z"/>
	<path class="st1" d="M369.6,364.4v-20.1h4.9v20.1H369.6z"/>
	<path class="st1" d="M383.5,348.7l3.3,5.4L383,360h7.7v4.4h-13.6v-3.8l4.3-6.5l-3.9-5.9v-3.8h13.3v4.4H383.5z"/>
	<path class="st1" d="M402.7,348.7v15.7h-4.9v-15.7h-4.9v-4.4h14.8v4.4H402.7z"/>
	<path class="st1" d="M410.2,364.4v-20.1h4.9v20.1H410.2z"/>
	<path class="st1" d="M429.9,364.4l-4.6-8.2l-1.7,1.9v6.3h-4.9v-20.1h4.9v7.1l5.8-7.1h6l-6.8,8.1l7.1,11.9H429.9z"/>
	<path class="st1" d="M448,364.4v-7.9h-5.2v7.9h-4.9v-20.1h4.9v7.7h5.2v-7.7h4.9v20.1H448z"/>
	<path class="st1" d="M461.9,348.7l3.3,5.4l-3.8,5.9h7.7v4.4h-13.6v-3.8l4.3-6.5l-3.9-5.9v-3.8h13.3v4.4H461.9z"/>
	<path class="st2" d="M310.4,382.7c0-0.8-0.6-1.4-1.4-1.4c-1.2-0.1-2.8,0.7-3.2,1.1l-0.7-2.7c1.1-0.8,2.8-1.3,4.1-1.3
		c4.1,0.2,5.4,3.8,3.1,7l-2.7,4.2h4.1v2.8h-9.1l5.2-8.2C310.5,383.3,310.4,382.7,310.4,382.7z"/>
	<path class="st2" d="M316,385.6c0-3.9,1.3-7.1,4.7-7.1c3.4,0,4.8,3.2,4.8,7.1c0,3.9-1.3,7.1-4.8,7.1
		C317.3,392.8,316,389.6,316,385.6z M322.8,385.6c0-2.5-0.5-4.5-2.1-4.5c-1.5,0-2.1,2-2.1,4.5c0,2.5,0.5,4.5,2.1,4.5
		C322.3,390.1,322.8,388.1,322.8,385.6z"/>
	<path class="st2" d="M329.1,392.7c-2.1,0-2.1-3.1,0-3.1C331.2,389.6,331.2,392.7,329.1,392.7z"/>
	<path class="st2" d="M332.2,378.7h5v13.8h-2.8v-11.1h-2.3V378.7z"/>
	<path class="st2" d="M340.3,385.6c0-3.9,1.3-7.1,4.7-7.1c3.4,0,4.8,3.2,4.8,7.1c0,3.9-1.3,7.1-4.8,7.1
		C341.7,392.8,340.3,389.6,340.3,385.6z M347.2,385.6c0-2.5-0.5-4.5-2.1-4.5c-1.5,0-2.1,2-2.1,4.5c0,2.5,0.5,4.5,2.1,4.5
		C346.6,390.1,347.2,388.1,347.2,385.6z"/>
	<path class="st2" d="M353.4,392.7c-2.1,0-2.1-3.1,0-3.1C355.6,389.6,355.5,392.7,353.4,392.7z"/>
	<path class="st2" d="M362.9,382.7c0-0.8-0.6-1.4-1.4-1.4c-1.2-0.1-2.8,0.7-3.2,1.1l-0.7-2.7c1.1-0.8,2.8-1.3,4.1-1.3
		c4.1,0.2,5.4,3.8,3.1,7l-2.7,4.2h4.1v2.8H357l5.2-8.2C362.9,383.3,362.9,382.7,362.9,382.7z"/>
	<path class="st2" d="M368.4,385.6c0-3.9,1.3-7.1,4.7-7.1c3.4,0,4.8,3.2,4.8,7.1c0,3.9-1.3,7.1-4.8,7.1
		C369.8,392.8,368.4,389.6,368.4,385.6z M375.3,385.6c0-2.5-0.5-4.5-2.1-4.5c-1.5,0-2.1,2-2.1,4.5c0,2.5,0.5,4.5,2.1,4.5
		C374.7,390.1,375.3,388.1,375.3,385.6z"/>
	<path class="st2" d="M379.7,378.7h5v13.8H382v-11.1h-2.3V378.7z"/>
	<path class="st2" d="M396.3,388.5c0,2.3-1.6,4-4.2,4.2c-0.7,0-2.6,0-4.4-0.6l0.3-2.8c4.3,1.5,5.5,0.3,5.5-0.9c0-1.6-1-2.1-5.3-2.4
		v-7.3h7.1v2.7H391v2.4C394.5,384.1,396.3,385.3,396.3,388.5z"/>
	<path class="st1" d="M312.7,421.9l-2.9-5.1l-1.1,1.2v3.9h-3v-12.5h3v4.4l3.6-4.4h3.8l-4.3,5.1l4.4,7.5H312.7z"/>
	<path class="st1" d="M325.9,421.9l-0.6-1.9h-3.9l-0.6,1.9h-3.2l4.6-12.5h2.4l4.6,12.5H325.9z M323.5,414.1l-1.1,3.3h2.2
		L323.5,414.1z"/>
	<path class="st1" d="M338.4,421.9l-2.3-7.7l-2.4,7.7h-3.2l4.4-12.5h2.4l4.4,12.5H338.4z"/>
	<path class="st1" d="M347.9,416.8v5.1h-3.1v-5.1l-3.8-7.4h3.4l2,4.5l2-4.5h3.4L347.9,416.8z"/>
	<path class="st1" d="M359.4,412.1v9.8h-3.1v-9.8h-3.1v-2.7h9.2v2.7H359.4z"/>
	<path class="st1" d="M364.7,421.9v-12.5h8.5v2.7h-5.4v2.1h4.6v2.7h-4.6v2.2h5.4v2.7H364.7z"/>
	<path class="st1" d="M380.8,417.4h-1.9v4.5h-3.1v-12.5h5c2.8,0,4.3,2,4.3,4S383.6,417.4,380.8,417.4z M380.7,412.1h-1.7v2.5h1.7
		c0.8,0,1.3-0.6,1.3-1.3C382,412.7,381.5,412.1,380.7,412.1z"/>
	<path class="st1" d="M393.6,421.9L393,420h-3.9l-0.6,1.9h-3.2l4.6-12.5h2.4l4.6,12.5H393.6z M391.2,414.1l-1.1,3.3h2.2L391.2,414.1
		z"/>
	<path class="st1" d="M406.3,412.1l2.1,3.3l-2.4,3.7h4.8v2.7h-8.5v-2.4l2.7-4l-2.4-3.7v-2.4h8.3v2.7H406.3z"/>
	<path class="st1" d="M418.9,412.1v9.8h-3.1v-9.8h-3.1v-2.7h9.2v2.7H418.9z"/>
	<path class="st1" d="M432.1,420.6c-0.9,0.9-2,1.4-3.5,1.4s-2.6-0.5-3.5-1.4c-1.3-1.3-1.3-3.1-1.3-5c0-1.9-0.1-3.6,1.3-5
		c0.9-0.9,2-1.4,3.5-1.4s2.6,0.5,3.5,1.4c1.3,1.3,1.3,3.1,1.3,5C433.4,417.5,433.5,419.2,432.1,420.6z M429.9,412.5
		c-0.2-0.3-0.7-0.5-1.2-0.5s-1,0.2-1.2,0.5c-0.3,0.4-0.5,0.8-0.5,3.1s0.2,2.7,0.5,3.1c0.2,0.3,0.7,0.6,1.2,0.6s1-0.3,1.2-0.6
		c0.3-0.4,0.5-0.8,0.5-3.1S430.2,412.9,429.9,412.5z"/>
	<path class="st1" d="M435.9,421.9v-12.5h3.1v12.5H435.9z"/>
	<path class="st1" d="M448.6,421.9l-2.1-3.9l-2.1,3.9H441l3.9-6.4l-3.7-6.1h3.5l1.8,3.5l1.8-3.5h3.5l-3.7,6.1l3.9,6.4H448.6z"/>
	<path class="st1" d="M454.1,421.9v-12.5h8.5v2.7h-5.4v2.1h4.6v2.7h-4.6v2.2h5.4v2.7H454.1z"/>
	<path class="st1" d="M465.2,421.9v-12.5h3.1v12.5H465.2z"/>
	<path class="st1" d="M478.5,421.9L478,420h-3.9l-0.6,1.9h-3.2l4.6-12.5h2.4l4.6,12.5H478.5z M476.1,414.1l-1.1,3.3h2.2L476.1,414.1
		z"/>
	<path class="st1" d="M312.7,443l-2.9-5.1l-1.1,1.2v3.9h-3v-12.5h3v4.4l3.6-4.4h3.8l-4.3,5.1l4.4,7.5H312.7z"/>
	<path class="st1" d="M325.9,443l-0.6-1.9h-3.9l-0.6,1.9h-3.2l4.6-12.5h2.4l4.6,12.5H325.9z M323.5,435.2l-1.1,3.3h2.2L323.5,435.2z
		"/>
	<path class="st1" d="M338.4,443l-2.3-7.7l-2.4,7.7h-3.2l4.4-12.5h2.4l4.4,12.5H338.4z"/>
	<path class="st1" d="M347.9,437.9v5.1h-3.1v-5.1l-3.8-7.4h3.4l2,4.5l2-4.5h3.4L347.9,437.9z"/>
	<path class="st1" d="M359.4,433.2v9.8h-3.1v-9.8h-3.1v-2.7h9.2v2.7H359.4z"/>
	<path class="st1" d="M364.7,443v-12.5h8.5v2.7h-5.4v2.1h4.6v2.7h-4.6v2.2h5.4v2.7H364.7z"/>
	<path class="st1" d="M380.8,438.5h-1.9v4.5h-3.1v-12.5h5c2.8,0,4.3,2,4.3,4S383.6,438.5,380.8,438.5z M380.7,433.2h-1.7v2.5h1.7
		c0.8,0,1.3-0.6,1.3-1.3C382,433.8,381.5,433.2,380.7,433.2z"/>
	<path class="st1" d="M393.7,443v-5h-3.3v5h-3.1v-12.5h3.1v4.8h3.3v-4.8h3.1V443H393.7z"/>
	<path class="st1" d="M403.6,443v-2.4l4.8-7.4h-4.6v-2.7h8.3v2.4l-4.8,7.4h4.8v2.7H403.6z"/>
	<path class="st1" d="M419.5,443v-2.4c0.2-0.1,0.4-0.3,0.6-0.4c0.3-0.4,0.5-1,0.5-3.3c0-2.3-0.2-2.9-0.5-3.2
		c-0.2-0.3-0.7-0.6-1.2-0.6s-1,0.3-1.2,0.6c-0.3,0.4-0.5,0.9-0.5,3.2c0,2.3,0.2,2.9,0.5,3.3c0.1,0.2,0.3,0.3,0.6,0.4v2.4h-4.1v-2.7
		h0.8c-0.2-0.3-0.4-0.6-0.4-0.8c-0.3-0.8-0.4-1.7-0.4-2.7c0-1.9-0.1-3.6,1.3-5c0.9-0.9,2-1.4,3.5-1.4s2.6,0.5,3.5,1.4
		c1.3,1.3,1.3,3.1,1.3,5c0,1-0.1,1.9-0.4,2.7c-0.1,0.3-0.2,0.6-0.4,0.8h0.8v2.7H419.5z"/>
	<path class="st1" d="M432.6,443v-5h-3.3v5h-3.1v-12.5h3.1v4.8h3.3v-4.8h3.1V443H432.6z"/>
</g>
<g>
	<path class="st3" d="M193.4,344.7c-7.6,0-15.3-1-22.7-3c-1.3-0.3-2.6-0.7-3.8-1.1c-20.5-6.6-37.7-20.5-48.4-39.2
		c-11.5-20-14.4-43.3-8.4-65.5c6-22.2,20.4-40.8,40.4-52.3c13.1-7.5,27.9-11.5,42.8-11.5c7.6,0,15.3,1,22.7,3
		c22.2,6,40.8,20.4,52.3,40.4c9.7,17,13.4,36.1,10.5,55.4l-0.1,0.6h-8.4l0.1-0.8c2.9-17.8-0.4-35.4-9.3-51.1
		c-10.4-18.1-27.1-31-47.2-36.5c-6.7-1.8-13.7-2.8-20.5-2.8c-13.5,0-26.8,3.6-38.7,10.4c-18.1,10.4-31,27.1-36.5,47.2
		c-5.5,20.1-2.8,41.1,7.6,59.2c10.4,18.1,27.1,31,47.2,36.5c7.6,2.1,15.6,2.9,23.6,2.6l0.4-0.1c6.3-0.3,12.7-1.4,19-3.3l0.2,0l0.2,0
		c4.9,0.9,10,1.4,15.2,1.4l2.8,0l-2.5,1.2c-4.1,2-8.3,3.7-12.6,5.1l-0.2,0.1c-0.2,0.1-0.3,0.2-0.5,0.2
		C210.3,343.4,201.9,344.7,193.4,344.7z"/>
</g>
<path class="st1" d="M223.6,255.5c-1-7.1-7.8-12.2-15.2-11.1c-7.4,1-12.4,7.7-11.4,14.9c1,7.2,7.7,12.2,15.1,11.1
	C219.4,269.3,224.6,262.7,223.6,255.5z M211.1,263.8c-3.6,0.5-6.8-1.9-7.3-5.5c-0.5-3.6,1.9-6.9,5.5-7.4c3.6-0.5,6.8,2.1,7.3,5.6
	C217.2,260.1,214.8,263.3,211.1,263.8z"/>
<path class="st1" d="M258.6,287.2c-1-7.1-7.8-12.2-15.2-11.1c-7.4,1-12.4,7.7-11.4,14.9c1,7.2,7.7,12.2,15.1,11.1
	C254.4,301,259.6,294.4,258.6,287.2z M246.1,295.5c-3.6,0.5-6.8-1.9-7.3-5.5c-0.5-3.6,1.9-6.9,5.5-7.4c3.6-0.5,6.8,2.1,7.3,5.6
	C252.2,291.8,249.8,295,246.1,295.5z"/>
<g>
	<path class="st1" d="M208.8,299.8h-10.7l47.3-51.8h10.7L208.8,299.8z"/>
</g>
<path class="st1" d="M236.1,321.9c-1.4,0.1-2.9,0.1-4.3,0.1c-20,0-32.3-7.4-39.1-13.6c-9.6-8.8-15.1-21-15.1-33.7v-0.7h-8.3v0.7
	c0,15,6.5,29.5,17.8,39.8c7.9,7.2,22.1,15.8,44.7,15.8c2.5,0,5.2-0.1,7.8-0.4L236.1,321.9z"/>
</svg>
