<?xml version="1.0" encoding="utf-8"?>
<!-- Generator: Adobe Illustrator 19.0.0, SVG Export Plug-In . SVG Version: 6.00 Build 0)  -->
<svg version="1.1" id="Layer_1" xmlns="http://www.w3.org/2000/svg" xmlns:xlink="http://www.w3.org/1999/xlink" x="0px" y="0px"
	 viewBox="0 0 612 612" style="enable-background:new 0 0 612 612;" xml:space="preserve">
<metadata><?xpacket begin="﻿" id="W5M0MpCehiHzreSzNTczkc9d"?>
<x:xmpmeta xmlns:x="adobe:ns:meta/" x:xmptk="Adobe XMP Core 5.6-c067 79.157747, 2015/03/30-23:40:42        ">
   <rdf:RDF xmlns:rdf="http://www.w3.org/1999/02/22-rdf-syntax-ns#">
      <rdf:Description rdf:about=""/>
   </rdf:RDF>
</x:xmpmeta>
                                                                                                    
                                                                                                    
                                                                                                    
                                                                                                    
                                                                                                    
                                                                                                    
                                                                                                    
                                                                                                    
                                                                                                    
                                                                                                    
                                                                                                    
                                                                                                    
                                                                                                    
                                                                                                    
                                                                                                    
                                                                                                    
                                                                                                    
                                                                                                    
                                                                                                    
                                                                                                    
                           
<?xpacket end="w"?></metadata>
<style type="text/css">
	.st0{fill:#0083BF;}
	.st1{fill:#74C1EC;}
	.st2{fill:#FFFFFF;}
	.st3{fill:#90CEF1;}
</style>
<rect y="0" class="st0" width="612" height="612"/>
<g>
	<path class="st1" d="M419,345.7c-7.5,0-15-1-22.3-3c-1.3-0.3-2.5-0.7-3.8-1.1c-20.2-6.5-37.1-20.2-47.7-38.7
		c-11.3-19.7-14.2-42.6-8.3-64.5c5.9-21.9,20.1-40.2,39.8-51.5c12.9-7.4,27.5-11.3,42.1-11.3c7.5,0,15.1,1,22.4,3
		c21.9,5.9,40.2,20.1,51.5,39.8c9.6,16.7,13.2,35.6,10.3,54.6l-0.1,0.6h-8.3l0.1-0.8c2.8-17.5-0.3-34.9-9.2-50.3
		c-10.2-17.8-26.7-30.6-46.5-36c-6.6-1.8-13.5-2.7-20.2-2.7c-13.3,0-26.4,3.5-38.1,10.2c-17.8,10.2-30.6,26.7-36,46.6
		c-5.4,19.8-2.7,40.5,7.5,58.3c10.2,17.8,26.7,30.6,46.5,36c7.5,2,15.4,2.9,23.2,2.6l0.4-0.1c6.2-0.3,12.5-1.4,18.7-3.2l0.2,0l0.2,0
		c4.8,0.9,9.8,1.4,15,1.4l2.8,0l-2.5,1.2c-4,2-8.2,3.7-12.5,5l-0.2,0.1c-0.2,0.1-0.3,0.2-0.5,0.2C435.7,344.5,427.4,345.7,419,345.7
		z"/>
</g>
<path class="st2" d="M448.8,257.8c-1-7-7.7-12-14.9-11c-7.3,1-12.3,7.6-11.3,14.6c1,7.1,7.6,12,14.9,11
	C444.7,271.5,449.8,264.9,448.8,257.8z M436.5,266c-3.6,0.5-6.7-1.9-7.2-5.4c-0.5-3.5,1.8-6.8,5.4-7.3c3.6-0.5,6.7,2,7.2,5.5
	C442.5,262.4,440.1,265.5,436.5,266z"/>
<path class="st2" d="M483.2,289.1c-1-7-7.7-12-14.9-11c-7.3,1-12.3,7.6-11.3,14.6c1,7.1,7.6,12,14.9,11
	C479.2,302.7,484.2,296.2,483.2,289.1z M471,297.3c-3.6,0.5-6.7-1.8-7.2-5.4c-0.5-3.5,1.8-6.8,5.4-7.3c3.6-0.5,6.7,2,7.2,5.5
	C476.9,293.7,474.6,296.8,471,297.3z"/>
<g>
	<path class="st2" d="M434.2,301.5h-10.5l46.7-51h10.5L434.2,301.5z"/>
</g>
<path class="st2" d="M461.1,323.3c-1.4,0.1-2.8,0.1-4.2,0.1c-19.7,0-31.8-7.3-38.5-13.4c-9.4-8.6-14.9-20.7-14.9-33.2v-0.6h-8.2v0.6
	c0,14.8,6.4,29,17.5,39.2c7.8,7.1,21.8,15.6,44,15.6c2.5,0,5.1-0.1,7.7-0.4L461.1,323.3z"/>
<g>
	<path class="st2" d="M287.5,328.1h3.8v-7.4h-3.8V328.1z M300.7,320.9c0-1.6-0.3-2.9-0.8-3.9c-0.5-0.9-1.3-1.7-2.5-2.3
		s-2.8-0.9-5-0.9c-2,0-3.7,0.1-5.1,0.4l0.3,3c1.5-0.2,2.9-0.3,4.2-0.3c1.7,0,3,0.3,3.9,1c0.9,0.7,1.3,1.9,1.3,3.6v6.7h3.7V320.9z
		 M275.9,313.9h-3.8l2.5,12.5c-1,0.3-2.3,0.5-3.7,0.7l0.5,3.1c2.3-0.4,4.3-0.8,6-1.4c1.7-0.6,3-1.2,3.8-1.8c0.8-0.6,1.4-1.3,1.8-2.1
		c0.4-0.8,0.7-1.6,0.8-2.4s0.2-2,0.2-3.5l0.2-5.1h-3.7l-0.2,6.7c0,1.3-0.2,2.3-0.5,3c-0.3,0.6-1,1.2-2,1.7L275.9,313.9z
		 M265.1,328.1h3.9v-14.2h-3.9V328.1z M254.3,313.9v-5.4h-3.7v8.6h7.5v1.8c0,0.9-0.2,1.7-0.7,2.4c-0.8,1.1-1.3,1.9-1.5,2.4
		c-0.2,0.5-0.3,1.1-0.3,1.9v2.5h3.7v-2.4c0-0.5,0.1-0.9,0.2-1.2c0.1-0.3,0.6-1.1,1.4-2.3c0.4-0.5,0.6-1.1,0.7-1.7
		c0.1-0.6,0.2-1.6,0.2-2.9v-3.6H254.3z M236.6,313.9h-3.4l2.4,7.1c-0.3,0.9-0.7,2.2-1.1,4l-0.7,3.1h4l0.8-4.8c0.4-2.4,0.9-4.1,1.5-5
		c0.5-0.9,1.2-1.3,2-1.3c0.8,0,1.3,0.4,1.6,1.1s0.5,2,0.5,3.9v2.8h-3.5v3.2h7.2v-5.9c0-3-0.5-5.1-1.5-6.4c-1-1.3-2.3-2-4-2
		c-2,0-3.7,1.1-5.1,3.2L236.6,313.9z M226.8,321.8h3.9v-7.9h-3.9V321.8z"/>
	<path class="st2" d="M297,292.7h3.9v-7.9H297V292.7z M289.6,299h3.9v-14.2h-3.9V299z M276.6,295.7v-7.8c0.5-0.1,1.2-0.1,1.9-0.1
		c1.5,0,2.5,0.3,3,1c0.5,0.6,0.8,1.6,0.8,2.8v4.2H276.6z M286.1,291.3c0-1.5-0.2-2.7-0.7-3.6c-0.5-0.9-1.2-1.6-2.3-2.2
		c-1.1-0.6-2.8-0.8-5-0.8c-1.8,0-3.5,0.1-5.2,0.4V299h13.2V291.3z M248.6,299h3.8v-7.4h-3.8V299z M261.8,291.7
		c0-1.6-0.3-2.9-0.8-3.9c-0.5-0.9-1.3-1.7-2.5-2.3s-2.8-0.9-5-0.9c-2,0-3.7,0.1-5.1,0.4l0.3,3c1.5-0.2,2.9-0.3,4.2-0.3
		c1.7,0,3,0.3,3.9,1c0.9,0.7,1.3,1.9,1.3,3.6v6.7h3.7V291.7z M235.7,288.8c0.6-0.8,1.4-1.3,2.6-1.3c1,0,1.9,0.4,2.5,1.2
		c0.6,0.8,0.9,1.8,0.9,3.1c0,1.3-0.3,2.4-0.9,3.2c-0.6,0.8-1.5,1.2-2.5,1.2c-1,0-1.9-0.4-2.5-1.2c-0.6-0.8-1-1.8-1-3.2
		C234.8,290.7,235.1,289.6,235.7,288.8 M233,297.3c1.4,1.3,3.1,2,5.3,2c2.2,0,3.9-0.7,5.3-2.2s2-3.2,2-5.3c0-2.2-0.7-3.9-2-5.3
		c-1.4-1.4-3.1-2-5.3-2c-2.2,0-3.9,0.7-5.3,2.1c-1.3,1.4-2,3.2-2,5.4C231,294.2,231.7,295.9,233,297.3 M223.1,287.7
		c0.4,0,0.8,0.2,1.1,0.6s0.5,1.4,0.5,2.9v1.4c0,1.1-0.3,2-0.8,2.6c-0.6,0.6-1.3,0.9-2.3,0.9c-0.9,0-1.7-0.3-2.4-1
		c-0.6-0.7-0.9-1.8-0.9-3.4v-7h-3.7v6.1c0,1.8,0.2,3.3,0.6,4.4c0.4,1.1,1.2,2,2.3,2.8s2.5,1.2,4.1,1.2c1.7,0,3.1-0.4,4.2-1.2
		c1.1-0.8,1.8-1.7,2.2-2.8c0.4-1.1,0.5-2.4,0.5-4.1c0-1.7-0.1-2.9-0.4-3.8c-0.3-0.9-0.8-1.6-1.4-2.1c-0.7-0.5-1.5-0.8-2.5-0.8
		c-1.7,0-3,0.8-3.9,2.5l1.1,2C221.8,288.1,222.4,287.7,223.1,287.7 M206,287.7c0.4,0,0.8,0.2,1.1,0.6s0.5,1.4,0.5,2.9v1.4
		c0,1.1-0.3,2-0.8,2.6c-0.6,0.6-1.3,0.9-2.3,0.9c-0.9,0-1.7-0.3-2.4-1c-0.6-0.7-0.9-1.8-0.9-3.4v-7h-3.7v6.1c0,1.8,0.2,3.3,0.6,4.4
		c0.4,1.1,1.2,2,2.3,2.8c1.1,0.8,2.5,1.2,4.1,1.2c1.7,0,3.1-0.4,4.2-1.2c1.1-0.8,1.8-1.7,2.2-2.8c0.4-1.1,0.5-2.4,0.5-4.1
		c0-1.7-0.1-2.9-0.4-3.8s-0.8-1.6-1.4-2.1c-0.7-0.5-1.5-0.8-2.5-0.8c-1.7,0-3,0.8-3.9,2.5l1.1,2C204.7,288.1,205.3,287.7,206,287.7
		 M190.1,292.7h3.9v-7.9h-3.9V292.7z M177.3,288.8c0.6-0.8,1.4-1.3,2.6-1.3c1,0,1.9,0.4,2.5,1.2c0.6,0.8,0.9,1.8,0.9,3.1
		c0,1.3-0.3,2.4-0.9,3.2c-0.6,0.8-1.5,1.2-2.5,1.2c-1,0-1.9-0.4-2.5-1.2c-0.6-0.8-1-1.8-1-3.2C176.4,290.7,176.7,289.6,177.3,288.8
		 M174.6,297.3c1.4,1.3,3.1,2,5.3,2s3.9-0.7,5.3-2.2c1.3-1.4,2-3.2,2-5.3c0-2.2-0.7-3.9-2-5.3c-1.4-1.4-3.1-2-5.3-2
		c-2.2,0-3.9,0.7-5.3,2.1c-1.3,1.4-2,3.2-2,5.4C172.6,294.2,173.2,295.9,174.6,297.3 M164.7,287.7c0.4,0,0.8,0.2,1.1,0.6
		c0.3,0.4,0.5,1.4,0.5,2.9v1.4c0,1.1-0.3,2-0.8,2.6c-0.6,0.6-1.3,0.9-2.3,0.9c-0.9,0-1.7-0.3-2.4-1c-0.6-0.7-0.9-1.8-0.9-3.4v-7
		h-3.7v6.1c0,1.8,0.2,3.3,0.6,4.4c0.4,1.1,1.2,2,2.3,2.8s2.5,1.2,4.1,1.2c1.7,0,3.1-0.4,4.2-1.2c1.1-0.8,1.8-1.7,2.2-2.8
		c0.4-1.1,0.5-2.4,0.5-4.1c0-1.7-0.1-2.9-0.4-3.8s-0.8-1.6-1.4-2.1s-1.5-0.8-2.5-0.8c-1.7,0-3,0.8-3.9,2.5l1.1,2
		C163.4,288.1,164,287.7,164.7,287.7 M148.7,292.7h3.9v-7.9h-3.9V292.7z M136.7,291.6H133v12.8h3.7V291.6z M141.8,288v1.8
		c0,0.9-0.2,1.7-0.7,2.4c-0.8,1.1-1.3,1.9-1.5,2.4c-0.2,0.5-0.3,1.1-0.3,1.9v2.5h3.8v-2.4c0-0.6,0.1-1,0.2-1.4
		c0.2-0.4,0.6-1.1,1.3-2.1c0.4-0.5,0.6-1.1,0.7-1.7c0.1-0.6,0.2-1.6,0.2-2.9v-3.6H133v3.2H141.8z M116.4,299h3.8v-7.4h-3.8V299z
		 M129.6,291.7c0-1.6-0.3-2.9-0.8-3.9c-0.5-0.9-1.3-1.7-2.5-2.3c-1.2-0.6-2.8-0.9-5-0.9c-2,0-3.7,0.1-5.1,0.4l0.3,3
		c1.5-0.2,2.9-0.3,4.2-0.3c1.7,0,3,0.3,3.9,1c0.9,0.7,1.3,1.9,1.3,3.6v6.7h3.7V291.7z"/>
</g>
<path class="st2" d="M294.1,388.7v-3.2H292v5.1h4.4v1c0,0.5-0.1,1-0.4,1.4c-0.5,0.6-0.8,1.1-0.9,1.4c-0.1,0.3-0.2,0.7-0.2,1.1v1.5
	h2.2v-1.4c0-0.3,0-0.5,0.1-0.7s0.3-0.6,0.8-1.4c0.2-0.3,0.4-0.7,0.4-1c0.1-0.4,0.1-0.9,0.1-1.7v-2.1H294.1z M290.4,392.5
	c0-0.9-0.1-1.6-0.4-2.1c-0.3-0.5-0.7-1-1.4-1.3c-0.6-0.3-1.6-0.5-2.9-0.5c-1,0-2.1,0.1-3.1,0.3v8.2h2.2v-6.5
	c0.3-0.1,0.7-0.1,1.1-0.1c0.9,0,1.4,0.2,1.8,0.6s0.5,0.9,0.5,1.7v4.4h2.2V392.5z M278.2,393.4h2.3v-4.7h-2.3V393.4z M273.8,393.4
	h2.3v-4.7h-2.3V393.4z M266.2,395.1v-4.6c0.3-0.1,0.7-0.1,1.1-0.1c0.9,0,1.4,0.2,1.8,0.6s0.5,0.9,0.5,1.7v2.5H266.2z M271.8,392.5
	c0-0.9-0.1-1.6-0.4-2.1c-0.3-0.5-0.7-1-1.4-1.3c-0.6-0.3-1.6-0.5-2.9-0.5c-1,0-2.1,0.1-3.1,0.3v8.2h7.8V392.5z M254.4,390.4
	c0.3,0,0.5,0.1,0.7,0.4c0.2,0.3,0.3,0.8,0.3,1.7v0.8c0,0.7-0.2,1.2-0.5,1.5c-0.3,0.4-0.8,0.5-1.4,0.5c-0.6,0-1-0.2-1.4-0.6
	s-0.5-1.1-0.5-2v-4.1h-2.2v3.6c0,1.1,0.1,1.9,0.4,2.6c0.3,0.6,0.7,1.2,1.4,1.6c0.7,0.5,1.5,0.7,2.4,0.7c1,0,1.8-0.2,2.4-0.7
	s1.1-1,1.3-1.6c0.2-0.6,0.3-1.4,0.3-2.4c0-1-0.1-1.7-0.2-2.2c-0.2-0.5-0.4-0.9-0.8-1.3c-0.4-0.3-0.9-0.5-1.5-0.5
	c-1,0-1.8,0.5-2.3,1.5l0.7,1.2C253.7,390.7,254,390.4,254.4,390.4 M245,397h2.3v-8.3H245V397z M242.1,392.5c0-1.4-0.4-2.4-1.1-3
	c-0.7-0.6-1.8-0.9-3.4-0.9c-0.8,0-1.6,0.1-2.4,0.3l0.2,1.7c0.7-0.1,1.3-0.2,1.9-0.2c1,0,1.6,0.2,2,0.6c0.4,0.4,0.6,1,0.6,1.9v2.2
	h-4.6v1.9h8.3v-1.9h-1.5V392.5z M231.4,393.4h2.3v-4.7h-2.3V393.4z M223.7,395.1v-4.6c0.3-0.1,0.7-0.1,1.1-0.1
	c0.9,0,1.4,0.2,1.8,0.6s0.5,0.9,0.5,1.7v2.5H223.7z M229.3,392.5c0-0.9-0.1-1.6-0.4-2.1c-0.3-0.5-0.7-1-1.4-1.3
	c-0.6-0.3-1.6-0.5-2.9-0.5c-1,0-2.1,0.1-3.1,0.3v8.2h7.8V392.5z M212.7,393.4h2.3v-4.7h-2.3V393.4z M208.3,397h2.3v-8.3h-2.3V397z
	 M196.6,396.8c0.6,0.2,1.3,0.3,1.9,0.3c0.6,0,1.1-0.1,1.4-0.3c0.3-0.2,0.6-0.5,0.7-0.8c0.1-0.3,0.2-0.8,0.2-1.5v-4.2
	c1.3,0,2.2,0.2,2.5,0.5c0.3,0.3,0.5,1,0.5,2.1v4.1h2.2v-4.5c0-1-0.2-1.8-0.5-2.4c-0.4-0.6-0.9-1-1.6-1.2c-0.7-0.2-1.7-0.3-2.9-0.3
	c-1.5,0-2.9,0.1-4.2,0.3l0.2,1.7c0.8-0.1,1.3-0.1,1.7-0.1v4c0,0.4-0.1,0.7-0.2,0.9c-0.1,0.2-0.3,0.2-0.6,0.2c-0.2,0-0.5-0.1-0.9-0.2
	L196.6,396.8z M195.3,392.5c0-1.4-0.4-2.4-1.1-3c-0.7-0.6-1.9-0.9-3.4-0.9c-1,0-1.9,0.1-2.6,0.3l0.2,1.7c0.8-0.1,1.5-0.1,1.9-0.1
	c1,0,1.7,0.2,2.1,0.6c0.4,0.4,0.7,1,0.7,1.9v4.1h2.2V392.5z"/>
<path class="st2" d="M291.1,369.4h-2l1.4,4.2c-0.2,0.5-0.4,1.3-0.6,2.4l-0.4,1.8h2.3l0.5-2.8c0.3-1.4,0.5-2.4,0.9-2.9
	c0.3-0.5,0.7-0.8,1.2-0.8c0.5,0,0.8,0.2,1,0.7c0.2,0.4,0.3,1.2,0.3,2.3v1.7h-2v1.9h4.2v-3.5c0-1.7-0.3-3-0.9-3.8
	c-0.6-0.8-1.4-1.2-2.3-1.2c-1.2,0-2.2,0.6-3,1.9L291.1,369.4z M285.3,374h2.3v-4.7h-2.3V374z M283.9,369.4h-8.1v1.9h4.6v6.4h2.2
	v-6.4h1.3V369.4z M269.7,369.4h-2.2l1.4,7.4c-0.6,0.2-1.3,0.3-2.2,0.4l0.3,1.8c1.4-0.2,2.5-0.5,3.5-0.8c1-0.3,1.7-0.7,2.2-1.1
	c0.5-0.4,0.9-0.8,1.1-1.3c0.2-0.5,0.4-0.9,0.5-1.4c0.1-0.5,0.1-1.2,0.1-2.1l0.1-3h-2.2l-0.1,3.9c0,0.8-0.1,1.4-0.3,1.8
	c-0.2,0.4-0.6,0.7-1.2,1L269.7,369.4z M258.2,371.1c0.3,0,0.5,0.1,0.7,0.4c0.2,0.3,0.3,0.8,0.3,1.7v0.8c0,0.7-0.2,1.2-0.5,1.5
	c-0.3,0.4-0.8,0.5-1.4,0.5c-0.6,0-1-0.2-1.4-0.6c-0.4-0.4-0.5-1.1-0.5-2v-4.1h-2.2v3.6c0,1.1,0.1,1.9,0.4,2.6
	c0.3,0.6,0.7,1.2,1.4,1.6c0.7,0.5,1.5,0.7,2.4,0.7c1,0,1.8-0.2,2.4-0.7c0.6-0.5,1.1-1,1.3-1.6c0.2-0.6,0.3-1.4,0.3-2.4
	c0-1-0.1-1.7-0.2-2.2c-0.2-0.5-0.4-0.9-0.8-1.3c-0.4-0.3-0.9-0.5-1.5-0.5c-1,0-1.8,0.5-2.3,1.5l0.7,1.2
	C257.4,371.4,257.8,371.1,258.2,371.1 M248.8,377.7h2.3v-8.3h-2.3V377.7z M245.9,373.2c0-1.4-0.4-2.4-1.1-3
	c-0.7-0.6-1.8-0.9-3.4-0.9c-0.8,0-1.6,0.1-2.4,0.3l0.2,1.7c0.7-0.1,1.3-0.2,1.9-0.2c1,0,1.6,0.2,2,0.6c0.4,0.4,0.6,1,0.6,1.9v2.2
	h-4.6v1.9h8.3v-1.9h-1.5V373.2z M230.7,374h2.3v-4.7h-2.3V374z M226.3,377.7h2.3v-8.3h-2.3V377.7z M214.6,377.5
	c0.6,0.2,1.3,0.3,1.9,0.3c0.6,0,1.1-0.1,1.4-0.3c0.3-0.2,0.6-0.5,0.7-0.8c0.1-0.3,0.2-0.8,0.2-1.5V371c1.3,0,2.2,0.2,2.5,0.5
	c0.3,0.3,0.5,1,0.5,2.1v4.1h2.2v-4.5c0-1-0.2-1.8-0.5-2.4c-0.4-0.6-0.9-1-1.6-1.2c-0.7-0.2-1.7-0.3-2.9-0.3c-1.5,0-2.9,0.1-4.2,0.3
	l0.2,1.7c0.8-0.1,1.3-0.1,1.7-0.1v4c0,0.4-0.1,0.7-0.2,0.9c-0.1,0.2-0.3,0.2-0.6,0.2c-0.2,0-0.5-0.1-0.9-0.2L214.6,377.5z
	 M213.3,373.2c0-1.4-0.4-2.4-1.1-3c-0.7-0.6-1.9-0.9-3.4-0.9c-1,0-1.9,0.1-2.6,0.3l0.2,1.7c0.8-0.1,1.5-0.1,1.9-0.1
	c1,0,1.7,0.2,2.1,0.6c0.4,0.4,0.7,1,0.7,1.9v4.1h2.2V373.2z"/>
<g>
	<path class="st3" d="M215.1,346.3c0-0.8-0.6-1.3-1.4-1.4c-1.2-0.1-2.7,0.7-3.1,1.1l-0.7-2.6c1-0.8,2.7-1.3,4-1.2
		c4,0.2,5.3,3.7,3.1,6.9l-2.7,4.2h4v2.8h-9l5.1-8.1C215.2,346.9,215.1,346.3,215.1,346.3z"/>
	<path class="st3" d="M220.6,349.2c0-3.9,1.3-7,4.7-7c3.4,0,4.7,3.1,4.7,7s-1.3,7-4.7,7C222,356.2,220.6,353.1,220.6,349.2z
		 M227.4,349.2c0-2.4-0.5-4.4-2.1-4.4c-1.5,0-2,2-2,4.4c0,2.5,0.5,4.4,2,4.4C226.9,353.6,227.4,351.6,227.4,349.2z"/>
	<path class="st3" d="M233.6,356.1c-2.1,0-2.1-3.1,0-3.1C235.7,353.1,235.6,356.1,233.6,356.1z"/>
	<path class="st3" d="M236.7,342.4h4.9V356H239v-10.9h-2.2V342.4z"/>
	<path class="st3" d="M244.7,349.2c0-3.9,1.3-7,4.7-7c3.4,0,4.7,3.1,4.7,7s-1.3,7-4.7,7C246,356.2,244.7,353.1,244.7,349.2z
		 M251.4,349.2c0-2.4-0.5-4.4-2.1-4.4c-1.5,0-2,2-2,4.4c0,2.5,0.5,4.4,2,4.4C250.9,353.6,251.4,351.6,251.4,349.2z"/>
	<path class="st3" d="M257.7,356.1c-2.1,0-2.1-3.1,0-3.1C259.7,353.1,259.7,356.1,257.7,356.1z"/>
	<path class="st3" d="M266.9,346.3c0-0.8-0.6-1.3-1.4-1.4c-1.2-0.1-2.7,0.7-3.1,1.1l-0.7-2.6c1-0.8,2.7-1.3,4-1.2
		c4,0.2,5.3,3.7,3.1,6.9l-2.7,4.2h4v2.8h-9l5.1-8.1C266.9,346.9,266.9,346.3,266.9,346.3z"/>
	<path class="st3" d="M272.4,349.2c0-3.9,1.3-7,4.7-7c3.4,0,4.7,3.1,4.7,7s-1.3,7-4.7,7C273.7,356.2,272.4,353.1,272.4,349.2z
		 M279.1,349.2c0-2.4-0.5-4.4-2.1-4.4c-1.5,0-2,2-2,4.4c0,2.5,0.5,4.4,2,4.4C278.6,353.6,279.1,351.6,279.1,349.2z"/>
	<path class="st3" d="M283.6,342.4h4.9V356h-2.7v-10.9h-2.2V342.4z"/>
	<path class="st3" d="M299.9,352c0,2.3-1.5,4-4.1,4.1c-0.7,0-2.6,0-4.3-0.6l0.2-2.7c4.2,1.4,5.5,0.3,5.4-0.9c0-1.6-1-2.1-5.2-2.4
		v-7.2h6.9v2.6h-4.2v2.4C298.1,347.7,299.9,348.9,299.9,352z"/>
</g>
</svg>
