<?xml version="1.0" encoding="utf-8"?>
<!-- Generator: Adobe Illustrator 19.0.0, SVG Export Plug-In . SVG Version: 6.00 Build 0)  -->
<svg version="1.1" id="Layer_1" xmlns="http://www.w3.org/2000/svg" xmlns:xlink="http://www.w3.org/1999/xlink" x="0px" y="0px"
	 viewBox="0 0 612 612" style="enable-background:new 0 0 612 612;" xml:space="preserve">
<metadata><?xpacket begin="﻿" id="W5M0MpCehiHzreSzNTczkc9d"?>
<x:xmpmeta xmlns:x="adobe:ns:meta/" x:xmptk="Adobe XMP Core 5.6-c067 79.157747, 2015/03/30-23:40:42        ">
   <rdf:RDF xmlns:rdf="http://www.w3.org/1999/02/22-rdf-syntax-ns#">
      <rdf:Description rdf:about=""/>
   </rdf:RDF>
</x:xmpmeta>
                                                                                                    
                                                                                                    
                                                                                                    
                                                                                                    
                                                                                                    
                                                                                                    
                                                                                                    
                                                                                                    
                                                                                                    
                                                                                                    
                                                                                                    
                                                                                                    
                                                                                                    
                                                                                                    
                                                                                                    
                                                                                                    
                                                                                                    
                                                                                                    
                                                                                                    
                                                                                                    
                           
<?xpacket end="w"?></metadata>
<style type="text/css">
	.st0{fill:#FFFFFF;}
	.st1{fill:#74C1EC;}
	.st2{fill:#0083BF;}
	.st3{fill:#59AFE1;}
</style>
<rect y="0" class="st0" width="612" height="612"/>
<g>
	<path class="st1" d="M184.8,345.7c-7.5,0-15-1-22.3-3c-1.3-0.3-2.5-0.7-3.8-1.1c-20.2-6.5-37.1-20.2-47.7-38.7
		c-11.3-19.7-14.2-42.6-8.3-64.5c5.9-21.9,20.1-40.2,39.8-51.5c12.9-7.4,27.5-11.3,42.1-11.3c7.5,0,15.1,1,22.4,3
		c21.9,5.9,40.2,20.1,51.5,39.8c9.6,16.7,13.2,35.6,10.3,54.6l-0.1,0.6h-8.3l0.1-0.8c2.8-17.5-0.3-34.9-9.2-50.3
		c-10.2-17.8-26.7-30.6-46.5-36c-6.6-1.8-13.5-2.7-20.2-2.7c-13.3,0-26.4,3.5-38.1,10.2c-17.8,10.2-30.6,26.7-36,46.6
		c-5.4,19.8-2.7,40.5,7.5,58.3c10.2,17.8,26.7,30.6,46.5,36c7.5,2,15.4,2.9,23.2,2.6l0.4-0.1c6.2-0.3,12.5-1.4,18.7-3.2l0.2,0l0.2,0
		c4.8,0.9,9.8,1.4,15,1.4l2.8,0l-2.5,1.2c-4,2-8.2,3.7-12.5,5l-0.2,0.1c-0.2,0.1-0.3,0.2-0.5,0.2
		C201.5,344.5,193.2,345.7,184.8,345.7z"/>
</g>
<path class="st2" d="M214.6,257.8c-1-7-7.7-12-14.9-11c-7.3,1-12.3,7.6-11.3,14.6c1,7.1,7.6,12,14.9,11
	C210.5,271.5,215.6,264.9,214.6,257.8z M202.3,266c-3.6,0.5-6.7-1.9-7.2-5.4c-0.5-3.5,1.8-6.8,5.4-7.3c3.6-0.5,6.7,2,7.2,5.5
	C208.3,262.4,205.9,265.5,202.3,266z"/>
<path class="st2" d="M249,289.1c-1-7-7.7-12-14.9-11c-7.3,1-12.3,7.6-11.3,14.6c1,7.1,7.6,12,14.9,11C245,302.7,250,296.2,249,289.1
	z M236.8,297.3c-3.6,0.5-6.7-1.8-7.2-5.4c-0.5-3.5,1.8-6.8,5.4-7.3c3.6-0.5,6.7,2,7.2,5.5C242.7,293.7,240.4,296.8,236.8,297.3z"/>
<g>
	<path class="st2" d="M200,301.5h-10.5l46.7-51h10.5L200,301.5z"/>
</g>
<path class="st2" d="M226.9,323.3c-1.4,0.1-2.8,0.1-4.2,0.1c-19.7,0-31.8-7.3-38.5-13.4c-9.4-8.6-14.9-20.7-14.9-33.2v-0.6h-8.2v0.6
	c0,14.8,6.4,29,17.5,39.2c7.8,7.1,21.8,15.6,44,15.6c2.5,0,5.1-0.1,7.7-0.4L226.9,323.3z"/>
<g>
	<path class="st2" d="M354.9,328.1h3.8v-7.4h-3.8V328.1z M368.1,320.9c0-1.6-0.3-2.9-0.8-3.9c-0.5-0.9-1.3-1.7-2.5-2.3
		c-1.2-0.6-2.8-0.9-5-0.9c-2,0-3.7,0.1-5.1,0.4l0.3,3c1.5-0.2,2.9-0.3,4.2-0.3c1.7,0,3,0.3,3.9,1c0.9,0.7,1.3,1.9,1.3,3.6v6.7h3.7
		V320.9z M343.4,313.9h-3.8l2.5,12.5c-1,0.3-2.3,0.5-3.7,0.7l0.5,3.1c2.3-0.4,4.3-0.8,6-1.4c1.7-0.6,3-1.2,3.8-1.8
		c0.8-0.6,1.4-1.3,1.8-2.1c0.4-0.8,0.7-1.6,0.8-2.4s0.2-2,0.2-3.5l0.2-5.1h-3.7l-0.2,6.7c0,1.3-0.2,2.3-0.5,3c-0.3,0.6-1,1.2-2,1.7
		L343.4,313.9z M332.5,328.1h3.9v-14.2h-3.9V328.1z M321.8,313.9v-5.4h-3.7v8.6h7.5v1.8c0,0.9-0.2,1.7-0.7,2.4
		c-0.8,1.1-1.3,1.9-1.5,2.4c-0.2,0.5-0.3,1.1-0.3,1.9v2.5h3.7v-2.4c0-0.5,0.1-0.9,0.2-1.2c0.1-0.3,0.6-1.1,1.4-2.3
		c0.4-0.5,0.6-1.1,0.7-1.7c0.1-0.6,0.2-1.6,0.2-2.9v-3.6H321.8z M304.1,313.9h-3.4l2.4,7.1c-0.3,0.9-0.7,2.2-1.1,4l-0.7,3.1h4
		l0.8-4.8c0.4-2.4,0.9-4.1,1.5-5c0.5-0.9,1.2-1.3,2-1.3c0.8,0,1.3,0.4,1.6,1.1c0.3,0.7,0.5,2,0.5,3.9v2.8h-3.5v3.2h7.2v-5.9
		c0-3-0.5-5.1-1.5-6.4c-1-1.3-2.3-2-4-2c-2,0-3.7,1.1-5.1,3.2L304.1,313.9z M294.3,321.8h3.9v-7.9h-3.9V321.8z"/>
	<path class="st2" d="M475,292.7h3.9v-7.9H475V292.7z M467.6,299h3.9v-14.2h-3.9V299z M454.6,295.7v-7.8c0.5-0.1,1.2-0.1,1.9-0.1
		c1.5,0,2.5,0.3,3,1c0.5,0.6,0.8,1.6,0.8,2.8v4.2H454.6z M464.1,291.3c0-1.5-0.2-2.7-0.7-3.6s-1.2-1.6-2.3-2.2
		c-1.1-0.6-2.8-0.8-5-0.8c-1.8,0-3.5,0.1-5.2,0.4V299h13.2V291.3z M426.6,299h3.8v-7.4h-3.8V299z M439.8,291.7
		c0-1.6-0.3-2.9-0.8-3.9c-0.5-0.9-1.3-1.7-2.5-2.3c-1.2-0.6-2.8-0.9-5-0.9c-2,0-3.7,0.1-5.1,0.4l0.3,3c1.5-0.2,2.9-0.3,4.2-0.3
		c1.7,0,3,0.3,3.9,1c0.9,0.7,1.3,1.9,1.3,3.6v6.7h3.7V291.7z M413.7,288.8c0.6-0.8,1.4-1.3,2.6-1.3c1,0,1.9,0.4,2.5,1.2
		c0.6,0.8,0.9,1.8,0.9,3.1c0,1.3-0.3,2.4-0.9,3.2c-0.6,0.8-1.5,1.2-2.5,1.2c-1,0-1.9-0.4-2.5-1.2c-0.6-0.8-1-1.8-1-3.2
		C412.9,290.7,413.1,289.6,413.7,288.8 M411,297.3c1.4,1.3,3.1,2,5.3,2s3.9-0.7,5.3-2.2c1.3-1.4,2-3.2,2-5.3c0-2.2-0.7-3.9-2-5.3
		c-1.4-1.4-3.1-2-5.3-2c-2.2,0-3.9,0.7-5.3,2.1c-1.3,1.4-2,3.2-2,5.4C409,294.2,409.7,295.9,411,297.3 M401.1,287.7
		c0.4,0,0.8,0.2,1.1,0.6c0.3,0.4,0.5,1.4,0.5,2.9v1.4c0,1.1-0.3,2-0.8,2.6c-0.6,0.6-1.3,0.9-2.3,0.9c-0.9,0-1.7-0.3-2.4-1
		c-0.6-0.7-0.9-1.8-0.9-3.4v-7h-3.7v6.1c0,1.8,0.2,3.3,0.6,4.4c0.4,1.1,1.2,2,2.3,2.8s2.5,1.2,4.1,1.2c1.7,0,3.1-0.4,4.2-1.2
		c1.1-0.8,1.8-1.7,2.2-2.8c0.4-1.1,0.5-2.4,0.5-4.1c0-1.7-0.1-2.9-0.4-3.8c-0.3-0.9-0.8-1.6-1.4-2.1c-0.7-0.5-1.5-0.8-2.5-0.8
		c-1.7,0-3,0.8-3.9,2.5l1.1,2C399.8,288.1,400.4,287.7,401.1,287.7 M384,287.7c0.4,0,0.8,0.2,1.1,0.6c0.3,0.4,0.5,1.4,0.5,2.9v1.4
		c0,1.1-0.3,2-0.8,2.6c-0.6,0.6-1.3,0.9-2.3,0.9c-0.9,0-1.7-0.3-2.4-1c-0.6-0.7-0.9-1.8-0.9-3.4v-7h-3.7v6.1c0,1.8,0.2,3.3,0.6,4.4
		c0.4,1.1,1.2,2,2.3,2.8s2.5,1.2,4.1,1.2c1.7,0,3.1-0.4,4.2-1.2c1.1-0.8,1.8-1.7,2.2-2.8c0.4-1.1,0.5-2.4,0.5-4.1
		c0-1.7-0.1-2.9-0.4-3.8s-0.8-1.6-1.4-2.1c-0.7-0.5-1.5-0.8-2.5-0.8c-1.7,0-3,0.8-3.9,2.5l1.1,2C382.7,288.1,383.3,287.7,384,287.7
		 M368.1,292.7h3.9v-7.9h-3.9V292.7z M355.3,288.8c0.6-0.8,1.4-1.3,2.6-1.3c1,0,1.9,0.4,2.5,1.2c0.6,0.8,0.9,1.8,0.9,3.1
		c0,1.3-0.3,2.4-0.9,3.2c-0.6,0.8-1.5,1.2-2.5,1.2c-1,0-1.9-0.4-2.5-1.2c-0.6-0.8-1-1.8-1-3.2C354.4,290.7,354.7,289.6,355.3,288.8
		 M352.6,297.3c1.4,1.3,3.1,2,5.3,2c2.2,0,3.9-0.7,5.3-2.2c1.3-1.4,2-3.2,2-5.3c0-2.2-0.7-3.9-2-5.3c-1.4-1.4-3.1-2-5.3-2
		c-2.2,0-3.9,0.7-5.3,2.1c-1.3,1.4-2,3.2-2,5.4C350.6,294.2,351.3,295.9,352.6,297.3 M342.7,287.7c0.4,0,0.8,0.2,1.1,0.6
		c0.3,0.4,0.5,1.4,0.5,2.9v1.4c0,1.1-0.3,2-0.8,2.6c-0.6,0.6-1.3,0.9-2.3,0.9c-0.9,0-1.7-0.3-2.4-1c-0.6-0.7-0.9-1.8-0.9-3.4v-7
		h-3.7v6.1c0,1.8,0.2,3.3,0.6,4.4c0.4,1.1,1.2,2,2.3,2.8s2.5,1.2,4.1,1.2c1.7,0,3.1-0.4,4.2-1.2c1.1-0.8,1.8-1.7,2.2-2.8
		c0.4-1.1,0.5-2.4,0.5-4.1c0-1.7-0.1-2.9-0.4-3.8c-0.3-0.9-0.8-1.6-1.4-2.1c-0.7-0.5-1.5-0.8-2.5-0.8c-1.7,0-3,0.8-3.9,2.5l1.1,2
		C341.4,288.1,342,287.7,342.7,287.7 M326.7,292.7h3.9v-7.9h-3.9V292.7z M314.7,291.6H311v12.8h3.7V291.6z M319.8,288v1.8
		c0,0.9-0.2,1.7-0.7,2.4c-0.8,1.1-1.3,1.9-1.5,2.4c-0.2,0.5-0.3,1.1-0.3,1.9v2.5h3.8v-2.4c0-0.6,0.1-1,0.2-1.4
		c0.2-0.4,0.6-1.1,1.3-2.1c0.4-0.5,0.6-1.1,0.7-1.7c0.1-0.6,0.2-1.6,0.2-2.9v-3.6H311v3.2H319.8z M294.4,299h3.8v-7.4h-3.8V299z
		 M307.6,291.7c0-1.6-0.3-2.9-0.8-3.9c-0.5-0.9-1.3-1.7-2.5-2.3s-2.8-0.9-5-0.9c-2,0-3.7,0.1-5.1,0.4l0.3,3c1.5-0.2,2.9-0.3,4.2-0.3
		c1.7,0,3,0.3,3.9,1c0.9,0.7,1.3,1.9,1.3,3.6v6.7h3.7V291.7z"/>
</g>
<path class="st2" d="M400.1,388.7v-3.2H398v5.1h4.4v1c0,0.5-0.1,1-0.4,1.4c-0.5,0.6-0.8,1.1-0.9,1.4c-0.1,0.3-0.2,0.7-0.2,1.1v1.5
	h2.2v-1.4c0-0.3,0-0.5,0.1-0.7c0.1-0.2,0.3-0.6,0.8-1.4c0.2-0.3,0.4-0.7,0.4-1c0.1-0.4,0.1-0.9,0.1-1.7v-2.1H400.1z M396.4,392.5
	c0-0.9-0.1-1.6-0.4-2.1c-0.3-0.5-0.7-1-1.4-1.3c-0.6-0.3-1.6-0.5-2.9-0.5c-1,0-2.1,0.1-3.1,0.3v8.2h2.2v-6.5
	c0.3-0.1,0.7-0.1,1.1-0.1c0.9,0,1.4,0.2,1.8,0.6s0.5,0.9,0.5,1.7v4.4h2.2V392.5z M384.2,393.4h2.3v-4.7h-2.3V393.4z M379.8,393.4
	h2.3v-4.7h-2.3V393.4z M372.2,395.1v-4.6c0.3-0.1,0.7-0.1,1.1-0.1c0.9,0,1.4,0.2,1.8,0.6s0.5,0.9,0.5,1.7v2.5H372.2z M377.8,392.5
	c0-0.9-0.1-1.6-0.4-2.1c-0.3-0.5-0.7-1-1.4-1.3c-0.6-0.3-1.6-0.5-2.9-0.5c-1,0-2.1,0.1-3.1,0.3v8.2h7.8V392.5z M360.4,390.4
	c0.3,0,0.5,0.1,0.7,0.4c0.2,0.3,0.3,0.8,0.3,1.7v0.8c0,0.7-0.2,1.2-0.5,1.5c-0.3,0.4-0.8,0.5-1.4,0.5c-0.6,0-1-0.2-1.4-0.6
	s-0.5-1.1-0.5-2v-4.1h-2.2v3.6c0,1.1,0.1,1.9,0.4,2.6c0.3,0.6,0.7,1.2,1.4,1.6c0.7,0.5,1.5,0.7,2.4,0.7c1,0,1.8-0.2,2.4-0.7
	c0.6-0.5,1.1-1,1.3-1.6c0.2-0.6,0.3-1.4,0.3-2.4c0-1-0.1-1.7-0.2-2.2c-0.2-0.5-0.4-0.9-0.8-1.3c-0.4-0.3-0.9-0.5-1.5-0.5
	c-1,0-1.8,0.5-2.3,1.5l0.7,1.2C359.7,390.7,360,390.4,360.4,390.4 M351,397h2.3v-8.3H351V397z M348.1,392.5c0-1.4-0.4-2.4-1.1-3
	c-0.7-0.6-1.8-0.9-3.4-0.9c-0.8,0-1.6,0.1-2.4,0.3l0.2,1.7c0.7-0.1,1.3-0.2,1.9-0.2c1,0,1.6,0.2,2,0.6c0.4,0.4,0.6,1,0.6,1.9v2.2
	h-4.6v1.9h8.3v-1.9h-1.5V392.5z M337.4,393.4h2.3v-4.7h-2.3V393.4z M329.7,395.1v-4.6c0.3-0.1,0.7-0.1,1.1-0.1
	c0.9,0,1.4,0.2,1.8,0.6s0.5,0.9,0.5,1.7v2.5H329.7z M335.3,392.5c0-0.9-0.1-1.6-0.4-2.1c-0.3-0.5-0.7-1-1.4-1.3
	c-0.6-0.3-1.6-0.5-2.9-0.5c-1,0-2.1,0.1-3.1,0.3v8.2h7.8V392.5z M318.7,393.4h2.3v-4.7h-2.3V393.4z M314.3,397h2.3v-8.3h-2.3V397z
	 M302.6,396.8c0.6,0.2,1.3,0.3,1.9,0.3c0.6,0,1.1-0.1,1.4-0.3c0.3-0.2,0.6-0.5,0.7-0.8s0.2-0.8,0.2-1.5v-4.2c1.3,0,2.2,0.2,2.5,0.5
	c0.3,0.3,0.5,1,0.5,2.1v4.1h2.2v-4.5c0-1-0.2-1.8-0.5-2.4c-0.4-0.6-0.9-1-1.6-1.2c-0.7-0.2-1.7-0.3-2.9-0.3c-1.5,0-2.9,0.1-4.2,0.3
	l0.2,1.7c0.8-0.1,1.3-0.1,1.7-0.1v4c0,0.4-0.1,0.7-0.2,0.9s-0.3,0.2-0.6,0.2c-0.2,0-0.5-0.1-0.9-0.2L302.6,396.8z M301.3,392.5
	c0-1.4-0.4-2.4-1.1-3c-0.7-0.6-1.9-0.9-3.4-0.9c-1,0-1.9,0.1-2.6,0.3l0.2,1.7c0.8-0.1,1.5-0.1,1.9-0.1c1,0,1.7,0.2,2.1,0.6
	c0.4,0.4,0.7,1,0.7,1.9v4.1h2.2V392.5z"/>
<path class="st2" d="M379.1,369.4h-2l1.4,4.2c-0.2,0.5-0.4,1.3-0.6,2.4l-0.4,1.8h2.3l0.5-2.8c0.3-1.4,0.5-2.4,0.9-2.9
	c0.3-0.5,0.7-0.8,1.2-0.8c0.5,0,0.8,0.2,1,0.7c0.2,0.4,0.3,1.2,0.3,2.3v1.7h-2v1.9h4.2v-3.5c0-1.7-0.3-3-0.9-3.8
	c-0.6-0.8-1.4-1.2-2.3-1.2c-1.2,0-2.2,0.6-3,1.9L379.1,369.4z M373.3,374h2.3v-4.7h-2.3V374z M371.9,369.4h-8.1v1.9h4.6v6.4h2.2
	v-6.4h1.3V369.4z M357.7,369.4h-2.2l1.4,7.4c-0.6,0.2-1.3,0.3-2.2,0.4l0.3,1.8c1.4-0.2,2.5-0.5,3.5-0.8c1-0.3,1.7-0.7,2.2-1.1
	c0.5-0.4,0.9-0.8,1.1-1.3c0.2-0.5,0.4-0.9,0.5-1.4c0.1-0.5,0.1-1.2,0.1-2.1l0.1-3h-2.2l-0.1,3.9c0,0.8-0.1,1.4-0.3,1.8
	c-0.2,0.4-0.6,0.7-1.2,1L357.7,369.4z M346.2,371.1c0.3,0,0.5,0.1,0.7,0.4c0.2,0.3,0.3,0.8,0.3,1.7v0.8c0,0.7-0.2,1.2-0.5,1.5
	c-0.3,0.4-0.8,0.5-1.4,0.5c-0.6,0-1-0.2-1.4-0.6c-0.4-0.4-0.5-1.1-0.5-2v-4.1h-2.2v3.6c0,1.1,0.1,1.9,0.4,2.6
	c0.3,0.6,0.7,1.2,1.4,1.6s1.5,0.7,2.4,0.7c1,0,1.8-0.2,2.4-0.7c0.6-0.5,1.1-1,1.3-1.6c0.2-0.6,0.3-1.4,0.3-2.4c0-1-0.1-1.7-0.2-2.2
	c-0.2-0.5-0.4-0.9-0.8-1.3c-0.4-0.3-0.9-0.5-1.5-0.5c-1,0-1.8,0.5-2.3,1.5l0.7,1.2C345.4,371.4,345.8,371.1,346.2,371.1
	 M336.8,377.7h2.3v-8.3h-2.3V377.7z M333.9,373.2c0-1.4-0.4-2.4-1.1-3c-0.7-0.6-1.8-0.9-3.4-0.9c-0.8,0-1.6,0.1-2.4,0.3l0.2,1.7
	c0.7-0.1,1.3-0.2,1.9-0.2c1,0,1.6,0.2,2,0.6c0.4,0.4,0.6,1,0.6,1.9v2.2h-4.6v1.9h8.3v-1.9h-1.5V373.2z M318.7,374h2.3v-4.7h-2.3V374
	z M314.3,377.7h2.3v-8.3h-2.3V377.7z M302.6,377.5c0.6,0.2,1.3,0.3,1.9,0.3c0.6,0,1.1-0.1,1.4-0.3c0.3-0.2,0.6-0.5,0.7-0.8
	s0.2-0.8,0.2-1.5V371c1.3,0,2.2,0.2,2.5,0.5c0.3,0.3,0.5,1,0.5,2.1v4.1h2.2v-4.5c0-1-0.2-1.8-0.5-2.4c-0.4-0.6-0.9-1-1.6-1.2
	c-0.7-0.2-1.7-0.3-2.9-0.3c-1.5,0-2.9,0.1-4.2,0.3l0.2,1.7c0.8-0.1,1.3-0.1,1.7-0.1v4c0,0.4-0.1,0.7-0.2,0.9s-0.3,0.2-0.6,0.2
	c-0.2,0-0.5-0.1-0.9-0.2L302.6,377.5z M301.3,373.2c0-1.4-0.4-2.4-1.1-3c-0.7-0.6-1.9-0.9-3.4-0.9c-1,0-1.9,0.1-2.6,0.3l0.2,1.7
	c0.8-0.1,1.5-0.1,1.9-0.1c1,0,1.7,0.2,2.1,0.6c0.4,0.4,0.7,1,0.7,1.9v4.1h2.2V373.2z"/>
<g>
	<g>
		<path class="st3" d="M300.1,346.3c0-0.8-0.6-1.3-1.4-1.4c-1.2-0.1-2.7,0.7-3.1,1.1l-0.7-2.6c1-0.8,2.7-1.3,4-1.2
			c4,0.2,5.3,3.7,3.1,6.9l-2.7,4.2h4v2.8h-9l5.1-8.1C300.2,346.9,300.1,346.3,300.1,346.3z"/>
		<path class="st3" d="M305.6,349.2c0-3.9,1.3-7,4.7-7c3.4,0,4.7,3.1,4.7,7s-1.3,7-4.7,7C306.9,356.2,305.6,353.1,305.6,349.2z
			 M312.4,349.2c0-2.4-0.5-4.4-2.1-4.4c-1.5,0-2,2-2,4.4c0,2.5,0.5,4.4,2,4.4C311.8,353.6,312.4,351.6,312.4,349.2z"/>
		<path class="st3" d="M318.6,356.1c-2.1,0-2.1-3.1,0-3.1C320.7,353.1,320.6,356.1,318.6,356.1z"/>
		<path class="st3" d="M321.7,342.4h4.9V356h-2.7v-10.9h-2.2V342.4z"/>
		<path class="st3" d="M329.7,349.2c0-3.9,1.3-7,4.7-7c3.4,0,4.7,3.1,4.7,7s-1.3,7-4.7,7C331,356.2,329.7,353.1,329.7,349.2z
			 M336.4,349.2c0-2.4-0.5-4.4-2.1-4.4c-1.5,0-2,2-2,4.4c0,2.5,0.5,4.4,2,4.4C335.9,353.6,336.4,351.6,336.4,349.2z"/>
		<path class="st3" d="M342.6,356.1c-2.1,0-2.1-3.1,0-3.1C344.7,353.1,344.7,356.1,342.6,356.1z"/>
		<path class="st3" d="M351.9,346.3c0-0.8-0.6-1.3-1.4-1.4c-1.2-0.1-2.7,0.7-3.1,1.1l-0.7-2.6c1-0.8,2.7-1.3,4-1.2
			c4,0.2,5.3,3.7,3.1,6.9l-2.7,4.2h4v2.8h-9l5.1-8.1C351.9,346.9,351.9,346.3,351.9,346.3z"/>
		<path class="st3" d="M357.4,349.2c0-3.9,1.3-7,4.7-7c3.4,0,4.7,3.1,4.7,7s-1.3,7-4.7,7C358.7,356.2,357.4,353.1,357.4,349.2z
			 M364.1,349.2c0-2.4-0.5-4.4-2.1-4.4c-1.5,0-2,2-2,4.4c0,2.5,0.5,4.4,2,4.4C363.6,353.6,364.1,351.6,364.1,349.2z"/>
		<path class="st3" d="M368.6,342.4h4.9V356h-2.7v-10.9h-2.2V342.4z"/>
		<path class="st3" d="M384.9,352c0,2.3-1.5,4-4.1,4.1c-0.7,0-2.6,0-4.3-0.6l0.2-2.7c4.2,1.4,5.5,0.3,5.4-0.9c0-1.6-1-2.1-5.2-2.4
			v-7.2h6.9v2.6h-4.2v2.4C383.1,347.7,384.9,348.9,384.9,352z"/>
	</g>
</g>
</svg>
