<?xml version="1.0" encoding="utf-8"?>
<!-- Generator: Adobe Illustrator 19.0.0, SVG Export Plug-In . SVG Version: 6.00 Build 0)  -->
<svg version="1.1" id="Layer_1" xmlns="http://www.w3.org/2000/svg" xmlns:xlink="http://www.w3.org/1999/xlink" x="0px" y="0px"
	 viewBox="0 0 612 612" style="enable-background:new 0 0 612 612;" xml:space="preserve">
<metadata><?xpacket begin="﻿" id="W5M0MpCehiHzreSzNTczkc9d"?>
<x:xmpmeta xmlns:x="adobe:ns:meta/" x:xmptk="Adobe XMP Core 5.6-c067 79.157747, 2015/03/30-23:40:42        ">
   <rdf:RDF xmlns:rdf="http://www.w3.org/1999/02/22-rdf-syntax-ns#">
      <rdf:Description rdf:about=""/>
   </rdf:RDF>
</x:xmpmeta>
                                                                                                    
                                                                                                    
                                                                                                    
                                                                                                    
                                                                                                    
                                                                                                    
                                                                                                    
                                                                                                    
                                                                                                    
                                                                                                    
                                                                                                    
                                                                                                    
                                                                                                    
                                                                                                    
                                                                                                    
                                                                                                    
                                                                                                    
                                                                                                    
                                                                                                    
                                                                                                    
                           
<?xpacket end="w"?></metadata>
<style type="text/css">
	.st0{fill:#FFFFFF;}
	.st1{fill:#74C1EC;}
	.st2{fill:#0083BF;}
	.st3{fill:#59AFE1;}
</style>
<rect y="0" class="st0" width="612" height="612"/>
<g>
	<path class="st1" d="M408.1,345.7c-7.5,0-15-1-22.3-3c-1.3-0.3-2.5-0.7-3.8-1.1c-20.2-6.5-37.1-20.2-47.7-38.7
		c-11.3-19.7-14.2-42.6-8.3-64.5c5.9-21.9,20.1-40.2,39.8-51.5c12.9-7.4,27.5-11.3,42.1-11.3c7.5,0,15.1,1,22.4,3
		c21.9,5.9,40.2,20.1,51.5,39.8c9.6,16.7,13.2,35.6,10.3,54.6l-0.1,0.6h-8.3l0.1-0.8c2.8-17.5-0.3-34.9-9.2-50.3
		c-10.2-17.8-26.7-30.6-46.5-36c-6.6-1.8-13.5-2.7-20.2-2.7c-13.3,0-26.4,3.5-38.1,10.2c-17.8,10.2-30.6,26.7-36,46.6
		c-5.4,19.8-2.7,40.5,7.5,58.3c10.2,17.8,26.7,30.6,46.5,36c7.5,2,15.4,2.9,23.2,2.6l0.4-0.1c6.2-0.3,12.5-1.4,18.7-3.2l0.2,0l0.2,0
		c4.8,0.9,9.8,1.4,15,1.4l2.8,0l-2.5,1.2c-4,2-8.2,3.7-12.5,5l-0.2,0.1c-0.2,0.1-0.3,0.2-0.5,0.2
		C424.8,344.5,416.5,345.7,408.1,345.7z"/>
</g>
<path class="st2" d="M437.8,257.8c-1-7-7.7-12-14.9-11c-7.3,1-12.3,7.6-11.3,14.6c1,7.1,7.6,12,14.9,11
	C433.8,271.5,438.8,264.9,437.8,257.8z M425.6,266c-3.6,0.5-6.7-1.9-7.2-5.4c-0.5-3.5,1.8-6.8,5.4-7.3c3.6-0.5,6.7,2,7.2,5.5
	C431.5,262.4,429.2,265.5,425.6,266z"/>
<path class="st2" d="M472.3,289.1c-1-7-7.7-12-14.9-11c-7.3,1-12.3,7.6-11.3,14.6c1,7.1,7.6,12,14.9,11
	C468.2,302.7,473.3,296.2,472.3,289.1z M460.1,297.3c-3.6,0.5-6.7-1.8-7.2-5.4c-0.5-3.5,1.8-6.8,5.4-7.3c3.6-0.5,6.7,2,7.2,5.5
	C466,293.7,463.7,296.8,460.1,297.3z"/>
<g>
	<path class="st2" d="M423.3,301.5h-10.5l46.7-51h10.5L423.3,301.5z"/>
</g>
<path class="st2" d="M450.2,323.3c-1.4,0.1-2.8,0.1-4.2,0.1c-19.7,0-31.8-7.3-38.5-13.4c-9.4-8.6-14.9-20.7-14.9-33.2v-0.6h-8.2v0.6
	c0,14.8,6.4,29,17.5,39.2c7.8,7.1,21.8,15.6,44,15.6c2.5,0,5.1-0.1,7.7-0.4L450.2,323.3z"/>
<g>
	<path class="st2" d="M283.1,328.1h3.8v-7.4h-3.8V328.1z M296.3,320.9c0-1.6-0.3-2.9-0.8-3.9c-0.5-0.9-1.3-1.7-2.5-2.3
		c-1.2-0.6-2.8-0.9-5-0.9c-2,0-3.7,0.1-5.1,0.4l0.3,3c1.5-0.2,2.9-0.3,4.2-0.3c1.7,0,3,0.3,3.9,1c0.9,0.7,1.3,1.9,1.3,3.6v6.7h3.7
		V320.9z M271.5,313.9h-3.8l2.5,12.5c-1,0.3-2.3,0.5-3.7,0.7l0.5,3.1c2.3-0.4,4.3-0.8,6-1.4c1.7-0.6,3-1.2,3.8-1.8
		c0.8-0.6,1.4-1.3,1.8-2.1c0.4-0.8,0.7-1.6,0.8-2.4s0.2-2,0.2-3.5l0.2-5.1h-3.7l-0.2,6.7c0,1.3-0.2,2.3-0.5,3c-0.3,0.6-1,1.2-2,1.7
		L271.5,313.9z M260.7,328.1h3.9v-14.2h-3.9V328.1z M249.9,313.9v-5.4h-3.7v8.6h7.5v1.8c0,0.9-0.2,1.7-0.7,2.4
		c-0.8,1.1-1.3,1.9-1.5,2.4c-0.2,0.5-0.3,1.1-0.3,1.9v2.5h3.7v-2.4c0-0.5,0.1-0.9,0.2-1.2s0.6-1.1,1.4-2.3c0.4-0.5,0.6-1.1,0.7-1.7
		s0.2-1.6,0.2-2.9v-3.6H249.9z M232.2,313.9h-3.4l2.4,7.1c-0.3,0.9-0.7,2.2-1.1,4l-0.7,3.1h4l0.8-4.8c0.4-2.4,0.9-4.1,1.5-5
		c0.5-0.9,1.2-1.3,2-1.3c0.8,0,1.3,0.4,1.6,1.1s0.5,2,0.5,3.9v2.8h-3.5v3.2h7.2v-5.9c0-3-0.5-5.1-1.5-6.4c-1-1.3-2.3-2-4-2
		c-2,0-3.7,1.1-5.1,3.2L232.2,313.9z M222.5,321.8h3.9v-7.9h-3.9V321.8z"/>
	<path class="st2" d="M292.7,292.7h3.9v-7.9h-3.9V292.7z M285.2,299h3.9v-14.2h-3.9V299z M272.2,295.7v-7.8c0.5-0.1,1.2-0.1,1.9-0.1
		c1.5,0,2.5,0.3,3,1c0.5,0.6,0.8,1.6,0.8,2.8v4.2H272.2z M281.7,291.3c0-1.5-0.2-2.7-0.7-3.6s-1.2-1.6-2.3-2.2
		c-1.1-0.6-2.8-0.8-5-0.8c-1.8,0-3.5,0.1-5.2,0.4V299h13.2V291.3z M244.2,299h3.8v-7.4h-3.8V299z M257.4,291.7
		c0-1.6-0.3-2.9-0.8-3.9c-0.5-0.9-1.3-1.7-2.5-2.3c-1.2-0.6-2.8-0.9-5-0.9c-2,0-3.7,0.1-5.1,0.4l0.3,3c1.5-0.2,2.9-0.3,4.2-0.3
		c1.7,0,3,0.3,3.9,1c0.9,0.7,1.3,1.9,1.3,3.6v6.7h3.7V291.7z M231.4,288.8c0.6-0.8,1.4-1.3,2.6-1.3c1,0,1.9,0.4,2.5,1.2
		c0.6,0.8,0.9,1.8,0.9,3.1c0,1.3-0.3,2.4-0.9,3.2c-0.6,0.8-1.5,1.2-2.5,1.2c-1,0-1.9-0.4-2.5-1.2c-0.6-0.8-1-1.8-1-3.2
		C230.5,290.7,230.8,289.6,231.4,288.8 M228.7,297.3c1.4,1.3,3.1,2,5.3,2c2.2,0,3.9-0.7,5.3-2.2c1.3-1.4,2-3.2,2-5.3
		c0-2.2-0.7-3.9-2-5.3c-1.4-1.4-3.1-2-5.3-2s-3.9,0.7-5.3,2.1c-1.3,1.4-2,3.2-2,5.4C226.6,294.2,227.3,295.9,228.7,297.3
		 M218.8,287.7c0.4,0,0.8,0.2,1.1,0.6s0.5,1.4,0.5,2.9v1.4c0,1.1-0.3,2-0.8,2.6c-0.6,0.6-1.3,0.9-2.3,0.9c-0.9,0-1.7-0.3-2.4-1
		c-0.6-0.7-0.9-1.8-0.9-3.4v-7h-3.7v6.1c0,1.8,0.2,3.3,0.6,4.4c0.4,1.1,1.2,2,2.3,2.8s2.5,1.2,4.1,1.2c1.7,0,3.1-0.4,4.2-1.2
		c1.1-0.8,1.8-1.7,2.2-2.8c0.4-1.1,0.5-2.4,0.5-4.1c0-1.7-0.1-2.9-0.4-3.8c-0.3-0.9-0.8-1.6-1.4-2.1c-0.7-0.5-1.5-0.8-2.5-0.8
		c-1.7,0-3,0.8-3.9,2.5l1.1,2C217.5,288.1,218.1,287.7,218.8,287.7 M201.6,287.7c0.4,0,0.8,0.2,1.1,0.6s0.5,1.4,0.5,2.9v1.4
		c0,1.1-0.3,2-0.8,2.6c-0.6,0.6-1.3,0.9-2.3,0.9c-0.9,0-1.7-0.3-2.4-1c-0.6-0.7-0.9-1.8-0.9-3.4v-7H193v6.1c0,1.8,0.2,3.3,0.6,4.4
		c0.4,1.1,1.2,2,2.3,2.8s2.5,1.2,4.1,1.2c1.7,0,3.1-0.4,4.2-1.2c1.1-0.8,1.8-1.7,2.2-2.8c0.4-1.1,0.5-2.4,0.5-4.1
		c0-1.7-0.1-2.9-0.4-3.8c-0.3-0.9-0.8-1.6-1.4-2.1c-0.7-0.5-1.5-0.8-2.5-0.8c-1.7,0-3,0.8-3.9,2.5l1.1,2
		C200.3,288.1,201,287.7,201.6,287.7 M185.7,292.7h3.9v-7.9h-3.9V292.7z M172.9,288.8c0.6-0.8,1.4-1.3,2.6-1.3c1,0,1.9,0.4,2.5,1.2
		c0.6,0.8,0.9,1.8,0.9,3.1c0,1.3-0.3,2.4-0.9,3.2c-0.6,0.8-1.5,1.2-2.5,1.2c-1,0-1.9-0.4-2.5-1.2c-0.6-0.8-1-1.8-1-3.2
		C172.1,290.7,172.3,289.6,172.9,288.8 M170.2,297.3c1.4,1.3,3.1,2,5.3,2c2.2,0,3.9-0.7,5.3-2.2s2-3.2,2-5.3c0-2.2-0.7-3.9-2-5.3
		c-1.4-1.4-3.1-2-5.3-2c-2.2,0-3.9,0.7-5.3,2.1c-1.3,1.4-2,3.2-2,5.4C168.2,294.2,168.9,295.9,170.2,297.3 M160.3,287.7
		c0.4,0,0.8,0.2,1.1,0.6c0.3,0.4,0.5,1.4,0.5,2.9v1.4c0,1.1-0.3,2-0.8,2.6c-0.6,0.6-1.3,0.9-2.3,0.9c-0.9,0-1.7-0.3-2.4-1
		c-0.6-0.7-0.9-1.8-0.9-3.4v-7h-3.7v6.1c0,1.8,0.2,3.3,0.6,4.4c0.4,1.1,1.2,2,2.3,2.8s2.5,1.2,4.1,1.2c1.7,0,3.1-0.4,4.2-1.2
		c1.1-0.8,1.8-1.7,2.2-2.8c0.4-1.1,0.5-2.4,0.5-4.1c0-1.7-0.1-2.9-0.4-3.8s-0.8-1.6-1.4-2.1c-0.7-0.5-1.5-0.8-2.5-0.8
		c-1.7,0-3,0.8-3.9,2.5l1.1,2C159,288.1,159.6,287.7,160.3,287.7 M144.4,292.7h3.9v-7.9h-3.9V292.7z M132.4,291.6h-3.7v12.8h3.7
		V291.6z M137.4,288v1.8c0,0.9-0.2,1.7-0.7,2.4c-0.8,1.1-1.3,1.9-1.5,2.4c-0.2,0.5-0.3,1.1-0.3,1.9v2.5h3.8v-2.4
		c0-0.6,0.1-1,0.2-1.4c0.2-0.4,0.6-1.1,1.3-2.1c0.4-0.5,0.6-1.1,0.7-1.7c0.1-0.6,0.2-1.6,0.2-2.9v-3.6h-12.5v3.2H137.4z M112,299
		h3.8v-7.4H112V299z M125.2,291.7c0-1.6-0.3-2.9-0.8-3.9c-0.5-0.9-1.3-1.7-2.5-2.3c-1.2-0.6-2.8-0.9-5-0.9c-2,0-3.7,0.1-5.1,0.4
		l0.3,3c1.5-0.2,2.9-0.3,4.2-0.3c1.7,0,3,0.3,3.9,1c0.9,0.7,1.3,1.9,1.3,3.6v6.7h3.7V291.7z"/>
</g>
<path class="st2" d="M289.8,388.7v-3.2h-2.2v5.1h4.4v1c0,0.5-0.1,1-0.4,1.4c-0.5,0.6-0.8,1.1-0.9,1.4c-0.1,0.3-0.2,0.7-0.2,1.1v1.5
	h2.2v-1.4c0-0.3,0-0.5,0.1-0.7c0.1-0.2,0.3-0.6,0.8-1.4c0.2-0.3,0.4-0.7,0.4-1c0.1-0.4,0.1-0.9,0.1-1.7v-2.1H289.8z M286,392.5
	c0-0.9-0.1-1.6-0.4-2.1c-0.3-0.5-0.7-1-1.4-1.3c-0.6-0.3-1.6-0.5-2.9-0.5c-1,0-2.1,0.1-3.1,0.3v8.2h2.2v-6.5
	c0.3-0.1,0.7-0.1,1.1-0.1c0.9,0,1.4,0.2,1.8,0.6c0.3,0.4,0.5,0.9,0.5,1.7v4.4h2.2V392.5z M273.8,393.4h2.3v-4.7h-2.3V393.4z
	 M269.4,393.4h2.3v-4.7h-2.3V393.4z M261.8,395.1v-4.6c0.3-0.1,0.7-0.1,1.1-0.1c0.9,0,1.4,0.2,1.8,0.6s0.5,0.9,0.5,1.7v2.5H261.8z
	 M267.4,392.5c0-0.9-0.1-1.6-0.4-2.1c-0.3-0.5-0.7-1-1.4-1.3c-0.6-0.3-1.6-0.5-2.9-0.5c-1,0-2.1,0.1-3.1,0.3v8.2h7.8V392.5z
	 M250,390.4c0.3,0,0.5,0.1,0.7,0.4c0.2,0.3,0.3,0.8,0.3,1.7v0.8c0,0.7-0.2,1.2-0.5,1.5c-0.3,0.4-0.8,0.5-1.4,0.5
	c-0.6,0-1-0.2-1.4-0.6c-0.4-0.4-0.5-1.1-0.5-2v-4.1H245v3.6c0,1.1,0.1,1.9,0.4,2.6c0.3,0.6,0.7,1.2,1.4,1.6c0.7,0.5,1.5,0.7,2.4,0.7
	c1,0,1.8-0.2,2.4-0.7s1.1-1,1.3-1.6c0.2-0.6,0.3-1.4,0.3-2.4c0-1-0.1-1.7-0.2-2.2c-0.2-0.5-0.4-0.9-0.8-1.3
	c-0.4-0.3-0.9-0.5-1.5-0.5c-1,0-1.8,0.5-2.3,1.5l0.7,1.2C249.3,390.7,249.6,390.4,250,390.4 M240.6,397h2.3v-8.3h-2.3V397z
	 M237.7,392.5c0-1.4-0.4-2.4-1.1-3c-0.7-0.6-1.8-0.9-3.4-0.9c-0.8,0-1.6,0.1-2.4,0.3l0.2,1.7c0.7-0.1,1.3-0.2,1.9-0.2
	c1,0,1.6,0.2,2,0.6c0.4,0.4,0.6,1,0.6,1.9v2.2h-4.6v1.9h8.3v-1.9h-1.5V392.5z M227,393.4h2.3v-4.7H227V393.4z M219.4,395.1v-4.6
	c0.3-0.1,0.7-0.1,1.1-0.1c0.9,0,1.4,0.2,1.8,0.6c0.3,0.4,0.5,0.9,0.5,1.7v2.5H219.4z M224.9,392.5c0-0.9-0.1-1.6-0.4-2.1
	c-0.3-0.5-0.7-1-1.4-1.3c-0.6-0.3-1.6-0.5-2.9-0.5c-1,0-2.1,0.1-3.1,0.3v8.2h7.8V392.5z M208.3,393.4h2.3v-4.7h-2.3V393.4z
	 M203.9,397h2.3v-8.3h-2.3V397z M192.3,396.8c0.6,0.2,1.3,0.3,1.9,0.3c0.6,0,1.1-0.1,1.4-0.3c0.3-0.2,0.6-0.5,0.7-0.8
	s0.2-0.8,0.2-1.5v-4.2c1.3,0,2.2,0.2,2.5,0.5c0.3,0.3,0.5,1,0.5,2.1v4.1h2.2v-4.5c0-1-0.2-1.8-0.5-2.4c-0.4-0.6-0.9-1-1.6-1.2
	c-0.7-0.2-1.7-0.3-2.9-0.3c-1.5,0-2.9,0.1-4.2,0.3l0.2,1.7c0.8-0.1,1.3-0.1,1.7-0.1v4c0,0.4-0.1,0.7-0.2,0.9s-0.3,0.2-0.6,0.2
	c-0.2,0-0.5-0.1-0.9-0.2L192.3,396.8z M190.9,392.5c0-1.4-0.4-2.4-1.1-3c-0.7-0.6-1.9-0.9-3.4-0.9c-1,0-1.9,0.1-2.6,0.3l0.2,1.7
	c0.8-0.1,1.5-0.1,1.9-0.1c1,0,1.7,0.2,2.1,0.6c0.4,0.4,0.7,1,0.7,1.9v4.1h2.2V392.5z"/>
<path class="st2" d="M286.7,369.4h-2l1.4,4.2c-0.2,0.5-0.4,1.3-0.6,2.4l-0.4,1.8h2.3l0.5-2.8c0.3-1.4,0.5-2.4,0.9-2.9
	c0.3-0.5,0.7-0.8,1.2-0.8c0.5,0,0.8,0.2,1,0.7c0.2,0.4,0.3,1.2,0.3,2.3v1.7h-2v1.9h4.2v-3.5c0-1.7-0.3-3-0.9-3.8
	c-0.6-0.8-1.4-1.2-2.3-1.2c-1.2,0-2.2,0.6-3,1.9L286.7,369.4z M281,374h2.3v-4.7H281V374z M279.5,369.4h-8.1v1.9h4.6v6.4h2.2v-6.4
	h1.3V369.4z M265.3,369.4h-2.2l1.4,7.4c-0.6,0.2-1.3,0.3-2.2,0.4l0.3,1.8c1.4-0.2,2.5-0.5,3.5-0.8c1-0.3,1.7-0.7,2.2-1.1
	c0.5-0.4,0.9-0.8,1.1-1.3c0.2-0.5,0.4-0.9,0.5-1.4c0.1-0.5,0.1-1.2,0.1-2.1l0.1-3H268l-0.1,3.9c0,0.8-0.1,1.4-0.3,1.8
	c-0.2,0.4-0.6,0.7-1.2,1L265.3,369.4z M253.8,371.1c0.3,0,0.5,0.1,0.7,0.4c0.2,0.3,0.3,0.8,0.3,1.7v0.8c0,0.7-0.2,1.2-0.5,1.5
	c-0.3,0.4-0.8,0.5-1.4,0.5c-0.6,0-1-0.2-1.4-0.6c-0.4-0.4-0.5-1.1-0.5-2v-4.1h-2.2v3.6c0,1.1,0.1,1.9,0.4,2.6
	c0.3,0.6,0.7,1.2,1.4,1.6s1.5,0.7,2.4,0.7c1,0,1.8-0.2,2.4-0.7c0.6-0.5,1.1-1,1.3-1.6c0.2-0.6,0.3-1.4,0.3-2.4c0-1-0.1-1.7-0.2-2.2
	c-0.2-0.5-0.4-0.9-0.8-1.3c-0.4-0.3-0.9-0.5-1.5-0.5c-1,0-1.8,0.5-2.3,1.5l0.7,1.2C253.1,371.4,253.4,371.1,253.8,371.1
	 M244.4,377.7h2.3v-8.3h-2.3V377.7z M241.5,373.2c0-1.4-0.4-2.4-1.1-3c-0.7-0.6-1.8-0.9-3.4-0.9c-0.8,0-1.6,0.1-2.4,0.3l0.2,1.7
	c0.7-0.1,1.3-0.2,1.9-0.2c1,0,1.6,0.2,2,0.6c0.4,0.4,0.6,1,0.6,1.9v2.2h-4.6v1.9h8.3v-1.9h-1.5V373.2z M226.3,374h2.3v-4.7h-2.3V374
	z M221.9,377.7h2.3v-8.3h-2.3V377.7z M210.3,377.5c0.6,0.2,1.3,0.3,1.9,0.3c0.6,0,1.1-0.1,1.4-0.3c0.3-0.2,0.6-0.5,0.7-0.8
	c0.1-0.3,0.2-0.8,0.2-1.5V371c1.3,0,2.2,0.2,2.5,0.5c0.3,0.3,0.5,1,0.5,2.1v4.1h2.2v-4.5c0-1-0.2-1.8-0.5-2.4
	c-0.4-0.6-0.9-1-1.6-1.2c-0.7-0.2-1.7-0.3-2.9-0.3c-1.5,0-2.9,0.1-4.2,0.3l0.2,1.7c0.8-0.1,1.3-0.1,1.7-0.1v4c0,0.4-0.1,0.7-0.2,0.9
	s-0.3,0.2-0.6,0.2c-0.2,0-0.5-0.1-0.9-0.2L210.3,377.5z M208.9,373.2c0-1.4-0.4-2.4-1.1-3c-0.7-0.6-1.9-0.9-3.4-0.9
	c-1,0-1.9,0.1-2.6,0.3l0.2,1.7c0.8-0.1,1.5-0.1,1.9-0.1c1,0,1.7,0.2,2.1,0.6c0.4,0.4,0.7,1,0.7,1.9v4.1h2.2V373.2z"/>
<g>
	<path class="st3" d="M210.8,346.3c0-0.8-0.6-1.3-1.4-1.4c-1.2-0.1-2.7,0.7-3.1,1.1l-0.7-2.6c1-0.8,2.7-1.3,4-1.2
		c4,0.2,5.3,3.7,3.1,6.9l-2.7,4.2h4v2.8h-9l5.1-8.1C210.8,346.9,210.8,346.3,210.8,346.3z"/>
	<path class="st3" d="M216.3,349.2c0-3.9,1.3-7,4.7-7c3.4,0,4.7,3.1,4.7,7s-1.3,7-4.7,7C217.6,356.2,216.3,353.1,216.3,349.2z
		 M223,349.2c0-2.4-0.5-4.4-2.1-4.4c-1.5,0-2,2-2,4.4c0,2.5,0.5,4.4,2,4.4C222.5,353.6,223,351.6,223,349.2z"/>
	<path class="st3" d="M229.2,356.1c-2.1,0-2.1-3.1,0-3.1C231.3,353.1,231.3,356.1,229.2,356.1z"/>
	<path class="st3" d="M232.3,342.4h4.9V356h-2.7v-10.9h-2.2V342.4z"/>
	<path class="st3" d="M240.3,349.2c0-3.9,1.3-7,4.7-7c3.4,0,4.7,3.1,4.7,7s-1.3,7-4.7,7C241.7,356.2,240.3,353.1,240.3,349.2z
		 M247.1,349.2c0-2.4-0.5-4.4-2.1-4.4c-1.5,0-2,2-2,4.4c0,2.5,0.5,4.4,2,4.4C246.6,353.6,247.1,351.6,247.1,349.2z"/>
	<path class="st3" d="M253.3,356.1c-2.1,0-2.1-3.1,0-3.1C255.4,353.1,255.3,356.1,253.3,356.1z"/>
	<path class="st3" d="M262.5,346.3c0-0.8-0.6-1.3-1.4-1.4c-1.2-0.1-2.7,0.7-3.1,1.1l-0.7-2.6c1-0.8,2.7-1.3,4-1.2
		c4,0.2,5.3,3.7,3.1,6.9l-2.7,4.2h4v2.8h-9l5.1-8.1C262.6,346.9,262.5,346.3,262.5,346.3z"/>
	<path class="st3" d="M268,349.2c0-3.9,1.3-7,4.7-7c3.4,0,4.7,3.1,4.7,7s-1.3,7-4.7,7C269.4,356.2,268,353.1,268,349.2z
		 M274.8,349.2c0-2.4-0.5-4.4-2.1-4.4c-1.5,0-2,2-2,4.4c0,2.5,0.5,4.4,2,4.4C274.3,353.6,274.8,351.6,274.8,349.2z"/>
	<path class="st3" d="M279.2,342.4h4.9V356h-2.7v-10.9h-2.2V342.4z"/>
	<path class="st3" d="M295.5,352c0,2.3-1.5,4-4.1,4.1c-0.7,0-2.6,0-4.3-0.6l0.2-2.7c4.2,1.4,5.5,0.3,5.4-0.9c0-1.6-1-2.1-5.2-2.4
		v-7.2h6.9v2.6h-4.2v2.4C293.7,347.7,295.5,348.9,295.5,352z"/>
</g>
</svg>
