<?xml version="1.0" encoding="UTF-8"?>
<!DOCTYPE svg PUBLIC "-//W3C//DTD SVG 1.1//EN" "http://www.w3.org/Graphics/SVG/1.1/DTD/svg11.dtd">
<svg version="1.1" xmlns="http://www.w3.org/2000/svg" xmlns:xlink="http://www.w3.org/1999/xlink" x="0" y="0" width="166.342" height="166.336" viewBox="0, 0, 166.342, 166.336">
  <g id="Layer_1" transform="translate(-0, 0)">
    <g>
      <path d="M83.233,166.336 C75.88,166.336 68.538,165.352 61.404,163.419 C60.165,163.084 58.93,162.714 57.708,162.323 C37.96,155.992 21.387,142.571 11.043,124.522 C0.001,105.254 -2.878,82.84 2.936,61.406 C8.75,39.972 22.566,22.084 41.833,11.042 C54.441,3.818 68.69,-0 83.043,-0 C90.399,-0 97.766,0.984 104.951,2.935 C126.385,8.752 144.27,22.568 155.312,41.835 C164.682,58.181 168.182,76.638 165.428,95.207 L165.344,95.751 L157.235,95.751 L157.357,95.011 C160.121,77.897 157.015,60.881 148.375,45.809 C138.391,28.389 122.226,15.906 102.858,10.65 C96.364,8.891 89.702,7.998 83.061,7.998 C70.086,7.998 57.206,11.449 45.811,17.978 C28.401,27.959 15.915,44.123 10.655,63.495 C5.4,82.874 7.999,103.132 17.984,120.542 C27.961,137.956 44.129,150.441 63.501,155.697 C70.83,157.686 78.521,158.531 86.206,158.223 L86.593,158.154 C92.686,157.882 98.845,156.821 104.9,154.992 L105.05,154.95 L105.203,154.978 C109.876,155.872 114.814,156.339 119.877,156.36 L122.567,156.374 L120.159,157.568 C116.212,159.522 112.115,161.169 107.976,162.461 L107.815,162.544 C107.623,162.635 107.498,162.698 107.358,162.74 C99.537,165.129 91.416,166.336 83.233,166.336 z" fill="#75BEE9"/>
      <path d="M112.317,80.405 C111.357,73.551 104.81,68.693 97.705,69.684 C90.6,70.679 85.725,77.142 86.684,83.992 C87.654,90.926 94.103,95.718 101.212,94.726 C108.317,93.729 113.287,87.342 112.317,80.405 z M100.322,88.396 C96.81,88.888 93.761,86.583 93.268,83.067 C92.786,79.638 95.065,76.417 98.581,75.929 C102.097,75.435 105.173,77.908 105.653,81.338 C106.145,84.851 103.838,87.908 100.322,88.396 z" fill="#FFFFFF"/>
      <path d="M146.027,110.975 C145.067,104.125 138.524,99.264 131.419,100.255 C124.311,101.253 119.439,107.709 120.395,114.563 C121.365,121.501 127.818,126.292 134.923,125.297 C142.028,124.302 147.001,117.913 146.027,110.975 z M134.037,118.968 C130.524,119.462 127.471,117.16 126.979,113.645 C126.499,110.214 128.778,106.992 132.294,106.501 C135.806,106.012 138.882,108.478 139.366,111.91 C139.854,115.426 137.552,118.473 134.037,118.968 z" fill="#FFFFFF"/>
      <path d="M98.061,123.07 L87.759,123.07 L133.377,73.18 L143.651,73.18 L98.061,123.07 z" fill="#FFFFFF"/>
      <path d="M124.401,144.384 C123.017,144.455 121.63,144.526 120.286,144.526 C101.054,144.526 89.189,137.379 82.621,131.383 C73.387,122.945 68.09,111.122 68.09,98.935 L68.09,98.3 L60.095,98.3 L60.095,98.935 C60.095,113.362 66.338,127.342 77.23,137.288 C84.855,144.253 98.51,152.552 120.262,152.552 C122.708,152.552 125.254,152.416 127.807,152.206 L124.401,144.384 z" fill="#FFFFFF"/>
    </g>
  </g>
</svg>
