<?xml version="1.0" encoding="UTF-8" standalone="no"?>
<!-- Generator: Adobe Illustrator 16.0.4, SVG Export Plug-In . SVG Version: 6.00 Build 0)  -->

<svg
   xmlns:dc="http://purl.org/dc/elements/1.1/"
   xmlns:cc="http://creativecommons.org/ns#"
   xmlns:rdf="http://www.w3.org/1999/02/22-rdf-syntax-ns#"
   xmlns:svg="http://www.w3.org/2000/svg"
   xmlns="http://www.w3.org/2000/svg"
   xmlns:sodipodi="http://sodipodi.sourceforge.net/DTD/sodipodi-0.dtd"
   xmlns:inkscape="http://www.inkscape.org/namespaces/inkscape"
   version="1.1"
   id="Layer_1"
   x="0px"
   y="0px"
   width="276.69"
   height="259.55801"
   viewBox="0 0 276.69 259.55801"
   enable-background="new 0 0 792 612"
   xml:space="preserve"
   inkscape:version="0.48.5 r10040"
   sodipodi:docname="logo-wsd-2015-en.svg"><metadata
   id="metadata129"><rdf:RDF><cc:Work
       rdf:about=""><dc:format>image/svg+xml</dc:format><dc:type
         rdf:resource="http://purl.org/dc/dcmitype/StillImage" /></cc:Work></rdf:RDF></metadata><defs
   id="defs127" /><sodipodi:namedview
   pagecolor="#ffffff"
   bordercolor="#666666"
   borderopacity="1"
   objecttolerance="10"
   gridtolerance="10"
   guidetolerance="10"
   inkscape:pageopacity="0"
   inkscape:pageshadow="2"
   inkscape:window-width="1680"
   inkscape:window-height="1028"
   id="namedview125"
   showgrid="false"
   fit-margin-top="0"
   fit-margin-left="0"
   fit-margin-right="0"
   fit-margin-bottom="0"
   inkscape:zoom="0.36111111"
   inkscape:cx="139.07901"
   inkscape:cy="129.78001"
   inkscape:window-x="-8"
   inkscape:window-y="-8"
   inkscape:window-maximized="1"
   inkscape:current-layer="Layer_1" />
<rect
   x="0"
   y="0"
   width="276.69"
   height="259.55801"
   id="rect3"
   style="fill:#0083bf" />
<g
   id="g5"
   transform="translate(-256.92099,-176.222)">
	<g
   id="g7">
		<path
   d="m 413.168,293.457 -4.453,-11.094 h 2.445 l 2.188,5.547 2.129,-5.44 h 0.105 l 2.129,5.44 2.188,-5.547 h 2.445 l -4.438,11.049 h -0.395 l -1.988,-4.818 -1.977,4.863 h -0.378 z"
   id="path9"
   inkscape:connector-curvature="0"
   style="fill:#ffffff" />
		<path
   d="m 428.641,282.181 c 7.477,0 7.477,11.201 0,11.201 -7.477,0 -7.477,-11.201 0,-11.201 z m 0,2.234 c -4.348,0 -4.348,6.717 0,6.717 4.348,0 4.347,-6.717 0,-6.717 z"
   id="path11"
   inkscape:connector-curvature="0"
   style="fill:#ffffff" />
		<path
   d="m 441.895,293.229 -2.191,-4.149 h -1.047 v 4.149 h -2.176 v -10.866 h 4.289 c 3.875,0 4.254,5.456 1.062,6.383 l 2.523,4.483 h -2.46 z m -3.239,-6.261 h 1.914 c 1.473,0 1.473,-2.432 0,-2.432 h -1.914 v 2.432 z"
   id="path13"
   inkscape:connector-curvature="0"
   style="fill:#ffffff" />
		<path
   d="m 448.391,282.363 v 8.693 h 3.453 v 2.173 h -5.625 v -10.866 h 2.172 z"
   id="path15"
   inkscape:connector-curvature="0"
   style="fill:#ffffff" />
		<path
   d="m 456.902,293.229 h -3.238 v -10.866 h 3.238 c 7.235,0 7.235,10.866 0,10.866 z m -1.062,-8.693 v 6.521 h 1.062 c 4.227,0 4.227,-6.521 0,-6.521 h -1.062 z"
   id="path17"
   inkscape:connector-curvature="0"
   style="fill:#ffffff" />
		<path
   d="m 409.609,307.347 c 1.246,0.88 2.598,0.911 3.102,0.864 0.637,-0.043 1.184,-0.499 1.125,-1.093 -0.047,-0.623 -0.52,-0.896 -1.125,-1.109 -1.703,-0.623 -3.223,-1.488 -3.223,-3.312 0,-1.824 1.262,-3.223 3.07,-3.313 0.562,-0.03 1.309,-0.03 2.703,0.456 l -0.273,2.098 c -1.199,-0.486 -1.883,-0.471 -2.219,-0.457 -0.773,0.047 -1.125,0.609 -1.078,1.217 0.062,0.607 0.594,0.881 1.215,1.094 1.688,0.623 3.148,1.596 3.148,3.328 0,1.808 -1.246,3.19 -3.285,3.3 -0.605,0.043 -1.961,-0.031 -3.434,-0.793 l 0.274,-2.28 z"
   id="path19"
   inkscape:connector-curvature="0"
   style="fill:#ffffff" />
		<path
   d="m 419.762,310.324 v -8.692 h -2.707 v -2.158 h 7.582 v 2.158 h -2.703 v 8.692 h -2.172 z"
   id="path21"
   inkscape:connector-curvature="0"
   style="fill:#ffffff" />
		<path
   d="m 429.543,299.063 h 0.227 l 4.578,11.261 h -2.449 l -0.441,-1.168 h -3.602 l -0.426,1.168 h -2.461 l 4.574,-11.261 z m 1.109,8.055 -0.988,-2.826 -1.016,2.826 h 2.004 z"
   id="path23"
   inkscape:connector-curvature="0"
   style="fill:#ffffff" />
		<path
   d="m 437.281,310.324 v -8.692 h -2.703 v -2.158 h 7.582 v 2.158 h -2.707 v 8.692 h -2.172 z"
   id="path25"
   inkscape:connector-curvature="0"
   style="fill:#ffffff" />
		<path
   d="m 444.141,310.324 v -10.865 h 2.176 v 10.865 h -2.176 z"
   id="path27"
   inkscape:connector-curvature="0"
   style="fill:#ffffff" />
		<path
   d="m 449.309,307.347 c 1.246,0.88 2.598,0.911 3.098,0.864 0.641,-0.043 1.188,-0.499 1.125,-1.093 -0.043,-0.623 -0.516,-0.896 -1.125,-1.109 -1.699,-0.623 -3.219,-1.488 -3.219,-3.312 0,-1.824 1.258,-3.223 3.066,-3.313 0.562,-0.03 1.309,-0.03 2.707,0.456 l -0.273,2.098 c -1.199,-0.486 -1.887,-0.471 -2.219,-0.457 -0.777,0.047 -1.125,0.609 -1.078,1.217 0.059,0.607 0.59,0.881 1.215,1.094 1.688,0.623 3.145,1.596 3.145,3.328 0,1.808 -1.246,3.19 -3.281,3.3 -0.609,0.043 -1.961,-0.031 -3.434,-0.793 l 0.273,-2.28 z"
   id="path29"
   inkscape:connector-curvature="0"
   style="fill:#ffffff" />
		<path
   d="m 459.457,310.324 v -8.692 h -2.703 v -2.158 h 7.582 v 2.158 h -2.707 v 8.692 h -2.172 z"
   id="path31"
   inkscape:connector-curvature="0"
   style="fill:#ffffff" />
		<path
   d="m 466.316,310.324 v -10.865 h 2.176 v 10.865 h -2.176 z"
   id="path33"
   inkscape:connector-curvature="0"
   style="fill:#ffffff" />
		<path
   d="m 476.598,301.511 c -4.301,0 -4.301,6.626 0,6.626 0.941,0 1.688,-0.274 2.098,-0.487 l 0.289,2.249 c -0.672,0.273 -1.629,0.457 -2.387,0.457 -7.371,0 -7.355,-11.033 0,-11.033 0.758,0 1.488,0.137 2.141,0.425 l -0.258,2.234 c -0.411,-0.213 -0.942,-0.471 -1.883,-0.471 z"
   id="path35"
   inkscape:connector-curvature="0"
   style="fill:#ffffff" />
		<path
   d="m 481.207,307.347 c 1.246,0.88 2.598,0.911 3.102,0.864 0.637,-0.043 1.184,-0.499 1.125,-1.093 -0.047,-0.623 -0.52,-0.896 -1.125,-1.109 -1.703,-0.623 -3.223,-1.488 -3.223,-3.312 0,-1.824 1.262,-3.223 3.07,-3.313 0.562,-0.03 1.309,-0.03 2.703,0.456 l -0.273,2.098 c -1.199,-0.486 -1.883,-0.471 -2.219,-0.457 -0.773,0.047 -1.125,0.609 -1.078,1.217 0.062,0.607 0.594,0.881 1.215,1.094 1.688,0.623 3.148,1.596 3.148,3.328 0,1.808 -1.246,3.19 -3.285,3.3 -0.605,0.043 -1.961,-0.031 -3.434,-0.793 l 0.274,-2.28 z"
   id="path37"
   inkscape:connector-curvature="0"
   style="fill:#ffffff" />
		<path
   d="m 413.074,327.422 h -3.238 v -10.867 h 3.238 c 7.235,0 7.235,10.867 0,10.867 z m -1.062,-8.695 v 6.52 h 1.062 c 4.227,0 4.227,-6.52 0,-6.52 h -1.062 z"
   id="path39"
   inkscape:connector-curvature="0"
   style="fill:#ffffff" />
		<path
   d="m 423.863,316.16 h 0.227 l 4.574,11.262 h -2.445 l -0.441,-1.172 h -3.602 l -0.426,1.172 h -2.465 l 4.578,-11.262 z m 1.11,8.055 -0.988,-2.828 -1.02,2.828 h 2.008 z"
   id="path41"
   inkscape:connector-curvature="0"
   style="fill:#ffffff" />
		<path
   d="m 431.957,322.527 -3.785,-5.973 h 2.645 l 2.219,3.738 2.219,-3.738 h 2.66 l -3.801,5.973 v 4.895 h -2.156 v -4.895 z"
   id="path43"
   inkscape:connector-curvature="0"
   style="fill:#ffffff" />
		<path
   d="m 411.848,337.324 c 0,-0.418 -0.336,-0.73 -0.773,-0.75 -0.656,-0.043 -1.48,0.387 -1.723,0.594 l -0.363,-1.441 c 0.574,-0.418 1.48,-0.707 2.211,-0.676 2.191,0.113 2.922,2.035 1.672,3.777 l -1.473,2.273 h 2.211 v 1.516 h -4.926 l 2.789,-4.426 c 0.394,-0.562 0.375,-0.867 0.375,-0.867 z"
   id="path45"
   inkscape:connector-curvature="0"
   style="fill:#90cef1" />
		<path
   d="m 414.863,338.879 c 0,-2.117 0.719,-3.828 2.555,-3.828 1.859,0 2.57,1.711 2.57,3.828 0,2.121 -0.711,3.84 -2.57,3.84 -1.836,0 -2.555,-1.719 -2.555,-3.84 z m 3.684,0 c 0,-1.336 -0.281,-2.43 -1.129,-2.43 -0.824,0 -1.105,1.094 -1.105,2.43 0,1.348 0.281,2.434 1.105,2.434 0.848,-10e-4 1.129,-1.086 1.129,-2.434 z"
   id="path47"
   inkscape:connector-curvature="0"
   style="fill:#90cef1" />
		<path
   d="m 421.945,342.688 c -1.129,0 -1.129,-1.68 0,-1.68 1.149,0 1.117,1.68 0,1.68 z"
   id="path49"
   inkscape:connector-curvature="0"
   style="fill:#90cef1" />
		<path
   d="m 423.656,335.164 h 2.703 v 7.453 h -1.48 v -5.961 h -1.223 v -1.492 z"
   id="path51"
   inkscape:connector-curvature="0"
   style="fill:#90cef1" />
		<path
   d="m 428.031,338.879 c 0,-2.117 0.723,-3.828 2.559,-3.828 1.855,0 2.566,1.711 2.566,3.828 0,2.121 -0.711,3.84 -2.566,3.84 -1.836,0 -2.559,-1.719 -2.559,-3.84 z m 3.684,0 c 0,-1.336 -0.281,-2.43 -1.125,-2.43 -0.824,0 -1.105,1.094 -1.105,2.43 0,1.348 0.281,2.434 1.105,2.434 0.844,-10e-4 1.125,-1.086 1.125,-2.434 z"
   id="path53"
   inkscape:connector-curvature="0"
   style="fill:#90cef1" />
		<path
   d="m 435.113,342.688 c -1.125,0 -1.125,-1.68 0,-1.68 1.149,0 1.117,1.68 0,1.68 z"
   id="path55"
   inkscape:connector-curvature="0"
   style="fill:#90cef1" />
		<path
   d="m 440.18,337.324 c 0,-0.418 -0.336,-0.73 -0.773,-0.75 -0.656,-0.043 -1.48,0.387 -1.723,0.594 l -0.363,-1.441 c 0.574,-0.418 1.48,-0.707 2.211,-0.676 2.191,0.113 2.922,2.035 1.672,3.777 l -1.473,2.273 h 2.211 v 1.516 h -4.926 l 2.789,-4.426 c 0.394,-0.562 0.375,-0.867 0.375,-0.867 z"
   id="path57"
   inkscape:connector-curvature="0"
   style="fill:#90cef1" />
		<path
   d="m 443.195,338.879 c 0,-2.117 0.723,-3.828 2.559,-3.828 1.855,0 2.566,1.711 2.566,3.828 0,2.121 -0.711,3.84 -2.566,3.84 -1.836,0 -2.559,-1.719 -2.559,-3.84 z m 3.684,0 c 0,-1.336 -0.281,-2.43 -1.125,-2.43 -0.824,0 -1.105,1.094 -1.105,2.43 0,1.348 0.281,2.434 1.105,2.434 0.844,-10e-4 1.125,-1.086 1.125,-2.434 z"
   id="path59"
   inkscape:connector-curvature="0"
   style="fill:#90cef1" />
		<path
   d="m 449.309,335.164 h 2.703 v 7.453 h -1.48 v -5.961 h -1.223 v -1.492 z"
   id="path61"
   inkscape:connector-curvature="0"
   style="fill:#90cef1" />
		<path
   d="m 458.223,340.426 c 0,1.242 -0.844,2.18 -2.242,2.254 -0.387,0.02 -1.398,0 -2.379,-0.336 l 0.133,-1.48 c 2.32,0.793 2.988,0.156 2.977,-0.469 0,-0.879 -0.555,-1.148 -2.828,-1.316 v -3.926 h 3.797 v 1.43 h -2.293 v 1.305 c 1.874,0.167 2.835,0.815 2.835,2.538 z"
   id="path63"
   inkscape:connector-curvature="0"
   style="fill:#90cef1" />
		<path
   d="m 409.383,351.016 h 2.684 c 1.207,0 1.957,0.863 1.926,2.059 -0.016,0.516 -0.199,1.047 -0.625,1.34 0.445,0.305 0.703,0.824 0.703,1.355 0,1.141 -0.902,2.043 -2.004,2.043 h -2.684 v -6.797 z m 1.363,2.722 h 0.816 0.391 c 0.391,0 0.625,-0.312 0.625,-0.684 0,-0.379 -0.234,-0.68 -0.625,-0.68 h -1.207 v 1.364 z m 0,2.715 h 0.816 0.391 c 0.391,0 0.684,-0.301 0.684,-0.684 0,-0.379 -0.293,-0.672 -0.684,-0.672 h -1.207 v 1.356 z"
   id="path65"
   inkscape:connector-curvature="0"
   style="fill:#ffffff" />
		<path
   d="m 415.863,357.812 v -6.785 h 3.395 v 1.355 h -2.039 v 1.355 h 1.785 v 1.359 h -1.785 v 1.355 h 2.156 v 1.359 h -3.512 z"
   id="path67"
   inkscape:connector-curvature="0"
   style="fill:#ffffff" />
		<path
   d="m 422.02,357.812 v -5.43 h -1.691 v -1.348 h 4.738 v 1.348 h -1.691 v 5.43 h -1.356 z"
   id="path69"
   inkscape:connector-curvature="0"
   style="fill:#ffffff" />
		<path
   d="m 427.242,357.812 v -5.43 h -1.691 v -1.348 h 4.738 v 1.348 h -1.691 v 5.43 h -1.356 z"
   id="path71"
   inkscape:connector-curvature="0"
   style="fill:#ffffff" />
		<path
   d="m 431.578,357.812 v -6.785 h 3.395 v 1.355 h -2.039 v 1.355 h 1.785 v 1.359 h -1.785 v 1.355 h 2.156 v 1.359 h -3.512 z"
   id="path73"
   inkscape:connector-curvature="0"
   style="fill:#ffffff" />
		<path
   d="m 440.305,357.812 -1.367,-2.594 h -0.656 v 2.594 h -1.355 v -6.785 h 2.676 c 2.418,0 2.656,3.406 0.664,3.984 l 1.574,2.801 h -1.536 z m -2.024,-3.91 h 1.195 c 0.922,0 0.922,-1.52 0,-1.52 h -1.195 v 1.52 z"
   id="path75"
   inkscape:connector-curvature="0"
   style="fill:#ffffff" />
		<path
   d="m 448.055,357.812 h -2.023 v -6.785 h 2.023 c 4.515,0 4.515,6.785 0,6.785 z m -0.664,-5.429 v 4.07 h 0.664 c 2.637,0 2.637,-4.07 0,-4.07 h -0.664 z"
   id="path77"
   inkscape:connector-curvature="0"
   style="fill:#ffffff" />
		<path
   d="m 455.109,350.777 h 0.141 l 2.859,7.035 h -1.527 l -0.277,-0.73 h -2.25 l -0.266,0.73 h -1.535 l 2.855,-7.035 z m 0.692,5.032 -0.617,-1.766 -0.633,1.766 h 1.25 z"
   id="path79"
   inkscape:connector-curvature="0"
   style="fill:#ffffff" />
		<path
   d="m 460.031,357.812 v -5.43 h -1.691 v -1.348 h 4.738 v 1.348 h -1.691 v 5.43 h -1.356 z"
   id="path81"
   inkscape:connector-curvature="0"
   style="fill:#ffffff" />
		<path
   d="m 466.227,350.777 h 0.145 l 2.855,7.035 H 467.7 l -0.273,-0.73 h -2.25 l -0.266,0.73 h -1.539 l 2.855,-7.035 z m 0.695,5.032 -0.617,-1.766 -0.637,1.766 h 1.254 z"
   id="path83"
   inkscape:connector-curvature="0"
   style="fill:#ffffff" />
		<path
   d="m 471.281,357.879 c -1.023,0 -1.023,-1.527 0,-1.527 1.043,0 1.016,1.527 0,1.527 z"
   id="path85"
   inkscape:connector-curvature="0"
   style="fill:#ffffff" />
		<path
   d="m 409.383,362.414 h 2.684 c 1.207,0 1.957,0.863 1.926,2.059 -0.016,0.512 -0.199,1.043 -0.625,1.336 0.445,0.305 0.703,0.828 0.703,1.359 0,1.137 -0.902,2.039 -2.004,2.039 h -2.684 v -6.793 z m 1.363,2.723 h 0.816 0.391 c 0.391,0 0.625,-0.312 0.625,-0.684 0,-0.379 -0.234,-0.684 -0.625,-0.684 h -1.207 v 1.368 z m 0,2.715 h 0.816 0.391 c 0.391,0 0.684,-0.305 0.684,-0.684 0,-0.379 -0.293,-0.676 -0.684,-0.676 h -1.207 v 1.36 z"
   id="path87"
   inkscape:connector-curvature="0"
   style="fill:#ffffff" />
		<path
   d="m 415.805,369.207 v -6.785 h 3.398 v 1.355 h -2.039 v 1.359 h 1.781 v 1.355 h -1.781 v 1.359 h 2.152 v 1.355 h -3.511 z"
   id="path89"
   inkscape:connector-curvature="0"
   style="fill:#ffffff" />
		<path
   d="m 421.906,369.207 v -5.43 h -1.691 v -1.348 h 4.738 v 1.348 h -1.691 v 5.43 h -1.356 z"
   id="path91"
   inkscape:connector-curvature="0"
   style="fill:#ffffff" />
		<path
   d="m 427.07,369.207 v -5.43 h -1.691 v -1.348 h 4.738 v 1.348 h -1.691 v 5.43 h -1.356 z"
   id="path93"
   inkscape:connector-curvature="0"
   style="fill:#ffffff" />
		<path
   d="m 431.352,369.207 v -6.785 h 3.395 v 1.355 h -2.039 v 1.359 h 1.785 v 1.355 h -1.785 v 1.359 h 2.156 v 1.355 h -3.512 z"
   id="path95"
   inkscape:connector-curvature="0"
   style="fill:#ffffff" />
		<path
   d="m 440.02,369.207 -1.367,-2.59 h -0.656 v 2.59 h -1.355 v -6.785 h 2.676 c 2.418,0 2.656,3.406 0.664,3.984 l 1.574,2.801 h -1.536 z m -2.024,-3.91 h 1.195 c 0.922,0 0.922,-1.52 0,-1.52 h -1.195 v 1.52 z"
   id="path97"
   inkscape:connector-curvature="0"
   style="fill:#ffffff" />
		<path
   d="m 446.992,362.422 v 5.43 h 2.152 v 1.355 h -3.512 v -6.785 h 1.36 z"
   id="path99"
   inkscape:connector-curvature="0"
   style="fill:#ffffff" />
		<path
   d="m 450.555,369.207 v -6.785 h 1.355 v 6.785 h -1.355 z"
   id="path101"
   inkscape:connector-curvature="0"
   style="fill:#ffffff" />
		<path
   d="m 455.77,369.352 -2.812,-6.93 h 1.566 l 0.902,2.258 0.492,1.406 0.484,-1.359 0.914,-2.305 h 1.562 l -2.809,6.93 h -0.299 z"
   id="path103"
   inkscape:connector-curvature="0"
   style="fill:#ffffff" />
		<path
   d="m 459.949,369.207 v -6.785 h 3.395 v 1.355 h -2.039 v 1.359 h 1.785 v 1.355 h -1.785 v 1.359 h 2.156 v 1.355 h -3.512 z"
   id="path105"
   inkscape:connector-curvature="0"
   style="fill:#ffffff" />
		<path
   d="m 465.074,367.348 c 0.777,0.551 1.625,0.57 1.938,0.543 0.398,-0.031 0.738,-0.316 0.703,-0.684 -0.031,-0.391 -0.324,-0.562 -0.703,-0.695 -1.062,-0.387 -2.012,-0.93 -2.012,-2.066 0,-1.141 0.785,-2.016 1.918,-2.07 0.348,-0.02 0.812,-0.02 1.688,0.285 l -0.172,1.309 c -0.75,-0.305 -1.176,-0.293 -1.383,-0.285 -0.484,0.027 -0.703,0.379 -0.676,0.762 0.039,0.379 0.371,0.547 0.758,0.68 1.055,0.391 1.965,1 1.965,2.082 0,1.129 -0.777,1.992 -2.047,2.059 -0.383,0.027 -1.227,-0.02 -2.148,-0.496 l 0.171,-1.424 z"
   id="path107"
   inkscape:connector-curvature="0"
   style="fill:#ffffff" />
		<path
   d="m 471.148,369.273 c -1.027,0 -1.027,-1.527 0,-1.527 1.043,0 1.012,1.527 0,1.527 z"
   id="path109"
   inkscape:connector-curvature="0"
   style="fill:#ffffff" />
	</g>
</g>
<g
   id="g111"
   transform="translate(-256.92099,-176.222)">
	<path
   d="m 348.751,316.791 c -4.115,0 -8.225,-0.551 -12.217,-1.633 -0.693,-0.188 -1.385,-0.395 -2.068,-0.613 -11.053,-3.543 -20.328,-11.055 -26.117,-21.156 -6.18,-10.783 -7.791,-23.328 -4.537,-35.324 3.254,-11.996 10.986,-22.008 21.77,-28.188 7.057,-4.043 15.031,-6.18 23.064,-6.18 4.117,0 8.24,0.551 12.262,1.643 11.996,3.256 22.006,10.988 28.186,21.771 5.244,9.148 7.203,19.479 5.662,29.871 l -0.047,0.305 h -4.539 l 0.068,-0.414 c 1.547,-9.578 -0.191,-19.102 -5.027,-27.537 -5.588,-9.75 -14.635,-16.736 -25.475,-19.678 -3.635,-0.984 -7.363,-1.484 -11.08,-1.484 -7.262,0 -14.471,1.932 -20.848,5.586 -9.744,5.586 -16.732,14.633 -19.676,25.475 -2.941,10.846 -1.486,22.184 4.102,31.928 5.584,9.746 14.633,16.734 25.475,19.676 4.102,1.113 8.406,1.586 12.707,1.414 l 0.217,-0.039 c 3.41,-0.152 6.857,-0.746 10.246,-1.77 l 0.084,-0.023 0.086,0.016 c 2.615,0.5 5.379,0.762 8.213,0.773 l 1.506,0.008 -1.348,0.668 c -2.209,1.094 -4.502,2.016 -6.818,2.738 l -0.09,0.047 c -0.107,0.051 -0.178,0.086 -0.256,0.109 -4.38,1.335 -8.924,2.011 -13.505,2.011 z"
   id="path113"
   inkscape:connector-curvature="0"
   style="fill:#74c1ec" />
</g>
<path
   d="m 108.10801,92.475 c -0.537,-3.836 -4.201,-6.555 -8.178,-6 -3.977,0.557 -6.705,4.174 -6.168,8.008 0.543,3.881 4.152,6.562 8.131,6.008 3.977,-0.559 6.758,-4.133 6.215,-8.016 z m -6.713,4.473 c -1.966,0.275 -3.672,-1.015 -3.948,-2.982 -0.27,-1.919 1.006,-3.722 2.974,-3.995 1.968,-0.276 3.689,1.107 3.958,3.027 0.275,1.966 -1.016,3.676 -2.984,3.95 z"
   id="path115"
   inkscape:connector-curvature="0"
   style="fill:#ffffff" />
<path
   d="m 126.97501,109.585 c -0.537,-3.834 -4.199,-6.555 -8.176,-6 -3.979,0.559 -6.705,4.172 -6.17,8.008 0.543,3.883 4.154,6.564 8.131,6.008 3.977,-0.556 6.76,-4.134 6.215,-8.016 z m -6.711,4.473 c -1.966,0.276 -3.675,-1.012 -3.95,-2.979 -0.269,-1.92 1.007,-3.724 2.975,-3.998 1.966,-0.273 3.688,1.106 3.958,3.027 0.273,1.968 -1.015,3.673 -2.983,3.95 z"
   id="path117"
   inkscape:connector-curvature="0"
   style="fill:#ffffff" />
<g
   id="g119"
   transform="translate(-256.92099,-176.222)">
	<path
   d="m 357.05,292.576 h -5.766 l 25.531,-27.922 h 5.75 l -25.515,27.922 z"
   id="path121"
   inkscape:connector-curvature="0"
   style="fill:#ffffff" />
</g>
<path
   d="m 114.87101,128.283 c -0.774,0.04 -1.551,0.079 -2.303,0.079 -10.764,0 -17.404,-4 -21.08,-7.355 -5.168,-4.723 -8.133,-11.34 -8.133,-18.16 v -0.355 h -4.475 v 0.355 c 0,8.074 3.494,15.898 9.59,21.465 4.268,3.898 11.91,8.543 24.084,8.543 1.369,0 2.794,-0.076 4.223,-0.193 l -1.906,-4.379 z"
   id="path123"
   inkscape:connector-curvature="0"
   style="fill:#ffffff" />
</svg>