<?xml version="1.0" encoding="utf-8"?>
<!-- Generator: Adobe Illustrator 19.0.0, SVG Export Plug-In . SVG Version: 6.00 Build 0)  -->
<svg version="1.1" id="Layer_1" xmlns="http://www.w3.org/2000/svg" xmlns:xlink="http://www.w3.org/1999/xlink" x="0px" y="0px"
	 viewBox="0 0 612 612" style="enable-background:new 0 0 612 612;" xml:space="preserve">
<metadata><?xpacket begin="﻿" id="W5M0MpCehiHzreSzNTczkc9d"?>
<x:xmpmeta xmlns:x="adobe:ns:meta/" x:xmptk="Adobe XMP Core 5.6-c067 79.157747, 2015/03/30-23:40:42        ">
   <rdf:RDF xmlns:rdf="http://www.w3.org/1999/02/22-rdf-syntax-ns#">
      <rdf:Description rdf:about=""/>
   </rdf:RDF>
</x:xmpmeta>
                                                                                                    
                                                                                                    
                                                                                                    
                                                                                                    
                                                                                                    
                                                                                                    
                                                                                                    
                                                                                                    
                                                                                                    
                                                                                                    
                                                                                                    
                                                                                                    
                                                                                                    
                                                                                                    
                                                                                                    
                                                                                                    
                                                                                                    
                                                                                                    
                                                                                                    
                                                                                                    
                           
<?xpacket end="w"?></metadata>
<style type="text/css">
	.st0{fill:#FFFFFF;}
	.st1{fill:#0083BF;}
	.st2{fill:#59AFE1;}
	.st3{fill:#74C1EC;}
</style>
<rect class="st0" width="612" height="612"/>
<g>
	<g>
		<path class="st1" d="M295.1,295.6c2.3,1.6,4.8,1.7,5.7,1.6c1.2-0.1,2.2-0.9,2.1-2c-0.1-1.1-0.9-1.6-2.1-2
			c-3.1-1.1-5.9-2.7-5.9-6.1c0-3.3,2.3-5.9,5.6-6.1c1-0.1,2.4-0.1,4.9,0.8l-0.5,3.8c-2.2-0.9-3.4-0.9-4.1-0.8
			c-1.4,0.1-2.1,1.1-2,2.2c0.1,1.1,1.1,1.6,2.2,2c3.1,1.1,5.8,2.9,5.8,6.1c0,3.3-2.3,5.8-6,6c-1.1,0.1-3.6-0.1-6.3-1.4L295.1,295.6z
			 M304.6,276l-2.4,3.6h-3.3l1.3-3.6H304.6z"/>
		<path class="st1" d="M315.9,301.5l-8.1-20.3h4.5l4,10.1l3.9-10h0.2l3.9,10l4-10.1h4.5l-8.1,20.2h-0.7l-3.6-8.8l-3.6,8.9H315.9z"/>
		<path class="st1" d="M335,301v-19.9h4V301H335z"/>
		<path class="st1" d="M349.9,280.4h0.4l8.4,20.6h-4.5l-0.8-2.1h-6.6l-0.8,2.1h-4.5L349.9,280.4z M352,295.2l-1.8-5.2l-1.9,5.2H352z
			"/>
		<path class="st1" d="M363.2,301v-15.9h-4.9v-3.9h13.9v3.9h-4.9V301H363.2z"/>
		<path class="st1" d="M383.8,280.8c13.7,0,13.7,20.5,0,20.5C370.1,301.3,370.1,280.8,383.8,280.8z M383.8,284.9c-8,0-8,12.3,0,12.3
			S391.7,284.9,383.8,284.9z"/>
		<path class="st1" d="M403.3,301.5l-8.1-20.3h4.5l4,10.1l3.9-10h0.2l3.9,10l4-10.1h4.5l-8.1,20.2h-0.7l-3.6-8.8l-3.6,8.9H403.3z"/>
		<path class="st1" d="M425.9,292.1l-6.9-10.9h4.8l4.1,6.8l4.1-6.8h4.9l-7,10.9v9h-3.9V292.1z"/>
		<path class="st1" d="M301.4,332.3h-5.9v-19.9h5.9C314.7,312.4,314.7,332.3,301.4,332.3z M299.5,316.4v11.9h1.9
			c7.7,0,7.7-11.9,0-11.9H299.5z"/>
		<path class="st1" d="M313.2,332.3c2.4-5.3,4.8-10.7,7.2-16h-6.1v-3.9h12c-2.4,5.3-4.8,10.6-7.2,15.9h7.4v4H313.2z"/>
		<path class="st1" d="M330.4,332.3v-19.9h4v19.9H330.4z"/>
		<path class="st1" d="M339.5,332.3v-19.9h10v4h-6v4h5.2v4h-5.2v4h6.3v4H339.5z"/>
		<path class="st1" d="M358.3,332.3h-4V312h1.1l10,11.7v-11.2h4v20.3h-1.1l-10.1-11.2V332.3z M365.6,307.1l-2.8,3.9h-3.8l1.5-3.9
			H365.6z"/>
		<path class="st1" d="M295.1,358.1c2.3,1.6,4.8,1.7,5.7,1.6c1.2-0.1,2.2-0.9,2.1-2c-0.1-1.1-0.9-1.6-2.1-2
			c-3.1-1.1-5.9-2.7-5.9-6.1c0-3.3,2.3-5.9,5.6-6.1c1-0.1,2.4-0.1,4.9,0.8l-0.5,3.8c-2.2-0.9-3.4-0.9-4.1-0.8
			c-1.4,0.1-2.1,1.1-2,2.2c0.1,1.1,1.1,1.6,2.2,2c3.1,1.1,5.8,2.9,5.8,6.1c0,3.3-2.3,5.8-6,6c-1.1,0.1-3.6-0.1-6.3-1.4L295.1,358.1z
			"/>
		<path class="st1" d="M312.9,363.6v-15.9h-4.9v-3.9h13.9v3.9h-4.9v15.9H312.9z"/>
		<path class="st1" d="M329.9,343h0.4l8.4,20.6h-4.5l-0.8-2.1h-6.6l-0.8,2.1h-4.5L329.9,343z M331.9,357.7l-1.8-5.2l-1.9,5.2H331.9z
			"/>
		<path class="st1" d="M343.1,363.6v-15.9h-4.9v-3.9h13.9v3.9h-4.9v15.9H343.1z"/>
		<path class="st1" d="M358.1,354.6l-6.9-10.9h4.8l4.1,6.8l4.1-6.8h4.9l-7,10.9v9h-3.9V354.6z"/>
		<path class="st1" d="M370.1,358.1c2.3,1.6,4.8,1.7,5.7,1.6c1.2-0.1,2.2-0.9,2.1-2c-0.1-1.1-0.9-1.6-2.1-2
			c-3.1-1.1-5.9-2.7-5.9-6.1c0-3.3,2.3-5.9,5.6-6.1c1-0.1,2.4-0.1,4.9,0.8l-0.5,3.8c-2.2-0.9-3.4-0.9-4.1-0.8
			c-1.4,0.1-2.1,1.1-2,2.2c0.1,1.1,1.1,1.6,2.2,2c3.1,1.1,5.8,2.9,5.8,6.1c0,3.3-2.3,5.8-6,6c-1.1,0.1-3.6-0.1-6.3-1.4L370.1,358.1z
			"/>
		<path class="st1" d="M387.9,363.6v-15.9H383v-3.9h13.9v3.9h-4.9v15.9H387.9z"/>
		<path class="st1" d="M402.9,354.6l-6.9-10.9h4.8l4.1,6.8l4.1-6.8h4.9l-7,10.9v9h-3.9V354.6z"/>
		<path class="st1" d="M415.5,343.7h4c0,2.6,0,5.3,0,7.9l5-7.9h4.6l-6.5,9.8l7,10.1h-4.9l-5.3-7.8c0,2.6,0,5.2,0,7.8h-4V343.7z"/>
		<path class="st1" d="M432.4,363.6v-19.9h4v19.9H432.4z"/>
		<path class="st2" d="M299.2,381.7c0-0.8-0.6-1.3-1.4-1.4c-1.2-0.1-2.7,0.7-3.2,1.1l-0.7-2.6c1.1-0.8,2.7-1.3,4-1.2
			c4,0.2,5.3,3.7,3.1,6.9l-2.7,4.2h4v2.8h-9l5.1-8.1C299.2,382.3,299.2,381.7,299.2,381.7z"/>
		<path class="st2" d="M304.7,384.5c0-3.9,1.3-7,4.7-7c3.4,0,4.7,3.1,4.7,7c0,3.9-1.3,7-4.7,7C306,391.6,304.7,388.4,304.7,384.5z
			 M311.4,384.5c0-2.4-0.5-4.5-2.1-4.5c-1.5,0-2,2-2,4.5c0,2.5,0.5,4.5,2,4.5C310.9,389,311.4,387,311.4,384.5z"/>
		<path class="st2" d="M317.6,391.5c-2.1,0-2.1-3.1,0-3.1C319.7,388.4,319.7,391.5,317.6,391.5z"/>
		<path class="st2" d="M320.7,377.7h4.9v13.6h-2.7v-10.9h-2.2V377.7z"/>
		<path class="st2" d="M328.7,384.5c0-3.9,1.3-7,4.7-7c3.4,0,4.7,3.1,4.7,7c0,3.9-1.3,7-4.7,7C330,391.6,328.7,388.4,328.7,384.5z
			 M335.4,384.5c0-2.4-0.5-4.5-2.1-4.5c-1.5,0-2,2-2,4.5c0,2.5,0.5,4.5,2,4.5C334.9,389,335.4,387,335.4,384.5z"/>
		<path class="st2" d="M341.6,391.5c-2.1,0-2.1-3.1,0-3.1C343.7,388.4,343.7,391.5,341.6,391.5z"/>
		<path class="st2" d="M350.9,381.7c0-0.8-0.6-1.3-1.4-1.4c-1.2-0.1-2.7,0.7-3.2,1.1l-0.7-2.6c1.1-0.8,2.7-1.3,4-1.2
			c4,0.2,5.3,3.7,3.1,6.9l-2.7,4.2h4v2.8h-9l5.1-8.1C350.9,382.3,350.9,381.7,350.9,381.7z"/>
		<path class="st2" d="M356.4,384.5c0-3.9,1.3-7,4.7-7c3.4,0,4.7,3.1,4.7,7c0,3.9-1.3,7-4.7,7C357.7,391.6,356.4,388.4,356.4,384.5z
			 M363.1,384.5c0-2.4-0.5-4.5-2.1-4.5c-1.5,0-2,2-2,4.5c0,2.5,0.5,4.5,2,4.5C362.6,389,363.1,387,363.1,384.5z"/>
		<path class="st2" d="M367.5,377.7h4.9v13.6h-2.7v-10.9h-2.2V377.7z"/>
		<path class="st2" d="M383.8,387.4c0,2.3-1.5,4-4.1,4.1c-0.7,0-2.6,0-4.4-0.6l0.2-2.7c4.2,1.5,5.5,0.3,5.4-0.9c0-1.6-1-2.1-5.2-2.4
			v-7.2h7v2.6h-4.2v2.4C382.1,383,383.8,384.2,383.8,387.4z"/>
		<path class="st1" d="M297.2,407.9v9.9h3.9v2.5h-6.4v-12.4H297.2z"/>
		<path class="st1" d="M303.7,420.3v-12.4h6.2v2.5h-3.7v2.5h3.3v2.5h-3.3v2.5h3.9v2.5H303.7z"/>
		<path class="st1" d="M313.5,420.3v-12.4h4.9c4.8,0,4.8,7.7,0,7.7h-2.4v4.7H313.5z M318.1,413.1c1.7,0,1.7-2.8,0-2.8h-2.2v2.8
			H318.1z"/>
		<path class="st1" d="M324.2,416.9c1.4,1,3,1,3.5,1c0.7-0.1,1.4-0.6,1.3-1.3c-0.1-0.7-0.6-1-1.3-1.3c-1.9-0.7-3.7-1.7-3.7-3.8
			s1.4-3.7,3.5-3.8c0.6,0,1.5,0,3.1,0.5l-0.3,2.4c-1.4-0.6-2.2-0.5-2.5-0.5c-0.9,0.1-1.3,0.7-1.2,1.4c0.1,0.7,0.7,1,1.4,1.3
			c1.9,0.7,3.6,1.8,3.6,3.8c0,2.1-1.4,3.6-3.8,3.8c-0.7,0.1-2.2,0-3.9-0.9L324.2,416.9z"/>
		<path class="st1" d="M333.2,420.3c1.5-3.3,3-6.7,4.5-10h-3.8v-2.4h7.5c-1.5,3.3-3,6.6-4.5,9.9h4.6v2.5H333.2z"/>
		<path class="st1" d="M344.5,420.3v-12.4h6.2v2.5H347v2.5h3.3v2.5H347v2.5h3.9v2.5H344.5z"/>
		<path class="st1" d="M362.9,420.3h-3.7v-12.4h3.7C371.2,407.9,371.2,420.3,362.9,420.3z M361.7,410.3v7.5h1.2c4.8,0,4.8-7.5,0-7.5
			H361.7z"/>
		<path class="st1" d="M375.7,407.4h0.3l5.2,12.9h-2.8l-0.5-1.3h-4.1l-0.5,1.3h-2.8L375.7,407.4z M377,416.6l-1.1-3.2l-1.2,3.2H377z
			"/>
		<path class="st1" d="M385.9,420.3h-2.5v-12.7h0.7l6.3,7.3v-7h2.5v12.7h-0.7l-6.3-7V420.3z"/>
		<path class="st1" d="M396.6,420.3v-12.4h6.2v2.5h-3.7v2.5h3.3v2.5h-3.3v2.5h3.9v2.5H396.6z"/>
		<path class="st1" d="M407.4,420.4c-1.9,0-1.9-2.8,0-2.8C409.3,417.6,409.2,420.4,407.4,420.4z"/>
		<path class="st1" d="M297.2,429.8v9.9h3.9v2.5h-6.4v-12.4H297.2z"/>
		<path class="st1" d="M303.7,442.2v-12.4h6.2v2.5h-3.7v2.5h3.3v2.5h-3.3v2.5h3.9v2.5H303.7z"/>
		<path class="st1" d="M313.5,442.2v-12.4h4.9c4.8,0,4.8,7.7,0,7.7h-2.4v4.7H313.5z M318.1,435.1c1.7,0,1.7-2.8,0-2.8h-2.2v2.8
			H318.1z"/>
		<path class="st1" d="M324.2,438.8c1.4,1,3,1,3.5,1c0.7-0.1,1.4-0.6,1.3-1.3c-0.1-0.7-0.6-1-1.3-1.3c-1.9-0.7-3.7-1.7-3.7-3.8
			s1.4-3.7,3.5-3.8c0.6,0,1.5,0,3.1,0.5l-0.3,2.4c-1.4-0.6-2.2-0.5-2.5-0.5c-0.9,0.1-1.3,0.7-1.2,1.4c0.1,0.7,0.7,1,1.4,1.3
			c1.9,0.7,3.6,1.8,3.6,3.8c0,2.1-1.4,3.6-3.8,3.8c-0.7,0.1-2.2,0-3.9-0.9L324.2,438.8z"/>
		<path class="st1" d="M333.2,442.2c1.5-3.3,3-6.7,4.5-10h-3.8v-2.4h7.5c-1.5,3.3-3,6.6-4.5,9.9h4.6v2.5H333.2z"/>
		<path class="st1" d="M344.5,442.2v-12.4h6.2v2.5H347v2.5h3.3v2.5H347v2.5h3.9v2.5H344.5z"/>
		<path class="st1" d="M358.2,442.2c1.5-3.3,3-6.7,4.5-10h-3.8v-2.4h7.5c-1.5,3.3-3,6.6-4.5,9.9h4.6v2.5H358.2z M362.7,428.8
			c-2,0-2-2.7,0-2.7C364.8,426.1,364.7,428.8,362.7,428.8z"/>
		<path class="st1" d="M371.5,436.6l-4.3-6.8h3l2.5,4.3l2.5-4.3h3l-4.3,6.8v5.6h-2.5V436.6z"/>
		<path class="st1" d="M385.3,432.2c-4.9,0-4.9,7.6,0,7.6c1.1,0,1.9-0.3,2.4-0.6l0.3,2.6c-0.8,0.3-1.9,0.5-2.7,0.5
			c-8.4,0-8.4-12.6,0-12.6c0.9,0,1.7,0.2,2.5,0.5l-0.3,2.6C387,432.5,386.4,432.2,385.3,432.2z"/>
		<path class="st1" d="M391,442.2v-12.4h2.5v12.4H391z"/>
		<path class="st1" d="M397.2,442.2v-12.4h6.2v2.5h-3.7v2.5h3.3v2.5h-3.3v2.5h3.9v2.5H397.2z"/>
		<path class="st1" d="M407.9,442.4c-1.9,0-1.9-2.8,0-2.8C409.8,439.6,409.8,442.4,407.9,442.4z"/>
	</g>
</g>
<g id="XMLID_150_">
	<path id="XMLID_151_" class="st3" d="M183.8,344.1c-7.5,0-15-1-22.3-3c-1.3-0.3-2.5-0.7-3.8-1.1c-20.2-6.5-37.2-20.2-47.8-38.7
		c-11.3-19.7-14.3-42.7-8.3-64.6c6-21.9,20.1-40.3,39.8-51.6c12.9-7.4,27.5-11.3,42.2-11.3c7.5,0,15.1,1,22.4,3
		c21.9,6,40.3,20.1,51.6,39.8c9.6,16.7,13.2,35.6,10.4,54.6l-0.1,0.6h-8.3l0.1-0.8c2.8-17.5-0.4-34.9-9.2-50.4
		c-10.2-17.8-26.8-30.6-46.6-36c-6.6-1.8-13.5-2.7-20.3-2.7c-13.3,0-26.5,3.5-38.1,10.2c-17.8,10.2-30.6,26.8-36,46.6
		c-5.4,19.8-2.7,40.6,7.5,58.4c10.2,17.8,26.8,30.6,46.6,36c7.5,2,15.4,2.9,23.2,2.6l0.4-0.1c6.2-0.3,12.5-1.4,18.7-3.2l0.2,0l0.2,0
		c4.8,0.9,9.8,1.4,15,1.4l2.8,0l-2.5,1.2c-4,2-8.2,3.7-12.5,5l-0.2,0.1c-0.2,0.1-0.3,0.2-0.5,0.2
		C200.5,342.9,192.2,344.1,183.8,344.1z"/>
</g>
<path id="XMLID_23_" class="st1" d="M213.6,256.2c-1-7-7.7-12-15-11c-7.3,1-12.3,7.6-11.3,14.6c1,7.1,7.6,12,14.9,11
	C209.5,269.8,214.6,263.3,213.6,256.2z M201.3,264.4c-3.6,0.5-6.7-1.9-7.2-5.5c-0.5-3.5,1.8-6.8,5.4-7.3c3.6-0.5,6.7,2,7.2,5.5
	C207.2,260.7,204.9,263.9,201.3,264.4z"/>
<path id="XMLID_10_" class="st1" d="M248.1,287.5c-1-7-7.7-12-15-11c-7.3,1-12.3,7.6-11.3,14.6c1,7.1,7.6,12,14.9,11
	C244,301.1,249.1,294.6,248.1,287.5z M235.8,295.7c-3.6,0.5-6.7-1.9-7.2-5.4c-0.5-3.5,1.8-6.8,5.4-7.3c3.6-0.5,6.7,2,7.2,5.5
	C241.8,292,239.4,295.1,235.8,295.7z"/>
<g id="XMLID_7_">
	<path id="XMLID_8_" class="st1" d="M199,299.8h-10.5l46.7-51.1h10.5L199,299.8z"/>
</g>
<path id="XMLID_6_" class="st1" d="M225.9,321.7c-1.4,0.1-2.8,0.1-4.2,0.1c-19.7,0-31.8-7.3-38.6-13.5c-9.5-8.6-14.9-20.7-14.9-33.2
	v-0.7h-8.2v0.7c0,14.8,6.4,29.1,17.5,39.3c7.8,7.1,21.8,15.6,44.1,15.6c2.5,0,5.1-0.1,7.7-0.4L225.9,321.7z"/>
</svg>
