<?xml version="1.0" encoding="utf-8"?>
<!-- Generator: Adobe Illustrator 19.0.0, SVG Export Plug-In . SVG Version: 6.00 Build 0)  -->
<svg version="1.1" id="Layer_1" xmlns="http://www.w3.org/2000/svg" xmlns:xlink="http://www.w3.org/1999/xlink" x="0px" y="0px"
	 viewBox="0 0 612 612" style="enable-background:new 0 0 612 612;" xml:space="preserve">
<metadata><?xpacket begin="﻿" id="W5M0MpCehiHzreSzNTczkc9d"?>
<x:xmpmeta xmlns:x="adobe:ns:meta/" x:xmptk="Adobe XMP Core 5.6-c067 79.157747, 2015/03/30-23:40:42        ">
   <rdf:RDF xmlns:rdf="http://www.w3.org/1999/02/22-rdf-syntax-ns#">
      <rdf:Description rdf:about=""/>
   </rdf:RDF>
</x:xmpmeta>
                                                                                                    
                                                                                                    
                                                                                                    
                                                                                                    
                                                                                                    
                                                                                                    
                                                                                                    
                                                                                                    
                                                                                                    
                                                                                                    
                                                                                                    
                                                                                                    
                                                                                                    
                                                                                                    
                                                                                                    
                                                                                                    
                                                                                                    
                                                                                                    
                                                                                                    
                                                                                                    
                           
<?xpacket end="w"?></metadata>
<style type="text/css">
	.st0{fill:#0083BF;}
	.st1{fill:#FFFFFF;}
	.st2{fill:#90CEF1;}
	.st3{fill:#74C1EC;}
</style>
<rect y="0" class="st0" width="612" height="612"/>
<g>
	<path class="st1" d="M295.6,297.4c2.3,1.6,4.8,1.7,5.7,1.6c1.2-0.1,2.2-0.9,2.1-2c-0.1-1.1-0.9-1.6-2.1-2c-3.1-1.1-5.9-2.7-5.9-6.1
		c0-3.3,2.3-5.9,5.6-6.1c1-0.1,2.4-0.1,4.9,0.8l-0.5,3.8c-2.2-0.9-3.4-0.9-4.1-0.8c-1.4,0.1-2.1,1.1-2,2.2c0.1,1.1,1.1,1.6,2.2,2
		c3.1,1.1,5.8,2.9,5.8,6.1c0,3.3-2.3,5.8-6,6c-1.1,0.1-3.6-0.1-6.3-1.4L295.6,297.4z M305.1,277.8l-2.4,3.6h-3.3l1.3-3.6H305.1z"/>
	<path class="st1" d="M316.3,303.3l-8.1-20.3h4.5l4,10.1l3.9-10h0.2l3.9,10l4-10.1h4.5l-8.1,20.2h-0.7l-3.6-8.8l-3.6,8.9H316.3z"/>
	<path class="st1" d="M335.5,302.9V283h4v19.9H335.5z"/>
	<path class="st1" d="M350.4,282.3h0.4l8.4,20.6h-4.5l-0.8-2.1h-6.6l-0.8,2.1H342L350.4,282.3z M352.4,297l-1.8-5.2l-1.9,5.2H352.4z
		"/>
	<path class="st1" d="M363.7,302.9V287h-4.9V283h13.9v3.9h-4.9v15.9H363.7z"/>
	<path class="st1" d="M384.3,282.6c13.7,0,13.7,20.5,0,20.5C370.6,303.1,370.6,282.6,384.3,282.6z M384.3,286.7c-8,0-8,12.3,0,12.3
		S392.2,286.7,384.3,286.7z"/>
	<path class="st1" d="M403.8,303.3l-8.1-20.3h4.5l4,10.1l3.9-10h0.2l3.9,10l4-10.1h4.5l-8.1,20.2h-0.7l-3.6-8.8l-3.6,8.9H403.8z"/>
	<path class="st1" d="M426.4,293.9l-6.9-10.9h4.8l4.1,6.8l4.1-6.8h4.9l-7,10.9v9h-3.9V293.9z"/>
	<path class="st1" d="M301.9,334.1H296v-19.9h5.9C315.1,314.3,315.1,334.1,301.9,334.1z M300,318.2v11.9h1.9c7.7,0,7.7-11.9,0-11.9
		H300z"/>
	<path class="st1" d="M313.7,334.1c2.4-5.3,4.8-10.7,7.2-16h-6.1v-3.9h12c-2.4,5.3-4.8,10.6-7.2,15.9h7.4v4H313.7z"/>
	<path class="st1" d="M330.9,334.1v-19.9h4v19.9H330.9z"/>
	<path class="st1" d="M340,334.1v-19.9h10v4h-6v4h5.2v4H344v4h6.3v4H340z"/>
	<path class="st1" d="M358.8,334.1h-4v-20.3h1.1l10,11.7v-11.2h4v20.3h-1.1l-10.1-11.2V334.1z M366.1,308.9l-2.8,3.9h-3.8l1.5-3.9
		H366.1z"/>
	<path class="st1" d="M295.6,360c2.3,1.6,4.8,1.7,5.7,1.6c1.2-0.1,2.2-0.9,2.1-2c-0.1-1.1-0.9-1.6-2.1-2c-3.1-1.1-5.9-2.7-5.9-6.1
		c0-3.3,2.3-5.9,5.6-6.1c1-0.1,2.4-0.1,4.9,0.8l-0.5,3.8c-2.2-0.9-3.4-0.9-4.1-0.8c-1.4,0.1-2.1,1.1-2,2.2c0.1,1.1,1.1,1.6,2.2,2
		c3.1,1.1,5.8,2.9,5.8,6.1c0,3.3-2.3,5.8-6,6c-1.1,0.1-3.6-0.1-6.3-1.4L295.6,360z"/>
	<path class="st1" d="M313.3,365.4v-15.9h-4.9v-3.9h13.9v3.9h-4.9v15.9H313.3z"/>
	<path class="st1" d="M330.3,344.8h0.4l8.4,20.6h-4.5l-0.8-2.1h-6.6l-0.8,2.1H322L330.3,344.8z M332.4,359.5l-1.8-5.2l-1.9,5.2
		H332.4z"/>
	<path class="st1" d="M343.6,365.4v-15.9h-4.9v-3.9h13.9v3.9h-4.9v15.9H343.6z"/>
	<path class="st1" d="M358.6,356.4l-6.9-10.9h4.8l4.1,6.8l4.1-6.8h4.9l-7,10.9v9h-3.9V356.4z"/>
	<path class="st1" d="M370.6,360c2.3,1.6,4.8,1.7,5.7,1.6c1.2-0.1,2.2-0.9,2.1-2c-0.1-1.1-0.9-1.6-2.1-2c-3.1-1.1-5.9-2.7-5.9-6.1
		c0-3.3,2.3-5.9,5.6-6.1c1-0.1,2.4-0.1,4.9,0.8l-0.5,3.8c-2.2-0.9-3.4-0.9-4.1-0.8c-1.4,0.1-2.1,1.1-2,2.2c0.1,1.1,1.1,1.6,2.2,2
		c3.1,1.1,5.8,2.9,5.8,6.1c0,3.3-2.3,5.8-6,6c-1.1,0.1-3.6-0.1-6.3-1.4L370.6,360z"/>
	<path class="st1" d="M388.4,365.4v-15.9h-4.9v-3.9h13.9v3.9h-4.9v15.9H388.4z"/>
	<path class="st1" d="M403.3,356.4l-6.9-10.9h4.8l4.1,6.8l4.1-6.8h4.9l-7,10.9v9h-3.9V356.4z"/>
	<path class="st1" d="M416,345.5h4c0,2.6,0,5.3,0,7.9l5-7.9h4.6l-6.5,9.8l7,10.1h-4.9l-5.3-7.8c0,2.6,0,5.2,0,7.8h-4V345.5z"/>
	<path class="st1" d="M432.8,365.4v-19.9h4v19.9H432.8z"/>
	<path class="st2" d="M299.7,383.5c0-0.8-0.6-1.3-1.4-1.4c-1.2-0.1-2.7,0.7-3.2,1.1l-0.7-2.6c1.1-0.8,2.7-1.3,4-1.2
		c4,0.2,5.3,3.7,3.1,6.9l-2.7,4.2h4v2.8h-9l5.1-8.1C299.7,384.1,299.7,383.5,299.7,383.5z"/>
	<path class="st2" d="M305.2,386.4c0-3.9,1.3-7,4.7-7c3.4,0,4.7,3.1,4.7,7c0,3.9-1.3,7-4.7,7C306.5,393.4,305.2,390.2,305.2,386.4z
		 M311.9,386.4c0-2.4-0.5-4.5-2.1-4.5c-1.5,0-2,2-2,4.5c0,2.5,0.5,4.5,2,4.5C311.4,390.8,311.9,388.8,311.9,386.4z"/>
	<path class="st2" d="M318.1,393.3c-2.1,0-2.1-3.1,0-3.1C320.2,390.3,320.1,393.3,318.1,393.3z"/>
	<path class="st2" d="M321.2,379.6h4.9v13.6h-2.7v-10.9h-2.2V379.6z"/>
	<path class="st2" d="M329.1,386.4c0-3.9,1.3-7,4.7-7c3.4,0,4.7,3.1,4.7,7c0,3.9-1.3,7-4.7,7C330.5,393.4,329.1,390.2,329.1,386.4z
		 M335.9,386.4c0-2.4-0.5-4.5-2.1-4.5c-1.5,0-2,2-2,4.5c0,2.5,0.5,4.5,2,4.5C335.4,390.8,335.9,388.8,335.9,386.4z"/>
	<path class="st2" d="M342.1,393.3c-2.1,0-2.1-3.1,0-3.1C344.2,390.3,344.1,393.3,342.1,393.3z"/>
	<path class="st2" d="M351.4,383.5c0-0.8-0.6-1.3-1.4-1.4c-1.2-0.1-2.7,0.7-3.2,1.1l-0.7-2.6c1.1-0.8,2.7-1.3,4-1.2
		c4,0.2,5.3,3.7,3.1,6.9l-2.7,4.2h4v2.8h-9l5.1-8.1C351.4,384.1,351.4,383.5,351.4,383.5z"/>
	<path class="st2" d="M356.9,386.4c0-3.9,1.3-7,4.7-7c3.4,0,4.7,3.1,4.7,7c0,3.9-1.3,7-4.7,7C358.2,393.4,356.9,390.2,356.9,386.4z
		 M363.6,386.4c0-2.4-0.5-4.5-2.1-4.5c-1.5,0-2,2-2,4.5c0,2.5,0.5,4.5,2,4.5C363.1,390.8,363.6,388.8,363.6,386.4z"/>
	<path class="st2" d="M368,379.6h4.9v13.6h-2.7v-10.9H368V379.6z"/>
	<path class="st2" d="M384.3,389.2c0,2.3-1.5,4-4.1,4.1c-0.7,0-2.6,0-4.4-0.6l0.2-2.7c4.2,1.5,5.5,0.3,5.4-0.9c0-1.6-1-2.1-5.2-2.4
		v-7.2h7v2.6h-4.2v2.4C382.6,384.8,384.3,386,384.3,389.2z"/>
	<path class="st1" d="M297.6,409.7v9.9h3.9v2.5h-6.4v-12.4H297.6z"/>
	<path class="st1" d="M304.2,422.1v-12.4h6.2v2.5h-3.7v2.5h3.3v2.5h-3.3v2.5h3.9v2.5H304.2z"/>
	<path class="st1" d="M313.9,422.1v-12.4h4.9c4.8,0,4.8,7.7,0,7.7h-2.4v4.7H313.9z M318.6,414.9c1.7,0,1.7-2.8,0-2.8h-2.2v2.8H318.6
		z"/>
	<path class="st1" d="M324.6,418.7c1.4,1,3,1,3.5,1c0.7-0.1,1.4-0.6,1.3-1.3c-0.1-0.7-0.6-1-1.3-1.3c-1.9-0.7-3.7-1.7-3.7-3.8
		s1.4-3.7,3.5-3.8c0.6,0,1.5,0,3.1,0.5l-0.3,2.4c-1.4-0.6-2.2-0.5-2.5-0.5c-0.9,0.1-1.3,0.7-1.2,1.4c0.1,0.7,0.7,1,1.4,1.3
		c1.9,0.7,3.6,1.8,3.6,3.8c0,2.1-1.4,3.6-3.8,3.8c-0.7,0.1-2.2,0-3.9-0.9L324.6,418.7z"/>
	<path class="st1" d="M333.7,422.1c1.5-3.3,3-6.7,4.5-10h-3.8v-2.4h7.5c-1.5,3.3-3,6.6-4.5,9.9h4.6v2.5H333.7z"/>
	<path class="st1" d="M344.9,422.1v-12.4h6.2v2.5h-3.7v2.5h3.3v2.5h-3.3v2.5h3.9v2.5H344.9z"/>
	<path class="st1" d="M363.4,422.1h-3.7v-12.4h3.7C371.7,409.7,371.7,422.1,363.4,422.1z M362.2,412.2v7.5h1.2c4.8,0,4.8-7.5,0-7.5
		H362.2z"/>
	<path class="st1" d="M376.2,409.2h0.3l5.2,12.9h-2.8l-0.5-1.3h-4.1l-0.5,1.3H371L376.2,409.2z M377.5,418.4l-1.1-3.2l-1.2,3.2
		H377.5z"/>
	<path class="st1" d="M386.4,422.1h-2.5v-12.7h0.7l6.3,7.3v-7h2.5v12.7h-0.7l-6.3-7V422.1z"/>
	<path class="st1" d="M397.1,422.1v-12.4h6.2v2.5h-3.7v2.5h3.3v2.5h-3.3v2.5h3.9v2.5H397.1z"/>
	<path class="st1" d="M407.9,422.2c-1.9,0-1.9-2.8,0-2.8C409.8,419.4,409.7,422.2,407.9,422.2z"/>
	<path class="st1" d="M297.6,431.6v9.9h3.9v2.5h-6.4v-12.4H297.6z"/>
	<path class="st1" d="M304.2,444v-12.4h6.2v2.5h-3.7v2.5h3.3v2.5h-3.3v2.5h3.9v2.5H304.2z"/>
	<path class="st1" d="M313.9,444v-12.4h4.9c4.8,0,4.8,7.7,0,7.7h-2.4v4.7H313.9z M318.6,436.9c1.7,0,1.7-2.8,0-2.8h-2.2v2.8H318.6z"
		/>
	<path class="st1" d="M324.6,440.6c1.4,1,3,1,3.5,1c0.7-0.1,1.4-0.6,1.3-1.3c-0.1-0.7-0.6-1-1.3-1.3c-1.9-0.7-3.7-1.7-3.7-3.8
		s1.4-3.7,3.5-3.8c0.6,0,1.5,0,3.1,0.5l-0.3,2.4c-1.4-0.6-2.2-0.5-2.5-0.5c-0.9,0.1-1.3,0.7-1.2,1.4c0.1,0.7,0.7,1,1.4,1.3
		c1.9,0.7,3.6,1.8,3.6,3.8c0,2.1-1.4,3.6-3.8,3.8c-0.7,0.1-2.2,0-3.9-0.9L324.6,440.6z"/>
	<path class="st1" d="M333.7,444c1.5-3.3,3-6.7,4.5-10h-3.8v-2.4h7.5c-1.5,3.3-3,6.6-4.5,9.9h4.6v2.5H333.7z"/>
	<path class="st1" d="M344.9,444v-12.4h6.2v2.5h-3.7v2.5h3.3v2.5h-3.3v2.5h3.9v2.5H344.9z"/>
	<path class="st1" d="M358.7,444c1.5-3.3,3-6.7,4.5-10h-3.8v-2.4h7.5c-1.5,3.3-3,6.6-4.5,9.9h4.6v2.5H358.7z M363.2,430.6
		c-2,0-2-2.7,0-2.7C365.2,427.9,365.2,430.6,363.2,430.6z"/>
	<path class="st1" d="M371.9,438.4l-4.3-6.8h3l2.5,4.3l2.5-4.3h3l-4.3,6.8v5.6h-2.5V438.4z"/>
	<path class="st1" d="M385.8,434c-4.9,0-4.9,7.6,0,7.6c1.1,0,1.9-0.3,2.4-0.6l0.3,2.6c-0.8,0.3-1.9,0.5-2.7,0.5
		c-8.4,0-8.4-12.6,0-12.6c0.9,0,1.7,0.2,2.5,0.5l-0.3,2.6C387.5,434.3,386.9,434,385.8,434z"/>
	<path class="st1" d="M391.4,444v-12.4h2.5V444H391.4z"/>
	<path class="st1" d="M397.6,444v-12.4h6.2v2.5h-3.7v2.5h3.3v2.5h-3.3v2.5h3.9v2.5H397.6z"/>
	<path class="st1" d="M408.4,444.2c-1.9,0-1.9-2.8,0-2.8C410.3,441.4,410.2,444.2,408.4,444.2z"/>
</g>
<g id="XMLID_150_">
	<path id="XMLID_151_" class="st3" d="M184.3,346c-7.5,0-15-1-22.3-3c-1.3-0.3-2.5-0.7-3.8-1.1c-20.2-6.5-37.2-20.2-47.8-38.7
		c-11.3-19.7-14.3-42.7-8.3-64.6c6-21.9,20.1-40.3,39.8-51.6c12.9-7.4,27.5-11.3,42.2-11.3c7.5,0,15.1,1,22.4,3
		c21.9,6,40.3,20.1,51.6,39.8c9.6,16.7,13.2,35.6,10.4,54.6l-0.1,0.6H260l0.1-0.8c2.8-17.5-0.4-34.9-9.2-50.4
		c-10.2-17.8-26.8-30.6-46.6-36c-6.6-1.8-13.5-2.7-20.3-2.7c-13.3,0-26.5,3.5-38.1,10.2c-17.8,10.2-30.6,26.8-36,46.6
		c-5.4,19.8-2.7,40.6,7.5,58.4c10.2,17.8,26.8,30.6,46.6,36c7.5,2,15.4,2.9,23.2,2.6l0.4-0.1c6.2-0.3,12.5-1.4,18.7-3.2l0.2,0l0.2,0
		c4.8,0.9,9.8,1.4,15,1.4l2.8,0l-2.5,1.2c-4,2-8.2,3.7-12.5,5l-0.2,0.1c-0.2,0.1-0.3,0.2-0.5,0.2C200.9,344.7,192.6,346,184.3,346z"
		/>
</g>
<path id="XMLID_23_" class="st1" d="M214,258c-1-7-7.7-12-15-11c-7.3,1-12.3,7.6-11.3,14.6c1,7.1,7.6,12,14.9,11
	C209.9,271.6,215,265.1,214,258z M201.7,266.2c-3.6,0.5-6.7-1.9-7.2-5.5c-0.5-3.5,1.8-6.8,5.4-7.3c3.6-0.5,6.7,2,7.2,5.5
	C207.7,262.5,205.3,265.7,201.7,266.2z"/>
<path id="XMLID_10_" class="st1" d="M248.5,289.3c-1-7-7.7-12-15-11c-7.3,1-12.3,7.6-11.3,14.6c1,7.1,7.6,12,14.9,11
	C244.4,302.9,249.5,296.4,248.5,289.3z M236.3,297.5c-3.6,0.5-6.7-1.9-7.2-5.4c-0.5-3.5,1.8-6.8,5.4-7.3c3.6-0.5,6.7,2,7.2,5.5
	C242.2,293.8,239.9,297,236.3,297.5z"/>
<g id="XMLID_7_">
	<path id="XMLID_8_" class="st1" d="M199.4,301.7h-10.5l46.7-51.1h10.5L199.4,301.7z"/>
</g>
<path id="XMLID_6_" class="st1" d="M226.4,323.5c-1.4,0.1-2.8,0.1-4.2,0.1c-19.7,0-31.8-7.3-38.6-13.5c-9.5-8.6-14.9-20.7-14.9-33.2
	v-0.7h-8.2v0.7c0,14.8,6.4,29.1,17.5,39.3c7.8,7.1,21.8,15.6,44.1,15.6c2.5,0,5.1-0.1,7.7-0.4L226.4,323.5z"/>
</svg>
