<?xml version="1.0" encoding="utf-8"?>
<!-- Generator: Adobe Illustrator 19.0.0, SVG Export Plug-In . SVG Version: 6.00 Build 0)  -->
<svg version="1.1" id="Layer_1" xmlns="http://www.w3.org/2000/svg" xmlns:xlink="http://www.w3.org/1999/xlink" x="0px" y="0px"
	 viewBox="0 0 612 612" style="enable-background:new 0 0 612 612;" xml:space="preserve">
<metadata><?xpacket begin="﻿" id="W5M0MpCehiHzreSzNTczkc9d"?>
<x:xmpmeta xmlns:x="adobe:ns:meta/" x:xmptk="Adobe XMP Core 5.6-c067 79.157747, 2015/03/30-23:40:42        ">
   <rdf:RDF xmlns:rdf="http://www.w3.org/1999/02/22-rdf-syntax-ns#">
      <rdf:Description rdf:about=""/>
   </rdf:RDF>
</x:xmpmeta>
                                                                                                    
                                                                                                    
                                                                                                    
                                                                                                    
                                                                                                    
                                                                                                    
                                                                                                    
                                                                                                    
                                                                                                    
                                                                                                    
                                                                                                    
                                                                                                    
                                                                                                    
                                                                                                    
                                                                                                    
                                                                                                    
                                                                                                    
                                                                                                    
                                                                                                    
                                                                                                    
                           
<?xpacket end="w"?></metadata>
<style type="text/css">
	.st0{fill:#0083BF;}
	.st1{fill:#FFFFFF;}
	.st2{fill:#90CEF1;}
	.st3{fill:#74C1EC;}
</style>
<rect class="st0" width="612" height="612"/>
<g>
	<path class="st1" d="M307,285.1v11.5c0,0.8,0,2.1,1,3c0.6,0.6,1.5,0.9,2.4,0.9s1.8-0.3,2.3-0.8c1.2-1,1.1-2.4,1.1-3.5v-11h5v11.1
		c0,2-0.1,4.1-2.2,6.3c-1.6,1.7-3.7,2.4-6.4,2.4c-3,0-5.2-1-6.4-2.3c-1.7-1.8-1.9-4.3-1.9-6.4v-11.1H307z M305.3,282.7
		c-0.5-0.5-0.7-1.2-0.7-1.7c0-0.9,0.5-1.5,0.8-1.8c0.3-0.3,0.8-0.8,1.7-0.8c0.7,0,1.3,0.3,1.7,0.7c0.5,0.5,0.8,1.2,0.8,1.8
		c0,0.6-0.3,1.2-0.8,1.8c-0.6,0.6-1.2,0.8-1.8,0.8C306.4,283.5,305.8,283.2,305.3,282.7z M311.9,282.7c-0.5-0.5-0.7-1.2-0.7-1.7
		c0-0.9,0.5-1.5,0.8-1.8c0.3-0.3,0.8-0.8,1.7-0.8c0.7,0,1.3,0.3,1.7,0.7c0.5,0.5,0.8,1.2,0.8,1.8c0,0.6-0.3,1.2-0.8,1.8
		c-0.6,0.6-1.2,0.8-1.8,0.8C313,283.5,312.4,283.2,311.9,282.7z"/>
	<path class="st1" d="M321.7,304.5l3.3-19.4h5l3.9,10.3l4.2-10.3h5l2.9,19.4h-5l-1.4-11.1l-4.7,11.1h-2l-4.5-11.1l-1.7,11.1H321.7z"
		/>
	<path class="st1" d="M353.9,285.1v11.5c0,0.8,0,2.1,1,3c0.6,0.6,1.5,0.9,2.4,0.9s1.8-0.3,2.3-0.8c1.2-1,1.1-2.4,1.1-3.5v-11h5v11.1
		c0,2-0.1,4.1-2.2,6.3c-1.6,1.7-3.7,2.4-6.4,2.4c-3,0-5.2-1-6.4-2.3c-1.7-1.8-1.9-4.3-1.9-6.4v-11.1H353.9z"/>
	<path class="st1" d="M368.6,304.5l3.3-19.4h5l3.9,10.3l4.2-10.3h5l2.9,19.4h-5l-1.4-11.1l-4.7,11.1h-2l-4.5-11.1l-1.7,11.1H368.6z"
		/>
	<path class="st1" d="M396.1,304.5v-19.4h6.6c1.9,0,5.2,0.3,7.7,2.7c2.3,2.2,2.7,5,2.7,7.1c0,2.6-0.6,4.8-2.5,6.7
		c-1.5,1.5-4.1,2.9-7.4,2.9H396.1z M401.1,300.2h1c1.2,0,2.9-0.1,4.2-1.4c0.6-0.6,1.5-1.8,1.5-4c0-1.8-0.6-3.3-1.5-4.2
		c-1.2-1.1-2.8-1.2-4-1.2h-1.2V300.2z"/>
	<path class="st1" d="M421.2,285.1v11.5c0,0.8,0,2.1,1,3c0.6,0.6,1.5,0.9,2.4,0.9s1.8-0.3,2.3-0.8c1.2-1,1.1-2.4,1.1-3.5v-11h5v11.1
		c0,2-0.1,4.1-2.2,6.3c-1.6,1.7-3.7,2.4-6.4,2.4c-3,0-5.2-1-6.4-2.3c-1.7-1.8-1.9-4.3-1.9-6.4v-11.1H421.2z M419.6,282.7
		c-0.5-0.5-0.7-1.2-0.7-1.7c0-0.9,0.5-1.5,0.8-1.8c0.3-0.3,0.8-0.8,1.7-0.8c0.7,0,1.3,0.3,1.7,0.7c0.5,0.5,0.8,1.2,0.8,1.8
		c0,0.6-0.3,1.2-0.8,1.8c-0.6,0.6-1.2,0.8-1.8,0.8C420.6,283.5,420,283.2,419.6,282.7z M426.1,282.7c-0.5-0.5-0.7-1.2-0.7-1.7
		c0-0.9,0.5-1.5,0.8-1.8c0.3-0.3,0.8-0.8,1.7-0.8c0.7,0,1.3,0.3,1.7,0.7c0.5,0.5,0.8,1.2,0.8,1.8c0,0.6-0.3,1.2-0.8,1.8
		c-0.6,0.6-1.2,0.8-1.8,0.8C427.2,283.5,426.6,283.2,426.1,282.7z"/>
	<path class="st1" d="M437.3,304.5v-19.4h5l9.3,11.8v-11.8h5v19.4h-5l-9.3-11.8v11.8H437.3z"/>
	<path class="st1" d="M465.4,295.2l-7-10.1h6l3.7,5.3l3.5-5.3h6.1l-7.2,10.1v9.3h-5V295.2z"/>
	<path class="st1" d="M489.1,301.2h-7l-1.3,3.3h-5.3l7.4-19.4h5.5l7.3,19.4h-5.4L489.1,301.2z M487.7,297.4l-2.2-6.3l-2.1,6.3H487.7
		z"/>
	<path class="st1" d="M303.3,331.3c1.1,1,2.7,2,4.4,2c1,0,1.6-0.3,1.9-0.7c0.3-0.3,0.5-0.7,0.5-1.2c0-0.4-0.1-0.8-0.6-1.2
		c-0.5-0.4-1.2-0.6-2.5-1l-1.3-0.4c-0.8-0.3-2-0.7-2.8-1.6c-1-1.1-1.1-2.4-1.1-3.4c0-2.4,0.9-3.8,1.8-4.7c1-1,2.6-1.8,5-1.8
		c1.9,0,4.2,0.6,6,1.6l-2,3.9c-1.5-1.2-2.6-1.3-3.3-1.3c-0.5,0-1.2,0.1-1.7,0.6c-0.3,0.3-0.5,0.6-0.5,1c0,0.3,0.1,0.6,0.3,0.9
		c0.1,0.2,0.5,0.5,1.7,0.9l1.5,0.5c1.2,0.4,2.5,0.8,3.5,1.9c1,1,1.2,2.1,1.2,3.5c0,1.8-0.4,3.5-1.8,4.9c-1.7,1.7-3.7,2-5.7,2
		c-1.2,0-2.4-0.1-3.8-0.6c-0.3-0.1-1.5-0.6-2.9-1.5L303.3,331.3z"/>
	<path class="st1" d="M325.8,322v15.1h-5V322h-4.1v-4.3H330v4.3H325.8z"/>
	<path class="st1" d="M342.6,333.9h-7l-1.3,3.3H329l7.4-19.4h5.5l7.3,19.4h-5.4L342.6,333.9z M341.3,330.1l-2.2-6.3l-2.1,6.3H341.3z
		"/>
	<path class="st1" d="M357.5,322v15.1h-5V322h-4.1v-4.3h13.3v4.3H357.5z"/>
	<path class="st1" d="M364.4,315.4c-0.3-0.3-0.8-0.9-0.8-1.8c0-0.8,0.3-1.5,0.8-1.9c0.5-0.5,1.2-0.8,1.9-0.8s1.4,0.3,1.9,0.8
		c0.4,0.4,0.8,1.1,0.8,1.9c0,0.7-0.2,1.3-0.8,1.9c-0.6,0.6-1.2,0.8-1.9,0.8C365.6,316.1,364.9,315.9,364.4,315.4z M368.8,317.8v19.4
		h-5v-19.4H368.8z"/>
	<path class="st1" d="M374,331.3c1.1,1,2.7,2,4.4,2c1,0,1.6-0.3,1.9-0.7c0.3-0.3,0.5-0.7,0.5-1.2c0-0.4-0.1-0.8-0.6-1.2
		c-0.5-0.4-1.2-0.6-2.5-1l-1.3-0.4c-0.8-0.3-2-0.7-2.8-1.6c-1-1.1-1.1-2.4-1.1-3.4c0-2.4,0.9-3.8,1.8-4.7c1-1,2.6-1.8,5-1.8
		c1.9,0,4.2,0.6,6,1.6l-2,3.9c-1.5-1.2-2.6-1.3-3.3-1.3c-0.5,0-1.2,0.1-1.7,0.6c-0.3,0.3-0.5,0.6-0.5,1c0,0.3,0.1,0.6,0.3,0.9
		c0.1,0.2,0.5,0.5,1.7,0.9l1.5,0.5c1.2,0.4,2.5,0.8,3.5,1.9c1,1,1.2,2.1,1.2,3.5c0,1.8-0.4,3.5-1.8,4.9c-1.7,1.7-3.7,2-5.7,2
		c-1.2,0-2.4-0.1-3.8-0.6c-0.3-0.1-1.5-0.6-2.9-1.5L374,331.3z"/>
	<path class="st1" d="M396.5,322v15.1h-5V322h-4.1v-4.3h13.3v4.3H396.5z"/>
	<path class="st1" d="M403.4,315.4c-0.3-0.3-0.8-0.9-0.8-1.8c0-0.8,0.3-1.5,0.8-1.9c0.5-0.5,1.2-0.8,1.9-0.8s1.4,0.3,1.9,0.8
		c0.4,0.4,0.8,1.1,0.8,1.9c0,0.7-0.2,1.3-0.8,1.9c-0.6,0.6-1.2,0.8-1.9,0.8C404.6,316.1,403.9,315.9,403.4,315.4z M407.8,317.8v19.4
		h-5v-19.4H407.8z"/>
	<path class="st1" d="M417,325.8l6.2-8h6.2l-7.7,9.2l8.4,10.2h-6.5l-6.6-8.4v8.4h-5v-19.4h5V325.8z"/>
	<path class="st1" d="M445,333.9h-7l-1.3,3.3h-5.3l7.4-19.4h5.5l7.3,19.4h-5.4L445,333.9z M443.6,330.1l-2.2-6.3l-2.1,6.3H443.6z"/>
	<path class="st1" d="M311.3,358.8h10c0,3.8-0.8,6.6-3.1,8.7c-2,1.9-4.4,2.4-6.8,2.4c-3.5,0-5.9-1.3-7.4-2.9c-1.5-1.5-2.8-3.8-2.8-7
		c0-3.1,1.2-5.6,2.9-7.3c1.6-1.6,4.1-2.8,7.5-2.8c1.8,0,3.7,0.4,5.2,1.3c1.5,0.9,2.8,2.5,3.5,4l-4.8,2c-0.3-0.9-0.9-1.5-1.4-1.9
		c-0.8-0.7-1.7-1-2.7-1c-1.2,0-2.4,0.4-3.3,1.3c-1.1,1.1-1.7,2.9-1.7,4.4c0,1.8,0.6,3.2,1.5,4.2c0.9,1,2.1,1.5,3.5,1.5
		c0.9,0,1.9-0.1,2.8-0.9c0.5-0.4,1-1.1,1.2-2.1h-4.1V358.8z"/>
	<path class="st1" d="M329.4,350.4v11.5c0,0.8,0,2.1,1,3c0.6,0.6,1.5,0.9,2.4,0.9s1.8-0.3,2.3-0.8c1.2-1,1.1-2.4,1.1-3.5v-11h5v11.1
		c0,2-0.1,4.1-2.2,6.3c-1.6,1.7-3.7,2.4-6.4,2.4c-3,0-5.2-1-6.4-2.3c-1.7-1.8-1.9-4.3-1.9-6.4v-11.1H329.4z M327.7,348
		c-0.5-0.5-0.7-1.2-0.7-1.7c0-0.9,0.5-1.5,0.8-1.8c0.3-0.3,0.8-0.8,1.7-0.8c0.7,0,1.3,0.3,1.7,0.7c0.5,0.5,0.8,1.2,0.8,1.8
		c0,0.6-0.3,1.2-0.8,1.8c-0.6,0.6-1.2,0.8-1.8,0.8C328.7,348.8,328.1,348.5,327.7,348z M334.3,348c-0.5-0.5-0.7-1.2-0.7-1.7
		c0-0.9,0.5-1.5,0.8-1.8c0.3-0.3,0.8-0.8,1.7-0.8c0.7,0,1.3,0.3,1.7,0.7c0.5,0.5,0.8,1.2,0.8,1.8c0,0.6-0.3,1.2-0.8,1.8
		c-0.6,0.6-1.2,0.8-1.8,0.8C335.3,348.8,334.7,348.5,334.3,348z"/>
	<path class="st1" d="M345.4,369.8v-19.4h5l9.3,11.8v-11.8h5v19.4h-5l-9.3-11.8v11.8H345.4z"/>
	<path class="st1" d="M373.9,350.4v11.5c0,0.8,0,2.1,1,3c0.6,0.6,1.5,0.9,2.4,0.9s1.8-0.3,2.3-0.8c1.2-1,1.1-2.4,1.1-3.5v-11h5v11.1
		c0,2-0.1,4.1-2.2,6.3c-1.6,1.7-3.7,2.4-6.4,2.4c-3,0-5.2-1-6.4-2.3c-1.7-1.8-1.9-4.3-1.9-6.4v-11.1H373.9z M372.2,348
		c-0.5-0.5-0.7-1.2-0.7-1.7c0-0.9,0.5-1.5,0.8-1.8c0.3-0.3,0.8-0.8,1.7-0.8c0.7,0,1.3,0.3,1.7,0.7c0.5,0.5,0.8,1.2,0.8,1.8
		c0,0.6-0.3,1.2-0.8,1.8c-0.6,0.6-1.2,0.8-1.8,0.8C373.3,348.8,372.7,348.5,372.2,348z M378.8,348c-0.5-0.5-0.7-1.2-0.7-1.7
		c0-0.9,0.5-1.5,0.8-1.8c0.3-0.3,0.8-0.8,1.7-0.8c0.7,0,1.3,0.3,1.7,0.7c0.5,0.5,0.8,1.2,0.8,1.8c0,0.6-0.3,1.2-0.8,1.8
		c-0.6,0.6-1.2,0.8-1.8,0.8C379.9,348.8,379.3,348.5,378.8,348z"/>
	<path class="st2" d="M306.1,388.7c0-0.8-0.6-1.4-1.5-1.4c-1.3-0.1-2.8,0.7-3.3,1.1l-0.7-2.8c1.1-0.8,2.8-1.4,4.2-1.3
		c4.2,0.2,5.6,3.9,3.2,7.2l-2.8,4.4h4.2v2.9h-9.4l5.3-8.5C306.2,389.3,306.1,388.7,306.1,388.7z"/>
	<path class="st2" d="M311.9,391.7c0-4.1,1.4-7.3,4.9-7.3c3.6,0,4.9,3.3,4.9,7.3c0,4.1-1.4,7.3-4.9,7.3
		C313.3,399,311.9,395.7,311.9,391.7z M318.9,391.7c0-2.6-0.5-4.7-2.2-4.7c-1.6,0-2.1,2.1-2.1,4.7c0,2.6,0.5,4.7,2.1,4.7
		C318.4,396.3,318.9,394.2,318.9,391.7z"/>
	<path class="st2" d="M325.4,398.9c-2.2,0-2.2-3.2,0-3.2C327.6,395.7,327.5,398.9,325.4,398.9z"/>
	<path class="st2" d="M328.6,384.6h5.2v14.3h-2.8v-11.4h-2.3V384.6z"/>
	<path class="st2" d="M336.9,391.7c0-4.1,1.4-7.3,4.9-7.3c3.6,0,4.9,3.3,4.9,7.3c0,4.1-1.4,7.3-4.9,7.3
		C338.3,399,336.9,395.7,336.9,391.7z M344,391.7c0-2.6-0.5-4.7-2.2-4.7c-1.6,0-2.1,2.1-2.1,4.7c0,2.6,0.5,4.7,2.1,4.7
		C343.4,396.3,344,394.2,344,391.7z"/>
	<path class="st2" d="M350.4,398.9c-2.2,0-2.2-3.2,0-3.2C352.6,395.7,352.6,398.9,350.4,398.9z"/>
	<path class="st2" d="M360.1,388.7c0-0.8-0.6-1.4-1.5-1.4c-1.3-0.1-2.8,0.7-3.3,1.1l-0.7-2.8c1.1-0.8,2.8-1.4,4.2-1.3
		c4.2,0.2,5.6,3.9,3.2,7.2l-2.8,4.4h4.2v2.9h-9.4l5.3-8.5C360.2,389.3,360.1,388.7,360.1,388.7z"/>
	<path class="st2" d="M365.9,391.7c0-4.1,1.4-7.3,4.9-7.3c3.6,0,4.9,3.3,4.9,7.3c0,4.1-1.4,7.3-4.9,7.3
		C367.2,399,365.9,395.7,365.9,391.7z M372.9,391.7c0-2.6-0.5-4.7-2.2-4.7c-1.6,0-2.1,2.1-2.1,4.7c0,2.6,0.5,4.7,2.1,4.7
		C372.4,396.3,372.9,394.2,372.9,391.7z"/>
	<path class="st2" d="M377.5,384.6h5.2v14.3h-2.8v-11.4h-2.3V384.6z"/>
	<path class="st2" d="M394.5,394.6c0,2.4-1.6,4.2-4.3,4.3c-0.7,0-2.7,0-4.6-0.6l0.3-2.8c4.4,1.5,5.7,0.3,5.7-0.9
		c0-1.7-1.1-2.2-5.4-2.5v-7.5h7.3v2.7h-4.4v2.5C392.7,390.1,394.5,391.3,394.5,394.6z"/>
	<path class="st1" d="M301.2,429v-12.1h4.1c1.2,0,3.2,0.2,4.8,1.7c1.4,1.4,1.7,3.1,1.7,4.4c0,1.6-0.4,3-1.6,4.2
		c-1,1-2.6,1.8-4.6,1.8H301.2z M304.4,426.3h0.6c0.8,0,1.8-0.1,2.6-0.9c0.4-0.4,0.9-1.1,0.9-2.5c0-1.1-0.3-2.1-0.9-2.6
		c-0.7-0.7-1.7-0.8-2.5-0.8h-0.8V426.3z"/>
	<path class="st1" d="M321.3,426.9h-4.4l-0.8,2h-3.3l4.6-12.1h3.4l4.6,12.1H322L321.3,426.9z M320.5,424.6l-1.4-3.9l-1.3,3.9H320.5z
		"/>
	<path class="st1" d="M330.5,421.4h4.5v-4.5h3.2V429H335v-4.9h-4.5v4.9h-3.1v-12.1h3.1V421.4z"/>
	<path class="st1" d="M348.6,426.9h-4.4l-0.8,2h-3.3l4.6-12.1h3.4l4.6,12.1h-3.4L348.6,426.9z M347.8,424.6l-1.4-3.9l-1.3,3.9H347.8
		z"/>
	<path class="st1" d="M364,419.5v9.4h-3.1v-9.4h-2.6v-2.7h8.3v2.7H364z"/>
	<path class="st1" d="M368.3,420.3c0.5-1.3,1.4-2.2,2.3-2.7c0.8-0.5,2-1,3.6-1c2.1,0,3.7,0.8,4.6,1.8c1,1.1,1.7,2.6,1.7,4.5
		c0,2.2-0.8,3.7-1.7,4.6c-1.5,1.6-3.3,1.8-4.7,1.8c-1.4,0-3-0.2-4.3-1.6c-1.5-1.5-1.8-3.6-1.8-5.1v-0.3h9.3
		c-0.1-0.9-0.6-1.5-0.9-1.8c-0.7-0.6-1.5-0.9-2.4-0.9c-0.6,0-1,0.1-1.5,0.4c-0.4,0.2-0.7,0.5-1,0.9L368.3,420.3z M371.3,424.3
		c0.1,0.8,0.5,1.3,0.8,1.5c0.6,0.6,1.4,0.7,2.1,0.7c0.7,0,1.4-0.1,2.1-0.7c0.4-0.3,0.8-0.8,1-1.6H371.3z"/>
	<path class="st1" d="M386.3,421.9l3.8-5h3.9l-4.8,5.7l5.2,6.4h-4.1l-4.1-5.2v5.2h-3.1v-12.1h3.1V421.9z"/>
	<path class="st1" d="M396.2,429l2-12.1h3.1l2.4,6.5l2.6-6.5h3.1l1.8,12.1h-3.1l-0.9-7l-2.9,7h-1.3l-2.8-7l-1,7H396.2z"/>
	<path class="st1" d="M414.4,415.4c-0.2-0.2-0.5-0.6-0.5-1.1c0-0.5,0.2-0.9,0.5-1.2c0.3-0.3,0.7-0.5,1.2-0.5s0.9,0.2,1.2,0.5
		c0.3,0.3,0.5,0.7,0.5,1.2c0,0.4-0.1,0.8-0.5,1.2c-0.4,0.3-0.8,0.5-1.2,0.5C415.1,415.9,414.7,415.7,414.4,415.4z M417.1,416.9V429
		H414v-12.1H417.1z"/>
	<path class="st1" d="M423.5,416.9v9.4h3.8v2.7h-6.9v-12.1H423.5z"/>
	<path class="st1" d="M435,425.4c0.7,0.6,1.7,1.2,2.8,1.2c0.6,0,1-0.2,1.2-0.4c0.2-0.2,0.3-0.5,0.3-0.8c0-0.2-0.1-0.5-0.3-0.7
		c-0.3-0.3-0.8-0.4-1.6-0.6l-0.8-0.3c-0.5-0.2-1.3-0.4-1.7-1c-0.6-0.7-0.7-1.5-0.7-2.1c0-1.5,0.6-2.4,1.1-2.9
		c0.6-0.6,1.6-1.1,3.1-1.1c1.2,0,2.6,0.4,3.7,1l-1.3,2.4c-0.9-0.7-1.7-0.8-2.1-0.8c-0.3,0-0.7,0.1-1,0.4c-0.2,0.2-0.3,0.4-0.3,0.7
		c0,0.2,0,0.4,0.2,0.5c0.1,0.1,0.3,0.3,1.1,0.5l1,0.3c0.8,0.2,1.6,0.5,2.2,1.2c0.6,0.7,0.8,1.3,0.8,2.2c0,1.1-0.3,2.2-1.1,3
		c-1,1-2.3,1.2-3.6,1.2c-0.8,0-1.5-0.1-2.4-0.4c-0.2-0.1-1-0.4-1.8-1L435,425.4z"/>
	<path class="st1" d="M449.7,419.5v9.4h-3.1v-9.4H444v-2.7h8.3v2.7H449.7z"/>
	<path class="st1" d="M460.9,426.9h-4.4l-0.8,2h-3.3l4.6-12.1h3.4L465,429h-3.4L460.9,426.9z M460.1,424.6l-1.4-3.9l-1.3,3.9H460.1z
		"/>
	<path class="st1" d="M470.8,419.5v9.4h-3.1v-9.4h-2.6v-2.7h8.3v2.7H470.8z"/>
	<path class="st1" d="M475.8,415.4c-0.2-0.2-0.5-0.6-0.5-1.1c0-0.5,0.2-0.9,0.5-1.2c0.3-0.3,0.7-0.5,1.2-0.5s0.9,0.2,1.2,0.5
		c0.3,0.3,0.5,0.7,0.5,1.2c0,0.4-0.1,0.8-0.5,1.2c-0.4,0.3-0.8,0.5-1.2,0.5C476.5,415.9,476.1,415.7,475.8,415.4z M478.5,416.9V429
		h-3.1v-12.1H478.5z"/>
	<path class="st1" d="M482.4,425.4c0.7,0.6,1.7,1.2,2.8,1.2c0.6,0,1-0.2,1.2-0.4c0.2-0.2,0.3-0.5,0.3-0.8c0-0.2-0.1-0.5-0.3-0.7
		c-0.3-0.3-0.8-0.4-1.6-0.6l-0.8-0.3c-0.5-0.2-1.3-0.4-1.7-1c-0.6-0.7-0.7-1.5-0.7-2.1c0-1.5,0.6-2.4,1.1-2.9
		c0.6-0.6,1.6-1.1,3.1-1.1c1.2,0,2.6,0.4,3.7,1l-1.3,2.4c-0.9-0.7-1.7-0.8-2.1-0.8c-0.3,0-0.7,0.1-1,0.4c-0.2,0.2-0.3,0.4-0.3,0.7
		c0,0.2,0,0.4,0.2,0.5c0.1,0.1,0.3,0.3,1.1,0.5l1,0.3c0.8,0.2,1.6,0.5,2.2,1.2c0.6,0.7,0.8,1.3,0.8,2.2c0,1.1-0.3,2.2-1.1,3
		c-1,1-2.3,1.2-3.6,1.2c-0.8,0-1.5-0.1-2.4-0.4c-0.2-0.1-1-0.4-1.8-1L482.4,425.4z"/>
	<path class="st1" d="M497.1,419.5v9.4h-3.1v-9.4h-2.6v-2.7h8.3v2.7H497.1z"/>
	<path class="st1" d="M502,415.4c-0.2-0.2-0.5-0.6-0.5-1.1c0-0.5,0.2-0.9,0.5-1.2c0.3-0.3,0.7-0.5,1.2-0.5s0.9,0.2,1.2,0.5
		c0.3,0.3,0.5,0.7,0.5,1.2c0,0.4-0.1,0.8-0.5,1.2c-0.4,0.3-0.8,0.5-1.2,0.5C502.7,415.9,502.3,415.7,502,415.4z M504.7,416.9V429
		h-3.1v-12.1H504.7z"/>
	<path class="st1" d="M511.1,421.9l3.8-5h3.9l-4.8,5.7l5.2,6.4h-4.1l-4.1-5.2v5.2H508v-12.1h3.1V421.9z"/>
	<path class="st1" d="M529.2,426.9h-4.4l-0.8,2h-3.3l4.6-12.1h3.4l4.6,12.1h-3.4L529.2,426.9z M528.4,424.6l-1.4-3.9l-1.3,3.9H528.4
		z"/>
	<path class="st1" d="M536,428.8c-0.2-0.2-0.6-0.7-0.6-1.3c0-0.7,0.3-1.1,0.6-1.3c0.4-0.4,0.9-0.6,1.3-0.6c0.5,0,0.9,0.2,1.3,0.6
		c0.3,0.3,0.5,0.7,0.5,1.3s-0.2,1-0.5,1.3c-0.4,0.4-0.9,0.6-1.3,0.6C536.9,429.3,536.4,429.2,536,428.8z"/>
	<path class="st1" d="M301.2,450.8v-12.1h4.1c1.2,0,3.2,0.2,4.8,1.7c1.4,1.4,1.7,3.1,1.7,4.4c0,1.6-0.4,3-1.6,4.2
		c-1,1-2.6,1.8-4.6,1.8H301.2z M304.4,448.1h0.6c0.8,0,1.8-0.1,2.6-0.9c0.4-0.4,0.9-1.1,0.9-2.5c0-1.1-0.3-2.1-0.9-2.6
		c-0.7-0.7-1.7-0.8-2.5-0.8h-0.8V448.1z"/>
	<path class="st1" d="M321.3,448.7h-4.4l-0.8,2h-3.3l4.6-12.1h3.4l4.6,12.1H322L321.3,448.7z M320.5,446.3l-1.4-3.9l-1.3,3.9H320.5z
		"/>
	<path class="st1" d="M330.5,443.2h4.5v-4.5h3.2v12.1H335v-4.9h-4.5v4.9h-3.1v-12.1h3.1V443.2z"/>
	<path class="st1" d="M348.6,448.7h-4.4l-0.8,2h-3.3l4.6-12.1h3.4l4.6,12.1h-3.4L348.6,448.7z M347.8,446.3l-1.4-3.9l-1.3,3.9H347.8
		z"/>
	<path class="st1" d="M362.4,444.9l-4.4-6.3h3.8l2.3,3.3l2.2-3.3h3.8l-4.5,6.3v5.8h-3.2V444.9z"/>
	<path class="st1" d="M377.8,448.7h-4.4l-0.8,2h-3.3l4.6-12.1h3.4l4.6,12.1h-3.4L377.8,448.7z M376.9,446.3l-1.4-3.9l-1.3,3.9H376.9
		z"/>
	<path class="st1" d="M387.9,444.3l-3.9-5.6h3.9l1.8,3.1l1.9-3.1h3.9l-3.9,5.6l4.6,6.5h-3.8l-2.6-3.9l-2.7,3.9h-3.8L387.9,444.3z"/>
	<path class="st1" d="M398.8,447.1c0.7,0.6,1.7,1.2,2.8,1.2c0.6,0,1-0.2,1.2-0.4c0.2-0.2,0.3-0.5,0.3-0.8c0-0.2-0.1-0.5-0.3-0.7
		c-0.3-0.3-0.8-0.4-1.6-0.6l-0.8-0.3c-0.5-0.2-1.3-0.4-1.7-1c-0.6-0.7-0.7-1.5-0.7-2.1c0-1.5,0.6-2.4,1.1-2.9
		c0.6-0.6,1.6-1.1,3.1-1.1c1.2,0,2.6,0.4,3.7,1l-1.3,2.4c-0.9-0.7-1.7-0.8-2.1-0.8c-0.3,0-0.7,0.1-1,0.4c-0.2,0.2-0.3,0.4-0.3,0.7
		c0,0.2,0,0.4,0.2,0.5c0.1,0.1,0.3,0.3,1.1,0.5l1,0.3c0.8,0.2,1.6,0.5,2.2,1.2c0.6,0.7,0.8,1.3,0.8,2.2c0,1.1-0.3,2.2-1.1,3
		c-1,1-2.3,1.2-3.6,1.2c-0.8,0-1.5-0.1-2.4-0.4c-0.2-0.1-1-0.4-1.8-1L398.8,447.1z M403.5,452.4l-2.1,2.6l-1.7-0.7l1.7-2.7
		L403.5,452.4z"/>
	<path class="st1" d="M412.2,438.6v12.1H409v-12.1H412.2z"/>
	<path class="st1" d="M423.2,443.2h4.5v-4.5h3.2v12.1h-3.2v-4.9h-4.5v4.9h-3.1v-12.1h3.1V443.2z"/>
	<path class="st1" d="M433.8,442.1c0.5-1.3,1.4-2.2,2.3-2.7c0.8-0.5,2-1,3.6-1c2.1,0,3.7,0.8,4.6,1.8c1,1.1,1.7,2.6,1.7,4.5
		c0,2.2-0.8,3.7-1.7,4.6c-1.5,1.6-3.3,1.8-4.7,1.8c-1.4,0-3-0.2-4.3-1.6c-1.5-1.5-1.8-3.6-1.8-5.1V444h9.3c-0.1-0.9-0.6-1.5-0.9-1.8
		c-0.7-0.6-1.5-0.9-2.4-0.9c-0.6,0-1,0.1-1.5,0.4c-0.4,0.2-0.7,0.5-1,0.9L433.8,442.1z M436.8,446c0.1,0.8,0.5,1.3,0.8,1.5
		c0.6,0.6,1.4,0.7,2.1,0.7c0.7,0,1.4-0.1,2.1-0.7c0.4-0.3,0.8-0.8,1-1.6H436.8z"/>
	<path class="st1" d="M450.7,444.9l-4.4-6.3h3.8l2.3,3.3l2.2-3.3h3.8l-4.5,6.3v5.8h-3.2V444.9z"/>
	<path class="st1" d="M466.1,448.7h-4.4l-0.8,2h-3.3l4.6-12.1h3.4l4.6,12.1h-3.4L466.1,448.7z M465.2,446.3l-1.4-3.9l-1.3,3.9H465.2
		z"/>
	<path class="st1" d="M476,441.3v9.4h-3.1v-9.4h-2.6v-2.7h8.3v2.7H476z"/>
	<path class="st1" d="M480.2,450.5c-0.2-0.2-0.6-0.7-0.6-1.3c0-0.7,0.3-1.1,0.6-1.3c0.4-0.4,0.9-0.6,1.3-0.6c0.5,0,0.9,0.2,1.3,0.6
		c0.3,0.3,0.5,0.7,0.5,1.3s-0.2,1-0.5,1.3c-0.4,0.4-0.9,0.6-1.3,0.6C481.1,451.1,480.6,451,480.2,450.5z"/>
</g>
<g>
	<path class="st3" d="M185.6,349.5c-7.9,0-15.7-1.1-23.3-3.1c-1.3-0.4-2.6-0.8-4-1.2c-21.1-6.8-38.8-21.1-49.9-40.4
		c-11.8-20.6-14.9-44.6-8.7-67.5c6.2-22.9,21-42,41.6-53.8c13.5-7.7,28.7-11.8,44-11.8c7.9,0,15.7,1.1,23.4,3.1
		c22.9,6.2,42,21,53.8,41.6c10,17.5,13.8,37.2,10.8,57l-0.1,0.6h-8.7l0.1-0.8c3-18.3-0.4-36.5-9.6-52.6c-10.7-18.6-28-32-48.7-37.6
		c-6.9-1.9-14.1-2.8-21.2-2.8c-13.9,0-27.6,3.7-39.8,10.7c-18.6,10.7-32,27.9-37.6,48.7c-5.6,20.7-2.8,42.4,7.8,61
		c10.7,18.6,27.9,32,48.7,37.6c7.8,2.1,16.1,3,24.3,2.7l0.4-0.1c6.5-0.3,13.1-1.4,19.6-3.4l0.2,0l0.2,0c5,1,10.3,1.5,15.7,1.5l2.9,0
		l-2.6,1.3c-4.2,2.1-8.6,3.8-13,5.2l-0.2,0.1c-0.2,0.1-0.3,0.2-0.5,0.2C203.1,348.2,194.4,349.5,185.6,349.5z"/>
</g>
<path class="st1" d="M216.7,257.6c-1-7.3-8-12.5-15.6-11.5c-7.6,1.1-12.8,8-11.8,15.3c1,7.4,7.9,12.5,15.5,11.5
	C212.4,271.9,217.8,265,216.7,257.6z M203.9,266.2c-3.8,0.5-7-1.9-7.5-5.7c-0.5-3.7,1.9-7.1,5.7-7.6c3.8-0.5,7,2.1,7.6,5.8
	C210.1,262.4,207.7,265.6,203.9,266.2z"/>
<path class="st1" d="M252.8,290.3c-1-7.3-8-12.5-15.6-11.5c-7.6,1.1-12.8,8-11.8,15.3c1,7.4,7.9,12.5,15.5,11.5
	C248.5,304.6,253.8,297.7,252.8,290.3z M239.9,298.8c-3.8,0.5-7-1.9-7.5-5.7c-0.5-3.7,1.9-7.1,5.7-7.6c3.8-0.5,7,2.1,7.6,5.8
	C246.2,295.1,243.7,298.3,239.9,298.8z"/>
<g>
	<path class="st1" d="M201.5,303.2h-11l48.8-53.3h11L201.5,303.2z"/>
</g>
<path class="st1" d="M229.6,326c-1.5,0.1-3,0.2-4.4,0.2c-20.6,0-33.2-7.6-40.3-14.1c-9.9-9-15.5-21.7-15.5-34.7v-0.7h-8.5v0.7
	c0,15.4,6.7,30.4,18.3,41c8.2,7.4,22.7,16.3,46,16.3c2.6,0,5.3-0.1,8.1-0.4L229.6,326z"/>
</svg>
