<?xml version="1.0" encoding="utf-8"?>
<!-- Generator: Adobe Illustrator 19.0.0, SVG Export Plug-In . SVG Version: 6.00 Build 0)  -->
<svg version="1.1" id="Layer_1" xmlns="http://www.w3.org/2000/svg" xmlns:xlink="http://www.w3.org/1999/xlink" x="0px" y="0px"
	 viewBox="0 0 612 612" style="enable-background:new 0 0 612 612;" xml:space="preserve">
<metadata><?xpacket begin="﻿" id="W5M0MpCehiHzreSzNTczkc9d"?>
<x:xmpmeta xmlns:x="adobe:ns:meta/" x:xmptk="Adobe XMP Core 5.6-c067 79.157747, 2015/03/30-23:40:42        ">
   <rdf:RDF xmlns:rdf="http://www.w3.org/1999/02/22-rdf-syntax-ns#">
      <rdf:Description rdf:about=""/>
   </rdf:RDF>
</x:xmpmeta>
                                                                                                    
                                                                                                    
                                                                                                    
                                                                                                    
                                                                                                    
                                                                                                    
                                                                                                    
                                                                                                    
                                                                                                    
                                                                                                    
                                                                                                    
                                                                                                    
                                                                                                    
                                                                                                    
                                                                                                    
                                                                                                    
                                                                                                    
                                                                                                    
                                                                                                    
                                                                                                    
                           
<?xpacket end="w"?></metadata>
<style type="text/css">
	.st0{fill:#FFFFFF;stroke:#000000;stroke-miterlimit:10;}
	.st1{fill:#0083BF;}
	.st2{fill:#59AFE1;}
	.st3{fill:#74C1EC;}
</style>
<rect class="st0" width="612" height="612"/>
<g>
	<g>
		<path class="st1" d="M304.5,286.2v11.5c0,0.8,0,2.1,1,3c0.6,0.6,1.5,0.9,2.4,0.9s1.8-0.3,2.3-0.8c1.2-1,1.1-2.4,1.1-3.5v-11h5
			v11.1c0,2-0.1,4.1-2.2,6.3c-1.6,1.7-3.7,2.4-6.4,2.4c-3,0-5.2-1-6.4-2.3c-1.7-1.8-1.9-4.3-1.9-6.4v-11.1H304.5z M302.8,283.8
			c-0.5-0.5-0.7-1.2-0.7-1.7c0-0.9,0.5-1.5,0.8-1.8c0.3-0.3,0.8-0.8,1.7-0.8c0.7,0,1.3,0.3,1.7,0.7c0.5,0.5,0.8,1.2,0.8,1.8
			c0,0.6-0.3,1.2-0.8,1.8c-0.6,0.6-1.2,0.8-1.8,0.8C303.8,284.6,303.3,284.3,302.8,283.8z M309.4,283.8c-0.5-0.5-0.7-1.2-0.7-1.7
			c0-0.9,0.5-1.5,0.8-1.8c0.3-0.3,0.8-0.8,1.7-0.8c0.7,0,1.3,0.3,1.7,0.7c0.5,0.5,0.8,1.2,0.8,1.8c0,0.6-0.3,1.2-0.8,1.8
			c-0.6,0.6-1.2,0.8-1.8,0.8C310.4,284.6,309.8,284.3,309.4,283.8z"/>
		<path class="st1" d="M319.1,305.6l3.3-19.4h5l3.9,10.3l4.2-10.3h5l2.9,19.4h-5l-1.4-11.1l-4.7,11.1h-2l-4.5-11.1l-1.7,11.1H319.1z
			"/>
		<path class="st1" d="M351.3,286.2v11.5c0,0.8,0,2.1,1,3c0.6,0.6,1.5,0.9,2.4,0.9s1.8-0.3,2.3-0.8c1.2-1,1.1-2.4,1.1-3.5v-11h5
			v11.1c0,2-0.1,4.1-2.2,6.3c-1.6,1.7-3.7,2.4-6.4,2.4c-3,0-5.2-1-6.4-2.3c-1.7-1.8-1.9-4.3-1.9-6.4v-11.1H351.3z"/>
		<path class="st1" d="M366,305.6l3.3-19.4h5l3.9,10.3l4.2-10.3h5l2.9,19.4h-5l-1.4-11.1l-4.7,11.1h-2l-4.5-11.1l-1.7,11.1H366z"/>
		<path class="st1" d="M393.5,305.6v-19.4h6.6c1.9,0,5.2,0.3,7.7,2.7c2.3,2.2,2.7,5,2.7,7.1c0,2.6-0.6,4.8-2.5,6.7
			c-1.5,1.5-4.1,2.9-7.4,2.9H393.5z M398.5,301.3h1c1.2,0,2.9-0.1,4.2-1.4c0.6-0.6,1.5-1.8,1.5-4c0-1.8-0.6-3.3-1.5-4.2
			c-1.2-1.1-2.8-1.2-4-1.2h-1.2V301.3z"/>
		<path class="st1" d="M418.7,286.2v11.5c0,0.8,0,2.1,1,3c0.6,0.6,1.5,0.9,2.4,0.9s1.8-0.3,2.3-0.8c1.2-1,1.1-2.4,1.1-3.5v-11h5
			v11.1c0,2-0.1,4.1-2.2,6.3c-1.6,1.7-3.7,2.4-6.4,2.4c-3,0-5.2-1-6.4-2.3c-1.7-1.8-1.9-4.3-1.9-6.4v-11.1H418.7z M417,283.8
			c-0.5-0.5-0.7-1.2-0.7-1.7c0-0.9,0.5-1.5,0.8-1.8c0.3-0.3,0.8-0.8,1.7-0.8c0.7,0,1.3,0.3,1.7,0.7c0.5,0.5,0.8,1.2,0.8,1.8
			c0,0.6-0.3,1.2-0.8,1.8c-0.6,0.6-1.2,0.8-1.8,0.8C418,284.6,417.5,284.3,417,283.8z M423.6,283.8c-0.5-0.5-0.7-1.2-0.7-1.7
			c0-0.9,0.5-1.5,0.8-1.8c0.3-0.3,0.8-0.8,1.7-0.8c0.7,0,1.3,0.3,1.7,0.7c0.5,0.5,0.8,1.2,0.8,1.8c0,0.6-0.3,1.2-0.8,1.8
			c-0.6,0.6-1.2,0.8-1.8,0.8C424.6,284.6,424.1,284.3,423.6,283.8z"/>
		<path class="st1" d="M434.7,305.6v-19.4h5l9.3,11.8v-11.8h5v19.4h-5l-9.3-11.8v11.8H434.7z"/>
		<path class="st1" d="M462.9,296.3l-7-10.1h6l3.7,5.3l3.5-5.3h6.1l-7.2,10.1v9.3h-5V296.3z"/>
		<path class="st1" d="M486.5,302.3h-7l-1.3,3.3h-5.3l7.4-19.4h5.5l7.3,19.4h-5.4L486.5,302.3z M485.2,298.5l-2.2-6.3l-2.1,6.3
			H485.2z"/>
		<path class="st1" d="M300.7,332.4c1.1,1,2.7,2,4.4,2c1,0,1.6-0.3,1.9-0.7c0.3-0.3,0.5-0.7,0.5-1.2c0-0.4-0.1-0.8-0.6-1.2
			c-0.5-0.4-1.2-0.6-2.5-1l-1.3-0.4c-0.8-0.3-2-0.7-2.8-1.6c-1-1.1-1.1-2.4-1.1-3.4c0-2.4,0.9-3.8,1.8-4.7c1-1,2.6-1.8,5-1.8
			c1.9,0,4.2,0.6,6,1.6l-2,3.9c-1.5-1.2-2.6-1.3-3.3-1.3c-0.5,0-1.2,0.1-1.7,0.6c-0.3,0.3-0.5,0.6-0.5,1c0,0.3,0.1,0.6,0.3,0.9
			c0.1,0.2,0.5,0.5,1.7,0.9l1.5,0.5c1.2,0.4,2.5,0.8,3.5,1.9c1,1,1.2,2.1,1.2,3.5c0,1.8-0.4,3.5-1.8,4.9c-1.7,1.7-3.7,2-5.7,2
			c-1.2,0-2.4-0.1-3.8-0.6c-0.3-0.1-1.5-0.6-2.9-1.5L300.7,332.4z"/>
		<path class="st1" d="M323.2,323.1v15.1h-5v-15.1h-4.1v-4.3h13.3v4.3H323.2z"/>
		<path class="st1" d="M340.1,335h-7l-1.3,3.3h-5.3l7.4-19.4h5.5l7.3,19.4h-5.4L340.1,335z M338.8,331.1l-2.2-6.3l-2.1,6.3H338.8z"
			/>
		<path class="st1" d="M354.9,323.1v15.1h-5v-15.1h-4.1v-4.3h13.3v4.3H354.9z"/>
		<path class="st1" d="M361.9,316.5c-0.3-0.3-0.8-0.9-0.8-1.8c0-0.8,0.3-1.5,0.8-1.9c0.5-0.5,1.2-0.8,1.9-0.8s1.4,0.3,1.9,0.8
			c0.4,0.4,0.8,1.1,0.8,1.9c0,0.7-0.2,1.3-0.8,1.9c-0.6,0.6-1.2,0.8-1.9,0.8C363,317.2,362.4,317,361.9,316.5z M366.2,318.9v19.4h-5
			v-19.4H366.2z"/>
		<path class="st1" d="M371.5,332.4c1.1,1,2.7,2,4.4,2c1,0,1.6-0.3,1.9-0.7c0.3-0.3,0.5-0.7,0.5-1.2c0-0.4-0.1-0.8-0.6-1.2
			c-0.5-0.4-1.2-0.6-2.5-1l-1.3-0.4c-0.8-0.3-2-0.7-2.8-1.6c-1-1.1-1.1-2.4-1.1-3.4c0-2.4,0.9-3.8,1.8-4.7c1-1,2.6-1.8,5-1.8
			c1.9,0,4.2,0.6,6,1.6l-2,3.9c-1.5-1.2-2.6-1.3-3.3-1.3c-0.5,0-1.2,0.1-1.7,0.6c-0.3,0.3-0.5,0.6-0.5,1c0,0.3,0.1,0.6,0.3,0.9
			c0.1,0.2,0.5,0.5,1.7,0.9l1.5,0.5c1.2,0.4,2.5,0.8,3.5,1.9c1,1,1.2,2.1,1.2,3.5c0,1.8-0.4,3.5-1.8,4.9c-1.7,1.7-3.7,2-5.7,2
			c-1.2,0-2.4-0.1-3.8-0.6c-0.3-0.1-1.5-0.6-2.9-1.5L371.5,332.4z"/>
		<path class="st1" d="M394,323.1v15.1h-5v-15.1h-4.1v-4.3h13.3v4.3H394z"/>
		<path class="st1" d="M400.9,316.5c-0.3-0.3-0.8-0.9-0.8-1.8c0-0.8,0.3-1.5,0.8-1.9c0.5-0.5,1.2-0.8,1.9-0.8s1.4,0.3,1.9,0.8
			c0.4,0.4,0.8,1.1,0.8,1.9c0,0.7-0.2,1.3-0.8,1.9c-0.6,0.6-1.2,0.8-1.9,0.8C402,317.2,401.4,317,400.9,316.5z M405.2,318.9v19.4h-5
			v-19.4H405.2z"/>
		<path class="st1" d="M414.5,326.9l6.2-8h6.2l-7.7,9.2l8.4,10.2H421l-6.6-8.4v8.4h-5v-19.4h5V326.9z"/>
		<path class="st1" d="M442.4,335h-7l-1.3,3.3h-5.3l7.4-19.4h5.5l7.3,19.4h-5.4L442.4,335z M441.1,331.1l-2.2-6.3l-2.1,6.3H441.1z"
			/>
		<path class="st1" d="M308.7,359.9h10c0,3.8-0.8,6.6-3.1,8.7c-2,1.9-4.4,2.4-6.8,2.4c-3.5,0-5.9-1.3-7.4-2.9
			c-1.5-1.5-2.8-3.8-2.8-7c0-3.1,1.2-5.6,2.9-7.3c1.6-1.6,4.1-2.8,7.5-2.8c1.8,0,3.7,0.4,5.2,1.3c1.5,0.9,2.8,2.5,3.5,4l-4.8,2
			c-0.3-0.9-0.9-1.5-1.4-1.9c-0.8-0.7-1.7-1-2.7-1c-1.2,0-2.4,0.4-3.3,1.3c-1.1,1.1-1.7,2.9-1.7,4.4c0,1.8,0.6,3.2,1.5,4.2
			c0.9,1,2.1,1.5,3.5,1.5c0.9,0,1.9-0.1,2.8-0.9c0.5-0.4,1-1.1,1.2-2.1h-4.1V359.9z"/>
		<path class="st1" d="M326.8,351.5V363c0,0.8,0,2.1,1,3c0.6,0.6,1.5,0.9,2.4,0.9s1.8-0.3,2.3-0.8c1.2-1,1.1-2.4,1.1-3.5v-11h5v11.1
			c0,2-0.1,4.1-2.2,6.3c-1.6,1.7-3.7,2.4-6.4,2.4c-3,0-5.2-1-6.4-2.3c-1.7-1.8-1.9-4.3-1.9-6.4v-11.1H326.8z M325.1,349.1
			c-0.5-0.5-0.7-1.2-0.7-1.7c0-0.9,0.5-1.5,0.8-1.8c0.3-0.3,0.8-0.8,1.7-0.8c0.7,0,1.3,0.3,1.7,0.7c0.5,0.5,0.8,1.2,0.8,1.8
			c0,0.6-0.3,1.2-0.8,1.8c-0.6,0.6-1.2,0.8-1.8,0.8C326.2,349.9,325.6,349.6,325.1,349.1z M331.7,349.1c-0.5-0.5-0.7-1.2-0.7-1.7
			c0-0.9,0.5-1.5,0.8-1.8c0.3-0.3,0.8-0.8,1.7-0.8c0.7,0,1.3,0.3,1.7,0.7c0.5,0.5,0.8,1.2,0.8,1.8c0,0.6-0.3,1.2-0.8,1.8
			c-0.6,0.6-1.2,0.8-1.8,0.8C332.8,349.9,332.2,349.6,331.7,349.1z"/>
		<path class="st1" d="M342.8,370.9v-19.4h5l9.3,11.8v-11.8h5v19.4h-5l-9.3-11.8v11.8H342.8z"/>
		<path class="st1" d="M371.4,351.5V363c0,0.8,0,2.1,1,3c0.6,0.6,1.5,0.9,2.4,0.9s1.8-0.3,2.3-0.8c1.2-1,1.1-2.4,1.1-3.5v-11h5v11.1
			c0,2-0.1,4.1-2.2,6.3c-1.6,1.7-3.7,2.4-6.4,2.4c-3,0-5.2-1-6.4-2.3c-1.7-1.8-1.9-4.3-1.9-6.4v-11.1H371.4z M369.7,349.1
			c-0.5-0.5-0.7-1.2-0.7-1.7c0-0.9,0.5-1.5,0.8-1.8c0.3-0.3,0.8-0.8,1.7-0.8c0.7,0,1.3,0.3,1.7,0.7c0.5,0.5,0.8,1.2,0.8,1.8
			c0,0.6-0.3,1.2-0.8,1.8c-0.6,0.6-1.2,0.8-1.8,0.8C370.7,349.9,370.2,349.6,369.7,349.1z M376.3,349.1c-0.5-0.5-0.7-1.2-0.7-1.7
			c0-0.9,0.5-1.5,0.8-1.8c0.3-0.3,0.8-0.8,1.7-0.8c0.7,0,1.3,0.3,1.7,0.7c0.5,0.5,0.8,1.2,0.8,1.8c0,0.6-0.3,1.2-0.8,1.8
			c-0.6,0.6-1.2,0.8-1.8,0.8C377.3,349.9,376.7,349.6,376.3,349.1z"/>
		<path class="st2" d="M303.6,389.8c0-0.8-0.6-1.4-1.5-1.4c-1.3-0.1-2.8,0.7-3.3,1.1l-0.7-2.8c1.1-0.8,2.8-1.4,4.2-1.3
			c4.2,0.2,5.6,3.9,3.2,7.2l-2.8,4.4h4.2v2.9h-9.4l5.3-8.5C303.6,390.4,303.6,389.8,303.6,389.8z"/>
		<path class="st2" d="M309.3,392.8c0-4.1,1.4-7.3,4.9-7.3c3.6,0,4.9,3.3,4.9,7.3c0,4.1-1.4,7.3-4.9,7.3
			C310.7,400.1,309.3,396.8,309.3,392.8z M316.4,392.8c0-2.6-0.5-4.7-2.2-4.7c-1.6,0-2.1,2.1-2.1,4.7c0,2.6,0.5,4.7,2.1,4.7
			C315.8,397.4,316.4,395.3,316.4,392.8z"/>
		<path class="st2" d="M322.8,400c-2.2,0-2.2-3.2,0-3.2C325,396.8,325,400,322.8,400z"/>
		<path class="st2" d="M326,385.7h5.2v14.3h-2.8v-11.4H326V385.7z"/>
		<path class="st2" d="M334.4,392.8c0-4.1,1.4-7.3,4.9-7.3c3.6,0,4.9,3.3,4.9,7.3c0,4.1-1.4,7.3-4.9,7.3
			C335.7,400.1,334.4,396.8,334.4,392.8z M341.4,392.8c0-2.6-0.5-4.7-2.2-4.7c-1.6,0-2.1,2.1-2.1,4.7c0,2.6,0.5,4.7,2.1,4.7
			C340.9,397.4,341.4,395.3,341.4,392.8z"/>
		<path class="st2" d="M347.9,400c-2.2,0-2.2-3.2,0-3.2C350.1,396.8,350,400,347.9,400z"/>
		<path class="st2" d="M357.6,389.8c0-0.8-0.6-1.4-1.5-1.4c-1.3-0.1-2.8,0.7-3.3,1.1l-0.7-2.8c1.1-0.8,2.8-1.4,4.2-1.3
			c4.2,0.2,5.6,3.9,3.2,7.2l-2.8,4.4h4.2v2.9h-9.4l5.3-8.5C357.6,390.4,357.6,389.8,357.6,389.8z"/>
		<path class="st2" d="M363.3,392.8c0-4.1,1.4-7.3,4.9-7.3c3.6,0,4.9,3.3,4.9,7.3c0,4.1-1.4,7.3-4.9,7.3
			C364.7,400.1,363.3,396.8,363.3,392.8z M370.4,392.8c0-2.6-0.5-4.7-2.2-4.7c-1.6,0-2.1,2.1-2.1,4.7c0,2.6,0.5,4.7,2.1,4.7
			C369.8,397.4,370.4,395.3,370.4,392.8z"/>
		<path class="st2" d="M374.9,385.7h5.2v14.3h-2.8v-11.4h-2.3V385.7z"/>
		<path class="st2" d="M392,395.7c0,2.4-1.6,4.2-4.3,4.3c-0.7,0-2.7,0-4.6-0.6l0.3-2.8c4.4,1.5,5.7,0.3,5.7-0.9
			c0-1.7-1.1-2.2-5.4-2.5v-7.5h7.3v2.7h-4.4v2.5C390.1,391.2,392,392.4,392,395.7z"/>
		<path class="st1" d="M298.7,430.1V418h4.1c1.2,0,3.2,0.2,4.8,1.7c1.4,1.4,1.7,3.1,1.7,4.4c0,1.6-0.4,3-1.6,4.2
			c-1,1-2.6,1.8-4.6,1.8H298.7z M301.8,427.4h0.6c0.8,0,1.8-0.1,2.6-0.9c0.4-0.4,0.9-1.1,0.9-2.5c0-1.1-0.3-2.1-0.9-2.6
			c-0.7-0.7-1.7-0.8-2.5-0.8h-0.8V427.4z"/>
		<path class="st1" d="M318.7,428h-4.4l-0.8,2h-3.3l4.6-12.1h3.4l4.6,12.1h-3.4L318.7,428z M317.9,425.7l-1.4-3.9l-1.3,3.9H317.9z"
			/>
		<path class="st1" d="M327.9,422.5h4.5V418h3.2v12.1h-3.2v-4.9h-4.5v4.9h-3.1V418h3.1V422.5z"/>
		<path class="st1" d="M346.1,428h-4.4l-0.8,2h-3.3l4.6-12.1h3.4l4.6,12.1h-3.4L346.1,428z M345.2,425.7l-1.4-3.9l-1.3,3.9H345.2z"
			/>
		<path class="st1" d="M361.5,420.6v9.4h-3.1v-9.4h-2.6V418h8.3v2.7H361.5z"/>
		<path class="st1" d="M365.8,421.4c0.5-1.3,1.4-2.2,2.3-2.7c0.8-0.5,2-1,3.6-1c2.1,0,3.7,0.8,4.6,1.8c1,1.1,1.7,2.6,1.7,4.5
			c0,2.2-0.8,3.7-1.7,4.6c-1.5,1.6-3.3,1.8-4.7,1.8c-1.4,0-3-0.2-4.3-1.6c-1.5-1.5-1.8-3.6-1.8-5.1v-0.3h9.3
			c-0.1-0.9-0.6-1.5-0.9-1.8c-0.7-0.6-1.5-0.9-2.4-0.9c-0.6,0-1,0.1-1.5,0.4c-0.4,0.2-0.7,0.5-1,0.9L365.8,421.4z M368.7,425.4
			c0.1,0.8,0.5,1.3,0.8,1.5c0.6,0.6,1.4,0.7,2.1,0.7c0.7,0,1.4-0.1,2.1-0.7c0.4-0.3,0.8-0.8,1-1.6H368.7z"/>
		<path class="st1" d="M383.8,423l3.8-5h3.9l-4.8,5.7l5.2,6.4h-4.1l-4.1-5.2v5.2h-3.1V418h3.1V423z"/>
		<path class="st1" d="M393.6,430.1l2-12.1h3.1l2.4,6.5l2.6-6.5h3.1l1.8,12.1h-3.1l-0.9-7l-2.9,7h-1.3l-2.8-7l-1,7H393.6z"/>
		<path class="st1" d="M411.8,416.5c-0.2-0.2-0.5-0.6-0.5-1.1c0-0.5,0.2-0.9,0.5-1.2c0.3-0.3,0.7-0.5,1.2-0.5s0.9,0.2,1.2,0.5
			c0.3,0.3,0.5,0.7,0.5,1.2c0,0.4-0.1,0.8-0.5,1.2c-0.4,0.3-0.8,0.5-1.2,0.5C412.6,417,412.2,416.8,411.8,416.5z M414.6,418v12.1
			h-3.1V418H414.6z"/>
		<path class="st1" d="M421,418v9.4h3.8v2.7h-6.9V418H421z"/>
		<path class="st1" d="M432.5,426.4c0.7,0.6,1.7,1.2,2.8,1.2c0.6,0,1-0.2,1.2-0.4c0.2-0.2,0.3-0.5,0.3-0.8c0-0.2-0.1-0.5-0.3-0.7
			c-0.3-0.3-0.8-0.4-1.6-0.6l-0.8-0.3c-0.5-0.2-1.3-0.4-1.7-1c-0.6-0.7-0.7-1.5-0.7-2.1c0-1.5,0.6-2.4,1.1-2.9
			c0.6-0.6,1.6-1.1,3.1-1.1c1.2,0,2.6,0.4,3.7,1l-1.3,2.4c-0.9-0.7-1.7-0.8-2.1-0.8c-0.3,0-0.7,0.1-1,0.4c-0.2,0.2-0.3,0.4-0.3,0.7
			c0,0.2,0,0.4,0.2,0.5c0.1,0.1,0.3,0.3,1.1,0.5l1,0.3c0.8,0.2,1.6,0.5,2.2,1.2c0.6,0.7,0.8,1.3,0.8,2.2c0,1.1-0.3,2.2-1.1,3
			c-1,1-2.3,1.2-3.6,1.2c-0.8,0-1.5-0.1-2.4-0.4c-0.2-0.1-1-0.4-1.8-1L432.5,426.4z"/>
		<path class="st1" d="M447.2,420.6v9.4H444v-9.4h-2.6V418h8.3v2.7H447.2z"/>
		<path class="st1" d="M458.3,428H454l-0.8,2h-3.3l4.6-12.1h3.4l4.6,12.1h-3.4L458.3,428z M457.5,425.7l-1.4-3.9l-1.3,3.9H457.5z"/>
		<path class="st1" d="M468.3,420.6v9.4h-3.1v-9.4h-2.6V418h8.3v2.7H468.3z"/>
		<path class="st1" d="M473.2,416.5c-0.2-0.2-0.5-0.6-0.5-1.1c0-0.5,0.2-0.9,0.5-1.2c0.3-0.3,0.7-0.5,1.2-0.5s0.9,0.2,1.2,0.5
			c0.3,0.3,0.5,0.7,0.5,1.2c0,0.4-0.1,0.8-0.5,1.2c-0.4,0.3-0.8,0.5-1.2,0.5C473.9,417,473.5,416.8,473.2,416.5z M475.9,418v12.1
			h-3.1V418H475.9z"/>
		<path class="st1" d="M479.8,426.4c0.7,0.6,1.7,1.2,2.8,1.2c0.6,0,1-0.2,1.2-0.4c0.2-0.2,0.3-0.5,0.3-0.8c0-0.2-0.1-0.5-0.3-0.7
			c-0.3-0.3-0.8-0.4-1.6-0.6l-0.8-0.3c-0.5-0.2-1.3-0.4-1.7-1c-0.6-0.7-0.7-1.5-0.7-2.1c0-1.5,0.6-2.4,1.1-2.9
			c0.6-0.6,1.6-1.1,3.1-1.1c1.2,0,2.6,0.4,3.7,1l-1.3,2.4c-0.9-0.7-1.7-0.8-2.1-0.8c-0.3,0-0.7,0.1-1,0.4c-0.2,0.2-0.3,0.4-0.3,0.7
			c0,0.2,0,0.4,0.2,0.5c0.1,0.1,0.3,0.3,1.1,0.5l1,0.3c0.8,0.2,1.6,0.5,2.2,1.2c0.6,0.7,0.8,1.3,0.8,2.2c0,1.1-0.3,2.2-1.1,3
			c-1,1-2.3,1.2-3.6,1.2c-0.8,0-1.5-0.1-2.4-0.4c-0.2-0.1-1-0.4-1.8-1L479.8,426.4z"/>
		<path class="st1" d="M494.5,420.6v9.4h-3.1v-9.4h-2.6V418h8.3v2.7H494.5z"/>
		<path class="st1" d="M499.5,416.5c-0.2-0.2-0.5-0.6-0.5-1.1c0-0.5,0.2-0.9,0.5-1.2c0.3-0.3,0.7-0.5,1.2-0.5s0.9,0.2,1.2,0.5
			c0.3,0.3,0.5,0.7,0.5,1.2c0,0.4-0.1,0.8-0.5,1.2c-0.4,0.3-0.8,0.5-1.2,0.5C500.2,417,499.8,416.8,499.5,416.5z M502.2,418v12.1
			h-3.1V418H502.2z"/>
		<path class="st1" d="M508.6,423l3.8-5h3.9l-4.8,5.7l5.2,6.4h-4.1l-4.1-5.2v5.2h-3.1V418h3.1V423z"/>
		<path class="st1" d="M526.7,428h-4.4l-0.8,2h-3.3l4.6-12.1h3.4l4.6,12.1h-3.4L526.7,428z M525.8,425.7l-1.4-3.9l-1.3,3.9H525.8z"
			/>
		<path class="st1" d="M533.4,429.9c-0.2-0.2-0.6-0.7-0.6-1.3c0-0.7,0.3-1.1,0.6-1.3c0.4-0.4,0.9-0.6,1.3-0.6c0.5,0,0.9,0.2,1.3,0.6
			c0.3,0.3,0.5,0.7,0.5,1.3s-0.2,1-0.5,1.3c-0.4,0.4-0.9,0.6-1.3,0.6C534.3,430.4,533.9,430.3,533.4,429.9z"/>
		<path class="st1" d="M298.7,451.8v-12.1h4.1c1.2,0,3.2,0.2,4.8,1.7c1.4,1.4,1.7,3.1,1.7,4.4c0,1.6-0.4,3-1.6,4.2
			c-1,1-2.6,1.8-4.6,1.8H298.7z M301.8,449.2h0.6c0.8,0,1.8-0.1,2.6-0.9c0.4-0.4,0.9-1.1,0.9-2.5c0-1.1-0.3-2.1-0.9-2.6
			c-0.7-0.7-1.7-0.8-2.5-0.8h-0.8V449.2z"/>
		<path class="st1" d="M318.7,449.8h-4.4l-0.8,2h-3.3l4.6-12.1h3.4l4.6,12.1h-3.4L318.7,449.8z M317.9,447.4l-1.4-3.9l-1.3,3.9
			H317.9z"/>
		<path class="st1" d="M327.9,444.3h4.5v-4.5h3.2v12.1h-3.2V447h-4.5v4.9h-3.1v-12.1h3.1V444.3z"/>
		<path class="st1" d="M346.1,449.8h-4.4l-0.8,2h-3.3l4.6-12.1h3.4l4.6,12.1h-3.4L346.1,449.8z M345.2,447.4l-1.4-3.9l-1.3,3.9
			H345.2z"/>
		<path class="st1" d="M359.8,446l-4.4-6.3h3.8l2.3,3.3l2.2-3.3h3.8L363,446v5.8h-3.2V446z"/>
		<path class="st1" d="M375.2,449.8h-4.4l-0.8,2h-3.3l4.6-12.1h3.4l4.6,12.1H376L375.2,449.8z M374.4,447.4l-1.4-3.9l-1.3,3.9H374.4
			z"/>
		<path class="st1" d="M385.4,445.4l-3.9-5.6h3.9l1.8,3.1l1.9-3.1h3.9l-3.9,5.6l4.6,6.5h-3.8l-2.6-3.9l-2.7,3.9h-3.8L385.4,445.4z"
			/>
		<path class="st1" d="M396.2,448.2c0.7,0.6,1.7,1.2,2.8,1.2c0.6,0,1-0.2,1.2-0.4c0.2-0.2,0.3-0.5,0.3-0.8c0-0.2-0.1-0.5-0.3-0.7
			c-0.3-0.3-0.8-0.4-1.6-0.6l-0.8-0.3c-0.5-0.2-1.3-0.4-1.7-1c-0.6-0.7-0.7-1.5-0.7-2.1c0-1.5,0.6-2.4,1.1-2.9
			c0.6-0.6,1.6-1.1,3.1-1.1c1.2,0,2.6,0.4,3.7,1l-1.3,2.4c-0.9-0.7-1.7-0.8-2.1-0.8c-0.3,0-0.7,0.1-1,0.4c-0.2,0.2-0.3,0.4-0.3,0.7
			c0,0.2,0,0.4,0.2,0.5c0.1,0.1,0.3,0.3,1.1,0.5l1,0.3c0.8,0.2,1.6,0.5,2.2,1.2c0.6,0.7,0.8,1.3,0.8,2.2c0,1.1-0.3,2.2-1.1,3
			c-1,1-2.3,1.2-3.6,1.2c-0.8,0-1.5-0.1-2.4-0.4c-0.2-0.1-1-0.4-1.8-1L396.2,448.2z M400.9,453.5l-2.1,2.6l-1.7-0.7l1.7-2.7
			L400.9,453.5z"/>
		<path class="st1" d="M409.6,439.7v12.1h-3.1v-12.1H409.6z"/>
		<path class="st1" d="M420.7,444.3h4.5v-4.5h3.2v12.1h-3.2V447h-4.5v4.9h-3.1v-12.1h3.1V444.3z"/>
		<path class="st1" d="M431.3,443.2c0.5-1.3,1.4-2.2,2.3-2.7c0.8-0.5,2-1,3.6-1c2.1,0,3.7,0.8,4.6,1.8c1,1.1,1.7,2.6,1.7,4.5
			c0,2.2-0.8,3.7-1.7,4.6c-1.5,1.6-3.3,1.8-4.7,1.8c-1.4,0-3-0.2-4.3-1.6c-1.5-1.5-1.8-3.6-1.8-5.1v-0.3h9.3
			c-0.1-0.9-0.6-1.5-0.9-1.8c-0.7-0.6-1.5-0.9-2.4-0.9c-0.6,0-1,0.1-1.5,0.4c-0.4,0.2-0.7,0.5-1,0.9L431.3,443.2z M434.3,447.1
			c0.1,0.8,0.5,1.3,0.8,1.5c0.6,0.6,1.4,0.7,2.1,0.7c0.7,0,1.4-0.1,2.1-0.7c0.4-0.3,0.8-0.8,1-1.6H434.3z"/>
		<path class="st1" d="M448.1,446l-4.4-6.3h3.8l2.3,3.3l2.2-3.3h3.8l-4.5,6.3v5.8h-3.2V446z"/>
		<path class="st1" d="M463.5,449.8h-4.4l-0.8,2H455l4.6-12.1h3.4l4.6,12.1h-3.4L463.5,449.8z M462.7,447.4l-1.4-3.9l-1.3,3.9H462.7
			z"/>
		<path class="st1" d="M473.4,442.4v9.4h-3.1v-9.4h-2.6v-2.7h8.3v2.7H473.4z"/>
		<path class="st1" d="M477.7,451.6c-0.2-0.2-0.6-0.7-0.6-1.3c0-0.7,0.3-1.1,0.6-1.3c0.4-0.4,0.9-0.6,1.3-0.6c0.5,0,0.9,0.2,1.3,0.6
			c0.3,0.3,0.5,0.7,0.5,1.3s-0.2,1-0.5,1.3c-0.4,0.4-0.9,0.6-1.3,0.6C478.6,452.2,478.1,452.1,477.7,451.6z"/>
	</g>
</g>
<g>
	<path class="st3" d="M183.1,350.6c-7.9,0-15.7-1.1-23.3-3.1c-1.3-0.4-2.6-0.8-4-1.2c-21.1-6.8-38.8-21.1-49.9-40.4
		c-11.8-20.6-14.9-44.6-8.7-67.5c6.2-22.9,21-42,41.6-53.8c13.5-7.7,28.7-11.8,44-11.8c7.9,0,15.7,1.1,23.4,3.1
		c22.9,6.2,42,21,53.8,41.6c10,17.5,13.8,37.2,10.8,57l-0.1,0.6h-8.7l0.1-0.8c3-18.3-0.4-36.5-9.6-52.6c-10.7-18.6-28-32-48.7-37.6
		c-6.9-1.9-14.1-2.8-21.2-2.8c-13.9,0-27.6,3.7-39.8,10.7c-18.6,10.7-32,27.9-37.6,48.7c-5.6,20.7-2.8,42.4,7.8,61
		c10.7,18.6,27.9,32,48.7,37.6c7.8,2.1,16.1,3,24.3,2.7l0.4-0.1c6.5-0.3,13.1-1.4,19.6-3.4l0.2,0l0.2,0c5,1,10.3,1.5,15.7,1.5l2.9,0
		l-2.6,1.3c-4.2,2.1-8.6,3.8-13,5.2l-0.2,0.1c-0.2,0.1-0.3,0.2-0.5,0.2C200.5,349.3,191.8,350.6,183.1,350.6z"/>
</g>
<path class="st1" d="M214.2,258.7c-1-7.3-8-12.5-15.6-11.5c-7.6,1.1-12.8,8-11.8,15.3c1,7.4,7.9,12.5,15.5,11.5
	C209.9,273,215.2,266.1,214.2,258.7z M201.3,267.3c-3.8,0.5-7-1.9-7.5-5.7c-0.5-3.7,1.9-7.1,5.7-7.6c3.8-0.5,7,2.1,7.6,5.8
	C207.6,263.5,205.1,266.7,201.3,267.3z"/>
<path class="st1" d="M250.2,291.4c-1-7.3-8-12.5-15.6-11.5c-7.6,1.1-12.8,8-11.8,15.3c1,7.4,7.9,12.5,15.5,11.5
	C245.9,305.6,251.2,298.8,250.2,291.4z M237.4,299.9c-3.8,0.5-7-1.9-7.5-5.7c-0.5-3.7,1.9-7.1,5.7-7.6c3.8-0.5,7,2.1,7.6,5.8
	C243.6,296.2,241.1,299.4,237.4,299.9z"/>
<g>
	<path class="st1" d="M198.9,304.3h-11l48.8-53.3h11L198.9,304.3z"/>
</g>
<path class="st1" d="M227.1,327.1c-1.5,0.1-3,0.2-4.4,0.2c-20.6,0-33.2-7.6-40.3-14.1c-9.9-9-15.5-21.7-15.5-34.7v-0.7h-8.5v0.7
	c0,15.4,6.7,30.4,18.3,41c8.2,7.4,22.7,16.3,46,16.3c2.6,0,5.3-0.1,8.1-0.4L227.1,327.1z"/>
</svg>
