<?xml version="1.0" encoding="utf-8"?>
<!-- Generator: Adobe Illustrator 19.0.0, SVG Export Plug-In . SVG Version: 6.00 Build 0)  -->
<svg version="1.1" id="Layer_1" xmlns="http://www.w3.org/2000/svg" xmlns:xlink="http://www.w3.org/1999/xlink" x="0px" y="0px"
	 viewBox="0 0 612 612" style="enable-background:new 0 0 612 612;" xml:space="preserve">
<metadata><?xpacket begin="﻿" id="W5M0MpCehiHzreSzNTczkc9d"?>
<x:xmpmeta xmlns:x="adobe:ns:meta/" x:xmptk="Adobe XMP Core 5.6-c067 79.157747, 2015/03/30-23:40:42        ">
   <rdf:RDF xmlns:rdf="http://www.w3.org/1999/02/22-rdf-syntax-ns#">
      <rdf:Description rdf:about=""/>
   </rdf:RDF>
</x:xmpmeta>
                                                                                                    
                                                                                                    
                                                                                                    
                                                                                                    
                                                                                                    
                                                                                                    
                                                                                                    
                                                                                                    
                                                                                                    
                                                                                                    
                                                                                                    
                                                                                                    
                                                                                                    
                                                                                                    
                                                                                                    
                                                                                                    
                                                                                                    
                                                                                                    
                                                                                                    
                                                                                                    
                           
<?xpacket end="w"?></metadata>
<style type="text/css">
	.st0{fill:#0083BF;}
	.st1{fill:#FFFFFF;}
	.st2{fill:#90CEF1;}
	.st3{fill:#74C1EC;}
</style>
<rect y="0" class="st0" width="612" height="612"/>
<g id="XMLID_1_">
	<path id="XMLID_148_" class="st1" d="M296.9,305.4l-8.1-20.3h4.5l4,10.1l3.9-10h0.2l3.9,10l4-10.1h4.5l-8.1,20.2h-0.7l-3.6-8.8
		l-3.6,8.9H296.9z"/>
	<path id="XMLID_146_" class="st1" d="M316,305v-19.9h10v4h-6v4h5.2v4H320v4h6.3v4H316z"/>
	<path id="XMLID_144_" class="st1" d="M334.8,285.1V301h6.3v4h-10.3v-19.9H334.8z"/>
	<path id="XMLID_142_" class="st1" d="M346,305v-15.9h-4.9v-3.9h13.9v3.9H350V305H346z"/>
	<path id="XMLID_15_" class="st1" d="M356.3,293.6h10.1v3.7h-10.1V293.6z"/>
	<path id="XMLID_17_" class="st1" d="M370.2,299.5c2.3,1.6,4.8,1.7,5.7,1.6c1.2-0.1,2.2-0.9,2.1-2c-0.1-1.1-0.9-1.6-2.1-2
		c-3.1-1.1-5.9-2.7-5.9-6.1c0-3.3,2.3-5.9,5.6-6.1c1-0.1,2.4-0.1,4.9,0.8l-0.5,3.8c-2.2-0.9-3.4-0.9-4.1-0.8c-1.4,0.1-2.1,1.1-2,2.2
		c0.1,1.1,1.1,1.6,2.2,2c3.1,1.1,5.8,2.9,5.8,6.1c0,3.3-2.3,5.8-6,6c-1.1,0.1-3.6-0.1-6.3-1.4L370.2,299.5z"/>
	<path id="XMLID_13_" class="st1" d="M388,305v-15.9H383v-3.9h13.9v3.9H392V305H388z"/>
	<path id="XMLID_22_" class="st1" d="M405,284.4h0.4l8.4,20.6h-4.5l-0.8-2.1h-6.6l-0.8,2.1h-4.5L405,284.4z M407,299.1l-1.8-5.2
		l-1.9,5.2H407z"/>
	<path id="XMLID_2_" class="st1" d="M418.2,305v-15.9h-4.9v-3.9h13.9v3.9h-4.9V305H418.2z"/>
	<path id="XMLID_27_" class="st1" d="M430,305v-19.9h4V305H430z"/>
	<path id="XMLID_29_" class="st1" d="M438.8,299.5c2.3,1.6,4.8,1.7,5.7,1.6c1.2-0.1,2.2-0.9,2.1-2c-0.1-1.1-0.9-1.6-2.1-2
		c-3.1-1.1-5.9-2.7-5.9-6.1c0-3.3,2.3-5.9,5.6-6.1c1-0.1,2.4-0.1,4.9,0.8l-0.5,3.8c-2.2-0.9-3.4-0.9-4.1-0.8c-1.4,0.1-2.1,1.1-2,2.2
		c0.1,1.1,1.1,1.6,2.2,2c3.1,1.1,5.8,2.9,5.8,6.1c0,3.3-2.3,5.8-6,6c-1.1,0.1-3.6-0.1-6.3-1.4L438.8,299.5z"/>
	<path id="XMLID_31_" class="st1" d="M456.6,305v-15.9h-4.9v-3.9h13.9v3.9h-4.9V305H456.6z"/>
	<path id="XMLID_33_" class="st1" d="M468.4,305v-19.9h4V305H468.4z"/>
	<path id="XMLID_35_" class="st1" d="M477.5,285.1h4c0,2.6,0,5.3,0,7.9l5-7.9h4.6l-6.5,9.8l7,10.1h-4.9l-5.3-7.8c0,2.6,0,5.2,0,7.8
		h-4V285.1z"/>
	<path id="XMLID_37_" class="st1" d="M492.3,293.6h10.1v3.7h-10.1V293.6z"/>
	<path id="XMLID_39_" class="st1" d="M513.1,305h-5.9v-19.9h5.9C526.3,285.1,526.3,305,513.1,305z M511.2,289.1V301h1.9
		c7.7,0,7.7-11.9,0-11.9H511.2z"/>
	<path id="XMLID_42_" class="st1" d="M532.7,284.4h0.4l8.4,20.6H537l-0.8-2.1h-6.6l-0.8,2.1h-4.5L532.7,284.4z M534.8,299.1
		l-1.8-5.2l-1.9,5.2H534.8z"/>
	<path id="XMLID_45_" class="st1" d="M552.8,305.1c-13.1,0-13.8-19.7,0-20.2c2.4-0.1,4.3,0.6,4.6,0.7l-0.5,4
		c-0.8-0.3-2.1-0.8-4.2-0.7c-8,0.3-7.7,12.1,0,12.1c0.4,0,0.8-0.1,1.1-0.1v-6h4v8.7C556.4,304.6,554.7,305.1,552.8,305.1z"/>
	<path id="XMLID_47_" class="st2" d="M294.4,323.1c0-0.8-0.6-1.3-1.4-1.4c-1.2-0.1-2.7,0.7-3.2,1.1l-0.7-2.6c1.1-0.8,2.7-1.3,4-1.2
		c4,0.2,5.3,3.7,3.1,6.9l-2.7,4.2h4v2.8h-9l5.1-8.1C294.5,323.6,294.4,323.1,294.4,323.1z"/>
	<path id="XMLID_49_" class="st2" d="M299.9,325.9c0-3.9,1.3-7,4.7-7c3.4,0,4.7,3.1,4.7,7c0,3.9-1.3,7-4.7,7
		C301.3,333,299.9,329.8,299.9,325.9z M306.7,325.9c0-2.4-0.5-4.5-2.1-4.5c-1.5,0-2,2-2,4.5c0,2.5,0.5,4.5,2,4.5
		C306.2,330.4,306.7,328.4,306.7,325.9z"/>
	<path id="XMLID_52_" class="st2" d="M312.9,332.9c-2.1,0-2.1-3.1,0-3.1C315,329.8,314.9,332.9,312.9,332.9z"/>
	<path id="XMLID_54_" class="st2" d="M315.9,319.1h4.9v13.6h-2.7v-10.9h-2.2V319.1z"/>
	<path id="XMLID_56_" class="st2" d="M323.9,325.9c0-3.9,1.3-7,4.7-7c3.4,0,4.7,3.1,4.7,7c0,3.9-1.3,7-4.7,7
		C325.2,333,323.9,329.8,323.9,325.9z M330.7,325.9c0-2.4-0.5-4.5-2.1-4.5c-1.5,0-2,2-2,4.5c0,2.5,0.5,4.5,2,4.5
		C330.1,330.4,330.7,328.4,330.7,325.9z"/>
	<path id="XMLID_59_" class="st2" d="M336.9,332.9c-2.1,0-2.1-3.1,0-3.1C339,329.8,338.9,332.9,336.9,332.9z"/>
	<path id="XMLID_61_" class="st2" d="M346.1,323.1c0-0.8-0.6-1.3-1.4-1.4c-1.2-0.1-2.7,0.7-3.2,1.1l-0.7-2.6c1.1-0.8,2.7-1.3,4-1.2
		c4,0.2,5.3,3.7,3.1,6.9l-2.7,4.2h4v2.8h-9l5.1-8.1C346.2,323.6,346.1,323.1,346.1,323.1z"/>
	<path id="XMLID_63_" class="st2" d="M351.6,325.9c0-3.9,1.3-7,4.7-7c3.4,0,4.7,3.1,4.7,7c0,3.9-1.3,7-4.7,7
		C353,333,351.6,329.8,351.6,325.9z M358.4,325.9c0-2.4-0.5-4.5-2.1-4.5c-1.5,0-2,2-2,4.5c0,2.5,0.5,4.5,2,4.5
		C357.9,330.4,358.4,328.4,358.4,325.9z"/>
	<path id="XMLID_66_" class="st2" d="M362.8,319.1h4.9v13.6H365v-10.9h-2.2V319.1z"/>
	<path id="XMLID_68_" class="st2" d="M379.1,328.8c0,2.3-1.5,4-4.1,4.1c-0.7,0-2.6,0-4.4-0.6l0.2-2.7c4.2,1.5,5.5,0.3,5.4-0.9
		c0-1.6-1-2.1-5.2-2.4v-7.2h7v2.6h-4.2v2.4C377.3,324.4,379.1,325.6,379.1,328.8z"/>
	<path id="XMLID_70_" class="st1" d="M289.9,349.2h4.9c2.2,0,3.6,1.6,3.5,3.8c0,0.9-0.4,1.9-1.1,2.5c0.8,0.6,1.3,1.5,1.3,2.5
		c0,2.1-1.7,3.7-3.7,3.7h-4.9V349.2z M292.4,354.2h1.5h0.7c0.7,0,1.1-0.6,1.1-1.3c0-0.7-0.4-1.3-1.1-1.3h-2.2V354.2z M292.4,359.2
		h1.5h0.7c0.7,0,1.3-0.6,1.3-1.3s-0.5-1.2-1.3-1.2h-2.2V359.2z"/>
	<path id="XMLID_74_" class="st1" d="M301.8,361.7v-12.4h6.2v2.5h-3.7v2.5h3.3v2.5h-3.3v2.5h3.9v2.5H301.8z"/>
	<path id="XMLID_76_" class="st1" d="M311.2,358.3c1.4,1,3,1,3.5,1c0.7-0.1,1.4-0.6,1.3-1.3c-0.1-0.7-0.6-1-1.3-1.3
		c-1.9-0.7-3.7-1.7-3.7-3.8c0-2.1,1.4-3.7,3.5-3.8c0.6,0,1.5,0,3.1,0.5l-0.3,2.4c-1.4-0.6-2.2-0.5-2.5-0.5c-0.9,0.1-1.3,0.7-1.2,1.4
		c0.1,0.7,0.7,1,1.4,1.3c1.9,0.7,3.6,1.8,3.6,3.8c0,2.1-1.4,3.6-3.8,3.8c-0.7,0.1-2.2,0-3.9-0.9L311.2,358.3z"/>
	<path id="XMLID_78_" class="st1" d="M321.3,358.3c1.4,1,3,1,3.5,1c0.7-0.1,1.4-0.6,1.3-1.3c-0.1-0.7-0.6-1-1.3-1.3
		c-1.9-0.7-3.7-1.7-3.7-3.8c0-2.1,1.4-3.7,3.5-3.8c0.6,0,1.5,0,3.1,0.5l-0.3,2.4c-1.4-0.6-2.2-0.5-2.5-0.5c-0.9,0.1-1.3,0.7-1.2,1.4
		c0.1,0.7,0.7,1,1.4,1.3c1.9,0.7,3.6,1.8,3.6,3.8c0,2.1-1.4,3.6-3.8,3.8c-0.7,0.1-2.2,0-3.9-0.9L321.3,358.3z"/>
	<path id="XMLID_80_" class="st1" d="M331.7,361.7v-12.4h6.2v2.5h-3.7v2.5h3.3v2.5h-3.3v2.5h3.9v2.5H331.7z"/>
	<path id="XMLID_82_" class="st1" d="M347.6,361.7l-2.5-4.7h-1.2v4.7h-2.5v-12.4h4.9c4.4,0,4.9,6.2,1.2,7.3l2.9,5.1H347.6z
		 M343.9,354.5h2.2c1.7,0,1.7-2.8,0-2.8h-2.2V354.5z"/>
	<path id="XMLID_85_" class="st1" d="M361.8,361.7h-3.7v-12.4h3.7C370.1,349.3,370.1,361.7,361.8,361.7z M360.6,351.7v7.5h1.2
		c4.8,0,4.8-7.5,0-7.5H360.6z"/>
	<path id="XMLID_88_" class="st1" d="M374.6,348.8h0.3l5.2,12.9h-2.8l-0.5-1.3h-4.1l-0.5,1.3h-2.8L374.6,348.8z M375.9,358l-1.1-3.2
		l-1.2,3.2H375.9z"/>
	<path id="XMLID_91_" class="st1" d="M383.4,361.7v-9.9h-3.1v-2.5h8.7v2.5h-3.1v9.9H383.4z"/>
	<path id="XMLID_93_" class="st1" d="M391.3,361.7v-12.4h6.2v2.5h-3.7v2.5h3.3v2.5h-3.3v2.5h3.9v2.5H391.3z"/>
	<path id="XMLID_95_" class="st1" d="M403.5,361.7H401V349h0.7l6.3,7.3v-7h2.5v12.7h-0.7l-6.3-7V361.7z"/>
	<path id="XMLID_97_" class="st1" d="M415.1,361.8c-1.9,0-1.9-2.8,0-2.8C417,359,416.9,361.8,415.1,361.8z"/>
	<path id="XMLID_99_" class="st1" d="M289.9,371.2h4.9c2.2,0,3.6,1.6,3.5,3.8c0,0.9-0.4,1.9-1.1,2.5c0.8,0.6,1.3,1.5,1.3,2.5
		c0,2.1-1.7,3.7-3.7,3.7h-4.9V371.2z M292.4,376.2h1.5h0.7c0.7,0,1.1-0.6,1.1-1.3c0-0.7-0.4-1.3-1.1-1.3h-2.2V376.2z M292.4,381.1
		h1.5h0.7c0.7,0,1.3-0.6,1.3-1.3s-0.5-1.2-1.3-1.2h-2.2V381.1z"/>
	<path id="XMLID_103_" class="st1" d="M301.8,383.6v-12.4h6.2v2.5h-3.7v2.5h3.3v2.5h-3.3v2.5h3.9v2.5H301.8z"/>
	<path id="XMLID_105_" class="st1" d="M311.2,380.2c1.4,1,3,1,3.5,1c0.7-0.1,1.4-0.6,1.3-1.3c-0.1-0.7-0.6-1-1.3-1.3
		c-1.9-0.7-3.7-1.7-3.7-3.8c0-2.1,1.4-3.7,3.5-3.8c0.6,0,1.5,0,3.1,0.5l-0.3,2.4c-1.4-0.6-2.2-0.5-2.5-0.5c-0.9,0.1-1.3,0.7-1.2,1.4
		c0.1,0.7,0.7,1,1.4,1.3c1.9,0.7,3.6,1.8,3.6,3.8c0,2.1-1.4,3.6-3.8,3.8c-0.7,0.1-2.2,0-3.9-0.9L311.2,380.2z"/>
	<path id="XMLID_107_" class="st1" d="M321.3,380.2c1.4,1,3,1,3.5,1c0.7-0.1,1.4-0.6,1.3-1.3c-0.1-0.7-0.6-1-1.3-1.3
		c-1.9-0.7-3.7-1.7-3.7-3.8c0-2.1,1.4-3.7,3.5-3.8c0.6,0,1.5,0,3.1,0.5l-0.3,2.4c-1.4-0.6-2.2-0.5-2.5-0.5c-0.9,0.1-1.3,0.7-1.2,1.4
		c0.1,0.7,0.7,1,1.4,1.3c1.9,0.7,3.6,1.8,3.6,3.8c0,2.1-1.4,3.6-3.8,3.8c-0.7,0.1-2.2,0-3.9-0.9L321.3,380.2z"/>
	<path id="XMLID_109_" class="st1" d="M331.7,383.6v-12.4h6.2v2.5h-3.7v2.5h3.3v2.5h-3.3v2.5h3.9v2.5H331.7z"/>
	<path id="XMLID_111_" class="st1" d="M347.6,383.6l-2.5-4.7h-1.2v4.7h-2.5v-12.4h4.9c4.4,0,4.9,6.2,1.2,7.3l2.9,5.1H347.6z
		 M343.9,376.5h2.2c1.7,0,1.7-2.8,0-2.8h-2.2V376.5z"/>
	<path id="XMLID_114_" class="st1" d="M354.5,383.6v-9.9h-3.1v-2.5h8.7v2.5H357v9.9H354.5z"/>
	<path id="XMLID_116_" class="st1" d="M370.4,371.2v9.9h3.9v2.5h-6.4v-12.4H370.4z"/>
	<path id="XMLID_118_" class="st1" d="M377,383.6v-12.4h2.5v12.4H377z"/>
	<path id="XMLID_120_" class="st1" d="M383.2,383.6v-12.4h6.2v2.5h-3.7v2.5h3.3v2.5h-3.3v2.5h3.9v2.5H383.2z"/>
	<path id="XMLID_122_" class="st1" d="M396.2,383.9l-5.1-12.7h2.8l2.5,6.3l2.4-6.2h0.1l2.4,6.2l2.5-6.3h2.8l-5.1,12.6h-0.5l-2.3-5.5
		l-2.3,5.6H396.2z"/>
	<path id="XMLID_124_" class="st1" d="M408.7,383.6v-12.4h6.2v2.5h-3.7v2.5h3.3v2.5h-3.3v2.5h3.9v2.5H408.7z"/>
	<path id="XMLID_126_" class="st1" d="M420.9,383.6h-2.5v-12.7h0.7l6.3,7.3v-7h2.5v12.7h-0.7l-6.3-7V383.6z"/>
	<path id="XMLID_128_" class="st1" d="M432.5,383.8c-1.9,0-1.9-2.8,0-2.8C434.4,381,434.3,383.8,432.5,383.8z"/>
</g>
<g id="XMLID_139_">
	<path id="XMLID_140_" class="st3" d="M179,348.1c-7.5,0-15-1-22.3-3c-1.3-0.3-2.5-0.7-3.8-1.1c-20.2-6.5-37.2-20.2-47.8-38.7
		c-11.3-19.7-14.3-42.7-8.3-64.6c6-21.9,20.1-40.3,39.8-51.6c12.9-7.4,27.5-11.3,42.2-11.3c7.5,0,15.1,1,22.4,3
		c21.9,6,40.3,20.1,51.6,39.8c9.6,16.7,13.2,35.6,10.4,54.6l-0.1,0.6h-8.3l0.1-0.8c2.8-17.5-0.4-34.9-9.2-50.4
		c-10.2-17.8-26.8-30.6-46.6-36c-6.6-1.8-13.5-2.7-20.3-2.7c-13.3,0-26.5,3.5-38.1,10.2c-17.8,10.2-30.6,26.8-36,46.6
		c-5.4,19.8-2.7,40.6,7.5,58.4c10.2,17.8,26.8,30.6,46.6,36c7.5,2,15.4,2.9,23.2,2.6l0.4-0.1c6.2-0.3,12.5-1.4,18.7-3.2l0.2,0l0.2,0
		c4.8,0.9,9.8,1.4,15,1.4l2.8,0l-2.5,1.2c-4,2-8.2,3.7-12.5,5l-0.2,0.1c-0.2,0.1-0.3,0.2-0.5,0.2C195.7,346.8,187.4,348.1,179,348.1
		z"/>
</g>
<path id="XMLID_136_" class="st1" d="M208.8,260.1c-1-7-7.7-12-15-11c-7.3,1-12.3,7.6-11.3,14.6c1,7.1,7.6,12,14.9,11
	C204.7,273.7,209.8,267.2,208.8,260.1z M196.5,268.3c-3.6,0.5-6.7-1.9-7.2-5.5c-0.5-3.5,1.8-6.8,5.4-7.3c3.6-0.5,6.7,2,7.2,5.5
	C202.5,264.7,200.1,267.8,196.5,268.3z"/>
<path id="XMLID_133_" class="st1" d="M243.3,291.4c-1-7-7.7-12-15-11c-7.3,1-12.3,7.6-11.3,14.6c1,7.1,7.6,12,14.9,11
	C239.2,305.1,244.3,298.5,243.3,291.4z M231,299.6c-3.6,0.5-6.7-1.9-7.2-5.4c-0.5-3.5,1.8-6.8,5.4-7.3c3.6-0.5,6.7,2,7.2,5.5
	C237,296,234.6,299.1,231,299.6z"/>
<g id="XMLID_130_">
	<path id="XMLID_131_" class="st1" d="M194.2,303.8h-10.5l46.7-51.1h10.5L194.2,303.8z"/>
</g>
<path id="XMLID_16_" class="st1" d="M221.2,325.6c-1.4,0.1-2.8,0.1-4.2,0.1c-19.7,0-31.8-7.3-38.6-13.5
	c-9.5-8.6-14.9-20.7-14.9-33.2v-0.7h-8.2v0.7c0,14.8,6.4,29.1,17.5,39.3c7.8,7.1,21.8,15.6,44.1,15.6c2.5,0,5.1-0.1,7.7-0.4
	L221.2,325.6z"/>
</svg>
