<?xml version="1.0" encoding="utf-8"?>
<!-- Generator: Adobe Illustrator 19.0.0, SVG Export Plug-In . SVG Version: 6.00 Build 0)  -->
<svg version="1.1" id="Layer_1" xmlns="http://www.w3.org/2000/svg" xmlns:xlink="http://www.w3.org/1999/xlink" x="0px" y="0px"
	 viewBox="0 0 612 612" style="enable-background:new 0 0 612 612;" xml:space="preserve">
<metadata><?xpacket begin="﻿" id="W5M0MpCehiHzreSzNTczkc9d"?>
<x:xmpmeta xmlns:x="adobe:ns:meta/" x:xmptk="Adobe XMP Core 5.6-c067 79.157747, 2015/03/30-23:40:42        ">
   <rdf:RDF xmlns:rdf="http://www.w3.org/1999/02/22-rdf-syntax-ns#">
      <rdf:Description rdf:about=""/>
   </rdf:RDF>
</x:xmpmeta>
                                                                                                    
                                                                                                    
                                                                                                    
                                                                                                    
                                                                                                    
                                                                                                    
                                                                                                    
                                                                                                    
                                                                                                    
                                                                                                    
                                                                                                    
                                                                                                    
                                                                                                    
                                                                                                    
                                                                                                    
                                                                                                    
                                                                                                    
                                                                                                    
                                                                                                    
                                                                                                    
                           
<?xpacket end="w"?></metadata>
<style type="text/css">
	.st0{fill:#FFFFFF;}
	.st1{fill:#0083BF;}
	.st2{fill:#59AFE1;}
	.st3{fill:#74C1EC;}
</style>
<rect class="st0" width="612" height="612"/>
<g id="XMLID_1_">
	<g>
		<path id="XMLID_1125_" class="st1" d="M301.3,301.5l-8.1-20.3h4.5l4,10.1l3.9-10h0.2l3.9,10l4-10.1h4.5l-8.1,20.2h-0.7l-3.6-8.8
			l-3.6,8.9H301.3z"/>
		<path id="XMLID_1123_" class="st1" d="M320.5,301v-19.9h10v4h-6v4h5.2v4h-5.2v4h6.3v4H320.5z"/>
		<path id="XMLID_1121_" class="st1" d="M339.2,281.2v15.9h6.3v4h-10.3v-19.9H339.2z"/>
		<path id="XMLID_1119_" class="st1" d="M350.5,301v-15.9h-4.9v-3.9h13.9v3.9h-4.9V301H350.5z"/>
		<path id="XMLID_1117_" class="st1" d="M360.7,289.7h10.1v3.7h-10.1V289.7z"/>
		<path id="XMLID_1115_" class="st1" d="M374.7,295.6c2.3,1.6,4.8,1.7,5.7,1.6c1.2-0.1,2.2-0.9,2.1-2c-0.1-1.1-0.9-1.6-2.1-2
			c-3.1-1.1-5.9-2.7-5.9-6.1c0-3.3,2.3-5.9,5.6-6.1c1-0.1,2.4-0.1,4.9,0.8l-0.5,3.8c-2.2-0.9-3.4-0.9-4.1-0.8
			c-1.4,0.1-2.1,1.1-2,2.2c0.1,1.1,1.1,1.6,2.2,2c3.1,1.1,5.8,2.9,5.8,6.1c0,3.3-2.3,5.8-6,6c-1.1,0.1-3.6-0.1-6.3-1.4L374.7,295.6z
			"/>
		<path id="XMLID_1113_" class="st1" d="M392.4,301v-15.9h-4.9v-3.9h13.9v3.9h-4.9V301H392.4z"/>
		<path id="XMLID_1110_" class="st1" d="M409.5,280.4h0.4l8.4,20.6h-4.5l-0.8-2.1h-6.6l-0.8,2.1h-4.5L409.5,280.4z M411.5,295.2
			l-1.8-5.2l-1.9,5.2H411.5z"/>
		<path id="XMLID_1108_" class="st1" d="M422.7,301v-15.9h-4.9v-3.9h13.9v3.9h-4.9V301H422.7z"/>
		<path id="XMLID_1106_" class="st1" d="M434.5,301v-19.9h4V301H434.5z"/>
		<path id="XMLID_1104_" class="st1" d="M443.3,295.6c2.3,1.6,4.8,1.7,5.7,1.6c1.2-0.1,2.2-0.9,2.1-2c-0.1-1.1-0.9-1.6-2.1-2
			c-3.1-1.1-5.9-2.7-5.9-6.1c0-3.3,2.3-5.9,5.6-6.1c1-0.1,2.4-0.1,4.9,0.8l-0.5,3.8c-2.2-0.9-3.4-0.9-4.1-0.8
			c-1.4,0.1-2.1,1.1-2,2.2c0.1,1.1,1.1,1.6,2.2,2c3.1,1.1,5.8,2.9,5.8,6.1c0,3.3-2.3,5.8-6,6c-1.1,0.1-3.6-0.1-6.3-1.4L443.3,295.6z
			"/>
		<path id="XMLID_1102_" class="st1" d="M461.1,301v-15.9h-4.9v-3.9H470v3.9H465V301H461.1z"/>
		<path id="XMLID_1100_" class="st1" d="M472.9,301v-19.9h4V301H472.9z"/>
		<path id="XMLID_1098_" class="st1" d="M482,281.2h4c0,2.6,0,5.3,0,7.9l5-7.9h4.6l-6.5,9.8l7,10.1h-4.9l-5.3-7.8c0,2.6,0,5.2,0,7.8
			h-4V281.2z"/>
		<path id="XMLID_1096_" class="st1" d="M496.8,289.7h10.1v3.7h-10.1V289.7z"/>
		<path id="XMLID_1093_" class="st1" d="M517.6,301h-5.9v-19.9h5.9C530.8,281.2,530.8,301,517.6,301z M515.6,285.1v11.9h1.9
			c7.7,0,7.7-11.9,0-11.9H515.6z"/>
		<path id="XMLID_1090_" class="st1" d="M537.2,280.4h0.4L546,301h-4.5l-0.8-2.1h-6.6l-0.8,2.1h-4.5L537.2,280.4z M539.2,295.2
			l-1.8-5.2l-1.9,5.2H539.2z"/>
		<path id="XMLID_1088_" class="st1" d="M557.3,301.2c-13.1,0-13.8-19.7,0-20.2c2.4-0.1,4.3,0.6,4.6,0.7l-0.5,4
			c-0.8-0.3-2.1-0.8-4.2-0.7c-8,0.3-7.7,12.1,0,12.1c0.4,0,0.8-0.1,1.1-0.1v-6h4v8.7C560.9,300.7,559.2,301.2,557.3,301.2z"/>
		<path id="XMLID_1086_" class="st2" d="M298.9,319.2c0-0.8-0.6-1.3-1.4-1.4c-1.2-0.1-2.7,0.7-3.2,1.1l-0.7-2.6
			c1.1-0.8,2.7-1.3,4-1.2c4,0.2,5.3,3.7,3.1,6.9l-2.7,4.2h4v2.8h-9l5.1-8.1C299,319.7,298.9,319.2,298.9,319.2z"/>
		<path id="XMLID_1083_" class="st2" d="M304.4,322c0-3.9,1.3-7,4.7-7c3.4,0,4.7,3.1,4.7,7c0,3.9-1.3,7-4.7,7
			C305.7,329,304.4,325.9,304.4,322z M311.2,322c0-2.4-0.5-4.5-2.1-4.5c-1.5,0-2,2-2,4.5c0,2.5,0.5,4.5,2,4.5
			C310.6,326.5,311.2,324.5,311.2,322z"/>
		<path id="XMLID_1081_" class="st2" d="M317.3,329c-2.1,0-2.1-3.1,0-3.1C319.4,325.9,319.4,329,317.3,329z"/>
		<path id="XMLID_1079_" class="st2" d="M320.4,315.2h4.9v13.6h-2.7v-10.9h-2.2V315.2z"/>
		<path id="XMLID_1076_" class="st2" d="M328.4,322c0-3.9,1.3-7,4.7-7c3.4,0,4.7,3.1,4.7,7c0,3.9-1.3,7-4.7,7
			C329.7,329,328.4,325.9,328.4,322z M335.1,322c0-2.4-0.5-4.5-2.1-4.5c-1.5,0-2,2-2,4.5c0,2.5,0.5,4.5,2,4.5
			C334.6,326.5,335.1,324.5,335.1,322z"/>
		<path id="XMLID_1074_" class="st2" d="M341.3,329c-2.1,0-2.1-3.1,0-3.1C343.4,325.9,343.4,329,341.3,329z"/>
		<path id="XMLID_1072_" class="st2" d="M350.6,319.2c0-0.8-0.6-1.3-1.4-1.4c-1.2-0.1-2.7,0.7-3.2,1.1l-0.7-2.6
			c1.1-0.8,2.7-1.3,4-1.2c4,0.2,5.3,3.7,3.1,6.9l-2.7,4.2h4v2.8h-9l5.1-8.1C350.7,319.7,350.6,319.2,350.6,319.2z"/>
		<path id="XMLID_1069_" class="st2" d="M356.1,322c0-3.9,1.3-7,4.7-7c3.4,0,4.7,3.1,4.7,7c0,3.9-1.3,7-4.7,7
			C357.4,329,356.1,325.9,356.1,322z M362.9,322c0-2.4-0.5-4.5-2.1-4.5c-1.5,0-2,2-2,4.5c0,2.5,0.5,4.5,2,4.5
			C362.3,326.5,362.9,324.5,362.9,322z"/>
		<path id="XMLID_1067_" class="st2" d="M367.3,315.2h4.9v13.6h-2.7v-10.9h-2.2V315.2z"/>
		<path id="XMLID_1065_" class="st2" d="M383.6,324.8c0,2.3-1.5,4-4.1,4.1c-0.7,0-2.6,0-4.4-0.6l0.2-2.7c4.2,1.5,5.5,0.3,5.4-0.9
			c0-1.6-1-2.1-5.2-2.4v-7.2h7v2.6h-4.2v2.4C381.8,320.5,383.6,321.7,383.6,324.8z"/>
		<path id="XMLID_1061_" class="st1" d="M294.4,345.3h4.9c2.2,0,3.6,1.6,3.5,3.8c0,0.9-0.4,1.9-1.1,2.5c0.8,0.6,1.3,1.5,1.3,2.5
			c0,2.1-1.7,3.7-3.7,3.7h-4.9V345.3z M296.9,350.3h1.5h0.7c0.7,0,1.1-0.6,1.1-1.3c0-0.7-0.4-1.3-1.1-1.3h-2.2V350.3z M296.9,355.3
			h1.5h0.7c0.7,0,1.3-0.6,1.3-1.3s-0.5-1.2-1.3-1.2h-2.2V355.3z"/>
		<path id="XMLID_1059_" class="st1" d="M306.2,357.7v-12.4h6.2v2.5h-3.7v2.5h3.3v2.5h-3.3v2.5h3.9v2.5H306.2z"/>
		<path id="XMLID_1057_" class="st1" d="M315.7,354.3c1.4,1,3,1,3.5,1c0.7-0.1,1.4-0.6,1.3-1.3c-0.1-0.7-0.6-1-1.3-1.3
			c-1.9-0.7-3.7-1.7-3.7-3.8c0-2.1,1.4-3.7,3.5-3.8c0.6,0,1.5,0,3.1,0.5l-0.3,2.4c-1.4-0.6-2.2-0.5-2.5-0.5
			c-0.9,0.1-1.3,0.7-1.2,1.4c0.1,0.7,0.7,1,1.4,1.3c1.9,0.7,3.6,1.8,3.6,3.8c0,2.1-1.4,3.6-3.8,3.8c-0.7,0.1-2.2,0-3.9-0.9
			L315.7,354.3z"/>
		<path id="XMLID_1055_" class="st1" d="M325.8,354.3c1.4,1,3,1,3.5,1c0.7-0.1,1.4-0.6,1.3-1.3c-0.1-0.7-0.6-1-1.3-1.3
			c-1.9-0.7-3.7-1.7-3.7-3.8c0-2.1,1.4-3.7,3.5-3.8c0.6,0,1.5,0,3.1,0.5l-0.3,2.4c-1.4-0.6-2.2-0.5-2.5-0.5
			c-0.9,0.1-1.3,0.7-1.2,1.4c0.1,0.7,0.7,1,1.4,1.3c1.9,0.7,3.6,1.8,3.6,3.8c0,2.1-1.4,3.6-3.8,3.8c-0.7,0.1-2.2,0-3.9-0.9
			L325.8,354.3z"/>
		<path id="XMLID_1053_" class="st1" d="M336.1,357.7v-12.4h6.2v2.5h-3.7v2.5h3.3v2.5h-3.3v2.5h3.9v2.5H336.1z"/>
		<path id="XMLID_1050_" class="st1" d="M352.1,357.7l-2.5-4.7h-1.2v4.7h-2.5v-12.4h4.9c4.4,0,4.9,6.2,1.2,7.3l2.9,5.1H352.1z
			 M348.4,350.6h2.2c1.7,0,1.7-2.8,0-2.8h-2.2V350.6z"/>
		<path id="XMLID_1047_" class="st1" d="M366.3,357.7h-3.7v-12.4h3.7C374.5,345.3,374.5,357.7,366.3,357.7z M365,347.8v7.5h1.2
			c4.8,0,4.8-7.5,0-7.5H365z"/>
		<path id="XMLID_1044_" class="st1" d="M379.1,344.9h0.3l5.2,12.9h-2.8l-0.5-1.3h-4.1l-0.5,1.3h-2.8L379.1,344.9z M380.3,354.1
			l-1.1-3.2l-1.2,3.2H380.3z"/>
		<path id="XMLID_1042_" class="st1" d="M387.9,357.7v-9.9h-3.1v-2.5h8.7v2.5h-3.1v9.9H387.9z"/>
		<path id="XMLID_1040_" class="st1" d="M395.7,357.7v-12.4h6.2v2.5h-3.7v2.5h3.3v2.5h-3.3v2.5h3.9v2.5H395.7z"/>
		<path id="XMLID_1038_" class="st1" d="M408,357.7h-2.5v-12.7h0.7l6.3,7.3v-7h2.5V358h-0.7l-6.3-7V357.7z"/>
		<path id="XMLID_1036_" class="st1" d="M419.6,357.9c-1.9,0-1.9-2.8,0-2.8C421.5,355.1,421.4,357.9,419.6,357.9z"/>
		<path id="XMLID_1032_" class="st1" d="M294.4,367.3h4.9c2.2,0,3.6,1.6,3.5,3.8c0,0.9-0.4,1.9-1.1,2.5c0.8,0.6,1.3,1.5,1.3,2.5
			c0,2.1-1.7,3.7-3.7,3.7h-4.9V367.3z M296.9,372.2h1.5h0.7c0.7,0,1.1-0.6,1.1-1.3c0-0.7-0.4-1.3-1.1-1.3h-2.2V372.2z M296.9,377.2
			h1.5h0.7c0.7,0,1.3-0.6,1.3-1.3s-0.5-1.2-1.3-1.2h-2.2V377.2z"/>
		<path id="XMLID_1030_" class="st1" d="M306.2,379.7v-12.4h6.2v2.5h-3.7v2.5h3.3v2.5h-3.3v2.5h3.9v2.5H306.2z"/>
		<path id="XMLID_1028_" class="st1" d="M315.7,376.3c1.4,1,3,1,3.5,1c0.7-0.1,1.4-0.6,1.3-1.3c-0.1-0.7-0.6-1-1.3-1.3
			c-1.9-0.7-3.7-1.7-3.7-3.8c0-2.1,1.4-3.7,3.5-3.8c0.6,0,1.5,0,3.1,0.5l-0.3,2.4c-1.4-0.6-2.2-0.5-2.5-0.5
			c-0.9,0.1-1.3,0.7-1.2,1.4c0.1,0.7,0.7,1,1.4,1.3c1.9,0.7,3.6,1.8,3.6,3.8c0,2.1-1.4,3.6-3.8,3.8c-0.7,0.1-2.2,0-3.9-0.9
			L315.7,376.3z"/>
		<path id="XMLID_1026_" class="st1" d="M325.8,376.3c1.4,1,3,1,3.5,1c0.7-0.1,1.4-0.6,1.3-1.3c-0.1-0.7-0.6-1-1.3-1.3
			c-1.9-0.7-3.7-1.7-3.7-3.8c0-2.1,1.4-3.7,3.5-3.8c0.6,0,1.5,0,3.1,0.5l-0.3,2.4c-1.4-0.6-2.2-0.5-2.5-0.5
			c-0.9,0.1-1.3,0.7-1.2,1.4c0.1,0.7,0.7,1,1.4,1.3c1.9,0.7,3.6,1.8,3.6,3.8c0,2.1-1.4,3.6-3.8,3.8c-0.7,0.1-2.2,0-3.9-0.9
			L325.8,376.3z"/>
		<path id="XMLID_1024_" class="st1" d="M336.1,379.7v-12.4h6.2v2.5h-3.7v2.5h3.3v2.5h-3.3v2.5h3.9v2.5H336.1z"/>
		<path id="XMLID_1021_" class="st1" d="M352.1,379.7l-2.5-4.7h-1.2v4.7h-2.5v-12.4h4.9c4.4,0,4.9,6.2,1.2,7.3l2.9,5.1H352.1z
			 M348.4,372.5h2.2c1.7,0,1.7-2.8,0-2.8h-2.2V372.5z"/>
		<path id="XMLID_1019_" class="st1" d="M358.9,379.7v-9.9h-3.1v-2.5h8.7v2.5h-3.1v9.9H358.9z"/>
		<path id="XMLID_1017_" class="st1" d="M374.9,367.3v9.9h3.9v2.5h-6.4v-12.4H374.9z"/>
		<path id="XMLID_1015_" class="st1" d="M381.5,379.7v-12.4h2.5v12.4H381.5z"/>
		<path id="XMLID_1013_" class="st1" d="M387.7,379.7v-12.4h6.2v2.5h-3.7v2.5h3.3v2.5h-3.3v2.5h3.9v2.5H387.7z"/>
		<path id="XMLID_1011_" class="st1" d="M400.7,380l-5.1-12.7h2.8l2.5,6.3l2.4-6.2h0.1l2.4,6.2l2.5-6.3h2.8l-5.1,12.6h-0.5l-2.3-5.5
			l-2.3,5.6H400.7z"/>
		<path id="XMLID_1009_" class="st1" d="M413.1,379.7v-12.4h6.2v2.5h-3.7v2.5h3.3v2.5h-3.3v2.5h3.9v2.5H413.1z"/>
		<path id="XMLID_1007_" class="st1" d="M425.4,379.7h-2.5V367h0.7l6.3,7.3v-7h2.5V380h-0.7l-6.3-7V379.7z"/>
		<path id="XMLID_1005_" class="st1" d="M437,379.8c-1.9,0-1.9-2.8,0-2.8C438.9,377,438.8,379.8,437,379.8z"/>
	</g>
</g>
<g id="XMLID_139_">
	<path id="XMLID_140_" class="st3" d="M183.5,344.1c-7.5,0-15-1-22.3-3c-1.3-0.3-2.5-0.7-3.8-1.1c-20.2-6.5-37.2-20.2-47.8-38.7
		c-11.3-19.7-14.3-42.7-8.3-64.6c6-21.9,20.1-40.3,39.8-51.6c12.9-7.4,27.5-11.3,42.2-11.3c7.5,0,15.1,1,22.4,3
		c21.9,6,40.3,20.1,51.6,39.8c9.6,16.7,13.2,35.6,10.4,54.6l-0.1,0.6h-8.3l0.1-0.8c2.8-17.5-0.4-34.9-9.2-50.4
		c-10.2-17.8-26.8-30.6-46.6-36c-6.6-1.8-13.5-2.7-20.3-2.7c-13.3,0-26.5,3.5-38.1,10.2c-17.8,10.2-30.6,26.8-36,46.6
		c-5.4,19.8-2.7,40.6,7.5,58.4c10.2,17.8,26.8,30.6,46.6,36c7.5,2,15.4,2.9,23.2,2.6l0.4-0.1c6.2-0.3,12.5-1.4,18.7-3.2l0.2,0l0.2,0
		c4.8,0.9,9.8,1.4,15,1.4l2.8,0l-2.5,1.2c-4,2-8.2,3.7-12.5,5l-0.2,0.1c-0.2,0.1-0.3,0.2-0.5,0.2
		C200.2,342.9,191.9,344.1,183.5,344.1z"/>
</g>
<path id="XMLID_136_" class="st1" d="M213.3,256.2c-1-7-7.7-12-15-11c-7.3,1-12.3,7.6-11.3,14.6c1,7.1,7.6,12,14.9,11
	C209.2,269.8,214.3,263.3,213.3,256.2z M201,264.4c-3.6,0.5-6.7-1.9-7.2-5.5c-0.5-3.5,1.8-6.8,5.4-7.3c3.6-0.5,6.7,2,7.2,5.5
	C207,260.7,204.6,263.9,201,264.4z"/>
<path id="XMLID_133_" class="st1" d="M247.8,287.5c-1-7-7.7-12-15-11c-7.3,1-12.3,7.6-11.3,14.6c1,7.1,7.6,12,14.9,11
	C243.7,301.1,248.8,294.6,247.8,287.5z M235.5,295.7c-3.6,0.5-6.7-1.9-7.2-5.4c-0.5-3.5,1.8-6.8,5.4-7.3c3.6-0.5,6.7,2,7.2,5.5
	C241.5,292,239.1,295.1,235.5,295.7z"/>
<g id="XMLID_130_">
	<path id="XMLID_131_" class="st1" d="M198.7,299.8h-10.5l46.7-51.1h10.5L198.7,299.8z"/>
</g>
<path id="XMLID_16_" class="st1" d="M225.6,321.7c-1.4,0.1-2.8,0.1-4.2,0.1c-19.7,0-31.8-7.3-38.6-13.5
	c-9.5-8.6-14.9-20.7-14.9-33.2v-0.7h-8.2v0.7c0,14.8,6.4,29.1,17.5,39.3c7.8,7.1,21.8,15.6,44.1,15.6c2.5,0,5.1-0.1,7.7-0.4
	L225.6,321.7z"/>
</svg>
