<?xml version="1.0" encoding="utf-8"?>
<!-- Generator: Adobe Illustrator 19.0.0, SVG Export Plug-In . SVG Version: 6.00 Build 0)  -->
<svg version="1.1" id="Layer_1" xmlns="http://www.w3.org/2000/svg" xmlns:xlink="http://www.w3.org/1999/xlink" x="0px" y="0px"
	 viewBox="0 0 612 612" style="enable-background:new 0 0 612 612;" xml:space="preserve">
<metadata><?xpacket begin="﻿" id="W5M0MpCehiHzreSzNTczkc9d"?>
<x:xmpmeta xmlns:x="adobe:ns:meta/" x:xmptk="Adobe XMP Core 5.6-c067 79.157747, 2015/03/30-23:40:42        ">
   <rdf:RDF xmlns:rdf="http://www.w3.org/1999/02/22-rdf-syntax-ns#">
      <rdf:Description rdf:about=""/>
   </rdf:RDF>
</x:xmpmeta>
                                                                                                    
                                                                                                    
                                                                                                    
                                                                                                    
                                                                                                    
                                                                                                    
                                                                                                    
                                                                                                    
                                                                                                    
                                                                                                    
                                                                                                    
                                                                                                    
                                                                                                    
                                                                                                    
                                                                                                    
                                                                                                    
                                                                                                    
                                                                                                    
                                                                                                    
                                                                                                    
                           
<?xpacket end="w"?></metadata>
<style type="text/css">
	.st0{fill:#FFFFFF;}
	.st1{fill:#0083BF;}
	.st2{fill:#59AFE1;}
	.st3{fill:#74C1EC;}
</style>
<rect class="st0" width="612" height="612"/>
<g>
	<g>
		<path class="st1" d="M301.7,296.1c2.3,1.6,4.8,1.7,5.7,1.6c1.2-0.1,2.2-0.9,2.1-2c-0.1-1.1-0.9-1.6-2.1-2
			c-3.1-1.1-5.9-2.7-5.9-6.1c0-3.3,2.3-5.9,5.6-6.1c1-0.1,2.4-0.1,4.9,0.8l-0.5,3.8c-2.2-0.9-3.4-0.9-4.1-0.8
			c-1.4,0.1-2.1,1.1-2,2.2c0.1,1.1,1.1,1.6,2.2,2c3.1,1.1,5.8,2.9,5.8,6.1c0,3.3-2.3,5.8-6,6c-1.1,0.1-3.6-0.1-6.3-1.4L301.7,296.1z
			"/>
		<path class="st1" d="M322.6,302l-8.2-20.3h4.6l2.6,6.6l1.4,4.1l1.4-4l2.7-6.8h4.6l-8.2,20.3H322.6z"/>
		<path class="st1" d="M334,301.6v-19.9h10v4h-6v4h5.2v4H338v4h6.3v4H334z"/>
		<path class="st1" d="M351.1,301.6v-15.9h-4.9v-3.9H360v3.9H355v15.9H351.1z"/>
		<path class="st1" d="M362.1,296.1c2.3,1.6,4.8,1.7,5.7,1.6c1.2-0.1,2.2-0.9,2.1-2c-0.1-1.1-0.9-1.6-2.1-2
			c-3.1-1.1-5.9-2.7-5.9-6.1c0-3.3,2.3-5.9,5.6-6.1c1-0.1,2.4-0.1,4.9,0.8l-0.5,3.8c-2.2-0.9-3.4-0.9-4.1-0.8
			c-1.4,0.1-2.1,1.1-2,2.2c0.1,1.1,1.1,1.6,2.2,2c3.1,1.1,5.8,2.9,5.8,6.1c0,3.3-2.3,5.8-6,6c-1.1,0.1-3.6-0.1-6.3-1.4L362.1,296.1z
			"/>
		<path class="st1" d="M377.8,281.7h4c0,2.6,0,5.3,0,7.9l5-7.9h4.6l-6.5,9.8l7,10.1h-4.9l-5.3-7.8c0,2.6,0,5.2,0,7.8h-4V281.7z"/>
		<path class="st1" d="M394.7,301.6v-19.9h4v19.9H394.7z"/>
		<path class="st1" d="M308.1,332.9h-5.9V313h5.9C321.3,313,321.3,332.9,308.1,332.9z M306.1,317v11.9h1.9c7.7,0,7.7-11.9,0-11.9
			H306.1z"/>
		<path class="st1" d="M327.7,312.3h0.4l8.4,20.6H332l-0.8-2.1h-6.6l-0.8,2.1h-4.5L327.7,312.3z M329.7,327l-1.8-5.2L326,327H329.7z
			"/>
		<path class="st1" d="M343.1,332.9h-4v-20.3h1.1l10,11.7V313h4v20.3h-1.1L343.1,322V332.9z"/>
		<path class="st1" d="M301.7,358.7c2.3,1.6,4.8,1.7,5.7,1.6c1.2-0.1,2.2-0.9,2.1-2c-0.1-1.1-0.9-1.6-2.1-2
			c-3.1-1.1-5.9-2.7-5.9-6.1c0-3.3,2.3-5.9,5.6-6.1c1-0.1,2.4-0.1,4.9,0.8l-0.5,3.8c-2.2-0.9-3.4-0.9-4.1-0.8
			c-1.4,0.1-2.1,1.1-2,2.2c0.1,1.1,1.1,1.6,2.2,2c3.1,1.1,5.8,2.9,5.8,6.1c0,3.3-2.3,5.8-6,6c-1.1,0.1-3.6-0.1-6.3-1.4L301.7,358.7z
			"/>
		<path class="st1" d="M319.5,364.1v-15.9h-4.9v-3.9h13.9v3.9h-4.9v15.9H319.5z"/>
		<path class="st1" d="M336.5,343.5h0.4l8.4,20.6h-4.5L340,362h-6.6l-0.8,2.1h-4.5L336.5,343.5z M338.5,358.3l-1.8-5.2l-1.9,5.2
			H338.5z"/>
		<path class="st1" d="M349.7,364.1v-15.9h-4.9v-3.9h13.9v3.9h-4.9v15.9H349.7z"/>
		<path class="st1" d="M361.5,364.1v-19.9h4v19.9H361.5z"/>
		<path class="st1" d="M370.3,358.7c2.3,1.6,4.8,1.7,5.7,1.6c1.2-0.1,2.2-0.9,2.1-2c-0.1-1.1-0.9-1.6-2.1-2
			c-3.1-1.1-5.9-2.7-5.9-6.1c0-3.3,2.3-5.9,5.6-6.1c1-0.1,2.4-0.1,4.9,0.8l-0.5,3.8c-2.2-0.9-3.4-0.9-4.1-0.8
			c-1.4,0.1-2.1,1.1-2,2.2c0.1,1.1,1.1,1.6,2.2,2c3.1,1.1,5.8,2.9,5.8,6.1c0,3.3-2.3,5.8-6,6c-1.1,0.1-3.6-0.1-6.3-1.4L370.3,358.7z
			"/>
		<path class="st1" d="M388.1,364.1v-15.9h-4.9v-3.9H397v3.9h-4.9v15.9H388.1z"/>
		<path class="st1" d="M399.9,364.1v-19.9h4v19.9H399.9z"/>
		<path class="st1" d="M409,344.3h4c0,2.6,0,5.3,0,7.9l5-7.9h4.6l-6.5,9.8l7,10.1h-4.9l-5.3-7.8c0,2.6,0,5.2,0,7.8h-4V344.3z"/>
		<path class="st1" d="M425.8,364.1v-19.9h10v4h-6v4h5.2v4h-5.2v4h6.3v4H425.8z"/>
		<path class="st2" d="M305.8,382.2c0-0.8-0.6-1.3-1.4-1.4c-1.2-0.1-2.7,0.7-3.2,1.1l-0.7-2.6c1.1-0.8,2.7-1.3,4-1.2
			c4,0.2,5.3,3.7,3.1,6.9l-2.7,4.2h4v2.8h-9l5.1-8.1C305.8,382.8,305.8,382.2,305.8,382.2z"/>
		<path class="st2" d="M311.3,385.1c0-3.9,1.3-7,4.7-7c3.4,0,4.7,3.1,4.7,7c0,3.9-1.3,7-4.7,7C312.6,392.1,311.3,389,311.3,385.1z
			 M318,385.1c0-2.4-0.5-4.5-2.1-4.5c-1.5,0-2,2-2,4.5c0,2.5,0.5,4.5,2,4.5C317.5,389.5,318,387.6,318,385.1z"/>
		<path class="st2" d="M324.2,392.1c-2.1,0-2.1-3.1,0-3.1C326.3,389,326.3,392.1,324.2,392.1z"/>
		<path class="st2" d="M327.3,378.3h4.9v13.6h-2.7V381h-2.2V378.3z"/>
		<path class="st2" d="M335.3,385.1c0-3.9,1.3-7,4.7-7c3.4,0,4.7,3.1,4.7,7c0,3.9-1.3,7-4.7,7C336.6,392.1,335.3,389,335.3,385.1z
			 M342,385.1c0-2.4-0.5-4.5-2.1-4.5c-1.5,0-2,2-2,4.5c0,2.5,0.5,4.5,2,4.5C341.5,389.5,342,387.6,342,385.1z"/>
		<path class="st2" d="M348.2,392.1c-2.1,0-2.1-3.1,0-3.1C350.3,389,350.3,392.1,348.2,392.1z"/>
		<path class="st2" d="M357.5,382.2c0-0.8-0.6-1.3-1.4-1.4c-1.2-0.1-2.7,0.7-3.2,1.1l-0.7-2.6c1.1-0.8,2.7-1.3,4-1.2
			c4,0.2,5.3,3.7,3.1,6.9l-2.7,4.2h4v2.8h-9l5.1-8.1C357.6,382.8,357.5,382.2,357.5,382.2z"/>
		<path class="st2" d="M363,385.1c0-3.9,1.3-7,4.7-7c3.4,0,4.7,3.1,4.7,7c0,3.9-1.3,7-4.7,7C364.3,392.1,363,389,363,385.1z
			 M369.8,385.1c0-2.4-0.5-4.5-2.1-4.5c-1.5,0-2,2-2,4.5c0,2.5,0.5,4.5,2,4.5C369.2,389.5,369.8,387.6,369.8,385.1z"/>
		<path class="st2" d="M374.1,378.3h4.9v13.6h-2.7V381h-2.2V378.3z"/>
		<path class="st2" d="M390.5,387.9c0,2.3-1.5,4-4.1,4.1c-0.7,0-2.6,0-4.4-0.6l0.2-2.7c4.2,1.5,5.5,0.3,5.4-0.9c0-1.6-1-2.1-5.2-2.4
			v-7.2h7v2.6h-4.2v2.4C388.7,383.6,390.5,384.8,390.5,387.9z"/>
		<path class="st1" d="M301.3,408.4h4.9c2.2,0,3.6,1.6,3.5,3.8c0,0.9-0.4,1.9-1.1,2.5c0.8,0.6,1.3,1.5,1.3,2.5
			c0,2.1-1.7,3.7-3.7,3.7h-4.9V408.4z M303.8,413.4h1.5h0.7c0.7,0,1.1-0.6,1.1-1.3c0-0.7-0.4-1.3-1.1-1.3h-2.2V413.4z M303.8,418.3
			h1.5h0.7c0.7,0,1.3-0.6,1.3-1.3c0-0.7-0.5-1.2-1.3-1.2h-2.2V418.3z"/>
		<path class="st1" d="M318.8,408.2c8.6,0,8.6,12.8,0,12.8S310.3,408.2,318.8,408.2z M318.8,410.7c-5,0-5,7.7,0,7.7
			S323.8,410.7,318.8,410.7z"/>
		<path class="st1" d="M330.8,408.4v9.9h3.9v2.5h-6.4v-12.4H330.8z"/>
		<path class="st1" d="M336.1,418.3h2.4c0.7,0,1.3-0.6,1.3-1.3v-8.7h2.5v8.7c0,2.5-1.3,3.7-3.7,3.7h-2.5V418.3z"/>
		<path class="st1" d="M345.9,420.8v-12.4h2.5v12.4H345.9z"/>
		<path class="st1" d="M357.2,420.8v-12.4h4.9c4.8,0,4.8,7.7,0,7.7h-2.4v4.7H357.2z M361.9,413.7c1.7,0,1.7-2.8,0-2.8h-2.2v2.8
			H361.9z"/>
		<path class="st1" d="M373.9,408.2c8.6,0,8.6,12.8,0,12.8S365.3,408.2,373.9,408.2z M373.9,410.7c-5,0-5,7.7,0,7.7
			S378.9,410.7,373.9,410.7z"/>
		<path class="st1" d="M387.1,420.8h-3.7v-12.4h3.7C395.4,408.4,395.4,420.8,387.1,420.8z M385.9,410.9v7.5h1.2c4.8,0,4.8-7.5,0-7.5
			H385.9z"/>
		<path class="st1" d="M399.9,408h0.3l5.2,12.9h-2.8l-0.5-1.3H398l-0.5,1.3h-2.8L399.9,408z M401.1,417.2l-1.1-3.2l-1.2,3.2H401.1z"
			/>
		<path class="st1" d="M413.1,410.7c-4.9,0-4.9,7.6,0,7.6c1.1,0,1.9-0.3,2.4-0.6l0.3,2.6c-0.8,0.3-1.9,0.5-2.7,0.5
			c-8.4,0-8.4-12.6,0-12.6c0.9,0,1.7,0.2,2.5,0.5l-0.3,2.6C414.7,411,414.1,410.7,413.1,410.7z"/>
		<path class="st1" d="M418.7,420.8v-12.4h2.5v12.4H418.7z"/>
		<path class="st1" d="M425.8,421c-1.9,0-1.9-2.8,0-2.8C427.7,418.2,427.6,421,425.8,421z"/>
		<path class="st1" d="M301.3,429.2h4.9c2.2,0,3.6,1.6,3.5,3.8c0,0.9-0.4,1.9-1.1,2.5c0.8,0.6,1.3,1.5,1.3,2.5
			c0,2.1-1.7,3.7-3.7,3.7h-4.9V429.2z M303.8,434.2h1.5h0.7c0.7,0,1.1-0.6,1.1-1.3c0-0.7-0.4-1.3-1.1-1.3h-2.2V434.2z M303.8,439.2
			h1.5h0.7c0.7,0,1.3-0.6,1.3-1.3c0-0.7-0.5-1.2-1.3-1.2h-2.2V439.2z"/>
		<path class="st1" d="M318.8,429c8.6,0,8.6,12.8,0,12.8S310.3,429,318.8,429z M318.8,431.6c-5,0-5,7.7,0,7.7
			S323.8,431.6,318.8,431.6z"/>
		<path class="st1" d="M330.8,429.3v9.9h3.9v2.5h-6.4v-12.4H330.8z"/>
		<path class="st1" d="M336.1,439.2h2.4c0.7,0,1.3-0.6,1.3-1.3v-8.7h2.5v8.7c0,2.5-1.3,3.7-3.7,3.7h-2.5V439.2z"/>
		<path class="st1" d="M345.9,441.7v-12.4h2.5v12.4H345.9z"/>
		<path class="st1" d="M356.2,441.7c1.5-3.3,3-6.7,4.5-10h-3.8v-2.4h7.5c-1.5,3.3-3,6.6-4.5,9.9h4.6v2.5H356.2z M364.1,426.2
			l-2.5,2.2H360l-2.5-2.2h2.7l0.6,0.7l0.7-0.7H364.1z"/>
		<path class="st1" d="M367.5,441.7v-12.4h2.5v12.4H367.5z"/>
		<path class="st1" d="M377,441.9l-5.1-12.7h2.9l1.7,4.1l0.9,2.6l0.9-2.5l1.7-4.2h2.9l-5.1,12.7H377z"/>
		<path class="st1" d="M390.4,429c8.6,0,8.6,12.8,0,12.8S381.8,429,390.4,429z M390.4,431.6c-5,0-5,7.7,0,7.7
			S395.4,431.6,390.4,431.6z"/>
		<path class="st1" d="M401.2,441.7v-9.9h-3.1v-2.5h8.7v2.5h-3.1v9.9H401.2z"/>
		<path class="st1" d="M409.4,441.8c-1.9,0-1.9-2.8,0-2.8C411.3,439,411.2,441.8,409.4,441.8z"/>
	</g>
</g>
<g id="XMLID_23_">
	<path id="XMLID_24_" class="st3" d="M190.4,344.7c-7.5,0-15-1-22.3-3c-1.3-0.3-2.5-0.7-3.8-1.1c-20.2-6.5-37.2-20.2-47.8-38.7
		c-11.3-19.7-14.3-42.7-8.3-64.6c6-21.9,20.1-40.3,39.8-51.6c12.9-7.4,27.5-11.3,42.2-11.3c7.5,0,15.1,1,22.4,3
		c21.9,6,40.3,20.1,51.6,39.8c9.6,16.7,13.2,35.6,10.4,54.6l-0.1,0.6h-8.3l0.1-0.8c2.8-17.5-0.4-34.9-9.2-50.4
		c-10.2-17.8-26.8-30.6-46.6-36c-6.6-1.8-13.5-2.7-20.3-2.7c-13.3,0-26.5,3.5-38.1,10.2c-17.8,10.2-30.6,26.8-36,46.6
		c-5.4,19.8-2.7,40.6,7.5,58.4c10.2,17.8,26.8,30.6,46.6,36c7.5,2,15.4,2.9,23.2,2.6l0.4-0.1c6.2-0.3,12.5-1.4,18.7-3.2l0.2,0l0.2,0
		c4.8,0.9,9.8,1.4,15,1.4l2.8,0l-2.5,1.2c-4,2-8.2,3.7-12.5,5l-0.2,0.1c-0.2,0.1-0.3,0.2-0.5,0.2
		C207.1,343.5,198.8,344.7,190.4,344.7z"/>
</g>
<path id="XMLID_10_" class="st1" d="M220.2,256.7c-1-7-7.7-12-15-11c-7.3,1-12.3,7.6-11.3,14.6c1,7.1,7.6,12,14.9,11
	C216.1,270.4,221.2,263.8,220.2,256.7z M207.9,264.9c-3.6,0.5-6.7-1.9-7.2-5.5c-0.5-3.5,1.8-6.8,5.4-7.3c3.6-0.5,6.7,2,7.2,5.5
	C213.8,261.3,211.5,264.4,207.9,264.9z"/>
<path id="XMLID_7_" class="st1" d="M254.7,288c-1-7-7.7-12-15-11c-7.3,1-12.3,7.6-11.3,14.6c1,7.1,7.6,12,14.9,11
	C250.6,301.7,255.7,295.1,254.7,288z M242.4,296.2c-3.6,0.5-6.7-1.9-7.2-5.4c-0.5-3.5,1.8-6.8,5.4-7.3c3.6-0.5,6.7,2,7.2,5.5
	C248.4,292.6,246,295.7,242.4,296.2z"/>
<g id="XMLID_4_">
	<path id="XMLID_5_" class="st1" d="M205.6,300.4H195l46.7-51.1h10.5L205.6,300.4z"/>
</g>
<path id="XMLID_3_" class="st1" d="M232.5,322.2c-1.4,0.1-2.8,0.1-4.2,0.1c-19.7,0-31.8-7.3-38.6-13.5c-9.5-8.6-14.9-20.7-14.9-33.2
	V275h-8.2v0.7c0,14.8,6.4,29.1,17.5,39.3c7.8,7.1,21.8,15.6,44.1,15.6c2.5,0,5.1-0.1,7.7-0.4L232.5,322.2z"/>
</svg>
