<?xml version="1.0" encoding="utf-8"?>
<!-- Generator: Adobe Illustrator 19.0.0, SVG Export Plug-In . SVG Version: 6.00 Build 0)  -->
<svg version="1.1" id="Layer_1" xmlns="http://www.w3.org/2000/svg" xmlns:xlink="http://www.w3.org/1999/xlink" x="0px" y="0px"
	 viewBox="0 0 612 612" style="enable-background:new 0 0 612 612;" xml:space="preserve">
<metadata><?xpacket begin="﻿" id="W5M0MpCehiHzreSzNTczkc9d"?>
<x:xmpmeta xmlns:x="adobe:ns:meta/" x:xmptk="Adobe XMP Core 5.6-c067 79.157747, 2015/03/30-23:40:42        ">
   <rdf:RDF xmlns:rdf="http://www.w3.org/1999/02/22-rdf-syntax-ns#">
      <rdf:Description rdf:about=""/>
   </rdf:RDF>
</x:xmpmeta>
                                                                                                    
                                                                                                    
                                                                                                    
                                                                                                    
                                                                                                    
                                                                                                    
                                                                                                    
                                                                                                    
                                                                                                    
                                                                                                    
                                                                                                    
                                                                                                    
                                                                                                    
                                                                                                    
                                                                                                    
                                                                                                    
                                                                                                    
                                                                                                    
                                                                                                    
                                                                                                    
                           
<?xpacket end="w"?></metadata>
<style type="text/css">
	.st0{fill:#0083BF;}
	.st1{fill:#FFFFFF;}
	.st2{fill:#90CEF1;}
	.st3{fill:#74C1EC;}
</style>
<rect y="0" class="st0" width="612" height="612"/>
<g>
	<path class="st1" d="M296.2,295.6c2.3,1.6,4.8,1.7,5.7,1.6c1.2-0.1,2.2-0.9,2.1-2c-0.1-1.1-0.9-1.6-2.1-2c-3.1-1.1-5.9-2.7-5.9-6.1
		c0-3.3,2.3-5.9,5.6-6.1c1-0.1,2.4-0.1,4.9,0.8l-0.5,3.8c-2.2-0.9-3.4-0.9-4.1-0.8c-1.4,0.1-2.1,1.1-2,2.2c0.1,1.1,1.1,1.6,2.2,2
		c3.1,1.1,5.8,2.9,5.8,6.1c0,3.3-2.3,5.8-6,6c-1.1,0.1-3.6-0.1-6.3-1.4L296.2,295.6z"/>
	<path class="st1" d="M317.1,301.4l-8.2-20.3h4.6l2.6,6.6l1.4,4.1l1.4-4l2.7-6.8h4.6l-8.2,20.3H317.1z"/>
	<path class="st1" d="M328.5,301v-19.9h10v4h-6v4h5.2v4h-5.2v4h6.3v4H328.5z"/>
	<path class="st1" d="M345.6,301v-15.9h-4.9v-3.9h13.9v3.9h-4.9V301H345.6z"/>
	<path class="st1" d="M356.6,295.6c2.3,1.6,4.8,1.7,5.7,1.6c1.2-0.1,2.2-0.9,2.1-2c-0.1-1.1-0.9-1.6-2.1-2c-3.1-1.1-5.9-2.7-5.9-6.1
		c0-3.3,2.3-5.9,5.6-6.1c1-0.1,2.4-0.1,4.9,0.8l-0.5,3.8c-2.2-0.9-3.4-0.9-4.1-0.8c-1.4,0.1-2.1,1.1-2,2.2c0.1,1.1,1.1,1.6,2.2,2
		c3.1,1.1,5.8,2.9,5.8,6.1c0,3.3-2.3,5.8-6,6c-1.1,0.1-3.6-0.1-6.3-1.4L356.6,295.6z"/>
	<path class="st1" d="M372.4,281.1h4c0,2.6,0,5.3,0,7.9l5-7.9h4.6l-6.5,9.8l7,10.1h-4.9l-5.3-7.8c0,2.6,0,5.2,0,7.8h-4V281.1z"/>
	<path class="st1" d="M389.2,301v-19.9h4V301H389.2z"/>
	<path class="st1" d="M302.6,332.3h-5.9v-19.9h5.9C315.8,312.4,315.8,332.3,302.6,332.3z M300.6,316.4v11.9h1.9
		c7.7,0,7.7-11.9,0-11.9H300.6z"/>
	<path class="st1" d="M322.2,311.7h0.4l8.4,20.6h-4.5l-0.8-2.1h-6.6l-0.8,2.1h-4.5L322.2,311.7z M324.2,326.4l-1.8-5.2l-1.9,5.2
		H324.2z"/>
	<path class="st1" d="M337.7,332.3h-4V312h1.1l10,11.7v-11.2h4v20.3h-1.1l-10.1-11.2V332.3z"/>
	<path class="st1" d="M296.2,358.1c2.3,1.6,4.8,1.7,5.7,1.6c1.2-0.1,2.2-0.9,2.1-2c-0.1-1.1-0.9-1.6-2.1-2c-3.1-1.1-5.9-2.7-5.9-6.1
		c0-3.3,2.3-5.9,5.6-6.1c1-0.1,2.4-0.1,4.9,0.8l-0.5,3.8c-2.2-0.9-3.4-0.9-4.1-0.8c-1.4,0.1-2.1,1.1-2,2.2c0.1,1.1,1.1,1.6,2.2,2
		c3.1,1.1,5.8,2.9,5.8,6.1c0,3.3-2.3,5.8-6,6c-1.1,0.1-3.6-0.1-6.3-1.4L296.2,358.1z"/>
	<path class="st1" d="M314,363.5v-15.9H309v-3.9h13.9v3.9H318v15.9H314z"/>
	<path class="st1" d="M331,342.9h0.4l8.4,20.6h-4.5l-0.8-2.1h-6.6l-0.8,2.1h-4.5L331,342.9z M333,357.7l-1.8-5.2l-1.9,5.2H333z"/>
	<path class="st1" d="M344.3,363.5v-15.9h-4.9v-3.9h13.9v3.9h-4.9v15.9H344.3z"/>
	<path class="st1" d="M356.1,363.5v-19.9h4v19.9H356.1z"/>
	<path class="st1" d="M364.8,358.1c2.3,1.6,4.8,1.7,5.7,1.6c1.2-0.1,2.2-0.9,2.1-2c-0.1-1.1-0.9-1.6-2.1-2c-3.1-1.1-5.9-2.7-5.9-6.1
		c0-3.3,2.3-5.9,5.6-6.1c1-0.1,2.4-0.1,4.9,0.8l-0.5,3.8c-2.2-0.9-3.4-0.9-4.1-0.8c-1.4,0.1-2.1,1.1-2,2.2c0.1,1.1,1.1,1.6,2.2,2
		c3.1,1.1,5.8,2.9,5.8,6.1c0,3.3-2.3,5.8-6,6c-1.1,0.1-3.6-0.1-6.3-1.4L364.8,358.1z"/>
	<path class="st1" d="M382.6,363.5v-15.9h-4.9v-3.9h13.9v3.9h-4.9v15.9H382.6z"/>
	<path class="st1" d="M394.4,363.5v-19.9h4v19.9H394.4z"/>
	<path class="st1" d="M403.5,343.7h4c0,2.6,0,5.3,0,7.9l5-7.9h4.6l-6.4,9.8l7,10.1h-4.9l-5.3-7.8c0,2.6,0,5.2,0,7.8h-4V343.7z"/>
	<path class="st1" d="M420.3,363.5v-19.9h10v4h-6v4h5.2v4h-5.2v4h6.3v4H420.3z"/>
	<path class="st2" d="M300.3,381.7c0-0.8-0.6-1.3-1.4-1.4c-1.2-0.1-2.7,0.7-3.2,1.1l-0.7-2.6c1.1-0.8,2.7-1.3,4.1-1.2
		c4,0.2,5.3,3.7,3.1,6.9l-2.7,4.2h4v2.8h-9l5.1-8.1C300.4,382.2,300.3,381.7,300.3,381.7z"/>
	<path class="st2" d="M305.8,384.5c0-3.9,1.3-7,4.7-7c3.4,0,4.7,3.1,4.7,7c0,3.9-1.3,7-4.7,7C307.1,391.5,305.8,388.4,305.8,384.5z
		 M312.6,384.5c0-2.4-0.5-4.5-2.1-4.5c-1.5,0-2,2-2,4.5c0,2.5,0.5,4.5,2,4.5C312,389,312.6,387,312.6,384.5z"/>
	<path class="st2" d="M318.8,391.5c-2.1,0-2.1-3.1,0-3.1C320.9,388.4,320.8,391.5,318.8,391.5z"/>
	<path class="st2" d="M321.8,377.7h4.9v13.6H324v-10.9h-2.2V377.7z"/>
	<path class="st2" d="M329.8,384.5c0-3.9,1.3-7,4.7-7c3.4,0,4.7,3.1,4.7,7c0,3.9-1.3,7-4.7,7C331.1,391.5,329.8,388.4,329.8,384.5z
		 M336.5,384.5c0-2.4-0.5-4.5-2.1-4.5c-1.5,0-2,2-2,4.5c0,2.5,0.5,4.5,2,4.5C336,389,336.5,387,336.5,384.5z"/>
	<path class="st2" d="M342.7,391.5c-2.1,0-2.1-3.1,0-3.1C344.8,388.4,344.8,391.5,342.7,391.5z"/>
	<path class="st2" d="M352,381.7c0-0.8-0.6-1.3-1.4-1.4c-1.2-0.1-2.7,0.7-3.2,1.1l-0.7-2.6c1.1-0.8,2.7-1.3,4.1-1.2
		c4,0.2,5.3,3.7,3.1,6.9l-2.7,4.2h4v2.8h-9l5.1-8.1C352.1,382.2,352,381.7,352,381.7z"/>
	<path class="st2" d="M357.5,384.5c0-3.9,1.3-7,4.7-7c3.4,0,4.7,3.1,4.7,7c0,3.9-1.3,7-4.7,7C358.8,391.5,357.5,388.4,357.5,384.5z
		 M364.3,384.5c0-2.4-0.5-4.5-2.1-4.5c-1.5,0-2,2-2,4.5c0,2.5,0.5,4.5,2,4.5C363.8,389,364.3,387,364.3,384.5z"/>
	<path class="st2" d="M368.7,377.7h4.9v13.6h-2.7v-10.9h-2.2V377.7z"/>
	<path class="st2" d="M385,387.3c0,2.3-1.5,4-4.1,4.1c-0.7,0-2.6,0-4.4-0.6l0.2-2.7c4.2,1.5,5.5,0.3,5.4-0.9c0-1.6-1-2.1-5.2-2.4
		v-7.2h7v2.6h-4.2v2.4C383.2,383,385,384.2,385,387.3z"/>
	<path class="st1" d="M295.8,407.8h4.9c2.2,0,3.6,1.6,3.5,3.8c0,0.9-0.4,1.9-1.1,2.5c0.8,0.6,1.3,1.5,1.3,2.5c0,2.1-1.7,3.7-3.7,3.7
		h-4.9V407.8z M298.3,412.8h1.5h0.7c0.7,0,1.1-0.6,1.1-1.3c0-0.7-0.4-1.3-1.1-1.3h-2.2V412.8z M298.3,417.8h1.5h0.7
		c0.7,0,1.3-0.6,1.3-1.3c0-0.7-0.5-1.2-1.3-1.2h-2.2V417.8z"/>
	<path class="st1" d="M313.4,407.6c8.6,0,8.6,12.8,0,12.8S304.8,407.6,313.4,407.6z M313.4,410.2c-5,0-5,7.7,0,7.7
		S318.3,410.2,313.4,410.2z"/>
	<path class="st1" d="M325.3,407.8v9.9h3.9v2.5h-6.4v-12.4H325.3z"/>
	<path class="st1" d="M330.6,417.8h2.4c0.7,0,1.3-0.6,1.3-1.3v-8.7h2.5v8.7c0,2.5-1.3,3.7-3.7,3.7h-2.5V417.8z"/>
	<path class="st1" d="M340.4,420.2v-12.4h2.5v12.4H340.4z"/>
	<path class="st1" d="M351.7,420.2v-12.4h4.9c4.8,0,4.8,7.7,0,7.7h-2.4v4.7H351.7z M356.4,413.1c1.7,0,1.7-2.8,0-2.8h-2.2v2.8H356.4
		z"/>
	<path class="st1" d="M368.4,407.6c8.6,0,8.6,12.8,0,12.8S359.9,407.6,368.4,407.6z M368.4,410.2c-5,0-5,7.7,0,7.7
		S373.4,410.2,368.4,410.2z"/>
	<path class="st1" d="M381.6,420.2h-3.7v-12.4h3.7C389.9,407.8,389.9,420.2,381.6,420.2z M380.4,410.3v7.5h1.2c4.8,0,4.8-7.5,0-7.5
		H380.4z"/>
	<path class="st1" d="M394.4,407.4h0.3l5.2,12.9h-2.8l-0.5-1.3h-4.1l-0.5,1.3h-2.8L394.4,407.4z M395.7,416.6l-1.1-3.2l-1.2,3.2
		H395.7z"/>
	<path class="st1" d="M407.6,410.2c-4.9,0-4.9,7.6,0,7.6c1.1,0,1.9-0.3,2.4-0.6l0.3,2.6c-0.8,0.3-1.9,0.5-2.7,0.5
		c-8.4,0-8.4-12.6,0-12.6c0.9,0,1.7,0.2,2.4,0.5l-0.3,2.6C409.3,410.5,408.7,410.2,407.6,410.2z"/>
	<path class="st1" d="M413.2,420.2v-12.4h2.5v12.4H413.2z"/>
	<path class="st1" d="M420.3,420.4c-1.9,0-1.9-2.8,0-2.8C422.2,417.6,422.1,420.4,420.3,420.4z"/>
	<path class="st1" d="M295.8,428.7h4.9c2.2,0,3.6,1.6,3.5,3.8c0,0.9-0.4,1.9-1.1,2.5c0.8,0.6,1.3,1.5,1.3,2.5c0,2.1-1.7,3.7-3.7,3.7
		h-4.9V428.7z M298.3,433.6h1.5h0.7c0.7,0,1.1-0.6,1.1-1.3c0-0.7-0.4-1.3-1.1-1.3h-2.2V433.6z M298.3,438.6h1.5h0.7
		c0.7,0,1.3-0.6,1.3-1.3c0-0.7-0.5-1.2-1.3-1.2h-2.2V438.6z"/>
	<path class="st1" d="M313.4,428.5c8.6,0,8.6,12.8,0,12.8S304.8,428.5,313.4,428.5z M313.4,431c-5,0-5,7.7,0,7.7
		S318.3,431,313.4,431z"/>
	<path class="st1" d="M325.3,428.7v9.9h3.9v2.5h-6.4v-12.4H325.3z"/>
	<path class="st1" d="M330.6,438.6h2.4c0.7,0,1.3-0.6,1.3-1.3v-8.7h2.5v8.7c0,2.5-1.3,3.7-3.7,3.7h-2.5V438.6z"/>
	<path class="st1" d="M340.4,441.1v-12.4h2.5v12.4H340.4z"/>
	<path class="st1" d="M350.7,441.1c1.5-3.3,3-6.7,4.5-10h-3.8v-2.4h7.5c-1.5,3.3-3,6.6-4.5,9.9h4.6v2.5H350.7z M358.6,425.6
		l-2.5,2.2h-1.6l-2.5-2.2h2.7l0.6,0.7l0.7-0.7H358.6z"/>
	<path class="st1" d="M362,441.1v-12.4h2.5v12.4H362z"/>
	<path class="st1" d="M371.6,441.4l-5.1-12.7h2.9l1.7,4.1l0.9,2.6l0.9-2.5l1.7-4.2h2.9l-5.1,12.7H371.6z"/>
	<path class="st1" d="M384.9,428.5c8.6,0,8.6,12.8,0,12.8S376.4,428.5,384.9,428.5z M384.9,431c-5,0-5,7.7,0,7.7
		S389.9,431,384.9,431z"/>
	<path class="st1" d="M395.8,441.1v-9.9h-3.1v-2.5h8.7v2.5h-3.1v9.9H395.8z"/>
	<path class="st1" d="M403.9,441.2c-1.9,0-1.9-2.8,0-2.8C405.8,438.4,405.8,441.2,403.9,441.2z"/>
</g>
<g id="XMLID_23_">
	<path id="XMLID_24_" class="st3" d="M184.9,344.1c-7.5,0-15-1-22.3-3c-1.3-0.3-2.5-0.7-3.8-1.1c-20.2-6.5-37.2-20.2-47.8-38.7
		c-11.3-19.7-14.3-42.7-8.3-64.6c6-21.9,20.1-40.3,39.8-51.6c12.9-7.4,27.5-11.3,42.2-11.3c7.5,0,15.1,1,22.4,3
		c21.9,6,40.3,20.1,51.6,39.8c9.6,16.7,13.2,35.6,10.4,54.6l-0.1,0.6h-8.3l0.1-0.8c2.8-17.5-0.4-34.9-9.2-50.4
		c-10.2-17.8-26.8-30.6-46.6-36c-6.6-1.8-13.5-2.7-20.3-2.7c-13.3,0-26.5,3.5-38.1,10.2c-17.8,10.2-30.6,26.8-36,46.6
		c-5.4,19.8-2.7,40.6,7.5,58.4c10.2,17.8,26.8,30.6,46.6,36c7.5,2,15.4,2.9,23.2,2.6l0.4-0.1c6.2-0.3,12.5-1.4,18.7-3.2l0.2,0l0.2,0
		c4.8,0.9,9.8,1.4,15,1.4l2.8,0l-2.5,1.2c-4,2-8.2,3.7-12.5,5l-0.2,0.1c-0.2,0.1-0.3,0.2-0.5,0.2
		C201.6,342.9,193.3,344.1,184.9,344.1z"/>
</g>
<path id="XMLID_10_" class="st1" d="M214.7,256.1c-1-7-7.7-12-15-11c-7.3,1-12.3,7.6-11.3,14.6c1,7.1,7.6,12,14.9,11
	C210.6,269.8,215.7,263.2,214.7,256.1z M202.4,264.3c-3.6,0.5-6.7-1.9-7.2-5.5c-0.5-3.5,1.8-6.8,5.4-7.3c3.6-0.5,6.7,2,7.2,5.5
	C208.4,260.7,206,263.8,202.4,264.3z"/>
<path id="XMLID_7_" class="st1" d="M249.2,287.4c-1-7-7.7-12-15-11c-7.3,1-12.3,7.6-11.3,14.6c1,7.1,7.6,12,14.9,11
	C245.1,301.1,250.2,294.5,249.2,287.4z M236.9,295.6c-3.6,0.5-6.7-1.9-7.2-5.4c-0.5-3.5,1.8-6.8,5.4-7.3c3.6-0.5,6.7,2,7.2,5.5
	C242.9,292,240.5,295.1,236.9,295.6z"/>
<g id="XMLID_4_">
	<path id="XMLID_5_" class="st1" d="M200.1,299.8h-10.5l46.7-51.1h10.5L200.1,299.8z"/>
</g>
<path id="XMLID_3_" class="st1" d="M227.1,321.6c-1.4,0.1-2.8,0.1-4.2,0.1c-19.7,0-31.8-7.3-38.6-13.5c-9.5-8.6-14.9-20.7-14.9-33.2
	v-0.7h-8.2v0.7c0,14.8,6.4,29.1,17.5,39.3c7.8,7.1,21.8,15.6,44.1,15.6c2.5,0,5.1-0.1,7.7-0.4L227.1,321.6z"/>
</svg>
