<svg xmlns="http://www.w3.org/2000/svg" viewBox="0 0 398.26 285.9"><defs><style>.a{fill:#009edb;}.b{fill:#72c6ef;}.c{fill:#badaf3;}</style></defs><path class="a" d="M153.48,72.27l-8.12,29.42a77.19,77.19,0,1,1-79.21,80.63l-29.83-8.23c-.07,1.57-.11,3.16-.11,4.75A107.06,107.06,0,1,0,153.48,72.27Z"/><polygon class="b" points="169.53 126.28 140.81 118.33 132.46 148.97 122.32 186.14 151.04 194.08 161.13 157.06 169.53 126.28"/><polygon class="c" points="169.53 126.28 140.81 118.33 132.46 149.11 161.13 157.06 169.53 126.28"/><polygon class="b" points="99.18 106.85 80.37 174.57 109.09 182.51 127.89 114.82 139.11 74.44 110.39 66.49 99.18 106.85"/><polygon class="c" points="112.1 60.26 99.18 106.85 127.89 114.82 140.82 68.19 112.1 60.26"/><polygon class="b" points="83.44 0 60.92 81.82 48.56 126.72 9.98 75.31 0 111.65 38.52 163.21 38.51 163.21 67.23 171.16 89.64 89.75 112.16 7.94 83.44 0"/><polygon class="c" points="83.44 0 60.92 81.82 89.64 89.75 112.16 7.94 83.44 0"/><path class="a" d="M294.76,41.21V31h-4.69V45.1h21.47v4H285.8V31h-4.65V27h4.65V19.74h4.27V27h4.69V19h4.06v8h4.76V19.33h4.31V27h4.54v4h-4.54V41.21ZM298.82,31v6.47h4.76V31Z"/><path class="a" d="M338,34.56a24.58,24.58,0,0,0,9.44,4.65,18.33,18.33,0,0,0-2.72,3.52,24.8,24.8,0,0,1-5.82-2.8V50.82h-4.27V38.69h2.58a20.71,20.71,0,0,1-4-4.13h-3.55a23.24,23.24,0,0,1-4.13,4.1h2.92V41c0,3.27-1,7.61-7.85,10.13a15.06,15.06,0,0,0-2.83-3.31c5.76-1.9,6.45-4.79,6.45-7V39.62a27.53,27.53,0,0,1-6.27,3.21,19.38,19.38,0,0,0-2.69-3.38,25.83,25.83,0,0,0,9.3-4.89h-5.48V19.92h24.57V34.56ZM323.17,25.7h6V23.22h-6Zm0,5.55h6V28.77h-6Zm16.2-8h-6V25.7h6Zm0,5.55h-6v2.48h6Z"/><path class="a" d="M292.48,76.26a18.53,18.53,0,0,0,0,3.58c-8.2,1.9-9.61,2.38-10.54,2.93A30.81,30.81,0,0,0,280.63,79c.9-.2,1.66-.93,2.72-2.2a36.24,36.24,0,0,0,2.42-3.17c-2.69.31-3.52.52-4,.79a41.26,41.26,0,0,0-1.44-4.1c.76-.17,1.31-.9,2.06-2a42.27,42.27,0,0,0,4.1-9.16l4.17,1.93a47.94,47.94,0,0,1-5,9l2.48-.2c.69-1.14,1.34-2.35,1.93-3.59l3.55,2.24a68.69,68.69,0,0,1-5.89,8.72Zm.69,9.51c-3.86,1.62-8.06,3.27-11.4,4.51l-.93-4.06c2.89-.83,7.3-2.41,11.58-3.89Zm7.38-9c-.28,7.23-1.17,12.2-7.45,15a11.8,11.8,0,0,0-2.48-3.37c5.21-2.21,5.69-5.82,5.9-11.68Zm8.82,1c-.28-.72-.69-1.55-1.14-2.44-11.75,1.2-13.47,1.44-14.61,2a34.09,34.09,0,0,0-1.2-3.93,6.12,6.12,0,0,0,2.51-1.14c.59-.62,2.31-2.79,3.72-4.65h-5.41V64h7.65c-.34-1.07-.86-2.55-1.34-3.69l3.86-1a29.22,29.22,0,0,1,1.72,4l-2.21.62h9.48v3.65h-9c-1.24,1.69-2.65,3.62-3.93,5.17l6.83-.55c-.56-.86-1.11-1.69-1.62-2.45l3.13-1.55A42.91,42.91,0,0,1,312.78,76Zm-.62,9.82c.55,0,.69-.76.76-5.1A11.74,11.74,0,0,0,313,84.12c-.3,5.41-1.2,7-3.82,7h-2.38c-3.06,0-3.79-1.18-3.79-4.62V76.74h4v9.69c0,1.06.07,1.2.56,1.2Z"/><path class="a" d="M329.63,80.91a17.06,17.06,0,0,0,1.31,3.76c-6.93,5-8.2,6-8.86,6.85a17.39,17.39,0,0,0-2-3.82,4.07,4.07,0,0,0,1.86-3.2V74.13h-5V70.06h9.2V83.32Zm-4.41-13a44.6,44.6,0,0,0-5.62-5.45l2.59-2.61A45.5,45.5,0,0,1,328,64.89Zm23.56,6.65h-7.92V91.66h-4.41V74.54h-8.27V70.27h8.27V59.62h4.41V70.27h7.92Z"/><path class="a" d="M308.85,102.29v29.63h-4.41v-2.17h-15.3V132H284.9v-29.7Zm-19.71,4.13v7.41h15.3v-7.41Zm15.3,19.19v-7.72h-15.3v7.72Z"/><path class="b" d="M286.92,156.82a2.61,2.61,0,0,0,.2-.84,1.59,1.59,0,0,0-.57-1.27,2.15,2.15,0,0,0-1.46-.49,5.6,5.6,0,0,0-2.15.48,6.2,6.2,0,0,0-1.66.91l-.86-3.37a8.73,8.73,0,0,1,2.47-1.19,7.91,7.91,0,0,1,2.72-.4,6.64,6.64,0,0,1,2.9.73,4.64,4.64,0,0,1,1.83,1.73,4.55,4.55,0,0,1,.63,2.38,6.77,6.77,0,0,1-1.45,4l-3.45,5.34h5.19v3.54H279.71L286.24,158A5.78,5.78,0,0,0,286.92,156.82Z"/><path class="b" d="M295.05,166.13a15.11,15.11,0,0,1,0-13,5.4,5.4,0,0,1,9.08,0,15.17,15.17,0,0,1,0,13,5.38,5.38,0,0,1-9.08,0Zm6.55-2.36a14.13,14.13,0,0,0,0-8.28,2.12,2.12,0,0,0-2-1.56,2.07,2.07,0,0,0-2,1.56,14.13,14.13,0,0,0,0,8.28,2.07,2.07,0,0,0,2,1.56A2.12,2.12,0,0,0,301.6,163.77Z"/><path class="b" d="M311.07,165.19a2,2,0,0,1,.52,1.38,2,2,0,0,1-.53,1.4,1.85,1.85,0,0,1-1.45.59,1.87,1.87,0,0,1-1.46-.59,2,2,0,0,1-.52-1.4,2,2,0,0,1,.52-1.38,1.89,1.89,0,0,1,1.46-.57A1.86,1.86,0,0,1,311.07,165.19Z"/><path class="b" d="M313.62,150.92H320v17.46h-3.48v-14h-2.86Z"/><path class="b" d="M324.68,166.13a15.11,15.11,0,0,1,0-13,5.39,5.39,0,0,1,9.07,0,15.17,15.17,0,0,1,0,13,5.37,5.37,0,0,1-9.07,0Zm6.54-2.36a13.92,13.92,0,0,0,0-8.28,2.11,2.11,0,0,0-2-1.56,2.08,2.08,0,0,0-2,1.56,14.35,14.35,0,0,0,0,8.28,2.08,2.08,0,0,0,2,1.56A2.11,2.11,0,0,0,331.22,163.77Z"/><path class="b" d="M340.7,165.19a2.1,2.1,0,0,1,0,2.78,1.87,1.87,0,0,1-1.46.59,1.85,1.85,0,0,1-1.45-.59,2,2,0,0,1-.53-1.4,2,2,0,0,1,.53-1.38,2.15,2.15,0,0,1,2.92,0Z"/><path class="b" d="M349.86,156.82a2.42,2.42,0,0,0,.21-.84,1.59,1.59,0,0,0-.57-1.27,2.17,2.17,0,0,0-1.46-.49,5.57,5.57,0,0,0-2.15.48,6.46,6.46,0,0,0-1.67.91l-.85-3.37a8.6,8.6,0,0,1,2.47-1.19,7.91,7.91,0,0,1,2.72-.4,6.56,6.56,0,0,1,2.89.73,4.5,4.5,0,0,1,2.46,4.11,6.75,6.75,0,0,1-1.44,4L349,164.84h5.19v3.54H342.66L349.19,158A5.27,5.27,0,0,0,349.86,156.82Z"/><path class="b" d="M358,166.13a15.11,15.11,0,0,1,0-13,5.4,5.4,0,0,1,9.08,0,15.27,15.27,0,0,1,0,13,4.94,4.94,0,0,1-4.56,2.48A4.88,4.88,0,0,1,358,166.13Zm6.54-2.36a13.92,13.92,0,0,0,0-8.28,2.11,2.11,0,0,0-2-1.56,2.08,2.08,0,0,0-2,1.56,14.35,14.35,0,0,0,0,8.28,2.08,2.08,0,0,0,2,1.56A2.11,2.11,0,0,0,364.54,163.77Z"/><path class="b" d="M377.22,156.82a2.61,2.61,0,0,0,.2-.84,1.59,1.59,0,0,0-.57-1.27,2.15,2.15,0,0,0-1.46-.49,5.6,5.6,0,0,0-2.15.48,6.2,6.2,0,0,0-1.66.91l-.86-3.37a8.73,8.73,0,0,1,2.47-1.19,7.91,7.91,0,0,1,2.72-.4,6.64,6.64,0,0,1,2.9.73,4.64,4.64,0,0,1,1.83,1.73,4.55,4.55,0,0,1,.63,2.38,6.77,6.77,0,0,1-1.45,4l-3.45,5.34h5.19v3.54H370L376.54,158A5.78,5.78,0,0,0,377.22,156.82Z"/><path class="b" d="M385.35,166.13a15.11,15.11,0,0,1,0-13,5.4,5.4,0,0,1,9.08,0,15.27,15.27,0,0,1,0,13,5.38,5.38,0,0,1-9.08,0Zm6.54-2.36a13.92,13.92,0,0,0,0-8.28,2.06,2.06,0,0,0-4,0,14.35,14.35,0,0,0,0,8.28,2.06,2.06,0,0,0,4,0Z"/><path class="a" d="M299.87,201.44c0,1.4-.3,2.1-1.17,2.49a10.3,10.3,0,0,1-4.19.46,9.82,9.82,0,0,0-.82-2.49c1.21.07,2.65,0,3.05,0s.56-.13.56-.53v-3.27h-4.6v6.08h-2.61v-6.08h-4.45a12.46,12.46,0,0,1-2.74,6.48,9.53,9.53,0,0,0-2-1.68c2.38-2.62,2.57-6.49,2.57-9.55v-7.77h16.45Zm-9.78-5.73V193H286v.4c0,.69,0,1.48-.06,2.28Zm-4.1-7.62v2.53h4.1v-2.53Zm11.31,0h-4.6v2.53h4.6Zm0,7.62V193h-4.6v2.68Z"/><path class="a" d="M324.17,194.49a21.43,21.43,0,0,1-3.62,4.78c.59,1.67,1.26,2.68,1.92,2.68.45,0,.72-1,.83-3.62a6.45,6.45,0,0,0,2.13,1.48c-.41,3.81-1.22,4.77-3.2,4.77-1.59,0-2.81-1.3-3.75-3.44a22.46,22.46,0,0,1-4,2.66,11.46,11.46,0,0,0-1.72-2.09,22.56,22.56,0,0,0,4.86-3.08,40,40,0,0,1-1.11-5.84h-4.43v2.49c1.11-.2,2.25-.42,3.36-.61l.19,2.35-3.55.72v3.73c0,1.41-.3,2.11-1.18,2.52a9.25,9.25,0,0,1-3.92.51,10.48,10.48,0,0,0-.91-2.62c1.22.07,2.48,0,2.87,0s.53-.11.53-.46v-3.15l-3.9.78-.64-2.61c1.25-.2,2.82-.44,4.54-.75v-2.92h-4.12v-2.46h4.12v-2.48c-1.18.19-2.38.35-3.49.48a10.2,10.2,0,0,0-.74-2.18,55.86,55.86,0,0,0,8.65-1.83l1.74,2.2c-1.09.33-2.29.61-3.55.87v2.94h4.18c-.17-2-.23-4-.26-6h2.73a50.82,50.82,0,0,0,.22,6h5.92v2.46h-5.66c.17,1.31.39,2.58.63,3.69a18.62,18.62,0,0,0,2.07-3Zm-1.59-4.79a17.51,17.51,0,0,0-3.1-3.6l2-1.32a18.64,18.64,0,0,1,3.23,3.46Z"/><path class="a" d="M335.32,184.93a39.92,39.92,0,0,1-1.7,4.71V204.5h-2.46V194.28c-.28.41-.56.78-.85,1.15a15,15,0,0,0-1.26-2.77,25,25,0,0,0,3.88-8.43Zm.07,4h2.53v15.53h-2.53Zm2.92-4.82a36.77,36.77,0,0,1,2.68,4.1l-2.11,1.33a30.58,30.58,0,0,0-2.53-4.27Zm10.5,17.54c0,1.29-.28,1.94-1.09,2.33a8.38,8.38,0,0,1-3.66.46,10.34,10.34,0,0,0-.8-2.39c1,.06,2.15.06,2.5,0s.48-.13.48-.48v-14.4H341v-2.33h7.84Z"/><path class="a" d="M373.09,188.24h-2.51v13c0,1.57-.37,2.33-1.39,2.76a14.61,14.61,0,0,1-4.93.48,11.37,11.37,0,0,0-1.07-2.74c1.55.09,3.45.06,4,.06s.7-.15.7-.61V188.24h-14.4v-2.61h19.63ZM358,199.11v1.66h-2.53V190.68h9.24v8.43Zm0-6v3.49h4.14v-3.49Z"/><path class="a" d="M385.5,195.69a16,16,0,0,0,.67,2.49c-6.21,3.26-7.21,3.92-7.84,4.53a7.84,7.84,0,0,0-1.42-2.05,3.38,3.38,0,0,0,1.61-2.51v-12.5h2.84v12.13Zm8.89,8.74a35.54,35.54,0,0,0-3.66-4.6,13.83,13.83,0,0,1-5.67,4.77,15.4,15.4,0,0,0-2-2.26c6.54-2.66,8.06-8.06,8.41-17.26l2.77.13c-.24,5.06-.85,9.09-2.23,12.25a43.89,43.89,0,0,1,4.65,5.25Zm-8.11-11.66a24.81,24.81,0,0,0-3.09-5.14l2.22-1.24a28.74,28.74,0,0,1,3.23,4.94Z"/><path class="a" d="M287.74,219.19a33.52,33.52,0,0,1-1.62,3.85v15.8h-2.35V227.12c-.52.74-1.07,1.46-1.59,2.07a16.42,16.42,0,0,0-1.33-2.55,23.52,23.52,0,0,0,4.58-8.15Zm13.4,2.59v2.11h-14v-2.11h6.23a19.38,19.38,0,0,0-1.35-2.59l2.2-.83a16.83,16.83,0,0,1,1.59,2.88l-1.24.54Zm-12.82,9.68h11.53v7.21h-2.29v-.61h-7v.67h-2.21Zm11.25-4.38H288.65v-2h10.92Zm-10.92,1.13h10.92v2H288.65Zm1.88,5.31V236h7v-2.47Z"/><path class="a" d="M313.66,235.73a21.71,21.71,0,0,0-2.09-2.49v5.47h-2.4v-5.12a15.18,15.18,0,0,1-2.85,3.88,13.18,13.18,0,0,0-1.13-2.49,14.11,14.11,0,0,0,3.4-4.2H306v-6.41h3.23v-1.54h-3.75V220.6h3.75v-2.09h2.35v2.09h3.62v2.23h-3.62v1.54h3.23v6.41H312a31.92,31.92,0,0,1,3.2,3.38Zm-5.55-6.91h1.37v-2.49h-1.37Zm4.44-2.49h-1.26v2.49h1.26Zm11.77,12.36a35.53,35.53,0,0,0-4.25-3.2,7.46,7.46,0,0,1-4.75,3.37,5.74,5.74,0,0,0-1.18-1.72c4.86-1.41,5-3.94,5.08-10.33h2.11c0,3.86-.19,6.58-1.2,8.55l1.25-1.31a39.06,39.06,0,0,1,4.4,3Zm-8.5-14.21a8.39,8.39,0,0,0-1.09-.61,17.88,17.88,0,0,0,3.36-5.49l2.26.39c-.15.37-.33.79-.52,1.18h2.64l.32-.09,1.46.92a29.1,29.1,0,0,1-1.85,3.44h2.37v9.89h-2.3v-8.06H318v8.15h-2.2Zm2.92-2.48a16,16,0,0,1-1.46,2.22h2.81a18.58,18.58,0,0,0,1.22-2.22Z"/><path class="a" d="M349.23,221.76s0,.87,0,1.18c-.28,9.74-.52,13.2-1.41,14.36a2.91,2.91,0,0,1-2.1,1.19,24.63,24.63,0,0,1-3.42,0,6,6,0,0,0-.85-2.53c1.4.13,2.68.13,3.25.13a1.18,1.18,0,0,0,1-.37c.63-.7.91-4,1.15-11.66h-4.66a18.83,18.83,0,0,1-1.92,3.45,17.81,17.81,0,0,0-1.67-1.23v10.18h-5.82v1.59h-2.36V221.91h2.47a24.05,24.05,0,0,0,.63-3.51l2.83.4c-.37,1.09-.76,2.17-1.13,3.11h3.38v3.53a22.64,22.64,0,0,0,2.94-7l2.46.56a25.23,25.23,0,0,1-.85,2.77Zm-13.05,2.42h-3.46v3.53h3.46Zm0,10V230h-3.46v4.27Zm7.24-1.17a46,46,0,0,0-3-5l2-1.15a53.61,53.61,0,0,1,3.21,4.83Z"/><path class="a" d="M358.08,226.23a14.81,14.81,0,0,1-3.25,2.5,8.31,8.31,0,0,0-1.33-1.89,11.59,11.59,0,0,0,3.69-2.55H354v-2h1.7a12.33,12.33,0,0,0-1.15-2.7l1.83-.77a8.77,8.77,0,0,1,1.3,2.68l-1.76.79h2.2V218.4h2.4v3.84h4.11v2h-3.18c1,.56,2.2,1.28,2.57,1.54l-1.35,1.81c-.48-.46-1.33-1.17-2.15-1.83v2.38h-2.4Zm3.51,11.15c-.44-.32-1-.72-1.66-1.11a15,15,0,0,1-5.16,2.44,7,7,0,0,0-1.18-1.94,13.8,13.8,0,0,0,4.27-1.68c-1-.54-2.11-1-3.09-1.46.39-.56.8-1.24,1.24-2h-1.66v-2.09h2.73c.19-.44.37-.85.52-1.26l2.29.41c-.11.28-.24.57-.37.85h2.76l.4-.07,1.39.53a11.74,11.74,0,0,1-2.51,4.75,14.59,14.59,0,0,1,1.55,1Zm-3.08-5.73c-.21.42-.43.81-.65,1.16.59.28,1.2.58,1.77.89a8.21,8.21,0,0,0,1.52-2Zm5.89-12.11c-.72,1-1.4,2-2,2.63l-1.66-.74a21.12,21.12,0,0,0,1.44-2.74Zm8,5.27a25.81,25.81,0,0,1-2.1,7.73,10.42,10.42,0,0,0,4,4,8.11,8.11,0,0,0-1.68,2.05,11.82,11.82,0,0,1-3.68-3.7,13.42,13.42,0,0,1-4.84,4,10.82,10.82,0,0,0-1.37-2.11,10.58,10.58,0,0,0,4.92-4.16A27.38,27.38,0,0,1,366.1,228a14,14,0,0,1-1.16,1.94,13,13,0,0,0-1.85-1.65c1.74-2.27,2.7-5.95,3.2-9.85l2.36.35c-.18,1.22-.4,2.44-.66,3.59h5.8v2.4Zm-4.8,0a32.56,32.56,0,0,0,1.33,5,24.52,24.52,0,0,0,1.07-5Z"/><path class="a" d="M385.1,230l-2.22.68v5.12c0,1.2-.2,1.83-.85,2.22a5.39,5.39,0,0,1-3,.5,9.56,9.56,0,0,0-.65-2.37c.78,0,1.52,0,1.78,0s.37-.09.37-.37v-4.41l-2,.59-.59-2.5c.76-.18,1.63-.39,2.63-.66v-3.83h-2.29v-2.4h2.29V218.4h2.36v4.12h2.18v2.4h-2.18v3.22l1.91-.52Zm8.74-.28v2.09h3.92v7h-2.33v-.61h-5.28v.63h-2.22v-7h3.49v-2.09h-3.36c-.24,3.18-.93,6.69-2.59,9.15a11.59,11.59,0,0,0-2.09-1.52c2.13-3.21,2.31-8,2.31-11.38v-6.65h12v6.3h-3.81v1.92h4.42v2.18Zm-2.42-2.18v-1.92h-3.21v.35c0,.5,0,1,0,1.57Zm-3.21-6v1.87h7v-1.87Zm7.22,12.42h-5.28v2.17h5.28Z"/><path class="a" d="M286.15,268.37c.34.24.76.53,1.28.83,1.51.89,3.53,1,6.06,1a62.72,62.72,0,0,0,8.17-.57,11.61,11.61,0,0,0-.76,2.9c-1.59.08-5.23.24-7.54.24-2.88,0-4.71-.27-6.32-1.18-1-.55-1.79-1.26-2.27-1.26s-1.54,1.48-2.29,2.83l-1.89-2.62a9.61,9.61,0,0,1,3.07-2.44v-5.92h-2.48v-2.38h5Zm-1.4-10.24a27.76,27.76,0,0,0-2.87-4l2-1.28a24.26,24.26,0,0,1,3,3.83Zm8.8,8.52h-6.36v-2.42h6.36v-2h-3a4,4,0,0,0-2.11.37c-.14-.54-.57-1.74-.85-2.44.45-.13.8-.61,1.24-1.37.17-.31.5-1,.87-1.81h-2.33V254.8h3.18c.24-.72.48-1.44.65-2.18l2.7.72c-.15.48-.32,1-.52,1.46h7.24V257h-8.15c-.46,1-1,2-1.46,2.85h2.52v-2.13h2.68v2.13H300l0,2.4h-3.71v2h4.65v2.42h-4.65v3.07h-2.68Z"/><path class="a" d="M310.81,268.59c.33.22.72.5,1.22.79,1.44.85,3.38,1,5.74,1a72.15,72.15,0,0,0,8.23-.51,9.87,9.87,0,0,0-.7,2.49c-1.67.09-5.29.22-7.6.22-2.72,0-4.49-.24-6-1.09-.87-.53-1.59-1.18-2.07-1.18-.66,0-1.72,1.29-2.64,2.61l-1.59-2.17a10.71,10.71,0,0,1,2.92-2.21v-5.18h-2.75v-2.4h5.23Zm-1.15-9.89a34.53,34.53,0,0,0-3.79-3.73l1.74-1.54a34.89,34.89,0,0,1,3.92,3.48Zm5.47,10.61h-2.44V258.09h4.75c-1.07-.48-2.16-1-3.12-1.35l1.68-1.38c.83.31,1.85.72,2.83,1.14a18.18,18.18,0,0,0,1.83-1.22h-7.78v-2h10l.52-.14,1.52,1.25a24.25,24.25,0,0,1-3.94,3c.41.19.81.41,1.13.58l0,0H325v9c0,1.07-.2,1.6-.89,1.94a6.33,6.33,0,0,1-2.92.38,7.91,7.91,0,0,0-.66-2c.7,0,1.44,0,1.66,0s.33-.11.33-.33v-1h-2.58v3.18h-2.31V266h-2.5Zm0-9.35v1.18h2.5V260Zm2.5,4.21V263h-2.5v1.22Zm4.89-4.21h-2.58v1.18h2.58Zm0,4.21V263h-2.58v1.22Z"/><path class="a" d="M338.27,266.85v-6.47h-3v8.93h13.57v2.51H332.61V260.38h-2.94v-2.51h2.94v-4.6h2.7v4.6h3v-5.06h2.57v5.06h3V253h2.72v4.86h2.88v2.51h-2.88v6.47Zm2.57-6.47v4.09h3v-4.09Z"/><path class="a" d="M367,262.64a15.4,15.4,0,0,0,6,2.94,11.51,11.51,0,0,0-1.72,2.23,16,16,0,0,1-3.68-1.77v6.89h-2.71v-7.67h1.64a13.43,13.43,0,0,1-2.55-2.62h-2.25a14.23,14.23,0,0,1-2.61,2.59H361v1.51c0,2.07-.63,4.81-5,6.4a9.82,9.82,0,0,0-1.78-2.09c3.64-1.2,4.07-3,4.07-4.42v-.78a17.82,17.82,0,0,1-4,2,12.13,12.13,0,0,0-1.7-2.13,16.45,16.45,0,0,0,5.88-3.1H355v-9.26h15.54v9.26Zm-9.39-5.6h3.81v-1.57h-3.81Zm0,3.51h3.81V259h-3.81Zm10.24-5.08h-3.81V257h3.81Zm0,3.51h-3.81v1.57h3.81Z"/></svg>