<svg xmlns="http://www.w3.org/2000/svg" viewBox="0 0 588.93 285.9"><defs><style>.a{fill:#009edb;}.b{fill:#72c6ef;}.c{fill:#badaf3;}</style></defs><path class="a" d="M153.48,72.27l-8.12,29.42a77.19,77.19,0,1,1-79.21,80.63l-29.83-8.23c-.07,1.57-.11,3.16-.11,4.75A107.06,107.06,0,1,0,153.48,72.27Z"/><polygon class="b" points="169.53 126.28 140.81 118.33 132.46 148.97 122.32 186.14 151.04 194.08 161.13 157.06 169.53 126.28"/><polygon class="c" points="169.53 126.28 140.81 118.33 132.46 149.11 161.13 157.06 169.53 126.28"/><polygon class="b" points="99.18 106.85 80.37 174.57 109.09 182.51 127.89 114.82 139.11 74.44 110.39 66.49 99.18 106.85"/><polygon class="c" points="112.1 60.26 99.18 106.85 127.89 114.82 140.82 68.19 112.1 60.26"/><polygon class="b" points="83.44 0 60.92 81.82 48.56 126.72 9.98 75.31 0 111.65 38.52 163.21 38.51 163.21 67.23 171.16 89.64 89.75 112.16 7.94 83.44 0"/><polygon class="c" points="83.44 0 60.92 81.82 89.64 89.75 112.16 7.94 83.44 0"/><path class="a" d="M280.67,45.38h4.72a2.37,2.37,0,0,0,1.77-.72,2.45,2.45,0,0,0,.71-1.76V25.67h5V42.9q0,3.75-1.84,5.58a7.5,7.5,0,0,1-5.5,1.83h-4.85Z"/><path class="a" d="M302.6,48.86a11.54,11.54,0,0,1-4.32-4.7,14,14,0,0,1,0-12.41,11.54,11.54,0,0,1,4.32-4.7,14.37,14.37,0,0,1,13.89,0,11.54,11.54,0,0,1,4.32,4.7,14,14,0,0,1,0,12.41,11.54,11.54,0,0,1-4.32,4.7,14.37,14.37,0,0,1-13.89,0Zm11-4.39a7,7,0,0,0,2.53-2.83,8.39,8.39,0,0,0,.84-3.7,8.51,8.51,0,0,0-.84-3.72,6.84,6.84,0,0,0-2.53-2.83,7.42,7.42,0,0,0-4-1.06,7.29,7.29,0,0,0-4,1.06A6.8,6.8,0,0,0,303,34.2a8.37,8.37,0,0,0-.85,3.74,8.27,8.27,0,0,0,.85,3.7,7,7,0,0,0,2.51,2.83,7.22,7.22,0,0,0,4,1.08A7.34,7.34,0,0,0,313.58,44.47Z"/><path class="a" d="M342.66,46.52a8,8,0,0,1-3.29,3,10,10,0,0,1-8.7,0,7.94,7.94,0,0,1-3.31-3,8.82,8.82,0,0,1-1.26-4.79V25.67H331v16a3.56,3.56,0,0,0,1.19,2.85,4.4,4.4,0,0,0,5.61,0A3.53,3.53,0,0,0,339,41.69v-16h4.89V41.73A8.9,8.9,0,0,1,342.66,46.52Z"/><path class="a" d="M356.32,40.9H354v9.41H349V25.67h9.72a7.17,7.17,0,0,1,4,1.07,6.77,6.77,0,0,1,2.48,2.78,8.18,8.18,0,0,1,.82,3.63,7.82,7.82,0,0,1-1.27,4.37,6.08,6.08,0,0,1-3.58,2.62l5.72,10.17h-5.59Zm2-4.79a2.26,2.26,0,0,0,1.86-.81,3.24,3.24,0,0,0,0-3.89,2.26,2.26,0,0,0-1.86-.81H354v5.51Z"/><path class="a" d="M375,50.31h-4.93V25.16h1.31l12.43,14.47V25.71h5V50.82h-1.31L375,36.9Z"/><path class="a" d="M394,50.31V25.67h12.33V30.6h-7.4v4.93h6.47v4.92h-6.47v4.93h7.82v4.93ZM402.13,24h-4.45l1.69-4h6.06Z"/><path class="a" d="M411.13,50.31V25.67h12.34V30.6h-7.41v4.93h6.48v4.92h-6.48v4.93h7.82v4.93Z"/><path class="a" d="M303.33,64h1.55V89h-5l0-13.74-6.3,6.61-6.31-6.61V89h-5V64h1.58l9.72,10.82Z"/><path class="a" d="M314.8,87.6a11.59,11.59,0,0,1-4.33-4.71,14.07,14.07,0,0,1,0-12.4,11.5,11.5,0,0,1,4.33-4.7,14.35,14.35,0,0,1,13.88,0,11.41,11.41,0,0,1,4.32,4.7,14,14,0,0,1,0,12.4,11.5,11.5,0,0,1-4.32,4.71,14.35,14.35,0,0,1-13.88,0Zm11-4.4a6.87,6.87,0,0,0,2.53-2.82,8.44,8.44,0,0,0,.85-3.71A8.58,8.58,0,0,0,328.3,73a6.74,6.74,0,0,0-2.53-2.82,7.41,7.41,0,0,0-4-1.07,7.3,7.3,0,0,0-4,1.07,6.75,6.75,0,0,0-2.52,2.81,8.66,8.66,0,0,0,0,7.44,6.84,6.84,0,0,0,2.52,2.82,7.14,7.14,0,0,0,4,1.09A7.25,7.25,0,0,0,325.77,83.2Z"/><path class="a" d="M343.44,89h-4.93V63.89h1.31l12.44,14.47V64.45h5V89.56h-1.31L343.44,75.64Z"/><path class="a" d="M376.46,66.15a11.22,11.22,0,0,1,4.19,4.57,13.51,13.51,0,0,1,0,12,11.26,11.26,0,0,1-4.19,4.56,12.35,12.35,0,0,1-6.7,1.74h-7.33V64.41h7.33A12.35,12.35,0,0,1,376.46,66.15Zm-9.11,3.19V84.12h2.41a7.07,7.07,0,0,0,3.91-1.05,6.91,6.91,0,0,0,2.47-2.74,8.14,8.14,0,0,0,.82-3.62,8,8,0,0,0-.82-3.58,6.78,6.78,0,0,0-2.47-2.74,7.07,7.07,0,0,0-3.91-1Z"/><path class="a" d="M386.1,89V64.41H391V89Z"/><path class="a" d="M404.16,63.52h.52L415,89H409.5l-1-2.65h-8.16l-1,2.65h-5.58Zm2.51,18.25-2.23-6.4-2.31,6.4Z"/><path class="a" d="M422.76,64.41V84.12h7.82V89H417.84V64.41Z"/><path class="a" d="M433.78,89V64.41h12.33v4.93H438.7v4.92h6.48v4.93H438.7v4.93h7.82V89Z"/><path class="a" d="M473.93,66.15a11.27,11.27,0,0,1,4.18,4.57,13.51,13.51,0,0,1,0,12,11.31,11.31,0,0,1-4.18,4.56,12.38,12.38,0,0,1-6.7,1.74h-7.34V64.41h7.34A12.38,12.38,0,0,1,473.93,66.15Zm-9.12,3.19V84.12h2.42a7.1,7.1,0,0,0,3.91-1.05,6.81,6.81,0,0,0,2.46-2.74,8.15,8.15,0,0,0,.83-3.62,8,8,0,0,0-.83-3.58,6.69,6.69,0,0,0-2.46-2.74,7.1,7.1,0,0,0-3.91-1Z"/><path class="a" d="M483.59,89V64.41h12.33v4.93h-7.41v4.92H495v4.93h-6.48v4.93h7.82V89Z"/><path class="a" d="M287.25,103.15v19.7h7.82v4.93H282.32V103.15Z"/><path class="a" d="M307.58,102.25h.52l10.37,25.53h-5.55l-1-2.65h-8.17l-1,2.65h-5.58Zm2.52,18.26-2.24-6.41-2.31,6.41Z"/><path class="a" d="M330.15,121a9.71,9.71,0,0,0,3.25,1.56,12.32,12.32,0,0,0,3.09.43l.69,0a3,3,0,0,0,1.8-.72,2,2,0,0,0,.74-1.55,2.14,2.14,0,0,0-.65-1.67,5.39,5.39,0,0,0-1.89-1,16.6,16.6,0,0,1-5.36-3,5.76,5.76,0,0,1-1.95-4.54,7.85,7.85,0,0,1,.88-3.72,6.87,6.87,0,0,1,2.46-2.69,7.27,7.27,0,0,1,3.62-1.1l.83,0A16.36,16.36,0,0,1,343,104l-.62,4.75a12.09,12.09,0,0,0-5-1,2.39,2.39,0,0,0-2.44,2.51,2.08,2.08,0,0,0,.72,1.68,6.48,6.48,0,0,0,2,1,15,15,0,0,1,5.2,3,6,6,0,0,1,1.93,4.53,7.5,7.5,0,0,1-1,3.88,7,7,0,0,1-2.84,2.67,9.17,9.17,0,0,1-4.29,1,15.76,15.76,0,0,1-3.3-.41,15.6,15.6,0,0,1-3.79-1.42Z"/><path class="a" d="M352.09,127.78V108.07H346v-4.89h17.19v4.89H357v19.71Z"/><path class="a" d="M372.33,102.25h.52l10.36,25.53h-5.54l-1-2.65h-8.16l-1,2.65H362Zm2.51,18.26-2.24-6.41-2.3,6.41Z"/><path class="a" d="M388.08,127.78V108.07h-6.14v-4.89h17.19v4.89H393v19.71Z"/><path class="a" d="M402.08,127.78V103.15H407v24.63Z"/><path class="a" d="M411.81,121a9.8,9.8,0,0,0,3.25,1.56,12.38,12.38,0,0,0,3.09.43l.69,0a3,3,0,0,0,1.81-.72,2,2,0,0,0,.74-1.55,2.15,2.15,0,0,0-.66-1.67,5.3,5.3,0,0,0-1.89-1,16.6,16.6,0,0,1-5.36-3,5.76,5.76,0,0,1-2-4.54,8,8,0,0,1,.88-3.72,6.82,6.82,0,0,1,2.47-2.69,7.2,7.2,0,0,1,3.61-1.1l.83,0a16.31,16.31,0,0,1,5.3,1.07l-.62,4.75a12.08,12.08,0,0,0-5-1,2.41,2.41,0,0,0-2.45,2.51,2.08,2.08,0,0,0,.72,1.68,6.48,6.48,0,0,0,2,1,15.06,15.06,0,0,1,5.21,3,6,6,0,0,1,1.93,4.53,7.6,7.6,0,0,1-1,3.88,7.07,7.07,0,0,1-2.85,2.67,9.1,9.1,0,0,1-4.28,1,15.73,15.73,0,0,1-7.1-1.83Z"/><path class="a" d="M433.75,127.78V108.07h-6.13v-4.89h17.19v4.89h-6.13v19.71Z"/><path class="a" d="M447.75,127.78V103.15h4.93v24.63Z"/><path class="a" d="M469.21,127.85a12.5,12.5,0,0,1-6.77-1.76,11.17,11.17,0,0,1-4.22-4.6,13.73,13.73,0,0,1,0-12.12,11.17,11.17,0,0,1,4.22-4.6,13.9,13.9,0,0,1,13.54,0,11.36,11.36,0,0,1,4.23,4.61,13.38,13.38,0,0,1,1.43,6.1,13.14,13.14,0,0,1-.76,4.43,12.49,12.49,0,0,1-2.17,3.87l3.24,4.14h-5.44l-1.21-1.42A13.08,13.08,0,0,1,469.21,127.85Zm4.48-10.51,1.72,2.21a8.46,8.46,0,0,0,.2-7.7,6.86,6.86,0,0,0-2.46-2.78,7.83,7.83,0,0,0-7.85,0,6.74,6.74,0,0,0-2.47,2.75,8.47,8.47,0,0,0,0,7.27,6.7,6.7,0,0,0,2.47,2.76,7.07,7.07,0,0,0,3.91,1,7.5,7.5,0,0,0,2.79-.49l-4.14-5.06Z"/><path class="a" d="M502.25,124a8.1,8.1,0,0,1-3.29,3,9.8,9.8,0,0,1-4.34,1,9.92,9.92,0,0,1-4.36-1,8,8,0,0,1-3.31-3,8.79,8.79,0,0,1-1.25-4.79v-16h4.92v16a3.55,3.55,0,0,0,1.19,2.84,4.41,4.41,0,0,0,5.62,0,3.55,3.55,0,0,0,1.18-2.84v-16h4.9v16A8.79,8.79,0,0,1,502.25,124Z"/><path class="a" d="M508.61,127.78V103.15H521v4.92h-7.41V113H520v4.93h-6.48v4.92h7.82v4.93Z"/><path class="b" d="M286.92,151.2a2.61,2.61,0,0,0,.2-.84,1.62,1.62,0,0,0-.57-1.28,2.19,2.19,0,0,0-1.46-.48,5.58,5.58,0,0,0-2.15.47,6.47,6.47,0,0,0-1.66.92l-.86-3.38a8.72,8.72,0,0,1,2.47-1.18,8.18,8.18,0,0,1,2.72-.41,6.64,6.64,0,0,1,2.9.74,4.52,4.52,0,0,1,2.46,4.11,6.79,6.79,0,0,1-1.45,4l-3.45,5.33h5.19v3.55H279.71l6.53-10.37A6.05,6.05,0,0,0,286.92,151.2Z"/><path class="b" d="M295.05,160.51a15.11,15.11,0,0,1,0-13,5.4,5.4,0,0,1,9.08,0,15.17,15.17,0,0,1,0,13,5.38,5.38,0,0,1-9.08,0Zm6.55-2.36a14.13,14.13,0,0,0,0-8.28,2.12,2.12,0,0,0-2-1.57,2.06,2.06,0,0,0-2,1.57,14.13,14.13,0,0,0,0,8.28,2.06,2.06,0,0,0,2,1.55A2.11,2.11,0,0,0,301.6,158.15Z"/><path class="b" d="M311.07,159.57a2,2,0,0,1,.52,1.38,2.05,2.05,0,0,1-.53,1.4,1.84,1.84,0,0,1-1.45.58,1.86,1.86,0,0,1-1.46-.58,2,2,0,0,1-.52-1.4,2,2,0,0,1,.52-1.38,1.9,1.9,0,0,1,1.46-.58A1.87,1.87,0,0,1,311.07,159.57Z"/><path class="b" d="M313.62,145.29H320v17.47h-3.48v-14h-2.86Z"/><path class="b" d="M324.68,160.51a15.11,15.11,0,0,1,0-13,5.39,5.39,0,0,1,9.07,0,15.17,15.17,0,0,1,0,13,5.37,5.37,0,0,1-9.07,0Zm6.54-2.36a13.92,13.92,0,0,0,0-8.28,2.11,2.11,0,0,0-2-1.57,2.08,2.08,0,0,0-2,1.57,14.35,14.35,0,0,0,0,8.28,2.07,2.07,0,0,0,2,1.55A2.1,2.1,0,0,0,331.22,158.15Z"/><path class="b" d="M340.7,159.57a2,2,0,0,1,.52,1.38,2.05,2.05,0,0,1-.53,1.4,1.86,1.86,0,0,1-1.46.58,1.84,1.84,0,0,1-1.45-.58,2.05,2.05,0,0,1-.53-1.4,2,2,0,0,1,.53-1.38,2.13,2.13,0,0,1,2.92,0Z"/><path class="b" d="M349.86,151.2a2.42,2.42,0,0,0,.21-.84,1.62,1.62,0,0,0-.57-1.28,2.21,2.21,0,0,0-1.46-.48,5.54,5.54,0,0,0-2.15.47,6.75,6.75,0,0,0-1.67.92l-.85-3.38a8.59,8.59,0,0,1,2.47-1.18,8.18,8.18,0,0,1,2.72-.41,6.56,6.56,0,0,1,2.89.74,4.64,4.64,0,0,1,1.84,1.72,4.7,4.7,0,0,1,.62,2.39,6.78,6.78,0,0,1-1.44,4L349,159.21h5.19v3.55H342.66l6.53-10.37A5.49,5.49,0,0,0,349.86,151.2Z"/><path class="b" d="M358,160.51a15.11,15.11,0,0,1,0-13,4.89,4.89,0,0,1,4.52-2.49,5,5,0,0,1,4.56,2.47,15.27,15.27,0,0,1,0,13,5.38,5.38,0,0,1-9.08,0Zm6.54-2.36a13.92,13.92,0,0,0,0-8.28,2.11,2.11,0,0,0-2-1.57,2.08,2.08,0,0,0-2,1.57,14.35,14.35,0,0,0,0,8.28,2.07,2.07,0,0,0,2,1.55A2.1,2.1,0,0,0,364.54,158.15Z"/><path class="b" d="M377.22,151.2a2.61,2.61,0,0,0,.2-.84,1.62,1.62,0,0,0-.57-1.28,2.19,2.19,0,0,0-1.46-.48,5.58,5.58,0,0,0-2.15.47,6.47,6.47,0,0,0-1.66.92l-.86-3.38a8.72,8.72,0,0,1,2.47-1.18,8.18,8.18,0,0,1,2.72-.41,6.64,6.64,0,0,1,2.9.74,4.52,4.52,0,0,1,2.46,4.11,6.79,6.79,0,0,1-1.45,4l-3.45,5.33h5.19v3.55H370l6.53-10.37A6.05,6.05,0,0,0,377.22,151.2Z"/><path class="b" d="M385.35,160.51a15.11,15.11,0,0,1,0-13,5.4,5.4,0,0,1,9.08,0,15.27,15.27,0,0,1,0,13,5.38,5.38,0,0,1-9.08,0Zm6.54-2.36a13.92,13.92,0,0,0,0-8.28,2.06,2.06,0,0,0-4,0,14.35,14.35,0,0,0,0,8.28,2.07,2.07,0,0,0,4,0Z"/><path class="a" d="M290,184.54a5.23,5.23,0,0,0-1.49-.18,4.49,4.49,0,0,0-2.5.67,4.28,4.28,0,0,0-1.58,1.77,5.21,5.21,0,0,0,0,4.62,4.34,4.34,0,0,0,1.58,1.77,4.49,4.49,0,0,0,2.5.67,6.47,6.47,0,0,0,1.69-.21,5.9,5.9,0,0,0,1.32-.49l.41,3.23a10.2,10.2,0,0,1-1.65.47,9.49,9.49,0,0,1-1.77.18,8,8,0,0,1-4.31-1.11,7.15,7.15,0,0,1-2.69-2.93,8.66,8.66,0,0,1,0-7.73,7.27,7.27,0,0,1,2.69-2.93,7.93,7.93,0,0,1,4.31-1.12,7.41,7.41,0,0,1,3.07.61l-.37,3.2A8.77,8.77,0,0,0,290,184.54Z"/><path class="a" d="M297.75,196.08a7.22,7.22,0,0,1-2.73-3,8.83,8.83,0,0,1,0-7.85,7.28,7.28,0,0,1,2.73-3,9,9,0,0,1,8.79,0,7.28,7.28,0,0,1,2.73,3,8.83,8.83,0,0,1,0,7.85,7.22,7.22,0,0,1-2.73,3,9,9,0,0,1-8.79,0Zm6.94-2.77a4.39,4.39,0,0,0,1.61-1.79,5.47,5.47,0,0,0,0-4.7,4.27,4.27,0,0,0-1.61-1.79,4.66,4.66,0,0,0-2.55-.67,4.59,4.59,0,0,0-2.53.67,4.26,4.26,0,0,0-1.59,1.78,5.41,5.41,0,0,0,0,4.71,4.34,4.34,0,0,0,1.59,1.79,4.6,4.6,0,0,0,2.53.68A4.67,4.67,0,0,0,304.69,193.31Z"/><path class="a" d="M316.8,197h-3.12V181.09h.83l7.87,9.15v-8.8h3.13v15.89h-.82l-7.89-8.81Z"/><path class="a" d="M332.84,197h-3.11V181.09h.82l7.87,9.15v-8.8h3.14v15.89h-.83l-7.89-8.81Z"/><path class="a" d="M345.77,197V181.42h7.81v3.11h-4.69v3.12H353v3.12h-4.1v3.11h4.95V197Z"/><path class="a" d="M365.9,184.54a5.28,5.28,0,0,0-1.49-.18,4.55,4.55,0,0,0-2.51.67,4.35,4.35,0,0,0-1.58,1.77,5.3,5.3,0,0,0,0,4.62,4.41,4.41,0,0,0,1.58,1.77,4.55,4.55,0,0,0,2.51.67,6.47,6.47,0,0,0,1.69-.21,6.29,6.29,0,0,0,1.32-.49l.41,3.23a10.05,10.05,0,0,1-1.66.47,9.3,9.3,0,0,1-1.76.18,8,8,0,0,1-4.32-1.11A7.15,7.15,0,0,1,357.4,193a8.75,8.75,0,0,1,0-7.73,7.27,7.27,0,0,1,2.69-2.93,7.94,7.94,0,0,1,4.32-1.12,7.41,7.41,0,0,1,3.07.61l-.37,3.2A9.3,9.3,0,0,0,365.9,184.54Z"/><path class="a" d="M373.74,197V184.53h-3.88v-3.09h10.88v3.09h-3.88V197Z"/><path class="a" d="M383.53,197V181.42h7.8v3.11h-4.69v3.12h4.1v3.12h-4.1v3.11h4.95V197Z"/><path class="a" d="M399.93,191.05h-1.5V197h-3.12V181.42h6.15a4.49,4.49,0,0,1,2.5.67,4.22,4.22,0,0,1,1.57,1.76,5.18,5.18,0,0,1,.53,2.3,4.93,4.93,0,0,1-.81,2.76,3.88,3.88,0,0,1-2.27,1.66L406.6,197h-3.53Zm1.24-3a1.43,1.43,0,0,0,1.18-.51,1.87,1.87,0,0,0,.42-1.23,1.92,1.92,0,0,0-.42-1.24,1.43,1.43,0,0,0-1.18-.51h-2.74V188Z"/><path class="a" d="M419,181.42v12.46h4.95V197h-8.07V181.42Z"/><path class="a" d="M426.88,197V181.42h7.8v3.11H430v3.12h4.1v3.12H430v3.11h4.95V197Z"/><path class="a" d="M458.35,181.18h1V197h-3.16l0-8.7-4,4.19-4-4.19V197h-3.16V181.18h1L452.2,188Z"/><path class="a" d="M466.52,196.08a7.22,7.22,0,0,1-2.73-3,8.83,8.83,0,0,1,0-7.85,7.28,7.28,0,0,1,2.73-3,9,9,0,0,1,8.79,0,7.28,7.28,0,0,1,2.73,3,8.83,8.83,0,0,1,0,7.85,7.22,7.22,0,0,1-2.73,3,9,9,0,0,1-8.79,0Zm7-2.77a4.44,4.44,0,0,0,1.6-1.79,5.47,5.47,0,0,0,0-4.7,4.32,4.32,0,0,0-1.6-1.79,4.71,4.71,0,0,0-2.55-.67,4.6,4.6,0,0,0-2.54.67,4.26,4.26,0,0,0-1.59,1.78,5.41,5.41,0,0,0,0,4.71,4.34,4.34,0,0,0,1.59,1.79,4.61,4.61,0,0,0,2.54.68A4.71,4.71,0,0,0,473.47,193.31Z"/><path class="a" d="M485.57,197h-3.12V181.09h.83l7.87,9.15v-8.8h3.14v15.89h-.83l-7.89-8.81Z"/><path class="a" d="M507.38,182.52A7.12,7.12,0,0,1,510,185.4a8.58,8.58,0,0,1,0,7.61,7.15,7.15,0,0,1-2.65,2.89,7.85,7.85,0,0,1-4.24,1.1H498.5V181.42h4.64A7.76,7.76,0,0,1,507.38,182.52Zm-5.77,2v9.35h1.53a4.49,4.49,0,0,0,2.47-.66,4.32,4.32,0,0,0,1.56-1.73,5.16,5.16,0,0,0,.52-2.29,5.07,5.07,0,0,0-.52-2.27,4.26,4.26,0,0,0-1.56-1.73,4.41,4.41,0,0,0-2.47-.67Z"/><path class="a" d="M514.41,197V181.42h7.81v3.11h-4.69v3.12h4.1v3.12h-4.1v3.11h5V197Z"/><path class="a" d="M286.47,208.41h.33l6.56,16.15h-3.51l-.63-1.68h-5.17l-.61,1.68h-3.53ZM288.06,220l-1.41-4.05L285.19,220Z"/><path class="a" d="M293,209h3.6l2.07,5.18,1.13,3.23,1.11-3.12L303,209h3.59l-6.45,15.9h-.7Z"/><path class="a" d="M309.18,224.56V209H317v3.11h-4.69v3.12h4.1v3.11h-4.1v3.12h4.95v3.12Z"/><path class="a" d="M329.31,212.1a5.3,5.3,0,0,0-1.5-.18,4.49,4.49,0,0,0-2.5.67,4.28,4.28,0,0,0-1.58,1.77,5.09,5.09,0,0,0-.54,2.31,5.16,5.16,0,0,0,.54,2.31,4.25,4.25,0,0,0,1.58,1.76,4.49,4.49,0,0,0,2.5.68,6.73,6.73,0,0,0,3-.7l.41,3.23a9.92,9.92,0,0,1-1.65.47,9.49,9.49,0,0,1-1.77.18,8,8,0,0,1-4.31-1.11,7.15,7.15,0,0,1-2.69-2.93,8.66,8.66,0,0,1,0-7.73,7.27,7.27,0,0,1,2.69-2.93,7.93,7.93,0,0,1,4.31-1.12,7.46,7.46,0,0,1,3.08.61l-.37,3.2A9.3,9.3,0,0,0,329.31,212.1Z"/><path class="a" d="M349.79,210.08a7.12,7.12,0,0,1,2.65,2.88,8.58,8.58,0,0,1,0,7.61,7.21,7.21,0,0,1-2.65,2.89,7.85,7.85,0,0,1-4.24,1.1h-4.64V209h4.64A7.76,7.76,0,0,1,349.79,210.08Zm-5.76,2v9.35h1.52a4.52,4.52,0,0,0,2.48-.66,4.19,4.19,0,0,0,1.55-1.74,5.15,5.15,0,0,0,0-4.55,4.16,4.16,0,0,0-1.55-1.73,4.44,4.44,0,0,0-2.48-.67Z"/><path class="a" d="M356.83,224.56V209h7.8v3.11h-4.69v3.12H364v3.11h-4.1v3.12h4.95v3.12Z"/><path class="a" d="M368.23,220.29a6,6,0,0,0,2.06,1,7.86,7.86,0,0,0,1.95.27l.43,0a1.88,1.88,0,0,0,1.15-.46,1.28,1.28,0,0,0,.47-1,1.37,1.37,0,0,0-.42-1.06,3.51,3.51,0,0,0-1.2-.66,10.36,10.36,0,0,1-3.39-1.88,3.64,3.64,0,0,1-1.23-2.87,5.07,5.07,0,0,1,.56-2.36,4.33,4.33,0,0,1,1.56-1.7,4.59,4.59,0,0,1,2.28-.69l.53,0a10.26,10.26,0,0,1,3.35.68l-.39,3a7.65,7.65,0,0,0-3.18-.66,1.61,1.61,0,0,0-1.14.49,1.59,1.59,0,0,0-.41,1.1,1.28,1.28,0,0,0,.46,1.06,4,4,0,0,0,1.29.67,9.57,9.57,0,0,1,3.29,1.9,3.79,3.79,0,0,1,1.22,2.87,4.78,4.78,0,0,1-.63,2.45,4.52,4.52,0,0,1-1.8,1.69,5.74,5.74,0,0,1-2.72.61,10.07,10.07,0,0,1-2.09-.26,10.37,10.37,0,0,1-2.4-.89Z"/><path class="a" d="M396.16,210.08A7.1,7.1,0,0,1,398.8,213a8.49,8.49,0,0,1,0,7.61,7.19,7.19,0,0,1-2.64,2.89,7.87,7.87,0,0,1-4.24,1.1h-4.65V209h4.65A7.78,7.78,0,0,1,396.16,210.08Zm-5.77,2v9.35h1.53a4.49,4.49,0,0,0,2.47-.66A4.28,4.28,0,0,0,396,219a5.24,5.24,0,0,0,0-4.55,4.26,4.26,0,0,0-1.56-1.73,4.41,4.41,0,0,0-2.47-.67Z"/><path class="a" d="M406.15,223.64a7.24,7.24,0,0,1-2.74-3,8.92,8.92,0,0,1,0-7.85,7.24,7.24,0,0,1,2.74-3,9,9,0,0,1,8.78,0,7.24,7.24,0,0,1,2.74,3,8.92,8.92,0,0,1,0,7.85,7.24,7.24,0,0,1-2.74,3,9,9,0,0,1-8.78,0Zm6.94-2.78a4.28,4.28,0,0,0,1.6-1.78,5.38,5.38,0,0,0,0-4.7,4.25,4.25,0,0,0-1.6-1.79,5.17,5.17,0,0,0-5.09,0,4.4,4.4,0,0,0-1.59,1.78,5.5,5.5,0,0,0,0,4.71,4.4,4.4,0,0,0,1.59,1.78,5,5,0,0,0,5.09,0Z"/><path class="a" d="M425.19,224.56h-3.12V208.65h.83l7.87,9.15V209h3.14v15.88h-.83l-7.89-8.8Z"/><path class="a" d="M441.24,224.56h-3.12V208.65H439l7.87,9.15V209H450v15.88h-.83l-7.89-8.8Z"/><path class="a" d="M454.17,224.56V209H462v3.11h-4.69v3.12h4.1v3.11h-4.1v3.12h5v3.12Zm5.16-16.65h-2.81l1.07-2.51h3.84Z"/><path class="a" d="M466,224.56V209h7.8v3.11h-4.68v3.12h4.1v3.11h-4.1v3.12H474v3.12Z"/><path class="a" d="M477.35,220.29a6.19,6.19,0,0,0,2.06,1,8,8,0,0,0,1.95.27l.44,0a1.82,1.82,0,0,0,1.14-.46,1.28,1.28,0,0,0,.47-1A1.4,1.4,0,0,0,483,219a3.71,3.71,0,0,0-1.2-.66,10.36,10.36,0,0,1-3.39-1.88,3.64,3.64,0,0,1-1.23-2.87,5.06,5.06,0,0,1,.55-2.36,4.33,4.33,0,0,1,1.56-1.7,4.63,4.63,0,0,1,2.29-.69l.52,0a10.37,10.37,0,0,1,3.36.68l-.39,3a7.68,7.68,0,0,0-3.18-.66,1.64,1.64,0,0,0-1.15.49,1.59,1.59,0,0,0-.4,1.1,1.28,1.28,0,0,0,.46,1.06,3.91,3.91,0,0,0,1.28.67,9.48,9.48,0,0,1,3.29,1.9,3.76,3.76,0,0,1,1.22,2.87,4.78,4.78,0,0,1-.63,2.45,4.39,4.39,0,0,1-1.8,1.69,5.7,5.7,0,0,1-2.71.61,10.11,10.11,0,0,1-4.49-1.15Z"/><path class="a" d="M505.28,210.08a7.12,7.12,0,0,1,2.65,2.88,8.58,8.58,0,0,1,0,7.61,7.21,7.21,0,0,1-2.65,2.89,7.85,7.85,0,0,1-4.24,1.1H496.4V209H501A7.76,7.76,0,0,1,505.28,210.08Zm-5.76,2v9.35H501a4.55,4.55,0,0,0,2.48-.66,4.19,4.19,0,0,0,1.55-1.74,5.15,5.15,0,0,0,0-4.55,4.16,4.16,0,0,0-1.55-1.73,4.47,4.47,0,0,0-2.48-.67Z"/><path class="a" d="M516.59,208.41h.33l6.56,16.15H520l-.63-1.68h-5.17l-.61,1.68H510ZM518.18,220l-1.42-4.05L515.3,220Z"/><path class="a" d="M529.28,224.56h-3.11V208.65H527l7.86,9.15V209H538v15.88h-.83l-7.89-8.8Z"/><path class="a" d="M541.94,220.29a6.06,6.06,0,0,0,2,1,8,8,0,0,0,2,.27l.43,0a1.88,1.88,0,0,0,1.15-.46,1.27,1.27,0,0,0,.46-1,1.36,1.36,0,0,0-.41-1.06,3.71,3.71,0,0,0-1.2-.66,10.36,10.36,0,0,1-3.39-1.88,3.64,3.64,0,0,1-1.23-2.87,5.07,5.07,0,0,1,.56-2.36,4.33,4.33,0,0,1,1.56-1.7,4.59,4.59,0,0,1,2.28-.69l.53,0a10.36,10.36,0,0,1,3.35.68l-.39,3a7.68,7.68,0,0,0-3.18-.66,1.52,1.52,0,0,0-1.55,1.59,1.28,1.28,0,0,0,.46,1.06,3.91,3.91,0,0,0,1.28.67,9.62,9.62,0,0,1,3.3,1.9,3.79,3.79,0,0,1,1.22,2.87,4.69,4.69,0,0,1-.64,2.45,4.42,4.42,0,0,1-1.79,1.69,5.77,5.77,0,0,1-2.72.61,10.07,10.07,0,0,1-2.09-.26,10.37,10.37,0,0,1-2.4-.89Z"/><path class="a" d="M284.42,236.53V249h4.95v3.12h-8.06V236.53Z"/><path class="a" d="M292.32,252.12V236.53h7.8v3.12h-4.68v3.12h4.1v3.11h-4.1V249h4.95v3.12Z"/><path class="a" d="M303.72,247.84a6.42,6.42,0,0,0,2.06,1,8,8,0,0,0,2,.27l.44,0a1.82,1.82,0,0,0,1.14-.46,1.28,1.28,0,0,0,.47-1,1.4,1.4,0,0,0-.41-1.06,3.71,3.71,0,0,0-1.2-.66,10.54,10.54,0,0,1-3.39-1.88,3.64,3.64,0,0,1-1.23-2.87,5,5,0,0,1,.55-2.36,4.33,4.33,0,0,1,1.56-1.7,4.74,4.74,0,0,1,2.29-.7l.52,0a10.37,10.37,0,0,1,3.36.68l-.39,3a7.68,7.68,0,0,0-3.18-.66,1.52,1.52,0,0,0-1.55,1.59,1.29,1.29,0,0,0,.46,1.06,3.91,3.91,0,0,0,1.28.66,9.65,9.65,0,0,1,3.29,1.91,3.74,3.74,0,0,1,1.22,2.87,4.78,4.78,0,0,1-.63,2.45,4.39,4.39,0,0,1-1.8,1.69,5.7,5.7,0,0,1-2.71.61,10,10,0,0,1-2.09-.26,9.68,9.68,0,0,1-2.4-.9Z"/><path class="a" d="M323.31,252.16a7.93,7.93,0,0,1-4.28-1.11,7.18,7.18,0,0,1-2.67-2.91,8.71,8.71,0,0,1,0-7.67,7.18,7.18,0,0,1,2.67-2.91,8.83,8.83,0,0,1,8.57,0,7.24,7.24,0,0,1,2.68,2.92,8.52,8.52,0,0,1,.9,3.86,8.41,8.41,0,0,1-.48,2.8,8.08,8.08,0,0,1-1.37,2.45l2.05,2.61h-3.44l-.77-.89A8.29,8.29,0,0,1,323.31,252.16Zm2.84-6.65,1.09,1.4a5.38,5.38,0,0,0,.13-4.87,4.33,4.33,0,0,0-1.56-1.76,4.47,4.47,0,0,0-2.5-.67,4.51,4.51,0,0,0-2.47.66,4.28,4.28,0,0,0-1.56,1.74,5.35,5.35,0,0,0,0,4.6,4.31,4.31,0,0,0,1.56,1.75,4.51,4.51,0,0,0,2.47.66,4.9,4.9,0,0,0,1.77-.3l-2.62-3.21Z"/><path class="a" d="M345.15,249.72a5.1,5.1,0,0,1-2.08,1.89,6.07,6.07,0,0,1-2.75.64,6.14,6.14,0,0,1-2.76-.64,5.07,5.07,0,0,1-2.09-1.89,5.56,5.56,0,0,1-.79-3V236.53h3.11v10.14a2.25,2.25,0,0,0,.75,1.8,2.8,2.8,0,0,0,3.56,0,2.25,2.25,0,0,0,.75-1.8V236.53h3.09v10.16A5.56,5.56,0,0,1,345.15,249.72Z"/><path class="a" d="M350.1,252.12V236.53h7.8v3.12h-4.69v3.12h4.1v3.11h-4.1V249h5v3.12Z"/><path class="a" d="M365,236.53V249h4.94v3.12h-8.06V236.53Z"/><path class="a" d="M376,236.53V249H381v3.12h-8.07V236.53Z"/><path class="a" d="M383.91,252.12V236.53h7.8v3.12H387v3.12h4.09v3.11H387V249H392v3.12Z"/><path class="a" d="M395.31,247.84a6.33,6.33,0,0,0,2.06,1,7.86,7.86,0,0,0,1.95.27l.44,0a1.82,1.82,0,0,0,1.14-.46,1.28,1.28,0,0,0,.47-1,1.37,1.37,0,0,0-.42-1.06,3.55,3.55,0,0,0-1.19-.66,10.54,10.54,0,0,1-3.39-1.88,3.64,3.64,0,0,1-1.23-2.87,5,5,0,0,1,.55-2.36,4.33,4.33,0,0,1,1.56-1.7,4.74,4.74,0,0,1,2.29-.7l.52,0a10.37,10.37,0,0,1,3.36.68l-.4,3a7.62,7.62,0,0,0-3.18-.66A1.52,1.52,0,0,0,398.3,241a1.31,1.31,0,0,0,.45,1.06,4.07,4.07,0,0,0,1.29.66,9.65,9.65,0,0,1,3.29,1.91,3.78,3.78,0,0,1,1.22,2.87,4.78,4.78,0,0,1-.63,2.45,4.39,4.39,0,0,1-1.8,1.69,5.73,5.73,0,0,1-2.71.61,10.16,10.16,0,0,1-2.1-.26,9.76,9.76,0,0,1-2.39-.9Z"/><path class="a" d="M417.47,252.12h-3.11V236.21h.83l7.86,9.15v-8.8h3.14v15.88h-.83l-7.89-8.8Z"/><path class="a" d="M433.39,251.2a7.24,7.24,0,0,1-2.74-3,8.92,8.92,0,0,1,0-7.85,7.18,7.18,0,0,1,2.74-3,9,9,0,0,1,8.78,0,7.24,7.24,0,0,1,2.74,3,8.92,8.92,0,0,1,0,7.85,7.31,7.31,0,0,1-2.74,3,9.09,9.09,0,0,1-8.78,0Zm6.94-2.78a4.41,4.41,0,0,0,1.6-1.78,5.47,5.47,0,0,0,0-4.7,4.32,4.32,0,0,0-1.6-1.79,4.66,4.66,0,0,0-2.55-.67,4.6,4.6,0,0,0-2.54.67,4.2,4.2,0,0,0-1.59,1.78,5.41,5.41,0,0,0,0,4.71,4.32,4.32,0,0,0,1.59,1.78,4.53,4.53,0,0,0,2.54.69A4.59,4.59,0,0,0,440.33,248.42Z"/><path class="a" d="M459.65,249.72a5.1,5.1,0,0,1-2.08,1.89,6.07,6.07,0,0,1-2.75.64,6.14,6.14,0,0,1-2.76-.64,5.07,5.07,0,0,1-2.09-1.89,5.56,5.56,0,0,1-.79-3V236.53h3.11v10.14a2.22,2.22,0,0,0,.76,1.8,2.78,2.78,0,0,0,3.55,0,2.25,2.25,0,0,0,.75-1.8V236.53h3.09v10.16A5.56,5.56,0,0,1,459.65,249.72Z"/><path class="a" d="M464.19,247.84a6.23,6.23,0,0,0,2.06,1,7.86,7.86,0,0,0,1.95.27l.43,0a1.88,1.88,0,0,0,1.15-.46,1.27,1.27,0,0,0,.46-1,1.36,1.36,0,0,0-.41-1.06,3.71,3.71,0,0,0-1.2-.66,10.54,10.54,0,0,1-3.39-1.88,3.64,3.64,0,0,1-1.23-2.87,5,5,0,0,1,.56-2.36,4.33,4.33,0,0,1,1.56-1.7,4.71,4.71,0,0,1,2.28-.7l.53,0a10.31,10.31,0,0,1,3.35.68l-.39,3a7.68,7.68,0,0,0-3.18-.66,1.61,1.61,0,0,0-1.15.49,1.63,1.63,0,0,0-.4,1.1,1.29,1.29,0,0,0,.46,1.06,3.87,3.87,0,0,0,1.29.66,9.74,9.74,0,0,1,3.29,1.91,3.78,3.78,0,0,1,1.22,2.87,4.69,4.69,0,0,1-.64,2.45,4.42,4.42,0,0,1-1.79,1.69,5.77,5.77,0,0,1-2.72.61,10,10,0,0,1-4.49-1.16Z"/><path class="a" d="M483.23,252.12V236.56h6.13a4.41,4.41,0,0,1,2.47.67,4.17,4.17,0,0,1,1.55,1.78,5.47,5.47,0,0,1,.51,2.34,5.53,5.53,0,0,1-.51,2.36,4.17,4.17,0,0,1-1.55,1.78,4.42,4.42,0,0,1-2.47.68h-3v6Zm5.87-9a1.38,1.38,0,0,0,1.15-.53,2,2,0,0,0,0-2.45,1.39,1.39,0,0,0-1.15-.51h-2.75v3.49Z"/><path class="a" d="M500,251.2a7.24,7.24,0,0,1-2.74-3,8.83,8.83,0,0,1,0-7.85,7.18,7.18,0,0,1,2.74-3,9,9,0,0,1,8.78,0,7.22,7.22,0,0,1,2.73,3,8.83,8.83,0,0,1,0,7.85,7.28,7.28,0,0,1-2.73,3,9.09,9.09,0,0,1-8.78,0Zm6.94-2.78a4.41,4.41,0,0,0,1.6-1.78,5.47,5.47,0,0,0,0-4.7,4.32,4.32,0,0,0-1.6-1.79,4.71,4.71,0,0,0-2.55-.67,4.6,4.6,0,0,0-2.54.67,4.2,4.2,0,0,0-1.59,1.78,5.41,5.41,0,0,0,0,4.71,4.32,4.32,0,0,0,1.59,1.78,4.53,4.53,0,0,0,2.54.69A4.63,4.63,0,0,0,507,248.42Z"/><path class="a" d="M526.28,249.72a5.07,5.07,0,0,1-2.09,1.89,6,6,0,0,1-2.74.64,6.14,6.14,0,0,1-2.76-.64,5.07,5.07,0,0,1-2.09-1.89,5.56,5.56,0,0,1-.8-3V236.53h3.12v10.14a2.25,2.25,0,0,0,.75,1.8,2.8,2.8,0,0,0,3.56,0,2.25,2.25,0,0,0,.75-1.8V236.53h3.09v10.16A5.56,5.56,0,0,1,526.28,249.72Z"/><path class="a" d="M529.6,236.53h3.6l2.07,5.19L536.4,245l1.12-3.12,2.09-5.3h3.59l-6.45,15.91h-.7Z"/><path class="a" d="M548,251.2a7.31,7.31,0,0,1-2.74-3,8.92,8.92,0,0,1,0-7.85,7.24,7.24,0,0,1,2.74-3,9,9,0,0,1,8.78,0,7.18,7.18,0,0,1,2.74,3,8.92,8.92,0,0,1,0,7.85,7.24,7.24,0,0,1-2.74,3,9.09,9.09,0,0,1-8.78,0Zm6.94-2.78a4.34,4.34,0,0,0,1.6-1.78,5.38,5.38,0,0,0,0-4.7,4.25,4.25,0,0,0-1.6-1.79,5.17,5.17,0,0,0-5.09,0,4.33,4.33,0,0,0-1.59,1.78,5.5,5.5,0,0,0,0,4.71,4.46,4.46,0,0,0,1.59,1.78,5,5,0,0,0,5.09,0Z"/><path class="a" d="M567,252.12h-3.11V236.21h.82l7.87,9.15v-8.8h3.14v15.88h-.83l-7.89-8.8Z"/><path class="a" d="M579.69,247.84a6.42,6.42,0,0,0,2.06,1,8,8,0,0,0,2,.27l.44,0a1.82,1.82,0,0,0,1.14-.46,1.25,1.25,0,0,0,.47-1,1.4,1.4,0,0,0-.41-1.06,3.71,3.71,0,0,0-1.2-.66,10.54,10.54,0,0,1-3.39-1.88,3.64,3.64,0,0,1-1.23-2.87,5,5,0,0,1,.55-2.36,4.49,4.49,0,0,1,1.56-1.7,4.74,4.74,0,0,1,2.29-.7l.52,0a10.37,10.37,0,0,1,3.36.68l-.39,3a7.68,7.68,0,0,0-3.18-.66,1.52,1.52,0,0,0-1.55,1.59,1.29,1.29,0,0,0,.46,1.06,3.91,3.91,0,0,0,1.28.66,9.65,9.65,0,0,1,3.29,1.91,3.74,3.74,0,0,1,1.22,2.87,4.78,4.78,0,0,1-.63,2.45,4.39,4.39,0,0,1-1.8,1.69,5.7,5.7,0,0,1-2.71.61,10,10,0,0,1-2.09-.26,9.68,9.68,0,0,1-2.4-.9Z"/><path class="a" d="M286.47,263.53h.33l6.56,16.14h-3.51l-.63-1.67h-5.17l-.61,1.67h-3.53Zm1.59,11.55L286.65,271l-1.46,4.06Z"/><path class="a" d="M293,264.09h3.6l2.07,5.19,1.13,3.22,1.11-3.11,2.1-5.3h3.59L300.16,280h-.7Z"/><path class="a" d="M311.41,278.76a7.33,7.33,0,0,1-2.74-3,8.9,8.9,0,0,1,0-7.84,7.33,7.33,0,0,1,2.74-3,9.09,9.09,0,0,1,8.78,0,7.33,7.33,0,0,1,2.74,3,8.9,8.9,0,0,1,0,7.84,7.33,7.33,0,0,1-2.74,3,9.09,9.09,0,0,1-8.78,0Zm6.94-2.78a4.31,4.31,0,0,0,1.6-1.79,5.22,5.22,0,0,0,.54-2.34,5.29,5.29,0,0,0-.54-2.35,4.25,4.25,0,0,0-1.6-1.79,5.1,5.1,0,0,0-5.09,0,4.33,4.33,0,0,0-1.59,1.78,5.27,5.27,0,0,0-.53,2.36,5.21,5.21,0,0,0,.53,2.34,4.42,4.42,0,0,0,1.59,1.79,5,5,0,0,0,5.09,0Z"/><path class="a" d="M327.37,279.67V264.09h3.11v15.58Z"/><path class="a" d="M339.31,273.73h-1.5v5.94h-3.12V264.09h6.15a4.52,4.52,0,0,1,2.5.68,4.26,4.26,0,0,1,1.57,1.75,5.21,5.21,0,0,1,.53,2.3,5,5,0,0,1-.81,2.77,3.88,3.88,0,0,1-2.27,1.66l3.62,6.42h-3.53Zm1.24-3a1.45,1.45,0,0,0,1.18-.52,2.05,2.05,0,0,0,0-2.46,1.44,1.44,0,0,0-1.18-.51h-2.74v3.49Z"/><path class="a" d="M364,267.22a5.24,5.24,0,0,0-1.49-.19,4.53,4.53,0,0,0-2.51.68,4.35,4.35,0,0,0-1.58,1.77,5.09,5.09,0,0,0-.53,2.31,5.15,5.15,0,0,0,.53,2.31,4.38,4.38,0,0,0,1.58,1.76,4.53,4.53,0,0,0,2.51.68,6.33,6.33,0,0,0,1.68-.21,6.43,6.43,0,0,0,1.32-.49l.42,3.22a9.16,9.16,0,0,1-1.66.47,8.59,8.59,0,0,1-1.76.19,8,8,0,0,1-4.32-1.11,7.15,7.15,0,0,1-2.69-2.93,8.67,8.67,0,0,1-.91-3.87,8.56,8.56,0,0,1,.91-3.86,7.21,7.21,0,0,1,2.69-2.93,7.94,7.94,0,0,1,4.32-1.12,7.45,7.45,0,0,1,3.07.61l-.37,3.2A8.08,8.08,0,0,0,364,267.22Z"/><path class="a" d="M371.69,278.76a7.26,7.26,0,0,1-2.74-3,8.9,8.9,0,0,1,0-7.84,7.26,7.26,0,0,1,2.74-3,9.09,9.09,0,0,1,8.78,0,7.33,7.33,0,0,1,2.74,3,8.9,8.9,0,0,1,0,7.84,7.33,7.33,0,0,1-2.74,3,9.09,9.09,0,0,1-8.78,0Zm6.94-2.78a4.38,4.38,0,0,0,1.6-1.79,5.21,5.21,0,0,0,.53-2.34,5.28,5.28,0,0,0-.53-2.35,4.32,4.32,0,0,0-1.6-1.79,4.67,4.67,0,0,0-2.55-.68,4.61,4.61,0,0,0-2.54.68,4.2,4.2,0,0,0-1.59,1.78,5.27,5.27,0,0,0-.54,2.36,5.22,5.22,0,0,0,.54,2.34,4.28,4.28,0,0,0,1.59,1.79,4.53,4.53,0,0,0,2.54.69A4.59,4.59,0,0,0,378.63,276Z"/><path class="a" d="M390.73,279.67h-3.12v-15.9h.83l7.87,9.15v-8.81h3.14V280h-.83l-7.89-8.8Z"/><path class="a" d="M406.78,267.21v3.12h4v3.11h-4v6.23h-3.12V264.09h7.78v3.12Z"/><path class="a" d="M414.65,279.67V264.09h3.11v15.58Z"/><path class="a" d="M427,263.53h.33l6.56,16.14h-3.51l-.63-1.67h-5.16l-.61,1.67h-3.53Zm1.6,11.55L427.17,271l-1.46,4.06Z"/><path class="a" d="M439.69,279.67h-3.12v-15.9h.83l7.87,9.15v-8.81h3.14V280h-.83l-7.89-8.8Z"/><path class="a" d="M461.24,267.22a5.24,5.24,0,0,0-1.49-.19,4.53,4.53,0,0,0-2.51.68,4.35,4.35,0,0,0-1.58,1.77,5.09,5.09,0,0,0-.53,2.31,5.15,5.15,0,0,0,.53,2.31,4.38,4.38,0,0,0,1.58,1.76,4.53,4.53,0,0,0,2.51.68,6.47,6.47,0,0,0,1.69-.21,6.55,6.55,0,0,0,1.31-.49l.42,3.22a9.16,9.16,0,0,1-1.66.47,8.59,8.59,0,0,1-1.76.19,8,8,0,0,1-4.32-1.11,7.15,7.15,0,0,1-2.69-2.93,8.66,8.66,0,0,1-.9-3.87,8.55,8.55,0,0,1,.9-3.86,7.21,7.21,0,0,1,2.69-2.93,7.94,7.94,0,0,1,4.32-1.12,7.45,7.45,0,0,1,3.07.61l-.37,3.2A8.08,8.08,0,0,0,461.24,267.22Z"/><path class="a" d="M466.34,279.67V264.09h7.8v3.12h-4.68v3.12h4.1v3.11h-4.1v3.12h4.94v3.11Z"/></svg>