<svg xmlns="http://www.w3.org/2000/svg" viewBox="0 0 535.98 285.9"><defs><style>.a{fill:#009edb;}.b{fill:#72c6ef;}.c{fill:#badaf3;}</style></defs><path class="a" d="M153.48,72.27l-8.12,29.42a77.19,77.19,0,1,1-79.21,80.63l-29.83-8.23c-.07,1.57-.11,3.16-.11,4.75A107.06,107.06,0,1,0,153.48,72.27Z"/><polygon class="b" points="169.53 126.28 140.81 118.33 132.46 148.97 122.32 186.14 151.04 194.08 161.13 157.06 169.53 126.28"/><polygon class="c" points="169.53 126.28 140.81 118.33 132.46 149.11 161.13 157.06 169.53 126.28"/><polygon class="b" points="99.18 106.85 80.37 174.57 109.09 182.51 127.89 114.82 139.11 74.44 110.39 66.49 99.18 106.85"/><polygon class="c" points="112.1 60.26 99.18 106.85 127.89 114.82 140.82 68.19 112.1 60.26"/><polygon class="b" points="83.44 0 60.92 81.82 48.56 126.72 9.98 75.31 0 111.65 38.52 163.21 38.51 163.21 67.23 171.16 89.64 89.75 112.16 7.94 83.44 0"/><polygon class="c" points="83.44 0 60.92 81.82 89.64 89.75 112.16 7.94 83.44 0"/><path class="a" d="M299.55,37.49a6.49,6.49,0,0,1-2.24,5.1,8.08,8.08,0,0,1-5.55,2H281.63V20.43h9.44a7.91,7.91,0,0,1,5.41,1.93,6.25,6.25,0,0,1,2.21,5,5.91,5.91,0,0,1-2.11,4.72A6.09,6.09,0,0,1,299.55,37.49ZM287.14,25.6v4.27h3.93a2.14,2.14,0,0,0,0-4.27Zm4.62,13.78a2.31,2.31,0,0,0,0-4.61h-4.62v4.61Z"/><path class="a" d="M305.4,41.45a12.25,12.25,0,0,1-3.55-9,12.48,12.48,0,0,1,22.88-7L320,28.29a6.15,6.15,0,0,0-5.58-3,6.83,6.83,0,0,0-5.13,2,7.09,7.09,0,0,0-1.9,5.2,7.11,7.11,0,0,0,1.9,5.21,6.83,6.83,0,0,0,5.13,2,6.23,6.23,0,0,0,5.58-3l4.76,2.75A11.91,11.91,0,0,1,314.39,45,12.17,12.17,0,0,1,305.4,41.45Z"/><path class="a" d="M333.35,39.25H343v5.3H327.84V20.43h15v5.31h-9.48v4H342V35h-8.61Z"/><path class="a" d="M371.11,20.43V44.55H365.6v-14l-6.24,10.23h-.62L352.5,30.53v14H347V20.43h5.51l6.55,10.72,6.55-10.72Z"/><path class="a" d="M389.29,44.55V31.46L380,44.55h-4.13V20.43h5.51v13.1l9.3-13.1h4.14V44.55Z"/><path class="a" d="M408.65,20.43a8.14,8.14,0,0,1,6,2.42,8.24,8.24,0,0,1,0,11.71,8.13,8.13,0,0,1-6,2.41H405v7.58h-5.51V20.43Zm0,11.37a2.94,2.94,0,0,0,2.93-3.1,3,3,0,0,0-2.93-3.1H405v6.2Z"/><path class="a" d="M433.22,20.43h5.51V44.55h-5.51V35h-7.58v9.58h-5.51V20.43h5.51v9.24h7.58Z"/><path class="a" d="M443.45,44.55V20.43H449V28h3.61a8.14,8.14,0,0,1,6,2.42,8.24,8.24,0,0,1,0,11.71,8.13,8.13,0,0,1-6,2.41ZM449,39.38h3.61a3.1,3.1,0,0,0,0-6.2H449Zm14.12,5.17V20.43h5.51V44.55Z"/><path class="a" d="M486.78,44.55V31.46l-9.3,13.09h-4.14V20.43h5.52v13.1l9.3-13.1h4.13V44.55ZM477.65,18.4V13.92H488V18.4Z"/><path class="a" d="M300.58,78h2.58v9.93h-5.51V83.29H285.59v4.62h-5.51V78h2.45c1.27-1.82,1.89-4.48,1.89-8V59.17h16.16Zm-5.51,0V64.34h-5.14v5.72c0,3.41-.51,6.06-1.55,7.92Z"/><path class="a" d="M312.18,78h9.64v5.31H306.66V59.17h15v5.31h-9.47v4h8.61v5.24h-8.61Z"/><path class="a" d="M338.91,59.17h5.51V83.29h-5.51V73.71h-7.58v9.58h-5.51V59.17h5.51V68.4h7.58Z"/><path class="a" d="M358.28,66.75a8.13,8.13,0,0,1,6,2.41,8.23,8.23,0,0,1,0,11.72,8.13,8.13,0,0,1-6,2.41h-9.13V59.17h5.51v7.58Zm0,11.37a3.11,3.11,0,0,0,0-6.2h-3.62v6.2Z"/><path class="a" d="M284.15,118.93a12.27,12.27,0,0,1-3.55-9,12.24,12.24,0,0,1,12.54-12.54A12,12,0,0,1,303.47,103l-4.75,2.75a6.17,6.17,0,0,0-5.58-3,6.9,6.9,0,0,0-5.14,2,8.11,8.11,0,0,0,0,10.41,6.87,6.87,0,0,0,5.14,2,6.21,6.21,0,0,0,5.58-3l4.75,2.76a11.91,11.91,0,0,1-10.33,5.58A12.21,12.21,0,0,1,284.15,118.93Z"/><path class="a" d="M323,97.91v5.3h-6.2V122h-5.51V103.21h-6.2v-5.3Z"/><path class="a" d="M339.32,122l-1.21-3.79h-9L328,122h-6l8.2-24.12h7l8.2,24.12Zm-8.51-9h5.65l-2.83-8.86Z"/><path class="a" d="M362.21,97.91v5.3H356V122H350.5V103.21h-6.2v-5.3Z"/><path class="a" d="M378.49,122v-13.1l-9.3,13.1h-4.13V97.91h5.51V111l9.3-13.09H384V122Z"/><path class="a" d="M391.07,118.93a12.27,12.27,0,0,1-3.55-9,12.24,12.24,0,0,1,12.54-12.54A12,12,0,0,1,410.39,103l-4.75,2.75a6.18,6.18,0,0,0-5.58-3,6.9,6.9,0,0,0-5.14,2,8.11,8.11,0,0,0,0,10.41,6.87,6.87,0,0,0,5.14,2,6.22,6.22,0,0,0,5.58-3l4.75,2.76a11.91,11.91,0,0,1-10.33,5.58A12.21,12.21,0,0,1,391.07,118.93Z"/><path class="a" d="M429.9,97.91v5.3h-6.2V122h-5.51V103.21H412v-5.3Z"/><path class="a" d="M446.19,122v-13.1l-9.3,13.1h-4.14V97.91h5.51V111l9.31-13.09h4.13V122Z"/><path class="a" d="M476.61,122h-6.27l-7.71-11.17V122h-5.52V97.91h5.52v10.47L470,97.91h6.27l-8.13,11.75Z"/><path class="a" d="M493.44,122v-13.1L484.13,122H480V97.91h5.51V111l9.31-13.09H499V122Z"/><path class="b" d="M286.92,145.45a2.6,2.6,0,0,0,.2-.85,1.6,1.6,0,0,0-.57-1.27,2.2,2.2,0,0,0-1.46-.49,5.6,5.6,0,0,0-2.15.48,6.18,6.18,0,0,0-1.66.92l-.86-3.38a8.72,8.72,0,0,1,2.47-1.18,7.93,7.93,0,0,1,2.72-.41,6.5,6.5,0,0,1,2.9.74,4.68,4.68,0,0,1,1.83,1.72,4.58,4.58,0,0,1,.62,2.39,6.78,6.78,0,0,1-1.44,4l-3.45,5.33h5.19V157H279.71l6.53-10.37A6.35,6.35,0,0,0,286.92,145.45Z"/><path class="b" d="M295.05,154.76a15.13,15.13,0,0,1,0-13,5.4,5.4,0,0,1,9.08,0,15.27,15.27,0,0,1,0,13,5.39,5.39,0,0,1-9.08,0Zm6.54-2.36a13.92,13.92,0,0,0,0-8.28,2.06,2.06,0,0,0-4,0,14.35,14.35,0,0,0,0,8.28,2.07,2.07,0,0,0,4,0Z"/><path class="b" d="M311.07,153.82a2,2,0,0,1,.52,1.38,2,2,0,0,1-.53,1.39,1.85,1.85,0,0,1-1.45.59,1.87,1.87,0,0,1-1.46-.59,2,2,0,0,1-.52-1.39,2,2,0,0,1,.52-1.38,1.86,1.86,0,0,1,1.46-.58A1.83,1.83,0,0,1,311.07,153.82Z"/><path class="b" d="M313.62,139.54H320V157h-3.48V143h-2.86Z"/><path class="b" d="M324.68,154.76a15.13,15.13,0,0,1,0-13,5.39,5.39,0,0,1,9.07,0,15.17,15.17,0,0,1,0,13,5.38,5.38,0,0,1-9.07,0Zm6.54-2.36a13.92,13.92,0,0,0,0-8.28,2.11,2.11,0,0,0-2-1.57,2.08,2.08,0,0,0-2,1.57,14.35,14.35,0,0,0,0,8.28,2.09,2.09,0,0,0,2,1.55A2.11,2.11,0,0,0,331.22,152.4Z"/><path class="b" d="M340.7,153.82a2.09,2.09,0,0,1,0,2.77,1.87,1.87,0,0,1-1.46.59,1.85,1.85,0,0,1-1.45-.59,2,2,0,0,1-.53-1.39,2,2,0,0,1,.53-1.38,2.13,2.13,0,0,1,2.92,0Z"/><path class="b" d="M349.86,145.45a2.41,2.41,0,0,0,.21-.85,1.6,1.6,0,0,0-.57-1.27,2.22,2.22,0,0,0-1.46-.49,5.57,5.57,0,0,0-2.15.48,6.44,6.44,0,0,0-1.67.92l-.85-3.38a8.59,8.59,0,0,1,2.47-1.18,7.91,7.91,0,0,1,2.71-.41,6.43,6.43,0,0,1,2.9.74,4.47,4.47,0,0,1,2.46,4.11,6.78,6.78,0,0,1-1.44,4L349,153.46h5.19V157H342.66l6.53-10.37A6.24,6.24,0,0,0,349.86,145.45Z"/><path class="b" d="M358,154.76a15.13,15.13,0,0,1,0-13,5.4,5.4,0,0,1,9.08,0,15.27,15.27,0,0,1,0,13,5.39,5.39,0,0,1-9.08,0Zm6.54-2.36a13.92,13.92,0,0,0,0-8.28,2.11,2.11,0,0,0-2-1.57,2.08,2.08,0,0,0-2,1.57,14.35,14.35,0,0,0,0,8.28,2.09,2.09,0,0,0,2,1.55A2.11,2.11,0,0,0,364.54,152.4Z"/><path class="b" d="M377.22,145.45a2.6,2.6,0,0,0,.2-.85,1.6,1.6,0,0,0-.57-1.27,2.2,2.2,0,0,0-1.46-.49,5.6,5.6,0,0,0-2.15.48,6.18,6.18,0,0,0-1.66.92l-.86-3.38a8.72,8.72,0,0,1,2.47-1.18,7.93,7.93,0,0,1,2.72-.41,6.5,6.5,0,0,1,2.9.74,4.68,4.68,0,0,1,1.83,1.72,4.58,4.58,0,0,1,.62,2.39,6.78,6.78,0,0,1-1.44,4l-3.45,5.33h5.19V157H370l6.53-10.37A6.35,6.35,0,0,0,377.22,145.45Z"/><path class="b" d="M385.35,154.76a15.13,15.13,0,0,1,0-13,5.4,5.4,0,0,1,9.08,0,15.27,15.27,0,0,1,0,13,5.39,5.39,0,0,1-9.08,0Zm6.54-2.36a13.92,13.92,0,0,0,0-8.28,2.06,2.06,0,0,0-4,0,14.35,14.35,0,0,0,0,8.28,2.07,2.07,0,0,0,4,0Z"/><path class="a" d="M288.15,191.55a7.68,7.68,0,0,1-5.62-2.29,8,8,0,0,1,0-11.28,8,8,0,0,1,11.24,0,8,8,0,0,1,0,11.28A7.7,7.7,0,0,1,288.15,191.55Zm0-3.4a4.27,4.27,0,0,0,3.16-1.26,4.82,4.82,0,0,0,0-6.54,4.62,4.62,0,0,0-6.34,0,4.84,4.84,0,0,0,0,6.54A4.3,4.3,0,0,0,288.15,188.15Z"/><path class="a" d="M305.06,181.66a5.3,5.3,0,0,1,3.79,1.33,4.44,4.44,0,0,1,1.44,3.46,4.53,4.53,0,0,1-1.44,3.49,5.42,5.42,0,0,1-3.79,1.31h-5.88V176H309v3.36h-6.32v2.31Zm0,6.32c1.16,0,1.74-.5,1.74-1.53s-.58-1.52-1.74-1.52h-2.4v3Z"/><path class="a" d="M315.23,191.25v-11.9h-3.48V176h7v4.8H321a5.17,5.17,0,0,1,3.79,1.52,5.2,5.2,0,0,1,0,7.41,5.17,5.17,0,0,1-3.79,1.53Zm3.49-3.27H321a2,2,0,0,0,0-3.92h-2.29Z"/><path class="a" d="M332.66,187.89h6.1v3.36h-9.59V176h9.48v3.36h-6v2.53h5.45v3.31h-5.45Z"/><path class="a" d="M354.16,187.89h1.64v6.28h-3.49v-2.92h-7.62v2.92H341.2v-6.28h1.55a8.82,8.82,0,0,0,1.2-5V176h10.21Zm-3.48,0v-8.63h-3.25v3.62a10.4,10.4,0,0,1-1,5Z"/><path class="a" d="M367.42,191.25V183l-5.89,8.28h-2.61V176h3.48v8.28l5.89-8.28h2.61v15.26Z"/><path class="a" d="M383.08,176h3.48v15.26h-3.48v-6.06h-4.8v6.06H374.8V176h3.48v5.84h4.8Z"/><path class="a" d="M399,191.25V183l-5.89,8.28h-2.61V176h3.48v8.28l5.89-8.28h2.61v15.26Z"/><path class="a" d="M421.59,176v15.26H418.1v-8.87l-3.94,6.47h-.39l-3.95-6.47v8.87h-3.48V176h3.48l4.14,6.78L418.1,176Z"/><path class="a" d="M447.66,176v15.26h-3.49v-8.87l-3.94,6.47h-.4l-3.94-6.47v8.87H432.4V176h3.49l4.14,6.78,4.14-6.78Z"/><path class="a" d="M460.06,191.25V183l-5.88,8.28h-2.62V176h3.49v8.28l5.88-8.28h2.61v15.26Z"/><path class="a" d="M473.21,176a5.14,5.14,0,0,1,3.8,1.53,5.23,5.23,0,0,1,0,7.41,5.17,5.17,0,0,1-3.8,1.52h-2.28v4.8h-3.49V176Zm0,7.19a2,2,0,0,0,0-3.92h-2.28v3.92Z"/><path class="a" d="M500,176v15.26h-3.48v-11.9H492v11.9h-3.49V176Z"/><path class="a" d="M509.71,176a5.12,5.12,0,0,1,3.79,1.53,5.2,5.2,0,0,1,0,7.41,5.15,5.15,0,0,1-3.79,1.52h-2.29v4.8h-3.48V176Zm0,7.19a2,2,0,0,0,0-3.92h-2.29v3.92Z"/><path class="a" d="M526.37,191.25V183l-5.88,8.28h-2.61V176h3.48v8.28l5.88-8.28h2.62v15.26Z"/><path class="a" d="M292.42,203.55v15.26h-3.49v-11.9h-4.57v11.9h-3.49V203.55Z"/><path class="a" d="M303.48,219.11a7.7,7.7,0,0,1-5.62-2.29,8.05,8.05,0,0,1,0-11.29,8.07,8.07,0,0,1,11.24,0,8.05,8.05,0,0,1,0,11.29A7.68,7.68,0,0,1,303.48,219.11Zm0-3.4a4.27,4.27,0,0,0,3.16-1.26,4.79,4.79,0,0,0,0-6.54,4.27,4.27,0,0,0-3.16-1.26,4.32,4.32,0,0,0-3.18,1.26,4.87,4.87,0,0,0,0,6.54A4.32,4.32,0,0,0,303.48,215.71Z"/><path class="a" d="M329.76,203.55v15.26h-3.48v-8.87l-3.95,6.47h-.39L318,209.94v8.87h-3.49V203.55H318l4.14,6.78,4.14-6.78Z"/><path class="a" d="M340.83,219.11a7.7,7.7,0,0,1-5.62-2.29,8.05,8.05,0,0,1,0-11.29,8.08,8.08,0,0,1,11.25,0,7.94,7.94,0,0,1-5.63,13.58Zm0-3.4a4.26,4.26,0,0,0,3.16-1.26,4.79,4.79,0,0,0,0-6.54,4.26,4.26,0,0,0-3.16-1.26,4.32,4.32,0,0,0-3.18,1.26,4.87,4.87,0,0,0,0,6.54A4.32,4.32,0,0,0,340.83,215.71Z"/><path class="a" d="M369.73,215.45h1.64v6.28h-3.49v-2.92h-16V203.55h3.49v11.9h3.7v-11.9h3.49v11.9h3.7v-11.9h3.49Z"/><path class="a" d="M383,218.81v-8.29l-5.88,8.29h-2.61V203.55H378v8.28l5.89-8.28h2.61v15.26Z"/><path class="a" d="M409.29,215.45h1.63v6.28h-3.48v-2.92h-7.63v2.92h-3.49v-6.28h1.55a8.78,8.78,0,0,0,1.2-5.06v-6.84h10.22Zm-3.49,0v-8.63h-3.25v3.62a10.4,10.4,0,0,1-1,5Z"/><path class="a" d="M424.17,218.81l-.77-2.4h-5.66l-.77,2.4h-3.81l5.19-15.26h4.44L428,218.81Zm-5.39-5.67h3.58l-1.79-5.6Z"/><path class="a" d="M438.87,203.55h3.49v15.26h-3.49v-6.06h-4.79v6.06h-3.49V203.55h3.49v5.84h4.79Z"/><path class="a" d="M454.53,203.55H458v15.26h-3.49v-6.06h-4.79v6.06h-3.49V203.55h3.49v5.84h4.79Z"/><path class="a" d="M461.91,218.81V203.55h3.49v4.8h2.29a5.17,5.17,0,0,1,3.79,1.52,5.2,5.2,0,0,1,0,7.41,5.17,5.17,0,0,1-3.79,1.53Zm3.49-3.27h2.29a2,2,0,0,0,0-3.93H465.4Zm8.93,3.27V203.55h3.49v15.26Z"/><path class="a" d="M493.63,218.81h-4l-2.57-4.41-2.57,4.41h-4l4.56-7.83-4.34-7.43h4l2.36,4,2.35-4h4L489.07,211Z"/><path class="a" d="M500.49,215.43l-1.74,6.42h-2.62l.87-6.42Z"/><path class="a" d="M293.2,246.36h-4l-4.88-7.06v7.06h-3.49V231.11h3.49v6.62l4.66-6.62h4l-5.15,7.43Z"/><path class="a" d="M302.11,246.67a7.7,7.7,0,0,1-5.62-2.29,8.05,8.05,0,0,1,0-11.29,8.07,8.07,0,0,1,11.24,0,8.05,8.05,0,0,1,0,11.29A7.68,7.68,0,0,1,302.11,246.67Zm0-3.4a4.3,4.3,0,0,0,3.16-1.26,4.79,4.79,0,0,0,0-6.54,4.27,4.27,0,0,0-3.16-1.27,4.33,4.33,0,0,0-3.18,1.27,4.87,4.87,0,0,0,0,6.54A4.36,4.36,0,0,0,302.11,243.27Z"/><path class="a" d="M323.31,231.11v3.36h-3.92v11.89H315.9V234.47H312v-3.36Z"/><path class="a" d="M333.15,246.67a7.7,7.7,0,0,1-5.62-2.29,8.05,8.05,0,0,1,0-11.29,8.07,8.07,0,0,1,11.24,0,8.05,8.05,0,0,1,0,11.29A7.7,7.7,0,0,1,333.15,246.67Zm0-3.4a4.31,4.31,0,0,0,3.16-1.26,4.79,4.79,0,0,0,0-6.54,4.28,4.28,0,0,0-3.16-1.27,4.33,4.33,0,0,0-3.18,1.27,4.87,4.87,0,0,0,0,6.54A4.36,4.36,0,0,0,333.15,243.27Z"/><path class="a" d="M350,231.11a5.1,5.1,0,0,1,3.79,1.53,5.19,5.19,0,0,1,0,7.4,5.1,5.1,0,0,1-3.79,1.53h-2.28v4.79h-3.49V231.11Zm0,7.19a2,2,0,0,0,0-3.92h-2.28v3.92Z"/><path class="a" d="M358.12,246.36V231.11h3.49v4.79h2.28a5.14,5.14,0,0,1,3.79,1.53,5.2,5.2,0,0,1,0,7.41,5.13,5.13,0,0,1-3.79,1.52Zm3.49-3.26h2.28a2,2,0,0,0,0-3.93h-2.28Zm8.93,3.26V231.11H374v15.25Z"/><path class="a" d="M393.18,231.11v15.25H389.7V237.5L385.75,244h-.39l-3.94-6.47v8.86h-3.49V231.11h3.49l4.14,6.78,4.14-6.78Z"/><path class="a" d="M419.25,231.11v15.25h-3.49V237.5L411.82,244h-.39l-3.95-6.47v8.86H404V231.11h3.48l4.14,6.78,4.14-6.78Z"/><path class="a" d="M423.15,246.36V231.11h3.49v4.79h2.29a5.16,5.16,0,0,1,3.79,1.53,5.2,5.2,0,0,1,0,7.41,5.15,5.15,0,0,1-3.79,1.52Zm3.49-3.26h2.29a2,2,0,0,0,0-3.93h-2.29Zm8.93,3.26V231.11h3.49v15.25Z"/><path class="a" d="M465.13,231.11v15.25h-3.49V237.5L457.7,244h-.4l-3.94-6.47v8.86h-3.49V231.11h3.49l4.14,6.78,4.14-6.78Z"/><path class="a" d="M476.2,246.67a7.68,7.68,0,0,1-5.62-2.29,8.05,8.05,0,0,1,0-11.29,8.07,8.07,0,0,1,11.24,0,8.05,8.05,0,0,1,0,11.29A7.7,7.7,0,0,1,476.2,246.67Zm0-3.4a4.31,4.31,0,0,0,3.16-1.26,4.82,4.82,0,0,0,0-6.54,4.59,4.59,0,0,0-6.34,0,4.84,4.84,0,0,0,0,6.54A4.34,4.34,0,0,0,476.2,243.27Z"/><path class="a" d="M505,246.36h-3.86l-4.22-6.75v6.75H493.4v-6.75l-4.23,6.75h-3.85l4.92-7.75-4.71-7.5h3.86l4,6.71v-6.71h3.49v6.71l4-6.71h3.85l-4.7,7.5Z"/><path class="a" d="M511.2,243h6.1v3.35h-9.59V231.11h9.48v3.36h-6V237h5.45v3.32H511.2Z"/><path class="a" d="M536,231.11v15.25h-3.49V237.5L528.55,244h-.39l-3.95-6.47v8.86h-3.48V231.11h3.48l4.14,6.78,4.14-6.78Z"/><path class="a" d="M292.86,270.57h1.63v6.27H291v-2.92h-7.62v2.92h-3.49v-6.27h1.55a8.88,8.88,0,0,0,1.2-5.06v-6.84h10.22Zm-3.49,0v-8.63h-3.25v3.62a10.42,10.42,0,0,1-1,5Z"/><path class="a" d="M304.47,274.23a7.74,7.74,0,0,1-5.62-2.29,8.05,8.05,0,0,1,0-11.29,8,8,0,0,1,11.24,0,8.05,8.05,0,0,1,0,11.29A7.72,7.72,0,0,1,304.47,274.23Zm0-3.4a4.27,4.27,0,0,0,3.16-1.27,4.78,4.78,0,0,0,0-6.53,4.27,4.27,0,0,0-3.16-1.27,4.33,4.33,0,0,0-3.18,1.27,4.86,4.86,0,0,0,0,6.53A4.33,4.33,0,0,0,304.47,270.83Z"/><path class="a" d="M326.83,269.46a4.12,4.12,0,0,1-1.41,3.22,5.12,5.12,0,0,1-3.51,1.24H315.5V258.67h6a5,5,0,0,1,3.42,1.22,3.94,3.94,0,0,1,1.4,3.14,3.74,3.74,0,0,1-1.33,3A3.87,3.87,0,0,1,326.83,269.46ZM319,261.94v2.7h2.48a1.35,1.35,0,0,0,0-2.7Zm2.92,8.71a1.46,1.46,0,0,0,0-2.92H319v2.92Z"/><path class="a" d="M333.42,270.57h6.1v3.35h-9.58V258.67h9.48V262h-6v2.53h5.45v3.31h-5.45Z"/><path class="a" d="M348.73,258.67a5.17,5.17,0,0,1,3.79,1.52,5.2,5.2,0,0,1,0,7.41,5.13,5.13,0,0,1-3.79,1.53h-2.29v4.79H343V258.67Zm0,7.19a2,2,0,0,0,0-3.92h-2.29v3.92Z"/><path class="a" d="M368.06,258.67v15.25h-3.49v-5h-1.11l-3.24,5h-3.93l3.58-5.44a5.24,5.24,0,0,1-2.27-1.84,4.69,4.69,0,0,1-.87-2.74,5.21,5.21,0,0,1,5.23-5.23Zm-3.49,7.19v-3.92H362a2,2,0,0,0,0,3.92Z"/><path class="a" d="M382.11,258.67V262h-3.92v11.9H374.7V262h-3.92v-3.35Z"/><path class="a" d="M390.59,263.46a5.14,5.14,0,0,1,3.8,1.53,5.23,5.23,0,0,1,0,7.41,5.17,5.17,0,0,1-3.8,1.52h-5.77V258.67h3.49v4.79Zm0,7.19a2,2,0,0,0,0-3.92h-2.28v3.92Z"/></svg>