<svg xmlns="http://www.w3.org/2000/svg" viewBox="0 0 413.72 285.9"><defs><style>.a{fill:#009edb;}.b{fill:#72c6ef;}.c{fill:#badaf3;}</style></defs><path class="a" d="M316.87,72.27l-8.12,29.42a77.19,77.19,0,1,1-79.21,80.64l-29.83-8.24c-.07,1.58-.11,3.16-.11,4.75A107.06,107.06,0,1,0,316.87,72.27Z"/><polygon class="b" points="332.92 126.28 304.2 118.33 295.84 148.97 285.71 186.14 314.43 194.08 324.52 157.06 332.92 126.28"/><polygon class="c" points="332.92 126.28 304.2 118.33 295.84 149.11 324.52 157.06 332.92 126.28"/><polygon class="b" points="262.57 106.85 243.76 174.57 272.48 182.51 291.28 114.82 302.5 74.44 273.78 66.49 262.57 106.85"/><polygon class="c" points="275.49 60.26 262.57 106.85 291.28 114.82 304.21 68.19 275.49 60.26"/><polygon class="b" points="246.83 0 224.31 81.82 211.95 126.72 173.37 75.31 163.39 111.65 201.9 163.21 201.9 163.21 230.62 171.16 253.03 89.75 275.55 7.94 246.83 0"/><polygon class="c" points="246.83 0 224.31 81.82 253.03 89.75 275.55 7.94 246.83 0"/><path class="b" d="M37.3,152.79a2.46,2.46,0,0,0,.2-.82,1.53,1.53,0,0,0-.56-1.23,2.08,2.08,0,0,0-1.41-.48,5.51,5.51,0,0,0-2.1.46,6.44,6.44,0,0,0-1.61.89L31,148.34a8.38,8.38,0,0,1,2.4-1.16,7.91,7.91,0,0,1,2.64-.39,6.5,6.5,0,0,1,2.81.71,4.41,4.41,0,0,1,2.39,4,6.59,6.59,0,0,1-1.4,3.89l-3.35,5.18h5V164H30.3l6.34-10.08A5.9,5.9,0,0,0,37.3,152.79Z"/><path class="b" d="M45.2,161.83a14.66,14.66,0,0,1,0-12.63,4.76,4.76,0,0,1,4.39-2.41,4.78,4.78,0,0,1,4.42,2.4,14.7,14.7,0,0,1,0,12.65,4.77,4.77,0,0,1-4.42,2.42A4.74,4.74,0,0,1,45.2,161.83Zm6.36-2.29a13.77,13.77,0,0,0,0-8,2.06,2.06,0,0,0-2-1.52,2,2,0,0,0-1.92,1.52,14,14,0,0,0,0,8,2,2,0,0,0,1.92,1.51A2.06,2.06,0,0,0,51.56,159.54Z"/><path class="b" d="M60.76,160.92a1.91,1.91,0,0,1,.5,1.34,2,2,0,0,1-.51,1.36,1.79,1.79,0,0,1-1.41.57,1.82,1.82,0,0,1-1.42-.57,2,2,0,0,1-.51-1.36,1.92,1.92,0,0,1,.51-1.34,1.84,1.84,0,0,1,1.42-.56A1.8,1.8,0,0,1,60.76,160.92Z"/><path class="b" d="M63.23,147.05h6.16v17H66V150.45H63.23Z"/><path class="b" d="M74,161.83a14.66,14.66,0,0,1,0-12.63,5.24,5.24,0,0,1,8.81,0,14.7,14.7,0,0,1,0,12.65,5.21,5.21,0,0,1-8.81,0Zm6.35-2.29a13.55,13.55,0,0,0,0-8,2,2,0,0,0-2-1.52,2,2,0,0,0-1.92,1.52,13.77,13.77,0,0,0,0,8,2,2,0,0,0,1.92,1.51A2,2,0,0,0,80.33,159.54Z"/><path class="b" d="M89.54,160.92a2,2,0,0,1,.5,1.34,2,2,0,0,1-.51,1.36,2,2,0,0,1-2.83,0,2,2,0,0,1-.51-1.36,1.92,1.92,0,0,1,.51-1.34,2.08,2.08,0,0,1,2.84,0Z"/><path class="b" d="M98.44,152.79a2.46,2.46,0,0,0,.2-.82,1.5,1.5,0,0,0-.56-1.23,2.08,2.08,0,0,0-1.41-.48,5.42,5.42,0,0,0-2.09.46,6.54,6.54,0,0,0-1.62.89l-.83-3.27a8.64,8.64,0,0,1,2.4-1.16,8,8,0,0,1,2.64-.39,6.5,6.5,0,0,1,2.81.71,4.36,4.36,0,0,1,2.39,4,6.52,6.52,0,0,1-1.4,3.89l-3.35,5.18h5V164H91.44l6.35-10.08A5.8,5.8,0,0,0,98.44,152.79Z"/><path class="b" d="M106.34,161.83a14.75,14.75,0,0,1,0-12.63,5.25,5.25,0,0,1,8.82,0,14.8,14.8,0,0,1,0,12.65,5.22,5.22,0,0,1-8.82,0Zm6.36-2.29a13.77,13.77,0,0,0,0-8,2.05,2.05,0,0,0-2-1.52,2,2,0,0,0-1.93,1.52,14,14,0,0,0,0,8,2,2,0,0,0,1.93,1.51A2.06,2.06,0,0,0,112.7,159.54Z"/><path class="b" d="M125,152.79a2.46,2.46,0,0,0,.2-.82,1.53,1.53,0,0,0-.56-1.23,2.08,2.08,0,0,0-1.41-.48,5.42,5.42,0,0,0-2.09.46,6.35,6.35,0,0,0-1.62.89l-.83-3.27a8.38,8.38,0,0,1,2.4-1.16,7.91,7.91,0,0,1,2.64-.39,6.5,6.5,0,0,1,2.81.71,4.41,4.41,0,0,1,2.39,4,6.59,6.59,0,0,1-1.4,3.89l-3.35,5.18h5V164H118l6.34-10.08A5.9,5.9,0,0,0,125,152.79Z"/><path class="b" d="M132.91,161.83a14.66,14.66,0,0,1,0-12.63,5.25,5.25,0,0,1,8.82,0,14.8,14.8,0,0,1,0,12.65,4.8,4.8,0,0,1-4.43,2.42A4.74,4.74,0,0,1,132.91,161.83Zm6.36-2.29a13.77,13.77,0,0,0,0-8,2.06,2.06,0,0,0-2-1.52,2,2,0,0,0-1.92,1.52,14,14,0,0,0,0,8,2,2,0,0,0,1.92,1.51A2.06,2.06,0,0,0,139.27,159.54Z"/><path class="a" d="M124.19,75.86h-8.31a6.8,6.8,0,0,1-3.26-.72,11.94,11.94,0,0,0,4.3-5A16.19,16.19,0,0,0,118.51,63a18.3,18.3,0,0,0-9.07-2.17,15.35,15.35,0,0,0-5.28,1,16.38,16.38,0,0,0-4.86,2.78,18.11,18.11,0,0,0,1.2,4.08,22.14,22.14,0,0,0,2.08,3.89,11,11,0,0,0,2.28,2.61,6.74,6.74,0,0,1-1.6.5,9.18,9.18,0,0,1-1.79.19H93.69V52.76H88.31V80.2H102a12.8,12.8,0,0,0,6.72-2,12.08,12.08,0,0,0,3.15,1.46,11.92,11.92,0,0,0,3.53.57h14.13V52.76h-5.38Zm-15.36-2.93a8.71,8.71,0,0,1-2.52-2.68,13.41,13.41,0,0,1-1.63-3.74,7.25,7.25,0,0,1,2.12-1,8.65,8.65,0,0,1,2.5-.4,10.89,10.89,0,0,1,4.08.65A8.66,8.66,0,0,1,108.83,72.93Zm1.37-25.78a2.62,2.62,0,0,0,.65-1.91,2.75,2.75,0,0,0-.63-1.93,2.6,2.6,0,0,0-3.52,0,2.73,2.73,0,0,0-.64,1.92,2.62,2.62,0,0,0,.65,1.89,2.55,2.55,0,0,0,3.49,0Zm6.15,0a2.62,2.62,0,0,0,.66-1.89,2.73,2.73,0,0,0-.64-1.92,2.27,2.27,0,0,0-1.76-.69,2.3,2.3,0,0,0-1.77.69,2.74,2.74,0,0,0-.65,1.92,2.62,2.62,0,0,0,.66,1.89,2.54,2.54,0,0,0,3.5,0Zm25.83-8.33V11.35H136.8V38.8Zm0,55.36H136.8v23.1H128V94.16h-5.38v23.1h-3.73L114.54,99h-5.63l4.66,18.23H107v4.34h35.15Zm-5.38-14h5.38V52.76H136.8ZM93,42.05a4.25,4.25,0,0,1-3.16,1.12,11.57,11.57,0,0,1-2.72-.31,12.18,12.18,0,0,1-2.77-1.06l-2.1,3.93a11.52,11.52,0,0,0,3.45,1.37,21,21,0,0,0,4.24.38q4.56,0,7-2.28a8.21,8.21,0,0,0,2.5-6.4h30.09V11.35h-5.38V34.46h-9.58V20.91h-5.38V34.46H99.48V20.91H94a14.94,14.94,0,0,0-6,1.15,9,9,0,0,0-4,3.31,8.9,8.9,0,0,0-1.43,5,8.7,8.7,0,0,0,2.08,6.22,7.82,7.82,0,0,0,6,2.19H94.1V39A4.16,4.16,0,0,1,93,42.05Zm-1.38-7.59a3.38,3.38,0,0,1-2.7-1,4.83,4.83,0,0,1-.88-3.2,5,5,0,0,1,1.3-3.68,4.84,4.84,0,0,1,3.6-1.31H94.1v9.21ZM31.77,97.11a2.67,2.67,0,0,0,.67-1.9,2.74,2.74,0,0,0-.64-1.91A2.24,2.24,0,0,0,30,92.6a2.28,2.28,0,0,0-1.78.7,3.14,3.14,0,0,0,0,3.81A2.33,2.33,0,0,0,30,97.8,2.29,2.29,0,0,0,31.77,97.11Zm6-18.85a16.31,16.31,0,0,0-3.41-1.48,6,6,0,0,1-2-1,1.66,1.66,0,0,1-.62-1.28,2.42,2.42,0,0,1,.6-1.36,6.19,6.19,0,0,1,1.48-1.4,2.81,2.81,0,0,1,1.46-.6,3,3,0,0,1,1.84.81,18.43,18.43,0,0,1,2.68,3.18,28.73,28.73,0,0,0,1.83,2.43,8.22,8.22,0,0,0,2.83,2.1,8.76,8.76,0,0,0,3.12.54s0,0,0,0h11a11.17,11.17,0,0,0,3.67-.61,9.27,9.27,0,0,0,3.16-1.81,7.14,7.14,0,0,0,2.65,1.88,9.21,9.21,0,0,0,3.12.53h9.91V52.76H75.7v23.1H71.36a6.4,6.4,0,0,1-2.11-.29,3.71,3.71,0,0,1-1.49-1,10.19,10.19,0,0,0,.67-3.72,8.87,8.87,0,0,0-1.11-4.49,7.65,7.65,0,0,0-3.13-3,9.56,9.56,0,0,0-4.49-1,13.56,13.56,0,0,0-3.44.52,15.78,15.78,0,0,0-3.72,1.54,13.25,13.25,0,0,0-1.3,3.12,11.89,11.89,0,0,0-.53,3.39,12.24,12.24,0,0,0,1,5h-3.9a3.78,3.78,0,0,1-2.2-.7,13.18,13.18,0,0,1-2.67-3.07,34.2,34.2,0,0,0-3-3.91A6.72,6.72,0,0,0,38,66.82a5.11,5.11,0,0,0-2.15-.45,7.69,7.69,0,0,0-4.16,1.42,12.15,12.15,0,0,0-3.54,3.49,7.28,7.28,0,0,0-1.36,4,4.94,4.94,0,0,0,1.18,3.48,8.57,8.57,0,0,0,4.21,2.06,6.13,6.13,0,0,1,1.9.79,1.28,1.28,0,0,1,.59,1.05,1.53,1.53,0,0,1-1.07,1.48,12.11,12.11,0,0,1-4,.44H23.33a3.88,3.88,0,0,1-2.08-.63,4.48,4.48,0,0,1-1.61-1.73A4.69,4.69,0,0,1,19,79.85a30.94,30.94,0,0,1,.15-3.35,15.27,15.27,0,0,1,.61-2.84H15a21.6,21.6,0,0,0-1.16,7,9.61,9.61,0,0,0,.92,4.25,7,7,0,0,0,2.61,2.94,6.86,6.86,0,0,0,3.73,1h8.52q5.2,0,7.79-1.68A5.44,5.44,0,0,0,40,82.33,4.81,4.81,0,0,0,39.43,80,4.75,4.75,0,0,0,37.77,78.26Zm18.46-10.6a6.76,6.76,0,0,1,3.37-1,3.08,3.08,0,0,1,2.49,1.14A4.7,4.7,0,0,1,63,70.85a4.83,4.83,0,0,1-1.47,3.55,5,5,0,0,1-3.66,1.46H56.53a13.11,13.11,0,0,1-.83-4.21A15,15,0,0,1,56.23,67.66ZM97.89,105a8.76,8.76,0,0,0-5.63-1.63,15.75,15.75,0,0,0-7.54,1.73l1.62,4a11.68,11.68,0,0,1,2.41-1,8.72,8.72,0,0,1,2.38-.32,3.89,3.89,0,0,1,2.89,1,6.89,6.89,0,0,1,1.45,3.42q.77,3.86,2.17,5.13v0H78.75v-4.34q0-4.87-2.25-7.22t-6.69-2.34q-6.49,0-9.79,6.69v-6.33h-5.4v13.54H46.21V94.16H40.83V121.6h62.23v-4.34q-1.59-1.55-2.52-6.93A8.42,8.42,0,0,0,97.89,105ZM73.37,117.26H60v-2.82q3.54-6.73,8.41-6.74A5,5,0,0,1,72.17,109a5.4,5.4,0,0,1,1.2,3.87ZM25.63,97.12a2.66,2.66,0,0,0,.65-1.91,2.7,2.7,0,0,0-.64-1.92,2.24,2.24,0,0,0-1.74-.69,2.3,2.3,0,0,0-1.78.7,2.74,2.74,0,0,0-.64,1.91,2.66,2.66,0,0,0,.66,1.9,2.57,2.57,0,0,0,3.49,0Zm6.52,19.33c-1.48.18-2.61.33-3.38.46a3.4,3.4,0,0,1-2.07-3.14,3.1,3.1,0,0,1,1-2.58,4.08,4.08,0,0,1,2.67-.82,7,7,0,0,1,3.44.76l1.07-4a7.18,7.18,0,0,0-2.16-.77,13.48,13.48,0,0,0-2.93-.29,9.25,9.25,0,0,0-6.09,1.87,6.19,6.19,0,0,0-2.26,5,5.88,5.88,0,0,0,.69,2.84,5,5,0,0,0,1.85,2,32,32,0,0,0-3.44.72v3.76q2.75-.52,7.62-1.13a66.2,66.2,0,0,1,7.41-.6v-4.37C34.78,116.16,33.63,116.28,32.15,116.45Zm84,13.28a1.73,1.73,0,0,1-1.08-1.62,1.63,1.63,0,0,1,1.73-1.75,4.52,4.52,0,0,1,2,.48l.72-1.83a6,6,0,0,0-3-.66,4.45,4.45,0,0,0-2.91.89,2.91,2.91,0,0,0-1.08,2.39,2.41,2.41,0,0,0,.46,1.48,3.32,3.32,0,0,0,1.18,1l-2.06.33v1.84c.26-.07,1.38-.23,3.36-.46s3.4-.38,4.26-.44v-2.1c-.78.06-1.75.18-2.93.37ZM61.8,41.58a3,3,0,0,1,.65-2.14,3.22,3.22,0,0,1,2.28-.64h3.33a10.84,10.84,0,0,0,5-1.18,8.86,8.86,0,0,0,3.56-3.3,9.24,9.24,0,0,0,1.27-4.87A8.83,8.83,0,0,0,76.8,25a7.65,7.65,0,0,0-3.15-3,9.48,9.48,0,0,0-4.47-1.05,13.31,13.31,0,0,0-3.55.56A14.92,14.92,0,0,0,62,23a12.47,12.47,0,0,0-1.3,3.07,12,12,0,0,0-.55,3.44,12.59,12.59,0,0,0,1,5,4.91,4.91,0,0,0-3.49,1.56,5.42,5.42,0,0,0-1.24,3.75V50.35H61.8Zm3.9-15.32a6.76,6.76,0,0,1,3.37-1,3.1,3.1,0,0,1,2.48,1.11,4.62,4.62,0,0,1,.94,3.09A4.83,4.83,0,0,1,71,33a5,5,0,0,1-3.64,1.46H66a13.12,13.12,0,0,1-.83-4.22A14.93,14.93,0,0,1,65.7,26.26Z"/><path class="a" d="M82.36,248.09A1.72,1.72,0,0,0,82,249.3a1.69,1.69,0,0,0,.41,1.2,1.45,1.45,0,0,0,1.12.44,1.42,1.42,0,0,0,1.1-.44,1.66,1.66,0,0,0,.42-1.2,1.72,1.72,0,0,0-.4-1.21,1.65,1.65,0,0,0-2.24,0Zm-44.84-47a1.83,1.83,0,0,1,.41-1.36,2,2,0,0,1,1.44-.41h2.11a7.09,7.09,0,0,0,2.34-.39,6.06,6.06,0,0,0,2-1.14,4.83,4.83,0,0,0,1.68,1.18,5.61,5.61,0,0,0,2,.34h6.28V181.89H52.36v14.64H49.61a4,4,0,0,1-1.36-.19,2.28,2.28,0,0,1-1-.66,6.34,6.34,0,0,0,.43-2.33,5.62,5.62,0,0,0-.71-2.84,4.86,4.86,0,0,0-2-1.9,6.09,6.09,0,0,0-2.84-.66,8.19,8.19,0,0,0-2.25.35,9.68,9.68,0,0,0-2.28.95,8.1,8.1,0,0,0-.83,1.95,7.74,7.74,0,0,0-.34,2.18,8,8,0,0,0,.61,3.17,3.12,3.12,0,0,0-2.21,1,3.45,3.45,0,0,0-.78,2.38v6.68h3.41ZM40,191.33a4.28,4.28,0,0,1,2.13-.64,2,2,0,0,1,1.57.71,2.92,2.92,0,0,1,.6,1.95,3.06,3.06,0,0,1-.93,2.25,3.17,3.17,0,0,1-2.31.93h-.87a8.06,8.06,0,0,1-.53-2.67A9.2,9.2,0,0,1,40,191.33ZM84,220a1.66,1.66,0,0,0,.42-1.2,1.78,1.78,0,0,0-.4-1.21,1.47,1.47,0,0,0-1.12-.44,1.49,1.49,0,0,0-1.13.44,1.73,1.73,0,0,0-.4,1.21,1.65,1.65,0,0,0,.41,1.2A1.59,1.59,0,0,0,84,220Zm-5.52,28.12a1.68,1.68,0,0,0-.41,1.21,1.69,1.69,0,0,0,.41,1.2,1.63,1.63,0,0,0,2.22,0,1.69,1.69,0,0,0,.41-1.21,1.73,1.73,0,0,0-.4-1.22,1.44,1.44,0,0,0-1.11-.43A1.42,1.42,0,0,0,78.47,248.09ZM19.61,218.46A1.46,1.46,0,0,0,20.7,218a1.69,1.69,0,0,0,.42-1.2,1.73,1.73,0,0,0-.41-1.22,1.44,1.44,0,0,0-1.1-.44,1.48,1.48,0,0,0-1.14.44,1.75,1.75,0,0,0-.41,1.22,1.69,1.69,0,0,0,.42,1.2A1.48,1.48,0,0,0,19.61,218.46ZM80.09,220a1.67,1.67,0,0,0,.42-1.22,1.73,1.73,0,0,0-.41-1.22,1.4,1.4,0,0,0-1.1-.43,1.49,1.49,0,0,0-1.13.44,1.73,1.73,0,0,0-.4,1.21,1.65,1.65,0,0,0,.41,1.2,1.61,1.61,0,0,0,2.21,0Zm9.1.44H85.77V229H78.34a2,2,0,0,1-1.57-.65,2.45,2.45,0,0,1-.59-1.71,13.2,13.2,0,0,1,.35-3h-3a7.35,7.35,0,0,0-.54,1.66,9.4,9.4,0,0,0-.2,1.84A4.55,4.55,0,0,0,74,230.53a4.47,4.47,0,0,0,3.33,1.23H89.19Zm20,26.44a1.65,1.65,0,0,0,0-2,1.27,1.27,0,0,0-1-.37,1.47,1.47,0,0,0-.92,2.44,1.31,1.31,0,0,0,.92.34A1.21,1.21,0,0,0,109.14,246.87Zm19.28-44.72a1.72,1.72,0,0,0-.4,1.21,1.65,1.65,0,0,0,.41,1.2,1.44,1.44,0,0,0,1.13.44,1.41,1.41,0,0,0,1.09-.44,1.66,1.66,0,0,0,.42-1.2,1.73,1.73,0,0,0-.41-1.22,1.43,1.43,0,0,0-1.1-.43A1.46,1.46,0,0,0,128.42,202.15Zm8.28,2.63a4.52,4.52,0,0,0,3.48-1.39,5.23,5.23,0,0,0,1.31-3.74V188h-3.41v11.53a2.73,2.73,0,0,1-.56,1.76,1.81,1.81,0,0,1-1.48.7,3.63,3.63,0,0,1-1.11-.15,4.49,4.49,0,0,1-1.07-.52l-1.37,2.22a7.37,7.37,0,0,0,2.06,1A7.67,7.67,0,0,0,136.7,204.78ZM131.46,188h-3.41v8.58h-5.61v-2.75A6.41,6.41,0,0,0,121,189.2a5.68,5.68,0,0,0-4.24-1.48q-4.11,0-6.2,4.24V181.89h-3.42v14.64H105v2.75h26.44ZM119,196.53h-8.46v-1.79q2.24-4.28,5.33-4.27a3.14,3.14,0,0,1,2.36.79,3.41,3.41,0,0,1,.77,2.45Zm-13.91,51.56a1.68,1.68,0,0,0-.41,1.21,1.69,1.69,0,0,0,.41,1.2,1.45,1.45,0,0,0,1.12.44,1.43,1.43,0,0,0,1.1-.44,1.66,1.66,0,0,0,.42-1.2,1.72,1.72,0,0,0-.4-1.21,1.65,1.65,0,0,0-2.24,0ZM93.43,214.37v17.39h12.32V220.43h-3.41V229h-5.5V214.37ZM104,218.46a1.46,1.46,0,0,0,1.09-.44,2,2,0,0,0,0-2.42,1.45,1.45,0,0,0-1.1-.44,1.48,1.48,0,0,0-1.14.44,1.75,1.75,0,0,0-.41,1.22,1.69,1.69,0,0,0,.42,1.2A1.48,1.48,0,0,0,104,218.46Zm-9.53-36.57H91.08v17.39h3.41ZM131.78,237a1.66,1.66,0,0,0,.42-1.2,1.73,1.73,0,0,0-.41-1.22,1.43,1.43,0,0,0-1.1-.43,1.5,1.5,0,0,0-1.14.44,1.72,1.72,0,0,0-.41,1.21,1.66,1.66,0,0,0,.42,1.2,1.59,1.59,0,0,0,2.22,0Zm-11.59,0a1.69,1.69,0,0,0,.41-1.22,1.73,1.73,0,0,0-.4-1.22,1.43,1.43,0,0,0-1.1-.43,1.48,1.48,0,0,0-1.13.44,1.72,1.72,0,0,0-.41,1.21A1.66,1.66,0,0,0,118,237a1.44,1.44,0,0,0,1.12.45A1.48,1.48,0,0,0,120.19,237.06Zm-109.6-18.6a1.46,1.46,0,0,0,1.09-.44,1.68,1.68,0,0,0,.41-1.2,1.73,1.73,0,0,0-.4-1.22,1.45,1.45,0,0,0-1.1-.44,1.48,1.48,0,0,0-1.14.44A1.75,1.75,0,0,0,9,216.82a1.69,1.69,0,0,0,.42,1.2A1.48,1.48,0,0,0,10.59,218.46Zm119.15,43h-5.5v-8.59h-3.48a9.33,9.33,0,0,0-3.82.73,5.53,5.53,0,0,0-3.47,5.27,5.5,5.5,0,0,0,1.32,3.95,5,5,0,0,0,3.77,1.39h2.27v.11a2.67,2.67,0,0,1-.71,1.95,2.7,2.7,0,0,1-2,.71,7.23,7.23,0,0,1-3.47-.87l-1.33,2.49a6.75,6.75,0,0,0,2.18.86,12.44,12.44,0,0,0,2.69.25,6.43,6.43,0,0,0,4.47-1.45,5.21,5.21,0,0,0,1.58-4.05h8.91v-17.4h-3.41Zm-8.91,0h-1.58a2.14,2.14,0,0,1-1.71-.65,3.08,3.08,0,0,1-.56-2,3.19,3.19,0,0,1,.82-2.33,3.09,3.09,0,0,1,2.29-.83h.74Zm-10.69-13.85a1.44,1.44,0,0,0-1.13.44,1.68,1.68,0,0,0-.41,1.21,1.69,1.69,0,0,0,.41,1.2,1.46,1.46,0,0,0,1.13.44,1.41,1.41,0,0,0,1.09-.44,1.66,1.66,0,0,0,.42-1.2,1.73,1.73,0,0,0-.41-1.22A1.43,1.43,0,0,0,110.14,247.65Zm27.94-27.22V229h-5.62v-8.58h-3.4V229H123v-8.58h-3.41V229h-6.19V214.37H110v17.39h31.5V220.43Zm2.6,16.61a1.69,1.69,0,0,0,.41-1.2,1.73,1.73,0,0,0-.4-1.22,1.45,1.45,0,0,0-1.1-.43,1.48,1.48,0,0,0-1.14.44,1.72,1.72,0,0,0-.41,1.21,1.66,1.66,0,0,0,.42,1.2,1.59,1.59,0,0,0,2.22,0Zm-3,9.81v17.4h3.41v-17.4ZM124.09,237a1.66,1.66,0,0,0,.42-1.2,1.72,1.72,0,0,0-.41-1.21,1.43,1.43,0,0,0-1.11-.44,1.48,1.48,0,0,0-1.13.44,1.72,1.72,0,0,0-.41,1.21,1.66,1.66,0,0,0,.42,1.2,1.59,1.59,0,0,0,2.22,0Zm-64.21-2.85a1.47,1.47,0,0,0-1.12.44,1.72,1.72,0,0,0-.41,1.21,1.66,1.66,0,0,0,.42,1.2A1.58,1.58,0,0,0,61,237a1.66,1.66,0,0,0,.42-1.2,1.72,1.72,0,0,0-.4-1.21A1.45,1.45,0,0,0,59.88,234.19ZM52.27,261.5h-5.5V257a8.36,8.36,0,0,0-2.25-6.3q-2.25-2.17-6.77-2.17a22.1,22.1,0,0,0-3.24.22,18.28,18.28,0,0,0-3.1.78l.77,2.62a13.6,13.6,0,0,1,2.56-.67,19.1,19.1,0,0,1,3-.21,5.39,5.39,0,0,1,4.18,1.56,6.37,6.37,0,0,1,1.43,4.46v4.24H40.18v-3.26a5.24,5.24,0,0,0-.64-2.55,4.46,4.46,0,0,0-1.81-1.79,5.56,5.56,0,0,0-2.73-.64,5.27,5.27,0,0,0-2.6.67,5,5,0,0,0-1.93,1.85,4.8,4.8,0,0,0-.71,2.52,5.2,5.2,0,0,0,.32,2,3.29,3.29,0,0,0,.78,1.22H25.41V246.85H22v17.4H55.68V252.91H52.27Zm-15.5,0H36c-1.85,0-2.77-1-2.77-3.07a2.74,2.74,0,0,1,.48-1.66,1.53,1.53,0,0,1,1.27-.65,1.59,1.59,0,0,1,1.33.54,2.84,2.84,0,0,1,.42,1.73Zm69.7,0H99.84v-8.59H96.36a9.3,9.3,0,0,0-3.82.73,5.53,5.53,0,0,0-3.47,5.27,5.5,5.5,0,0,0,1.32,3.95,5,5,0,0,0,3.77,1.39h2.26v.11a2.66,2.66,0,0,1-.7,1.95,2.71,2.71,0,0,1-2,.71,7.43,7.43,0,0,1-1.72-.2,7.75,7.75,0,0,1-1.76-.67l-1.33,2.49a6.8,6.8,0,0,0,2.19.86,12.44,12.44,0,0,0,2.69.25,6.38,6.38,0,0,0,4.46-1.45,5.19,5.19,0,0,0,1.59-4.05h10V252.91h-3.41Zm-10,0H94.85a2.14,2.14,0,0,1-1.71-.65,3.08,3.08,0,0,1-.56-2,3.15,3.15,0,0,1,.82-2.33,3.09,3.09,0,0,1,2.29-.83h.73Zm-42.64,5.17a1.48,1.48,0,0,0-1.13.44,1.7,1.7,0,0,0-.41,1.22,1.68,1.68,0,0,0,.41,1.2,1.49,1.49,0,0,0,1.13.44,1.45,1.45,0,0,0,1.09-.44,1.69,1.69,0,0,0,.42-1.2,1.71,1.71,0,0,0-.41-1.22A1.44,1.44,0,0,0,53.78,266.67ZM56,234.19a1.47,1.47,0,0,0-1.12.44,1.72,1.72,0,0,0-.41,1.21,1.69,1.69,0,0,0,.41,1.2,1.45,1.45,0,0,0,1.12.45,1.48,1.48,0,0,0,1.1-.43,2,2,0,0,0,0-2.44A1.44,1.44,0,0,0,56,234.19Zm21.8,19.41a5.12,5.12,0,0,0-2.29,2,5.72,5.72,0,0,0-.77,3,6.13,6.13,0,0,0,.7,3,4.84,4.84,0,0,0,2,2,6,6,0,0,0,2.91.7h1.75v.11a2.19,2.19,0,0,1-1,2,6.23,6.23,0,0,1-3.21.64H74a3.34,3.34,0,0,1-3.69-3.65,16.43,16.43,0,0,1,.21-2.51,19.74,19.74,0,0,1,.57-2.57h-3a10.37,10.37,0,0,0-.87,2.41,12.19,12.19,0,0,0-.31,2.65,6.94,6.94,0,0,0,.78,3.28,5.78,5.78,0,0,0,2.18,2.31,6,6,0,0,0,3.11.83H79c2.24,0,3.87-.51,4.91-1.51a6.1,6.1,0,0,0,1.56-4.59V252.91h-4A8.74,8.74,0,0,0,77.79,253.6Zm4.28,2.06v5.84h-.63a3.63,3.63,0,0,1-2.36-.7,2.56,2.56,0,0,1-.85-2.1q0-3,3.25-3ZM73.31,198a7.72,7.72,0,0,0,2,.93,7.52,7.52,0,0,0,2.23.36h9V181.89H83.09v14.64H77.82a4.21,4.21,0,0,1-2.06-.46,7.56,7.56,0,0,0,2.72-3.16,10.29,10.29,0,0,0,1-4.55A11.59,11.59,0,0,0,73.74,187a9.55,9.55,0,0,0-3.34.65,10.05,10.05,0,0,0-3.08,1.76,11.12,11.12,0,0,0,.76,2.58,13.83,13.83,0,0,0,1.32,2.47,6.82,6.82,0,0,0,1.44,1.65,4,4,0,0,1-1,.32,6.15,6.15,0,0,1-1.14.12H63.76V181.89H60.35v17.39h8.7A8.06,8.06,0,0,0,73.31,198Zm-2.58-7.38a4.3,4.3,0,0,1,1.34-.62,5.49,5.49,0,0,1,1.59-.26,6.75,6.75,0,0,1,2.58.42,5.48,5.48,0,0,1-2.89,4.52,5.57,5.57,0,0,1-1.59-1.7A8.14,8.14,0,0,1,70.73,190.61ZM58.15,229H54.26a4.26,4.26,0,0,1-1.34-.18,2.3,2.3,0,0,1-.94-.63,6.63,6.63,0,0,0,.42-2.36,5.63,5.63,0,0,0-.7-2.85,4.88,4.88,0,0,0-2-1.89,6,6,0,0,0-2.85-.67,8.62,8.62,0,0,0-2.18.33,9.8,9.8,0,0,0-2.36,1,8.34,8.34,0,0,0-.82,2,7.54,7.54,0,0,0-.34,2.15,7.8,7.8,0,0,0,.62,3.15H36.45V224.9c0-3.45-2.17-5.18-6.53-5.18h-.87a8.89,8.89,0,0,1,2.53-2.39,14,14,0,0,1,3.72-1.78l-1.25-3.06a15.53,15.53,0,0,0-5.13,3A13.88,13.88,0,0,0,25.51,220v2.48H29.4a4.31,4.31,0,0,1,2.69.74,2.51,2.51,0,0,1,.95,2.12V229H21.34v-8.58H17.93V229H12.32v-8.58H8.91V229H3.41V214.37H0v17.39H46.16a7.32,7.32,0,0,0,2.32-.38,5.94,5.94,0,0,0,2-1.15,4.57,4.57,0,0,0,1.68,1.19,5.66,5.66,0,0,0,2,.33h7.42V220.43H58.15ZM48,228.08a3.16,3.16,0,0,1-2.32.93h-.86a8.23,8.23,0,0,1-.53-2.67,9.6,9.6,0,0,1,.34-2.53,4.32,4.32,0,0,1,2.13-.63,1.93,1.93,0,0,1,1.58.72,2.94,2.94,0,0,1,.59,1.94A3,3,0,0,1,48,228.08Z"/><path class="a" d="M37.52,201.05a1.83,1.83,0,0,1,.41-1.36,2,2,0,0,1,1.44-.41h2.11a7.09,7.09,0,0,0,2.34-.39,6.06,6.06,0,0,0,2-1.14,4.83,4.83,0,0,0,1.68,1.18,5.61,5.61,0,0,0,2,.34h6.28V181.89H52.36v14.64H49.61a4,4,0,0,1-1.36-.19,2.28,2.28,0,0,1-1-.66,6.34,6.34,0,0,0,.43-2.33,5.62,5.62,0,0,0-.71-2.84,4.86,4.86,0,0,0-2-1.9,6.09,6.09,0,0,0-2.84-.66,8.19,8.19,0,0,0-2.25.35,9.68,9.68,0,0,0-2.28.95,8.1,8.1,0,0,0-.83,1.95,7.74,7.74,0,0,0-.34,2.18,8,8,0,0,0,.61,3.17,3.12,3.12,0,0,0-2.21,1,3.45,3.45,0,0,0-.78,2.38v6.68h3.41ZM40,191.33a4.28,4.28,0,0,1,2.13-.64,2,2,0,0,1,1.57.71,2.92,2.92,0,0,1,.6,1.95,3.06,3.06,0,0,1-.93,2.25,3.17,3.17,0,0,1-2.31.93h-.87a8.06,8.06,0,0,1-.53-2.67A9.2,9.2,0,0,1,40,191.33Zm42.37,56.76A1.72,1.72,0,0,0,82,249.3a1.69,1.69,0,0,0,.41,1.2,1.45,1.45,0,0,0,1.12.44,1.42,1.42,0,0,0,1.1-.44,1.66,1.66,0,0,0,.42-1.2,1.72,1.72,0,0,0-.4-1.21,1.65,1.65,0,0,0-2.24,0ZM80.09,220a1.67,1.67,0,0,0,.42-1.22,1.73,1.73,0,0,0-.41-1.22,1.4,1.4,0,0,0-1.1-.43,1.49,1.49,0,0,0-1.13.44,1.73,1.73,0,0,0-.4,1.21,1.65,1.65,0,0,0,.41,1.2,1.61,1.61,0,0,0,2.21,0Zm-1.62,28.1a1.68,1.68,0,0,0-.41,1.21,1.69,1.69,0,0,0,.41,1.2,1.63,1.63,0,0,0,2.22,0,1.69,1.69,0,0,0,.41-1.21,1.73,1.73,0,0,0-.4-1.22,1.44,1.44,0,0,0-1.11-.43A1.42,1.42,0,0,0,78.47,248.09ZM84,220a1.66,1.66,0,0,0,.42-1.2,1.78,1.78,0,0,0-.4-1.21,1.47,1.47,0,0,0-1.12-.44,1.49,1.49,0,0,0-1.13.44,1.73,1.73,0,0,0-.4,1.21,1.65,1.65,0,0,0,.41,1.2A1.59,1.59,0,0,0,84,220Zm5.2.46H85.77V229H78.34a2,2,0,0,1-1.57-.65,2.45,2.45,0,0,1-.59-1.71,13.2,13.2,0,0,1,.35-3h-3a7.35,7.35,0,0,0-.54,1.66,9.4,9.4,0,0,0-.2,1.84A4.55,4.55,0,0,0,74,230.53a4.47,4.47,0,0,0,3.33,1.23H89.19ZM131.46,188h-3.41v8.58h-5.61v-2.75A6.41,6.41,0,0,0,121,189.2a5.68,5.68,0,0,0-4.24-1.48q-4.11,0-6.2,4.24V181.89h-3.42v14.64H105v2.75h26.44ZM119,196.53h-8.46v-1.79q2.24-4.28,5.33-4.27a3.14,3.14,0,0,1,2.36.79,3.41,3.41,0,0,1,.77,2.45Zm-9.89,50.34a1.65,1.65,0,0,0,0-2,1.27,1.27,0,0,0-1-.37,1.47,1.47,0,0,0-.92,2.44,1.31,1.31,0,0,0,.92.34A1.21,1.21,0,0,0,109.14,246.87Zm19.28-44.72a1.72,1.72,0,0,0-.4,1.21,1.65,1.65,0,0,0,.41,1.2,1.44,1.44,0,0,0,1.13.44,1.41,1.41,0,0,0,1.09-.44,1.66,1.66,0,0,0,.42-1.2,1.73,1.73,0,0,0-.41-1.22,1.43,1.43,0,0,0-1.1-.43A1.46,1.46,0,0,0,128.42,202.15Zm8.28,2.63a4.52,4.52,0,0,0,3.48-1.39,5.23,5.23,0,0,0,1.31-3.74V188h-3.41v11.53a2.73,2.73,0,0,1-.56,1.76,1.81,1.81,0,0,1-1.48.7,3.63,3.63,0,0,1-1.11-.15,4.49,4.49,0,0,1-1.07-.52l-1.37,2.22a7.37,7.37,0,0,0,2.06,1A7.67,7.67,0,0,0,136.7,204.78ZM19.61,218.46A1.46,1.46,0,0,0,20.7,218a1.69,1.69,0,0,0,.42-1.2,1.73,1.73,0,0,0-.41-1.22,1.44,1.44,0,0,0-1.1-.44,1.48,1.48,0,0,0-1.14.44,1.75,1.75,0,0,0-.41,1.22,1.69,1.69,0,0,0,.42,1.2A1.48,1.48,0,0,0,19.61,218.46Zm73.82-4.09v17.39h12.32V220.43h-3.41V229h-5.5V214.37Zm11.69,33.72a1.68,1.68,0,0,0-.41,1.21,1.69,1.69,0,0,0,.41,1.2,1.45,1.45,0,0,0,1.12.44,1.43,1.43,0,0,0,1.1-.44,1.66,1.66,0,0,0,.42-1.2,1.72,1.72,0,0,0-.4-1.21,1.65,1.65,0,0,0-2.24,0ZM104,218.46a1.46,1.46,0,0,0,1.09-.44,2,2,0,0,0,0-2.42,1.45,1.45,0,0,0-1.1-.44,1.48,1.48,0,0,0-1.14.44,1.75,1.75,0,0,0-.41,1.22,1.69,1.69,0,0,0,.42,1.2A1.48,1.48,0,0,0,104,218.46Zm-9.53-36.57H91.08v17.39h3.41ZM124.09,237a1.66,1.66,0,0,0,.42-1.2,1.72,1.72,0,0,0-.41-1.21,1.43,1.43,0,0,0-1.11-.44,1.48,1.48,0,0,0-1.13.44,1.72,1.72,0,0,0-.41,1.21,1.66,1.66,0,0,0,.42,1.2,1.59,1.59,0,0,0,2.22,0ZM10.59,218.46a1.46,1.46,0,0,0,1.09-.44,1.68,1.68,0,0,0,.41-1.2,1.73,1.73,0,0,0-.4-1.22,1.45,1.45,0,0,0-1.1-.44,1.48,1.48,0,0,0-1.14.44A1.75,1.75,0,0,0,9,216.82a1.69,1.69,0,0,0,.42,1.2A1.48,1.48,0,0,0,10.59,218.46Zm119.15,43h-5.5v-8.59h-3.48a9.33,9.33,0,0,0-3.82.73,5.53,5.53,0,0,0-3.47,5.27,5.5,5.5,0,0,0,1.32,3.95,5,5,0,0,0,3.77,1.39h2.27v.11a2.67,2.67,0,0,1-.71,1.95,2.7,2.7,0,0,1-2,.71,7.23,7.23,0,0,1-3.47-.87l-1.33,2.49a6.75,6.75,0,0,0,2.18.86,12.44,12.44,0,0,0,2.69.25,6.43,6.43,0,0,0,4.47-1.45,5.21,5.21,0,0,0,1.58-4.05h8.91v-17.4h-3.41Zm-8.91,0h-1.58a2.14,2.14,0,0,1-1.71-.65,3.08,3.08,0,0,1-.56-2,3.19,3.19,0,0,1,.82-2.33,3.09,3.09,0,0,1,2.29-.83h.74Zm11-24.46a1.66,1.66,0,0,0,.42-1.2,1.73,1.73,0,0,0-.41-1.22,1.43,1.43,0,0,0-1.1-.43,1.5,1.5,0,0,0-1.14.44,1.72,1.72,0,0,0-.41,1.21,1.66,1.66,0,0,0,.42,1.2,1.59,1.59,0,0,0,2.22,0Zm8.9,0a1.69,1.69,0,0,0,.41-1.2,1.73,1.73,0,0,0-.4-1.22,1.45,1.45,0,0,0-1.1-.43,1.48,1.48,0,0,0-1.14.44,1.72,1.72,0,0,0-.41,1.21,1.66,1.66,0,0,0,.42,1.2,1.59,1.59,0,0,0,2.22,0Zm-3,9.81v17.4h3.41v-17.4Zm.35-26.42V229h-5.62v-8.58h-3.4V229H123v-8.58h-3.41V229h-6.19V214.37H110v17.39h31.5V220.43Zm-27.94,27.22a1.44,1.44,0,0,0-1.13.44,1.68,1.68,0,0,0-.41,1.21,1.69,1.69,0,0,0,.41,1.2,1.46,1.46,0,0,0,1.13.44,1.41,1.41,0,0,0,1.09-.44,1.66,1.66,0,0,0,.42-1.2,1.73,1.73,0,0,0-.41-1.22A1.43,1.43,0,0,0,110.14,247.65Zm10-10.59a1.69,1.69,0,0,0,.41-1.22,1.73,1.73,0,0,0-.4-1.22,1.43,1.43,0,0,0-1.1-.43,1.48,1.48,0,0,0-1.13.44,1.72,1.72,0,0,0-.41,1.21A1.66,1.66,0,0,0,118,237a1.44,1.44,0,0,0,1.12.45A1.48,1.48,0,0,0,120.19,237.06ZM56,234.19a1.47,1.47,0,0,0-1.12.44,1.72,1.72,0,0,0-.41,1.21,1.69,1.69,0,0,0,.41,1.2,1.45,1.45,0,0,0,1.12.45,1.48,1.48,0,0,0,1.1-.43,2,2,0,0,0,0-2.44A1.44,1.44,0,0,0,56,234.19Zm50.48,27.31H99.84v-8.59H96.36a9.3,9.3,0,0,0-3.82.73,5.53,5.53,0,0,0-3.47,5.27,5.5,5.5,0,0,0,1.32,3.95,5,5,0,0,0,3.77,1.39h2.26v.11a2.66,2.66,0,0,1-.7,1.95,2.71,2.71,0,0,1-2,.71,7.43,7.43,0,0,1-1.72-.2,7.75,7.75,0,0,1-1.76-.67l-1.33,2.49a6.8,6.8,0,0,0,2.19.86,12.44,12.44,0,0,0,2.69.25,6.38,6.38,0,0,0,4.46-1.45,5.19,5.19,0,0,0,1.59-4.05h10V252.91h-3.41Zm-10,0H94.85a2.14,2.14,0,0,1-1.71-.65,3.08,3.08,0,0,1-.56-2,3.15,3.15,0,0,1,.82-2.33,3.09,3.09,0,0,1,2.29-.83h.73ZM59.88,234.19a1.47,1.47,0,0,0-1.12.44,1.72,1.72,0,0,0-.41,1.21,1.66,1.66,0,0,0,.42,1.2A1.58,1.58,0,0,0,61,237a1.66,1.66,0,0,0,.42-1.2,1.72,1.72,0,0,0-.4-1.21A1.45,1.45,0,0,0,59.88,234.19Zm-6.1,32.48a1.48,1.48,0,0,0-1.13.44,1.7,1.7,0,0,0-.41,1.22,1.68,1.68,0,0,0,.41,1.2,1.49,1.49,0,0,0,1.13.44,1.45,1.45,0,0,0,1.09-.44,1.69,1.69,0,0,0,.42-1.2,1.71,1.71,0,0,0-.41-1.22A1.44,1.44,0,0,0,53.78,266.67Zm-1.51-5.17h-5.5V257a8.36,8.36,0,0,0-2.25-6.3q-2.25-2.17-6.77-2.17a22.1,22.1,0,0,0-3.24.22,18.28,18.28,0,0,0-3.1.78l.77,2.62a13.6,13.6,0,0,1,2.56-.67,19.1,19.1,0,0,1,3-.21,5.39,5.39,0,0,1,4.18,1.56,6.37,6.37,0,0,1,1.43,4.46v4.24H40.18v-3.26a5.24,5.24,0,0,0-.64-2.55,4.46,4.46,0,0,0-1.81-1.79,5.56,5.56,0,0,0-2.73-.64,5.27,5.27,0,0,0-2.6.67,5,5,0,0,0-1.93,1.85,4.8,4.8,0,0,0-.71,2.52,5.2,5.2,0,0,0,.32,2,3.29,3.29,0,0,0,.78,1.22H25.41V246.85H22v17.4H55.68V252.91H52.27Zm-15.5,0H36c-1.85,0-2.77-1-2.77-3.07a2.74,2.74,0,0,1,.48-1.66,1.53,1.53,0,0,1,1.27-.65,1.59,1.59,0,0,1,1.33.54,2.84,2.84,0,0,1,.42,1.73Zm41-7.9a5.12,5.12,0,0,0-2.29,2,5.72,5.72,0,0,0-.77,3,6.13,6.13,0,0,0,.7,3,4.84,4.84,0,0,0,2,2,6,6,0,0,0,2.91.7h1.75v.11a2.19,2.19,0,0,1-1,2,6.23,6.23,0,0,1-3.21.64H74a3.34,3.34,0,0,1-3.69-3.65,16.43,16.43,0,0,1,.21-2.51,19.74,19.74,0,0,1,.57-2.57h-3a10.37,10.37,0,0,0-.87,2.41,12.19,12.19,0,0,0-.31,2.65,6.94,6.94,0,0,0,.78,3.28,5.78,5.78,0,0,0,2.18,2.31,6,6,0,0,0,3.11.83H79c2.24,0,3.87-.51,4.91-1.51a6.1,6.1,0,0,0,1.56-4.59V252.91h-4A8.74,8.74,0,0,0,77.79,253.6Zm4.28,2.06v5.84h-.63a3.63,3.63,0,0,1-2.36-.7,2.56,2.56,0,0,1-.85-2.1q0-3,3.25-3ZM58.15,229H54.26a4.26,4.26,0,0,1-1.34-.18,2.3,2.3,0,0,1-.94-.63,6.63,6.63,0,0,0,.42-2.36,5.63,5.63,0,0,0-.7-2.85,4.88,4.88,0,0,0-2-1.89,6,6,0,0,0-2.85-.67,8.62,8.62,0,0,0-2.18.33,9.8,9.8,0,0,0-2.36,1,8.34,8.34,0,0,0-.82,2,7.54,7.54,0,0,0-.34,2.15,7.8,7.8,0,0,0,.62,3.15H36.45V224.9c0-3.45-2.17-5.18-6.53-5.18h-.87a8.89,8.89,0,0,1,2.53-2.39,14,14,0,0,1,3.72-1.78l-1.25-3.06a15.53,15.53,0,0,0-5.13,3A13.88,13.88,0,0,0,25.51,220v2.48H29.4a4.31,4.31,0,0,1,2.69.74,2.51,2.51,0,0,1,.95,2.12V229H21.34v-8.58H17.93V229H12.32v-8.58H8.91V229H3.41V214.37H0v17.39H46.16a7.32,7.32,0,0,0,2.32-.38,5.94,5.94,0,0,0,2-1.15,4.57,4.57,0,0,0,1.68,1.19,5.66,5.66,0,0,0,2,.33h7.42V220.43H58.15ZM48,228.08a3.16,3.16,0,0,1-2.32.93h-.86a8.23,8.23,0,0,1-.53-2.67,9.6,9.6,0,0,1,.34-2.53,4.32,4.32,0,0,1,2.13-.63,1.93,1.93,0,0,1,1.58.72,2.94,2.94,0,0,1,.59,1.94A3,3,0,0,1,48,228.08ZM73.31,198a7.72,7.72,0,0,0,2,.93,7.52,7.52,0,0,0,2.23.36h9V181.89H83.09v14.64H77.82a4.21,4.21,0,0,1-2.06-.46,7.56,7.56,0,0,0,2.72-3.16,10.29,10.29,0,0,0,1-4.55A11.59,11.59,0,0,0,73.74,187a9.55,9.55,0,0,0-3.34.65,10.05,10.05,0,0,0-3.08,1.76,11.12,11.12,0,0,0,.76,2.58,13.83,13.83,0,0,0,1.32,2.47,6.82,6.82,0,0,0,1.44,1.65,4,4,0,0,1-1,.32,6.15,6.15,0,0,1-1.14.12H63.76V181.89H60.35v17.39h8.7A8.06,8.06,0,0,0,73.31,198Zm-2.58-7.38a4.3,4.3,0,0,1,1.34-.62,5.49,5.49,0,0,1,1.59-.26,6.75,6.75,0,0,1,2.58.42,5.48,5.48,0,0,1-2.89,4.52,5.57,5.57,0,0,1-1.59-1.7A8.14,8.14,0,0,1,70.73,190.61Z"/></svg>