<svg xmlns="http://www.w3.org/2000/svg" viewBox="0 0 792 612"><defs><style>.a{fill:#009edb;}.b{fill:#fff;}.c{fill:#c7e2f6;}.d{fill:#90cef1;}.e{fill:#acd6f2;}</style></defs><rect class="a" width="792" height="612"/><path class="b" d="M488.27,229.44l-8.12,29.42a77.19,77.19,0,1,1-79.21,80.64l-29.83-8.23c-.07,1.57-.11,3.15-.11,4.75A107.06,107.06,0,1,0,488.27,229.44Z"/><polygon class="c" points="504.32 283.45 475.6 275.51 467.25 306.15 457.11 343.31 485.83 351.26 495.92 314.24 504.32 283.45"/><polygon class="d" points="504.32 283.45 475.6 275.51 467.25 306.29 495.92 314.24 504.32 283.45"/><polygon class="c" points="433.97 264.02 415.16 331.74 443.88 339.69 462.68 272 473.9 231.61 445.18 223.67 433.97 264.02"/><polygon class="d" points="446.89 217.43 433.97 264.02 462.68 272 475.61 225.37 446.89 217.43"/><polygon class="c" points="418.23 157.18 395.71 238.99 383.35 283.89 344.77 232.49 334.79 268.83 373.3 320.39 373.3 320.39 402.02 328.34 424.43 246.92 446.95 165.12 418.23 157.18"/><polygon class="d" points="418.23 157.18 395.71 238.99 424.43 246.92 446.95 165.12 418.23 157.18"/><path class="e" d="M208.7,310a2.51,2.51,0,0,0,.2-.82,1.56,1.56,0,0,0-.56-1.24,2.12,2.12,0,0,0-1.41-.47,5.51,5.51,0,0,0-2.1.46,6.44,6.44,0,0,0-1.61.89l-.83-3.28a8.37,8.37,0,0,1,2.4-1.15,7.91,7.91,0,0,1,2.64-.39,6.37,6.37,0,0,1,2.81.71,4.41,4.41,0,0,1,2.39,4,6.59,6.59,0,0,1-1.4,3.9l-3.35,5.18h5v3.45H201.7L208,311.12A6.2,6.2,0,0,0,208.7,310Z"/><path class="e" d="M216.6,319a14.66,14.66,0,0,1,0-12.63,5.24,5.24,0,0,1,8.81,0,14.7,14.7,0,0,1,0,12.65,5.22,5.22,0,0,1-8.81,0Zm6.35-2.29a13.58,13.58,0,0,0,0-8.05,2,2,0,0,0-3.88,0,14,14,0,0,0,0,8.05,2,2,0,0,0,3.88,0Z"/><path class="e" d="M232.16,318.09a2.06,2.06,0,0,1,0,2.7,1.79,1.79,0,0,1-1.41.57,1.82,1.82,0,0,1-1.42-.57,2,2,0,0,1,0-2.7,1.84,1.84,0,0,1,1.42-.55A1.8,1.8,0,0,1,232.16,318.09Z"/><path class="e" d="M234.63,304.23h6.16v17h-3.38V307.63h-2.78Z"/><path class="e" d="M245.38,319a14.66,14.66,0,0,1,0-12.63,5.24,5.24,0,0,1,8.81,0,14.7,14.7,0,0,1,0,12.65,5.22,5.22,0,0,1-8.81,0Zm6.35-2.29a13.58,13.58,0,0,0,0-8.05,2.06,2.06,0,0,0-2-1.52,2,2,0,0,0-1.92,1.52,13.8,13.8,0,0,0,0,8.05,2,2,0,0,0,1.92,1.51A2.06,2.06,0,0,0,251.73,316.72Z"/><path class="e" d="M260.94,318.09a2,2,0,0,1,.5,1.35,2,2,0,0,1-.51,1.35,2,2,0,0,1-2.83,0,2,2,0,0,1,0-2.7,2.11,2.11,0,0,1,2.84,0Z"/><path class="e" d="M269.84,310a2.51,2.51,0,0,0,.2-.82,1.53,1.53,0,0,0-.56-1.24,2.12,2.12,0,0,0-1.41-.47,5.42,5.42,0,0,0-2.09.46,6.54,6.54,0,0,0-1.62.89l-.83-3.28a8.63,8.63,0,0,1,2.4-1.15,8,8,0,0,1,2.64-.39,6.37,6.37,0,0,1,2.81.71,4.36,4.36,0,0,1,2.39,4,6.52,6.52,0,0,1-1.4,3.9L269,317.75h5v3.45H262.84l6.35-10.08A6.09,6.09,0,0,0,269.84,310Z"/><path class="e" d="M277.74,319a14.75,14.75,0,0,1,0-12.63,5.25,5.25,0,0,1,8.82,0,14.8,14.8,0,0,1,0,12.65,5.23,5.23,0,0,1-8.82,0Zm6.36-2.29a13.8,13.8,0,0,0,0-8.05,2.07,2.07,0,0,0-2-1.52,2,2,0,0,0-1.93,1.52,14,14,0,0,0,0,8.05,2,2,0,0,0,1.93,1.51A2.07,2.07,0,0,0,284.1,316.72Z"/><path class="e" d="M296.41,310a2.51,2.51,0,0,0,.2-.82,1.56,1.56,0,0,0-.56-1.24,2.12,2.12,0,0,0-1.41-.47,5.42,5.42,0,0,0-2.09.46,6.35,6.35,0,0,0-1.62.89l-.83-3.28a8.37,8.37,0,0,1,2.4-1.15,7.91,7.91,0,0,1,2.64-.39,6.37,6.37,0,0,1,2.81.71,4.41,4.41,0,0,1,2.39,4,6.59,6.59,0,0,1-1.4,3.9l-3.35,5.18h5v3.45H289.41l6.34-10.08A6.2,6.2,0,0,0,296.41,310Z"/><path class="e" d="M304.31,319a14.66,14.66,0,0,1,0-12.63A4.74,4.74,0,0,1,308.7,304a4.8,4.8,0,0,1,4.43,2.4,14.8,14.8,0,0,1,0,12.65,4.79,4.79,0,0,1-4.43,2.41A4.73,4.73,0,0,1,304.31,319Zm6.36-2.29a13.8,13.8,0,0,0,0-8.05,2.07,2.07,0,0,0-2-1.52,2,2,0,0,0-1.92,1.52,14,14,0,0,0,0,8.05,2,2,0,0,0,1.92,1.51A2.07,2.07,0,0,0,310.67,316.72Z"/><path class="b" d="M253.76,405.26a1.75,1.75,0,0,0-.41,1.22,1.73,1.73,0,0,0,.41,1.2,1.48,1.48,0,0,0,1.12.44,1.45,1.45,0,0,0,1.1-.44,1.69,1.69,0,0,0,.42-1.2,1.74,1.74,0,0,0-.4-1.22,1.65,1.65,0,0,0-2.24,0Zm6.83-27.66h-3.42v8.59h-7.43a2,2,0,0,1-1.57-.65,2.45,2.45,0,0,1-.59-1.71,13.29,13.29,0,0,1,.35-3h-3a7.45,7.45,0,0,0-.54,1.67,9.38,9.38,0,0,0-.2,1.83,4.56,4.56,0,0,0,1.23,3.38,4.47,4.47,0,0,0,3.33,1.23h11.86Zm5.3-38.54h-3.41v17.4h3.41Zm35.25,79.61h-5.5v-8.58h-3.48a9.5,9.5,0,0,0-3.82.72,5.76,5.76,0,0,0-2.56,2.1,5.57,5.57,0,0,0-.91,3.18,5.51,5.51,0,0,0,1.32,4,5,5,0,0,0,3.77,1.38h2.27v.11a2.46,2.46,0,0,1-2.71,2.66,7.5,7.5,0,0,1-1.72-.19,7.57,7.57,0,0,1-1.75-.68l-1.33,2.5a7.24,7.24,0,0,0,2.18.86,13.16,13.16,0,0,0,2.69.24,6.42,6.42,0,0,0,4.47-1.44,5.22,5.22,0,0,0,1.58-4.06h8.91V404h-3.41Zm-8.91,0h-1.58a2.11,2.11,0,0,1-1.71-.65,3,3,0,0,1-.56-2,3.22,3.22,0,0,1,.82-2.34,3.09,3.09,0,0,1,2.29-.82h.74Zm17.25-41.07v8.59h-5.62V377.6h-3.4v8.59h-6.07V377.6H291v8.59h-6.19V371.55h-3.41v17.39h31.51V377.6Zm-54.09-.45a1.66,1.66,0,0,0,.42-1.2,1.76,1.76,0,0,0-.4-1.21,1.43,1.43,0,0,0-1.12-.44,1.46,1.46,0,0,0-1.13.44,1.72,1.72,0,0,0-.4,1.21,1.65,1.65,0,0,0,.41,1.2,1.45,1.45,0,0,0,1.12.44A1.43,1.43,0,0,0,255.39,377.15Zm-3.9,0a1.65,1.65,0,0,0,.42-1.21,1.73,1.73,0,0,0-.41-1.22,1.4,1.4,0,0,0-1.1-.43,1.46,1.46,0,0,0-1.13.44,1.72,1.72,0,0,0-.4,1.21,1.65,1.65,0,0,0,.41,1.2,1.45,1.45,0,0,0,1.12.44A1.42,1.42,0,0,0,251.49,377.16Zm45.33-20.7h6V345.12h-3.41v8.59h-5.61V351a6.4,6.4,0,0,0-1.43-4.58,5.64,5.64,0,0,0-4.24-1.48q-4.11,0-6.2,4.23V339.06h-3.43v14.65h-2.13v2.75h20.4Zm-6.39-2.75H282v-1.79q2.23-4.28,5.33-4.27a3.14,3.14,0,0,1,2.36.79,3.39,3.39,0,0,1,.77,2.45Zm-81.52,4.51a1.86,1.86,0,0,1,.42-1.36,2,2,0,0,1,1.44-.4h2.11a7.09,7.09,0,0,0,2.34-.39,6.24,6.24,0,0,0,2-1.14,5,5,0,0,0,1.68,1.18,5.61,5.61,0,0,0,2,.34h6.28v-17.4h-3.41v14.65H221a4.28,4.28,0,0,1-1.36-.19,2.28,2.28,0,0,1-1-.66,6.38,6.38,0,0,0,.43-2.33,5.62,5.62,0,0,0-.71-2.84,4.79,4.79,0,0,0-2-1.9,6,6,0,0,0-2.84-.67,8.59,8.59,0,0,0-2.25.35,10.14,10.14,0,0,0-2.28,1,8.67,8.67,0,0,0-1.17,4.12,8.08,8.08,0,0,0,.61,3.18,3.11,3.11,0,0,0-2.21,1,3.46,3.46,0,0,0-.78,2.38v6.69h3.4Zm2.48-9.71a4.18,4.18,0,0,1,2.13-.64,2,2,0,0,1,1.57.71,2.9,2.9,0,0,1,.6,1.95,3.06,3.06,0,0,1-.93,2.25,3.17,3.17,0,0,1-2.31.93h-.87a8.07,8.07,0,0,1-.53-2.68A9.13,9.13,0,0,1,211.39,348.51ZM308.1,362a4.56,4.56,0,0,0,3.48-1.39,5.23,5.23,0,0,0,1.31-3.74V345.12h-3.41v11.54a2.75,2.75,0,0,1-.56,1.76,1.83,1.83,0,0,1-1.48.7,3.63,3.63,0,0,1-1.11-.15,4.91,4.91,0,0,1-1.07-.52l-1.37,2.22a7.37,7.37,0,0,0,2.06,1A8.05,8.05,0,0,0,308.1,362Zm-8.28-2.64a1.75,1.75,0,0,0-.41,1.22,1.69,1.69,0,0,0,.42,1.2,1.48,1.48,0,0,0,1.13.44,1.45,1.45,0,0,0,1.09-.44,1.69,1.69,0,0,0,.42-1.2,1.73,1.73,0,0,0-.41-1.22,1.44,1.44,0,0,0-1.1-.44A1.5,1.5,0,0,0,299.82,359.32Zm-23.3,45.94a1.7,1.7,0,0,0-.41,1.22,1.73,1.73,0,0,0,.41,1.2,1.62,1.62,0,0,0,2.22,0,1.69,1.69,0,0,0,.42-1.2,1.74,1.74,0,0,0-.4-1.22,1.65,1.65,0,0,0-2.24,0Zm-1.1-29.62a1.42,1.42,0,0,0,1.08-.44,2,2,0,0,0,0-2.42,1.42,1.42,0,0,0-1.1-.44,1.48,1.48,0,0,0-1.14.44,1.74,1.74,0,0,0-.41,1.21,1.7,1.7,0,0,0,.42,1.21A1.48,1.48,0,0,0,275.42,375.64Zm-10.59-4.09v17.39h12.32V377.6h-3.41v8.59h-5.5V371.55Zm15.71,32.5a1.44,1.44,0,0,0,.35-1,1.41,1.41,0,0,0-.35-1,1.27,1.27,0,0,0-1-.37,1.35,1.35,0,0,0-.92.33,1.33,1.33,0,0,0-.37,1,1.36,1.36,0,0,0,.37,1.05,1.28,1.28,0,0,0,.92.35A1.24,1.24,0,0,0,280.54,404.05Zm-30.67,1.21a1.7,1.7,0,0,0-.41,1.22,1.73,1.73,0,0,0,.41,1.2,1.48,1.48,0,0,0,1.12.44,1.46,1.46,0,0,0,1.1-.43,1.7,1.7,0,0,0,.41-1.21,1.73,1.73,0,0,0-.4-1.22,1.63,1.63,0,0,0-2.23,0Zm45.62-11a1.66,1.66,0,0,0,.42-1.2,1.72,1.72,0,0,0-.41-1.21,1.41,1.41,0,0,0-1.11-.44,1.44,1.44,0,0,0-1.13.44,1.72,1.72,0,0,0-.41,1.21,1.66,1.66,0,0,0,.42,1.2,1.62,1.62,0,0,0,2.22,0Zm-46.3,16.56a5.06,5.06,0,0,0-2.29,2,5.71,5.71,0,0,0-.77,3,6.17,6.17,0,0,0,.7,3,4.84,4.84,0,0,0,2,2,6,6,0,0,0,2.91.69h1.75v.11a2.19,2.19,0,0,1-1,2,6.25,6.25,0,0,1-3.21.63h-3.87a3.33,3.33,0,0,1-3.69-3.64,16.33,16.33,0,0,1,.21-2.51,20.27,20.27,0,0,1,.57-2.58h-3a10.45,10.45,0,0,0-.87,2.42,12.19,12.19,0,0,0-.31,2.65,6.94,6.94,0,0,0,.78,3.28,5.82,5.82,0,0,0,5.29,3.13h6c2.24,0,3.87-.5,4.91-1.5a6.1,6.1,0,0,0,1.56-4.59V410.09h-4A8.74,8.74,0,0,0,249.19,410.78Zm4.28,2.06v5.83h-.63a3.57,3.57,0,0,1-2.36-.7,2.53,2.53,0,0,1-.85-2.09q0-3,3.25-3ZM191,375.64a1.46,1.46,0,0,0,1.09-.44,2,2,0,0,0,0-2.42,1.4,1.4,0,0,0-1.1-.44,1.48,1.48,0,0,0-1.14.44,1.74,1.74,0,0,0-.41,1.21,1.7,1.7,0,0,0,.42,1.21A1.48,1.48,0,0,0,191,375.64Zm112.17,18.58a1.66,1.66,0,0,0,.42-1.2,1.73,1.73,0,0,0-.41-1.22,1.43,1.43,0,0,0-1.1-.43,1.45,1.45,0,0,0-1.14.44,1.72,1.72,0,0,0-.41,1.21,1.66,1.66,0,0,0,.42,1.2,1.44,1.44,0,0,0,1.13.44A1.43,1.43,0,0,0,303.18,394.22Zm-25.31,24.45h-6.63v-8.58h-3.48a9.47,9.47,0,0,0-3.82.72,5.76,5.76,0,0,0-2.56,2.1,5.57,5.57,0,0,0-.91,3.18,5.51,5.51,0,0,0,1.32,4,5,5,0,0,0,3.77,1.38h2.26v.11a2.63,2.63,0,0,1-.7,2,2.67,2.67,0,0,1-2,.71,7.43,7.43,0,0,1-1.72-.19,7.81,7.81,0,0,1-1.76-.68l-1.33,2.5a7.29,7.29,0,0,0,2.19.86,13.16,13.16,0,0,0,2.69.24,6.38,6.38,0,0,0,4.46-1.44,5.19,5.19,0,0,0,1.59-4.06h10V410.09h-3.41Zm-10.05,0h-1.57a2.11,2.11,0,0,1-1.71-.65,3,3,0,0,1-.56-2,3.18,3.18,0,0,1,.82-2.34,3.09,3.09,0,0,1,2.29-.82h.73Zm13.72-13.85a1.48,1.48,0,0,0-1.13.44,1.7,1.7,0,0,0-.41,1.22,1.73,1.73,0,0,0,.41,1.2,1.49,1.49,0,0,0,1.13.44,1.45,1.45,0,0,0,1.09-.44,1.69,1.69,0,0,0,.42-1.2,1.73,1.73,0,0,0-.41-1.22A1.44,1.44,0,0,0,281.54,404.82Zm10-10.59A1.64,1.64,0,0,0,292,393a1.73,1.73,0,0,0-.4-1.22,1.65,1.65,0,0,0-2.23,0A1.72,1.72,0,0,0,289,393a1.66,1.66,0,0,0,.42,1.2,1.62,1.62,0,0,0,2.21,0Zm-62-8h-3.89a4.26,4.26,0,0,1-1.34-.18,2.43,2.43,0,0,1-.94-.64,6.55,6.55,0,0,0,.42-2.36,5.59,5.59,0,0,0-.7-2.84,4.75,4.75,0,0,0-2-1.89,6.06,6.06,0,0,0-2.85-.68,8.68,8.68,0,0,0-2.18.34,9.77,9.77,0,0,0-2.36,1,8.25,8.25,0,0,0-.82,2,7.49,7.49,0,0,0-.34,2.15,7.64,7.64,0,0,0,.62,3.15h-5.34v-4.11c0-3.45-2.17-5.18-6.53-5.18h-.87a8.89,8.89,0,0,1,2.53-2.39,13.7,13.7,0,0,1,3.72-1.78l-1.25-3.06a15.53,15.53,0,0,0-5.13,3,13.78,13.78,0,0,0-3.41,4.51v2.48h3.89a4.31,4.31,0,0,1,2.69.74,2.51,2.51,0,0,1,.95,2.12v3.68h-11.7V377.6h-3.41v8.59h-5.61V377.6h-3.41v8.59h-5.5V371.55H171.4v17.39h46.16a7.06,7.06,0,0,0,2.32-.39,5.76,5.76,0,0,0,2-1.14,4.69,4.69,0,0,0,1.68,1.19,5.9,5.9,0,0,0,2,.33H233V377.6h-3.41Zm-10.11-.93a3.16,3.16,0,0,1-2.32.93h-.86a8.33,8.33,0,0,1-.53-2.67,9.6,9.6,0,0,1,.34-2.53,4.34,4.34,0,0,1,2.13-.64,1.94,1.94,0,0,1,1.58.73,3,3,0,0,1,.59,1.93A3.06,3.06,0,0,1,219.44,385.26Zm25.27-30.09a7.71,7.71,0,0,0,2,.92,7.23,7.23,0,0,0,2.23.37h9v-17.4h-3.41v14.65h-5.27a4.32,4.32,0,0,1-2.06-.46,7.59,7.59,0,0,0,2.72-3.17,10.22,10.22,0,0,0,1-4.54,11.59,11.59,0,0,0-5.75-1.38,9.76,9.76,0,0,0-3.34.64,10.48,10.48,0,0,0-3.08,1.76,11.06,11.06,0,0,0,.76,2.59,14.18,14.18,0,0,0,1.32,2.47,6.82,6.82,0,0,0,1.44,1.65,4,4,0,0,1-1,.31,5.46,5.46,0,0,1-1.14.13h-4.93V339.06h-3.41v17.4h8.7A8.06,8.06,0,0,0,244.71,355.17Zm-2.58-7.39a4.31,4.31,0,0,1,1.34-.61,5.49,5.49,0,0,1,1.59-.26,7,7,0,0,1,2.58.41,5.48,5.48,0,0,1-2.89,4.53,5.57,5.57,0,0,1-1.59-1.7A8.32,8.32,0,0,1,242.13,347.78Zm69.95,46.44a1.69,1.69,0,0,0,.41-1.2,1.73,1.73,0,0,0-.4-1.22,1.66,1.66,0,0,0-2.24,0,1.72,1.72,0,0,0-.41,1.21,1.66,1.66,0,0,0,.42,1.2,1.44,1.44,0,0,0,1.13.44A1.43,1.43,0,0,0,312.08,394.22Zm-86.9,29.63a1.48,1.48,0,0,0-1.13.44,1.68,1.68,0,0,0-.41,1.21,1.65,1.65,0,0,0,.41,1.2,1.46,1.46,0,0,0,1.13.45,1.42,1.42,0,0,0,1.09-.45,1.66,1.66,0,0,0,.42-1.2,1.73,1.73,0,0,0-.41-1.22A1.43,1.43,0,0,0,225.18,423.85ZM182,375.64a1.46,1.46,0,0,0,1.09-.44,2,2,0,0,0,0-2.42,1.42,1.42,0,0,0-1.1-.44,1.48,1.48,0,0,0-1.14.44,1.74,1.74,0,0,0-.41,1.21,1.7,1.7,0,0,0,.42,1.21A1.48,1.48,0,0,0,182,375.64Zm49.29,15.73a1.43,1.43,0,0,0-1.12.44,1.72,1.72,0,0,0-.41,1.21,1.69,1.69,0,0,0,.41,1.2,1.45,1.45,0,0,0,1.12.44,1.42,1.42,0,0,0,1.1-.44,1.66,1.66,0,0,0,.42-1.2,1.72,1.72,0,0,0-.4-1.21A1.42,1.42,0,0,0,231.28,391.37ZM309.13,404v17.39h3.41V404Zm-81.74-12.66a1.43,1.43,0,0,0-1.12.44,1.72,1.72,0,0,0-.41,1.21,1.69,1.69,0,0,0,.41,1.2,1.63,1.63,0,0,0,2.22,0,1.69,1.69,0,0,0,.41-1.21,1.73,1.73,0,0,0-.4-1.22A1.44,1.44,0,0,0,227.39,391.37Zm-3.72,27.3h-5.5v-4.52a8.36,8.36,0,0,0-2.25-6.3q-2.25-2.18-6.77-2.18a22.05,22.05,0,0,0-3.24.23,16.56,16.56,0,0,0-3.1.78l.77,2.61a14.37,14.37,0,0,1,2.56-.66,19.1,19.1,0,0,1,3-.21,5.39,5.39,0,0,1,4.18,1.56,6.36,6.36,0,0,1,1.43,4.46v4.23h-3.18v-3.25a5.24,5.24,0,0,0-.64-2.55,4.4,4.4,0,0,0-1.81-1.79,5.57,5.57,0,0,0-2.73-.65,5.28,5.28,0,0,0-2.6.68,5.09,5.09,0,0,0-1.93,1.84,4.86,4.86,0,0,0-.71,2.53,5.14,5.14,0,0,0,.32,2,3.21,3.21,0,0,0,.78,1.22h-5.45V404H193.4v17.39h33.68V410.09h-3.41Zm-15.5,0h-.73c-1.85,0-2.77-1-2.77-3.06a2.74,2.74,0,0,1,.48-1.66,1.51,1.51,0,0,1,1.27-.65,1.59,1.59,0,0,1,1.33.54,2.83,2.83,0,0,1,.42,1.72Z"/><path class="b" d="M208.91,358.22a1.86,1.86,0,0,1,.42-1.36,2,2,0,0,1,1.44-.4h2.11a7.09,7.09,0,0,0,2.34-.39,6.24,6.24,0,0,0,2-1.14,5,5,0,0,0,1.68,1.18,5.61,5.61,0,0,0,2,.34h6.28v-17.4h-3.41v14.65H221a4.28,4.28,0,0,1-1.36-.19,2.28,2.28,0,0,1-1-.66,6.38,6.38,0,0,0,.43-2.33,5.62,5.62,0,0,0-.71-2.84,4.79,4.79,0,0,0-2-1.9,6,6,0,0,0-2.84-.67,8.59,8.59,0,0,0-2.25.35,10.14,10.14,0,0,0-2.28,1,8.67,8.67,0,0,0-1.17,4.12,8.08,8.08,0,0,0,.61,3.18,3.11,3.11,0,0,0-2.21,1,3.46,3.46,0,0,0-.78,2.38v6.69h3.4Zm2.48-9.71a4.18,4.18,0,0,1,2.13-.64,2,2,0,0,1,1.57.71,2.9,2.9,0,0,1,.6,1.95,3.06,3.06,0,0,1-.93,2.25,3.17,3.17,0,0,1-2.31.93h-.87a8.07,8.07,0,0,1-.53-2.68A9.13,9.13,0,0,1,211.39,348.51Zm40.1,28.65a1.65,1.65,0,0,0,.42-1.21,1.73,1.73,0,0,0-.41-1.22,1.4,1.4,0,0,0-1.1-.43,1.46,1.46,0,0,0-1.13.44,1.72,1.72,0,0,0-.4,1.21,1.65,1.65,0,0,0,.41,1.2,1.45,1.45,0,0,0,1.12.44A1.42,1.42,0,0,0,251.49,377.16Zm3.9,0a1.66,1.66,0,0,0,.42-1.2,1.76,1.76,0,0,0-.4-1.21,1.43,1.43,0,0,0-1.12-.44,1.46,1.46,0,0,0-1.13.44,1.72,1.72,0,0,0-.4,1.21,1.65,1.65,0,0,0,.41,1.2,1.45,1.45,0,0,0,1.12.44A1.43,1.43,0,0,0,255.39,377.15Zm-5.52,28.11a1.7,1.7,0,0,0-.41,1.22,1.73,1.73,0,0,0,.41,1.2,1.48,1.48,0,0,0,1.12.44,1.46,1.46,0,0,0,1.1-.43,1.7,1.7,0,0,0,.41-1.21,1.73,1.73,0,0,0-.4-1.22,1.63,1.63,0,0,0-2.23,0Zm3.89,0a1.75,1.75,0,0,0-.41,1.22,1.73,1.73,0,0,0,.41,1.2,1.48,1.48,0,0,0,1.12.44,1.45,1.45,0,0,0,1.1-.44,1.69,1.69,0,0,0,.42-1.2,1.74,1.74,0,0,0-.4-1.22,1.65,1.65,0,0,0-2.24,0Zm22.76,0a1.7,1.7,0,0,0-.41,1.22,1.73,1.73,0,0,0,.41,1.2,1.62,1.62,0,0,0,2.22,0,1.69,1.69,0,0,0,.42-1.2,1.74,1.74,0,0,0-.4-1.22,1.65,1.65,0,0,0-2.24,0Zm4-1.21a1.44,1.44,0,0,0,.35-1,1.41,1.41,0,0,0-.35-1,1.27,1.27,0,0,0-1-.37,1.35,1.35,0,0,0-.92.33,1.33,1.33,0,0,0-.37,1,1.36,1.36,0,0,0,.37,1.05,1.28,1.28,0,0,0,.92.35A1.24,1.24,0,0,0,280.54,404.05Zm19.28-44.73a1.75,1.75,0,0,0-.41,1.22,1.69,1.69,0,0,0,.42,1.2,1.48,1.48,0,0,0,1.13.44,1.45,1.45,0,0,0,1.09-.44,1.69,1.69,0,0,0,.42-1.2,1.73,1.73,0,0,0-.41-1.22,1.44,1.44,0,0,0-1.1-.44A1.5,1.5,0,0,0,299.82,359.32Zm-3-2.86h6V345.12h-3.41v8.59h-5.61V351a6.4,6.4,0,0,0-1.43-4.58,5.64,5.64,0,0,0-4.24-1.48q-4.11,0-6.2,4.23V339.06h-3.43v14.65h-2.13v2.75h20.4Zm-6.39-2.75H282v-1.79q2.23-4.28,5.33-4.27a3.14,3.14,0,0,1,2.36.79,3.39,3.39,0,0,1,.77,2.45ZM191,375.64a1.46,1.46,0,0,0,1.09-.44,2,2,0,0,0,0-2.42,1.4,1.4,0,0,0-1.1-.44,1.48,1.48,0,0,0-1.14.44,1.74,1.74,0,0,0-.41,1.21,1.7,1.7,0,0,0,.42,1.21A1.48,1.48,0,0,0,191,375.64Zm84.41,0a1.42,1.42,0,0,0,1.08-.44,2,2,0,0,0,0-2.42,1.42,1.42,0,0,0-1.1-.44,1.48,1.48,0,0,0-1.14.44,1.74,1.74,0,0,0-.41,1.21,1.7,1.7,0,0,0,.42,1.21A1.48,1.48,0,0,0,275.42,375.64Zm-9.53-36.58h-3.41v17.4h3.41Zm-5.3,38.54h-3.42v8.59h-7.43a2,2,0,0,1-1.57-.65,2.45,2.45,0,0,1-.59-1.71,13.29,13.29,0,0,1,.35-3h-3a7.45,7.45,0,0,0-.54,1.67,9.38,9.38,0,0,0-.2,1.83,4.56,4.56,0,0,0,1.23,3.38,4.47,4.47,0,0,0,3.33,1.23h11.86Zm4.24-6.05v17.39h12.32V377.6h-3.41v8.59h-5.5V371.55ZM308.1,362a4.56,4.56,0,0,0,3.48-1.39,5.23,5.23,0,0,0,1.31-3.74V345.12h-3.41v11.54a2.75,2.75,0,0,1-.56,1.76,1.83,1.83,0,0,1-1.48.7,3.63,3.63,0,0,1-1.11-.15,4.91,4.91,0,0,1-1.07-.52l-1.37,2.22a7.37,7.37,0,0,0,2.06,1A8.05,8.05,0,0,0,308.1,362Zm-16.51,32.27A1.64,1.64,0,0,0,292,393a1.73,1.73,0,0,0-.4-1.22,1.65,1.65,0,0,0-2.23,0A1.72,1.72,0,0,0,289,393a1.66,1.66,0,0,0,.42,1.2,1.62,1.62,0,0,0,2.21,0Zm11.59,0a1.66,1.66,0,0,0,.42-1.2,1.73,1.73,0,0,0-.41-1.22,1.43,1.43,0,0,0-1.1-.43,1.45,1.45,0,0,0-1.14.44,1.72,1.72,0,0,0-.41,1.21,1.66,1.66,0,0,0,.42,1.2,1.44,1.44,0,0,0,1.13.44A1.43,1.43,0,0,0,303.18,394.22Zm-7.69,0a1.66,1.66,0,0,0,.42-1.2,1.72,1.72,0,0,0-.41-1.21,1.41,1.41,0,0,0-1.11-.44,1.44,1.44,0,0,0-1.13.44,1.72,1.72,0,0,0-.41,1.21,1.66,1.66,0,0,0,.42,1.2,1.62,1.62,0,0,0,2.22,0Zm5.65,24.45h-5.5v-8.58h-3.48a9.5,9.5,0,0,0-3.82.72,5.76,5.76,0,0,0-2.56,2.1,5.57,5.57,0,0,0-.91,3.18,5.51,5.51,0,0,0,1.32,4,5,5,0,0,0,3.77,1.38h2.27v.11a2.46,2.46,0,0,1-2.71,2.66,7.5,7.5,0,0,1-1.72-.19,7.57,7.57,0,0,1-1.75-.68l-1.33,2.5a7.24,7.24,0,0,0,2.18.86,13.16,13.16,0,0,0,2.69.24,6.42,6.42,0,0,0,4.47-1.44,5.22,5.22,0,0,0,1.58-4.06h8.91V404h-3.41Zm-8.91,0h-1.58a2.11,2.11,0,0,1-1.71-.65,3,3,0,0,1-.56-2,3.22,3.22,0,0,1,.82-2.34,3.09,3.09,0,0,1,2.29-.82h.74Zm-10.69-13.85a1.48,1.48,0,0,0-1.13.44,1.7,1.7,0,0,0-.41,1.22,1.73,1.73,0,0,0,.41,1.2,1.49,1.49,0,0,0,1.13.44,1.45,1.45,0,0,0,1.09-.44,1.69,1.69,0,0,0,.42-1.2,1.73,1.73,0,0,0-.41-1.22A1.44,1.44,0,0,0,281.54,404.82Zm27.94-27.22v8.59h-5.62V377.6h-3.4v8.59h-6.07V377.6H291v8.59h-6.19V371.55h-3.41v17.39h31.51V377.6Zm2.6,16.62a1.69,1.69,0,0,0,.41-1.2,1.73,1.73,0,0,0-.4-1.22,1.66,1.66,0,0,0-2.24,0,1.72,1.72,0,0,0-.41,1.21,1.66,1.66,0,0,0,.42,1.2,1.44,1.44,0,0,0,1.13.44A1.43,1.43,0,0,0,312.08,394.22ZM309.13,404v17.39h3.41V404Zm-81.74-12.66a1.43,1.43,0,0,0-1.12.44,1.72,1.72,0,0,0-.41,1.21,1.69,1.69,0,0,0,.41,1.2,1.63,1.63,0,0,0,2.22,0,1.69,1.69,0,0,0,.41-1.21,1.73,1.73,0,0,0-.4-1.22A1.44,1.44,0,0,0,227.39,391.37Zm-3.72,27.3h-5.5v-4.52a8.36,8.36,0,0,0-2.25-6.3q-2.25-2.18-6.77-2.18a22.05,22.05,0,0,0-3.24.23,16.56,16.56,0,0,0-3.1.78l.77,2.61a14.37,14.37,0,0,1,2.56-.66,19.1,19.1,0,0,1,3-.21,5.39,5.39,0,0,1,4.18,1.56,6.36,6.36,0,0,1,1.43,4.46v4.23h-3.18v-3.25a5.24,5.24,0,0,0-.64-2.55,4.4,4.4,0,0,0-1.81-1.79,5.57,5.57,0,0,0-2.73-.65,5.28,5.28,0,0,0-2.6.68,5.09,5.09,0,0,0-1.93,1.84,4.86,4.86,0,0,0-.71,2.53,5.14,5.14,0,0,0,.32,2,3.21,3.21,0,0,0,.78,1.22h-5.45V404H193.4v17.39h33.68V410.09h-3.41Zm-15.5,0h-.73c-1.85,0-2.77-1-2.77-3.06a2.74,2.74,0,0,1,.48-1.66,1.51,1.51,0,0,1,1.27-.65,1.59,1.59,0,0,1,1.33.54,2.83,2.83,0,0,1,.42,1.72Zm69.7,0h-6.63v-8.58h-3.48a9.47,9.47,0,0,0-3.82.72,5.76,5.76,0,0,0-2.56,2.1,5.57,5.57,0,0,0-.91,3.18,5.51,5.51,0,0,0,1.32,4,5,5,0,0,0,3.77,1.38h2.26v.11a2.63,2.63,0,0,1-.7,2,2.67,2.67,0,0,1-2,.71,7.43,7.43,0,0,1-1.72-.19,7.81,7.81,0,0,1-1.76-.68l-1.33,2.5a7.29,7.29,0,0,0,2.19.86,13.16,13.16,0,0,0,2.69.24,6.38,6.38,0,0,0,4.46-1.44,5.19,5.19,0,0,0,1.59-4.06h10V410.09h-3.41Zm-10.05,0h-1.57a2.11,2.11,0,0,1-1.71-.65,3,3,0,0,1-.56-2,3.18,3.18,0,0,1,.82-2.34,3.09,3.09,0,0,1,2.29-.82h.73Zm-85.83-43a1.46,1.46,0,0,0,1.09-.44,2,2,0,0,0,0-2.42,1.42,1.42,0,0,0-1.1-.44,1.48,1.48,0,0,0-1.14.44,1.74,1.74,0,0,0-.41,1.21,1.7,1.7,0,0,0,.42,1.21A1.48,1.48,0,0,0,182,375.64Zm43.19,48.21a1.48,1.48,0,0,0-1.13.44,1.68,1.68,0,0,0-.41,1.21,1.65,1.65,0,0,0,.41,1.2,1.46,1.46,0,0,0,1.13.45,1.42,1.42,0,0,0,1.09-.45,1.66,1.66,0,0,0,.42-1.2,1.73,1.73,0,0,0-.41-1.22A1.43,1.43,0,0,0,225.18,423.85Zm6.1-32.48a1.43,1.43,0,0,0-1.12.44,1.72,1.72,0,0,0-.41,1.21,1.69,1.69,0,0,0,.41,1.2,1.45,1.45,0,0,0,1.12.44,1.42,1.42,0,0,0,1.1-.44,1.66,1.66,0,0,0,.42-1.2,1.72,1.72,0,0,0-.4-1.21A1.42,1.42,0,0,0,231.28,391.37Zm17.91,19.41a5.06,5.06,0,0,0-2.29,2,5.71,5.71,0,0,0-.77,3,6.17,6.17,0,0,0,.7,3,4.84,4.84,0,0,0,2,2,6,6,0,0,0,2.91.69h1.75v.11a2.19,2.19,0,0,1-1,2,6.25,6.25,0,0,1-3.21.63h-3.87a3.33,3.33,0,0,1-3.69-3.64,16.33,16.33,0,0,1,.21-2.51,20.27,20.27,0,0,1,.57-2.58h-3a10.45,10.45,0,0,0-.87,2.42,12.19,12.19,0,0,0-.31,2.65,6.94,6.94,0,0,0,.78,3.28,5.82,5.82,0,0,0,5.29,3.13h6c2.24,0,3.87-.5,4.91-1.5a6.1,6.1,0,0,0,1.56-4.59V410.09h-4A8.74,8.74,0,0,0,249.19,410.78Zm4.28,2.06v5.83h-.63a3.57,3.57,0,0,1-2.36-.7,2.53,2.53,0,0,1-.85-2.09q0-3,3.25-3Zm-23.92-26.65h-3.89a4.26,4.26,0,0,1-1.34-.18,2.43,2.43,0,0,1-.94-.64,6.55,6.55,0,0,0,.42-2.36,5.59,5.59,0,0,0-.7-2.84,4.75,4.75,0,0,0-2-1.89,6.06,6.06,0,0,0-2.85-.68,8.68,8.68,0,0,0-2.18.34,9.77,9.77,0,0,0-2.36,1,8.25,8.25,0,0,0-.82,2,7.49,7.49,0,0,0-.34,2.15,7.64,7.64,0,0,0,.62,3.15h-5.34v-4.11c0-3.45-2.17-5.18-6.53-5.18h-.87a8.89,8.89,0,0,1,2.53-2.39,13.7,13.7,0,0,1,3.72-1.78l-1.25-3.06a15.53,15.53,0,0,0-5.13,3,13.78,13.78,0,0,0-3.41,4.51v2.48h3.89a4.31,4.31,0,0,1,2.69.74,2.51,2.51,0,0,1,.95,2.12v3.68h-11.7V377.6h-3.41v8.59h-5.61V377.6h-3.41v8.59h-5.5V371.55H171.4v17.39h46.16a7.06,7.06,0,0,0,2.32-.39,5.76,5.76,0,0,0,2-1.14,4.69,4.69,0,0,0,1.68,1.19,5.9,5.9,0,0,0,2,.33H233V377.6h-3.41Zm-10.11-.93a3.16,3.16,0,0,1-2.32.93h-.86a8.33,8.33,0,0,1-.53-2.67,9.6,9.6,0,0,1,.34-2.53,4.34,4.34,0,0,1,2.13-.64,1.94,1.94,0,0,1,1.58.73,3,3,0,0,1,.59,1.93A3.06,3.06,0,0,1,219.44,385.26Zm25.27-30.09a7.71,7.71,0,0,0,2,.92,7.23,7.23,0,0,0,2.23.37h9v-17.4h-3.41v14.65h-5.27a4.32,4.32,0,0,1-2.06-.46,7.59,7.59,0,0,0,2.72-3.17,10.22,10.22,0,0,0,1-4.54,11.59,11.59,0,0,0-5.75-1.38,9.76,9.76,0,0,0-3.34.64,10.48,10.48,0,0,0-3.08,1.76,11.06,11.06,0,0,0,.76,2.59,14.18,14.18,0,0,0,1.32,2.47,6.82,6.82,0,0,0,1.44,1.65,4,4,0,0,1-1,.31,5.46,5.46,0,0,1-1.14.13h-4.93V339.06h-3.41v17.4h8.7A8.06,8.06,0,0,0,244.71,355.17Zm-2.58-7.39a4.31,4.31,0,0,1,1.34-.61,5.49,5.49,0,0,1,1.59-.26,7,7,0,0,1,2.58.41,5.48,5.48,0,0,1-2.89,4.53,5.57,5.57,0,0,1-1.59-1.7A8.32,8.32,0,0,1,242.13,347.78Z"/><path class="b" d="M287.75,204.31a2.66,2.66,0,0,0,.66-1.9,2.69,2.69,0,0,0-.64-1.91,2.24,2.24,0,0,0-1.76-.7,2.28,2.28,0,0,0-1.77.7,2.7,2.7,0,0,0-.65,1.91,2.66,2.66,0,0,0,.66,1.9,2.54,2.54,0,0,0,3.5,0ZM295.59,233h-8.31a6.8,6.8,0,0,1-3.26-.72,12,12,0,0,0,4.3-5,16.11,16.11,0,0,0,1.59-7.17,18.31,18.31,0,0,0-9.07-2.18,15.14,15.14,0,0,0-5.28,1,16.38,16.38,0,0,0-4.86,2.78,18,18,0,0,0,1.2,4.07,22.6,22.6,0,0,0,2.08,3.9,11,11,0,0,0,2.28,2.61,6.33,6.33,0,0,1-1.6.49,9.24,9.24,0,0,1-1.79.2h-7.78V209.93h-5.38v27.45h13.73a12.74,12.74,0,0,0,6.71-2,12.3,12.3,0,0,0,3.16,1.45,11.63,11.63,0,0,0,3.53.58H301V209.93h-5.38Zm-15.36-2.93a8.82,8.82,0,0,1-2.52-2.68,13.53,13.53,0,0,1-1.63-3.74,7,7,0,0,1,2.12-1,8.69,8.69,0,0,1,2.5-.41,10.67,10.67,0,0,1,4.08.66A8.66,8.66,0,0,1,280.23,230.11Zm1.37-25.78a2.64,2.64,0,0,0,.65-1.92,2.74,2.74,0,0,0-.63-1.92,2.58,2.58,0,0,0-3.52,0,2.69,2.69,0,0,0-.64,1.91,2.66,2.66,0,0,0,.65,1.9,2.55,2.55,0,0,0,3.49,0Zm32-8.35V168.53H308.2V196Zm-5.38,41.4h5.38V209.93H308.2Zm-43.81-38.15a4.25,4.25,0,0,1-3.16,1.12,11.57,11.57,0,0,1-2.72-.31,11.79,11.79,0,0,1-2.77-1.07l-2.1,3.94a11.52,11.52,0,0,0,3.45,1.37,21,21,0,0,0,4.24.37c3,0,5.39-.75,7.05-2.27a8.21,8.21,0,0,0,2.5-6.4H301V168.53h-5.38v23.11H286V178.09h-5.38v13.55h-9.75V178.09h-5.49a14.78,14.78,0,0,0-6,1.15,9,9,0,0,0-4,3.3,8.92,8.92,0,0,0-1.43,5,8.73,8.73,0,0,0,2.08,6.23,7.82,7.82,0,0,0,6,2.19h3.58v.17A4.18,4.18,0,0,1,264.39,199.23ZM263,191.64a3.36,3.36,0,0,1-2.7-1,4.79,4.79,0,0,1-.88-3.19,5,5,0,0,1,1.3-3.68,4.8,4.8,0,0,1,3.6-1.31h1.17v9.21Zm-29.81,7.12a2.94,2.94,0,0,1,.65-2.14,3.22,3.22,0,0,1,2.28-.64h3.33a10.73,10.73,0,0,0,5-1.19A8.68,8.68,0,0,0,248,191.5a9.2,9.2,0,0,0,1.28-4.87,8.8,8.8,0,0,0-1.12-4.49,7.65,7.65,0,0,0-3.15-3,9.48,9.48,0,0,0-4.47-1,13.31,13.31,0,0,0-3.55.56,15.31,15.31,0,0,0-3.6,1.5,12.64,12.64,0,0,0-1.3,3.07,12,12,0,0,0-.55,3.44,12.68,12.68,0,0,0,1,5,4.9,4.9,0,0,0-3.49,1.55,5.43,5.43,0,0,0-1.24,3.76v10.55h5.38Zm3.9-15.32a6.66,6.66,0,0,1,3.37-1,3.1,3.1,0,0,1,2.48,1.11,4.62,4.62,0,0,1,.94,3.09,4.81,4.81,0,0,1-1.47,3.54,5,5,0,0,1-3.64,1.47H237.4a13.17,13.17,0,0,1-.83-4.22A14.82,14.82,0,0,1,237.1,183.44Zm-33.55,90.19c-1.48.18-2.61.33-3.38.46A3.43,3.43,0,0,1,198.1,271a3.13,3.13,0,0,1,1-2.59,4.13,4.13,0,0,1,2.67-.82,7.06,7.06,0,0,1,3.44.76l1.07-4a7.48,7.48,0,0,0-2.16-.76,13.46,13.46,0,0,0-2.93-.3,9.24,9.24,0,0,0-6.09,1.88,6.19,6.19,0,0,0-2.26,5,5.91,5.91,0,0,0,.69,2.84,5,5,0,0,0,1.85,2,32,32,0,0,0-3.44.72v3.76c1.83-.36,4.37-.73,7.62-1.13a66.2,66.2,0,0,1,7.41-.6v-4.38C206.18,273.34,205,273.45,203.55,273.63Zm110-22.3H308.2v23.11h-8.85V251.33H294v23.11h-3.72l-4.3-18.24h-5.63L285,274.44h-6.54v4.34h35.15Zm-44.29,10.83a8.76,8.76,0,0,0-5.63-1.62,15.81,15.81,0,0,0-7.55,1.73l1.63,4a11.68,11.68,0,0,1,2.41-1,8.72,8.72,0,0,1,2.38-.32,3.89,3.89,0,0,1,2.89,1,6.85,6.85,0,0,1,1.45,3.41q.76,3.87,2.17,5.13v0H250.15V270.1c0-3.26-.75-5.66-2.25-7.22s-3.74-2.34-6.69-2.34q-6.5,0-9.79,6.69V260.9H226v13.54h-8.41V251.33h-5.38v27.45h62.23v-4.34q-1.59-1.54-2.52-6.93A8.48,8.48,0,0,0,269.29,262.16Zm-24.52,12.28H231.42v-2.82q3.54-6.74,8.41-6.74a5,5,0,0,1,3.74,1.24,5.42,5.42,0,0,1,1.2,3.88Zm42.76,12.47a1.73,1.73,0,0,1-1.08-1.62,1.63,1.63,0,0,1,1.73-1.75,4.52,4.52,0,0,1,2,.48l.72-1.84a6.12,6.12,0,0,0-3-.65,4.45,4.45,0,0,0-2.91.88,2.94,2.94,0,0,0-1.08,2.4,2.36,2.36,0,0,0,.46,1.47,3.13,3.13,0,0,0,1.18,1l-2.06.34v1.83c.26-.07,1.38-.22,3.36-.46s3.4-.38,4.26-.44v-2.1c-.78.06-1.75.19-2.93.37ZM197,254.3a2.66,2.66,0,0,0,.65-1.91,2.73,2.73,0,0,0-.64-1.93,2.27,2.27,0,0,0-1.74-.68,2.33,2.33,0,0,0-1.78.69,2.78,2.78,0,0,0-.64,1.92,2.66,2.66,0,0,0,.65,1.89,2.56,2.56,0,0,0,3.5,0Zm6.14,0a2.63,2.63,0,0,0,.67-1.89,2.78,2.78,0,0,0-.64-1.92,2.27,2.27,0,0,0-1.76-.69,2.31,2.31,0,0,0-1.78.69,2.73,2.73,0,0,0-.64,1.92,2.66,2.66,0,0,0,.65,1.89,2.31,2.31,0,0,0,1.77.7A2.26,2.26,0,0,0,203.17,254.28Zm6-18.84a16.48,16.48,0,0,0-3.41-1.49,5.8,5.8,0,0,1-2-1,1.67,1.67,0,0,1-.62-1.29,2.44,2.44,0,0,1,.6-1.36,6.15,6.15,0,0,1,1.48-1.39,2.81,2.81,0,0,1,1.46-.6,3,3,0,0,1,1.84.8,19,19,0,0,1,2.68,3.19q1.44,2,1.83,2.43a8.22,8.22,0,0,0,2.83,2.1,8.77,8.77,0,0,0,3.12.53s0,0,0,0h11a11.17,11.17,0,0,0,3.67-.61A9.44,9.44,0,0,0,236.8,235a7.25,7.25,0,0,0,2.65,1.88,9.22,9.22,0,0,0,3.12.52l0,0h9.89V209.93H247.1V233h-4.34a6.67,6.67,0,0,1-2.11-.29,3.81,3.81,0,0,1-1.49-1,10.19,10.19,0,0,0,.67-3.72,8.85,8.85,0,0,0-1.11-4.49,7.59,7.59,0,0,0-3.13-3,9.56,9.56,0,0,0-4.49-1.06,13.62,13.62,0,0,0-3.44.53,15.37,15.37,0,0,0-3.72,1.54,13.25,13.25,0,0,0-1.3,3.12,11.89,11.89,0,0,0-.53,3.39,12.24,12.24,0,0,0,1,5h-3.9a3.78,3.78,0,0,1-2.2-.7,13.07,13.07,0,0,1-2.67-3.08,32.89,32.89,0,0,0-3-3.9,6.72,6.72,0,0,0-1.92-1.36,5.11,5.11,0,0,0-2.15-.45,7.61,7.61,0,0,0-4.16,1.42,12.15,12.15,0,0,0-3.54,3.49,7.25,7.25,0,0,0-1.37,4,5,5,0,0,0,1.19,3.48,8.66,8.66,0,0,0,4.21,2.06,6.16,6.16,0,0,1,1.9.78,1.28,1.28,0,0,1,.59,1,1.54,1.54,0,0,1-1.07,1.49,12.11,12.11,0,0,1-4,.44h-6.25a3.88,3.88,0,0,1-2.08-.63,4.56,4.56,0,0,1-1.61-1.73,4.69,4.69,0,0,1-.61-2.33,31.14,31.14,0,0,1,.15-3.36,15.45,15.45,0,0,1,.61-2.84h-4.8a21.71,21.71,0,0,0-1.16,7,9.5,9.5,0,0,0,.92,4.25,7.09,7.09,0,0,0,2.6,2.94,6.91,6.91,0,0,0,3.74,1H201c3.47,0,6.07-.55,7.79-1.67a5.45,5.45,0,0,0,2.58-4.87,4.81,4.81,0,0,0-.55-2.36A4.75,4.75,0,0,0,209.17,235.44Zm18.46-10.6a6.76,6.76,0,0,1,3.37-1,3.08,3.08,0,0,1,2.49,1.14,4.7,4.7,0,0,1,.93,3.06,4.79,4.79,0,0,1-1.47,3.54,5,5,0,0,1-3.66,1.47h-1.36a13.12,13.12,0,0,1-.83-4.22A14.93,14.93,0,0,1,227.63,224.84Z"/></svg>