<svg xmlns="http://www.w3.org/2000/svg" viewBox="0 0 792 612"><defs><style>.a{fill:#009edb;}.b{fill:#fff;}.c{fill:#c7e2f6;}.d{fill:#90cef1;}.e{fill:#72c6ef;}.f{fill:#acd6f2;}</style></defs><rect class="a" width="792" height="612"/><path class="b" d="M324.88,229.44l-8.13,29.42a77.19,77.19,0,1,1-79.2,80.64l-29.83-8.23c-.07,1.57-.11,3.15-.11,4.75A107.06,107.06,0,1,0,324.88,229.44Z"/><polygon class="c" points="340.93 283.45 312.21 275.51 303.85 306.15 293.72 343.31 322.44 351.26 332.53 314.24 340.93 283.45"/><polygon class="d" points="340.93 283.45 312.21 275.51 303.85 306.29 332.53 314.24 340.93 283.45"/><polygon class="c" points="270.58 264.02 251.77 331.74 280.49 339.69 299.29 272 310.51 231.61 281.79 223.67 270.58 264.02"/><polygon class="d" points="283.5 217.43 270.58 264.02 299.29 272 312.22 225.37 283.5 217.43"/><polygon class="c" points="254.84 157.18 232.32 238.99 219.96 283.89 181.38 232.49 171.4 268.83 209.91 320.39 209.91 320.39 238.63 328.34 261.04 246.92 283.56 165.12 254.84 157.18"/><polygon class="d" points="254.84 157.18 232.32 238.99 261.04 246.92 283.56 165.12 254.84 157.18"/><path class="b" d="M471,194.67a6.49,6.49,0,0,1-2.24,5.1,8.08,8.08,0,0,1-5.55,2H453V177.61h9.44a7.91,7.91,0,0,1,5.41,1.93,6.24,6.24,0,0,1,2.21,5,5.89,5.89,0,0,1-2.11,4.72A6.11,6.11,0,0,1,471,194.67Zm-12.41-11.89v4.27h3.93a2.14,2.14,0,0,0,0-4.27Zm4.62,13.78a2.31,2.31,0,0,0,0-4.61h-4.62v4.61Z"/><path class="b" d="M476.8,198.63a12.25,12.25,0,0,1-3.55-9,12.47,12.47,0,0,1,22.87-7l-4.75,2.76a6.16,6.16,0,0,0-5.58-3,6.83,6.83,0,0,0-5.13,2,8.07,8.07,0,0,0,0,10.4,6.83,6.83,0,0,0,5.13,2,6.22,6.22,0,0,0,5.58-3l4.75,2.76a11.89,11.89,0,0,1-10.33,5.58A12.17,12.17,0,0,1,476.8,198.63Z"/><path class="b" d="M504.75,196.42h9.65v5.31H499.24V177.61h15v5.31h-9.48v4h8.61v5.24h-8.61Z"/><path class="b" d="M542.51,177.61v24.12H537v-14l-6.24,10.23h-.62l-6.24-10.23v14h-5.51V177.61h5.51l6.55,10.72L537,177.61Z"/><path class="b" d="M560.69,201.73V188.64l-9.31,13.09h-4.13V177.61h5.51V190.7l9.3-13.09h4.14v24.12Z"/><path class="b" d="M580.05,177.61a8.17,8.17,0,0,1,6,2.41,8.26,8.26,0,0,1,0,11.72,8.13,8.13,0,0,1-6,2.41h-3.62v7.58h-5.51V177.61Zm0,11.37a3.1,3.1,0,0,0,0-6.2h-3.62V189Z"/><path class="b" d="M604.62,177.61h5.51v24.12h-5.51v-9.58H597v9.58h-5.52V177.61H597v9.24h7.58Z"/><path class="b" d="M614.85,201.73V177.61h5.52v7.58H624a8.17,8.17,0,0,1,6,2.41,8.26,8.26,0,0,1,0,11.72,8.13,8.13,0,0,1-6,2.41Zm5.52-5.17H624a3.1,3.1,0,0,0,0-6.2h-3.61Zm14.12,5.17V177.61H640v24.12Z"/><path class="b" d="M658.18,201.73V188.64l-9.3,13.09h-4.14V177.61h5.52V190.7l9.3-13.09h4.13v24.12Zm-9.13-26.15V171.1h10.34v4.48Z"/><path class="b" d="M472,235.16h2.58v9.92h-5.51v-4.61H457v4.61h-5.51v-9.92h2.45c1.27-1.82,1.89-4.48,1.89-8V216.35H472Zm-5.51,0V221.52h-5.14v5.72c0,3.41-.51,6.06-1.55,7.92Z"/><path class="b" d="M483.58,235.16h9.64v5.31H478.06V216.35h15v5.31h-9.47v4h8.61v5.24h-8.61Z"/><path class="b" d="M510.31,216.35h5.51v24.12h-5.51v-9.58h-7.58v9.58h-5.51V216.35h5.51v9.23h7.58Z"/><path class="b" d="M529.68,223.93a8.13,8.13,0,0,1,6,2.41,8.23,8.23,0,0,1,0,11.72,8.17,8.17,0,0,1-6,2.41h-9.14V216.35h5.52v7.58Zm0,11.37a3.11,3.11,0,0,0,0-6.2h-3.62v6.2Z"/><path class="b" d="M455.55,276.1a13,13,0,0,1,0-17.88,12.61,12.61,0,0,1,19.32,2l-4.75,2.75a6.18,6.18,0,0,0-5.58-3,6.87,6.87,0,0,0-5.14,2,8.11,8.11,0,0,0,0,10.41,6.87,6.87,0,0,0,5.14,2,6.24,6.24,0,0,0,5.58-3l4.75,2.76a11.91,11.91,0,0,1-10.33,5.58A12.18,12.18,0,0,1,455.55,276.1Z"/><path class="b" d="M494.38,255.09v5.3h-6.2V279.2h-5.51V260.39h-6.2v-5.3Z"/><path class="b" d="M510.72,279.2l-1.21-3.79h-9l-1.2,3.79h-6l8.2-24.11h7l8.2,24.11Zm-8.51-8.95h5.65L505,261.39Z"/><path class="b" d="M533.61,255.09v5.3h-6.2V279.2H521.9V260.39h-6.2v-5.3Z"/><path class="b" d="M549.89,279.2V266.11l-9.3,13.09h-4.13V255.09H542v13.09l9.3-13.09h4.14V279.2Z"/><path class="b" d="M562.47,276.1a13,13,0,0,1,0-17.88,12.61,12.61,0,0,1,19.32,2L577,262.94a6.18,6.18,0,0,0-5.58-3,6.87,6.87,0,0,0-5.14,2,8.11,8.11,0,0,0,0,10.41,6.87,6.87,0,0,0,5.14,2,6.24,6.24,0,0,0,5.58-3l4.75,2.76a11.91,11.91,0,0,1-10.33,5.58A12.18,12.18,0,0,1,562.47,276.1Z"/><path class="b" d="M601.3,255.09v5.3h-6.2V279.2h-5.51V260.39h-6.2v-5.3Z"/><path class="b" d="M617.59,279.2V266.11l-9.3,13.09h-4.14V255.09h5.51v13.09L619,255.09h4.13V279.2Z"/><path class="b" d="M648,279.2h-6.27L634,268V279.2h-5.52V255.09H634v10.47l7.37-10.47h6.27l-8.13,11.74Z"/><path class="b" d="M664.84,279.2V266.11l-9.31,13.09H651.4V255.09h5.51v13.09l9.31-13.09h4.13V279.2Z"/><path class="b" d="M471,194.67a6.49,6.49,0,0,1-2.24,5.1,8.08,8.08,0,0,1-5.55,2H453V177.61h9.44a7.91,7.91,0,0,1,5.41,1.93,6.24,6.24,0,0,1,2.21,5,5.89,5.89,0,0,1-2.11,4.72A6.11,6.11,0,0,1,471,194.67Zm-12.41-11.89v4.27h3.93a2.14,2.14,0,0,0,0-4.27Zm4.62,13.78a2.31,2.31,0,0,0,0-4.61h-4.62v4.61Z"/><path class="b" d="M476.8,198.63a12.25,12.25,0,0,1-3.55-9,12.47,12.47,0,0,1,22.87-7l-4.75,2.76a6.16,6.16,0,0,0-5.58-3,6.83,6.83,0,0,0-5.13,2,8.07,8.07,0,0,0,0,10.4,6.83,6.83,0,0,0,5.13,2,6.22,6.22,0,0,0,5.58-3l4.75,2.76a11.89,11.89,0,0,1-10.33,5.58A12.17,12.17,0,0,1,476.8,198.63Z"/><path class="b" d="M504.75,196.42h9.65v5.31H499.24V177.61h15v5.31h-9.48v4h8.61v5.24h-8.61Z"/><path class="b" d="M542.51,177.61v24.12H537v-14l-6.24,10.23h-.62l-6.24-10.23v14h-5.51V177.61h5.51l6.55,10.72L537,177.61Z"/><path class="b" d="M560.69,201.73V188.64l-9.31,13.09h-4.13V177.61h5.51V190.7l9.3-13.09h4.14v24.12Z"/><path class="b" d="M580.05,177.61a8.17,8.17,0,0,1,6,2.41,8.26,8.26,0,0,1,0,11.72,8.13,8.13,0,0,1-6,2.41h-3.62v7.58h-5.51V177.61Zm0,11.37a3.1,3.1,0,0,0,0-6.2h-3.62V189Z"/><path class="b" d="M604.62,177.61h5.51v24.12h-5.51v-9.58H597v9.58h-5.52V177.61H597v9.24h7.58Z"/><path class="b" d="M614.85,201.73V177.61h5.52v7.58H624a8.17,8.17,0,0,1,6,2.41,8.26,8.26,0,0,1,0,11.72,8.13,8.13,0,0,1-6,2.41Zm5.52-5.17H624a3.1,3.1,0,0,0,0-6.2h-3.61Zm14.12,5.17V177.61H640v24.12Z"/><path class="b" d="M658.18,201.73V188.64l-9.3,13.09h-4.14V177.61h5.52V190.7l9.3-13.09h4.13v24.12Zm-9.13-26.15V171.1h10.34v4.48Z"/><path class="b" d="M472,235.16h2.58v9.92h-5.51v-4.61H457v4.61h-5.51v-9.92h2.45c1.27-1.82,1.89-4.48,1.89-8V216.35H472Zm-5.51,0V221.52h-5.14v5.72c0,3.41-.51,6.06-1.55,7.92Z"/><path class="b" d="M483.58,235.16h9.64v5.31H478.06V216.35h15v5.31h-9.47v4h8.61v5.24h-8.61Z"/><path class="b" d="M510.31,216.35h5.51v24.12h-5.51v-9.58h-7.58v9.58h-5.51V216.35h5.51v9.23h7.58Z"/><path class="b" d="M529.68,223.93a8.13,8.13,0,0,1,6,2.41,8.23,8.23,0,0,1,0,11.72,8.17,8.17,0,0,1-6,2.41h-9.14V216.35h5.52v7.58Zm0,11.37a3.11,3.11,0,0,0,0-6.2h-3.62v6.2Z"/><path class="b" d="M455.55,276.1a13,13,0,0,1,0-17.88,12.61,12.61,0,0,1,19.32,2l-4.75,2.75a6.18,6.18,0,0,0-5.58-3,6.87,6.87,0,0,0-5.14,2,8.11,8.11,0,0,0,0,10.41,6.87,6.87,0,0,0,5.14,2,6.24,6.24,0,0,0,5.58-3l4.75,2.76a11.91,11.91,0,0,1-10.33,5.58A12.18,12.18,0,0,1,455.55,276.1Z"/><path class="b" d="M494.38,255.09v5.3h-6.2V279.2h-5.51V260.39h-6.2v-5.3Z"/><path class="b" d="M510.72,279.2l-1.21-3.79h-9l-1.2,3.79h-6l8.2-24.11h7l8.2,24.11Zm-8.51-8.95h5.65L505,261.39Z"/><path class="b" d="M533.61,255.09v5.3h-6.2V279.2H521.9V260.39h-6.2v-5.3Z"/><path class="b" d="M549.89,279.2V266.11l-9.3,13.09h-4.13V255.09H542v13.09l9.3-13.09h4.14V279.2Z"/><path class="b" d="M562.47,276.1a13,13,0,0,1,0-17.88,12.61,12.61,0,0,1,19.32,2L577,262.94a6.18,6.18,0,0,0-5.58-3,6.87,6.87,0,0,0-5.14,2,8.11,8.11,0,0,0,0,10.41,6.87,6.87,0,0,0,5.14,2,6.24,6.24,0,0,0,5.58-3l4.75,2.76a11.91,11.91,0,0,1-10.33,5.58A12.18,12.18,0,0,1,562.47,276.1Z"/><path class="b" d="M601.3,255.09v5.3h-6.2V279.2h-5.51V260.39h-6.2v-5.3Z"/><path class="b" d="M617.59,279.2V266.11l-9.3,13.09h-4.14V255.09h5.51v13.09L619,255.09h4.13V279.2Z"/><path class="b" d="M648,279.2h-6.27L634,268V279.2h-5.52V255.09H634v10.47l7.37-10.47h6.27l-8.13,11.74Z"/><path class="b" d="M664.84,279.2V266.11l-9.31,13.09H651.4V255.09h5.51v13.09l9.31-13.09h4.13V279.2Z"/><path class="e" d="M482.47,311a2,2,0,0,1,.52,1.39,2,2,0,0,1-.53,1.39,1.85,1.85,0,0,1-1.45.59,1.87,1.87,0,0,1-1.46-.59,2.09,2.09,0,0,1,0-2.78,1.89,1.89,0,0,1,1.46-.57A1.86,1.86,0,0,1,482.47,311Z"/><path class="e" d="M512.1,311a2,2,0,0,1,.52,1.39,2,2,0,0,1-.53,1.39,1.87,1.87,0,0,1-1.46.59,1.85,1.85,0,0,1-1.45-.59,2.09,2.09,0,0,1,0-2.78,2.15,2.15,0,0,1,2.92,0Z"/><path class="f" d="M458.32,302.63a2.6,2.6,0,0,0,.2-.85,1.6,1.6,0,0,0-.57-1.27,2.17,2.17,0,0,0-1.46-.49,5.6,5.6,0,0,0-2.15.48,6.18,6.18,0,0,0-1.66.92l-.86-3.38a8.87,8.87,0,0,1,2.47-1.19,8.16,8.16,0,0,1,2.72-.4,6.64,6.64,0,0,1,2.9.73,4.71,4.71,0,0,1,1.83,1.73,4.57,4.57,0,0,1,.62,2.38,6.81,6.81,0,0,1-1.44,4l-3.45,5.33h5.19v3.55H451.11l6.53-10.38A6,6,0,0,0,458.32,302.63Z"/><path class="f" d="M466.45,311.94a15.13,15.13,0,0,1,0-13,5.4,5.4,0,0,1,9.08,0,15.27,15.27,0,0,1,0,13,5.39,5.39,0,0,1-9.08,0Zm6.54-2.36a14,14,0,0,0,0-8.29,2.06,2.06,0,0,0-4,0,14.39,14.39,0,0,0,0,8.29,2.07,2.07,0,0,0,4,0Z"/><path class="f" d="M485,296.72h6.33v17.47h-3.47v-14H485Z"/><path class="f" d="M496.08,311.94a15.13,15.13,0,0,1,0-13,5.39,5.39,0,0,1,9.07,0,15.17,15.17,0,0,1,0,13,5.38,5.38,0,0,1-9.07,0Zm6.54-2.36a14,14,0,0,0,0-8.29,2.11,2.11,0,0,0-2-1.56,2.08,2.08,0,0,0-2,1.56,14.39,14.39,0,0,0,0,8.29,2.09,2.09,0,0,0,2,1.55A2.11,2.11,0,0,0,502.62,309.58Z"/><path class="f" d="M521.26,302.63a2.41,2.41,0,0,0,.21-.85,1.6,1.6,0,0,0-.57-1.27,2.17,2.17,0,0,0-1.46-.49,5.57,5.57,0,0,0-2.15.48,6.44,6.44,0,0,0-1.67.92l-.85-3.38a8.87,8.87,0,0,1,2.47-1.19,8.14,8.14,0,0,1,2.71-.4,6.56,6.56,0,0,1,2.9.73,4.5,4.5,0,0,1,2.46,4.11,6.81,6.81,0,0,1-1.44,4l-3.45,5.33h5.19v3.55H514.06l6.53-10.38A5.91,5.91,0,0,0,521.26,302.63Z"/><path class="f" d="M529.4,311.94a15.13,15.13,0,0,1,0-13,5.4,5.4,0,0,1,9.08,0,15.27,15.27,0,0,1,0,13,5.39,5.39,0,0,1-9.08,0Zm6.54-2.36a14,14,0,0,0,0-8.29,2.11,2.11,0,0,0-2-1.56,2.08,2.08,0,0,0-2,1.56,14.39,14.39,0,0,0,0,8.29,2.09,2.09,0,0,0,2,1.55A2.11,2.11,0,0,0,535.94,309.58Z"/><path class="f" d="M548.62,302.63a2.6,2.6,0,0,0,.2-.85,1.6,1.6,0,0,0-.57-1.27,2.15,2.15,0,0,0-1.46-.49,5.6,5.6,0,0,0-2.15.48,6.18,6.18,0,0,0-1.66.92l-.86-3.38a9,9,0,0,1,2.47-1.19,8.16,8.16,0,0,1,2.72-.4,6.64,6.64,0,0,1,2.9.73,4.71,4.71,0,0,1,1.83,1.73,4.57,4.57,0,0,1,.62,2.38,6.81,6.81,0,0,1-1.44,4l-3.45,5.33H553v3.55H541.41l6.53-10.38A6,6,0,0,0,548.62,302.63Z"/><path class="f" d="M556.75,311.94a15.13,15.13,0,0,1,0-13,5.4,5.4,0,0,1,9.08,0,15.27,15.27,0,0,1,0,13,5.39,5.39,0,0,1-9.08,0Zm6.54-2.36a14,14,0,0,0,0-8.29,2.06,2.06,0,0,0-4,0,14.39,14.39,0,0,0,0,8.29,2.07,2.07,0,0,0,4,0Z"/><path class="b" d="M459.55,348.73a7.68,7.68,0,0,1-5.62-2.29,8.05,8.05,0,0,1,0-11.29,8.07,8.07,0,0,1,11.24,0,8.05,8.05,0,0,1,0,11.29A7.7,7.7,0,0,1,459.55,348.73Zm0-3.4a4.27,4.27,0,0,0,3.16-1.26,4.82,4.82,0,0,0,0-6.54,4.62,4.62,0,0,0-6.34,0,4.84,4.84,0,0,0,0,6.54A4.3,4.3,0,0,0,459.55,345.33Z"/><path class="b" d="M476.46,338.84a5.3,5.3,0,0,1,3.79,1.33,4.44,4.44,0,0,1,1.44,3.46,4.55,4.55,0,0,1-1.44,3.49,5.42,5.42,0,0,1-3.79,1.3h-5.88V333.17h9.8v3.36h-6.32v2.31Zm0,6.32q1.74,0,1.74-1.53c0-1-.58-1.52-1.74-1.52h-2.4v3.05Z"/><path class="b" d="M486.63,348.42V336.53h-3.48v-3.36h7V338h2.29a5.17,5.17,0,0,1,3.79,1.53,5.2,5.2,0,0,1,0,7.41,5.17,5.17,0,0,1-3.79,1.52Zm3.49-3.26h2.29a2,2,0,0,0,0-3.93h-2.29Z"/><path class="b" d="M504.06,345.07h6.1v3.35h-9.59V333.17h9.48v3.36h-6v2.52h5.45v3.32h-5.45Z"/><path class="b" d="M525.56,345.07h1.64v6.27h-3.49v-2.92h-7.62v2.92H512.6v-6.27h1.55a8.86,8.86,0,0,0,1.2-5.06v-6.84h10.21Zm-3.48,0v-8.63h-3.25v3.62a10.54,10.54,0,0,1-1,5Z"/><path class="b" d="M538.82,348.42v-8.28l-5.89,8.28h-2.61V333.17h3.48v8.28l5.89-8.28h2.61v15.25Z"/><path class="b" d="M554.48,333.17H558v15.25h-3.48v-6.05h-4.8v6.05H546.2V333.17h3.48V339h4.8Z"/><path class="b" d="M570.36,348.42v-8.28l-5.89,8.28h-2.61V333.17h3.48v8.28l5.89-8.28h2.61v15.25Z"/><path class="b" d="M593,333.17v15.25H589.5v-8.86L585.56,346h-.39l-3.95-6.47v8.86h-3.48V333.17h3.48l4.14,6.78,4.14-6.78Z"/><path class="b" d="M619.06,333.17v15.25h-3.49v-8.86l-4,6.47h-.39l-3.94-6.47v8.86H603.8V333.17h3.49l4.14,6.78,4.14-6.78Z"/><path class="b" d="M631.46,348.42v-8.28l-5.88,8.28H623V333.17h3.49v8.28l5.88-8.28h2.61v15.25Z"/><path class="b" d="M644.61,333.17a5.14,5.14,0,0,1,3.8,1.53,5.23,5.23,0,0,1,0,7.41,5.17,5.17,0,0,1-3.8,1.52h-2.28v4.79h-3.49V333.17Zm0,7.19a2,2,0,0,0,0-3.92h-2.28v3.92Z"/><path class="b" d="M671.44,333.17v15.25H668V336.53h-4.58v11.89h-3.49V333.17Z"/><path class="b" d="M681.11,333.17a5.12,5.12,0,0,1,3.79,1.53,5.2,5.2,0,0,1,0,7.41,5.15,5.15,0,0,1-3.79,1.52h-2.29v4.79h-3.48V333.17Zm0,7.19a2,2,0,0,0,0-3.92h-2.29v3.92Z"/><path class="b" d="M697.77,348.42v-8.28l-5.88,8.28h-2.61V333.17h3.48v8.28l5.88-8.28h2.62v15.25Z"/><path class="b" d="M463.82,360.73V376h-3.49V364.09h-4.57V376h-3.49V360.73Z"/><path class="b" d="M474.88,376.29a7.7,7.7,0,0,1-5.62-2.29,8.05,8.05,0,0,1,0-11.29,8.07,8.07,0,0,1,11.24,0,8.05,8.05,0,0,1,0,11.29A7.68,7.68,0,0,1,474.88,376.29Zm0-3.4a4.28,4.28,0,0,0,3.16-1.27,4.78,4.78,0,0,0,0-6.53,4.28,4.28,0,0,0-3.16-1.27,4.33,4.33,0,0,0-3.18,1.27,4.86,4.86,0,0,0,0,6.53A4.33,4.33,0,0,0,474.88,372.89Z"/><path class="b" d="M501.16,360.73V376h-3.48v-8.86l-3.95,6.47h-.39l-3.94-6.47V376h-3.49V360.73h3.49l4.14,6.78,4.14-6.78Z"/><path class="b" d="M512.23,376.29a7.85,7.85,0,1,1,5.63-2.29A7.7,7.7,0,0,1,512.23,376.29Zm0-3.4a4.27,4.27,0,0,0,3.16-1.27,4.78,4.78,0,0,0,0-6.53,4.27,4.27,0,0,0-3.16-1.27,4.33,4.33,0,0,0-3.18,1.27,4.86,4.86,0,0,0,0,6.53A4.33,4.33,0,0,0,512.23,372.89Z"/><path class="b" d="M541.13,372.63h1.64v6.27h-3.49V376h-16V360.73h3.49v11.9h3.7v-11.9h3.49v11.9h3.7v-11.9h3.49Z"/><path class="b" d="M554.4,376V367.7L548.52,376h-2.61V360.73h3.48V369l5.89-8.28h2.61V376Z"/><path class="b" d="M580.69,372.63h1.63v6.27h-3.48V376h-7.63v2.92h-3.49v-6.27h1.55a8.8,8.8,0,0,0,1.2-5.06v-6.84h10.22Zm-3.49,0V364H574v3.62a10.42,10.42,0,0,1-1,5Z"/><path class="b" d="M595.56,376l-.76-2.39h-5.66l-.77,2.39h-3.81l5.19-15.25h4.44L599.38,376Zm-5.38-5.66h3.58l-1.79-5.6Z"/><path class="b" d="M610.27,360.73h3.49V376h-3.49v-6.05h-4.79V376H602V360.73h3.49v5.84h4.79Z"/><path class="b" d="M625.93,360.73h3.49V376h-3.49v-6.05h-4.79V376h-3.49V360.73h3.49v5.84h4.79Z"/><path class="b" d="M633.31,376V360.73h3.49v4.79h2.29a5.17,5.17,0,0,1,3.79,1.53,5.2,5.2,0,0,1,0,7.41,5.17,5.17,0,0,1-3.79,1.52Zm3.49-3.27h2.29a2,2,0,0,0,0-3.92H636.8Zm8.93,3.27V360.73h3.49V376Z"/><path class="b" d="M665,376h-4l-2.57-4.4-2.57,4.4h-4l4.56-7.82-4.34-7.43h4l2.36,4,2.35-4h4l-4.34,7.43Z"/><path class="b" d="M671.89,372.61,670.15,379h-2.62l.87-6.42Z"/><path class="b" d="M464.6,403.54h-4l-4.88-7.06v7.06h-3.49V388.29h3.49v6.62l4.66-6.62h4l-5.15,7.43Z"/><path class="b" d="M473.51,403.85a7.74,7.74,0,0,1-5.62-2.29,8.05,8.05,0,0,1,0-11.29,8,8,0,0,1,11.24,0,8.05,8.05,0,0,1,0,11.29A7.72,7.72,0,0,1,473.51,403.85Zm0-3.4a4.27,4.27,0,0,0,3.16-1.27,4.78,4.78,0,0,0,0-6.53,4.27,4.27,0,0,0-3.16-1.27,4.33,4.33,0,0,0-3.18,1.27,4.86,4.86,0,0,0,0,6.53A4.33,4.33,0,0,0,473.51,400.45Z"/><path class="b" d="M494.71,388.29v3.35h-3.92v11.9H487.3v-11.9h-3.92v-3.35Z"/><path class="b" d="M504.55,403.85a7.74,7.74,0,0,1-5.62-2.29,8.05,8.05,0,0,1,0-11.29,8,8,0,0,1,11.24,0,8.05,8.05,0,0,1,0,11.29A7.74,7.74,0,0,1,504.55,403.85Zm0-3.4a4.28,4.28,0,0,0,3.16-1.27,4.78,4.78,0,0,0,0-6.53,4.28,4.28,0,0,0-3.16-1.27,4.33,4.33,0,0,0-3.18,1.27,4.83,4.83,0,0,0,0,6.53A4.33,4.33,0,0,0,504.55,400.45Z"/><path class="b" d="M521.35,388.29a5.13,5.13,0,0,1,3.79,1.52,5.2,5.2,0,0,1,0,7.41,5.1,5.1,0,0,1-3.79,1.53h-2.28v4.79h-3.49V388.29Zm0,7.19a2,2,0,0,0,0-3.92h-2.28v3.92Z"/><path class="b" d="M529.52,403.54V388.29H533v4.79h2.29a5.1,5.1,0,0,1,3.79,1.53,5.2,5.2,0,0,1,0,7.41,5.13,5.13,0,0,1-3.79,1.52Zm3.48-3.27h2.29a2,2,0,0,0,0-3.92H533Zm8.94,3.27V388.29h3.48v15.25Z"/><path class="b" d="M564.58,388.29v15.25H561.1v-8.87l-4,6.47h-.39l-3.94-6.47v8.87h-3.49V388.29h3.49l4.14,6.78,4.14-6.78Z"/><path class="b" d="M590.65,388.29v15.25h-3.49v-8.87l-3.94,6.47h-.39l-4-6.47v8.87H575.4V388.29h3.48l4.14,6.78,4.14-6.78Z"/><path class="b" d="M594.55,403.54V388.29H598v4.79h2.29a5.12,5.12,0,0,1,3.79,1.53,5.2,5.2,0,0,1,0,7.41,5.15,5.15,0,0,1-3.79,1.52Zm3.49-3.27h2.29a2,2,0,0,0,0-3.92H598Zm8.93,3.27V388.29h3.49v15.25Z"/><path class="b" d="M636.53,388.29v15.25H633v-8.87l-3.94,6.47h-.4l-3.94-6.47v8.87h-3.49V388.29h3.49l4.14,6.78,4.14-6.78Z"/><path class="b" d="M647.6,403.85a7.72,7.72,0,0,1-5.62-2.29,8.05,8.05,0,0,1,0-11.29,8,8,0,0,1,11.24,0,8.05,8.05,0,0,1,0,11.29A7.74,7.74,0,0,1,647.6,403.85Zm0-3.4a4.28,4.28,0,0,0,3.16-1.27,4.8,4.8,0,0,0,0-6.53,4.59,4.59,0,0,0-6.34,0,4.83,4.83,0,0,0,0,6.53A4.31,4.31,0,0,0,647.6,400.45Z"/><path class="b" d="M676.37,403.54h-3.86l-4.22-6.75v6.75H664.8v-6.75l-4.23,6.75h-3.85l4.92-7.76-4.71-7.49h3.86l4,6.71v-6.71h3.49V395l4-6.71h3.85l-4.7,7.49Z"/><path class="b" d="M682.6,400.19h6.1v3.35h-9.59V388.29h9.48v3.35h-6v2.53h5.45v3.31H682.6Z"/><path class="b" d="M707.38,388.29v15.25h-3.49v-8.87L700,401.14h-.39l-3.95-6.47v8.87h-3.48V388.29h3.48l4.14,6.78,4.14-6.78Z"/><path class="b" d="M464.25,427.75h1.64V434H462.4V431.1h-7.62V434h-3.49v-6.27h1.55a8.88,8.88,0,0,0,1.2-5.06v-6.84h10.21Zm-3.48,0v-8.63h-3.25v3.61a10.44,10.44,0,0,1-1,5Z"/><path class="b" d="M475.87,431.41a7.74,7.74,0,0,1-5.62-2.29,8.05,8.05,0,0,1,0-11.29,8,8,0,0,1,11.24,0,8.05,8.05,0,0,1,0,11.29A7.72,7.72,0,0,1,475.87,431.41Zm0-3.4a4.27,4.27,0,0,0,3.16-1.27,4.79,4.79,0,0,0,0-6.54,4.3,4.3,0,0,0-3.16-1.26,4.36,4.36,0,0,0-3.18,1.26,4.87,4.87,0,0,0,0,6.54A4.33,4.33,0,0,0,475.87,428Z"/><path class="b" d="M498.23,426.63a4.13,4.13,0,0,1-1.41,3.23,5.12,5.12,0,0,1-3.51,1.24H486.9V415.85h6a5,5,0,0,1,3.42,1.22,3.92,3.92,0,0,1,1.4,3.13,3.74,3.74,0,0,1-1.33,3A3.87,3.87,0,0,1,498.23,426.63Zm-7.84-7.51v2.7h2.48a1.35,1.35,0,0,0,0-2.7Zm2.92,8.71a1.46,1.46,0,0,0,0-2.92h-2.92v2.92Z"/><path class="b" d="M504.82,427.75h6.1v3.35h-9.58V415.85h9.48v3.35h-6v2.53h5.45V425h-5.45Z"/><path class="b" d="M520.13,415.85a5.17,5.17,0,0,1,3.79,1.52,5.23,5.23,0,0,1,0,7.41,5.13,5.13,0,0,1-3.79,1.53h-2.29v4.79h-3.49V415.85Zm0,7.19a2,2,0,0,0,0-3.92h-2.29V423Z"/><path class="b" d="M539.46,415.85V431.1H536v-5h-1.11l-3.24,5h-3.93l3.58-5.45a5.15,5.15,0,0,1-2.27-1.83,4.69,4.69,0,0,1-.87-2.74,5.21,5.21,0,0,1,5.23-5.23ZM536,423v-3.92h-2.61a2,2,0,0,0,0,3.92Z"/><path class="b" d="M553.51,415.85v3.35h-3.92v11.9H546.1V419.2h-3.92v-3.35Z"/><path class="b" d="M562,420.64a5.14,5.14,0,0,1,3.8,1.53,5.23,5.23,0,0,1,0,7.41,5.17,5.17,0,0,1-3.8,1.52h-5.77V415.85h3.49v4.79Zm0,7.19a2,2,0,0,0,0-3.92h-2.28v3.92Z"/><path class="b" d="M459.55,348.73a7.68,7.68,0,0,1-5.62-2.29,8.05,8.05,0,0,1,0-11.29,8.07,8.07,0,0,1,11.24,0,8.05,8.05,0,0,1,0,11.29A7.7,7.7,0,0,1,459.55,348.73Zm0-3.4a4.27,4.27,0,0,0,3.16-1.26,4.82,4.82,0,0,0,0-6.54,4.62,4.62,0,0,0-6.34,0,4.84,4.84,0,0,0,0,6.54A4.3,4.3,0,0,0,459.55,345.33Z"/><path class="b" d="M476.46,338.84a5.3,5.3,0,0,1,3.79,1.33,4.44,4.44,0,0,1,1.44,3.46,4.55,4.55,0,0,1-1.44,3.49,5.42,5.42,0,0,1-3.79,1.3h-5.88V333.17h9.8v3.36h-6.32v2.31Zm0,6.32q1.74,0,1.74-1.53c0-1-.58-1.52-1.74-1.52h-2.4v3.05Z"/><path class="b" d="M486.63,348.42V336.53h-3.48v-3.36h7V338h2.29a5.17,5.17,0,0,1,3.79,1.53,5.2,5.2,0,0,1,0,7.41,5.17,5.17,0,0,1-3.79,1.52Zm3.49-3.26h2.29a2,2,0,0,0,0-3.93h-2.29Z"/><path class="b" d="M504.06,345.07h6.1v3.35h-9.59V333.17h9.48v3.36h-6v2.52h5.45v3.32h-5.45Z"/><path class="b" d="M525.56,345.07h1.64v6.27h-3.49v-2.92h-7.62v2.92H512.6v-6.27h1.55a8.86,8.86,0,0,0,1.2-5.06v-6.84h10.21Zm-3.48,0v-8.63h-3.25v3.62a10.54,10.54,0,0,1-1,5Z"/><path class="b" d="M538.82,348.42v-8.28l-5.89,8.28h-2.61V333.17h3.48v8.28l5.89-8.28h2.61v15.25Z"/><path class="b" d="M554.48,333.17H558v15.25h-3.48v-6.05h-4.8v6.05H546.2V333.17h3.48V339h4.8Z"/><path class="b" d="M570.36,348.42v-8.28l-5.89,8.28h-2.61V333.17h3.48v8.28l5.89-8.28h2.61v15.25Z"/><path class="b" d="M593,333.17v15.25H589.5v-8.86L585.56,346h-.39l-3.95-6.47v8.86h-3.48V333.17h3.48l4.14,6.78,4.14-6.78Z"/><path class="b" d="M619.06,333.17v15.25h-3.49v-8.86l-4,6.47h-.39l-3.94-6.47v8.86H603.8V333.17h3.49l4.14,6.78,4.14-6.78Z"/><path class="b" d="M631.46,348.42v-8.28l-5.88,8.28H623V333.17h3.49v8.28l5.88-8.28h2.61v15.25Z"/><path class="b" d="M644.61,333.17a5.14,5.14,0,0,1,3.8,1.53,5.23,5.23,0,0,1,0,7.41,5.17,5.17,0,0,1-3.8,1.52h-2.28v4.79h-3.49V333.17Zm0,7.19a2,2,0,0,0,0-3.92h-2.28v3.92Z"/><path class="b" d="M671.44,333.17v15.25H668V336.53h-4.58v11.89h-3.49V333.17Z"/><path class="b" d="M681.11,333.17a5.12,5.12,0,0,1,3.79,1.53,5.2,5.2,0,0,1,0,7.41,5.15,5.15,0,0,1-3.79,1.52h-2.29v4.79h-3.48V333.17Zm0,7.19a2,2,0,0,0,0-3.92h-2.29v3.92Z"/><path class="b" d="M697.77,348.42v-8.28l-5.88,8.28h-2.61V333.17h3.48v8.28l5.88-8.28h2.62v15.25Z"/><path class="b" d="M463.82,360.73V376h-3.49V364.09h-4.57V376h-3.49V360.73Z"/><path class="b" d="M474.88,376.29a7.7,7.7,0,0,1-5.62-2.29,8.05,8.05,0,0,1,0-11.29,8.07,8.07,0,0,1,11.24,0,8.05,8.05,0,0,1,0,11.29A7.68,7.68,0,0,1,474.88,376.29Zm0-3.4a4.28,4.28,0,0,0,3.16-1.27,4.78,4.78,0,0,0,0-6.53,4.28,4.28,0,0,0-3.16-1.27,4.33,4.33,0,0,0-3.18,1.27,4.86,4.86,0,0,0,0,6.53A4.33,4.33,0,0,0,474.88,372.89Z"/><path class="b" d="M501.16,360.73V376h-3.48v-8.86l-3.95,6.47h-.39l-3.94-6.47V376h-3.49V360.73h3.49l4.14,6.78,4.14-6.78Z"/><path class="b" d="M512.23,376.29a7.85,7.85,0,1,1,5.63-2.29A7.7,7.7,0,0,1,512.23,376.29Zm0-3.4a4.27,4.27,0,0,0,3.16-1.27,4.78,4.78,0,0,0,0-6.53,4.27,4.27,0,0,0-3.16-1.27,4.33,4.33,0,0,0-3.18,1.27,4.86,4.86,0,0,0,0,6.53A4.33,4.33,0,0,0,512.23,372.89Z"/><path class="b" d="M541.13,372.63h1.64v6.27h-3.49V376h-16V360.73h3.49v11.9h3.7v-11.9h3.49v11.9h3.7v-11.9h3.49Z"/><path class="b" d="M554.4,376V367.7L548.52,376h-2.61V360.73h3.48V369l5.89-8.28h2.61V376Z"/><path class="b" d="M580.69,372.63h1.63v6.27h-3.48V376h-7.63v2.92h-3.49v-6.27h1.55a8.8,8.8,0,0,0,1.2-5.06v-6.84h10.22Zm-3.49,0V364H574v3.62a10.42,10.42,0,0,1-1,5Z"/><path class="b" d="M595.56,376l-.76-2.39h-5.66l-.77,2.39h-3.81l5.19-15.25h4.44L599.38,376Zm-5.38-5.66h3.58l-1.79-5.6Z"/><path class="b" d="M610.27,360.73h3.49V376h-3.49v-6.05h-4.79V376H602V360.73h3.49v5.84h4.79Z"/><path class="b" d="M625.93,360.73h3.49V376h-3.49v-6.05h-4.79V376h-3.49V360.73h3.49v5.84h4.79Z"/><path class="b" d="M633.31,376V360.73h3.49v4.79h2.29a5.17,5.17,0,0,1,3.79,1.53,5.2,5.2,0,0,1,0,7.41,5.17,5.17,0,0,1-3.79,1.52Zm3.49-3.27h2.29a2,2,0,0,0,0-3.92H636.8Zm8.93,3.27V360.73h3.49V376Z"/><path class="b" d="M665,376h-4l-2.57-4.4-2.57,4.4h-4l4.56-7.82-4.34-7.43h4l2.36,4,2.35-4h4l-4.34,7.43Z"/><path class="b" d="M671.89,372.61,670.15,379h-2.62l.87-6.42Z"/><path class="b" d="M464.6,403.54h-4l-4.88-7.06v7.06h-3.49V388.29h3.49v6.62l4.66-6.62h4l-5.15,7.43Z"/><path class="b" d="M473.51,403.85a7.74,7.74,0,0,1-5.62-2.29,8.05,8.05,0,0,1,0-11.29,8,8,0,0,1,11.24,0,8.05,8.05,0,0,1,0,11.29A7.72,7.72,0,0,1,473.51,403.85Zm0-3.4a4.27,4.27,0,0,0,3.16-1.27,4.78,4.78,0,0,0,0-6.53,4.27,4.27,0,0,0-3.16-1.27,4.33,4.33,0,0,0-3.18,1.27,4.86,4.86,0,0,0,0,6.53A4.33,4.33,0,0,0,473.51,400.45Z"/><path class="b" d="M494.71,388.29v3.35h-3.92v11.9H487.3v-11.9h-3.92v-3.35Z"/><path class="b" d="M504.55,403.85a7.74,7.74,0,0,1-5.62-2.29,8.05,8.05,0,0,1,0-11.29,8,8,0,0,1,11.24,0,8.05,8.05,0,0,1,0,11.29A7.74,7.74,0,0,1,504.55,403.85Zm0-3.4a4.28,4.28,0,0,0,3.16-1.27,4.78,4.78,0,0,0,0-6.53,4.28,4.28,0,0,0-3.16-1.27,4.33,4.33,0,0,0-3.18,1.27,4.83,4.83,0,0,0,0,6.53A4.33,4.33,0,0,0,504.55,400.45Z"/><path class="b" d="M521.35,388.29a5.13,5.13,0,0,1,3.79,1.52,5.2,5.2,0,0,1,0,7.41,5.1,5.1,0,0,1-3.79,1.53h-2.28v4.79h-3.49V388.29Zm0,7.19a2,2,0,0,0,0-3.92h-2.28v3.92Z"/><path class="b" d="M529.52,403.54V388.29H533v4.79h2.29a5.1,5.1,0,0,1,3.79,1.53,5.2,5.2,0,0,1,0,7.41,5.13,5.13,0,0,1-3.79,1.52Zm3.48-3.27h2.29a2,2,0,0,0,0-3.92H533Zm8.94,3.27V388.29h3.48v15.25Z"/><path class="b" d="M564.58,388.29v15.25H561.1v-8.87l-4,6.47h-.39l-3.94-6.47v8.87h-3.49V388.29h3.49l4.14,6.78,4.14-6.78Z"/><path class="b" d="M590.65,388.29v15.25h-3.49v-8.87l-3.94,6.47h-.39l-4-6.47v8.87H575.4V388.29h3.48l4.14,6.78,4.14-6.78Z"/><path class="b" d="M594.55,403.54V388.29H598v4.79h2.29a5.12,5.12,0,0,1,3.79,1.53,5.2,5.2,0,0,1,0,7.41,5.15,5.15,0,0,1-3.79,1.52Zm3.49-3.27h2.29a2,2,0,0,0,0-3.92H598Zm8.93,3.27V388.29h3.49v15.25Z"/><path class="b" d="M636.53,388.29v15.25H633v-8.87l-3.94,6.47h-.4l-3.94-6.47v8.87h-3.49V388.29h3.49l4.14,6.78,4.14-6.78Z"/><path class="b" d="M647.6,403.85a7.72,7.72,0,0,1-5.62-2.29,8.05,8.05,0,0,1,0-11.29,8,8,0,0,1,11.24,0,8.05,8.05,0,0,1,0,11.29A7.74,7.74,0,0,1,647.6,403.85Zm0-3.4a4.28,4.28,0,0,0,3.16-1.27,4.8,4.8,0,0,0,0-6.53,4.59,4.59,0,0,0-6.34,0,4.83,4.83,0,0,0,0,6.53A4.31,4.31,0,0,0,647.6,400.45Z"/><path class="b" d="M676.37,403.54h-3.86l-4.22-6.75v6.75H664.8v-6.75l-4.23,6.75h-3.85l4.92-7.76-4.71-7.49h3.86l4,6.71v-6.71h3.49V395l4-6.71h3.85l-4.7,7.49Z"/><path class="b" d="M682.6,400.19h6.1v3.35h-9.59V388.29h9.48v3.35h-6v2.53h5.45v3.31H682.6Z"/><path class="b" d="M707.38,388.29v15.25h-3.49v-8.87L700,401.14h-.39l-3.95-6.47v8.87h-3.48V388.29h3.48l4.14,6.78,4.14-6.78Z"/><path class="b" d="M464.25,427.75h1.64V434H462.4V431.1h-7.62V434h-3.49v-6.27h1.55a8.88,8.88,0,0,0,1.2-5.06v-6.84h10.21Zm-3.48,0v-8.63h-3.25v3.61a10.44,10.44,0,0,1-1,5Z"/><path class="b" d="M475.87,431.41a7.74,7.74,0,0,1-5.62-2.29,8.05,8.05,0,0,1,0-11.29,8,8,0,0,1,11.24,0,8.05,8.05,0,0,1,0,11.29A7.72,7.72,0,0,1,475.87,431.41Zm0-3.4a4.27,4.27,0,0,0,3.16-1.27,4.79,4.79,0,0,0,0-6.54,4.3,4.3,0,0,0-3.16-1.26,4.36,4.36,0,0,0-3.18,1.26,4.87,4.87,0,0,0,0,6.54A4.33,4.33,0,0,0,475.87,428Z"/><path class="b" d="M498.23,426.63a4.13,4.13,0,0,1-1.41,3.23,5.12,5.12,0,0,1-3.51,1.24H486.9V415.85h6a5,5,0,0,1,3.42,1.22,3.92,3.92,0,0,1,1.4,3.13,3.74,3.74,0,0,1-1.33,3A3.87,3.87,0,0,1,498.23,426.63Zm-7.84-7.51v2.7h2.48a1.35,1.35,0,0,0,0-2.7Zm2.92,8.71a1.46,1.46,0,0,0,0-2.92h-2.92v2.92Z"/><path class="b" d="M504.82,427.75h6.1v3.35h-9.58V415.85h9.48v3.35h-6v2.53h5.45V425h-5.45Z"/><path class="b" d="M520.13,415.85a5.17,5.17,0,0,1,3.79,1.52,5.23,5.23,0,0,1,0,7.41,5.13,5.13,0,0,1-3.79,1.53h-2.29v4.79h-3.49V415.85Zm0,7.19a2,2,0,0,0,0-3.92h-2.29V423Z"/><path class="b" d="M539.46,415.85V431.1H536v-5h-1.11l-3.24,5h-3.93l3.58-5.45a5.15,5.15,0,0,1-2.27-1.83,4.69,4.69,0,0,1-.87-2.74,5.21,5.21,0,0,1,5.23-5.23ZM536,423v-3.92h-2.61a2,2,0,0,0,0,3.92Z"/><path class="b" d="M553.51,415.85v3.35h-3.92v11.9H546.1V419.2h-3.92v-3.35Z"/><path class="b" d="M562,420.64a5.14,5.14,0,0,1,3.8,1.53,5.23,5.23,0,0,1,0,7.41,5.17,5.17,0,0,1-3.8,1.52h-5.77V415.85h3.49v4.79Zm0,7.19a2,2,0,0,0,0-3.92h-2.28v3.92Z"/></svg>