<?xml version="1.0" encoding="utf-8"?>
<!-- Generator: Adobe Illustrator 19.0.0, SVG Export Plug-In . SVG Version: 6.00 Build 0)  -->
<svg version="1.1" id="Layer_1" xmlns="http://www.w3.org/2000/svg" xmlns:xlink="http://www.w3.org/1999/xlink" x="0px" y="0px"
	 viewBox="0 0 612 612" style="enable-background:new 0 0 612 612;" xml:space="preserve">
<metadata><?xpacket begin="﻿" id="W5M0MpCehiHzreSzNTczkc9d"?>
<x:xmpmeta xmlns:x="adobe:ns:meta/" x:xmptk="Adobe XMP Core 5.6-c067 79.157747, 2015/03/30-23:40:42        ">
   <rdf:RDF xmlns:rdf="http://www.w3.org/1999/02/22-rdf-syntax-ns#">
      <rdf:Description rdf:about=""/>
   </rdf:RDF>
</x:xmpmeta>
                                                                                                    
                                                                                                    
                                                                                                    
                                                                                                    
                                                                                                    
                                                                                                    
                                                                                                    
                                                                                                    
                                                                                                    
                                                                                                    
                                                                                                    
                                                                                                    
                                                                                                    
                                                                                                    
                                                                                                    
                                                                                                    
                                                                                                    
                                                                                                    
                                                                                                    
                                                                                                    
                           
<?xpacket end="w"?></metadata>
<style type="text/css">
	.st0{fill:#FFFFFF;stroke:#000000;stroke-miterlimit:10;}
	.st1{fill:#0083BF;}
	.st2{fill:#59AFE1;}
	.st3{fill:#74C1EC;}
</style>
<rect class="st0" width="612" height="612"/>
<g>
	<g>
		<path class="st1" d="M331.2,307.4l-8.5-21.2h4.7l4.2,10.6l4.1-10.4h0.2l4.1,10.4l4.2-10.6h4.7l-8.5,21.1h-0.8l-3.8-9.2l-3.8,9.3
			H331.2z"/>
		<path class="st1" d="M357.6,284.6l-1.1-1.3l-1,1.3h-4.3l4-3.9h2.6l4.1,3.9H357.6z M351.2,306.9v-20.8h10.4v4.2h-6.2v4.2h5.5v4.1
			h-5.5v4.2h6.6v4.2H351.2z"/>
		<path class="st1" d="M377,306.9l-4.2-7.9h-2v7.9h-4.2v-20.8h8.2c7.4,0,8.1,10.4,2,12.2l4.8,8.6H377z M370.8,295h3.7
			c2.8,0,2.8-4.6,0-4.6h-3.7V295z"/>
		<path class="st1" d="M385.3,306.9v-20.8h10.4v4.2h-6.2v4.2h5.5v4.1h-5.5v4.2h6.6v4.2H385.3z"/>
		<path class="st1" d="M404.9,286.2v16.6h6.6v4.2h-10.7v-20.8H404.9z"/>
		<path class="st1" d="M421.1,306.9h-6.2v-20.8h6.2C434.9,286.2,434.9,306.9,421.1,306.9z M419.1,290.3v12.5h2
			c8.1,0,8.1-12.5,0-12.5H419.1z"/>
		<path class="st1" d="M324.4,333.9c2.4,1.7,5,1.7,5.9,1.7c1.2-0.1,2.3-1,2.1-2.1c-0.1-1.2-1-1.7-2.1-2.1c-3.2-1.2-6.2-2.8-6.2-6.3
			s2.4-6.2,5.9-6.3c1.1-0.1,2.5-0.1,5.2,0.9l-0.5,4c-2.3-0.9-3.6-0.9-4.2-0.9c-1.5,0.1-2.1,1.2-2.1,2.3c0.1,1.2,1.1,1.7,2.3,2.1
			c3.2,1.2,6,3,6,6.4c0,3.5-2.4,6.1-6.3,6.3c-1.2,0.1-3.7-0.1-6.6-1.5L324.4,333.9z"/>
		<path class="st1" d="M342.9,339.6V323h-5.2v-4.1h14.5v4.1h-5.2v16.6H342.9z"/>
		<path class="st1" d="M360.7,318.1h0.4l8.7,21.5h-4.7l-0.8-2.2h-6.9l-0.8,2.2H352L360.7,318.1z M362.8,333.4l-1.9-5.4l-1.9,5.4
			H362.8z"/>
		<path class="st1" d="M374.6,339.6V323h-5.2v-4.1h14.5v4.1h-5.2v16.6H374.6z"/>
		<path class="st1" d="M386.9,339.6v-20.8h4.2v20.8H386.9z"/>
		<path class="st1" d="M396.1,333.9c2.4,1.7,5,1.7,5.9,1.7c1.2-0.1,2.3-1,2.1-2.1c-0.1-1.2-1-1.7-2.1-2.1c-3.2-1.2-6.2-2.8-6.2-6.3
			s2.4-6.2,5.9-6.3c1.1-0.1,2.5-0.1,5.2,0.9l-0.5,4c-2.3-0.9-3.6-0.9-4.2-0.9c-1.5,0.1-2.1,1.2-2.1,2.3c0.1,1.2,1.1,1.7,2.3,2.1
			c3.2,1.2,6,3,6,6.4c0,3.5-2.4,6.1-6.3,6.3c-1.2,0.1-3.7-0.1-6.6-1.5L396.1,333.9z"/>
		<path class="st1" d="M414.6,339.6V323h-5.2v-4.1h14.5v4.1h-5.2v16.6H414.6z"/>
		<path class="st1" d="M426.9,339.6v-20.8h4.2v20.8H426.9z"/>
		<path class="st1" d="M436.4,339.6v-20.8h10.4v4.2h-6.2v4.2h5.5v4.1h-5.5v4.2h6.6v4.2H436.4z"/>
		<path class="st1" d="M451.9,318.8h4.2c0,2.8,0,5.5,0,8.3l5.2-8.3h4.8l-6.7,10.2l7.3,10.5h-5.1l-5.5-8.1c0,2.7,0,5.5,0,8.1h-4.2
			V318.8z"/>
		<path class="st1" d="M469.4,339.6v-20.8h10.4v4.2h-6.2v4.2h5.5v4.1h-5.5v4.2h6.6v4.2H469.4z"/>
		<path class="st1" d="M331,372.2h-6.2v-20.8h6.2C344.8,351.5,344.8,372.2,331,372.2z M329,355.6v12.5h2c8.1,0,8.1-12.5,0-12.5H329z
			"/>
		<path class="st1" d="M351.5,350.7h0.4l8.7,21.5H356l-0.8-2.2h-6.9l-0.8,2.2h-4.7L351.5,350.7z M353.6,366.1l-1.9-5.4l-1.9,5.4
			H353.6z"/>
		<path class="st1" d="M372.5,372.3c-13.7,0-14.4-20.5,0-21c2.5-0.1,4.5,0.6,4.8,0.8l-0.5,4.2c-0.8-0.3-2.1-0.8-4.4-0.8
			c-8.4,0.3-8,12.7,0,12.7c0.4,0,0.8-0.1,1.2-0.1v-6.2h4.2v9.1C376.2,371.8,374.4,372.3,372.5,372.3z"/>
		<path class="st2" d="M328.7,391.1c0-0.8-0.6-1.4-1.5-1.4c-1.3-0.1-2.8,0.7-3.3,1.1l-0.7-2.8c1.1-0.8,2.8-1.4,4.2-1.3
			c4.2,0.2,5.6,3.9,3.2,7.2l-2.8,4.4h4.2v2.9h-9.4l5.3-8.5C328.7,391.7,328.7,391.1,328.7,391.1z"/>
		<path class="st2" d="M334.4,394.1c0-4.1,1.4-7.3,4.9-7.3c3.6,0,4.9,3.3,4.9,7.3c0,4.1-1.4,7.3-4.9,7.3
			C335.8,401.4,334.4,398.2,334.4,394.1z M341.5,394.1c0-2.6-0.5-4.7-2.2-4.7c-1.6,0-2.1,2.1-2.1,4.7c0,2.6,0.5,4.7,2.1,4.7
			C340.9,398.7,341.5,396.7,341.5,394.1z"/>
		<path class="st2" d="M347.9,401.4c-2.2,0-2.2-3.2,0-3.2C350.1,398.2,350.1,401.4,347.9,401.4z"/>
		<path class="st2" d="M351.1,387h5.2v14.2h-2.8v-11.4h-2.3V387z"/>
		<path class="st2" d="M359.4,394.1c0-4.1,1.4-7.3,4.9-7.3c3.6,0,4.9,3.3,4.9,7.3c0,4.1-1.4,7.3-4.9,7.3
			C360.8,401.4,359.4,398.2,359.4,394.1z M366.5,394.1c0-2.6-0.5-4.7-2.2-4.7c-1.6,0-2.1,2.1-2.1,4.7c0,2.6,0.5,4.7,2.1,4.7
			C366,398.7,366.5,396.7,366.5,394.1z"/>
		<path class="st2" d="M373,401.4c-2.2,0-2.2-3.2,0-3.2C375.1,398.2,375.1,401.4,373,401.4z"/>
		<path class="st2" d="M382.7,391.1c0-0.8-0.6-1.4-1.5-1.4c-1.3-0.1-2.8,0.7-3.3,1.1l-0.7-2.8c1.1-0.8,2.8-1.4,4.2-1.3
			c4.2,0.2,5.6,3.9,3.2,7.2l-2.8,4.4h4.2v2.9h-9.4l5.3-8.5C382.7,391.7,382.7,391.1,382.7,391.1z"/>
		<path class="st2" d="M388.4,394.1c0-4.1,1.4-7.3,4.9-7.3c3.6,0,4.9,3.3,4.9,7.3c0,4.1-1.4,7.3-4.9,7.3
			C389.8,401.4,388.4,398.2,388.4,394.1z M395.4,394.1c0-2.6-0.5-4.7-2.2-4.7c-1.6,0-2.1,2.1-2.1,4.7c0,2.6,0.5,4.7,2.1,4.7
			C394.9,398.7,395.4,396.7,395.4,394.1z"/>
		<path class="st2" d="M400,387h5.2v14.2h-2.8v-11.4H400V387z"/>
		<path class="st2" d="M417.1,397.1c0,2.4-1.6,4.2-4.3,4.3c-0.7,0-2.7,0-4.5-0.6l0.3-2.8c4.4,1.5,5.7,0.3,5.7-0.9
			c0-1.7-1.1-2.2-5.4-2.5V387h7.3v2.7h-4.4v2.5C415.2,392.5,417.1,393.8,417.1,397.1z"/>
		<path class="st1" d="M324,418.4h5.1c2.3,0,3.7,1.7,3.7,3.9c0,1-0.4,2-1.2,2.6c0.9,0.6,1.3,1.6,1.3,2.6c0,2.2-1.7,3.9-3.8,3.9H324
			V418.4z M326.6,423.6h1.6h0.7c0.7,0,1.2-0.6,1.2-1.3c0-0.7-0.5-1.3-1.2-1.3h-2.3V423.6z M326.6,428.8h1.6h0.7
			c0.7,0,1.3-0.6,1.3-1.3s-0.6-1.3-1.3-1.3h-2.3V428.8z"/>
		<path class="st1" d="M336.3,431.4v-13h6.5v2.6h-3.9v2.6h3.4v2.6h-3.4v2.6h4.1v2.6H336.3z"/>
		<path class="st1" d="M348,431.4V421h-3.2v-2.6h9.1v2.6h-3.2v10.4H348z"/>
		<path class="st1" d="M356.2,431.4v-13h6.5v2.6h-3.9v2.6h3.4v2.6h-3.4v2.6h4.1v2.6H356.2z"/>
		<path class="st1" d="M372.9,431.4l-2.6-5H369v5h-2.6v-13h5.1c4.6,0,5.1,6.5,1.3,7.6l3,5.4H372.9z M369,423.9h2.3
			c1.8,0,1.8-2.9,0-2.9H369V423.9z"/>
		<path class="st1" d="M387.7,431.4h-3.9v-13h3.9C396.3,418.4,396.3,431.4,387.7,431.4z M386.4,421v7.8h1.3c5,0,5-7.8,0-7.8H386.4z"
			/>
		<path class="st1" d="M401,418h0.3l5.5,13.4h-2.9l-0.5-1.4H399l-0.5,1.4h-2.9L401,418z M402.4,427.6l-1.2-3.4l-1.2,3.4H402.4z"/>
		<path class="st1" d="M410.3,431.4V421H407v-2.6h9.1v2.6h-3.2v10.4H410.3z"/>
		<path class="st1" d="M421.9,418h0.3l5.5,13.4h-2.9l-0.5-1.4h-4.3l-0.5,1.4h-2.9L421.9,418z M423.2,427.6l-1.2-3.4l-1.2,3.4H423.2z
			"/>
		<path class="st1" d="M431.6,431.5c-2,0-2-2.9,0-2.9C433.6,428.6,433.6,431.5,431.6,431.5z"/>
		<path class="st1" d="M324,441.3h5.1c2.3,0,3.7,1.7,3.7,3.9c0,1-0.4,2-1.2,2.6c0.9,0.6,1.3,1.6,1.3,2.6c0,2.2-1.7,3.9-3.8,3.9H324
			V441.3z M326.6,446.6h1.6h0.7c0.7,0,1.2-0.6,1.2-1.3c0-0.7-0.5-1.3-1.2-1.3h-2.3V446.6z M326.6,451.7h1.6h0.7
			c0.7,0,1.3-0.6,1.3-1.3s-0.6-1.3-1.3-1.3h-2.3V451.7z"/>
		<path class="st1" d="M336.3,454.3v-13h6.5v2.6h-3.9v2.6h3.4v2.6h-3.4v2.6h4.1v2.6H336.3z"/>
		<path class="st1" d="M348,454.3V444h-3.2v-2.6h9.1v2.6h-3.2v10.4H348z"/>
		<path class="st1" d="M356.2,454.3v-13h6.5v2.6h-3.9v2.6h3.4v2.6h-3.4v2.6h4.1v2.6H356.2z"/>
		<path class="st1" d="M372.9,454.3l-2.6-5H369v5h-2.6v-13h5.1c4.6,0,5.1,6.5,1.3,7.6l3,5.4H372.9z M369,446.9h2.3
			c1.8,0,1.8-2.9,0-2.9H369V446.9z"/>
		<path class="st1" d="M386.4,441.4v10.4h4.1v2.6h-6.7v-13H386.4z"/>
		<path class="st1" d="M393.2,454.3v-13h6.5v2.6h-3.9v2.6h3.4v2.6h-3.4v2.6h4.1v2.6H393.2z"/>
		<path class="st1" d="M406.8,454.6l-5.3-13.2h2.9l2.6,6.6l2.5-6.5h0.1l2.5,6.5l2.6-6.6h2.9l-5.3,13.2H412l-2.4-5.8l-2.4,5.8H406.8z
			"/>
		<path class="st1" d="M419.8,454.3v-13h6.5v2.6h-3.9v2.6h3.4v2.6h-3.4v2.6h4.1v2.6H419.8z"/>
		<path class="st1" d="M432.6,454.3H430v-13.2h0.7l6.5,7.6v-7.3h2.6v13.2h-0.7l-6.6-7.3V454.3z"/>
		<path class="st1" d="M443.6,450.8c1.5,1.1,3.1,1.1,3.7,1c0.8-0.1,1.4-0.6,1.3-1.3c-0.1-0.7-0.6-1.1-1.3-1.3c-2-0.7-3.8-1.8-3.8-4
			c0-2.2,1.5-3.8,3.7-4c0.7,0,1.6,0,3.2,0.5l-0.3,2.5c-1.4-0.6-2.2-0.6-2.6-0.5c-0.9,0.1-1.3,0.7-1.3,1.5c0.1,0.7,0.7,1.1,1.5,1.3
			c2,0.7,3.8,1.9,3.8,4c0,2.2-1.5,3.8-3.9,3.9c-0.7,0.1-2.3,0-4.1-0.9L443.6,450.8z"/>
		<path class="st1" d="M455.3,454.5c-2,0-2-2.9,0-2.9C457.3,451.5,457.2,454.5,455.3,454.5z"/>
	</g>
</g>
<g id="XMLID_17_">
	<path id="XMLID_18_" class="st3" d="M208.2,351.9c-7.9,0-15.7-1.1-23.3-3.1c-1.3-0.4-2.6-0.8-4-1.2c-21.1-6.8-38.8-21.1-49.9-40.4
		c-11.8-20.6-14.9-44.6-8.7-67.5c6.2-22.9,21-42,41.6-53.8c13.5-7.7,28.7-11.8,44-11.8c7.9,0,15.7,1.1,23.4,3.1
		c22.9,6.2,42,21,53.8,41.6c10,17.5,13.8,37.2,10.8,57l-0.1,0.6h-8.7l0.1-0.8c3-18.3-0.4-36.5-9.6-52.6c-10.7-18.6-28-32-48.7-37.6
		c-6.9-1.9-14.1-2.8-21.2-2.8c-13.9,0-27.6,3.7-39.8,10.7c-18.6,10.7-32,27.9-37.6,48.7c-5.6,20.7-2.8,42.4,7.8,61
		c10.7,18.6,27.9,32,48.7,37.6c7.8,2.1,16.1,3,24.3,2.7l0.4-0.1c6.5-0.3,13.1-1.4,19.6-3.4l0.2,0l0.2,0c5,1,10.3,1.5,15.7,1.5l2.9,0
		l-2.6,1.3c-4.2,2.1-8.6,3.8-13,5.2l-0.2,0.1c-0.2,0.1-0.3,0.2-0.5,0.2C225.6,350.6,216.9,351.9,208.2,351.9z"/>
</g>
<path id="XMLID_10_" class="st1" d="M239.3,260.1c-1-7.3-8-12.5-15.6-11.5c-7.6,1.1-12.8,8-11.8,15.3c1,7.4,7.9,12.5,15.5,11.5
	C235,274.3,240.3,267.5,239.3,260.1z M226.4,268.6c-3.8,0.5-7-1.9-7.5-5.7c-0.5-3.7,1.9-7.1,5.7-7.6c3.8-0.5,7,2.1,7.6,5.8
	C232.7,264.8,230.2,268.1,226.4,268.6z"/>
<path id="XMLID_7_" class="st1" d="M275.3,292.7c-1-7.3-8-12.5-15.6-11.5c-7.6,1.1-12.8,8-11.8,15.3c1,7.4,7.9,12.5,15.5,11.5
	C271,307,276.3,300.2,275.3,292.7z M262.5,301.3c-3.8,0.5-7-1.9-7.5-5.7c-0.5-3.7,1.9-7.1,5.7-7.6c3.8-0.5,7,2.1,7.6,5.8
	C268.7,297.5,266.2,300.8,262.5,301.3z"/>
<g id="XMLID_4_">
	<path id="XMLID_5_" class="st1" d="M224,305.7h-11l48.8-53.3h11L224,305.7z"/>
</g>
<path id="XMLID_3_" class="st1" d="M252.2,328.5c-1.5,0.1-3,0.2-4.4,0.2c-20.6,0-33.2-7.6-40.3-14.1c-9.9-9-15.5-21.7-15.5-34.7
	v-0.7h-8.5v0.7c0,15.4,6.7,30.4,18.3,41c8.2,7.4,22.7,16.3,46,16.3c2.6,0,5.3-0.1,8.1-0.4L252.2,328.5z"/>
</svg>
