<?xml version="1.0" encoding="utf-8"?>
<!-- Generator: Adobe Illustrator 19.0.0, SVG Export Plug-In . SVG Version: 6.00 Build 0)  -->
<svg version="1.1" id="Layer_1" xmlns="http://www.w3.org/2000/svg" xmlns:xlink="http://www.w3.org/1999/xlink" x="0px" y="0px"
	 viewBox="0 0 612 612" style="enable-background:new 0 0 612 612;" xml:space="preserve">
<metadata><?xpacket begin="﻿" id="W5M0MpCehiHzreSzNTczkc9d"?>
<x:xmpmeta xmlns:x="adobe:ns:meta/" x:xmptk="Adobe XMP Core 5.6-c067 79.157747, 2015/03/30-23:40:42        ">
   <rdf:RDF xmlns:rdf="http://www.w3.org/1999/02/22-rdf-syntax-ns#">
      <rdf:Description rdf:about=""/>
   </rdf:RDF>
</x:xmpmeta>
                                                                                                    
                                                                                                    
                                                                                                    
                                                                                                    
                                                                                                    
                                                                                                    
                                                                                                    
                                                                                                    
                                                                                                    
                                                                                                    
                                                                                                    
                                                                                                    
                                                                                                    
                                                                                                    
                                                                                                    
                                                                                                    
                                                                                                    
                                                                                                    
                                                                                                    
                                                                                                    
                           
<?xpacket end="w"?></metadata>
<style type="text/css">
	.st0{fill:#0083BF;}
	.st1{fill:#FFFFFF;}
	.st2{fill:#90CEF1;}
	.st3{fill:#74C1EC;}
</style>
<rect class="st0" width="612" height="612"/>
<g>
	<path class="st1" d="M331.9,299.9l-8.5-21.2h4.7l4.2,10.6l4.1-10.4h0.2l4.1,10.4l4.2-10.6h4.7l-8.5,21.1h-0.8l-3.8-9.2l-3.8,9.3
		H331.9z"/>
	<path class="st1" d="M358.3,277.2l-1.1-1.3l-1,1.3h-4.3l4-3.9h2.6l4.1,3.9H358.3z M351.9,299.5v-20.8h10.4v4.2h-6.2v4.2h5.5v4.1
		h-5.5v4.2h6.6v4.2H351.9z"/>
	<path class="st1" d="M377.7,299.5l-4.2-7.9h-2v7.9h-4.2v-20.8h8.2c7.4,0,8.1,10.4,2,12.2l4.8,8.6H377.7z M371.5,287.6h3.7
		c2.8,0,2.8-4.6,0-4.6h-3.7V287.6z"/>
	<path class="st1" d="M386,299.5v-20.8h10.4v4.2h-6.2v4.2h5.5v4.1h-5.5v4.2h6.6v4.2H386z"/>
	<path class="st1" d="M405.6,278.8v16.6h6.6v4.2h-10.7v-20.8H405.6z"/>
	<path class="st1" d="M421.8,299.5h-6.2v-20.8h6.2C435.6,278.8,435.6,299.5,421.8,299.5z M419.8,282.9v12.5h2c8.1,0,8.1-12.5,0-12.5
		H419.8z"/>
	<path class="st1" d="M325.1,326.5c2.4,1.7,5,1.7,5.9,1.7c1.2-0.1,2.3-1,2.1-2.1c-0.1-1.2-1-1.7-2.1-2.1c-3.2-1.2-6.2-2.8-6.2-6.3
		s2.4-6.2,5.9-6.3c1.1-0.1,2.5-0.1,5.2,0.9l-0.5,4c-2.3-0.9-3.6-0.9-4.2-0.9c-1.5,0.1-2.1,1.2-2.1,2.3c0.1,1.2,1.1,1.7,2.3,2.1
		c3.2,1.2,6,3,6,6.4c0,3.5-2.4,6.1-6.3,6.3c-1.2,0.1-3.7-0.1-6.6-1.5L325.1,326.5z"/>
	<path class="st1" d="M343.6,332.2v-16.6h-5.2v-4.1H353v4.1h-5.2v16.6H343.6z"/>
	<path class="st1" d="M361.4,310.7h0.4l8.7,21.5h-4.7l-0.8-2.2h-6.9l-0.8,2.2h-4.7L361.4,310.7z M363.5,326l-1.9-5.4l-1.9,5.4H363.5
		z"/>
	<path class="st1" d="M375.3,332.2v-16.6h-5.2v-4.1h14.5v4.1h-5.2v16.6H375.3z"/>
	<path class="st1" d="M387.6,332.2v-20.8h4.2v20.8H387.6z"/>
	<path class="st1" d="M396.7,326.5c2.4,1.7,5,1.7,5.9,1.7c1.2-0.1,2.3-1,2.1-2.1c-0.1-1.2-1-1.7-2.1-2.1c-3.2-1.2-6.2-2.8-6.2-6.3
		s2.4-6.2,5.9-6.3c1.1-0.1,2.5-0.1,5.2,0.9l-0.5,4c-2.3-0.9-3.6-0.9-4.2-0.9c-1.5,0.1-2.1,1.2-2.1,2.3c0.1,1.2,1.1,1.7,2.3,2.1
		c3.2,1.2,6,3,6,6.4c0,3.5-2.4,6.1-6.3,6.3c-1.2,0.1-3.7-0.1-6.6-1.5L396.7,326.5z"/>
	<path class="st1" d="M415.3,332.2v-16.6h-5.2v-4.1h14.5v4.1h-5.2v16.6H415.3z"/>
	<path class="st1" d="M427.6,332.2v-20.8h4.2v20.8H427.6z"/>
	<path class="st1" d="M437.1,332.2v-20.8h10.4v4.2h-6.2v4.2h5.5v4.1h-5.5v4.2h6.6v4.2H437.1z"/>
	<path class="st1" d="M452.6,311.4h4.2c0,2.8,0,5.5,0,8.3l5.2-8.3h4.8l-6.7,10.2l7.3,10.5h-5.1l-5.5-8.1c0,2.7,0,5.5,0,8.1h-4.2
		V311.4z"/>
	<path class="st1" d="M470.1,332.2v-20.8h10.4v4.2h-6.2v4.2h5.5v4.1h-5.5v4.2h6.6v4.2H470.1z"/>
	<path class="st1" d="M331.7,364.8h-6.2v-20.8h6.2C345.5,344.1,345.5,364.8,331.7,364.8z M329.7,348.2v12.5h2c8.1,0,8.1-12.5,0-12.5
		H329.7z"/>
	<path class="st1" d="M352.2,343.3h0.4l8.7,21.5h-4.7l-0.8-2.2H349l-0.8,2.2h-4.7L352.2,343.3z M354.3,358.7l-1.9-5.4l-1.9,5.4
		H354.3z"/>
	<path class="st1" d="M373.2,364.9c-13.7,0-14.4-20.5,0-21c2.5-0.1,4.5,0.6,4.8,0.8l-0.5,4.2c-0.8-0.3-2.1-0.8-4.4-0.8
		c-8.4,0.3-8,12.7,0,12.7c0.4,0,0.8-0.1,1.2-0.1v-6.2h4.2v9.1C376.9,364.4,375.1,364.9,373.2,364.9z"/>
	<path class="st2" d="M329.4,383.7c0-0.8-0.6-1.4-1.5-1.4c-1.3-0.1-2.8,0.7-3.3,1.1l-0.7-2.8c1.1-0.8,2.8-1.4,4.2-1.3
		c4.2,0.2,5.6,3.9,3.2,7.2l-2.8,4.4h4.2v2.9h-9.4l5.3-8.5C329.4,384.3,329.4,383.7,329.4,383.7z"/>
	<path class="st2" d="M335.1,386.7c0-4.1,1.4-7.3,4.9-7.3c3.6,0,4.9,3.3,4.9,7.3c0,4.1-1.4,7.3-4.9,7.3
		C336.5,394,335.1,390.7,335.1,386.7z M342.2,386.7c0-2.6-0.5-4.7-2.2-4.7c-1.6,0-2.1,2.1-2.1,4.7c0,2.6,0.5,4.7,2.1,4.7
		C341.6,391.3,342.2,389.3,342.2,386.7z"/>
	<path class="st2" d="M348.6,394c-2.2,0-2.2-3.2,0-3.2C350.8,390.8,350.7,394,348.6,394z"/>
	<path class="st2" d="M351.8,379.6h5.2v14.2h-2.8v-11.4h-2.3V379.6z"/>
	<path class="st2" d="M360.1,386.7c0-4.1,1.4-7.3,4.9-7.3c3.6,0,4.9,3.3,4.9,7.3c0,4.1-1.4,7.3-4.9,7.3
		C361.5,394,360.1,390.7,360.1,386.7z M367.2,386.7c0-2.6-0.5-4.7-2.2-4.7c-1.6,0-2.1,2.1-2.1,4.7c0,2.6,0.5,4.7,2.1,4.7
		C366.7,391.3,367.2,389.3,367.2,386.7z"/>
	<path class="st2" d="M373.6,394c-2.2,0-2.2-3.2,0-3.2C375.8,390.8,375.8,394,373.6,394z"/>
	<path class="st2" d="M383.4,383.7c0-0.8-0.6-1.4-1.5-1.4c-1.3-0.1-2.8,0.7-3.3,1.1l-0.7-2.8c1.1-0.8,2.8-1.4,4.2-1.3
		c4.2,0.2,5.6,3.9,3.2,7.2l-2.8,4.4h4.2v2.9h-9.4l5.3-8.5C383.4,384.3,383.4,383.7,383.4,383.7z"/>
	<path class="st2" d="M389.1,386.7c0-4.1,1.4-7.3,4.9-7.3c3.6,0,4.9,3.3,4.9,7.3c0,4.1-1.4,7.3-4.9,7.3
		C390.5,394,389.1,390.7,389.1,386.7z M396.1,386.7c0-2.6-0.5-4.7-2.2-4.7c-1.6,0-2.1,2.1-2.1,4.7c0,2.6,0.5,4.7,2.1,4.7
		C395.6,391.3,396.1,389.3,396.1,386.7z"/>
	<path class="st2" d="M400.7,379.6h5.2v14.2h-2.8v-11.4h-2.3V379.6z"/>
	<path class="st2" d="M417.8,389.6c0,2.4-1.6,4.2-4.3,4.3c-0.7,0-2.7,0-4.5-0.6l0.3-2.8c4.4,1.5,5.7,0.3,5.7-0.9
		c0-1.7-1.1-2.2-5.4-2.5v-7.5h7.3v2.7h-4.4v2.5C415.9,385.1,417.8,386.3,417.8,389.6z"/>
	<path class="st1" d="M324.7,411h5.1c2.3,0,3.7,1.7,3.7,3.9c0,1-0.4,2-1.2,2.6c0.9,0.6,1.3,1.6,1.3,2.6c0,2.2-1.7,3.9-3.8,3.9h-5.1
		V411z M327.3,416.2h1.6h0.7c0.7,0,1.2-0.6,1.2-1.3c0-0.7-0.5-1.3-1.2-1.3h-2.3V416.2z M327.3,421.4h1.6h0.7c0.7,0,1.3-0.6,1.3-1.3
		s-0.6-1.3-1.3-1.3h-2.3V421.4z"/>
	<path class="st1" d="M337,424v-13h6.5v2.6h-3.9v2.6h3.4v2.6h-3.4v2.6h4.1v2.6H337z"/>
	<path class="st1" d="M348.7,424v-10.4h-3.2v-2.6h9.1v2.6h-3.2V424H348.7z"/>
	<path class="st1" d="M356.9,424v-13h6.5v2.6h-3.9v2.6h3.4v2.6h-3.4v2.6h4.1v2.6H356.9z"/>
	<path class="st1" d="M373.6,424l-2.6-5h-1.3v5h-2.6v-13h5.1c4.6,0,5.1,6.5,1.3,7.6l3,5.4H373.6z M369.7,416.5h2.3
		c1.8,0,1.8-2.9,0-2.9h-2.3V416.5z"/>
	<path class="st1" d="M388.4,424h-3.9v-13h3.9C397,411,397,424,388.4,424z M387.1,413.6v7.8h1.3c5,0,5-7.8,0-7.8H387.1z"/>
	<path class="st1" d="M401.7,410.6h0.3l5.5,13.4h-2.9l-0.5-1.4h-4.3l-0.5,1.4h-2.9L401.7,410.6z M403.1,420.2l-1.2-3.4l-1.2,3.4
		H403.1z"/>
	<path class="st1" d="M411,424v-10.4h-3.2v-2.6h9.1v2.6h-3.2V424H411z"/>
	<path class="st1" d="M422.6,410.6h0.3l5.5,13.4h-2.9l-0.5-1.4h-4.3l-0.5,1.4h-2.9L422.6,410.6z M423.9,420.2l-1.2-3.4l-1.2,3.4
		H423.9z"/>
	<path class="st1" d="M432.3,424.1c-2,0-2-2.9,0-2.9C434.3,421.2,434.3,424.1,432.3,424.1z"/>
	<path class="st1" d="M324.7,433.9h5.1c2.3,0,3.7,1.7,3.7,3.9c0,1-0.4,2-1.2,2.6c0.9,0.6,1.3,1.6,1.3,2.6c0,2.2-1.7,3.9-3.8,3.9
		h-5.1V433.9z M327.3,439.1h1.6h0.7c0.7,0,1.2-0.6,1.2-1.3c0-0.7-0.5-1.3-1.2-1.3h-2.3V439.1z M327.3,444.3h1.6h0.7
		c0.7,0,1.3-0.6,1.3-1.3s-0.6-1.3-1.3-1.3h-2.3V444.3z"/>
	<path class="st1" d="M337,446.9v-13h6.5v2.6h-3.9v2.6h3.4v2.6h-3.4v2.6h4.1v2.6H337z"/>
	<path class="st1" d="M348.7,446.9v-10.4h-3.2V434h9.1v2.6h-3.2v10.4H348.7z"/>
	<path class="st1" d="M356.9,446.9v-13h6.5v2.6h-3.9v2.6h3.4v2.6h-3.4v2.6h4.1v2.6H356.9z"/>
	<path class="st1" d="M373.6,446.9l-2.6-5h-1.3v5h-2.6v-13h5.1c4.6,0,5.1,6.5,1.3,7.6l3,5.4H373.6z M369.7,439.4h2.3
		c1.8,0,1.8-2.9,0-2.9h-2.3V439.4z"/>
	<path class="st1" d="M387.1,434v10.4h4.1v2.6h-6.7v-13H387.1z"/>
	<path class="st1" d="M393.9,446.9v-13h6.5v2.6h-3.9v2.6h3.4v2.6h-3.4v2.6h4.1v2.6H393.9z"/>
	<path class="st1" d="M407.5,447.2l-5.3-13.2h2.9l2.6,6.6l2.5-6.5h0.1l2.5,6.5l2.6-6.6h2.9l-5.3,13.2h-0.5l-2.4-5.8l-2.4,5.8H407.5z
		"/>
	<path class="st1" d="M420.5,446.9v-13h6.5v2.6h-3.9v2.6h3.4v2.6h-3.4v2.6h4.1v2.6H420.5z"/>
	<path class="st1" d="M433.3,446.9h-2.6v-13.2h0.7l6.5,7.6V434h2.6v13.2h-0.7l-6.6-7.3V446.9z"/>
	<path class="st1" d="M444.2,443.4c1.5,1.1,3.1,1.1,3.7,1c0.8-0.1,1.4-0.6,1.3-1.3c-0.1-0.7-0.6-1.1-1.3-1.3c-2-0.7-3.8-1.8-3.8-4
		c0-2.2,1.5-3.8,3.7-4c0.7,0,1.6,0,3.2,0.5l-0.3,2.5c-1.4-0.6-2.2-0.6-2.6-0.5c-0.9,0.1-1.3,0.7-1.3,1.5c0.1,0.7,0.7,1.1,1.5,1.3
		c2,0.7,3.8,1.9,3.8,4c0,2.2-1.5,3.8-3.9,3.9c-0.7,0.1-2.3,0-4.1-0.9L444.2,443.4z"/>
	<path class="st1" d="M456,447c-2,0-2-2.9,0-2.9C458,444.1,457.9,447,456,447z"/>
</g>
<g id="XMLID_17_">
	<path id="XMLID_18_" class="st3" d="M208.9,344.5c-7.9,0-15.7-1.1-23.3-3.1c-1.3-0.4-2.6-0.8-4-1.2c-21.1-6.8-38.8-21.1-49.9-40.4
		c-11.8-20.6-14.9-44.6-8.7-67.5c6.2-22.9,21-42,41.6-53.8c13.5-7.7,28.7-11.8,44-11.8c7.9,0,15.7,1.1,23.4,3.1
		c22.9,6.2,42,21,53.8,41.6c10,17.5,13.8,37.2,10.8,57l-0.1,0.6H288l0.1-0.8c3-18.3-0.4-36.5-9.6-52.6c-10.7-18.6-28-32-48.7-37.6
		c-6.9-1.9-14.1-2.8-21.2-2.8c-13.9,0-27.6,3.7-39.8,10.7c-18.6,10.7-32,27.9-37.6,48.7c-5.6,20.7-2.8,42.4,7.8,61
		c10.7,18.6,27.9,32,48.7,37.6c7.8,2.1,16.1,3,24.3,2.7l0.4-0.1c6.5-0.3,13.1-1.4,19.6-3.4l0.2,0l0.2,0c5,1,10.3,1.5,15.7,1.5l2.9,0
		l-2.6,1.3c-4.2,2.1-8.6,3.8-13,5.2l-0.2,0.1c-0.2,0.1-0.3,0.2-0.5,0.2C226.3,343.2,217.6,344.5,208.9,344.5z"/>
</g>
<path id="XMLID_10_" class="st1" d="M240,252.7c-1-7.3-8-12.5-15.6-11.5c-7.6,1.1-12.8,8-11.8,15.3c1,7.4,7.9,12.5,15.5,11.5
	C235.7,266.9,241,260.1,240,252.7z M227.1,261.2c-3.8,0.5-7-1.9-7.5-5.7c-0.5-3.7,1.9-7.1,5.7-7.6c3.8-0.5,7,2.1,7.6,5.8
	C233.4,257.4,230.9,260.7,227.1,261.2z"/>
<path id="XMLID_7_" class="st1" d="M276,285.3c-1-7.3-8-12.5-15.6-11.5c-7.6,1.1-12.8,8-11.8,15.3c1,7.4,7.9,12.5,15.5,11.5
	C271.7,299.6,277,292.7,276,285.3z M263.2,293.9c-3.8,0.5-7-1.9-7.5-5.7c-0.5-3.7,1.9-7.1,5.7-7.6c3.8-0.5,7,2.1,7.6,5.8
	C269.4,290.1,266.9,293.3,263.2,293.9z"/>
<g id="XMLID_4_">
	<path id="XMLID_5_" class="st1" d="M224.7,298.3h-11l48.8-53.3h11L224.7,298.3z"/>
</g>
<path id="XMLID_3_" class="st1" d="M252.9,321c-1.5,0.1-3,0.2-4.4,0.2c-20.6,0-33.2-7.6-40.3-14.1c-9.9-9-15.5-21.7-15.5-34.7v-0.7
	h-8.5v0.7c0,15.4,6.7,30.4,18.3,41c8.2,7.4,22.7,16.3,46,16.3c2.6,0,5.3-0.1,8.1-0.4L252.9,321z"/>
</svg>
