<?xml version="1.0" encoding="utf-8"?>
<!-- Generator: Adobe Illustrator 19.0.0, SVG Export Plug-In . SVG Version: 6.00 Build 0)  -->
<svg version="1.1" id="Layer_1" xmlns="http://www.w3.org/2000/svg" xmlns:xlink="http://www.w3.org/1999/xlink" x="0px" y="0px"
	 viewBox="0 0 612 612" style="enable-background:new 0 0 612 612;" xml:space="preserve">
<metadata><?xpacket begin="﻿" id="W5M0MpCehiHzreSzNTczkc9d"?>
<x:xmpmeta xmlns:x="adobe:ns:meta/" x:xmptk="Adobe XMP Core 5.6-c067 79.157747, 2015/03/30-23:40:42        ">
   <rdf:RDF xmlns:rdf="http://www.w3.org/1999/02/22-rdf-syntax-ns#">
      <rdf:Description rdf:about=""/>
   </rdf:RDF>
</x:xmpmeta>
                                                                                                    
                                                                                                    
                                                                                                    
                                                                                                    
                                                                                                    
                                                                                                    
                                                                                                    
                                                                                                    
                                                                                                    
                                                                                                    
                                                                                                    
                                                                                                    
                                                                                                    
                                                                                                    
                                                                                                    
                                                                                                    
                                                                                                    
                                                                                                    
                                                                                                    
                                                                                                    
                           
<?xpacket end="w"?></metadata>
<style type="text/css">
	.st0{fill:#FFFFFF;}
	.st1{fill:#0083BF;}
	.st2{fill:#59AFE1;}
	.st3{fill:#74C1EC;}
</style>
<rect y="0" class="st0" width="612" height="612"/>
<g>
	<g>
		<path class="st1" d="M308.3,301.1c-12.9,0-13.6-19.4,0-19.9c2.3-0.1,4.2,0.6,4.6,0.7l-0.5,4c-0.8-0.3-2-0.8-4.1-0.7
			c-7.9,0.3-7.6,12,0,12c0.4,0,0.7-0.1,1.1-0.1v-5.9h4v8.6C311.8,300.6,310.1,301.1,308.3,301.1z"/>
		<path class="st1" d="M318.2,301v-19.6h3.9V301H318.2z"/>
		<path class="st1" d="M336.4,281.1c13.5,0,13.5,20.2,0,20.2C322.9,301.2,322.9,281.1,336.4,281.1z M336.4,285.1
			c-7.8,0-7.8,12.1,0,12.1C344.2,297.2,344.2,285.1,336.4,285.1z"/>
		<path class="st1" d="M360.3,301l-3.9-7.5h-1.9v7.5h-3.9v-19.6h7.7c7,0,7.7,9.8,1.9,11.5l4.5,8.1H360.3z M354.4,289.7h3.5
			c2.7,0,2.7-4.4,0-4.4h-3.5V289.7z"/>
		<path class="st1" d="M372,301h-3.9v-20h1l9.9,11.5v-11.1h3.9v20h-1l-9.9-11.1V301z"/>
		<path class="st1" d="M393.8,280.7h0.4l8.2,20.3h-4.4l-0.8-2.1h-6.5L390,301h-4.4L393.8,280.7z M395.8,295.2l-1.8-5.1l-1.8,5.1
			H395.8z"/>
		<path class="st1" d="M407.1,301v-15.7h-4.9v-3.9h13.7v3.9H411V301H407.1z"/>
		<path class="st1" d="M424,280.7h0.4l8.2,20.3h-4.4l-0.8-2.1H421l-0.8,2.1h-4.4L424,280.7z M426,295.2l-1.8-5.1l-1.8,5.1H426z"/>
		<path class="st1" d="M315.9,311.9h1.2v19.9h-4l0-10.9l-5,5.3l-5-5.3v10.9h-4v-19.9h1.3l7.7,8.6L315.9,311.9z"/>
		<path class="st1" d="M331.3,311.9c13.5,0,13.5,20.2,0,20.2C317.8,332,317.8,311.9,331.3,311.9z M331.3,315.9
			c-7.8,0-7.8,12.1,0,12.1C339.1,328,339.1,315.9,331.3,315.9z"/>
		<path class="st1" d="M349.3,331.8h-3.9v-20h1l9.9,11.5v-11.1h3.9v20h-1l-9.9-11.1V331.8z"/>
		<path class="st1" d="M371.2,331.8h-5.8v-19.6h5.8C384.2,312.2,384.2,331.8,371.2,331.8z M369.3,316.1v11.7h1.9
			c7.6,0,7.6-11.7,0-11.7H369.3z"/>
		<path class="st1" d="M385,331.8v-19.6h3.9v19.6H385z"/>
		<path class="st1" d="M399.8,311.5h0.4l8.2,20.3H404l-0.8-2.1h-6.5l-0.8,2.1h-4.4L399.8,311.5z M401.8,326l-1.8-5.1l-1.8,5.1H401.8
			z"/>
		<path class="st1" d="M415.1,312.2v15.7h6.2v3.9h-10.1v-19.6H415.1z"/>
		<path class="st1" d="M424.6,331.8v-19.6h9.8v3.9h-5.9v3.9h5.1v3.9h-5.1v3.9h6.2v3.9H424.6z"/>
		<path class="st1" d="M305,362.6h-5.8V343h5.8C318.1,343,318.1,362.6,305,362.6z M303.1,346.9v11.7h1.9c7.6,0,7.6-11.7,0-11.7
			H303.1z"/>
		<path class="st1" d="M318.9,362.6V343h9.8v3.9h-5.9v3.9h5.1v3.9h-5.1v3.9h6.2v3.9H318.9z"/>
		<path class="st1" d="M337.3,343v15.7h6.2v3.9h-10.1V343H337.3z"/>
		<path class="st1" d="M350.7,343v15.7h6.2v3.9h-10.1V343H350.7z"/>
		<path class="st1" d="M366,342.3h0.4l8.2,20.3h-4.4l-0.8-2.1h-6.5l-0.8,2.1h-4.4L366,342.3z M368,356.8l-1.8-5.1l-1.8,5.1H368z"/>
		<path class="st1" d="M384.7,357.2c2.2,1.6,4.7,1.6,5.6,1.6c1.2-0.1,2.1-0.9,2-2c-0.1-1.1-0.9-1.6-2-2c-3.1-1.1-5.8-2.7-5.8-6
			c0-3.3,2.3-5.8,5.5-6c1-0.1,2.4-0.1,4.9,0.8l-0.5,3.8c-2.2-0.9-3.4-0.8-4-0.8c-1.4,0.1-2,1.1-1.9,2.2c0.1,1.1,1.1,1.6,2.2,2
			c3,1.1,5.7,2.9,5.7,6c0,3.3-2.2,5.8-5.9,5.9c-1.1,0.1-3.5-0.1-6.2-1.4L384.7,357.2z"/>
		<path class="st1" d="M402.3,362.6v-15.7h-4.9V343h13.7v3.9h-4.9v15.7H402.3z"/>
		<path class="st1" d="M419.3,342.3h0.4l8.2,20.3h-4.4l-0.8-2.1h-6.5l-0.8,2.1H411L419.3,342.3z M421.3,356.8l-1.8-5.1l-1.8,5.1
			H421.3z"/>
		<path class="st1" d="M432.5,362.6v-15.7h-4.9V343h13.7v3.9h-4.9v15.7H432.5z"/>
		<path class="st1" d="M444.2,362.6V343h3.9v19.6H444.2z"/>
		<path class="st1" d="M452.8,357.2c2.2,1.6,4.7,1.6,5.6,1.6c1.2-0.1,2.1-0.9,2-2c-0.1-1.1-0.9-1.6-2-2c-3.1-1.1-5.8-2.7-5.8-6
			c0-3.3,2.3-5.8,5.5-6c1-0.1,2.4-0.1,4.9,0.8l-0.5,3.8c-2.2-0.9-3.4-0.8-4-0.8c-1.4,0.1-2,1.1-1.9,2.2c0.1,1.1,1.1,1.6,2.2,2
			c3,1.1,5.7,2.9,5.7,6c0,3.3-2.2,5.8-5.9,5.9c-1.1,0.1-3.5-0.1-6.2-1.4L452.8,357.2z"/>
		<path class="st1" d="M470.4,362.6v-15.7h-4.9V343h13.7v3.9h-4.9v15.7H470.4z"/>
		<path class="st1" d="M482.1,362.6V343h3.9v19.6H482.1z"/>
		<path class="st1" d="M500,346.7c-7.7,0-7.7,11.9,0,11.9c1.7,0,3-0.5,3.8-0.9l0.5,4.1c-1.2,0.5-2.9,0.8-4.3,0.8
			c-13.3,0-13.3-19.9,0-19.9c1.4,0,2.7,0.2,3.9,0.8l-0.5,4C502.6,347.2,501.7,346.7,500,346.7z"/>
		<path class="st1" d="M513.7,342.3h0.4l8.2,20.3h-4.4l-0.8-2.1h-6.5l-0.8,2.1h-4.4L513.7,342.3z M515.7,356.8l-1.8-5.1l-1.8,5.1
			H515.7z"/>
		<path class="st2" d="M302.8,380.4c0-0.8-0.6-1.3-1.4-1.4c-1.2-0.1-2.7,0.7-3.1,1.1l-0.7-2.6c1-0.8,2.7-1.3,4-1.2
			c3.9,0.2,5.3,3.7,3,6.8l-2.7,4.1h4v2.7h-8.9l5-8C302.9,381,302.8,380.4,302.8,380.4z"/>
		<path class="st2" d="M308.2,383.2c0-3.8,1.3-6.9,4.6-6.9c3.3,0,4.6,3.1,4.6,6.9c0,3.8-1.3,6.9-4.6,6.9
			C309.5,390.1,308.2,387,308.2,383.2z M314.9,383.2c0-2.4-0.5-4.4-2-4.4c-1.5,0-2,2-2,4.4c0,2.4,0.5,4.4,2,4.4
			C314.4,387.6,314.9,385.7,314.9,383.2z"/>
		<path class="st2" d="M321,390.1c-2,0-2-3,0-3C323.1,387.1,323,390.1,321,390.1z"/>
		<path class="st2" d="M324.1,376.5h4.9V390h-2.7v-10.7h-2.2V376.5z"/>
		<path class="st2" d="M332,383.2c0-3.8,1.3-6.9,4.6-6.9c3.3,0,4.6,3.1,4.6,6.9c0,3.8-1.3,6.9-4.6,6.9
			C333.3,390.1,332,387,332,383.2z M338.6,383.2c0-2.4-0.5-4.4-2-4.4c-1.5,0-2,2-2,4.4c0,2.4,0.5,4.4,2,4.4
			C338.1,387.6,338.6,385.7,338.6,383.2z"/>
		<path class="st2" d="M344.7,390.1c-2,0-2-3,0-3C346.8,387.1,346.8,390.1,344.7,390.1z"/>
		<path class="st2" d="M353.9,380.4c0-0.8-0.6-1.3-1.4-1.4c-1.2-0.1-2.7,0.7-3.1,1.1l-0.7-2.6c1-0.8,2.7-1.3,4-1.2
			c3.9,0.2,5.3,3.7,3,6.8l-2.7,4.1h4v2.7h-8.9l5-8C353.9,381,353.9,380.4,353.9,380.4z"/>
		<path class="st2" d="M359.3,383.2c0-3.8,1.3-6.9,4.6-6.9c3.3,0,4.6,3.1,4.6,6.9c0,3.8-1.3,6.9-4.6,6.9
			C360.6,390.1,359.3,387,359.3,383.2z M365.9,383.2c0-2.4-0.5-4.4-2-4.4c-1.5,0-2,2-2,4.4c0,2.4,0.5,4.4,2,4.4
			C365.4,387.6,365.9,385.7,365.9,383.2z"/>
		<path class="st2" d="M370.3,376.5h4.9V390h-2.7v-10.7h-2.2V376.5z"/>
		<path class="st2" d="M386.4,386c0,2.2-1.5,3.9-4,4.1c-0.7,0-2.5,0-4.3-0.6l0.2-2.7c4.2,1.4,5.4,0.3,5.4-0.8c0-1.6-1-2.1-5.1-2.4
			v-7.1h6.8v2.6h-4.1v2.4C384.7,381.7,386.4,382.9,386.4,386z"/>
		<path class="st1" d="M300.8,406.2v9.8h3.9v2.4h-6.3v-12.2H300.8z"/>
		<path class="st1" d="M310.9,405.8h0.3l5.1,12.7h-2.8l-0.5-1.3H309l-0.5,1.3h-2.8L310.9,405.8z M312.1,414.8l-1.1-3.2l-1.1,3.2
			H312.1z"/>
		<path class="st1" d="M323.9,406.2h4.8c2.2,0,3.5,1.6,3.5,3.7c0,0.9-0.4,1.9-1.1,2.4c0.8,0.5,1.3,1.5,1.3,2.4
			c0,2.1-1.6,3.7-3.6,3.7h-4.8V406.2z M326.4,411.1h1.5h0.7c0.7,0,1.1-0.6,1.1-1.2c0-0.7-0.4-1.2-1.1-1.2h-2.2V411.1z M326.4,416
			h1.5h0.7c0.7,0,1.2-0.5,1.2-1.2c0-0.7-0.5-1.2-1.2-1.2h-2.2V416z"/>
		<path class="st1" d="M335.5,414.2v-8h2.4v8c0,2.6,4,2.6,4,0v-8h2.4v8C344.3,420,335.5,420,335.5,414.2z"/>
		<path class="st1" d="M353.6,406c8.4,0,8.4,12.6,0,12.6C345.2,418.6,345.2,406,353.6,406z M353.6,408.5c-4.9,0-4.9,7.6,0,7.6
			C358.5,416.1,358.5,408.5,353.6,408.5z"/>
		<path class="st1" d="M365.5,418.4H363v-12.5h0.6l6.2,7.2v-6.9h2.5v12.5h-0.6l-6.2-6.9V418.4z"/>
		<path class="st1" d="M379.7,405.8h0.3l5.1,12.7h-2.8l-0.5-1.3h-4.1l-0.5,1.3h-2.8L379.7,405.8z M380.9,414.8l-1.1-3.2l-1.1,3.2
			H380.9z"/>
		<path class="st1" d="M392.5,415.1c1.4,1,2.9,1,3.5,1c0.7-0.1,1.3-0.6,1.3-1.2c-0.1-0.7-0.6-1-1.3-1.2c-1.9-0.7-3.6-1.7-3.6-3.7
			c0-2.1,1.4-3.6,3.5-3.7c0.6,0,1.5,0,3,0.5l-0.3,2.4c-1.4-0.5-2.1-0.5-2.5-0.5c-0.9,0-1.3,0.7-1.2,1.4c0.1,0.7,0.7,1,1.4,1.2
			c1.9,0.7,3.5,1.8,3.5,3.7c0,2-1.4,3.6-3.7,3.7c-0.7,0.1-2.2,0-3.9-0.9L392.5,415.1z"/>
		<path class="st1" d="M404.1,418.4v-9.8h-3v-2.4h8.5v2.4h-3v9.8H404.1z"/>
		<path class="st1" d="M415.2,405.8h0.3l5.1,12.7h-2.8l-0.5-1.3h-4.1l-0.5,1.3h-2.8L415.2,405.8z M416.5,414.8l-1.1-3.2l-1.1,3.2
			H416.5z"/>
		<path class="st1" d="M424.1,418.4v-9.8h-3v-2.4h8.5v2.4h-3v9.8H424.1z"/>
		<path class="st1" d="M432,418.4v-12.2h2.4v12.2H432z"/>
		<path class="st1" d="M437.9,415.1c1.4,1,2.9,1,3.5,1c0.7-0.1,1.3-0.6,1.3-1.2c-0.1-0.7-0.6-1-1.3-1.2c-1.9-0.7-3.6-1.7-3.6-3.7
			c0-2.1,1.4-3.6,3.5-3.7c0.6,0,1.5,0,3,0.5l-0.3,2.4c-1.4-0.5-2.1-0.5-2.5-0.5c-0.9,0-1.3,0.7-1.2,1.4c0.1,0.7,0.7,1,1.4,1.2
			c1.9,0.7,3.5,1.8,3.5,3.7c0,2-1.4,3.6-3.7,3.7c-0.7,0.1-2.2,0-3.9-0.9L437.9,415.1z"/>
		<path class="st1" d="M449.5,418.4v-9.8h-3v-2.4h8.5v2.4h-3v9.8H449.5z"/>
		<path class="st1" d="M457.3,418.4v-12.2h2.4v12.2H457.3z"/>
		<path class="st1" d="M469,408.5c-4.8,0-4.8,7.5,0,7.5c1.1,0,1.9-0.3,2.4-0.5l0.3,2.5c-0.8,0.3-1.8,0.5-2.7,0.5
			c-8.3,0-8.3-12.4,0-12.4c0.9,0,1.7,0.2,2.4,0.5l-0.3,2.5C470.7,408.8,470.1,408.5,469,408.5z"/>
		<path class="st1" d="M478.2,405.8h0.3l5.1,12.7h-2.8l-0.5-1.3h-4.1l-0.5,1.3H473L478.2,405.8z M479.4,414.8l-1.1-3.2l-1.1,3.2
			H479.4z"/>
		<path class="st1" d="M308.8,426.6h0.8V439h-2.5l0-6.8l-3.1,3.3l-3.1-3.3v6.8h-2.5v-12.4h0.8l4.8,5.4L308.8,426.6z"/>
		<path class="st1" d="M313.3,439v-12.2h2.4V439H313.3z"/>
		<path class="st1" d="M325,439c-8.1,0-8.5-12.1,0-12.4c1.5,0,2.6,0.4,2.9,0.4l-0.3,2.5c-0.5-0.2-1.3-0.5-2.6-0.4
			c-4.9,0.2-4.7,7.5,0,7.5c0.2,0,0.5,0,0.7-0.1v-3.7h2.5v5.4C327.2,438.7,326.1,439,325,439z"/>
		<path class="st1" d="M334.2,426.7v9.8h3.9v2.4h-6.3v-12.2H334.2z"/>
		<path class="st1" d="M340.7,439v-12.2h2.4V439H340.7z"/>
		<path class="st1" d="M352.6,426.5c8.4,0,8.4,12.6,0,12.6C344.1,439.1,344.1,426.5,352.6,426.5z M352.6,429.1c-4.9,0-4.9,7.6,0,7.6
			C357.4,436.6,357.4,429.1,352.6,429.1z"/>
		<path class="st1" d="M368,439l-2.5-4.7h-1.2v4.7H362v-12.2h4.8c4.4,0,4.8,6.1,1.2,7.2l2.8,5H368z M364.4,431.9h2.2
			c1.7,0,1.7-2.7,0-2.7h-2.2V431.9z"/>
		<path class="st1" d="M377,426.3h0.3l5.1,12.7h-2.8l-0.5-1.3h-4.1l-0.5,1.3h-2.8L377,426.3z M378.3,435.4l-1.1-3.2l-1.1,3.2H378.3z
			"/>
		<path class="st1" d="M392.5,426.7v9.8h3.9v2.4h-6.3v-12.2H392.5z"/>
		<path class="st1" d="M402.6,426.3h0.3L408,439h-2.8l-0.5-1.3h-4.1l-0.5,1.3h-2.8L402.6,426.3z M403.8,435.4l-1.1-3.2l-1.1,3.2
			H403.8z"/>
		<path class="st1" d="M419.4,439.2l-5.1-12.5h2.8l1.6,4.1l0.9,2.5l0.9-2.4l1.6-4.2h2.8l-5.1,12.5H419.4z"/>
		<path class="st1" d="M427.1,439v-12.2h2.4V439H427.1z"/>
		<path class="st1" d="M434.8,439v-9.8h-3v-2.4h8.5v2.4h-3v9.8H434.8z"/>
		<path class="st1" d="M446,426.3h0.3l5.1,12.7h-2.8l-0.5-1.3h-4.1l-0.5,1.3h-2.8L446,426.3z M447.3,435.4l-1.1-3.2l-1.1,3.2H447.3z
			"/>
		<path class="st1" d="M455.1,439.1c-1.8,0-1.8-2.8,0-2.8C457,436.3,456.9,439.1,455.1,439.1z"/>
	</g>
</g>
<g>
	<path class="st3" d="M189.1,343.4c-7.4,0-14.8-1-22-2.9c-1.2-0.3-2.5-0.7-3.7-1.1c-19.9-6.4-36.6-19.9-47.1-38.1
		c-11.1-19.4-14-42-8.2-63.7c5.9-21.6,19.8-39.7,39.2-50.8c12.7-7.3,27.1-11.1,41.6-11.1c7.4,0,14.8,1,22.1,3
		c21.6,5.9,39.7,19.8,50.8,39.2c9.4,16.5,13,35.1,10.2,53.8l-0.1,0.5h-8.2l0.1-0.7c2.8-17.3-0.3-34.4-9.1-49.6
		c-10.1-17.6-26.4-30.2-45.9-35.5c-6.5-1.8-13.3-2.7-20-2.7c-13.1,0-26.1,3.5-37.6,10.1c-17.6,10.1-30.2,26.4-35.5,45.9
		c-5.3,19.5-2.7,40,7.4,57.5c10.1,17.6,26.4,30.2,45.9,35.5c7.4,2,15.1,2.9,22.9,2.5l0.4-0.1c6.1-0.3,12.4-1.3,18.5-3.2l0.2,0l0.2,0
		c4.7,0.9,9.7,1.4,14.8,1.4l2.7,0l-2.4,1.2c-4,2-8.1,3.6-12.3,4.9l-0.2,0.1c-0.2,0.1-0.3,0.2-0.5,0.2
		C205.6,342.2,197.4,343.4,189.1,343.4z"/>
</g>
<path class="st1" d="M218.5,256.8c-1-6.9-7.6-11.8-14.7-10.8c-7.2,1-12.1,7.5-11.1,14.4c1,7,7.5,11.8,14.7,10.8
	C214.4,270.2,219.4,263.8,218.5,256.8z M206.4,264.8c-3.5,0.5-6.6-1.8-7.1-5.4c-0.5-3.5,1.8-6.7,5.4-7.2c3.5-0.5,6.6,2,7.1,5.5
	C212.2,261.2,209.9,264.3,206.4,264.8z"/>
<path class="st1" d="M252.5,287.6c-1-6.9-7.6-11.8-14.7-10.8c-7.2,1-12.1,7.5-11.1,14.4c1,7,7.5,11.8,14.7,10.8
	C248.4,301,253.4,294.6,252.5,287.6z M240.4,295.7c-3.5,0.5-6.6-1.8-7.1-5.4c-0.5-3.5,1.8-6.7,5.4-7.2c3.5-0.5,6.6,2,7.1,5.5
	C246.2,292.1,243.9,295.2,240.4,295.7z"/>
<g>
	<path class="st1" d="M204.1,299.8h-10.4l46-50.3h10.4L204.1,299.8z"/>
</g>
<path class="st1" d="M230.6,321.3c-1.4,0.1-2.8,0.1-4.1,0.1c-19.4,0-31.4-7.2-38-13.3c-9.3-8.5-14.7-20.4-14.7-32.7v-0.6h-8.1v0.6
	c0,14.5,6.3,28.6,17.3,38.7c7.7,7,21.5,15.4,43.4,15.4c2.5,0,5-0.1,7.6-0.4L230.6,321.3z"/>
</svg>
