<?xml version="1.0" encoding="utf-8"?>
<!-- Generator: Adobe Illustrator 19.0.0, SVG Export Plug-In . SVG Version: 6.00 Build 0)  -->
<svg version="1.1" id="Layer_1" xmlns="http://www.w3.org/2000/svg" xmlns:xlink="http://www.w3.org/1999/xlink" x="0px" y="0px"
	 viewBox="0 0 612 612" style="enable-background:new 0 0 612 612;" xml:space="preserve">
<metadata><?xpacket begin="﻿" id="W5M0MpCehiHzreSzNTczkc9d"?>
<x:xmpmeta xmlns:x="adobe:ns:meta/" x:xmptk="Adobe XMP Core 5.6-c067 79.157747, 2015/03/30-23:40:42        ">
   <rdf:RDF xmlns:rdf="http://www.w3.org/1999/02/22-rdf-syntax-ns#">
      <rdf:Description rdf:about=""/>
   </rdf:RDF>
</x:xmpmeta>
                                                                                                    
                                                                                                    
                                                                                                    
                                                                                                    
                                                                                                    
                                                                                                    
                                                                                                    
                                                                                                    
                                                                                                    
                                                                                                    
                                                                                                    
                                                                                                    
                                                                                                    
                                                                                                    
                                                                                                    
                                                                                                    
                                                                                                    
                                                                                                    
                                                                                                    
                                                                                                    
                           
<?xpacket end="w"?></metadata>
<style type="text/css">
	.st0{fill:#0083BF;}
	.st1{fill:#FFFFFF;}
	.st2{fill:#90CEF1;}
	.st3{fill:#74C1EC;}
</style>
<rect y="0" class="st0" width="612" height="612"/>
<g>
	<g>
		<path class="st1" d="M307.3,301c-12.9,0-13.6-19.4,0-19.9c2.3-0.1,4.2,0.6,4.6,0.7l-0.5,4c-0.8-0.3-2-0.8-4.1-0.7
			c-7.9,0.3-7.6,12,0,12c0.4,0,0.7-0.1,1.1-0.1v-5.9h4v8.6C310.8,300.6,309.1,301,307.3,301z"/>
		<path class="st1" d="M317.3,300.9v-19.6h3.9v19.6H317.3z"/>
		<path class="st1" d="M335.4,281c13.5,0,13.5,20.2,0,20.2C321.9,301.2,321.9,281,335.4,281z M335.4,285.1c-7.8,0-7.8,12.1,0,12.1
			C343.2,297.2,343.2,285.1,335.4,285.1z"/>
		<path class="st1" d="M359.3,300.9l-3.9-7.5h-1.9v7.5h-3.9v-19.6h7.7c7,0,7.7,9.8,1.9,11.5l4.5,8.1H359.3z M353.4,289.7h3.5
			c2.7,0,2.7-4.4,0-4.4h-3.5V289.7z"/>
		<path class="st1" d="M371,300.9h-3.9v-20h1l9.9,11.5v-11.1h3.9v20h-1l-9.9-11.1V300.9z"/>
		<path class="st1" d="M392.8,280.6h0.4l8.2,20.3h-4.4l-0.8-2.1h-6.5l-0.8,2.1h-4.4L392.8,280.6z M394.8,295.2l-1.8-5.1l-1.8,5.1
			H394.8z"/>
		<path class="st1" d="M406.1,300.9v-15.7h-4.9v-3.9h13.7v3.9H410v15.7H406.1z"/>
		<path class="st1" d="M423,280.6h0.4l8.2,20.3h-4.4l-0.8-2.1H420l-0.8,2.1h-4.4L423,280.6z M425,295.2l-1.8-5.1l-1.8,5.1H425z"/>
		<path class="st1" d="M314.9,311.9h1.2v19.9h-4l0-10.9l-5,5.3l-5-5.3v10.9h-4v-19.9h1.3l7.7,8.6L314.9,311.9z"/>
		<path class="st1" d="M330.3,311.8c13.5,0,13.5,20.2,0,20.2C316.8,332,316.8,311.8,330.3,311.8z M330.3,315.9
			c-7.8,0-7.8,12.1,0,12.1C338.1,328,338.1,315.9,330.3,315.9z"/>
		<path class="st1" d="M348.4,331.7h-3.9v-20h1l9.9,11.5v-11.1h3.9v20h-1l-9.9-11.1V331.7z"/>
		<path class="st1" d="M370.2,331.7h-5.8v-19.6h5.8C383.3,312.2,383.3,331.7,370.2,331.7z M368.3,316.1v11.7h1.9
			c7.6,0,7.6-11.7,0-11.7H368.3z"/>
		<path class="st1" d="M384,331.7v-19.6h3.9v19.6H384z"/>
		<path class="st1" d="M398.8,311.5h0.4l8.2,20.3h-4.4l-0.8-2.1h-6.5l-0.8,2.1h-4.4L398.8,311.5z M400.8,326l-1.8-5.1l-1.8,5.1
			H400.8z"/>
		<path class="st1" d="M414.1,312.2v15.7h6.2v3.9h-10.1v-19.6H414.1z"/>
		<path class="st1" d="M423.6,331.7v-19.6h9.8v3.9h-5.9v3.9h5.1v3.9h-5.1v3.9h6.2v3.9H423.6z"/>
		<path class="st1" d="M304,362.6h-5.8V343h5.8C317.1,343,317.1,362.6,304,362.6z M302.1,346.9v11.7h1.9c7.6,0,7.6-11.7,0-11.7
			H302.1z"/>
		<path class="st1" d="M317.9,362.6V343h9.8v3.9h-5.9v3.9h5.1v3.9h-5.1v3.9h6.2v3.9H317.9z"/>
		<path class="st1" d="M336.4,343v15.7h6.2v3.9h-10.1V343H336.4z"/>
		<path class="st1" d="M349.8,343v15.7h6.2v3.9h-10.1V343H349.8z"/>
		<path class="st1" d="M365,342.3h0.4l8.2,20.3h-4.4l-0.8-2.1h-6.5l-0.8,2.1h-4.4L365,342.3z M367,356.8l-1.8-5.1l-1.8,5.1H367z"/>
		<path class="st1" d="M383.7,357.2c2.2,1.6,4.7,1.6,5.6,1.6c1.2-0.1,2.1-0.9,2-2c-0.1-1.1-0.9-1.6-2-2c-3.1-1.1-5.8-2.7-5.8-6
			c0-3.3,2.3-5.8,5.5-6c1-0.1,2.4-0.1,4.9,0.8l-0.5,3.8c-2.2-0.9-3.4-0.8-4-0.8c-1.4,0.1-2,1.1-1.9,2.2c0.1,1.1,1.1,1.6,2.2,2
			c3,1.1,5.7,2.9,5.7,6c0,3.3-2.2,5.8-5.9,5.9c-1.1,0.1-3.5-0.1-6.2-1.4L383.7,357.2z"/>
		<path class="st1" d="M401.3,362.6v-15.7h-4.9V343h13.7v3.9h-4.9v15.7H401.3z"/>
		<path class="st1" d="M418.3,342.3h0.4l8.2,20.3h-4.4l-0.8-2.1h-6.5l-0.8,2.1h-4.4L418.3,342.3z M420.3,356.8l-1.8-5.1l-1.8,5.1
			H420.3z"/>
		<path class="st1" d="M431.6,362.6v-15.7h-4.9V343h13.7v3.9h-4.9v15.7H431.6z"/>
		<path class="st1" d="M443.2,362.6V343h3.9v19.6H443.2z"/>
		<path class="st1" d="M451.9,357.2c2.2,1.6,4.7,1.6,5.6,1.6c1.2-0.1,2.1-0.9,2-2c-0.1-1.1-0.9-1.6-2-2c-3.1-1.1-5.8-2.7-5.8-6
			c0-3.3,2.3-5.8,5.5-6c1-0.1,2.4-0.1,4.9,0.8l-0.5,3.8c-2.2-0.9-3.4-0.8-4-0.8c-1.4,0.1-2,1.1-1.9,2.2c0.1,1.1,1.1,1.6,2.2,2
			c3,1.1,5.7,2.9,5.7,6c0,3.3-2.2,5.8-5.9,5.9c-1.1,0.1-3.5-0.1-6.2-1.4L451.9,357.2z"/>
		<path class="st1" d="M469.5,362.6v-15.7h-4.9V343h13.7v3.9h-4.9v15.7H469.5z"/>
		<path class="st1" d="M481.1,362.6V343h3.9v19.6H481.1z"/>
		<path class="st1" d="M499,346.7c-7.7,0-7.7,11.9,0,11.9c1.7,0,3-0.5,3.8-0.9l0.5,4.1c-1.2,0.5-2.9,0.8-4.3,0.8
			c-13.3,0-13.3-19.9,0-19.9c1.4,0,2.7,0.2,3.9,0.8l-0.5,4C501.6,347.1,500.7,346.7,499,346.7z"/>
		<path class="st1" d="M512.7,342.3h0.4l8.2,20.3H517l-0.8-2.1h-6.5l-0.8,2.1h-4.4L512.7,342.3z M514.7,356.8l-1.8-5.1l-1.8,5.1
			H514.7z"/>
		<path class="st2" d="M301.8,380.4c0-0.8-0.6-1.3-1.4-1.4c-1.2-0.1-2.7,0.7-3.1,1.1l-0.7-2.6c1-0.8,2.7-1.3,4-1.2
			c3.9,0.2,5.3,3.7,3,6.8l-2.7,4.1h4v2.7h-8.9l5-8C301.9,380.9,301.8,380.4,301.8,380.4z"/>
		<path class="st2" d="M307.3,383.2c0-3.8,1.3-6.9,4.6-6.9c3.3,0,4.6,3.1,4.6,6.9c0,3.8-1.3,6.9-4.6,6.9
			C308.6,390.1,307.3,387,307.3,383.2z M313.9,383.2c0-2.4-0.5-4.4-2-4.4c-1.5,0-2,2-2,4.4c0,2.4,0.5,4.4,2,4.4
			C313.4,387.6,313.9,385.6,313.9,383.2z"/>
		<path class="st2" d="M320,390.1c-2,0-2-3,0-3C322.1,387,322,390.1,320,390.1z"/>
		<path class="st2" d="M323.1,376.5h4.9v13.4h-2.7v-10.7h-2.2V376.5z"/>
		<path class="st2" d="M331,383.2c0-3.8,1.3-6.9,4.6-6.9c3.3,0,4.6,3.1,4.6,6.9c0,3.8-1.3,6.9-4.6,6.9
			C332.3,390.1,331,387,331,383.2z M337.6,383.2c0-2.4-0.5-4.4-2-4.4c-1.5,0-2,2-2,4.4c0,2.4,0.5,4.4,2,4.4
			C337.1,387.6,337.6,385.6,337.6,383.2z"/>
		<path class="st2" d="M343.8,390.1c-2,0-2-3,0-3C345.8,387,345.8,390.1,343.8,390.1z"/>
		<path class="st2" d="M352.9,380.4c0-0.8-0.6-1.3-1.4-1.4c-1.2-0.1-2.7,0.7-3.1,1.1l-0.7-2.6c1-0.8,2.7-1.3,4-1.2
			c3.9,0.2,5.3,3.7,3,6.8l-2.7,4.1h4v2.7h-8.9l5-8C352.9,380.9,352.9,380.4,352.9,380.4z"/>
		<path class="st2" d="M358.3,383.2c0-3.8,1.3-6.9,4.6-6.9c3.3,0,4.6,3.1,4.6,6.9c0,3.8-1.3,6.9-4.6,6.9
			C359.6,390.1,358.3,387,358.3,383.2z M365,383.2c0-2.4-0.5-4.4-2-4.4c-1.5,0-2,2-2,4.4c0,2.4,0.5,4.4,2,4.4
			C364.5,387.6,365,385.6,365,383.2z"/>
		<path class="st2" d="M369.3,376.5h4.9v13.4h-2.7v-10.7h-2.2V376.5z"/>
		<path class="st2" d="M385.4,386c0,2.2-1.5,3.9-4,4.1c-0.7,0-2.5,0-4.3-0.6l0.2-2.7c4.2,1.4,5.4,0.3,5.4-0.8c0-1.6-1-2.1-5.1-2.4
			v-7.1h6.8v2.6h-4.1v2.4C383.7,381.7,385.4,382.9,385.4,386z"/>
		<path class="st1" d="M299.8,406.2v9.8h3.9v2.4h-6.3v-12.2H299.8z"/>
		<path class="st1" d="M309.9,405.7h0.3l5.1,12.7h-2.8l-0.5-1.3H308l-0.5,1.3h-2.8L309.9,405.7z M311.2,414.8l-1.1-3.2l-1.1,3.2
			H311.2z"/>
		<path class="st1" d="M323,406.2h4.8c2.2,0,3.5,1.6,3.5,3.7c0,0.9-0.4,1.9-1.1,2.4c0.8,0.5,1.3,1.5,1.3,2.4c0,2.1-1.6,3.7-3.6,3.7
			H323V406.2z M325.4,411.1h1.5h0.7c0.7,0,1.1-0.6,1.1-1.2c0-0.7-0.4-1.2-1.1-1.2h-2.2V411.1z M325.4,416h1.5h0.7
			c0.7,0,1.2-0.5,1.2-1.2c0-0.7-0.5-1.2-1.2-1.2h-2.2V416z"/>
		<path class="st1" d="M334.5,414.1v-8h2.4v8c0,2.6,4,2.6,4,0v-8h2.4v8C343.4,420,334.5,420,334.5,414.1z"/>
		<path class="st1" d="M352.7,406c8.4,0,8.4,12.6,0,12.6C344.3,418.6,344.3,406,352.7,406z M352.7,408.5c-4.9,0-4.9,7.6,0,7.6
			C357.6,416,357.6,408.5,352.7,408.5z"/>
		<path class="st1" d="M364.5,418.4h-2.4v-12.5h0.6l6.2,7.2v-6.9h2.5v12.5h-0.6l-6.2-6.9V418.4z"/>
		<path class="st1" d="M378.7,405.7h0.3l5.1,12.7h-2.8l-0.5-1.3h-4.1l-0.5,1.3h-2.8L378.7,405.7z M380,414.8l-1.1-3.2l-1.1,3.2H380z
			"/>
		<path class="st1" d="M391.5,415c1.4,1,2.9,1,3.5,1c0.7-0.1,1.3-0.6,1.3-1.2c-0.1-0.7-0.6-1-1.3-1.2c-1.9-0.7-3.6-1.7-3.6-3.7
			c0-2.1,1.4-3.6,3.5-3.7c0.6,0,1.5,0,3,0.5l-0.3,2.4c-1.4-0.5-2.1-0.5-2.5-0.5c-0.9,0-1.3,0.7-1.2,1.4c0.1,0.7,0.7,1,1.4,1.2
			c1.9,0.7,3.5,1.8,3.5,3.7c0,2-1.4,3.6-3.7,3.7c-0.7,0.1-2.2,0-3.9-0.9L391.5,415z"/>
		<path class="st1" d="M403.1,418.4v-9.8h-3v-2.4h8.5v2.4h-3v9.8H403.1z"/>
		<path class="st1" d="M414.2,405.7h0.3l5.1,12.7h-2.8l-0.5-1.3h-4.1l-0.5,1.3h-2.8L414.2,405.7z M415.5,414.8l-1.1-3.2l-1.1,3.2
			H415.5z"/>
		<path class="st1" d="M423.1,418.4v-9.8h-3v-2.4h8.5v2.4h-3v9.8H423.1z"/>
		<path class="st1" d="M431,418.4v-12.2h2.4v12.2H431z"/>
		<path class="st1" d="M436.9,415c1.4,1,2.9,1,3.5,1c0.7-0.1,1.3-0.6,1.3-1.2c-0.1-0.7-0.6-1-1.3-1.2c-1.9-0.7-3.6-1.7-3.6-3.7
			c0-2.1,1.4-3.6,3.5-3.7c0.6,0,1.5,0,3,0.5L443,409c-1.4-0.5-2.1-0.5-2.5-0.5c-0.9,0-1.3,0.7-1.2,1.4c0.1,0.7,0.7,1,1.4,1.2
			c1.9,0.7,3.5,1.8,3.5,3.7c0,2-1.4,3.6-3.7,3.7c-0.7,0.1-2.2,0-3.9-0.9L436.9,415z"/>
		<path class="st1" d="M448.5,418.4v-9.8h-3v-2.4h8.5v2.4h-3v9.8H448.5z"/>
		<path class="st1" d="M456.4,418.4v-12.2h2.4v12.2H456.4z"/>
		<path class="st1" d="M468,408.5c-4.8,0-4.8,7.5,0,7.5c1.1,0,1.9-0.3,2.4-0.5l0.3,2.5c-0.8,0.3-1.8,0.5-2.7,0.5
			c-8.3,0-8.3-12.4,0-12.4c0.9,0,1.7,0.2,2.4,0.5l-0.3,2.5C469.7,408.8,469.1,408.5,468,408.5z"/>
		<path class="st1" d="M477.2,405.7h0.3l5.1,12.7h-2.8l-0.5-1.3h-4.1l-0.5,1.3H472L477.2,405.7z M478.4,414.8l-1.1-3.2l-1.1,3.2
			H478.4z"/>
		<path class="st1" d="M307.8,426.5h0.8v12.4h-2.5l0-6.8l-3.1,3.3l-3.1-3.3v6.8h-2.5v-12.4h0.8l4.8,5.4L307.8,426.5z"/>
		<path class="st1" d="M312.3,438.9v-12.2h2.4v12.2H312.3z"/>
		<path class="st1" d="M324,439c-8.1,0-8.5-12.1,0-12.4c1.5,0,2.6,0.4,2.9,0.4l-0.3,2.5c-0.5-0.2-1.3-0.5-2.6-0.4
			c-4.9,0.2-4.7,7.5,0,7.5c0.2,0,0.5,0,0.7-0.1v-3.7h2.5v5.4C326.2,438.7,325.1,439,324,439z"/>
		<path class="st1" d="M333.2,426.7v9.8h3.9v2.4h-6.3v-12.2H333.2z"/>
		<path class="st1" d="M339.7,438.9v-12.2h2.4v12.2H339.7z"/>
		<path class="st1" d="M351.6,426.5c8.4,0,8.4,12.6,0,12.6C343.2,439.1,343.2,426.5,351.6,426.5z M351.6,429c-4.9,0-4.9,7.6,0,7.6
			C356.5,436.6,356.5,429,351.6,429z"/>
		<path class="st1" d="M367.1,438.9l-2.5-4.7h-1.2v4.7H361v-12.2h4.8c4.4,0,4.8,6.1,1.2,7.2l2.8,5H367.1z M363.4,431.9h2.2
			c1.7,0,1.7-2.7,0-2.7h-2.2V431.9z"/>
		<path class="st1" d="M376,426.3h0.3l5.1,12.7h-2.8l-0.5-1.3h-4.1l-0.5,1.3h-2.8L376,426.3z M377.3,435.3l-1.1-3.2l-1.1,3.2H377.3z
			"/>
		<path class="st1" d="M391.5,426.7v9.8h3.9v2.4h-6.3v-12.2H391.5z"/>
		<path class="st1" d="M401.6,426.3h0.3l5.1,12.7h-2.8l-0.5-1.3h-4.1l-0.5,1.3h-2.8L401.6,426.3z M402.9,435.3l-1.1-3.2l-1.1,3.2
			H402.9z"/>
		<path class="st1" d="M418.5,439.2l-5.1-12.5h2.8l1.6,4.1l0.9,2.5l0.9-2.4l1.6-4.2h2.8l-5.1,12.5H418.5z"/>
		<path class="st1" d="M426.1,438.9v-12.2h2.4v12.2H426.1z"/>
		<path class="st1" d="M433.9,438.9v-9.8h-3v-2.4h8.5v2.4h-3v9.8H433.9z"/>
		<path class="st1" d="M445,426.3h0.3l5.1,12.7h-2.8l-0.5-1.3h-4.1l-0.5,1.3h-2.8L445,426.3z M446.3,435.3l-1.1-3.2l-1.1,3.2H446.3z
			"/>
		<path class="st1" d="M454.1,439.1c-1.8,0-1.8-2.8,0-2.8C456,436.3,456,439.1,454.1,439.1z"/>
	</g>
</g>
<g>
	<path class="st3" d="M188.1,343.4c-7.4,0-14.8-1-22-2.9c-1.2-0.3-2.5-0.7-3.7-1.1c-19.9-6.4-36.6-19.9-47.1-38.1
		c-11.1-19.4-14-42-8.2-63.7c5.9-21.6,19.8-39.7,39.2-50.8c12.7-7.3,27.1-11.1,41.6-11.1c7.4,0,14.8,1,22.1,3
		c21.6,5.9,39.7,19.8,50.8,39.2c9.4,16.5,13,35.1,10.2,53.8l-0.1,0.5h-8.2l0.1-0.7c2.8-17.3-0.3-34.4-9.1-49.6
		c-10.1-17.6-26.4-30.2-45.9-35.5c-6.5-1.8-13.3-2.7-20-2.7c-13.1,0-26.1,3.5-37.6,10.1c-17.6,10.1-30.2,26.4-35.5,45.9
		c-5.3,19.5-2.7,40,7.4,57.5c10.1,17.6,26.4,30.2,45.9,35.5c7.4,2,15.1,2.9,22.9,2.5l0.4-0.1c6.1-0.3,12.4-1.3,18.5-3.2l0.2,0l0.2,0
		c4.7,0.9,9.7,1.4,14.8,1.4l2.7,0l-2.4,1.2c-4,2-8.1,3.6-12.3,4.9l-0.2,0.1c-0.2,0.1-0.3,0.2-0.5,0.2
		C204.6,342.2,196.4,343.4,188.1,343.4z"/>
</g>
<path class="st1" d="M217.5,256.7c-1-6.9-7.6-11.8-14.7-10.8c-7.2,1-12.1,7.5-11.1,14.4c1,7,7.5,11.8,14.7,10.8
	C213.4,270.2,218.4,263.7,217.5,256.7z M205.4,264.8c-3.5,0.5-6.6-1.8-7.1-5.4c-0.5-3.5,1.8-6.7,5.4-7.2c3.5-0.5,6.6,2,7.1,5.5
	C211.2,261.2,208.9,264.3,205.4,264.8z"/>
<path class="st1" d="M251.5,287.6c-1-6.9-7.6-11.8-14.7-10.8c-7.2,1-12.1,7.5-11.1,14.4c1,7,7.5,11.8,14.7,10.8
	C247.4,301,252.4,294.6,251.5,287.6z M239.4,295.6c-3.5,0.5-6.6-1.8-7.1-5.4c-0.5-3.5,1.8-6.7,5.4-7.2c3.5-0.5,6.6,2,7.1,5.5
	C245.2,292.1,242.9,295.1,239.4,295.6z"/>
<g>
	<path class="st1" d="M203.1,299.8h-10.4l46-50.3h10.4L203.1,299.8z"/>
</g>
<path class="st1" d="M229.7,321.3c-1.4,0.1-2.8,0.1-4.1,0.1c-19.4,0-31.4-7.2-38-13.3c-9.3-8.5-14.7-20.4-14.7-32.7v-0.6h-8.1v0.6
	c0,14.5,6.3,28.6,17.3,38.7c7.7,7,21.5,15.4,43.4,15.4c2.5,0,5-0.1,7.6-0.3L229.7,321.3z"/>
</svg>
