<?xml version="1.0" encoding="utf-8"?>
<!-- Generator: Adobe Illustrator 19.0.0, SVG Export Plug-In . SVG Version: 6.00 Build 0)  -->
<svg version="1.1" id="Layer_1" xmlns="http://www.w3.org/2000/svg" xmlns:xlink="http://www.w3.org/1999/xlink" x="0px" y="0px"
	 viewBox="0 0 612 612" style="enable-background:new 0 0 612 612;" xml:space="preserve">
<metadata><?xpacket begin="﻿" id="W5M0MpCehiHzreSzNTczkc9d"?>
<x:xmpmeta xmlns:x="adobe:ns:meta/" x:xmptk="Adobe XMP Core 5.6-c067 79.157747, 2015/03/30-23:40:42        ">
   <rdf:RDF xmlns:rdf="http://www.w3.org/1999/02/22-rdf-syntax-ns#">
      <rdf:Description rdf:about=""/>
   </rdf:RDF>
</x:xmpmeta>
                                                                                                    
                                                                                                    
                                                                                                    
                                                                                                    
                                                                                                    
                                                                                                    
                                                                                                    
                                                                                                    
                                                                                                    
                                                                                                    
                                                                                                    
                                                                                                    
                                                                                                    
                                                                                                    
                                                                                                    
                                                                                                    
                                                                                                    
                                                                                                    
                                                                                                    
                                                                                                    
                           
<?xpacket end="w"?></metadata>
<style type="text/css">
	.st0{fill:#0083BF;}
	.st1{fill:#FFFFFF;}
	.st2{fill:#90CEF1;}
	.st3{fill:#74C1EC;}
</style>
<rect class="st0" width="612" height="612"/>
<g>
	<path class="st1" d="M335.4,285.5c1.1,0,2.2,0,3.4-0.1c1.2-0.1,2.1-0.1,3-0.2v3.2c-0.8-0.1-1.8-0.2-3-0.2c-1.2,0-2.3-0.1-3.4-0.1
		v10.5c-0.3,0-0.7,0-1.2-0.1s-1-0.1-1.6-0.1c-0.6,0-1.1,0-1.7,0c-0.6,0-1.2,0-1.7,0c-1.1,0-2.2,0-3.1,0c-0.9,0-1.7,0.1-2.3,0.2V288
		h-4.8v14h13.6c0.5,0,1,0,1.5,0c0.6,0,1.1,0,1.7,0c0.6,0,1.1,0,1.7-0.1c0.5,0,1-0.1,1.4-0.1v3c-0.4,0-0.9,0-1.4-0.1
		c-0.5,0-1.1-0.1-1.7-0.1c-0.6,0-1.1,0-1.7,0c-0.6,0-1.1,0-1.5,0h-13.7v1.3h-3.1c0.1-0.6,0.2-1.3,0.2-2.2c0.1-0.9,0.1-1.8,0.1-2.8
		v-12.8c-0.8,0-1.7,0.1-2.5,0.1c-0.8,0-1.6,0.1-2.3,0.2v-3.2c0.7,0.1,1.5,0.1,2.3,0.2s1.6,0.1,2.5,0.1c0-1.6,0-3-0.1-4.2
		c0-1.3-0.1-2.2-0.2-2.9c0.2,0,0.5,0.1,0.9,0.1c0.3,0,0.7,0,1,0c0.3,0,0.6,0,0.9,0c0.3,0,0.5,0,0.7,0c0.3,0,0.4,0,0.5,0.2
		c0.1,0.2-0.1,0.3-0.3,0.5c-0.2,0.1-0.3,0.3-0.4,0.5c-0.1,0.2-0.1,0.5-0.1,0.9v5h4.8c0-1.4,0-2.5,0-3.5c0-1,0-1.8-0.1-2.5
		c0-0.7-0.1-1.3-0.1-1.7c0-0.4-0.1-0.8-0.2-1.1c0.2,0,0.5,0.1,0.9,0.1c0.3,0,0.7,0,1,0c0.3,0,0.6,0,0.9,0c0.3,0,0.5,0,0.7,0
		c0.3,0,0.5,0,0.6,0.2c0.1,0.2,0,0.3-0.3,0.5c-0.2,0.1-0.3,0.2-0.4,0.3c-0.1,0.1-0.2,0.4-0.2,0.7v7h6.2c0-1.3,0-2.4,0-3.4
		c0-1,0-1.8,0-2.5s0-1.2-0.1-1.7c0-0.4-0.1-0.8-0.1-1c0.5,0.1,1.1,0.1,1.8,0.1c0.6,0,1.2,0,1.6-0.1c0.2,0,0.3,0,0.3,0.2
		c0.1,0.1,0,0.3-0.3,0.5c-0.2,0.2-0.3,0.3-0.4,0.5c-0.1,0.2-0.1,0.4-0.1,0.7V285.5z M326.5,288v7.8h6.2V288H326.5z"/>
	<path class="st1" d="M356,291.2c-0.5,0.6-1.1,1.2-1.6,1.7c-0.6,0.5-1.1,1-1.7,1.5c0.4,0,0.9,0.1,1.4,0.1c0.5,0,0.9,0,1.3,0
		c0.5,0,0.6,0.1,0.3,0.4c-0.1,0.1-0.3,0.4-0.4,0.9c-0.1,0.5-0.2,1.2-0.2,1.9c-0.1,1.1-0.3,2.1-0.6,3c-0.3,0.9-0.8,1.6-1.3,2.3
		c-0.6,0.7-1.3,1.3-2.2,1.9c-0.9,0.6-1.9,1.1-3.1,1.7c-0.3-0.6-0.6-1.1-0.9-1.5c-0.3-0.4-0.7-0.8-1.2-1.1c1.5-0.4,2.6-0.9,3.5-1.3
		s1.6-0.9,2.1-1.6c0.5-0.7,0.8-1.5,1-2.6c0.2-1,0.3-2.4,0.3-4.1c-1,0.8-2.1,1.5-3.2,2.1c-1.1,0.6-2.4,1.3-3.7,1.9
		c-0.3-0.5-0.6-0.9-0.9-1.3c-0.3-0.4-0.7-0.7-1.1-1c0.7-0.2,1.4-0.5,2.3-0.8c0.8-0.3,1.7-0.7,2.6-1.2c0.9-0.5,1.7-0.9,2.5-1.5
		c0.8-0.5,1.6-1,2.2-1.6c-1,0-2,0-2.9,0c-0.9,0-1.8,0.1-2.7,0.1c0.1-1,0.1-2.1,0.1-3.3c0-1.2,0-2.5,0-3.8c0-1.3,0-2.5,0-3.7
		c0-1.2-0.1-2.3-0.1-3.2c0.5,0,1.1,0,1.6,0.1c0.6,0,1.2,0,2,0c0.8,0,1.8,0,2.9,0c1.2,0,2.6,0,4.3,0c1.7,0,3.2,0,4.3,0
		c1.2,0,2.1,0,2.9,0c0.8,0,1.5,0,2-0.1c0.5,0,1,0,1.5-0.1c0,0.9-0.1,2-0.1,3.2c0,1.2,0,2.5,0,3.8c0,1.3,0,2.6,0,3.8
		c0,1.2,0.1,2.3,0.1,3.2c-1,0-1.9-0.1-3-0.1c-1,0-2.1,0-3.3,0c0.5,0.5,1.1,1,1.8,1.4c0.7,0.4,1.4,0.8,2.2,1.1
		c0.8,0.3,1.7,0.6,2.7,0.8c1,0.2,2.1,0.4,3.3,0.5c-0.4,0.5-0.6,1-0.8,1.6c-0.2,0.5-0.4,1.1-0.5,1.8c-1.1-0.3-2.2-0.7-3.3-1.2
		c-1.1-0.5-2.2-1.1-3.2-1.7c-0.2,0.2-0.3,0.9-0.3,1.8v4.5c0,0.3,0,0.7,0,1.1s0,0.8,0.1,1.2c0,0.4,0.1,0.9,0.1,1.3
		c0,0.4,0.1,0.8,0.1,1.2h-3.4c0-0.3,0.1-0.7,0.1-1.1c0-0.4,0.1-0.9,0.1-1.3c0-0.4,0.1-0.9,0.1-1.3s0-0.8,0-1.1v-3.2
		c0-0.9,0-1.7-0.1-2.4c-0.1-0.8-0.1-1.3-0.2-1.6c0.4,0.1,0.8,0.1,1.2,0.1c0.3,0,0.7,0.1,1,0.1c-0.8-0.6-1.5-1.2-2.1-1.8
		c-0.6-0.6-1.1-1.2-1.6-1.8H356z M357.2,279.7h-6.6v3.5h6.6V279.7z M357.2,285.4h-6.6v3.6h6.6V285.4z M366.6,279.7h-6.8v3.5h6.8
		V279.7z M366.6,285.4h-6.8v3.6h6.8V285.4z"/>
	<path class="st1" d="M380.4,296.8c0,0.4-0.1,0.9-0.1,1.5c-0.1,0.6-0.2,1.2-0.3,1.8c-0.1,0.6-0.3,1.2-0.4,1.8
		c-0.2,0.6-0.3,1.2-0.5,1.7l-2.7-0.6c0.6-1,1-2.1,1.3-3.2c0.3-1.1,0.4-2.2,0.4-3.2L380.4,296.8z M384.2,284.5
		c0.5-0.8,0.8-1.5,1.1-2.1c0.3-0.6,0.5-1,0.5-1.3c0.4,0.4,0.9,0.6,1.3,0.8c0.4,0.2,0.8,0.4,1.3,0.5c0.3,0.1,0.4,0.2,0.4,0.3
		c0,0.1-0.1,0.3-0.4,0.4c-0.3,0.1-0.5,0.3-0.7,0.4c-0.2,0.2-0.4,0.4-0.6,0.7c-1.1,1.6-2.1,3-3.2,4.3c-1,1.3-2.1,2.5-3.2,3.6
		c0.9-0.1,1.8-0.1,2.7-0.2s1.7-0.2,2.5-0.3c-0.2-0.6-0.4-1.1-0.6-1.6c-0.2-0.5-0.4-0.9-0.5-1.1l2.2-0.7c0.2,0.4,0.4,0.9,0.7,1.4
		c0.3,0.6,0.5,1.2,0.7,1.8c0.2,0.6,0.5,1.2,0.7,1.7c0.2,0.6,0.4,1.1,0.5,1.5l-2.5,0.7c-0.1-0.4-0.2-1-0.5-1.7l-5.5,0.7
		c-0.7,0.1-1.3,0.2-2,0.3c-0.6,0.1-1.2,0.3-1.6,0.4c0-0.4-0.1-0.8-0.3-1.3c-0.1-0.5-0.3-1-0.6-1.5c0.2,0,0.4,0,0.7,0s0.5,0,0.7,0
		c0.3-0.3,0.7-0.8,1.1-1.3c0.4-0.5,0.9-1.1,1.3-1.6c0.5-0.6,0.9-1.1,1.3-1.6c0.4-0.5,0.7-1,1-1.3l-1.9,0.2c-0.6,0.1-1.3,0.1-1.9,0.2
		s-1.1,0.2-1.6,0.3c0-0.4-0.1-0.8-0.2-1.3c-0.1-0.4-0.3-0.9-0.4-1.4c0.2,0,0.4,0,0.6,0c0.2,0,0.4,0,0.6,0c0.5-1,1-1.9,1.5-2.8
		c0.4-0.9,0.8-1.7,1.2-2.5c0.3-0.8,0.6-1.5,0.8-2.1c0.2-0.6,0.4-1.1,0.4-1.4c0.5,0.2,1,0.5,1.5,0.7c0.5,0.2,1,0.4,1.4,0.5
		c0.3,0.1,0.5,0.2,0.4,0.3c0,0.1-0.1,0.2-0.4,0.3c-0.3,0.1-0.6,0.3-0.7,0.4c-0.2,0.2-0.3,0.4-0.5,0.7c-0.6,1.1-1.2,2.2-1.8,3.1
		c-0.6,0.9-1.2,1.8-1.7,2.6c0.6,0,1.3-0.1,1.9-0.1C382.8,284.6,383.5,284.6,384.2,284.5z M382.4,302.2c0-2-0.1-3.8-0.4-5.4l2.2-0.3
		c0.2,0.8,0.3,1.7,0.5,2.6c0.1,0.9,0.2,1.9,0.3,2.8L382.4,302.2z M387.4,301.6c-0.1-1.1-0.2-2-0.5-2.8c-0.2-0.8-0.6-1.6-0.9-2.3
		l2.2-0.6c0.3,0.8,0.6,1.5,0.9,2.4c0.3,0.8,0.5,1.7,0.7,2.7L387.4,301.6z M406.4,283c-1.6-0.2-3.5-0.3-5.9-0.3h-5.4
		c0.6,0.4,1.2,0.8,1.8,1.2c0.7,0.4,0.7,0.6,0,0.9c-0.1,0-0.3,0.1-0.4,0.3c-0.2,0.1-0.5,0.4-0.9,0.9c-0.6,0.7-1.1,1.3-1.6,1.7
		c-0.4,0.5-0.9,0.9-1.4,1.4l8.9-0.3c-0.4-0.5-0.7-1-1.1-1.5c-0.4-0.5-0.7-0.9-1-1.3l1.8-1.3c0.9,1.1,1.8,2.1,2.5,3.1
		c0.7,1,1.5,2.1,2.2,3.2l-2.4,1.3c-0.2-0.5-0.5-1.1-0.9-1.7l-2.1,0.1v10.4c0,0.3,0,0.6,0,0.8c0,0.2,0.1,0.3,0.2,0.4s0.3,0.2,0.5,0.2
		c0.2,0,0.6,0,1,0c0.3,0,0.6,0,0.9-0.1c0.2-0.1,0.4-0.2,0.6-0.4c0.2-0.2,0.3-0.5,0.4-0.8c0.1-0.4,0.2-0.8,0.3-1.4
		c0.8,0.7,1.7,1.1,2.7,1.2c-0.3,0.8-0.5,1.5-0.8,2c-0.2,0.5-0.5,0.9-0.9,1.2c-0.4,0.3-0.8,0.5-1.3,0.6c-0.5,0.1-1.2,0.2-1.9,0.2
		c-1,0-1.7,0-2.3-0.1c-0.6-0.1-1-0.2-1.3-0.4c-0.3-0.2-0.5-0.5-0.5-0.8c-0.1-0.3-0.1-0.8-0.1-1.4v-11.5l-2.6,0.1
		c-0.1,2.3-0.3,4.3-0.5,5.9c-0.3,1.6-0.6,3-1.1,4.1c-0.5,1.1-1.2,2.1-2,2.9c-0.8,0.8-1.8,1.5-2.9,2.2c-0.3-0.4-0.7-0.8-1.1-1.1
		c-0.4-0.3-0.9-0.6-1.5-0.8c1.3-0.4,2.4-1,3.3-1.6c0.9-0.6,1.6-1.5,2.1-2.5c0.5-1,0.9-2.2,1.1-3.7c0.2-1.4,0.3-3.2,0.4-5.2
		c-0.7,0-1.3,0.1-1.9,0.2c-0.6,0.1-1.1,0.3-1.5,0.4c-0.2-1-0.5-1.9-1-2.8l1.7,0c1.2-1.4,2.1-2.7,2.7-3.8c0.7-1.1,1.1-2,1.4-2.7
		c-1,0-2,0.1-2.9,0.1c-0.9,0-1.7,0.1-2.4,0.2v-2.7c0.5,0,1,0.1,1.7,0.1c0.7,0,1.4,0.1,2.1,0.1c0.8,0,1.6,0,2.4,0c0.8,0,1.6,0,2.4,0
		c0.8,0,1.6,0,2.4,0c0.8,0,1.6,0,2.4,0c0.8,0,1.5-0.1,2.1-0.1c0.7,0,1.2-0.1,1.7-0.1V283z M396.9,280.4c-0.3-0.6-0.6-1.2-1-1.9
		s-0.8-1.2-1.3-1.8l2.5-1.3c0.4,0.5,0.8,1.1,1.2,1.7c0.4,0.6,0.8,1.3,1.2,2L396.9,280.4z"/>
	<path class="st1" d="M425,283.8c-0.9-0.1-1.9-0.1-3.1-0.1c-1.2,0-2.6,0-4.3,0s-3.1,0-4.3,0c-1.2,0-2.2,0.1-3.1,0.1v-2.6
		c0.9,0.1,1.9,0.1,3.1,0.1c1.2,0,2.6,0,4.3,0s3.1,0,4.3,0c1.2,0,2.2-0.1,3.1-0.1V283.8z M423.3,288.1c-0.7-0.1-1.5-0.1-2.4-0.1
		c-0.9,0-2,0-3.4,0c-1.3,0-2.5,0-3.4,0c-0.9,0-1.7,0.1-2.4,0.1v-2.5c0.7,0.1,1.5,0.1,2.4,0.1c0.9,0,2,0,3.4,0c1.3,0,2.5,0,3.4,0
		c0.9,0,1.7-0.1,2.4-0.1V288.1z M423.3,292.5c-0.7-0.1-1.5-0.1-2.4-0.1c-0.9,0-2,0-3.4,0c-1.3,0-2.5,0-3.4,0c-0.9,0-1.7,0.1-2.4,0.1
		V290c0.7,0.1,1.5,0.1,2.4,0.1c0.9,0,2.1,0,3.4,0c1.3,0,2.5,0,3.4,0c0.9,0,1.7-0.1,2.4-0.1V292.5z M414.8,302.1v2.8h-2.7
		c0.1-0.5,0.1-0.9,0.1-1.3c0-0.4,0-0.9,0-1.4v-5.1c0-0.6,0-1.1,0-1.4c0-0.4,0-0.7,0-1.1c0.2,0,0.5,0,0.8,0.1c0.3,0,0.6,0,1,0
		c0.4,0,0.9,0,1.5,0s1.4,0,2.3,0c0.9,0,1.7,0,2.3,0s1.1,0,1.5,0c0.4,0,0.7,0,1,0c0.3,0,0.5,0,0.8-0.1c0,0.3-0.1,0.6-0.1,1
		c0,0.4,0,0.9,0,1.5v4.7c0,0.5,0,1,0,1.4c0,0.4,0.1,0.9,0.1,1.3h-2.7v-2.3H414.8z M416.6,281c-0.2-0.7-0.5-1.4-0.8-2.1
		c-0.4-0.7-0.8-1.3-1.2-1.9l2.6-1.2c0.4,0.6,0.8,1.3,1.2,2s0.7,1.4,1,2.1L416.6,281z M420.7,300.2v-3.6h-5.9v3.6H420.7z
		 M433.6,300.9c0,0.8,0,1.6,0,2.5c0,0.9,0.1,1.9,0.2,2.8h-3.2c0.1-0.9,0.2-1.9,0.3-2.8c0.1-0.9,0.1-1.8,0.1-2.5v-11.8
		c-1.4,0-2.7,0-4,0c-1.3,0-2.3,0.1-3,0.1v-2.8c0.8,0,1.8,0.1,3,0.1c1.2,0,2.6,0.1,4,0.1v-6c0-1.2,0-2.2-0.1-3.1
		c-0.1-0.9-0.1-1.5-0.3-2c0.6,0.1,1.2,0.2,1.6,0.2c0.5,0.1,1,0.1,1.6,0c0.4,0,0.6,0,0.7,0.2c0.1,0.1-0.1,0.3-0.5,0.6
		c-0.2,0.1-0.3,0.2-0.4,0.4c-0.1,0.1-0.1,0.4-0.1,0.7v8.9c1.4,0,2.8,0,4.1-0.1c1.3,0,2.3-0.1,3.1-0.1v2.8c-0.8-0.1-1.8-0.1-3.1-0.1
		c-1.3,0-2.6,0-4.1,0V300.9z"/>
	<path class="st1" d="M450,304.8h-3.3c0.1-1.1,0.2-2.2,0.2-3.1c0-0.9,0-2,0-3v-15.6c0-0.9,0-1.8-0.1-2.6c-0.1-0.8-0.1-1.5-0.2-2
		c0.5,0,1,0.1,1.5,0.1c0.5,0,1.2,0.1,1.9,0.1c0.8,0,1.7,0,2.8,0s2.5,0,4.1,0c1.7,0,3.1,0,4.2,0c1.1,0,2.1,0,2.8,0
		c0.8,0,1.4,0,1.9-0.1c0.5,0,1-0.1,1.4-0.1c-0.1,0.5-0.2,1.1-0.2,1.9c0,0.8-0.1,1.7-0.1,2.7v16.1c0,0.9,0,1.8,0.1,2.7
		c0,0.9,0.1,1.8,0.2,2.7h-3.4v-2.2h-14V304.8z M463.9,281.2h-14v7.7h14V281.2z M450,299.8h14v-8.2h-14V299.8z"/>
	<path class="st2" d="M317,324.4c0-0.9-0.7-1.6-1.7-1.7c-1.4-0.1-3.3,0.8-3.8,1.3l-0.8-3.2c1.3-0.9,3.3-1.6,4.9-1.5
		c4.8,0.3,6.4,4.5,3.7,8.3l-3.2,5h4.9v3.3h-10.8l6.1-9.7C317.1,325,317,324.4,317,324.4z"/>
	<path class="st2" d="M323.6,327.8c0-4.7,1.6-8.4,5.6-8.4c4.1,0,5.6,3.8,5.6,8.4s-1.6,8.4-5.6,8.4
		C325.2,336.2,323.6,332.4,323.6,327.8z M331.7,327.8c0-2.9-0.6-5.3-2.5-5.3c-1.8,0-2.4,2.4-2.4,5.3c0,3,0.6,5.3,2.4,5.3
		C331.1,333.1,331.7,330.8,331.7,327.8z"/>
	<path class="st2" d="M339.2,336.2c-2.5,0-2.5-3.7,0-3.7C341.7,332.5,341.6,336.2,339.2,336.2z"/>
	<path class="st2" d="M342.9,319.6h5.9V336h-3.3v-13.1h-2.7V319.6z"/>
	<path class="st2" d="M352.5,327.8c0-4.7,1.6-8.4,5.6-8.4c4.1,0,5.6,3.8,5.6,8.4s-1.6,8.4-5.6,8.4
		C354.1,336.2,352.5,332.4,352.5,327.8z M360.6,327.8c0-2.9-0.6-5.3-2.5-5.3c-1.8,0-2.4,2.4-2.4,5.3c0,3,0.6,5.3,2.4,5.3
		C360,333.1,360.6,330.8,360.6,327.8z"/>
	<path class="st2" d="M368,336.2c-2.5,0-2.5-3.7,0-3.7C370.6,332.5,370.5,336.2,368,336.2z"/>
	<path class="st2" d="M379.1,324.4c0-0.9-0.7-1.6-1.7-1.7c-1.4-0.1-3.3,0.8-3.8,1.3l-0.8-3.2c1.3-0.9,3.3-1.6,4.9-1.5
		c4.8,0.3,6.4,4.5,3.7,8.3l-3.2,5h4.9v3.3h-10.8l6.1-9.7C379.2,325,379.1,324.4,379.1,324.4z"/>
	<path class="st2" d="M385.8,327.8c0-4.7,1.6-8.4,5.6-8.4c4.1,0,5.6,3.8,5.6,8.4s-1.6,8.4-5.6,8.4
		C387.3,336.2,385.8,332.4,385.8,327.8z M393.8,327.8c0-2.9-0.6-5.3-2.5-5.3c-1.8,0-2.4,2.4-2.4,5.3c0,3,0.6,5.3,2.4,5.3
		C393.2,333.1,393.8,330.8,393.8,327.8z"/>
	<path class="st2" d="M399.2,319.6h5.9V336h-3.3v-13.1h-2.7V319.6z"/>
	<path class="st2" d="M418.7,331.2c0,2.7-1.9,4.8-4.9,5c-0.8,0-3.1,0-5.2-0.7l0.3-3.3c5.1,1.7,6.6,0.3,6.5-1c0-1.9-1.2-2.5-6.2-2.9
		v-8.6h8.3v3.1h-5v2.9C416.6,326,418.7,327.4,418.7,331.2z"/>
	<path class="st1" d="M315,368.8h-1.8c0.1-0.6,0.1-1.3,0.2-2.1c0-0.8,0.1-1.6,0.1-2.4v-6.6c-0.3,0.7-0.5,1.3-0.8,1.8
		c-0.2,0.5-0.5,1-0.7,1.4c-0.2-0.3-0.3-0.5-0.5-0.7c-0.2-0.2-0.4-0.4-0.7-0.5c0.5-1,1-2,1.3-2.8c0.4-0.9,0.7-1.7,1-2.5
		c0.3-0.8,0.5-1.6,0.7-2.4c0.2-0.8,0.4-1.5,0.5-2.3c0.5,0.3,1.1,0.6,1.7,0.6c0.2,0,0.3,0.1,0.3,0.2c0,0.1-0.1,0.2-0.3,0.5
		c-0.1,0.1-0.3,0.4-0.4,0.7c-0.2,0.4-0.4,1-0.7,1.8V368.8z M323,367.3c-0.3,0.2-0.7,0.3-1.2,0.4c-0.4,0.1-0.9,0.3-1.4,0.4
		c-0.5,0.1-1,0.3-1.6,0.4c-0.5,0.1-1.1,0.2-1.6,0.3c-0.1-0.3-0.3-0.5-0.4-0.7c-0.1-0.2-0.3-0.4-0.6-0.6c0.8,0,1.6-0.1,2.6-0.2
		c0.9-0.2,1.9-0.4,3.1-0.8c-0.8-0.6-1.4-1.2-1.8-1.9h-0.5c-0.4,0.5-0.9,0.9-1.4,1.3c-0.5,0.4-1,0.7-1.5,1c-0.1-0.2-0.2-0.4-0.4-0.6
		c-0.2-0.2-0.4-0.3-0.7-0.5c0.4-0.2,0.9-0.4,1.2-0.6c0.4-0.2,0.8-0.5,1.2-0.9c0.5-0.4,0.9-0.8,1.1-1.1c0.3-0.3,0.5-0.6,0.6-0.9
		c0.2,0.2,0.4,0.3,0.5,0.3c0.2,0.1,0.4,0.1,0.7,0.2c0.2,0,0.2,0.1,0.2,0.2c0,0.1-0.1,0.1-0.3,0.2c-0.1,0.1-0.3,0.2-0.5,0.4h4
		c0.7,0,1.3,0,1.8,0c0.5,0,1,0,1.4-0.1c-0.3,0.6-0.7,1.1-1.2,1.6c-0.5,0.5-1.1,1-1.8,1.4c0.7,0.3,1.6,0.5,2.6,0.6
		c1,0.1,1.9,0.2,2.9,0.1c-0.2,0.2-0.4,0.5-0.5,0.7c-0.2,0.3-0.3,0.5-0.4,0.9c-1.3-0.1-2.4-0.3-3.4-0.5
		C324.6,368.1,323.8,367.8,323,367.3z M323.4,352.3c-0.1,0.1-0.1,0.3-0.2,0.4c0,0.2-0.1,0.3-0.2,0.5c1.1,0,1.9,0,2.6,0
		c0.7,0,1.2,0,1.7-0.1c0,0.2,0,0.4,0,0.6c0,0.2,0,0.4,0,0.6v4c0.4,0,0.8,0,1.1,0c0.3,0,0.6,0,0.9-0.1v2.5h-1.6v-1.5h-10.2v1.4H316
		v-2.4c0.2,0,0.5,0,0.9,0s0.8,0,1.2,0v-4c0-0.2,0-0.4,0-0.6c0-0.2,0-0.4,0-0.6c0.4,0,0.8,0,1.3,0.1s1.1,0,1.9,0
		c0.1-0.3,0.2-0.6,0.2-0.9c-1,0-1.9,0-2.7,0.1c-0.8,0-1.5,0.1-2.1,0.1v-1.5c0.8,0,1.7,0.1,2.7,0.1c1,0,2.3,0,3.7,0
		c1.4,0,2.6,0,3.7,0c1,0,1.9,0,2.7-0.1v1.5c-0.7-0.1-1.6-0.1-2.6-0.1C325.9,352.3,324.8,352.3,323.4,352.3z M319.7,360.6
		c-0.4,0.4-0.7,0.8-1,1.2s-0.6,0.8-0.9,1.3l-1.4-0.7c0.5-0.5,0.9-0.9,1.1-1.3c0.3-0.4,0.5-0.8,0.7-1.2L319.7,360.6z M325.8,355v-0.7
		h-6.3v0.7H325.8z M319.5,356v0.7h6.3V356H319.5z M319.5,358.3h6.3v-0.8h-6.3V358.3z M325.8,361.6c-0.2,0.5-0.4,0.8-0.6,1
		c-0.2,0.2-0.5,0.2-1,0.2c-0.4,0-0.9,0-1.4,0s-1,0-1.6-0.1c-0.4,0-0.7-0.1-0.9-0.3c-0.2-0.1-0.2-0.4-0.2-0.8v-0.8c0-0.2,0-0.3,0-0.5
		s0-0.2-0.1-0.4c0.2,0,0.5,0.1,0.7,0.1c0.3,0,0.5,0,0.7,0c0.2,0,0.3,0.1,0.1,0.2c-0.1,0.1-0.2,0.2-0.2,0.3v0.5c0,0.2,0,0.3,0.1,0.4
		c0.1,0.1,0.2,0.1,0.4,0.1c0.2,0,0.6,0,1,0.1c0.4,0,0.8,0,1.1,0c0.2,0,0.3-0.1,0.4-0.2c0.1-0.1,0.2-0.3,0.2-0.7
		c0.2,0.2,0.4,0.3,0.6,0.4C325.3,361.4,325.5,361.5,325.8,361.6z M323.2,366c0.3-0.2,0.6-0.3,0.9-0.6c0.3-0.2,0.6-0.5,0.9-0.8h-3.9
		c0.2,0.2,0.4,0.4,0.7,0.6C322.3,365.5,322.7,365.7,323.2,366z M323.6,361.2c-0.3-0.2-0.5-0.4-0.8-0.6c-0.3-0.2-0.6-0.3-0.9-0.5
		l0.6-0.8c0.2,0.1,0.4,0.2,0.5,0.2c0.1,0.1,0.3,0.1,0.4,0.2c0.1,0.1,0.3,0.2,0.4,0.2c0.1,0.1,0.3,0.2,0.5,0.3L323.6,361.2z
		 M327.2,362.9c-0.3-0.5-0.6-0.9-0.9-1.3c-0.3-0.4-0.7-0.8-1.2-1.2l1.2-0.7c0.3,0.4,0.6,0.7,1,1.1s0.8,0.8,1.2,1.3L327.2,362.9z"/>
	<path class="st1" d="M335.5,357.3c-0.3,0.5-0.6,1-1,1.5c-0.3,0.5-0.7,0.9-0.9,1.3c-0.1-0.2-0.3-0.5-0.6-0.8
		c-0.2-0.3-0.5-0.5-0.8-0.7c0.3-0.2,0.6-0.5,0.8-0.8c0.3-0.3,0.5-0.7,0.8-1c0.3-0.4,0.5-0.7,0.7-1.1c0.2-0.4,0.4-0.8,0.6-1.1
		c0.4-0.9,0.8-1.8,1-2.7c0.2-0.9,0.4-1.6,0.5-2.2c0.3,0.2,0.7,0.3,1,0.4c0.3,0.1,0.7,0.2,1,0.3c0.3,0.1,0.4,0.1,0.5,0.2
		c0,0.1-0.1,0.2-0.3,0.4c0,0-0.1,0.1-0.1,0.2c-0.1,0.1-0.1,0.2-0.3,0.4c-0.1,0.2-0.3,0.5-0.5,0.9c-0.2,0.4-0.4,0.9-0.7,1.5v14.5h-2
		c0.1-0.4,0.1-1,0.2-1.6c0-0.6,0.1-1.2,0.1-1.8V357.3z M343.4,358.7c0.8-0.8,1.6-1.6,2.3-2.5c0.7-0.9,1.5-2,2.3-3.3
		c0.3,0.2,0.6,0.5,1,0.7c0.4,0.2,0.7,0.5,1,0.6c0.2,0.1,0.2,0.2,0.2,0.2c0,0.1-0.1,0.1-0.3,0.2c-0.1,0-0.2,0.1-0.3,0.2
		c-0.1,0.1-0.3,0.2-0.4,0.3c-0.1,0.1-0.3,0.3-0.4,0.4c-0.2,0.1-0.3,0.3-0.4,0.4c-0.4,0.5-0.8,0.9-1.2,1.3c-0.4,0.4-0.7,0.8-1.1,1.1
		c-0.4,0.4-0.8,0.7-1.2,1.1c-0.4,0.4-0.9,0.8-1.5,1.3v4.6c0,0.3,0,0.5,0.1,0.6c0.1,0.2,0.2,0.3,0.4,0.4c0.2,0.1,0.4,0.1,0.8,0.2
		c0.3,0,0.7,0,1.3,0c0.6,0,1,0,1.4-0.1c0.4,0,0.6-0.2,0.9-0.4c0.2-0.2,0.4-0.5,0.5-0.9c0.1-0.4,0.2-1,0.4-1.7
		c0.2,0.2,0.3,0.4,0.5,0.5c0.1,0.1,0.3,0.3,0.4,0.4c0.2,0.1,0.3,0.2,0.5,0.3c0.2,0.1,0.4,0.2,0.6,0.2c-0.2,0.8-0.5,1.4-0.6,1.8
		c-0.2,0.4-0.5,0.8-0.8,1c-0.3,0.2-0.8,0.3-1.3,0.4c-0.6,0-1.3,0.1-2.3,0.1c-0.9,0-1.7,0-2.3-0.1c-0.6-0.1-1-0.2-1.3-0.3
		c-0.3-0.1-0.5-0.4-0.6-0.6c-0.1-0.3-0.1-0.6-0.1-1v-13.8c0-0.5,0-1,0-1.5c0-0.5-0.1-0.9-0.1-1.1c0.1,0,0.3,0.1,0.5,0.1
		c0.2,0,0.4,0.1,0.6,0.1c0.2,0,0.4,0,0.6,0.1c0.2,0,0.4,0,0.5,0c0.2,0,0.3,0,0.3,0.1c0,0.1,0,0.2-0.2,0.3c-0.1,0.1-0.2,0.2-0.3,0.4
		c-0.1,0.2-0.1,0.4-0.1,0.5V358.7z"/>
	<path class="st1" d="M356.3,363.6c-0.5,0-1,0-1.5,0c-0.5,0-0.9,0.1-1.2,0.1v-1.5c0.4,0,0.9,0.1,1.4,0.1c0.6,0,1.2,0,1.9,0
		c0.1-0.2,0.2-0.3,0.2-0.5c0.1-0.2,0.2-0.3,0.2-0.5c-0.6,0-1.2,0-1.7,0c-0.5,0-1,0-1.2,0c0-0.2,0-0.5,0.1-0.8c0-0.3,0-0.6,0-0.9
		s0-0.6,0-0.9c0-0.3,0-0.6-0.1-0.7c0.5,0,1,0,1.6,0c0.6,0,1.3,0,2.2,0v-0.9c-0.5,0-1,0-1.4,0s-0.7,0-1,0c-0.3,0-0.5,0-0.8,0
		s-0.4,0-0.6,0c0-0.1,0-0.2,0.1-0.3c0-0.1,0-0.2,0-0.4c0-0.2,0-0.4,0-0.6c0-0.2,0-0.5,0-0.9c-0.2,0-0.4,0-0.7,0
		c-0.3,0-0.6,0.1-0.8,0.1v-1.4c0.3,0,0.5,0.1,0.8,0.1c0.3,0,0.5,0,0.7,0c0-0.4,0-0.7,0-1c0-0.3,0-0.5,0-0.6c0-0.2,0-0.3,0-0.4
		c0-0.1,0-0.2-0.1-0.2c0.2,0,0.4,0,0.6,0c0.2,0,0.5,0,0.8,0c0.3,0,0.6,0,1,0c0.4,0,0.8,0,1.4,0c0-0.1,0-0.2,0-0.4
		c0-0.2,0-0.3-0.1-0.5s0-0.3-0.1-0.5c0-0.2,0-0.3-0.1-0.4c0.3,0.1,0.6,0.1,0.9,0.1c0.3,0,0.6,0,0.9,0c0.1,0,0.2,0,0.3,0.1
		c0,0.1,0,0.2-0.2,0.2c-0.2,0.1-0.3,0.3-0.3,0.5v0.7c0.5,0,1,0,1.4,0c0.4,0,0.7,0,1,0c0.3,0,0.5,0,0.8,0c0.2,0,0.4,0,0.6,0
		c0,0.1-0.1,0.3-0.1,0.6c0,0.3,0,0.8,0,1.6c0.2,0,0.5,0,0.7,0c0.2,0,0.5-0.1,0.8-0.1v1.4c-0.5-0.1-1-0.1-1.5-0.1c0,0.4,0,0.7,0,1
		c0,0.3,0,0.5,0,0.6c0,0.2,0,0.3,0,0.4c0,0.1,0,0.2,0.1,0.2c-0.2,0-0.4,0-0.6,0c-0.2,0-0.5,0-0.8,0c-0.3,0-0.6,0-1,0
		c-0.4,0-0.8,0-1.4,0v0.9c0.8,0,1.6,0,2.1,0c0.6,0,1.1,0,1.6,0c0,0.2,0,0.5,0,0.8c0,0.3,0,0.6,0,0.9s0,0.6,0,0.9c0,0.3,0,0.6,0,0.8
		c-0.5,0-1.1,0-1.8,0c-0.7,0-1.6,0-2.6,0c-0.1,0.2-0.2,0.3-0.3,0.5c-0.1,0.2-0.2,0.4-0.3,0.6c0.9,0,1.7,0,2.2,0c0.6,0,1,0,1.4,0
		c0.4,0,0.7,0,0.9,0c0.3,0,0.5,0,0.8-0.1v1.5c-0.2,0-0.4,0-0.6-0.1c-0.2,0-0.5,0-0.8,0c-0.2,0.4-0.4,0.8-0.6,1.2
		c-0.2,0.4-0.5,0.7-0.9,1.1c0.4,0.2,0.8,0.3,1.2,0.4c0.3,0.1,0.6,0.3,0.8,0.4c-0.5,0.4-0.8,0.8-0.9,1.3c-0.3-0.2-0.6-0.4-1-0.6
		c-0.4-0.2-0.8-0.4-1.3-0.6c-0.6,0.4-1.3,0.7-2.1,1.1c-0.8,0.3-1.8,0.6-2.9,0.8c-0.1-0.3-0.2-0.6-0.3-0.8c-0.1-0.2-0.3-0.5-0.5-0.8
		c0.9,0,1.7-0.1,2.4-0.3c0.7-0.1,1.4-0.3,2-0.6c-0.5-0.2-1-0.4-1.6-0.5c-0.5-0.2-1.1-0.3-1.6-0.4
		C355.5,364.7,355.9,364.2,356.3,363.6z M358.3,359.1h-2.4v1.2h2.4V359.1z M358.3,353.8v-1H356v1H358.3z M356,355v1h2.4v-1H356z
		 M361.1,363.6c-0.5,0-1,0-1.6,0c-0.6,0-1.1,0-1.6,0c-0.1,0.2-0.2,0.4-0.3,0.5c-0.1,0.2-0.2,0.4-0.3,0.5c0.9,0.2,1.7,0.5,2.5,0.7
		C360.3,364.9,360.7,364.3,361.1,363.6z M362.1,353.8v-1h-2.3v1H362.1z M359.7,355v1h2.3v-1H359.7z M359.7,360.2h2.3v-1.2h-2.3
		V360.2z M366.8,363.9c-0.4-0.8-0.7-1.6-1-2.6c-0.3-1-0.5-1.9-0.6-2.9c-0.1,0.1-0.1,0.2-0.2,0.4c-0.1,0.1-0.1,0.3-0.2,0.4
		c-0.2-0.2-0.4-0.4-0.6-0.5c-0.2-0.1-0.4-0.2-0.7-0.3c0.4-0.6,0.7-1.2,1-1.8c0.3-0.7,0.5-1.3,0.7-2c0.2-0.7,0.4-1.4,0.5-2.1
		c0.1-0.7,0.2-1.4,0.2-2.2c0.7,0.2,1.3,0.4,1.9,0.4c0.2,0,0.2,0,0.2,0.1c0,0.1-0.1,0.2-0.2,0.3c0,0-0.1,0.1-0.1,0.2
		c0,0.1-0.1,0.2-0.2,0.5c-0.1,0.2-0.2,0.5-0.3,0.9s-0.3,0.9-0.5,1.6h2.9c0.6,0,1.1,0,1.5,0c0.4,0,0.7-0.1,1-0.1v1.6
		c-0.2,0-0.5,0-0.8-0.1c-0.3,0-0.7,0-1.1,0c-0.1,3.6-0.7,6.4-1.8,8.4c0.8,1.2,2.1,2.1,3.9,2.9c-0.4,0.3-0.6,0.6-0.9,0.8
		c-0.2,0.3-0.4,0.5-0.5,0.8c-0.7-0.5-1.3-0.9-1.9-1.4c-0.5-0.5-1.1-1.1-1.6-1.8c-0.3,0.3-0.5,0.7-0.8,1c-0.3,0.3-0.6,0.6-0.9,0.9
		c-0.3,0.3-0.6,0.6-1,0.9c-0.4,0.3-0.8,0.6-1.2,0.9c-0.2-0.3-0.4-0.5-0.6-0.7c-0.2-0.2-0.5-0.4-0.8-0.6c0.9-0.4,1.7-0.9,2.4-1.5
		C365.5,365.6,366.2,364.8,366.8,363.9z M366.4,355.5c-0.1,0.2-0.1,0.4-0.2,0.6c-0.1,0.2-0.1,0.4-0.3,0.7l0.6-0.2c0,1,0.1,1.9,0.3,3
		c0.2,1,0.5,2,0.9,2.8c0.4-0.9,0.7-1.8,0.9-2.9c0.2-1.1,0.3-2.4,0.3-3.9H366.4z"/>
	<path class="st1" d="M377.3,355.8c-0.3,0-0.6,0-1,0c-0.4,0-0.8,0.1-1.2,0.1v-1.6c0.4,0.1,0.8,0.1,1.2,0.1c0.4,0,0.8,0,1,0
		c0-1.2,0-2.1,0-2.8c0-0.7-0.1-1.2-0.2-1.5c0.4,0.1,0.7,0.1,0.9,0.1c0.2,0,0.5,0,0.8,0c0.2,0,0.4,0,0.4,0.1s0,0.2-0.2,0.3
		c-0.1,0.1-0.2,0.2-0.2,0.3c0,0.1-0.1,0.3-0.1,0.5v3c0.3,0,0.7,0,1,0c0.4,0,0.7-0.1,0.9-0.1v1.6c-0.3-0.1-0.6-0.1-0.9-0.1
		c-0.3,0-0.6,0-1,0v3c0.3-0.1,0.5-0.2,0.8-0.3c0.3-0.1,0.6-0.3,0.9-0.4c0,0.3,0.1,0.6,0.1,0.8c0,0.2,0.1,0.4,0.2,0.7
		c-0.7,0.2-1.3,0.5-2.1,0.8v6.1c0,0.3,0,0.5-0.1,0.7c-0.1,0.2-0.2,0.4-0.4,0.5c-0.2,0.2-0.5,0.3-0.8,0.4c-0.3,0.1-0.8,0.2-1.4,0.3
		c0-0.4,0-0.8-0.1-1.1c-0.1-0.3-0.3-0.6-0.6-1c0.4,0.1,0.7,0.1,1,0.1c0.2,0,0.4,0,0.6-0.1c0.1-0.1,0.2-0.1,0.3-0.2
		c0-0.1,0.1-0.2,0.1-0.4V361c-0.2,0.1-0.4,0.2-0.6,0.3c-0.2,0.1-0.3,0.2-0.5,0.2c-0.1,0.1-0.3,0.1-0.4,0.2s-0.3,0.1-0.4,0.2
		c-0.1-0.3-0.2-0.5-0.4-0.8c-0.1-0.3-0.3-0.6-0.6-0.9c0.2-0.1,0.5-0.1,0.7-0.2c0.2-0.1,0.4-0.1,0.6-0.2c0.2-0.1,0.4-0.1,0.7-0.2
		c0.2-0.1,0.5-0.2,0.8-0.3V355.8z M389.9,351.1c0.5,0,0.9,0,1.3,0c0.4,0,0.8,0,1.1-0.1v1.4c-0.7-0.1-1.4-0.1-2.4-0.1h-3.5v1
		c1.8,0,3.3,0,4.4,0c1.1,0,1.9-0.1,2.5-0.1l-1.1,2.8l-1.6-0.5l0.5-1h-4.8v1c0.5,0,0.9-0.1,1.2-0.1c0.3,0,0.6-0.1,0.9-0.1
		c0.2,0,0.5-0.1,0.7-0.1c0.2,0,0.4-0.1,0.6-0.1l0.1,1.2c-0.2,0-0.4,0-0.6,0c-0.2,0-0.4,0-0.7,0c-0.3,0-0.6,0-0.9,0.1
		c-0.3,0-0.8,0.1-1.2,0.1c0,0.1,0,0.2,0,0.3c0,0.1,0,0.1,0.1,0.2c0.1,0,0.1,0.1,0.3,0.1c0.1,0,0.3,0,0.5,0.1c0.2,0,0.6,0,1,0
		c0.4,0,0.8,0,1.2,0c0.4,0,0.8-0.1,1.2-0.1c0.4,0,0.7-0.1,0.9-0.1c-0.1,0.2-0.2,0.5-0.2,0.6c-0.1,0.2-0.1,0.4-0.1,0.7
		c-0.6,0.1-1.3,0.1-2.1,0.1s-1.6,0-2.4-0.1c-0.3,0-0.6,0-0.8-0.1c-0.2-0.1-0.4-0.1-0.5-0.2c-0.1-0.1-0.2-0.3-0.2-0.5
		c0-0.2-0.1-0.5-0.1-0.8l-1.9,0.2l-0.1-1l2-0.2v-1.2h-2.4c0,0.4,0,0.9,0,1.6c0,0.7-0.1,1.4-0.1,2.1c0,0.7-0.1,1.4-0.1,2.1
		c0,0.7-0.1,1.2-0.1,1.5c-0.1,0.7-0.1,1.4-0.3,2c-0.1,0.6-0.3,1.2-0.5,1.7c-0.2,0.6-0.4,1.1-0.7,1.6c-0.3,0.5-0.6,1.1-1,1.7
		c-0.2-0.3-0.4-0.5-0.6-0.6c-0.2-0.2-0.4-0.3-0.7-0.4c0.6-0.6,1.1-1.5,1.6-2.6c0.5-1.1,0.7-2.6,0.9-4.3c0-0.5,0.1-1.1,0.1-1.8
		c0-0.7,0-1.3,0.1-2c0-0.7,0-1.4,0-2c0-0.7,0-1.3-0.1-1.8c0.5,0,1.1,0.1,1.8,0.1c0.7,0,1.4,0,2.1,0v-1.4c0-0.5,0-0.8,0-1.1
		c0-0.3-0.1-0.6-0.1-0.8c0.3,0,0.6,0,0.9,0.1c0.3,0,0.5,0,0.7,0c0.2,0,0.3,0,0.3,0c0,0.1,0,0.1-0.2,0.2c-0.1,0-0.1,0.1-0.1,0.2
		s0,0.3,0,0.6H389.9z M389,364.3c0.1,0.8,0.1,1.5,0.1,2c0,0.5-0.2,1-0.4,1.3c-0.2,0.3-0.5,0.6-0.9,0.8c-0.4,0.2-0.9,0.3-1.6,0.4
		c0-0.3-0.1-0.6-0.2-0.9c-0.1-0.2-0.3-0.5-0.6-0.8c0.5,0.1,0.8,0.1,1.1,0.1c0.3,0,0.6-0.1,0.7-0.3c0.2-0.2,0.3-0.5,0.4-0.8
		c0.1-0.3,0.1-0.8,0-1.3c-0.5,0.5-1.2,1.1-2,1.6c-0.8,0.6-1.8,1.1-3,1.6c-0.2-0.4-0.5-0.8-1-1.1c0.4-0.1,0.8-0.2,1.3-0.5
		s1-0.5,1.6-0.8c0.5-0.3,1.1-0.6,1.6-1c0.5-0.4,0.9-0.7,1.3-1.1c-0.1-0.2-0.1-0.4-0.1-0.5c0-0.1-0.1-0.2-0.1-0.3
		c-0.2,0.3-0.5,0.5-0.7,0.7c-0.3,0.2-0.6,0.5-0.9,0.7c-0.3,0.2-0.7,0.5-1.2,0.7c-0.4,0.3-0.9,0.5-1.5,0.8c-0.1-0.3-0.2-0.5-0.4-0.7
		c-0.1-0.2-0.3-0.3-0.5-0.5c0.3-0.1,0.6-0.2,1-0.4c0.4-0.2,0.8-0.4,1.2-0.6c0.4-0.2,0.9-0.5,1.3-0.8c0.4-0.3,0.8-0.6,1.1-0.9
		c-0.1-0.1-0.1-0.2-0.2-0.2c-0.1-0.1-0.1-0.1-0.2-0.2c-0.4,0.3-0.9,0.6-1.4,0.8s-1.1,0.6-1.7,0.9c-0.1-0.3-0.2-0.5-0.3-0.7
		c-0.1-0.2-0.3-0.4-0.5-0.6c0.8-0.2,1.5-0.5,2.1-0.8c0.6-0.3,1.2-0.6,1.7-1c-0.7,0-1.3,0-1.9,0c-0.6,0-1.1,0-1.5,0.1v-1.3
		c0.6,0,1.3,0,2.1,0.1c0.8,0,1.8,0,2.8,0c0.5,0,1,0,1.4,0s0.8,0,1.2,0s0.7,0,1.1,0c0.4,0,0.8,0,1.2,0v1.3c-0.5,0-1.2,0-1.9-0.1
		s-1.6,0-2.6,0c-0.2,0.1-0.3,0.2-0.4,0.3c-0.1,0.1-0.3,0.2-0.6,0.4c0.6,0.6,1.1,1.2,1.4,2c0.6-0.4,1.1-0.8,1.4-1.2
		c0.3-0.4,0.6-0.7,0.7-1c0.2,0.2,0.4,0.3,0.7,0.4c0.2,0.1,0.5,0.3,0.8,0.4c0.1,0.1,0.2,0.1,0.2,0.2s-0.1,0.1-0.2,0.1
		c-0.1,0-0.1,0-0.2,0.1s-0.3,0.1-0.5,0.2c-0.2,0.1-0.5,0.3-0.8,0.5c-0.3,0.2-0.7,0.5-1.2,0.8c0.8,0.4,1.5,0.8,2.1,1.1
		c0.6,0.4,1.2,0.7,1.8,1.1l-1,1.3c-0.5-0.4-1.1-0.9-1.7-1.3C390.2,365.1,389.6,364.7,389,364.3z"/>
	<path class="st1" d="M311.9,383.7c0-0.3,0-0.5,0-0.8c0-0.3,0-0.5-0.1-0.7c0.1,0,0.3,0,0.4,0c0.1,0,0.3,0,0.5,0c0.2,0,0.4,0,0.7,0
		c0.3,0,0.6,0,1.1,0h2l0.1-3.9h-2.4c-0.6,0-1.1,0-1.6,0s-1,0.1-1.5,0.1v-1.8c0.5,0,1.1,0,1.6,0.1c0.5,0,1.2,0,1.9,0
		c0.5,0,0.9,0,1.3,0c0.4,0,0.7,0,1,0c0.3,0,0.5,0,0.7,0s0.4,0,0.6-0.1l-0.3,7.2c-0.2,0-0.5,0-0.7,0c-0.2,0-0.6,0-1,0h-2.8v6
		c0.6-0.4,1.3-0.8,2-1.3c0.7-0.5,1.4-1,2.1-1.6c-0.1,0.4,0,0.7,0.1,1.1c0.1,0.4,0.2,0.7,0.3,0.9l-3.6,2.4c-0.5,0.3-0.9,0.6-1.2,0.9
		c-0.4,0.3-0.7,0.6-1,0.9c-0.1-0.3-0.3-0.6-0.5-0.9c-0.2-0.3-0.5-0.6-0.8-1c0.3-0.1,0.6-0.3,1-0.5V383.7z M320.2,383
		c-0.3,0.4-0.5,0.7-0.7,0.9c-0.1-0.3-0.3-0.6-0.4-0.9c-0.2-0.3-0.3-0.6-0.5-0.8c0.4-0.5,0.8-1.1,1.2-1.6c0.4-0.5,0.7-1.1,1-1.6
		c0.3-0.6,0.5-1.2,0.7-1.8c0.2-0.7,0.3-1.4,0.4-2.2c0.3,0.1,0.7,0.3,1,0.3c0.4,0.1,0.7,0.2,1,0.2c0.2,0,0.3,0.1,0.3,0.2
		c0,0.1-0.1,0.2-0.3,0.3c-0.1,0-0.1,0.1-0.2,0.1c-0.1,0.1-0.1,0.2-0.2,0.3c-0.1,0.2-0.2,0.4-0.3,0.7c-0.1,0.3-0.2,0.7-0.4,1.3h3.7
		c0.6,0,1.1,0,1.6-0.1c0.5,0,0.9-0.1,1.2-0.2v1.9c-0.3-0.1-0.7-0.1-1.1-0.1s-0.8,0-1.4,0c-0.1,1.3-0.2,2.4-0.4,3.3
		c-0.1,0.9-0.3,1.7-0.4,2.4c-0.2,0.7-0.3,1.2-0.5,1.7c-0.2,0.5-0.4,1-0.7,1.4c0.7,0.6,1.4,1.2,2.3,1.7c0.9,0.5,1.8,0.8,2.7,0.9
		c-0.3,0.3-0.6,0.7-0.8,1c-0.2,0.4-0.3,0.7-0.4,1.1c-0.4-0.2-0.8-0.4-1.2-0.6c-0.4-0.2-0.9-0.5-1.3-0.8c-0.4-0.3-0.8-0.6-1.2-0.9
		c-0.4-0.3-0.8-0.6-1.1-1c-0.6,0.7-1.5,1.4-2.5,2c-1,0.6-2.2,1.1-3.7,1.6c-0.1-0.3-0.3-0.5-0.5-0.8c-0.2-0.3-0.5-0.5-0.8-0.7
		c0.7-0.2,1.4-0.4,2-0.6c0.6-0.2,1.2-0.4,1.7-0.7c0.5-0.3,1-0.6,1.4-0.9c0.4-0.3,0.9-0.7,1.3-1.2c-0.5-0.7-0.9-1.5-1.3-2.5
		C320.8,385.5,320.5,384.3,320.2,383z M321.3,381.2c0.1,0.6,0.2,1.1,0.4,1.7c0.2,0.6,0.3,1.2,0.5,1.7c0.2,0.5,0.4,1.1,0.6,1.5
		c0.2,0.5,0.5,0.9,0.7,1.2c0.3-0.8,0.6-1.8,0.9-3.1c0.2-1.3,0.4-2.7,0.5-4.4h-2.9C321.9,380.3,321.7,380.7,321.3,381.2z"/>
	<path class="st1" d="M345.2,383.9c0.2,0.1,0.4,0.2,0.6,0.2c0.2,0.1,0.4,0.1,0.7,0.2c0.2,0.1,0.2,0.2-0.1,0.3
		c-0.1,0-0.2,0.1-0.4,0.3c-0.2,0.2-0.4,0.5-0.7,0.9c0.4,0,0.9,0,1.4,0c0.5,0,0.9,0,1.3,0s0.8,0,1.1-0.1c0.3,0,0.6,0,0.8-0.1v1.7
		c-0.2,0-0.4,0-0.6-0.1c-0.2,0-0.5,0-0.7-0.1c-0.3,0-0.7,0-1.1,0c-0.4,0-1,0-1.6,0c-0.6,0-1.4,0-2.3,0c-0.9,0-1.9,0-3.1,0
		c-2.5,0-4.4,0-5.8,0c-1.4,0-2.5,0.1-3.1,0.1v-1.7c0.5,0.1,1.2,0.1,2,0.1c0.8,0,1.8,0.1,3.1,0.1c-0.1-0.3-0.3-0.5-0.4-0.8
		c-0.2-0.3-0.4-0.5-0.5-0.7l1.2-0.5c-0.9,0-1.7,0.1-2.4,0.1c-0.7,0-1.3,0.1-1.8,0.1v-1.5c0.9,0.1,2,0.1,3.1,0.2
		c1.2,0,2.6,0.1,4.2,0.1v-1.5c-1.4,0-2.5,0-3.5,0.1c-1,0-1.8,0.1-2.6,0.2v-1.6c0.8,0.1,1.6,0.1,2.6,0.2c1,0,2.1,0.1,3.5,0.1v-1.5
		c-2,0-3.6,0-4.8,0c-1.2,0-2,0.1-2.6,0.1v-1.5c0.5,0.1,1.1,0.1,1.8,0.1c0.7,0,1.6,0.1,2.7,0.1c-0.1-0.2-0.1-0.3-0.2-0.5
		c-0.1-0.1-0.1-0.3-0.2-0.4c-0.1-0.1-0.1-0.3-0.2-0.4c-0.1-0.1-0.2-0.3-0.3-0.4l1.9-0.6c0.2,0.3,0.3,0.6,0.4,0.8
		c0.1,0.2,0.3,0.5,0.5,0.9l-1.7,0.7h4.8c0.2-0.4,0.4-0.8,0.6-1.2c0.2-0.4,0.3-0.9,0.5-1.3c0.4,0.2,0.8,0.3,1.1,0.4
		c0.3,0.1,0.7,0.2,1,0.3c0.1,0,0.2,0.1,0.2,0.2s-0.1,0.1-0.2,0.2c-0.1,0-0.3,0.2-0.5,0.4c-0.2,0.2-0.5,0.6-0.9,1.1
		c1.2,0,2.3,0,3.1,0c0.8,0,1.5-0.1,1.9-0.1v1.5c-0.2,0-0.5-0.1-0.7-0.1c-0.3,0-0.7,0-1.2-0.1c-0.5,0-1.2,0-2.1,0c-0.9,0-2,0-3.3,0
		v1.5c1.3,0,2.4,0,3.3-0.1c0.9,0,1.8-0.1,2.5-0.2v1.6c-0.7-0.1-1.6-0.1-2.5-0.2c-0.9,0-2-0.1-3.3-0.1v1.5c1.6,0,2.9,0,4-0.1
		c1.1,0,2.1-0.1,3-0.2v1.5c-0.5,0-1.1-0.1-1.7-0.1S346,383.9,345.2,383.9z M336.3,392.8v1.1h-1.7c0.1-0.3,0.1-0.6,0.1-0.9
		c0-0.3,0-0.6,0-0.9v-2.6c0-0.2,0-0.5,0-0.6c0-0.2-0.1-0.3-0.1-0.5c0.3,0,0.6,0,0.9,0c0.3,0,0.7,0,1.2,0c0.5,0,1,0,1.7,0
		c0.7,0,1.5,0,2.6,0s1.9,0,2.6,0c0.7,0,1.3,0,1.7,0c0.5,0,0.9,0,1.2,0c0.3,0,0.6,0,0.9,0c-0.1,0.1-0.1,0.3-0.1,0.4
		c0,0.2,0,0.4,0,0.7v2.5c0,0.3,0,0.6,0,0.9c0,0.3,0,0.6,0.1,0.9h-1.8v-0.9H336.3z M345.5,391.6v-1.9h-9.2v1.9H345.5z M337.6,383.9
		c0.1,0.3,0.3,0.6,0.5,1c0.2,0.4,0.4,0.7,0.6,1h5.1c0.2-0.3,0.4-0.6,0.6-1c0.2-0.4,0.3-0.7,0.5-1c-0.5,0-1.1,0-1.7,0
		c-0.6,0-1.3,0-1.9,0c-0.7,0-1.3,0-1.9,0S338.1,383.9,337.6,383.9z"/>
	<path class="st1" d="M356.4,380.9c-0.2,0.5-0.5,1-0.8,1.6c-0.3,0.5-0.6,1.1-0.9,1.6c-0.3-0.2-0.6-0.3-0.9-0.4
		c-0.3-0.1-0.7-0.2-1-0.2c1-1,1.7-2.1,2.3-3.4c0.6-1.2,1-2.6,1.2-4.1c0.3,0.2,0.7,0.3,1.2,0.5c0.4,0.1,0.8,0.2,1,0.3
		c0.5,0.1,0.5,0.2,0.1,0.4c-0.1,0-0.1,0.1-0.2,0.1c-0.1,0.1-0.1,0.2-0.2,0.3c-0.1,0.2-0.2,0.4-0.3,0.6c-0.1,0.3-0.3,0.6-0.5,1.1h4.2
		v-1.9c0-0.1,0-0.3,0-0.5c0-0.2,0-0.5,0-0.7s0-0.5,0-0.7c0-0.2,0-0.4,0-0.5c0.4,0,0.7,0.1,1.2,0.1c0.4,0,0.8,0,1.1,0
		c0.2,0,0.3,0,0.3,0.1s0,0.1-0.2,0.2c-0.2,0.1-0.3,0.2-0.3,0.2c-0.1,0.1-0.1,0.2-0.1,0.4v3.2c0.8,0,1.4,0,2,0c0.6,0,1.1,0,1.6,0
		s1,0,1.4,0c0.4,0,0.9,0,1.3-0.1v1.9c-0.6,0-1.1-0.1-1.7-0.1c-0.5,0-1,0-1.5,0c-0.5,0-1,0-1.5,0s-1.1,0-1.6,0v3.8c1.1,0,2,0,2.8-0.1
		c0.7,0,1.5-0.1,2.1-0.1v2c-0.7-0.1-1.4-0.1-2.1-0.2c-0.7,0-1.7-0.1-2.8-0.1v4.5c0.8,0,1.6,0,2.2,0c0.6,0,1.2,0,1.8,0
		c0.5,0,1.1,0,1.6-0.1c0.5,0,1-0.1,1.5-0.1v2.1c-0.6,0-1.1-0.1-1.7-0.1c-0.6,0-1.2-0.1-1.8-0.1c-0.7,0-1.4,0-2.2,0
		c-0.8,0-1.8,0-2.9,0c-1.1,0-2.1,0-2.9,0c-0.8,0-1.6,0-2.2,0.1c-0.7,0-1.3,0-1.9,0.1c-0.6,0-1.1,0.1-1.7,0.1v-2.1
		c0.6,0,1.1,0.1,1.7,0.1c0.6,0,1.2,0,1.8,0.1c0.6,0,1.4,0,2.2,0c0.8,0,1.7,0,2.8,0v-4.5c-0.6,0-1.2,0-1.7,0s-1,0-1.4,0.1
		c-0.4,0-0.8,0-1.2,0.1c-0.4,0-0.7,0.1-1.1,0.1v-2c0.3,0,0.7,0.1,1.1,0.1c0.4,0,0.8,0,1.2,0.1c0.4,0,0.9,0,1.4,0s1.1,0,1.7,0v-3.8
		H356.4z"/>
	<path class="st1" d="M376.5,384.3c-0.2-0.2-0.5-0.3-0.8-0.5c-0.3-0.2-0.6-0.4-0.9-0.5c-0.3-0.2-0.6-0.3-0.9-0.5
		c-0.3-0.1-0.6-0.2-0.8-0.3l0.9-1.5c0.6,0.2,1.2,0.5,1.8,0.8c0.6,0.3,1.2,0.6,1.6,0.8L376.5,384.3z M377.4,386.5
		c-0.2,0.4-0.3,0.9-0.5,1.4c-0.2,0.6-0.3,1.3-0.5,2.1c-0.2,0.6-0.3,1.3-0.4,2c-0.1,0.7-0.2,1.4-0.3,2c-0.4-0.3-0.8-0.6-1.1-0.8
		c-0.3-0.2-0.7-0.4-1-0.6c0.2-0.4,0.4-1,0.6-1.5c0.2-0.6,0.4-1.2,0.6-1.9c0.2-0.7,0.4-1.4,0.5-1.9c0.1-0.6,0.2-1.1,0.3-1.8
		c0.2,0.2,0.4,0.5,0.8,0.7C376.7,386.3,377,386.4,377.4,386.5z M377.3,379.4c-0.2-0.2-0.4-0.4-0.7-0.6c-0.3-0.2-0.5-0.4-0.8-0.7
		c-0.3-0.2-0.6-0.4-0.9-0.6c-0.3-0.2-0.6-0.4-0.9-0.5l1-1.4c0.3,0.2,0.5,0.3,0.9,0.5c0.3,0.2,0.6,0.4,0.9,0.6
		c0.3,0.2,0.6,0.4,0.9,0.6c0.3,0.2,0.5,0.4,0.8,0.5L377.3,379.4z M383.7,378.1c-0.7,0.1-1.4,0.2-2.1,0.3c-0.7,0.1-1.2,0.2-1.7,0.2
		c-0.1-0.3-0.2-0.5-0.3-0.8c-0.1-0.3-0.3-0.5-0.5-0.8c0.3,0,0.7,0,1.2,0c0.5,0,1-0.1,1.5-0.1c0.5-0.1,1-0.1,1.5-0.2s0.9-0.1,1.2-0.2
		c1-0.2,2-0.4,2.7-0.6c0.8-0.2,1.4-0.4,1.8-0.5c0.1,0.1,0.1,0.3,0.2,0.4c0.1,0.2,0.2,0.3,0.3,0.5c0.1,0.2,0.2,0.3,0.3,0.4
		c0.1,0.1,0.2,0.2,0.2,0.3c0.3,0.3,0.3,0.5,0,0.4c-0.2,0-0.8,0-1.7,0.1c-0.4,0-0.8,0.1-1.3,0.2c-0.5,0.1-1,0.1-1.6,0.2v3.2
		c0.7,0,1.4,0,2,0c0.6,0,1.1,0,1.6,0c0.5,0,1,0,1.4-0.1c0.4,0,0.9-0.1,1.3-0.1v1.8c-0.4,0-0.9-0.1-1.3-0.1c-0.4,0-0.9,0-1.4-0.1
		c-0.5,0-1,0-1.6,0c-0.6,0-1.3,0-2,0v2.8c0.7,0,1.2,0,1.7,0c0.5,0,0.9,0,1.2,0c0.3,0,0.6,0,0.8,0c0.2,0,0.4,0,0.6-0.1
		c-0.1,0.6-0.1,1.3-0.1,2v4.4c0,0.4,0,0.8,0,1.1c0,0.3,0.1,0.7,0.1,1.2h-1.9v-1.7h-6.4v1.7h-1.9c0.1-0.5,0.1-0.9,0.1-1.2
		c0-0.3,0-0.7,0-1.1v-4.4c0-0.3,0-0.7,0-1c0-0.4-0.1-0.7-0.1-1c0.2,0,0.4,0,0.6,0.1c0.2,0,0.5,0,0.8,0c0.3,0,0.7,0,1.1,0
		c0.4,0,0.9,0,1.5,0v-2.8c-1.2,0-2.3,0-3.1,0.1c-0.8,0-1.6,0.1-2.3,0.1v-1.8c0.4,0,0.8,0.1,1.1,0.1c0.4,0,0.8,0,1.2,0.1
		c0.4,0,0.9,0,1.4,0c0.5,0,1,0,1.7,0V378.1z M387.9,386.8h-6.4v3.8h6.4V386.8z"/>
</g>
<g>
	<path class="st3" d="M200.5,345.7c-7.5,0-15-1-22.3-3c-1.3-0.3-2.5-0.7-3.8-1.1c-20.2-6.5-37.2-20.2-47.7-38.7
		c-11.3-19.7-14.2-42.6-8.3-64.6c5.9-21.9,20.1-40.2,39.8-51.5c12.9-7.4,27.5-11.3,42.2-11.3c7.5,0,15.1,1,22.4,3
		c21.9,5.9,40.2,20.1,51.5,39.8c9.6,16.7,13.2,35.6,10.3,54.6l-0.1,0.6h-8.3l0.1-0.8c2.8-17.5-0.3-34.9-9.2-50.3
		c-10.2-17.8-26.7-30.6-46.6-36c-6.6-1.8-13.5-2.7-20.2-2.7c-13.3,0-26.4,3.5-38.1,10.2c-17.8,10.2-30.6,26.7-36,46.6
		c-5.4,19.8-2.7,40.5,7.5,58.3c10.2,17.8,26.7,30.6,46.6,36c7.5,2,15.4,2.9,23.2,2.6l0.4-0.1c6.2-0.3,12.5-1.4,18.7-3.2l0.2,0l0.2,0
		c4.8,0.9,9.8,1.4,15,1.4l2.8,0l-2.5,1.2c-4,2-8.2,3.7-12.5,5l-0.2,0.1c-0.2,0.1-0.3,0.2-0.5,0.2
		C217.2,344.5,208.9,345.7,200.5,345.7z"/>
</g>
<path class="st1" d="M230.3,257.8c-1-7-7.7-12-14.9-11c-7.3,1-12.3,7.6-11.3,14.6c1,7.1,7.6,12,14.9,11
	C226.2,271.5,231.3,264.9,230.3,257.8z M218,266c-3.6,0.5-6.7-1.9-7.2-5.4c-0.5-3.5,1.8-6.8,5.4-7.3c3.6-0.5,6.7,2,7.2,5.5
	C224,262.4,221.6,265.5,218,266z"/>
<path class="st1" d="M264.8,289.1c-1-7-7.7-12-14.9-11c-7.3,1-12.3,7.6-11.3,14.6c1,7.1,7.6,12,14.9,11
	C260.7,302.7,265.8,296.2,264.8,289.1z M252.5,297.3c-3.6,0.5-6.7-1.8-7.2-5.4c-0.5-3.5,1.8-6.8,5.4-7.3c3.6-0.5,6.7,2,7.2,5.5
	C258.4,293.7,256.1,296.8,252.5,297.3z"/>
<g>
	<path class="st1" d="M215.7,301.5h-10.5l46.7-51h10.5L215.7,301.5z"/>
</g>
<path class="st1" d="M242.6,323.3c-1.4,0.1-2.8,0.1-4.2,0.1c-19.7,0-31.8-7.3-38.5-13.4c-9.4-8.6-14.9-20.7-14.9-33.2v-0.6h-8.2v0.6
	c0,14.8,6.4,29.1,17.5,39.2c7.8,7.1,21.8,15.6,44,15.6c2.5,0,5.1-0.1,7.7-0.4L242.6,323.3z"/>
</svg>
