<?xml version="1.0" encoding="utf-8"?>
<!-- Generator: Adobe Illustrator 19.0.0, SVG Export Plug-In . SVG Version: 6.00 Build 0)  -->
<svg version="1.1" id="Layer_1" xmlns="http://www.w3.org/2000/svg" xmlns:xlink="http://www.w3.org/1999/xlink" x="0px" y="0px"
	 viewBox="0 0 612 612" style="enable-background:new 0 0 612 612;" xml:space="preserve">
<metadata><?xpacket begin="﻿" id="W5M0MpCehiHzreSzNTczkc9d"?>
<x:xmpmeta xmlns:x="adobe:ns:meta/" x:xmptk="Adobe XMP Core 5.6-c067 79.157747, 2015/03/30-23:40:42        ">
   <rdf:RDF xmlns:rdf="http://www.w3.org/1999/02/22-rdf-syntax-ns#">
      <rdf:Description rdf:about=""/>
   </rdf:RDF>
</x:xmpmeta>
                                                                                                    
                                                                                                    
                                                                                                    
                                                                                                    
                                                                                                    
                                                                                                    
                                                                                                    
                                                                                                    
                                                                                                    
                                                                                                    
                                                                                                    
                                                                                                    
                                                                                                    
                                                                                                    
                                                                                                    
                                                                                                    
                                                                                                    
                                                                                                    
                                                                                                    
                                                                                                    
                           
<?xpacket end="w"?></metadata>
<style type="text/css">
	.st0{fill:#FFFFFF;}
	.st1{fill:#0083BF;}
	.st2{fill:#59AFE1;}
	.st3{fill:#74C1EC;}
</style>
<rect y="0" class="st0" width="612" height="612"/>
<g>
	<g>
		<path class="st1" d="M342.6,275.5c1.2,0,2.3,0,3.6-0.1c1.2-0.1,2.3-0.1,3.1-0.2v3.4c-0.9-0.1-1.9-0.2-3.1-0.2
			c-1.2,0-2.4-0.1-3.6-0.1v11.1c-0.4,0-0.8-0.1-1.3-0.1s-1.1-0.1-1.7-0.1c-0.6,0-1.2,0-1.9,0c-0.6,0-1.2,0-1.8,0c-1.2,0-2.3,0-3.3,0
			c-1,0-1.8,0.1-2.4,0.2v-11.1h-5.1V293h14.5c0.5,0,1,0,1.6,0c0.6,0,1.2,0,1.8,0c0.6,0,1.2,0,1.8-0.1c0.6,0,1-0.1,1.5-0.1v3.2
			c-0.4,0-0.9-0.1-1.5-0.1c-0.6,0-1.2-0.1-1.8-0.1c-0.6,0-1.2,0-1.8,0c-0.6,0-1.1,0-1.6,0h-14.5v1.4h-3.3c0.1-0.6,0.2-1.4,0.2-2.3
			c0.1-0.9,0.1-1.9,0.1-3v-13.6c-0.9,0-1.8,0.1-2.6,0.1c-0.8,0-1.7,0.1-2.4,0.2v-3.4c0.8,0.1,1.6,0.1,2.4,0.2c0.8,0,1.7,0.1,2.6,0.1
			c0-1.6,0-3.2-0.1-4.5c0-1.4-0.1-2.4-0.2-3.1c0.3,0,0.6,0.1,0.9,0.1c0.4,0,0.7,0,1,0.1c0.3,0,0.7,0,1,0c0.3,0,0.5,0,0.7-0.1
			c0.3,0,0.5,0,0.5,0.2c0.1,0.2-0.1,0.4-0.4,0.6c-0.2,0.1-0.3,0.3-0.4,0.5c-0.1,0.2-0.2,0.5-0.2,0.9v5.3h5.1c0-1.4,0-2.7,0-3.7
			c0-1,0-1.9-0.1-2.7c0-0.7-0.1-1.3-0.1-1.8c0-0.5-0.1-0.9-0.2-1.2c0.3,0,0.6,0.1,0.9,0.1c0.4,0,0.7,0,1.1,0.1c0.4,0,0.7,0,1,0
			c0.3,0,0.5,0,0.7-0.1c0.3,0,0.5,0,0.6,0.2c0.1,0.2,0,0.4-0.3,0.5c-0.2,0.1-0.3,0.2-0.5,0.4c-0.1,0.1-0.2,0.4-0.2,0.7v7.4h6.5
			c0-1.4,0-2.6,0-3.6c0-1,0-1.9,0-2.6s0-1.3-0.1-1.8c0-0.5-0.1-0.8-0.1-1.1c0.6,0.1,1.2,0.1,1.9,0.1c0.7,0,1.3,0,1.7-0.1
			c0.2,0,0.3,0,0.4,0.2c0.1,0.2,0,0.3-0.3,0.6c-0.2,0.2-0.3,0.4-0.4,0.5c-0.1,0.2-0.1,0.4-0.1,0.7V275.5z M333.1,278.2v8.3h6.5v-8.3
			H333.1z"/>
		<path class="st1" d="M364.5,281.6c-0.6,0.7-1.1,1.3-1.7,1.8c-0.6,0.6-1.2,1.1-1.8,1.6c0.4,0,0.9,0.1,1.5,0.1c0.5,0,1,0,1.3,0
			c0.5,0,0.6,0.1,0.3,0.4c-0.1,0.1-0.3,0.4-0.4,1c-0.1,0.5-0.2,1.2-0.2,2.1c-0.1,1.2-0.3,2.2-0.6,3.1c-0.3,0.9-0.8,1.7-1.4,2.5
			c-0.6,0.7-1.4,1.4-2.3,2c-0.9,0.6-2,1.2-3.3,1.8c-0.3-0.6-0.7-1.2-1-1.6c-0.3-0.4-0.8-0.8-1.3-1.2c1.6-0.5,2.8-0.9,3.8-1.4
			c1-0.4,1.7-1,2.2-1.7c0.5-0.7,0.9-1.6,1.1-2.7c0.2-1.1,0.3-2.6,0.4-4.4c-1.1,0.8-2.2,1.6-3.4,2.2c-1.2,0.7-2.5,1.3-4,2
			c-0.3-0.5-0.6-1-0.9-1.3c-0.3-0.4-0.7-0.7-1.1-1.1c0.7-0.2,1.5-0.5,2.4-0.9c0.9-0.4,1.8-0.8,2.7-1.3c0.9-0.5,1.8-1,2.7-1.6
			c0.9-0.6,1.7-1.1,2.4-1.7c-1.1,0-2.1,0-3,0c-0.9,0-1.9,0.1-2.9,0.1c0.1-1,0.1-2.2,0.1-3.5c0-1.3,0-2.6,0-4c0-1.3,0-2.7-0.1-4
			c0-1.3-0.1-2.5-0.1-3.4c0.6,0,1.1,0,1.7,0.1c0.6,0,1.3,0,2.1,0.1c0.8,0,1.9,0,3.1,0c1.2,0,2.8,0,4.6,0c1.8,0,3.4,0,4.6,0
			c1.2,0,2.3,0,3.1,0c0.8,0,1.6,0,2.1-0.1c0.6,0,1.1,0,1.6-0.1c0,1-0.1,2.1-0.1,3.4c0,1.3-0.1,2.6-0.1,4c0,1.4,0,2.8,0,4
			c0,1.3,0.1,2.4,0.1,3.4c-1,0-2.1-0.1-3.1-0.1c-1.1,0-2.2,0-3.5,0c0.6,0.6,1.2,1.1,1.9,1.5c0.7,0.4,1.5,0.8,2.3,1.1
			c0.9,0.3,1.8,0.6,2.9,0.8c1.1,0.2,2.2,0.4,3.5,0.5c-0.4,0.5-0.7,1.1-0.9,1.7c-0.2,0.6-0.4,1.2-0.6,1.9c-1.1-0.3-2.3-0.7-3.5-1.2
			c-1.2-0.5-2.3-1.2-3.4-1.8c-0.2,0.3-0.3,0.9-0.3,1.9v4.8c0,0.3,0,0.7,0,1.1c0,0.4,0,0.9,0.1,1.3c0,0.5,0.1,0.9,0.1,1.4
			c0,0.5,0.1,0.9,0.1,1.3h-3.6c0-0.4,0.1-0.8,0.1-1.2c0-0.4,0.1-0.9,0.1-1.4c0-0.5,0.1-0.9,0.1-1.4c0-0.4,0-0.8,0-1.1v-3.4
			c0-0.9,0-1.8-0.1-2.6c-0.1-0.8-0.1-1.4-0.2-1.7c0.5,0.1,0.9,0.1,1.3,0.2c0.4,0,0.7,0.1,1.1,0.1c-0.8-0.6-1.6-1.2-2.2-1.9
			c-0.7-0.6-1.2-1.3-1.7-1.9H364.5z M365.7,269.4h-7v3.7h7V269.4z M365.7,275.4h-7v3.8h7V275.4z M375.7,269.4h-7.2v3.7h7.2V269.4z
			 M375.7,275.4h-7.2v3.8h7.2V275.4z"/>
		<path class="st1" d="M390.4,287.5c0,0.5-0.1,1-0.1,1.6c-0.1,0.6-0.2,1.2-0.3,1.9c-0.1,0.6-0.3,1.3-0.5,1.9
			c-0.2,0.6-0.4,1.3-0.6,1.8l-2.9-0.6c0.6-1.1,1.1-2.2,1.4-3.4c0.3-1.2,0.4-2.3,0.4-3.4L390.4,287.5z M394.4,274.5
			c0.5-0.8,0.9-1.6,1.2-2.2c0.3-0.6,0.5-1.1,0.6-1.4c0.5,0.4,0.9,0.7,1.3,0.9c0.4,0.2,0.9,0.4,1.3,0.6c0.3,0.1,0.4,0.2,0.5,0.4
			c0,0.1-0.1,0.3-0.4,0.4c-0.3,0.1-0.6,0.3-0.8,0.5s-0.4,0.4-0.6,0.7c-1.1,1.7-2.2,3.2-3.4,4.6c-1.1,1.4-2.2,2.7-3.4,3.9
			c0.9-0.1,1.9-0.1,2.8-0.2c1-0.1,1.9-0.2,2.7-0.3c-0.2-0.6-0.5-1.2-0.7-1.7c-0.2-0.5-0.4-0.9-0.6-1.2l2.3-0.8
			c0.2,0.4,0.5,0.9,0.7,1.5c0.3,0.6,0.5,1.2,0.8,1.9c0.2,0.6,0.5,1.3,0.7,1.9c0.2,0.6,0.4,1.1,0.6,1.6l-2.7,0.7
			c-0.1-0.4-0.2-1-0.5-1.8l-5.8,0.7c-0.7,0.1-1.4,0.2-2.1,0.3c-0.7,0.1-1.2,0.3-1.7,0.5c0-0.4-0.1-0.9-0.3-1.4
			c-0.1-0.5-0.3-1-0.6-1.6c0.2,0,0.5,0,0.7,0c0.2,0,0.5,0,0.7,0c0.3-0.4,0.7-0.8,1.2-1.3c0.5-0.5,1-1.1,1.4-1.7
			c0.5-0.6,0.9-1.2,1.4-1.7c0.4-0.6,0.8-1,1-1.4l-2,0.2c-0.7,0.1-1.4,0.2-2,0.3s-1.2,0.2-1.7,0.4c0-0.4-0.1-0.9-0.2-1.3
			c-0.1-0.4-0.3-0.9-0.5-1.5c0.2,0,0.5,0,0.7,0c0.2,0,0.4,0,0.7,0c0.6-1,1.1-2,1.6-3c0.5-1,0.9-1.8,1.2-2.7c0.4-0.8,0.6-1.5,0.9-2.2
			c0.2-0.6,0.4-1.1,0.5-1.5c0.5,0.3,1.1,0.5,1.6,0.7c0.6,0.2,1,0.4,1.5,0.5c0.3,0.1,0.5,0.2,0.5,0.4c0,0.1-0.2,0.3-0.4,0.4
			c-0.3,0.1-0.6,0.3-0.8,0.5c-0.2,0.2-0.4,0.5-0.5,0.8c-0.6,1.2-1.2,2.3-1.9,3.3c-0.6,1-1.2,1.9-1.8,2.7c0.7,0,1.4-0.1,2-0.1
			C392.9,274.5,393.6,274.5,394.4,274.5z M392.5,293.3c0-2.1-0.1-4-0.4-5.7l2.3-0.3c0.2,0.8,0.4,1.8,0.5,2.8c0.1,1,0.3,2,0.4,3
			L392.5,293.3z M397.8,292.6c-0.1-1.1-0.2-2.1-0.5-3c-0.3-0.9-0.6-1.7-1-2.5l2.4-0.6c0.4,0.8,0.7,1.6,0.9,2.5
			c0.3,0.9,0.5,1.8,0.8,2.9L397.8,292.6z M417.9,272.9c-1.7-0.2-3.7-0.3-6.2-0.3h-5.8c0.6,0.5,1.2,0.9,1.9,1.2
			c0.8,0.4,0.8,0.7,0,0.9c-0.1,0-0.3,0.1-0.5,0.3c-0.2,0.1-0.5,0.5-1,1c-0.6,0.7-1.2,1.3-1.7,1.8c-0.5,0.5-1,1-1.5,1.5l9.4-0.3
			c-0.4-0.5-0.8-1.1-1.1-1.6c-0.4-0.5-0.7-0.9-1.1-1.3l1.9-1.3c1,1.1,1.9,2.2,2.7,3.3c0.8,1,1.5,2.2,2.3,3.4l-2.5,1.4
			c-0.3-0.6-0.6-1.2-0.9-1.8l-2.3,0.1v11c0,0.4,0,0.6,0,0.8c0,0.2,0.1,0.4,0.2,0.5c0.1,0.1,0.3,0.2,0.6,0.2c0.2,0,0.6,0,1,0
			c0.4,0,0.7,0,0.9-0.1c0.3-0.1,0.5-0.2,0.7-0.4c0.2-0.2,0.3-0.5,0.4-0.9c0.1-0.4,0.2-0.9,0.3-1.5c0.8,0.7,1.8,1.1,2.9,1.2
			c-0.3,0.9-0.6,1.6-0.8,2.1c-0.3,0.6-0.6,1-1,1.3c-0.4,0.3-0.8,0.5-1.4,0.6c-0.5,0.1-1.2,0.2-2.1,0.2c-1,0-1.9,0-2.5-0.1
			c-0.6-0.1-1.1-0.2-1.4-0.4c-0.3-0.2-0.5-0.5-0.6-0.8c-0.1-0.4-0.1-0.8-0.1-1.4v-12.2l-2.7,0.1c-0.1,2.5-0.3,4.6-0.5,6.3
			c-0.3,1.7-0.7,3.1-1.2,4.3c-0.5,1.2-1.2,2.2-2.1,3c-0.8,0.8-1.9,1.6-3.1,2.3c-0.3-0.4-0.7-0.8-1.2-1.2c-0.4-0.3-1-0.6-1.6-0.9
			c1.4-0.4,2.6-1,3.5-1.7c0.9-0.7,1.6-1.5,2.2-2.6c0.5-1.1,0.9-2.4,1.2-3.9c0.2-1.5,0.4-3.4,0.4-5.5c-0.7,0-1.4,0.1-2,0.3
			c-0.6,0.1-1.2,0.3-1.6,0.5c-0.2-1-0.5-2-1.1-2.9l1.8,0c1.2-1.5,2.2-2.9,2.9-4c0.7-1.1,1.2-2.1,1.5-2.8c-1.1,0-2.1,0.1-3.1,0.1
			s-1.8,0.1-2.6,0.2V270c0.5,0,1.1,0.1,1.8,0.1c0.7,0,1.5,0.1,2.3,0.1c0.8,0,1.7,0,2.5,0.1c0.9,0,1.7,0,2.5,0c0.8,0,1.7,0,2.6,0
			c0.9,0,1.7,0,2.5-0.1c0.8,0,1.6-0.1,2.2-0.1c0.7,0,1.3-0.1,1.8-0.1V272.9z M407.9,270.1c-0.3-0.6-0.7-1.3-1.1-2
			c-0.4-0.7-0.9-1.3-1.3-1.9l2.7-1.4c0.4,0.5,0.8,1.1,1.3,1.8c0.4,0.7,0.9,1.4,1.3,2.1L407.9,270.1z"/>
		<path class="st1" d="M437.7,273.7c-0.9-0.1-2-0.1-3.3-0.1c-1.3,0-2.8,0-4.5,0s-3.3,0-4.6,0c-1.3,0-2.4,0.1-3.3,0.1V271
			c0.9,0.1,2,0.1,3.3,0.2c1.3,0,2.8,0.1,4.6,0.1s3.3,0,4.5-0.1c1.3,0,2.4-0.1,3.3-0.2V273.7z M435.9,278.3c-0.8-0.1-1.6-0.1-2.6-0.1
			c-1,0-2.2,0-3.6,0c-1.4,0-2.6,0-3.6,0c-1,0-1.8,0.1-2.6,0.1v-2.6c0.8,0.1,1.6,0.1,2.6,0.2c1,0,2.2,0.1,3.6,0.1
			c1.4,0,2.6,0,3.6-0.1c1,0,1.8-0.1,2.6-0.2V278.3z M435.9,282.9c-0.8-0.1-1.6-0.1-2.6-0.1c-1,0-2.2,0-3.6,0c-1.4,0-2.6,0-3.6,0
			c-1,0-1.8,0.1-2.6,0.1v-2.6c0.8,0.1,1.6,0.1,2.6,0.2c1,0,2.2,0.1,3.6,0.1c1.4,0,2.6,0,3.6-0.1c1,0,1.8-0.1,2.6-0.2V282.9z
			 M426.8,293.2v2.9H424c0.1-0.5,0.1-1,0.1-1.4c0-0.4,0-0.9,0-1.5v-5.4c0-0.6,0-1.1,0-1.5c0-0.4,0-0.8-0.1-1.2c0.3,0,0.5,0,0.8,0.1
			c0.3,0,0.6,0,1.1,0.1c0.4,0,1,0,1.6,0c0.6,0,1.4,0,2.4,0c1,0,1.8,0,2.4,0s1.2,0,1.6,0c0.4,0,0.8,0,1.1-0.1c0.3,0,0.6,0,0.8-0.1
			c0,0.3-0.1,0.7-0.1,1.1c0,0.4,0,0.9,0,1.6v4.9c0,0.5,0,1,0.1,1.5c0,0.4,0.1,0.9,0.2,1.4h-2.9v-2.5H426.8z M428.8,270.7
			c-0.2-0.7-0.5-1.5-0.9-2.2c-0.4-0.8-0.8-1.4-1.3-2l2.8-1.3c0.4,0.6,0.8,1.3,1.2,2.1c0.4,0.8,0.8,1.5,1.1,2.2L428.8,270.7z
			 M433.1,291.1v-3.9h-6.3v3.9H433.1z M446.8,291.8c0,0.8,0,1.7,0,2.7c0,1,0.1,2,0.2,3h-3.4c0.1-1,0.2-2,0.3-3
			c0.1-1,0.1-1.9,0.1-2.7v-12.5c-1.5,0-2.9,0-4.2,0.1c-1.3,0-2.4,0.1-3.2,0.1v-2.9c0.8,0,1.9,0.1,3.2,0.1c1.3,0,2.7,0.1,4.2,0.1
			v-6.3c0-1.2,0-2.3-0.1-3.2c-0.1-0.9-0.2-1.6-0.3-2.1c0.7,0.1,1.2,0.2,1.7,0.3c0.5,0.1,1.1,0.1,1.7,0.1c0.4,0,0.7,0,0.8,0.2
			c0.1,0.1-0.1,0.3-0.5,0.6c-0.2,0.1-0.3,0.3-0.4,0.4c-0.1,0.2-0.1,0.4-0.1,0.7v9.5c1.5,0,3,0,4.3-0.1c1.3,0,2.4-0.1,3.3-0.1v2.9
			c-0.8-0.1-1.9-0.1-3.3-0.1c-1.3,0-2.8,0-4.3,0V291.8z"/>
		<path class="st1" d="M464.2,296h-3.5c0.1-1.2,0.2-2.3,0.2-3.3c0-1,0.1-2.1,0.1-3.2v-16.6c0-1,0-1.9-0.1-2.8
			c-0.1-0.9-0.1-1.6-0.2-2.1c0.5,0,1.1,0.1,1.6,0.1c0.6,0,1.2,0.1,2,0.1c0.8,0,1.8,0,3,0c1.2,0,2.6,0,4.4,0c1.8,0,3.2,0,4.4,0
			c1.2,0,2.2,0,3,0c0.8,0,1.5,0,2-0.1c0.5,0,1-0.1,1.5-0.1c-0.1,0.5-0.2,1.2-0.2,2.1c0,0.9-0.1,1.8-0.1,2.9V290c0,1,0,1.9,0.1,2.8
			c0,0.9,0.1,1.9,0.2,2.9H479v-2.3h-14.8V296z M479,271h-14.8v8.2H479V271z M464.2,290.7H479v-8.7h-14.8V290.7z"/>
		<path class="st2" d="M323.1,316.8c0-1-0.8-1.7-1.8-1.8c-1.5-0.1-3.5,0.9-4,1.4l-0.9-3.4c1.3-1,3.5-1.7,5.2-1.6
			c5.1,0.3,6.8,4.7,3.9,8.8l-3.4,5.3h5.2v3.5h-11.5l6.5-10.3C323.2,317.5,323.1,316.8,323.1,316.8z"/>
		<path class="st2" d="M330.1,320.4c0-4.9,1.7-8.9,6-8.9c4.3,0,6,4,6,8.9s-1.7,8.9-6,8.9C331.8,329.3,330.1,325.3,330.1,320.4z
			 M338.7,320.4c0-3.1-0.7-5.7-2.6-5.7c-1.9,0-2.6,2.6-2.6,5.7c0,3.1,0.7,5.7,2.6,5.7C338,326,338.7,323.5,338.7,320.4z"/>
		<path class="st2" d="M346.6,329.3c-2.6,0-2.6-3.9,0-3.9C349.3,325.3,349.2,329.3,346.6,329.3z"/>
		<path class="st2" d="M350.6,311.7h6.3v17.4h-3.5v-13.9h-2.8V311.7z"/>
		<path class="st2" d="M360.8,320.4c0-4.9,1.7-8.9,6-8.9c4.3,0,6,4,6,8.9s-1.7,8.9-6,8.9C362.4,329.3,360.8,325.3,360.8,320.4z
			 M369.3,320.4c0-3.1-0.7-5.7-2.6-5.7c-1.9,0-2.6,2.6-2.6,5.7c0,3.1,0.7,5.7,2.6,5.7C368.7,326,369.3,323.5,369.3,320.4z"/>
		<path class="st2" d="M377.2,329.3c-2.6,0-2.6-3.9,0-3.9C379.9,325.3,379.8,329.3,377.2,329.3z"/>
		<path class="st2" d="M389,316.8c0-1-0.8-1.7-1.8-1.8c-1.5-0.1-3.5,0.9-4,1.4l-0.9-3.4c1.3-1,3.5-1.7,5.2-1.6
			c5.1,0.3,6.8,4.7,3.9,8.8l-3.4,5.3h5.2v3.5h-11.5l6.5-10.3C389.1,317.5,389,316.8,389,316.8z"/>
		<path class="st2" d="M396,320.4c0-4.9,1.7-8.9,6-8.9c4.3,0,6,4,6,8.9s-1.7,8.9-6,8.9C397.7,329.3,396,325.3,396,320.4z
			 M404.6,320.4c0-3.1-0.7-5.7-2.6-5.7c-1.9,0-2.6,2.6-2.6,5.7c0,3.1,0.7,5.7,2.6,5.7C404,326,404.6,323.5,404.6,320.4z"/>
		<path class="st2" d="M410.3,311.7h6.3v17.4h-3.5v-13.9h-2.8V311.7z"/>
		<path class="st2" d="M431,324c0,2.9-2,5.1-5.2,5.3c-0.9,0-3.3,0-5.5-0.8l0.3-3.5c5.4,1.8,7,0.4,6.9-1.1c0-2-1.3-2.7-6.6-3.1v-9.1
			h8.9v3.3h-5.4v3C428.8,318.5,431,320,431,324z"/>
		<path class="st1" d="M321,363.9h-1.9c0.1-0.6,0.1-1.4,0.2-2.3c0.1-0.9,0.1-1.7,0.1-2.5v-7.1c-0.3,0.7-0.6,1.3-0.8,1.9
			c-0.2,0.6-0.5,1-0.7,1.5c-0.2-0.3-0.3-0.5-0.6-0.7c-0.2-0.2-0.5-0.4-0.8-0.5c0.5-1.1,1-2.1,1.4-3c0.4-0.9,0.8-1.8,1-2.7
			c0.3-0.9,0.5-1.7,0.8-2.5c0.2-0.8,0.4-1.6,0.5-2.5c0.5,0.4,1.1,0.6,1.8,0.7c0.2,0,0.3,0.1,0.4,0.2c0,0.1-0.1,0.3-0.3,0.5
			c-0.1,0.1-0.3,0.4-0.5,0.8c-0.2,0.4-0.4,1-0.7,1.9V363.9z M329.4,362.3c-0.4,0.2-0.8,0.3-1.3,0.5c-0.5,0.2-1,0.3-1.5,0.4
			c-0.5,0.1-1.1,0.3-1.7,0.4c-0.6,0.1-1.2,0.3-1.7,0.4c-0.2-0.3-0.3-0.6-0.5-0.8c-0.1-0.2-0.4-0.4-0.7-0.6c0.8,0,1.7-0.1,2.7-0.3
			c1-0.2,2.1-0.4,3.2-0.8c-0.8-0.6-1.5-1.3-1.9-2.1h-0.6c-0.5,0.5-1,0.9-1.4,1.3c-0.5,0.4-1,0.7-1.6,1c-0.1-0.3-0.2-0.5-0.4-0.7
			c-0.2-0.2-0.4-0.4-0.7-0.5c0.5-0.2,0.9-0.4,1.3-0.7c0.4-0.2,0.8-0.6,1.2-0.9c0.5-0.5,0.9-0.9,1.2-1.2c0.3-0.3,0.5-0.6,0.6-0.9
			c0.2,0.2,0.4,0.3,0.6,0.4c0.2,0.1,0.4,0.2,0.8,0.2c0.2,0,0.3,0.1,0.3,0.2c0,0.1-0.1,0.2-0.3,0.2c-0.1,0.1-0.3,0.2-0.6,0.4h4.3
			c0.7,0,1.3,0,1.9,0c0.5,0,1,0,1.5-0.1c-0.3,0.6-0.8,1.2-1.3,1.7c-0.5,0.5-1.2,1.1-1.9,1.5c0.8,0.3,1.7,0.5,2.7,0.6
			c1,0.1,2,0.2,3.1,0.1c-0.2,0.2-0.4,0.5-0.6,0.8c-0.2,0.3-0.3,0.6-0.4,0.9c-1.3-0.1-2.5-0.3-3.6-0.6
			C331.2,363.1,330.3,362.8,329.4,362.3z M329.9,346.3c-0.1,0.1-0.1,0.3-0.2,0.5c-0.1,0.2-0.1,0.3-0.2,0.5c1.1,0,2.1,0,2.8,0
			c0.7,0,1.3,0,1.8-0.1c0,0.2,0,0.4,0,0.7c0,0.2,0,0.5,0,0.7v4.2c0.4,0,0.8,0,1.2,0c0.4,0,0.7,0,1-0.1v2.7h-1.7v-1.5h-10.8v1.4H322
			v-2.6c0.2,0,0.5,0,1,0c0.4,0,0.9,0,1.3,0v-4.2c0-0.2,0-0.4,0-0.7c0-0.2,0-0.5,0-0.7c0.4,0,0.8,0,1.4,0.1s1.2,0,2,0
			c0.1-0.4,0.2-0.7,0.3-1c-1.1,0-2,0-2.8,0.1c-0.8,0-1.6,0.1-2.2,0.1v-1.6c0.8,0,1.8,0.1,2.9,0.1c1.1,0,2.4,0,3.9,0
			c1.5,0,2.8,0,3.9,0c1.1,0,2.1,0,2.9-0.1v1.6c-0.8-0.1-1.7-0.1-2.8-0.1C332.6,346.4,331.3,346.3,329.9,346.3z M325.9,355.2
			c-0.4,0.5-0.7,0.9-1,1.3c-0.3,0.4-0.6,0.9-0.9,1.4l-1.4-0.7c0.5-0.5,0.9-0.9,1.2-1.3c0.3-0.4,0.5-0.8,0.7-1.3L325.9,355.2z
			 M332.4,349.2v-0.8h-6.7v0.8H332.4z M325.8,350.3v0.7h6.7v-0.7H325.8z M325.8,352.8h6.7V352h-6.7V352.8z M332.4,356.2
			c-0.2,0.5-0.4,0.8-0.7,1c-0.2,0.2-0.6,0.3-1,0.2c-0.5,0-1,0-1.5,0c-0.5,0-1.1,0-1.7-0.1c-0.5,0-0.8-0.1-1-0.3
			c-0.2-0.2-0.2-0.4-0.2-0.9v-0.9c0-0.2,0-0.4,0-0.5c0-0.1,0-0.2-0.1-0.4c0.2,0,0.5,0.1,0.8,0.1c0.3,0,0.5,0,0.7,0
			c0.2,0,0.3,0.1,0.1,0.2c-0.1,0.1-0.2,0.2-0.2,0.4v0.6c0,0.2,0,0.4,0.1,0.4c0.1,0.1,0.2,0.1,0.4,0.1c0.2,0,0.6,0.1,1,0.1
			c0.4,0,0.8,0,1.2,0c0.2,0,0.3-0.1,0.4-0.2c0.1-0.1,0.2-0.4,0.2-0.7c0.2,0.2,0.4,0.3,0.6,0.4C331.9,356,332.1,356.1,332.4,356.2z
			 M329.7,360.9c0.3-0.2,0.7-0.4,1-0.6c0.3-0.2,0.7-0.5,1-0.9h-4.1c0.2,0.2,0.5,0.4,0.8,0.7C328.7,360.4,329.1,360.6,329.7,360.9z
			 M330.1,355.9c-0.3-0.3-0.6-0.5-0.9-0.6c-0.3-0.2-0.6-0.3-1-0.5l0.6-0.8c0.2,0.1,0.4,0.2,0.6,0.2c0.2,0.1,0.3,0.2,0.5,0.2
			c0.2,0.1,0.3,0.2,0.5,0.3c0.2,0.1,0.3,0.2,0.5,0.3L330.1,355.9z M333.9,357.6c-0.3-0.5-0.6-0.9-0.9-1.3c-0.3-0.4-0.7-0.8-1.2-1.3
			l1.3-0.8c0.3,0.4,0.6,0.8,1,1.2c0.4,0.4,0.8,0.9,1.3,1.4L333.9,357.6z"/>
		<path class="st1" d="M342.7,351.6c-0.3,0.6-0.7,1.1-1,1.6c-0.4,0.5-0.7,1-1,1.4c-0.1-0.3-0.3-0.5-0.6-0.8
			c-0.2-0.3-0.5-0.5-0.8-0.7c0.3-0.2,0.6-0.5,0.9-0.9c0.3-0.3,0.6-0.7,0.9-1.1c0.3-0.4,0.5-0.8,0.8-1.2c0.2-0.4,0.5-0.8,0.6-1.2
			c0.5-1,0.8-1.9,1.1-2.8c0.3-0.9,0.4-1.7,0.5-2.3c0.4,0.2,0.7,0.3,1.1,0.5c0.4,0.1,0.7,0.2,1.1,0.3c0.3,0.1,0.5,0.1,0.5,0.2
			c0,0.1-0.1,0.3-0.3,0.5c0,0-0.1,0.1-0.2,0.2c-0.1,0.1-0.2,0.2-0.3,0.5c-0.1,0.2-0.3,0.5-0.5,0.9c-0.2,0.4-0.5,0.9-0.8,1.6v15.4
			h-2.1c0.1-0.5,0.1-1,0.2-1.7c0-0.6,0.1-1.3,0.1-1.9V351.6z M351.1,353.2c0.9-0.8,1.7-1.7,2.5-2.7c0.8-1,1.6-2.2,2.4-3.5
			c0.3,0.3,0.6,0.5,1,0.8s0.7,0.5,1.1,0.7c0.2,0.1,0.2,0.2,0.2,0.3c0,0.1-0.1,0.1-0.3,0.2c-0.1,0-0.2,0.1-0.3,0.2
			c-0.1,0.1-0.3,0.2-0.4,0.4c-0.2,0.1-0.3,0.3-0.5,0.4s-0.3,0.3-0.4,0.4c-0.5,0.5-0.9,1-1.3,1.4c-0.4,0.4-0.8,0.8-1.2,1.2
			c-0.4,0.4-0.8,0.8-1.3,1.2c-0.5,0.4-1,0.9-1.6,1.4v4.9c0,0.3,0,0.5,0.1,0.7c0.1,0.2,0.2,0.3,0.4,0.4c0.2,0.1,0.5,0.1,0.8,0.2
			c0.3,0,0.8,0,1.3,0c0.6,0,1.1,0,1.4-0.1s0.7-0.2,0.9-0.4c0.2-0.2,0.4-0.5,0.6-1c0.1-0.4,0.3-1,0.4-1.8c0.2,0.2,0.3,0.4,0.5,0.6
			s0.3,0.3,0.5,0.4c0.2,0.1,0.3,0.2,0.5,0.3c0.2,0.1,0.4,0.2,0.6,0.3c-0.2,0.8-0.5,1.5-0.7,2c-0.2,0.5-0.5,0.8-0.8,1
			c-0.3,0.2-0.8,0.4-1.4,0.4c-0.6,0-1.4,0.1-2.5,0.1c-1,0-1.8,0-2.4-0.1c-0.6-0.1-1-0.2-1.4-0.3c-0.3-0.2-0.5-0.4-0.6-0.7
			c-0.1-0.3-0.1-0.7-0.1-1.1v-14.6c0-0.5,0-1.1,0-1.6c0-0.5-0.1-0.9-0.1-1.2c0.2,0,0.3,0.1,0.6,0.1c0.2,0,0.4,0.1,0.7,0.1
			c0.2,0,0.4,0,0.6,0.1c0.2,0,0.4,0,0.5,0c0.2,0,0.3,0.1,0.3,0.2c0,0.1,0,0.2-0.2,0.3c-0.1,0.1-0.2,0.2-0.3,0.4
			c-0.1,0.2-0.1,0.4-0.1,0.5V353.2z"/>
		<path class="st1" d="M364.8,358.3c-0.5,0-1.1,0-1.6,0c-0.5,0-0.9,0.1-1.3,0.1v-1.6c0.4,0,0.9,0.1,1.5,0.1c0.6,0,1.3,0,2,0
			c0.1-0.2,0.2-0.4,0.3-0.5c0.1-0.2,0.2-0.4,0.3-0.6c-0.6,0-1.2,0-1.8,0c-0.6,0-1,0-1.3,0c0-0.2,0.1-0.5,0.1-0.8c0-0.3,0-0.6,0-1
			c0-0.3,0-0.7,0-1c0-0.3,0-0.6-0.1-0.8c0.5,0,1.1,0,1.7,0c0.6,0,1.4,0,2.3,0v-1c-0.6,0-1.1,0-1.5,0s-0.8,0-1.1,0
			c-0.3,0-0.6,0-0.8,0s-0.5,0-0.7,0c0-0.1,0-0.2,0.1-0.3c0-0.1,0-0.3,0-0.4c0-0.2,0-0.4,0-0.7c0-0.3,0-0.6,0-1c-0.2,0-0.4,0-0.7,0
			c-0.3,0-0.6,0.1-0.9,0.1v-1.5c0.3,0,0.6,0.1,0.9,0.1c0.3,0,0.5,0,0.7,0c0-0.4,0-0.8,0-1s0-0.5,0-0.7c0-0.2,0-0.3,0-0.4
			c0-0.1,0-0.2-0.1-0.2c0.2,0,0.5,0,0.7,0c0.2,0,0.5,0,0.8,0c0.3,0,0.7,0,1.1,0c0.4,0,0.9,0,1.5,0c0-0.1,0-0.2,0-0.4
			c0-0.2,0-0.3-0.1-0.5s0-0.3-0.1-0.5c0-0.2-0.1-0.3-0.1-0.4c0.3,0.1,0.7,0.1,1,0.1c0.3,0,0.7,0,1,0c0.2,0,0.3,0,0.3,0.1
			c0,0.1,0,0.2-0.2,0.3c-0.2,0.1-0.3,0.3-0.3,0.6v0.8c0.6,0,1.1,0,1.5,0c0.4,0,0.8,0,1.1,0c0.3,0,0.6,0,0.8,0c0.2,0,0.5,0,0.7,0
			c0,0.1-0.1,0.3-0.1,0.7s0,0.9,0,1.6c0.2,0,0.5,0,0.7,0c0.3,0,0.5-0.1,0.8-0.1v1.5c-0.6-0.1-1.1-0.1-1.5-0.1c0,0.4,0,0.8,0,1.1
			c0,0.3,0,0.5,0,0.7c0,0.2,0,0.3,0,0.4c0,0.1,0,0.2,0.1,0.2c-0.2,0-0.5,0-0.7,0c-0.2,0-0.5,0-0.8,0c-0.3,0-0.7,0-1.1,0
			c-0.4,0-0.9,0-1.5,0v1c0.9,0,1.7,0,2.3,0c0.6,0,1.2,0,1.7,0c0,0.2,0,0.5-0.1,0.8c0,0.3,0,0.6,0,1c0,0.3,0,0.7,0,1
			c0,0.3,0,0.6,0,0.8c-0.5,0-1.2,0-1.9,0s-1.7,0-2.8,0c-0.1,0.2-0.2,0.3-0.3,0.5c-0.1,0.2-0.2,0.4-0.3,0.6c1,0,1.8,0,2.4,0
			c0.6,0,1.1,0,1.5,0c0.4,0,0.7,0,1,0c0.3,0,0.6,0,0.9-0.1v1.6c-0.2,0-0.4-0.1-0.7-0.1c-0.3,0-0.5,0-0.8,0c-0.2,0.4-0.4,0.8-0.6,1.2
			c-0.2,0.4-0.6,0.8-0.9,1.1c0.5,0.2,0.9,0.3,1.3,0.5c0.4,0.2,0.7,0.3,0.9,0.4c-0.5,0.4-0.8,0.9-1,1.4c-0.3-0.2-0.7-0.4-1.1-0.6
			c-0.4-0.2-0.9-0.4-1.3-0.6c-0.6,0.4-1.4,0.8-2.2,1.1c-0.9,0.3-1.9,0.6-3.1,0.9c-0.1-0.4-0.2-0.6-0.3-0.9c-0.1-0.2-0.3-0.5-0.6-0.8
			c0.9,0,1.8-0.1,2.5-0.3c0.8-0.1,1.5-0.4,2.1-0.6c-0.5-0.2-1.1-0.4-1.7-0.6c-0.6-0.2-1.2-0.3-1.7-0.4
			C364,359.6,364.4,359,364.8,358.3z M366.9,353.6h-2.5v1.2h2.5V353.6z M366.9,348V347h-2.5v1.1H366.9z M364.4,349.2v1.1h2.5v-1.1
			H364.4z M369.8,358.3c-0.5,0-1.1,0-1.7,0c-0.6,0-1.2,0-1.7,0c-0.1,0.2-0.2,0.4-0.3,0.6s-0.2,0.4-0.3,0.6c0.9,0.2,1.8,0.5,2.7,0.8
			C369,359.7,369.5,359.1,369.8,358.3z M370.9,348V347h-2.5v1.1H370.9z M368.4,349.2v1.1h2.5v-1.1H368.4z M368.4,354.8h2.5v-1.2
			h-2.5V354.8z M375.9,358.7c-0.4-0.8-0.7-1.7-1-2.7c-0.3-1-0.5-2-0.7-3.1c-0.1,0.1-0.1,0.2-0.2,0.4c-0.1,0.1-0.1,0.3-0.2,0.4
			c-0.2-0.2-0.4-0.4-0.7-0.5c-0.2-0.1-0.5-0.2-0.7-0.3c0.4-0.6,0.8-1.2,1.1-1.9c0.3-0.7,0.6-1.4,0.8-2.2c0.2-0.7,0.4-1.5,0.5-2.3
			c0.1-0.8,0.2-1.5,0.3-2.3c0.7,0.2,1.4,0.4,2,0.4c0.2,0,0.2,0,0.2,0.1c0,0.1-0.1,0.2-0.3,0.3c0,0-0.1,0.1-0.1,0.2
			c0,0.1-0.1,0.2-0.2,0.5c-0.1,0.2-0.2,0.6-0.3,1c-0.1,0.4-0.3,1-0.5,1.7h3.1c0.6,0,1.1,0,1.5,0c0.4,0,0.8-0.1,1.1-0.2v1.7
			c-0.2,0-0.5,0-0.9-0.1s-0.7,0-1.1,0c-0.1,3.9-0.8,6.8-1.9,8.9c0.9,1.2,2.3,2.3,4.2,3.1c-0.4,0.3-0.7,0.6-0.9,0.9
			c-0.2,0.3-0.4,0.6-0.5,0.9c-0.7-0.5-1.4-1-2-1.5c-0.6-0.5-1.1-1.2-1.7-1.9c-0.3,0.4-0.6,0.7-0.9,1c-0.3,0.3-0.6,0.6-0.9,1
			c-0.3,0.3-0.7,0.6-1.1,0.9c-0.4,0.3-0.8,0.6-1.3,1c-0.2-0.3-0.4-0.5-0.6-0.7c-0.2-0.2-0.5-0.4-0.8-0.6c1-0.5,1.8-1,2.6-1.6
			C374.6,360.5,375.3,359.7,375.9,358.7z M375.5,349.8c-0.1,0.2-0.1,0.4-0.2,0.7c-0.1,0.2-0.2,0.5-0.3,0.7l0.6-0.2
			c0,1,0.1,2.1,0.3,3.1c0.2,1.1,0.5,2.1,0.9,3c0.4-0.9,0.7-1.9,0.9-3.1c0.2-1.2,0.3-2.5,0.3-4.2H375.5z"/>
		<path class="st1" d="M387,350.1c-0.3,0-0.7,0-1.1,0c-0.4,0-0.9,0.1-1.3,0.1v-1.7c0.4,0.1,0.8,0.1,1.3,0.1c0.4,0,0.8,0,1.1,0
			c0-1.3,0-2.3-0.1-3c0-0.7-0.1-1.3-0.2-1.6c0.4,0.1,0.7,0.1,1,0.1c0.3,0,0.6,0,0.9,0c0.2,0,0.4,0,0.4,0.1c0,0.1,0,0.2-0.2,0.3
			c-0.1,0.1-0.2,0.2-0.3,0.3c0,0.1-0.1,0.3-0.1,0.6v3.2c0.3,0,0.7,0,1.1,0c0.4,0,0.7-0.1,1-0.1v1.7c-0.4-0.1-0.7-0.1-1-0.1
			c-0.3,0-0.7,0-1.1,0v3.2c0.3-0.1,0.6-0.2,0.9-0.4c0.3-0.1,0.6-0.3,1-0.5c0,0.3,0.1,0.6,0.1,0.9c0,0.2,0.1,0.5,0.3,0.7
			c-0.7,0.2-1.4,0.5-2.2,0.8v6.5c0,0.3,0,0.5-0.1,0.8c-0.1,0.2-0.2,0.4-0.4,0.6c-0.2,0.2-0.5,0.3-0.9,0.4c-0.4,0.1-0.9,0.2-1.5,0.3
			c0-0.4,0-0.8-0.1-1.1c-0.1-0.3-0.3-0.6-0.6-1c0.4,0.1,0.8,0.1,1,0.1c0.3,0,0.5,0,0.6-0.1c0.1-0.1,0.2-0.1,0.3-0.3
			c0.1-0.1,0.1-0.3,0.1-0.4v-5.1c-0.2,0.1-0.4,0.2-0.6,0.3c-0.2,0.1-0.3,0.2-0.5,0.3c-0.1,0.1-0.3,0.2-0.4,0.2
			c-0.1,0.1-0.3,0.2-0.4,0.2c-0.1-0.3-0.2-0.6-0.4-0.9c-0.2-0.3-0.4-0.6-0.6-1c0.3-0.1,0.5-0.1,0.7-0.2c0.2-0.1,0.4-0.1,0.7-0.2
			c0.2-0.1,0.5-0.1,0.7-0.2c0.2-0.1,0.5-0.2,0.8-0.3V350.1z M400.5,345.1c0.5,0,0.9,0,1.4,0c0.4,0,0.8,0,1.2-0.1v1.5
			c-0.7-0.1-1.5-0.1-2.5-0.1h-3.7v1c1.9,0,3.5,0,4.6,0c1.2,0,2.1-0.1,2.7-0.1l-1.1,2.9l-1.7-0.5l0.5-1.1h-5.1v1.1
			c0.5,0,0.9-0.1,1.3-0.1c0.4,0,0.7-0.1,0.9-0.1c0.3,0,0.5-0.1,0.7-0.1c0.2,0,0.4-0.1,0.6-0.1l0.1,1.3c-0.2,0-0.4,0-0.6,0
			c-0.2,0-0.4,0-0.7,0c-0.3,0-0.6,0-1,0.1c-0.4,0-0.8,0.1-1.3,0.1c0,0.1,0,0.2,0,0.3c0,0.1,0,0.1,0.1,0.2c0.1,0,0.2,0.1,0.3,0.1
			c0.1,0,0.3,0.1,0.5,0.1c0.3,0,0.6,0,1,0s0.9,0,1.3,0c0.4,0,0.9-0.1,1.3-0.1c0.4,0,0.7-0.1,0.9-0.1c-0.1,0.3-0.2,0.5-0.3,0.7
			c-0.1,0.2-0.1,0.5-0.1,0.7c-0.6,0.1-1.4,0.1-2.3,0.1c-0.9,0-1.7,0-2.6-0.1c-0.4,0-0.6-0.1-0.9-0.1c-0.2-0.1-0.4-0.1-0.5-0.3
			s-0.2-0.3-0.3-0.5c-0.1-0.2-0.1-0.5-0.1-0.9l-2.1,0.2l-0.1-1.1l2.1-0.2v-1.2h-2.5c0,0.4,0,1,0,1.7c0,0.7-0.1,1.5-0.1,2.2
			c0,0.8-0.1,1.5-0.1,2.2c0,0.7-0.1,1.2-0.1,1.6c-0.1,0.8-0.2,1.5-0.3,2.1c-0.1,0.6-0.3,1.2-0.5,1.8c-0.2,0.6-0.5,1.2-0.7,1.7
			c-0.3,0.6-0.6,1.1-1,1.8c-0.2-0.3-0.5-0.5-0.7-0.7c-0.2-0.2-0.5-0.3-0.8-0.4c0.7-0.6,1.2-1.6,1.7-2.8c0.5-1.2,0.8-2.7,0.9-4.5
			c0-0.6,0.1-1.2,0.1-1.9c0-0.7,0-1.4,0.1-2.1c0-0.7,0-1.4,0-2.1c0-0.7,0-1.3-0.1-1.9c0.5,0,1.1,0.1,1.9,0.1c0.7,0,1.5,0,2.2,0V346
			c0-0.5,0-0.9,0-1.2c0-0.3-0.1-0.6-0.1-0.9c0.3,0,0.7,0.1,1,0.1s0.6,0,0.8,0c0.2,0,0.3,0,0.3,0c0,0.1,0,0.1-0.2,0.2
			c-0.1,0-0.1,0.1-0.1,0.2c0,0.1,0,0.4,0,0.7H400.5z M399.5,359.1c0.1,0.9,0.1,1.6,0.1,2.2c0,0.6-0.2,1-0.4,1.4
			c-0.2,0.4-0.5,0.6-1,0.8c-0.4,0.2-1,0.3-1.7,0.4c0-0.4-0.1-0.7-0.2-0.9c-0.1-0.2-0.3-0.5-0.6-0.9c0.5,0.1,0.9,0.1,1.2,0.1
			c0.3,0,0.6-0.2,0.8-0.4c0.2-0.2,0.3-0.5,0.4-0.9c0.1-0.4,0.1-0.8,0-1.4c-0.5,0.6-1.2,1.1-2.1,1.7c-0.9,0.6-1.9,1.2-3.2,1.7
			c-0.2-0.4-0.6-0.8-1.1-1.1c0.4-0.1,0.9-0.3,1.4-0.5c0.5-0.2,1.1-0.5,1.7-0.8c0.6-0.3,1.1-0.7,1.7-1.1s1-0.8,1.4-1.2
			c-0.1-0.2-0.1-0.4-0.2-0.5c0-0.1-0.1-0.2-0.2-0.4c-0.2,0.3-0.5,0.5-0.8,0.8c-0.3,0.2-0.6,0.5-1,0.7c-0.4,0.2-0.8,0.5-1.2,0.8
			c-0.5,0.3-1,0.6-1.6,0.9c-0.1-0.3-0.3-0.6-0.4-0.8c-0.1-0.2-0.3-0.4-0.6-0.5c0.3-0.1,0.7-0.2,1.1-0.4c0.4-0.2,0.9-0.4,1.3-0.7
			c0.5-0.3,0.9-0.6,1.3-0.9c0.4-0.3,0.8-0.6,1.2-0.9c-0.1-0.1-0.1-0.2-0.2-0.2c-0.1-0.1-0.1-0.1-0.2-0.2c-0.5,0.3-0.9,0.6-1.5,0.9
			c-0.5,0.3-1.1,0.6-1.8,1c-0.1-0.3-0.2-0.5-0.3-0.7c-0.1-0.2-0.3-0.4-0.6-0.6c0.8-0.2,1.6-0.5,2.2-0.8c0.6-0.3,1.2-0.7,1.8-1.1
			c-0.7,0-1.4,0-2,0c-0.6,0-1.1,0-1.6,0.1v-1.4c0.6,0,1.3,0.1,2.2,0.1c0.9,0,1.9,0,3,0c0.6,0,1.1,0,1.5,0c0.4,0,0.9,0,1.2,0
			c0.4,0,0.8,0,1.2,0c0.4,0,0.8,0,1.3,0v1.4c-0.6,0-1.2-0.1-2.1-0.1c-0.8,0-1.7,0-2.8,0c-0.2,0.1-0.3,0.2-0.4,0.3
			c-0.1,0.1-0.3,0.2-0.6,0.4c0.7,0.6,1.2,1.3,1.5,2.1c0.7-0.5,1.2-0.9,1.5-1.3c0.3-0.4,0.6-0.7,0.8-1c0.2,0.2,0.5,0.3,0.7,0.5
			c0.3,0.1,0.5,0.3,0.9,0.4c0.2,0.1,0.2,0.1,0.2,0.2c0,0.1-0.1,0.1-0.3,0.2c-0.1,0-0.1,0-0.3,0.1s-0.3,0.1-0.5,0.2
			c-0.2,0.1-0.5,0.3-0.8,0.5c-0.3,0.2-0.7,0.5-1.2,0.8c0.8,0.4,1.6,0.8,2.2,1.2c0.7,0.4,1.3,0.8,1.9,1.1l-1.1,1.3
			c-0.6-0.5-1.2-0.9-1.8-1.4C400.8,360,400.1,359.5,399.5,359.1z"/>
		<path class="st1" d="M317.7,379.7c0-0.3,0-0.6,0-0.9c0-0.3,0-0.5-0.1-0.7c0.1,0,0.3,0,0.5,0c0.2,0,0.3,0,0.5,0c0.2,0,0.5,0,0.8,0
			s0.7,0,1.1,0h2.1l0.2-4.2h-2.5c-0.6,0-1.2,0-1.7,0c-0.5,0-1.1,0.1-1.5,0.1v-1.9c0.6,0,1.2,0.1,1.7,0.1c0.6,0,1.3,0,2.1,0
			c0.5,0,1,0,1.4,0c0.4,0,0.7,0,1,0s0.6,0,0.8,0s0.4,0,0.7-0.1l-0.3,7.7c-0.3,0-0.5,0-0.8,0s-0.6,0-1,0h-3v6.3
			c0.7-0.4,1.4-0.9,2.1-1.4c0.7-0.5,1.5-1.1,2.2-1.7c-0.1,0.4,0,0.8,0.1,1.2c0.1,0.4,0.2,0.7,0.3,0.9l-3.8,2.6
			c-0.5,0.3-0.9,0.7-1.3,1c-0.4,0.3-0.7,0.6-1,0.9c-0.1-0.3-0.3-0.6-0.5-1c-0.2-0.3-0.5-0.7-0.9-1c0.3-0.1,0.7-0.3,1.1-0.5V379.7z
			 M326.4,378.9c-0.3,0.4-0.5,0.7-0.7,1c-0.1-0.3-0.3-0.6-0.4-1c-0.2-0.4-0.3-0.7-0.6-0.9c0.5-0.6,0.9-1.1,1.3-1.7
			c0.4-0.6,0.7-1.1,1-1.7c0.3-0.6,0.5-1.3,0.7-2c0.2-0.7,0.4-1.5,0.5-2.3c0.4,0.1,0.7,0.3,1.1,0.4c0.4,0.1,0.7,0.2,1.1,0.2
			c0.2,0,0.3,0.1,0.3,0.2c0,0.1-0.1,0.2-0.4,0.3c-0.1,0-0.1,0.1-0.2,0.2c-0.1,0.1-0.1,0.2-0.2,0.3c-0.1,0.2-0.2,0.4-0.3,0.7
			c-0.1,0.3-0.3,0.8-0.4,1.3h3.9c0.6,0,1.2,0,1.7-0.1c0.5,0,0.9-0.1,1.3-0.2v2c-0.3-0.1-0.7-0.1-1.1-0.1c-0.4,0-0.9,0-1.5,0
			c-0.1,1.4-0.3,2.5-0.4,3.5c-0.1,1-0.3,1.8-0.4,2.5c-0.2,0.7-0.3,1.3-0.6,1.8c-0.2,0.5-0.4,1-0.7,1.5c0.7,0.7,1.5,1.3,2.5,1.8
			c0.9,0.5,1.9,0.8,2.9,1c-0.4,0.3-0.6,0.7-0.8,1.1c-0.2,0.4-0.4,0.8-0.5,1.2c-0.4-0.2-0.9-0.4-1.3-0.6c-0.5-0.2-0.9-0.5-1.4-0.8
			c-0.5-0.3-0.9-0.6-1.3-0.9c-0.4-0.3-0.8-0.7-1.2-1c-0.7,0.7-1.5,1.4-2.6,2.1c-1.1,0.6-2.4,1.2-3.9,1.7c-0.1-0.3-0.3-0.6-0.6-0.9
			c-0.2-0.3-0.5-0.6-0.8-0.8c0.8-0.2,1.5-0.4,2.1-0.6c0.6-0.2,1.2-0.5,1.8-0.7c0.5-0.3,1-0.6,1.5-1c0.5-0.4,0.9-0.8,1.3-1.2
			c-0.5-0.7-1-1.6-1.4-2.6C327.2,381.6,326.8,380.4,326.4,378.9z M327.7,377c0.1,0.6,0.3,1.2,0.4,1.8c0.2,0.6,0.4,1.2,0.6,1.8
			c0.2,0.6,0.4,1.1,0.7,1.6c0.2,0.5,0.5,0.9,0.7,1.3c0.4-0.8,0.7-1.9,0.9-3.3c0.2-1.4,0.4-2.9,0.5-4.6h-3
			C328.3,376.1,328,376.5,327.7,377z"/>
		<path class="st1" d="M353,379.9c0.2,0.1,0.4,0.2,0.7,0.3c0.2,0.1,0.5,0.2,0.7,0.2s0.2,0.2-0.1,0.3c-0.1,0-0.2,0.1-0.4,0.3
			c-0.2,0.2-0.4,0.5-0.7,1c0.5,0,1,0,1.4,0c0.5,0,1,0,1.4,0c0.5,0,0.9,0,1.2-0.1c0.4,0,0.6,0,0.9-0.1v1.8c-0.2,0-0.4,0-0.6-0.1
			c-0.2,0-0.5,0-0.8-0.1c-0.3,0-0.7,0-1.2,0c-0.5,0-1,0-1.7,0c-0.7,0-1.5,0-2.4,0s-2,0-3.2,0c-2.6,0-4.7,0-6.2,0
			c-1.5,0-2.6,0.1-3.3,0.2v-1.8c0.6,0.1,1.3,0.1,2.2,0.1c0.9,0,2,0.1,3.2,0.1c-0.1-0.3-0.3-0.6-0.5-0.9c-0.2-0.3-0.4-0.6-0.5-0.7
			l1.3-0.5c-1,0-1.8,0.1-2.5,0.1c-0.7,0-1.3,0.1-1.9,0.1v-1.6c1,0.1,2.1,0.1,3.3,0.2c1.2,0,2.7,0.1,4.5,0.1v-1.5
			c-1.5,0-2.7,0-3.7,0.1c-1,0-2,0.1-2.8,0.2v-1.7c0.8,0.1,1.7,0.1,2.8,0.2c1,0,2.3,0.1,3.7,0.1v-1.6c-2.1,0-3.8,0-5.1,0
			c-1.3,0-2.2,0.1-2.7,0.2v-1.6c0.5,0.1,1.2,0.1,1.9,0.1c0.8,0,1.7,0.1,2.9,0.1c-0.1-0.2-0.1-0.4-0.2-0.5c-0.1-0.2-0.1-0.3-0.2-0.4
			c-0.1-0.1-0.2-0.3-0.3-0.4c-0.1-0.1-0.2-0.3-0.3-0.5l2-0.7c0.2,0.3,0.3,0.6,0.4,0.9c0.1,0.2,0.3,0.6,0.6,1l-1.8,0.7h5.1
			c0.2-0.4,0.4-0.9,0.6-1.3c0.2-0.4,0.3-0.9,0.5-1.4c0.5,0.2,0.9,0.4,1.2,0.5c0.4,0.1,0.7,0.2,1.1,0.3c0.1,0,0.2,0.1,0.2,0.2
			c0,0.1-0.1,0.2-0.3,0.2c-0.1,0-0.3,0.2-0.5,0.4c-0.2,0.2-0.6,0.6-1,1.2c1.3,0,2.4,0,3.3,0c0.9,0,1.6-0.1,2-0.2v1.6
			c-0.2,0-0.5-0.1-0.8-0.1c-0.3,0-0.7-0.1-1.3-0.1c-0.6,0-1.3,0-2.2,0c-0.9,0-2.1,0-3.5,0v1.6c1.4,0,2.5,0,3.5-0.1
			c1,0,1.9-0.1,2.6-0.2v1.7c-0.8-0.1-1.7-0.1-2.6-0.2c-1,0-2.1-0.1-3.5-0.1v1.5c1.7,0,3.1,0,4.3-0.1c1.2,0,2.3-0.1,3.2-0.2v1.6
			c-0.6,0-1.2-0.1-1.8-0.1C354.6,380,353.8,379.9,353,379.9z M343.6,389.4v1.1h-1.8c0.1-0.4,0.1-0.7,0.1-1c0-0.3,0-0.6,0-0.9v-2.8
			c0-0.3,0-0.5,0-0.7c0-0.2-0.1-0.3-0.1-0.5c0.3,0,0.6,0,1,0c0.3,0,0.8,0,1.2,0c0.5,0,1.1,0,1.8,0c0.7,0,1.6,0,2.7,0s2,0,2.7,0
			c0.7,0,1.3,0,1.9,0c0.5,0,0.9,0,1.3,0c0.3,0,0.6,0,0.9,0c-0.1,0.1-0.1,0.3-0.1,0.5c0,0.2,0,0.4,0,0.7v2.6c0,0.3,0,0.7,0,1
			c0,0.3,0,0.6,0.1,1h-1.9v-1H343.6z M353.3,388.1v-2h-9.7v2H353.3z M344.9,379.9c0.1,0.3,0.3,0.6,0.6,1c0.2,0.4,0.4,0.8,0.7,1.1
			h5.5c0.2-0.3,0.4-0.7,0.6-1.1c0.2-0.4,0.4-0.7,0.5-1c-0.6,0-1.2,0-1.9,0c-0.7,0-1.4,0-2.1,0c-0.7,0-1.4,0-2,0
			C346,379.9,345.4,379.9,344.9,379.9z"/>
		<path class="st1" d="M364.9,376.7c-0.3,0.5-0.6,1.1-0.9,1.6c-0.3,0.6-0.7,1.1-1,1.6c-0.3-0.2-0.6-0.3-1-0.4
			c-0.4-0.1-0.7-0.2-1.1-0.2c1-1.1,1.8-2.3,2.4-3.6c0.6-1.3,1-2.8,1.3-4.4c0.4,0.2,0.8,0.4,1.2,0.5c0.5,0.2,0.8,0.3,1,0.3
			c0.5,0.1,0.6,0.2,0.1,0.5c-0.1,0-0.1,0.1-0.2,0.2c-0.1,0.1-0.1,0.2-0.2,0.4c-0.1,0.2-0.2,0.4-0.3,0.7c-0.1,0.3-0.3,0.7-0.5,1.1
			h4.5v-2c0-0.1,0-0.3,0-0.6c0-0.2,0-0.5,0-0.7c0-0.3,0-0.5,0-0.8c0-0.2,0-0.4-0.1-0.6c0.4,0,0.8,0.1,1.2,0.1c0.4,0,0.8,0,1.2,0
			c0.2,0,0.3,0,0.3,0.1s0,0.2-0.2,0.2c-0.2,0.1-0.3,0.2-0.3,0.3c-0.1,0.1-0.1,0.2-0.1,0.4v3.4c0.8,0,1.5,0,2.1,0c0.6,0,1.2,0,1.7,0
			c0.5,0,1,0,1.5,0c0.5,0,0.9,0,1.4-0.1v2c-0.6,0-1.2-0.1-1.8-0.1c-0.6,0-1.1,0-1.6,0c-0.5,0-1.1,0-1.6,0c-0.5,0-1.1,0-1.7,0v4.1
			c1.2,0,2.2,0,3-0.1c0.8,0,1.5-0.1,2.3-0.2v2.1c-0.7-0.1-1.5-0.1-2.3-0.2c-0.8,0-1.8-0.1-3-0.1v4.7c0.9,0,1.6,0,2.3,0s1.3,0,1.9,0
			c0.6,0,1.1,0,1.6-0.1c0.5,0,1-0.1,1.6-0.1v2.2c-0.6,0-1.2-0.1-1.8-0.1c-0.6,0-1.2-0.1-1.9-0.1c-0.7,0-1.5,0-2.4,0
			c-0.9,0-1.9,0-3,0c-1.2,0-2.2,0-3.1,0c-0.9,0-1.7,0-2.4,0.1c-0.7,0-1.4,0-2,0.1c-0.6,0-1.2,0.1-1.8,0.1v-2.2
			c0.6,0,1.2,0.1,1.8,0.1c0.6,0,1.2,0,1.9,0.1c0.7,0,1.5,0,2.3,0c0.8,0,1.8,0,2.9,0v-4.7c-0.6,0-1.2,0-1.8,0c-0.5,0-1,0-1.5,0.1
			c-0.5,0-0.9,0-1.3,0.1c-0.4,0-0.8,0.1-1.1,0.1v-2.1c0.4,0,0.7,0.1,1.1,0.1c0.4,0,0.8,0.1,1.3,0.1c0.4,0,0.9,0,1.5,0
			c0.5,0,1.1,0,1.8,0v-4.1H364.9z"/>
		<path class="st1" d="M386.2,380.3c-0.2-0.2-0.5-0.3-0.8-0.5c-0.3-0.2-0.6-0.4-1-0.6c-0.3-0.2-0.7-0.3-1-0.5
			c-0.3-0.1-0.6-0.3-0.9-0.4l1-1.6c0.6,0.3,1.3,0.6,1.9,0.9c0.7,0.3,1.2,0.6,1.7,0.9L386.2,380.3z M387.1,382.7
			c-0.2,0.4-0.3,0.9-0.5,1.5c-0.2,0.6-0.4,1.4-0.6,2.2c-0.2,0.6-0.3,1.4-0.5,2.1c-0.1,0.8-0.2,1.5-0.3,2.1c-0.4-0.3-0.8-0.6-1.2-0.9
			c-0.4-0.2-0.7-0.5-1.1-0.7c0.2-0.5,0.5-1,0.7-1.6c0.2-0.6,0.5-1.3,0.7-2c0.2-0.8,0.4-1.4,0.5-2c0.1-0.6,0.2-1.2,0.3-1.9
			c0.2,0.3,0.5,0.5,0.8,0.7C386.4,382.5,386.7,382.6,387.1,382.7z M387.1,375.1c-0.2-0.2-0.4-0.4-0.7-0.6c-0.3-0.2-0.6-0.5-0.9-0.7
			c-0.3-0.2-0.6-0.5-1-0.7c-0.3-0.2-0.6-0.4-0.9-0.5l1.1-1.5c0.3,0.2,0.6,0.4,0.9,0.6c0.3,0.2,0.7,0.4,1,0.6c0.3,0.2,0.6,0.4,1,0.6
			c0.3,0.2,0.6,0.4,0.8,0.5L387.1,375.1z M393.8,373.8c-0.8,0.1-1.5,0.2-2.2,0.3c-0.7,0.1-1.3,0.2-1.8,0.3c-0.1-0.3-0.2-0.6-0.3-0.9
			c-0.1-0.3-0.3-0.6-0.5-0.8c0.3,0,0.7,0,1.2,0s1-0.1,1.6-0.1c0.5-0.1,1.1-0.1,1.6-0.2c0.5-0.1,0.9-0.1,1.3-0.2
			c1.1-0.2,2.1-0.4,2.9-0.6c0.8-0.2,1.5-0.4,2-0.6c0.1,0.1,0.1,0.3,0.2,0.5c0.1,0.2,0.2,0.3,0.3,0.5c0.1,0.2,0.2,0.3,0.3,0.4
			c0.1,0.1,0.2,0.2,0.3,0.3c0.3,0.4,0.3,0.5,0,0.4c-0.2,0-0.8,0-1.8,0.1c-0.4,0-0.8,0.1-1.4,0.2c-0.5,0.1-1.1,0.1-1.7,0.2v3.4
			c0.8,0,1.5,0,2.1,0c0.6,0,1.2,0,1.7,0c0.5,0,1,0,1.5-0.1c0.5,0,0.9-0.1,1.4-0.1v1.9c-0.5,0-0.9-0.1-1.4-0.1c-0.5,0-1,0-1.5-0.1
			c-0.5,0-1.1,0-1.7,0c-0.6,0-1.3,0-2.1,0v3c0.7,0,1.3,0,1.8,0c0.5,0,0.9,0,1.3,0c0.4,0,0.7,0,0.9,0c0.2,0,0.5,0,0.6-0.1
			c-0.1,0.6-0.1,1.3-0.1,2.1v4.6c0,0.4,0,0.8,0,1.2c0,0.4,0.1,0.8,0.1,1.2h-2v-1.8h-6.8v1.8h-2c0.1-0.5,0.1-0.9,0.1-1.3
			c0-0.3,0-0.7,0-1.2v-4.6c0-0.3,0-0.7,0-1.1c0-0.4-0.1-0.7-0.1-1.1c0.2,0,0.4,0.1,0.7,0.1c0.2,0,0.5,0,0.8,0c0.3,0,0.7,0,1.1,0
			c0.4,0,1,0,1.6,0v-3c-1.3,0-2.4,0-3.3,0.1c-0.9,0-1.7,0.1-2.5,0.1v-1.9c0.4,0,0.8,0.1,1.2,0.1c0.4,0,0.8,0,1.3,0.1
			c0.5,0,0.9,0,1.5,0c0.5,0,1.1,0,1.8,0V373.8z M398.3,383h-6.8v4h6.8V383z"/>
	</g>
</g>
<g>
	<path class="st3" d="M199.5,339.4c-8,0-15.9-1.1-23.7-3.2c-1.3-0.4-2.7-0.8-4-1.2c-21.4-6.9-39.4-21.4-50.6-41
		c-12-20.9-15.1-45.2-8.8-68.5c6.3-23.3,21.3-42.7,42.2-54.7c13.7-7.8,29.1-12,44.7-12c8,0,16,1.1,23.8,3.2
		c23.3,6.3,42.7,21.3,54.7,42.2c10.2,17.7,14,37.8,11,57.9l-0.1,0.6h-8.8l0.1-0.8c3-18.6-0.4-37-9.7-53.4
		c-10.8-18.9-28.4-32.5-49.4-38.2c-7-1.9-14.3-2.9-21.5-2.9c-14.1,0-28.1,3.7-40.4,10.8c-18.9,10.8-32.4,28.4-38.2,49.4
		c-5.7,21-2.9,43,8,61.9c10.8,18.9,28.4,32.5,49.4,38.2c8,2.2,16.3,3.1,24.6,2.7l0.4-0.1c6.6-0.3,13.3-1.4,19.9-3.4l0.2,0l0.2,0
		c5.1,1,10.4,1.5,15.9,1.5l2.9,0l-2.6,1.3c-4.3,2.1-8.7,3.9-13.2,5.3l-0.2,0.1c-0.2,0.1-0.3,0.2-0.5,0.2
		C217.2,338.1,208.4,339.4,199.5,339.4z"/>
</g>
<path class="st1" d="M231.1,246.2c-1-7.4-8.1-12.7-15.9-11.6c-7.7,1.1-13,8.1-12,15.5c1.1,7.5,8.1,12.7,15.8,11.6
	C226.7,260.6,232.1,253.7,231.1,246.2z M218.1,254.8c-3.8,0.5-7.1-2-7.7-5.8c-0.5-3.7,2-7.2,5.8-7.7c3.8-0.5,7.2,2.1,7.7,5.9
	C224.4,251,221.9,254.3,218.1,254.8z"/>
<path class="st1" d="M267.7,279.3c-1-7.4-8.1-12.7-15.9-11.6c-7.7,1.1-13,8.1-12,15.5c1.1,7.5,8.1,12.7,15.8,11.6
	C263.3,293.8,268.7,286.9,267.7,279.3z M254.6,288c-3.8,0.5-7.1-2-7.7-5.8c-0.5-3.7,2-7.2,5.8-7.8c3.8-0.5,7.2,2.1,7.7,5.9
	C261,284.2,258.5,287.5,254.6,288z"/>
<g>
	<path class="st1" d="M215.6,292.5h-11.2l49.5-54.1h11.1L215.6,292.5z"/>
</g>
<path class="st1" d="M244.2,315.6c-1.5,0.1-3,0.2-4.5,0.2c-20.9,0-33.7-7.8-40.9-14.3c-10-9.2-15.8-22-15.8-35.2v-0.7h-8.7v0.7
	c0,15.7,6.8,30.8,18.6,41.6c8.3,7.6,23.1,16.6,46.7,16.6c2.7,0,5.4-0.2,8.2-0.4L244.2,315.6z"/>
</svg>
