<?xml version="1.0" encoding="utf-8"?>
<!-- Generator: Adobe Illustrator 19.0.0, SVG Export Plug-In . SVG Version: 6.00 Build 0)  -->
<svg version="1.1" id="Layer_1" xmlns="http://www.w3.org/2000/svg" xmlns:xlink="http://www.w3.org/1999/xlink" x="0px" y="0px"
	 viewBox="0 0 612 612" style="enable-background:new 0 0 612 612;" xml:space="preserve">
<metadata><?xpacket begin="﻿" id="W5M0MpCehiHzreSzNTczkc9d"?>
<x:xmpmeta xmlns:x="adobe:ns:meta/" x:xmptk="Adobe XMP Core 5.6-c067 79.157747, 2015/03/30-23:40:42        ">
   <rdf:RDF xmlns:rdf="http://www.w3.org/1999/02/22-rdf-syntax-ns#">
      <rdf:Description rdf:about=""/>
   </rdf:RDF>
</x:xmpmeta>
                                                                                                    
                                                                                                    
                                                                                                    
                                                                                                    
                                                                                                    
                                                                                                    
                                                                                                    
                                                                                                    
                                                                                                    
                                                                                                    
                                                                                                    
                                                                                                    
                                                                                                    
                                                                                                    
                                                                                                    
                                                                                                    
                                                                                                    
                                                                                                    
                                                                                                    
                                                                                                    
                           
<?xpacket end="w"?></metadata>
<style type="text/css">
	.st0{fill:#0083BF;}
	.st1{fill:#FFFFFF;}
	.st2{fill:#90CEF1;}
	.st3{fill:#74C1EC;}
</style>
<rect class="st0" width="612" height="612"/>
<g>
	<path class="st1" d="M328.7,294.7c2.4,1.7,5,1.7,5.9,1.7c1.2-0.1,2.3-1,2.1-2.1c-0.1-1.2-1-1.7-2.1-2.1c-3.2-1.2-6.2-2.8-6.2-6.3
		s2.4-6.2,5.9-6.3c1.1-0.1,2.5-0.1,5.2,0.9l-0.5,4c-2.3-0.9-3.6-0.9-4.2-0.9c-1.5,0.1-2.1,1.2-2.1,2.3c0.1,1.2,1.1,1.7,2.3,2.1
		c3.2,1.2,6,3,6,6.4c0,3.5-2.4,6.1-6.3,6.3c-1.2,0.1-3.7-0.1-6.6-1.5L328.7,294.7z"/>
	<path class="st1" d="M350.5,300.9l-8.6-21.2h4.8l2.8,6.9l1.5,4.3l1.5-4.2l2.8-7.1h4.8l-8.6,21.2H350.5z"/>
	<path class="st1" d="M359.7,296.3h4c1.2,0,2.1-0.9,2.1-2.1v-14.5h4.2v14.5c0,4.2-2.1,6.2-6.2,6.2h-4.1V296.3z"/>
	<path class="st1" d="M375.3,300.4v-20.8h10.4v4.2h-6.2v4.2h5.5v4.1h-5.5v4.2h6.6v4.2H375.3z"/>
	<path class="st1" d="M393.1,300.4v-16.6h-5.2v-4.1h14.5v4.1h-5.2v16.6H393.1z"/>
	<path class="st1" d="M404.6,294.7c2.4,1.7,5,1.7,5.9,1.7c1.2-0.1,2.3-1,2.1-2.1c-0.1-1.2-1-1.7-2.1-2.1c-3.2-1.2-6.2-2.8-6.2-6.3
		s2.4-6.2,5.9-6.3c1.1-0.1,2.5-0.1,5.2,0.9l-0.5,4c-2.3-0.9-3.6-0.9-4.2-0.9c-1.5,0.1-2.1,1.2-2.1,2.3c0.1,1.2,1.1,1.7,2.3,2.1
		c3.2,1.2,6,3,6,6.4c0,3.5-2.4,6.1-6.3,6.3c-1.2,0.1-3.7-0.1-6.6-1.5L404.6,294.7z"/>
	<path class="st1" d="M421,279.7h4.2c0,2.8,0,5.5,0,8.3l5.2-8.3h4.8l-6.7,10.2l7.3,10.5h-5.1l-5.5-8.1c0,2.7,0,5.5,0,8.1H421V279.7z
		"/>
	<path class="st1" d="M438.7,300.4v-20.8h4.1v20.8H438.7z"/>
	<path class="st1" d="M335.3,333.1h-6.2v-20.8h6.2C349.1,312.3,349.1,333.1,335.3,333.1z M333.3,316.5v12.5h2c8.1,0,8.1-12.5,0-12.5
		H333.3z"/>
	<path class="st1" d="M355.8,311.6h0.4l8.7,21.5h-4.7l-0.8-2.2h-6.9l-0.8,2.2h-4.7L355.8,311.6z M357.9,327l-1.9-5.4l-1.9,5.4H357.9
		z"/>
	<path class="st1" d="M372,333.1h-4.1v-21.2h1.1l10.5,12.2v-11.7h4.2v21.2h-1.1L372,321.8V333.1z"/>
	<path class="st1" d="M328.7,360c2.4,1.7,5,1.7,5.9,1.7c1.2-0.1,2.3-1,2.1-2.1c-0.1-1.2-1-1.7-2.1-2.1c-3.2-1.2-6.2-2.8-6.2-6.3
		s2.4-6.2,5.9-6.3c1.1-0.1,2.5-0.1,5.2,0.9l-0.5,4c-2.3-0.9-3.6-0.9-4.2-0.9c-1.5,0.1-2.1,1.2-2.1,2.3c0.1,1.2,1.1,1.7,2.3,2.1
		c3.2,1.2,6,3,6,6.4c0,3.5-2.4,6.1-6.3,6.3c-1.2,0.1-3.7-0.1-6.6-1.5L328.7,360z"/>
	<path class="st1" d="M347.3,365.7v-16.6h-5.2V345h14.5v4.1h-5.2v16.6H347.3z"/>
	<path class="st1" d="M365,344.2h0.4l8.7,21.5h-4.7l-0.8-2.2h-6.9l-0.8,2.2h-4.7L365,344.2z M367.1,359.6l-1.9-5.4l-1.9,5.4H367.1z"
		/>
	<path class="st1" d="M378.9,365.7v-16.6h-5.2V345h14.5v4.1H383v16.6H378.9z"/>
	<path class="st1" d="M391.2,365.7V345h4.2v20.8H391.2z"/>
	<path class="st1" d="M400.4,360c2.4,1.7,5,1.7,5.9,1.7c1.2-0.1,2.3-1,2.1-2.1c-0.1-1.2-1-1.7-2.1-2.1c-3.2-1.2-6.2-2.8-6.2-6.3
		s2.4-6.2,5.9-6.3c1.1-0.1,2.5-0.1,5.2,0.9l-0.5,4c-2.3-0.9-3.6-0.9-4.2-0.9c-1.5,0.1-2.1,1.2-2.1,2.3c0.1,1.2,1.1,1.7,2.3,2.1
		c3.2,1.2,6,3,6,6.4c0,3.5-2.4,6.1-6.3,6.3c-1.2,0.1-3.7-0.1-6.6-1.5L400.4,360z"/>
	<path class="st1" d="M418.9,365.7v-16.6h-5.2V345h14.5v4.1h-5.2v16.6H418.9z"/>
	<path class="st1" d="M431.2,365.7V345h4.2v20.8H431.2z"/>
	<path class="st1" d="M440.7,345h4.2c0,2.8,0,5.5,0,8.3l5.2-8.3h4.8l-6.7,10.2l7.3,10.5h-5.1l-5.5-8.1c0,2.7,0,5.5,0,8.1h-4.2V345z"
		/>
	<path class="st1" d="M458.3,365.7V345h10.4v4.2h-6.2v4.2h5.5v4.1h-5.5v4.2h6.6v4.2H458.3z"/>
	<path class="st2" d="M333,384.6c0-0.8-0.6-1.4-1.5-1.4c-1.3-0.1-2.8,0.7-3.3,1.1l-0.7-2.8c1.1-0.8,2.8-1.4,4.2-1.3
		c4.2,0.2,5.6,3.9,3.2,7.2l-2.8,4.4h4.2v2.9h-9.4l5.3-8.5C333,385.2,333,384.6,333,384.6z"/>
	<path class="st2" d="M338.7,387.6c0-4.1,1.4-7.3,4.9-7.3c3.6,0,4.9,3.3,4.9,7.3c0,4.1-1.4,7.3-4.9,7.3
		C340.1,394.9,338.7,391.7,338.7,387.6z M345.8,387.6c0-2.6-0.5-4.7-2.2-4.7c-1.6,0-2.1,2.1-2.1,4.7c0,2.6,0.5,4.7,2.1,4.7
		C345.2,392.3,345.8,390.2,345.8,387.6z"/>
	<path class="st2" d="M352.2,394.9c-2.2,0-2.2-3.2,0-3.2C354.4,391.7,354.4,394.9,352.2,394.9z"/>
	<path class="st2" d="M355.4,380.5h5.2v14.2h-2.8v-11.4h-2.3V380.5z"/>
	<path class="st2" d="M363.8,387.6c0-4.1,1.4-7.3,4.9-7.3c3.6,0,4.9,3.3,4.9,7.3c0,4.1-1.4,7.3-4.9,7.3
		C365.1,394.9,363.8,391.7,363.8,387.6z M370.8,387.6c0-2.6-0.5-4.7-2.2-4.7c-1.6,0-2.1,2.1-2.1,4.7c0,2.6,0.5,4.7,2.1,4.7
		C370.3,392.3,370.8,390.2,370.8,387.6z"/>
	<path class="st2" d="M377.3,394.9c-2.2,0-2.2-3.2,0-3.2C379.5,391.7,379.4,394.9,377.3,394.9z"/>
	<path class="st2" d="M387,384.6c0-0.8-0.6-1.4-1.5-1.4c-1.3-0.1-2.8,0.7-3.3,1.1l-0.7-2.8c1.1-0.8,2.8-1.4,4.2-1.3
		c4.2,0.2,5.6,3.9,3.2,7.2l-2.8,4.4h4.2v2.9h-9.4l5.3-8.5C387,385.2,387,384.6,387,384.6z"/>
	<path class="st2" d="M392.7,387.6c0-4.1,1.4-7.3,4.9-7.3c3.6,0,4.9,3.3,4.9,7.3c0,4.1-1.4,7.3-4.9,7.3
		C394.1,394.9,392.7,391.7,392.7,387.6z M399.7,387.6c0-2.6-0.5-4.7-2.2-4.7c-1.6,0-2.1,2.1-2.1,4.7c0,2.6,0.5,4.7,2.1,4.7
		C399.2,392.3,399.7,390.2,399.7,387.6z"/>
	<path class="st2" d="M404.3,380.5h5.2v14.2h-2.8v-11.4h-2.3V380.5z"/>
	<path class="st2" d="M421.4,390.6c0,2.4-1.6,4.2-4.3,4.3c-0.7,0-2.7,0-4.5-0.6l0.3-2.8c4.4,1.5,5.7,0.3,5.7-0.9
		c0-1.7-1.1-2.2-5.4-2.5v-7.5h7.3v2.7h-4.4v2.5C419.5,386,421.4,387.3,421.4,390.6z"/>
	<path class="st1" d="M328.3,411.9h5.1c2.3,0,3.7,1.7,3.7,3.9c0,1-0.4,2-1.2,2.6c0.9,0.6,1.3,1.6,1.3,2.6c0,2.2-1.7,3.9-3.8,3.9
		h-5.1V411.9z M330.9,417.1h1.6h0.7c0.7,0,1.2-0.6,1.2-1.3c0-0.7-0.5-1.3-1.2-1.3h-2.3V417.1z M330.9,422.3h1.6h0.7
		c0.7,0,1.3-0.6,1.3-1.3s-0.6-1.3-1.3-1.3h-2.3V422.3z"/>
	<path class="st1" d="M346.6,411.7c8.9,0,8.9,13.4,0,13.4C337.7,425.1,337.7,411.7,346.6,411.7z M346.6,414.4c-5.2,0-5.2,8,0,8
		S351.8,414.4,346.6,414.4z"/>
	<path class="st1" d="M359.1,412v10.4h4.1v2.6h-6.7v-13H359.1z"/>
	<path class="st1" d="M364.6,422.3h2.5c0.7,0,1.3-0.6,1.3-1.3V412h2.6v9.1c0,2.6-1.3,3.9-3.9,3.9h-2.6V422.3z"/>
	<path class="st1" d="M374.9,424.9v-13h2.6v13H374.9z"/>
	<path class="st1" d="M386.7,424.9v-13h5.1c5,0,5,8,0,8h-2.5v5H386.7z M391.5,417.4c1.7,0,1.7-2.9,0-2.9h-2.3v2.9H391.5z"/>
	<path class="st1" d="M404.1,411.7c8.9,0,8.9,13.4,0,13.4C395.2,425.1,395.2,411.7,404.1,411.7z M404.1,414.4c-5.2,0-5.2,8,0,8
		S409.3,414.4,404.1,414.4z"/>
	<path class="st1" d="M417.8,424.9H414v-13h3.9C426.5,412,426.5,424.9,417.8,424.9z M416.6,414.5v7.8h1.3c5,0,5-7.8,0-7.8H416.6z"/>
	<path class="st1" d="M431.2,411.5h0.3l5.5,13.4H434l-0.5-1.4h-4.3l-0.5,1.4h-2.9L431.2,411.5z M432.5,421.1l-1.2-3.4l-1.2,3.4
		H432.5z"/>
	<path class="st1" d="M445,414.4c-5.1,0-5.1,7.9,0,7.9c1.1,0,2-0.3,2.5-0.6l0.3,2.7c-0.8,0.3-1.9,0.5-2.8,0.5
		c-8.8,0-8.8-13.2,0-13.2c0.9,0,1.8,0.2,2.6,0.5l-0.3,2.7C446.7,414.7,446.1,414.4,445,414.4z"/>
	<path class="st1" d="M450.9,424.9v-13h2.6v13H450.9z"/>
	<path class="st1" d="M458.2,425c-2,0-2-2.9,0-2.9C460.2,422.1,460.2,425,458.2,425z"/>
	<path class="st1" d="M328.3,434.8h5.1c2.3,0,3.7,1.7,3.7,3.9c0,1-0.4,2-1.2,2.6c0.9,0.6,1.3,1.6,1.3,2.6c0,2.2-1.7,3.9-3.8,3.9
		h-5.1V434.8z M330.9,440.1h1.6h0.7c0.7,0,1.2-0.6,1.2-1.3c0-0.7-0.5-1.3-1.2-1.3h-2.3V440.1z M330.9,445.2h1.6h0.7
		c0.7,0,1.3-0.6,1.3-1.3s-0.6-1.3-1.3-1.3h-2.3V445.2z"/>
	<path class="st1" d="M346.6,434.7c8.9,0,8.9,13.4,0,13.4C337.7,448,337.7,434.7,346.6,434.7z M346.6,437.3c-5.2,0-5.2,8,0,8
		S351.8,437.3,346.6,437.3z"/>
	<path class="st1" d="M359.1,434.9v10.4h4.1v2.6h-6.7v-13H359.1z"/>
	<path class="st1" d="M364.6,445.2h2.5c0.7,0,1.3-0.6,1.3-1.3v-9.1h2.6v9.1c0,2.6-1.3,3.9-3.9,3.9h-2.6V445.2z"/>
	<path class="st1" d="M374.9,447.8v-13h2.6v13H374.9z"/>
	<path class="st1" d="M385.6,447.8c1.6-3.5,3.1-7,4.7-10.5h-4v-2.5h7.9c-1.6,3.5-3.1,6.9-4.7,10.4h4.8v2.6H385.6z M393.9,431.7
		l-2.6,2.3h-1.7l-2.6-2.3h2.8l0.7,0.8l0.7-0.8H393.9z"/>
	<path class="st1" d="M397.4,447.8v-13h2.6v13H397.4z"/>
	<path class="st1" d="M407.4,448.1l-5.4-13.2h3l1.7,4.3l0.9,2.7l0.9-2.6l1.7-4.4h3l-5.4,13.2H407.4z"/>
	<path class="st1" d="M421.3,434.7c8.9,0,8.9,13.4,0,13.4C412.4,448,412.4,434.7,421.3,434.7z M421.3,437.3c-5.2,0-5.2,8,0,8
		S426.5,437.3,421.3,437.3z"/>
	<path class="st1" d="M432.6,447.8v-10.4h-3.2v-2.6h9.1v2.6h-3.2v10.4H432.6z"/>
	<path class="st1" d="M440.9,447.8v-13h2.6v13H440.9z"/>
	<path class="st1" d="M448.3,448c-2,0-2-2.9,0-2.9C450.2,445,450.2,448,448.3,448z"/>
</g>
<g id="XMLID_25_">
	<path id="XMLID_26_" class="st3" d="M212.5,345.4c-7.9,0-15.7-1.1-23.3-3.1c-1.3-0.4-2.6-0.8-4-1.2c-21.1-6.8-38.8-21.1-49.9-40.4
		c-11.8-20.6-14.9-44.6-8.7-67.5c6.2-22.9,21-42,41.6-53.8c13.5-7.7,28.7-11.8,44-11.8c7.9,0,15.7,1.1,23.4,3.1
		c22.9,6.2,42,21,53.8,41.6c10,17.5,13.8,37.2,10.8,57l-0.1,0.6h-8.7l0.1-0.8c3-18.3-0.4-36.5-9.6-52.6c-10.7-18.6-28-32-48.7-37.6
		c-6.9-1.9-14.1-2.8-21.2-2.8c-13.9,0-27.6,3.7-39.8,10.7c-18.6,10.7-32,27.9-37.6,48.7c-5.6,20.7-2.8,42.4,7.8,61
		c10.7,18.6,27.9,32,48.7,37.6c7.8,2.1,16.1,3,24.3,2.7l0.4-0.1c6.5-0.3,13.1-1.4,19.6-3.4l0.2,0l0.2,0c5,1,10.3,1.5,15.7,1.5l2.9,0
		l-2.6,1.3c-4.2,2.1-8.6,3.8-13,5.2l-0.2,0.1c-0.2,0.1-0.3,0.2-0.5,0.2C229.9,344.1,221.2,345.4,212.5,345.4z"/>
</g>
<path id="XMLID_22_" class="st1" d="M243.6,253.6c-1-7.3-8-12.5-15.6-11.5c-7.6,1.1-12.8,8-11.8,15.3c1,7.4,7.9,12.5,15.5,11.5
	C239.3,267.8,244.6,261,243.6,253.6z M230.7,262.1c-3.8,0.5-7-1.9-7.5-5.7c-0.5-3.7,1.9-7.1,5.7-7.6c3.8-0.5,7,2.1,7.6,5.8
	C237,258.3,234.5,261.6,230.7,262.1z"/>
<path id="XMLID_16_" class="st1" d="M279.6,286.2c-1-7.3-8-12.5-15.6-11.5c-7.6,1.1-12.8,8-11.8,15.3c1,7.4,7.9,12.5,15.5,11.5
	C275.3,300.5,280.6,293.7,279.6,286.2z M266.8,294.8c-3.8,0.5-7-1.9-7.5-5.7c-0.5-3.7,1.9-7.1,5.7-7.6c3.8-0.5,7,2.1,7.6,5.8
	C273,291,270.5,294.3,266.8,294.8z"/>
<g id="XMLID_11_">
	<path id="XMLID_12_" class="st1" d="M228.3,299.2h-11l48.8-53.3h11L228.3,299.2z"/>
</g>
<path id="XMLID_1_" class="st1" d="M256.5,322c-1.5,0.1-3,0.2-4.4,0.2c-20.6,0-33.2-7.6-40.3-14.1c-9.9-9-15.5-21.7-15.5-34.7v-0.7
	h-8.5v0.7c0,15.4,6.7,30.4,18.3,41c8.2,7.4,22.7,16.3,46,16.3c2.6,0,5.3-0.1,8.1-0.4L256.5,322z"/>
</svg>
