<?xml version="1.0" encoding="utf-8"?>
<!-- Generator: Adobe Illustrator 19.0.0, SVG Export Plug-In . SVG Version: 6.00 Build 0)  -->
<svg version="1.1" id="Layer_1" xmlns="http://www.w3.org/2000/svg" xmlns:xlink="http://www.w3.org/1999/xlink" x="0px" y="0px"
	 viewBox="0 0 612 612" style="enable-background:new 0 0 612 612;" xml:space="preserve">
<metadata><?xpacket begin="﻿" id="W5M0MpCehiHzreSzNTczkc9d"?>
<x:xmpmeta xmlns:x="adobe:ns:meta/" x:xmptk="Adobe XMP Core 5.6-c067 79.157747, 2015/03/30-23:40:42        ">
   <rdf:RDF xmlns:rdf="http://www.w3.org/1999/02/22-rdf-syntax-ns#">
      <rdf:Description rdf:about=""/>
   </rdf:RDF>
</x:xmpmeta>
                                                                                                    
                                                                                                    
                                                                                                    
                                                                                                    
                                                                                                    
                                                                                                    
                                                                                                    
                                                                                                    
                                                                                                    
                                                                                                    
                                                                                                    
                                                                                                    
                                                                                                    
                                                                                                    
                                                                                                    
                                                                                                    
                                                                                                    
                                                                                                    
                                                                                                    
                                                                                                    
                           
<?xpacket end="w"?></metadata>
<style type="text/css">
	.st0{fill:#0083BF;}
	.st1{fill:#FFFFFF;}
	.st2{fill:#90CEF1;}
	.st3{fill:#74C1EC;}
</style>
<rect class="st0" width="612" height="612"/>
<g>
	<path class="st1" d="M308.2,297.9c2.5,1.7,5.1,1.8,6.1,1.7c1.3-0.1,2.3-1,2.2-2.2c-0.1-1.2-1-1.8-2.2-2.2c-3.4-1.2-6.4-2.9-6.4-6.6
		c0-3.6,2.5-6.4,6.1-6.6c1.1-0.1,2.6-0.1,5.4,0.9l-0.5,4.2c-2.4-1-3.7-0.9-4.4-0.9c-1.5,0.1-2.2,1.2-2.1,2.4
		c0.1,1.2,1.2,1.7,2.4,2.2c3.3,1.2,6.2,3.2,6.2,6.6c0,3.6-2.5,6.3-6.5,6.5c-1.2,0.1-3.9-0.1-6.8-1.6L308.2,297.9z"/>
	<path class="st1" d="M330.8,304.3l-8.9-22h5l2.9,7.2l1.6,4.5l1.5-4.3l2.9-7.3h5l-8.9,22H330.8z"/>
	<path class="st1" d="M340.3,299.5h4.1c1.2,0,2.2-1,2.2-2.2v-15h4.4v15c0,4.4-2.2,6.5-6.4,6.5h-4.2V299.5z"/>
	<path class="st1" d="M356.5,303.8v-21.5h10.8v4.3h-6.5v4.3h5.7v4.3h-5.7v4.3h6.8v4.3H356.5z"/>
	<path class="st1" d="M374.9,303.8v-17.2h-5.4v-4.3h15v4.3h-5.4v17.2H374.9z"/>
	<path class="st1" d="M386.9,297.9c2.5,1.7,5.1,1.8,6.1,1.7c1.3-0.1,2.3-1,2.2-2.2c-0.1-1.2-1-1.8-2.2-2.2c-3.4-1.2-6.4-2.9-6.4-6.6
		c0-3.6,2.5-6.4,6.1-6.6c1.1-0.1,2.6-0.1,5.4,0.9l-0.5,4.2c-2.4-1-3.7-0.9-4.4-0.9c-1.5,0.1-2.2,1.2-2.1,2.4
		c0.1,1.2,1.2,1.7,2.4,2.2c3.3,1.2,6.2,3.2,6.2,6.6c0,3.6-2.5,6.3-6.5,6.5c-1.2,0.1-3.9-0.1-6.8-1.6L386.9,297.9z"/>
	<path class="st1" d="M403.9,282.3h4.3c0,2.9,0,5.7,0,8.6l5.4-8.6h5l-7,10.6l7.6,10.9h-5.3l-5.7-8.4c0,2.8,0,5.7,0,8.4h-4.3V282.3z"
		/>
	<path class="st1" d="M422.2,303.8v-21.5h4.3v21.5H422.2z"/>
	<path class="st1" d="M315.1,337.7h-6.4v-21.5h6.4C329.4,316.2,329.4,337.7,315.1,337.7z M313,320.5v12.9h2.1c8.4,0,8.4-12.9,0-12.9
		H313z"/>
	<path class="st1" d="M336.3,315.4h0.5l9.1,22.3H341l-0.9-2.3H333l-0.8,2.3h-4.9L336.3,315.4z M338.5,331.3l-2-5.6l-2,5.6H338.5z"/>
	<path class="st1" d="M353.1,337.7h-4.3v-22h1.1l10.9,12.6v-12.2h4.3v21.9H364L353.1,326V337.7z"/>
	<path class="st1" d="M308.2,365.6c2.5,1.7,5.1,1.8,6.1,1.7c1.3-0.1,2.3-1,2.2-2.2c-0.1-1.2-1-1.8-2.2-2.2c-3.4-1.2-6.4-2.9-6.4-6.6
		s2.5-6.4,6.1-6.6c1.1-0.1,2.6-0.1,5.4,0.9l-0.5,4.2c-2.4-1-3.7-0.9-4.4-0.9c-1.5,0.1-2.2,1.2-2.1,2.4c0.1,1.2,1.2,1.7,2.4,2.2
		c3.3,1.2,6.2,3.2,6.2,6.6c0,3.6-2.5,6.3-6.5,6.5c-1.2,0.1-3.9-0.1-6.8-1.6L308.2,365.6z"/>
	<path class="st1" d="M327.5,371.5v-17.2h-5.4V350h15v4.3h-5.4v17.2H327.5z"/>
	<path class="st1" d="M345.9,349.2h0.5l9.1,22.3h-4.8l-0.9-2.3h-7.1l-0.8,2.3h-4.9L345.9,349.2z M348.1,365.1l-2-5.6l-2,5.6H348.1z"
		/>
	<path class="st1" d="M360.2,371.5v-17.2h-5.4V350h15v4.3h-5.4v17.2H360.2z"/>
	<path class="st1" d="M373,371.5V350h4.3v21.5H373z"/>
	<path class="st1" d="M382.5,365.6c2.5,1.7,5.1,1.8,6.1,1.7c1.3-0.1,2.3-1,2.2-2.2c-0.1-1.2-1-1.8-2.2-2.2c-3.4-1.2-6.4-2.9-6.4-6.6
		s2.5-6.4,6.1-6.6c1.1-0.1,2.6-0.1,5.4,0.9l-0.5,4.2c-2.4-1-3.7-0.9-4.4-0.9c-1.5,0.1-2.2,1.2-2.1,2.4c0.1,1.2,1.2,1.7,2.4,2.2
		c3.3,1.2,6.2,3.2,6.2,6.6c0,3.6-2.5,6.3-6.5,6.5c-1.2,0.1-3.9-0.1-6.8-1.6L382.5,365.6z"/>
	<path class="st1" d="M401.7,371.5v-17.2h-5.4V350h15v4.3H406v17.2H401.7z"/>
	<path class="st1" d="M414.5,371.5V350h4.3v21.5H414.5z"/>
	<path class="st1" d="M424.3,350h4.3c0,2.9,0,5.7,0,8.6l5.4-8.6h5l-7,10.6l7.6,10.9h-5.3l-5.7-8.4c0,2.8,0,5.7,0,8.4h-4.3V350z"/>
	<path class="st1" d="M442.5,371.5V350h10.8v4.3h-6.5v4.3h5.7v4.3h-5.7v4.3h6.8v4.3H442.5z"/>
	<path class="st2" d="M312.7,391.1c0-0.8-0.7-1.4-1.5-1.5c-1.3-0.1-2.9,0.8-3.4,1.2l-0.7-2.9c1.1-0.8,2.9-1.4,4.4-1.3
		c4.3,0.2,5.8,4,3.3,7.5l-2.9,4.5h4.4v3h-9.8l5.5-8.8C312.7,391.7,312.7,391.1,312.7,391.1z"/>
	<path class="st2" d="M318.6,394.2c0-4.2,1.4-7.6,5.1-7.6c3.7,0,5.1,3.4,5.1,7.6s-1.4,7.6-5.1,7.6
		C320,401.8,318.6,398.4,318.6,394.2z M325.9,394.2c0-2.6-0.6-4.8-2.2-4.8c-1.6,0-2.2,2.2-2.2,4.8c0,2.7,0.6,4.8,2.2,4.8
		C325.4,399,325.9,396.8,325.9,394.2z"/>
	<path class="st2" d="M332.6,401.7c-2.2,0-2.2-3.3,0-3.3C334.9,398.4,334.8,401.7,332.6,401.7z"/>
	<path class="st2" d="M335.9,386.8h5.4v14.8h-2.9v-11.8h-2.4V386.8z"/>
	<path class="st2" d="M344.6,394.2c0-4.2,1.4-7.6,5.1-7.6c3.7,0,5.1,3.4,5.1,7.6s-1.4,7.6-5.1,7.6
		C346,401.8,344.6,398.4,344.6,394.2z M351.9,394.2c0-2.6-0.6-4.8-2.2-4.8c-1.6,0-2.2,2.2-2.2,4.8c0,2.7,0.6,4.8,2.2,4.8
		C351.3,399,351.9,396.8,351.9,394.2z"/>
	<path class="st2" d="M358.6,401.7c-2.2,0-2.2-3.3,0-3.3C360.8,398.4,360.8,401.7,358.6,401.7z"/>
	<path class="st2" d="M368.6,391.1c0-0.8-0.7-1.4-1.5-1.5c-1.3-0.1-2.9,0.8-3.4,1.2l-0.7-2.9c1.1-0.8,2.9-1.4,4.4-1.3
		c4.3,0.2,5.8,4,3.3,7.5l-2.9,4.5h4.4v3h-9.8l5.5-8.8C368.7,391.7,368.6,391.1,368.6,391.1z"/>
	<path class="st2" d="M374.6,394.2c0-4.2,1.4-7.6,5.1-7.6c3.7,0,5.1,3.4,5.1,7.6s-1.4,7.6-5.1,7.6
		C376,401.8,374.6,398.4,374.6,394.2z M381.9,394.2c0-2.6-0.6-4.8-2.2-4.8c-1.6,0-2.2,2.2-2.2,4.8c0,2.7,0.6,4.8,2.2,4.8
		C381.3,399,381.9,396.8,381.9,394.2z"/>
	<path class="st2" d="M386.6,386.8h5.4v14.8H389v-11.8h-2.4V386.8z"/>
	<path class="st2" d="M404.3,397.2c0,2.5-1.7,4.3-4.4,4.5c-0.8,0-2.8,0-4.7-0.7l0.3-2.9c4.6,1.6,5.9,0.3,5.9-0.9
		c0-1.7-1.1-2.3-5.6-2.6v-7.8h7.5v2.8h-4.5v2.6C402.4,392.5,404.3,393.8,404.3,397.2z"/>
	<path class="st1" d="M307.8,419.4h2.7c0,1.8,0,3.6,0,5.4l3.4-5.4h3.1l-4.4,6.6l4.7,6.8h-3.3l-3.6-5.3c0,1.7,0,3.5,0,5.3h-2.7V419.4
		z"/>
	<path class="st1" d="M323.2,433.1l-5.6-13.7h3.1l1.8,4.5l1,2.8l1-2.7l1.8-4.6h3.1l-5.6,13.7H323.2z"/>
	<path class="st1" d="M335.2,418.9h0.3l5.7,13.9h-3l-0.5-1.4h-4.5l-0.5,1.4h-3L335.2,418.9z M336.5,428.9l-1.2-3.5l-1.3,3.5H336.5z"
		/>
	<path class="st1" d="M346.2,419.4v10.8h4.3v2.7h-7v-13.4H346.2z"/>
	<path class="st1" d="M353.3,432.8v-13.4h2.7v13.4H353.3z"/>
	<path class="st1" d="M361.8,432.8v-10.8h-3.3v-2.7h9.4v2.7h-3.3v10.8H361.8z"/>
	<path class="st1" d="M370.3,432.8v-13.4h6.7v2.7h-4v2.7h3.5v2.7h-3.5v2.7h4.3v2.7H370.3z"/>
	<path class="st1" d="M382.4,432.8v-10.8H379v-2.7h9.4v2.7H385v10.8H382.4z"/>
	<path class="st1" d="M393.5,432.8h-2.7v-13.7h0.7l6.8,7.9v-7.6h2.7v13.7h-0.7l-6.8-7.6V432.8z"/>
	<path class="st1" d="M405.1,432.8v-13.4h2.7v13.4H405.1z"/>
	<path class="st1" d="M410.6,430.1h2.6c0.8,0,1.4-0.6,1.4-1.4v-9.4h2.7v9.4c0,2.7-1.4,4-4,4h-2.7V430.1z"/>
	<path class="st1" d="M421.3,432.8v-13.4h2.7v13.4H421.3z"/>
	<path class="st1" d="M439.4,419.2h0.8v13.6h-2.7l0-7.5l-3.4,3.6l-3.4-3.6v7.5H428v-13.6h0.9l5.3,5.9L439.4,419.2z"/>
	<path class="st1" d="M449.8,432.8v-13.4h5.3c5.2,0,5.2,8.3,0,8.3h-2.6v5.1H449.8z M454.9,425.1c1.8,0,1.8-3,0-3h-2.4v3H454.9z"/>
	<path class="st1" d="M467.9,419.2c9.2,0,9.2,13.9,0,13.9S458.6,419.2,467.9,419.2z M467.9,421.9c-5.4,0-5.4,8.3,0,8.3
		S473.2,421.9,467.9,421.9z"/>
	<path class="st1" d="M482.1,432.8h-4v-13.4h4C491.1,419.4,491.1,432.8,482.1,432.8z M480.8,422.1v8.1h1.3c5.2,0,5.2-8.1,0-8.1
		H480.8z"/>
	<path class="st1" d="M496,418.9h0.3l5.7,13.9h-3l-0.5-1.4h-4.5l-0.5,1.4h-3L496,418.9z M497.4,428.9l-1.2-3.5l-1.3,3.5H497.4z"/>
	<path class="st1" d="M510.2,421.9c-5.3,0-5.3,8.2,0,8.2c1.2,0,2.1-0.3,2.6-0.6l0.4,2.8c-0.8,0.3-2,0.6-3,0.6
		c-9.1,0-9.1-13.6,0-13.6c0.9,0,1.8,0.2,2.7,0.5l-0.3,2.8C512.1,422.2,511.4,421.9,510.2,421.9z"/>
	<path class="st1" d="M516.3,432.8v-13.4h2.7v13.4H516.3z"/>
	<path class="st1" d="M534.5,419.2h0.8v13.6h-2.7l0-7.5l-3.4,3.6l-3.4-3.6v7.5h-2.7v-13.6h0.9l5.3,5.9L534.5,419.2z"/>
	<path class="st1" d="M543.4,418.9h0.3l5.7,13.9h-3l-0.5-1.4h-4.5l-0.5,1.4h-3L543.4,418.9z M544.8,428.9l-1.2-3.5l-1.3,3.5H544.8z"
		/>
	<path class="st1" d="M553.5,433c-2,0-2-3,0-3C555.5,429.9,555.5,433,553.5,433z"/>
	<path class="st1" d="M311.8,456.6h-4v-13.4h4C320.7,443.1,320.7,456.6,311.8,456.6z M310.5,445.8v8.1h1.3c5.2,0,5.2-8.1,0-8.1
		H310.5z"/>
	<path class="st1" d="M328,442.9c9.2,0,9.2,13.9,0,13.9S318.8,442.9,328,442.9z M328,445.7c-5.4,0-5.4,8.3,0,8.3
		S333.4,445.7,328,445.7z"/>
	<path class="st1" d="M344,443.1h5.3c2.4,0,3.9,1.7,3.8,4.1c0,1-0.4,2.1-1.2,2.7c0.9,0.6,1.4,1.6,1.4,2.7c0,2.3-1.8,4-4,4H344V443.1
		z M346.7,448.5h1.6h0.8c0.8,0,1.2-0.6,1.2-1.4c0-0.8-0.5-1.4-1.2-1.4h-2.4V448.5z M346.7,453.9h1.6h0.8c0.8,0,1.4-0.6,1.4-1.4
		s-0.6-1.3-1.4-1.3h-2.4V453.9z"/>
	<path class="st1" d="M363,442.9c9.2,0,9.2,13.9,0,13.9S353.7,442.9,363,442.9z M363,445.7c-5.4,0-5.4,8.3,0,8.3
		S368.4,445.7,363,445.7z"/>
	<path class="st1" d="M375.9,443.1v10.8h4.3v2.7h-7v-13.4H375.9z"/>
	<path class="st1" d="M381.6,453.9h2.6c0.8,0,1.4-0.6,1.4-1.4v-9.4h2.7v9.4c0,2.7-1.4,4-4,4h-2.7V453.9z"/>
	<path class="st1" d="M392.3,456.6v-13.4h6.7v2.7h-4v2.7h3.5v2.7H395v2.7h4.3v2.7H392.3z"/>
	<path class="st1" d="M408.7,456.6c-8.9,0-9.3-13.3,0-13.6c1.6-0.1,2.9,0.4,3.1,0.5l-0.3,2.7c-0.5-0.2-1.4-0.5-2.8-0.5
		c-5.4,0.2-5.2,8.2,0,8.2c0.2,0,0.5,0,0.8-0.1v-4h2.7v5.9C411.2,456.3,410,456.6,408.7,456.6z"/>
	<path class="st1" d="M420.6,456.6c1.6-3.6,3.2-7.2,4.9-10.8h-4.1v-2.6h8.1c-1.6,3.6-3.2,7.2-4.8,10.7h5v2.7H420.6z M429.1,439.8
		l-2.7,2.4h-1.8l-2.7-2.4h2.9l0.7,0.8l0.7-0.8H429.1z"/>
	<path class="st1" d="M432.8,456.6v-13.4h2.7v13.4H432.8z"/>
	<path class="st1" d="M443.1,456.8l-5.6-13.7h3.1l1.8,4.5l1,2.8l1-2.7l1.8-4.6h3.1l-5.6,13.7H443.1z"/>
	<path class="st1" d="M457.6,442.9c9.2,0,9.2,13.9,0,13.9S448.3,442.9,457.6,442.9z M457.6,445.7c-5.4,0-5.4,8.3,0,8.3
		S462.9,445.7,457.6,445.7z"/>
	<path class="st1" d="M469.3,456.6v-10.8h-3.3v-2.7h9.4v2.7H472v10.8H469.3z"/>
	<path class="st1" d="M481.4,442.6h0.3l5.7,13.9h-3l-0.5-1.4h-4.5l-0.5,1.4h-3L481.4,442.6z M482.8,452.6l-1.2-3.5l-1.3,3.5H482.8z"
		/>
	<path class="st1" d="M491.4,456.7c-2,0-2-3,0-3C493.5,453.7,493.4,456.7,491.4,456.7z"/>
</g>
<g>
	<path class="st3" d="M187.8,350.5c-8.1,0-16.3-1.1-24.2-3.2c-1.4-0.4-2.7-0.8-4.1-1.2c-21.9-7-40.2-21.9-51.7-41.9
		c-12.2-21.3-15.4-46.2-9-69.9c6.4-23.7,21.7-43.5,43.1-55.8c14-8,29.7-12.2,45.6-12.2c8.1,0,16.3,1.1,24.3,3.3
		c23.7,6.4,43.5,21.7,55.8,43.1c10.4,18.1,14.3,38.5,11.2,59.1l-0.1,0.6h-9l0.1-0.8c3.1-19-0.4-37.8-9.9-54.5
		c-11.1-19.3-29-33.1-50.4-38.9c-7.2-1.9-14.6-2.9-21.9-2.9c-14.4,0-28.6,3.8-41.3,11.1c-19.3,11.1-33.1,29-38.9,50.4
		c-5.8,21.5-2.9,43.9,8.1,63.2c11,19.3,29,33.1,50.4,38.9c8.1,2.2,16.6,3.1,25.1,2.8l0.4-0.1c6.7-0.3,13.6-1.5,20.3-3.5l0.2,0l0.2,0
		c5.2,1,10.6,1.5,16.3,1.5l3,0l-2.7,1.3c-4.4,2.2-8.9,4-13.5,5.4l-0.2,0.1c-0.2,0.1-0.4,0.2-0.5,0.2
		C205.9,349.1,196.9,350.5,187.8,350.5z"/>
</g>
<path class="st1" d="M220,255.3c-1.1-7.6-8.3-13-16.2-11.9c-7.9,1.1-13.3,8.3-12.2,15.8c1.1,7.7,8.2,13,16.1,11.9
	C215.6,270.1,221.1,263,220,255.3z M206.7,264.1c-3.9,0.5-7.3-2-7.8-5.9c-0.5-3.8,2-7.4,5.9-7.9c3.9-0.5,7.3,2.2,7.8,6
	C213.2,260.2,210.6,263.6,206.7,264.1z"/>
<path class="st1" d="M257.4,289.1c-1.1-7.6-8.3-13-16.2-11.9c-7.9,1.1-13.3,8.3-12.2,15.8c1.1,7.7,8.2,13,16.1,11.9
	C252.9,303.9,258.4,296.8,257.4,289.1z M244.1,298c-3.9,0.5-7.3-2-7.8-5.9c-0.5-3.8,2-7.4,5.9-7.9c3.9-0.5,7.3,2.2,7.8,6
	C250.5,294.1,248,297.5,244.1,298z"/>
<g>
	<path class="st1" d="M204.2,302.5h-11.4l50.5-55.2h11.4L204.2,302.5z"/>
</g>
<path class="st1" d="M233.4,326.1c-1.5,0.1-3.1,0.2-4.6,0.2c-21.3,0-34.4-7.9-41.7-14.6c-10.2-9.3-16.1-22.4-16.1-35.9v-0.7h-8.9
	v0.7c0,16,6.9,31.5,19,42.5c8.4,7.7,23.6,16.9,47.7,16.9c2.7,0,5.5-0.2,8.4-0.4L233.4,326.1z"/>
</svg>
