<?xml version="1.0" encoding="utf-8"?>
<!-- Generator: Adobe Illustrator 19.0.0, SVG Export Plug-In . SVG Version: 6.00 Build 0)  -->
<svg version="1.1" id="Layer_1" xmlns="http://www.w3.org/2000/svg" xmlns:xlink="http://www.w3.org/1999/xlink" x="0px" y="0px"
	 viewBox="0 0 612 612" style="enable-background:new 0 0 612 612;" xml:space="preserve">
<metadata><?xpacket begin="﻿" id="W5M0MpCehiHzreSzNTczkc9d"?>
<x:xmpmeta xmlns:x="adobe:ns:meta/" x:xmptk="Adobe XMP Core 5.6-c067 79.157747, 2015/03/30-23:40:42        ">
   <rdf:RDF xmlns:rdf="http://www.w3.org/1999/02/22-rdf-syntax-ns#">
      <rdf:Description rdf:about=""/>
   </rdf:RDF>
</x:xmpmeta>
                                                                                                    
                                                                                                    
                                                                                                    
                                                                                                    
                                                                                                    
                                                                                                    
                                                                                                    
                                                                                                    
                                                                                                    
                                                                                                    
                                                                                                    
                                                                                                    
                                                                                                    
                                                                                                    
                                                                                                    
                                                                                                    
                                                                                                    
                                                                                                    
                                                                                                    
                                                                                                    
                           
<?xpacket end="w"?></metadata>
<style type="text/css">
	.st0{fill:#FFFFFF;stroke:#000000;stroke-miterlimit:10;}
	.st1{fill:#0083BF;}
	.st2{fill:#59AFE1;}
	.st3{fill:#74C1EC;}
</style>
<rect class="st0" width="612" height="612"/>
<g>
	<path class="st1" d="M316.8,309.6c2.5,1.7,5.1,1.8,6.1,1.7c1.3-0.1,2.3-1,2.2-2.2c-0.1-1.2-1-1.8-2.2-2.2c-3.4-1.2-6.4-2.9-6.4-6.6
		c0-3.6,2.5-6.4,6.1-6.6c1.1-0.1,2.6-0.1,5.4,0.9l-0.5,4.2c-2.4-1-3.7-0.9-4.4-0.9c-1.5,0.1-2.2,1.2-2.1,2.4
		c0.1,1.2,1.2,1.7,2.4,2.2c3.3,1.2,6.2,3.2,6.2,6.6c0,3.6-2.5,6.3-6.5,6.5c-1.2,0.1-3.9-0.1-6.8-1.6L316.8,309.6z"/>
	<path class="st1" d="M339.4,316l-8.9-22h5l2.9,7.2l1.6,4.5l1.5-4.3l2.9-7.3h5l-8.9,22H339.4z"/>
	<path class="st1" d="M348.9,311.2h4.1c1.2,0,2.2-1,2.2-2.2v-15h4.4v15c0,4.4-2.2,6.5-6.4,6.5h-4.2V311.2z"/>
	<path class="st1" d="M365.1,315.5V294h10.8v4.3h-6.5v4.3h5.7v4.3h-5.7v4.3h6.8v4.3H365.1z"/>
	<path class="st1" d="M383.5,315.5v-17.2h-5.4V294h15v4.3h-5.4v17.2H383.5z"/>
	<path class="st1" d="M395.4,309.6c2.5,1.7,5.1,1.8,6.1,1.7c1.3-0.1,2.3-1,2.2-2.2c-0.1-1.2-1-1.8-2.2-2.2c-3.4-1.2-6.4-2.9-6.4-6.6
		c0-3.6,2.5-6.4,6.1-6.6c1.1-0.1,2.6-0.1,5.4,0.9l-0.5,4.2c-2.4-1-3.7-0.9-4.4-0.9c-1.5,0.1-2.2,1.2-2.1,2.4
		c0.1,1.2,1.2,1.7,2.4,2.2c3.3,1.2,6.2,3.2,6.2,6.6c0,3.6-2.5,6.3-6.5,6.5c-1.2,0.1-3.9-0.1-6.8-1.6L395.4,309.6z"/>
	<path class="st1" d="M412.5,294h4.3c0,2.9,0,5.7,0,8.6l5.4-8.6h5l-7,10.6l7.6,10.9h-5.3l-5.7-8.4c0,2.8,0,5.7,0,8.4h-4.3V294z"/>
	<path class="st1" d="M430.8,315.5V294h4.3v21.5H430.8z"/>
	<path class="st1" d="M323.7,349.3h-6.4v-21.5h6.4C338,327.8,338,349.3,323.7,349.3z M321.6,332.1V345h2.1c8.4,0,8.4-12.9,0-12.9
		H321.6z"/>
	<path class="st1" d="M344.9,327.1h0.5l9.1,22.3h-4.8l-0.9-2.3h-7.1l-0.8,2.3h-4.9L344.9,327.1z M347.1,343l-2-5.6l-2,5.6H347.1z"/>
	<path class="st1" d="M361.7,349.3h-4.3v-22h1.1l10.9,12.6v-12.2h4.3v21.9h-1.1l-10.9-12.2V349.3z"/>
	<path class="st1" d="M316.8,377.3c2.5,1.7,5.1,1.8,6.1,1.7c1.3-0.1,2.3-1,2.2-2.2c-0.1-1.2-1-1.8-2.2-2.2c-3.4-1.2-6.4-2.9-6.4-6.6
		s2.5-6.4,6.1-6.6c1.1-0.1,2.6-0.1,5.4,0.9l-0.5,4.2c-2.4-1-3.7-0.9-4.4-0.9c-1.5,0.1-2.2,1.2-2.1,2.4c0.1,1.2,1.2,1.7,2.4,2.2
		c3.3,1.2,6.2,3.2,6.2,6.6c0,3.6-2.5,6.3-6.5,6.5c-1.2,0.1-3.9-0.1-6.8-1.6L316.8,377.3z"/>
	<path class="st1" d="M336.1,383.2V366h-5.4v-4.3h15v4.3h-5.4v17.2H336.1z"/>
	<path class="st1" d="M354.5,360.9h0.5l9.1,22.3h-4.8l-0.9-2.3h-7.1l-0.8,2.3h-4.9L354.5,360.9z M356.7,376.8l-2-5.6l-2,5.6H356.7z"
		/>
	<path class="st1" d="M368.8,383.2V366h-5.4v-4.3h15v4.3h-5.4v17.2H368.8z"/>
	<path class="st1" d="M381.6,383.2v-21.5h4.3v21.5H381.6z"/>
	<path class="st1" d="M391.1,377.3c2.5,1.7,5.1,1.8,6.1,1.7c1.3-0.1,2.3-1,2.2-2.2c-0.1-1.2-1-1.8-2.2-2.2c-3.4-1.2-6.4-2.9-6.4-6.6
		s2.5-6.4,6.1-6.6c1.1-0.1,2.6-0.1,5.4,0.9l-0.5,4.2c-2.4-1-3.7-0.9-4.4-0.9c-1.5,0.1-2.2,1.2-2.1,2.4c0.1,1.2,1.2,1.7,2.4,2.2
		c3.3,1.2,6.2,3.2,6.2,6.6c0,3.6-2.5,6.3-6.5,6.5c-1.2,0.1-3.9-0.1-6.8-1.6L391.1,377.3z"/>
	<path class="st1" d="M410.3,383.2V366H405v-4.3h15v4.3h-5.4v17.2H410.3z"/>
	<path class="st1" d="M423.1,383.2v-21.5h4.3v21.5H423.1z"/>
	<path class="st1" d="M432.9,361.7h4.3c0,2.9,0,5.7,0,8.6l5.4-8.6h5l-7,10.6l7.6,10.9h-5.3l-5.7-8.4c0,2.8,0,5.7,0,8.4h-4.3V361.7z"
		/>
	<path class="st1" d="M451.1,383.2v-21.5h10.8v4.3h-6.5v4.3h5.7v4.3h-5.7v4.3h6.8v4.3H451.1z"/>
	<path class="st2" d="M321.3,402.8c0-0.8-0.7-1.4-1.5-1.5c-1.3-0.1-2.9,0.8-3.4,1.2l-0.7-2.9c1.1-0.8,2.9-1.4,4.4-1.3
		c4.3,0.2,5.8,4,3.3,7.5l-2.9,4.5h4.4v3H315l5.5-8.8C321.3,403.4,321.3,402.8,321.3,402.8z"/>
	<path class="st2" d="M327.2,405.8c0-4.2,1.4-7.6,5.1-7.6c3.7,0,5.1,3.4,5.1,7.6s-1.4,7.6-5.1,7.6
		C328.6,413.4,327.2,410,327.2,405.8z M334.5,405.8c0-2.6-0.6-4.8-2.2-4.8c-1.6,0-2.2,2.2-2.2,4.8c0,2.7,0.6,4.8,2.2,4.8
		C334,410.7,334.5,408.5,334.5,405.8z"/>
	<path class="st2" d="M341.2,413.4c-2.2,0-2.2-3.3,0-3.3C343.5,410.1,343.4,413.4,341.2,413.4z"/>
	<path class="st2" d="M344.5,398.5h5.4v14.8h-2.9v-11.8h-2.4V398.5z"/>
	<path class="st2" d="M353.2,405.8c0-4.2,1.4-7.6,5.1-7.6c3.7,0,5.1,3.4,5.1,7.6s-1.4,7.6-5.1,7.6
		C354.6,413.4,353.2,410,353.2,405.8z M360.5,405.8c0-2.6-0.6-4.8-2.2-4.8c-1.6,0-2.2,2.2-2.2,4.8c0,2.7,0.6,4.8,2.2,4.8
		C359.9,410.7,360.5,408.5,360.5,405.8z"/>
	<path class="st2" d="M367.1,413.4c-2.2,0-2.2-3.3,0-3.3C369.4,410.1,369.4,413.4,367.1,413.4z"/>
	<path class="st2" d="M377.2,402.8c0-0.8-0.7-1.4-1.5-1.5c-1.3-0.1-2.9,0.8-3.4,1.2l-0.7-2.9c1.1-0.8,2.9-1.4,4.4-1.3
		c4.3,0.2,5.8,4,3.3,7.5l-2.9,4.5h4.4v3h-9.8l5.5-8.8C377.2,403.4,377.2,402.8,377.2,402.8z"/>
	<path class="st2" d="M383.2,405.8c0-4.2,1.4-7.6,5.1-7.6c3.7,0,5.1,3.4,5.1,7.6s-1.4,7.6-5.1,7.6
		C384.6,413.4,383.2,410,383.2,405.8z M390.5,405.8c0-2.6-0.6-4.8-2.2-4.8c-1.6,0-2.2,2.2-2.2,4.8c0,2.7,0.6,4.8,2.2,4.8
		C389.9,410.7,390.5,408.5,390.5,405.8z"/>
	<path class="st2" d="M395.2,398.5h5.4v14.8h-2.9v-11.8h-2.4V398.5z"/>
	<path class="st2" d="M412.8,408.9c0,2.5-1.7,4.3-4.4,4.5c-0.8,0-2.8,0-4.7-0.7l0.3-2.9c4.6,1.6,5.9,0.3,5.9-0.9
		c0-1.7-1.1-2.3-5.6-2.6v-7.8h7.5v2.8h-4.5v2.6C410.9,404.2,412.8,405.5,412.8,408.9z"/>
	<path class="st1" d="M316.4,431.1h2.7c0,1.8,0,3.6,0,5.4l3.4-5.4h3.1l-4.4,6.6l4.7,6.8h-3.3l-3.6-5.3c0,1.7,0,3.5,0,5.3h-2.7V431.1
		z"/>
	<path class="st1" d="M331.8,444.8l-5.6-13.7h3.1l1.8,4.5l1,2.8l1-2.7l1.8-4.6h3.1l-5.6,13.7H331.8z"/>
	<path class="st1" d="M343.7,430.6h0.3l5.7,13.9h-3l-0.5-1.4h-4.5l-0.5,1.4h-3L343.7,430.6z M345.1,440.5l-1.2-3.5l-1.3,3.5H345.1z"
		/>
	<path class="st1" d="M354.8,431.1v10.8h4.3v2.7h-7v-13.4H354.8z"/>
	<path class="st1" d="M361.9,444.5v-13.4h2.7v13.4H361.9z"/>
	<path class="st1" d="M370.3,444.5v-10.8H367v-2.7h9.4v2.7H373v10.8H370.3z"/>
	<path class="st1" d="M378.8,444.5v-13.4h6.7v2.7h-4v2.7h3.5v2.7h-3.5v2.7h4.3v2.7H378.8z"/>
	<path class="st1" d="M390.9,444.5v-10.8h-3.3v-2.7h9.4v2.7h-3.3v10.8H390.9z"/>
	<path class="st1" d="M402.1,444.5h-2.7v-13.7h0.7l6.8,7.9v-7.6h2.7v13.7h-0.7l-6.8-7.6V444.5z"/>
	<path class="st1" d="M413.7,444.5v-13.4h2.7v13.4H413.7z"/>
	<path class="st1" d="M419.2,441.8h2.6c0.8,0,1.4-0.6,1.4-1.4v-9.4h2.7v9.4c0,2.7-1.4,4-4,4h-2.7V441.8z"/>
	<path class="st1" d="M429.8,444.5v-13.4h2.7v13.4H429.8z"/>
	<path class="st1" d="M448,430.9h0.8v13.6h-2.7l0-7.5l-3.4,3.6l-3.4-3.6v7.5h-2.7v-13.6h0.9l5.3,5.9L448,430.9z"/>
	<path class="st1" d="M458.4,444.5v-13.4h5.3c5.2,0,5.2,8.3,0,8.3h-2.6v5.1H458.4z M463.5,436.8c1.8,0,1.8-3,0-3h-2.4v3H463.5z"/>
	<path class="st1" d="M476.5,430.8c9.2,0,9.2,13.9,0,13.9S467.2,430.8,476.5,430.8z M476.5,433.6c-5.4,0-5.4,8.3,0,8.3
		S481.8,433.6,476.5,433.6z"/>
	<path class="st1" d="M490.7,444.5h-4v-13.4h4C499.7,431.1,499.7,444.5,490.7,444.5z M489.4,433.8v8.1h1.3c5.2,0,5.2-8.1,0-8.1
		H489.4z"/>
	<path class="st1" d="M504.6,430.6h0.3l5.7,13.9h-3l-0.5-1.4h-4.5l-0.5,1.4h-3L504.6,430.6z M505.9,440.5l-1.2-3.5l-1.3,3.5H505.9z"
		/>
	<path class="st1" d="M518.8,433.6c-5.3,0-5.3,8.2,0,8.2c1.2,0,2.1-0.3,2.6-0.6l0.4,2.8c-0.8,0.3-2,0.6-3,0.6
		c-9.1,0-9.1-13.6,0-13.6c0.9,0,1.8,0.2,2.7,0.5l-0.3,2.8C520.7,433.9,520,433.6,518.8,433.6z"/>
	<path class="st1" d="M524.9,444.5v-13.4h2.7v13.4H524.9z"/>
	<path class="st1" d="M543.1,430.9h0.8v13.6h-2.7l0-7.5l-3.4,3.6l-3.4-3.6v7.5h-2.7v-13.6h0.9l5.3,5.9L543.1,430.9z"/>
	<path class="st1" d="M552,430.6h0.3l5.7,13.9h-3l-0.5-1.4h-4.5l-0.5,1.4h-3L552,430.6z M553.4,440.5l-1.2-3.5l-1.3,3.5H553.4z"/>
	<path class="st1" d="M562.1,444.6c-2,0-2-3,0-3C564.1,441.6,564.1,444.6,562.1,444.6z"/>
	<path class="st1" d="M320.4,468.2h-4v-13.4h4C329.3,454.8,329.3,468.2,320.4,468.2z M319.1,457.5v8.1h1.3c5.2,0,5.2-8.1,0-8.1
		H319.1z"/>
	<path class="st1" d="M336.6,454.6c9.2,0,9.2,13.9,0,13.9S327.4,454.6,336.6,454.6z M336.6,457.3c-5.4,0-5.4,8.3,0,8.3
		S342,457.3,336.6,457.3z"/>
	<path class="st1" d="M352.6,454.8h5.3c2.4,0,3.9,1.7,3.8,4.1c0,1-0.4,2.1-1.2,2.7c0.9,0.6,1.4,1.6,1.4,2.7c0,2.3-1.8,4-4,4h-5.3
		V454.8z M355.3,460.2h1.6h0.8c0.8,0,1.2-0.6,1.2-1.4c0-0.8-0.5-1.4-1.2-1.4h-2.4V460.2z M355.3,465.6h1.6h0.8
		c0.8,0,1.4-0.6,1.4-1.4s-0.6-1.3-1.4-1.3h-2.4V465.6z"/>
	<path class="st1" d="M371.6,454.6c9.2,0,9.2,13.9,0,13.9S362.3,454.6,371.6,454.6z M371.6,457.3c-5.4,0-5.4,8.3,0,8.3
		S376.9,457.3,371.6,457.3z"/>
	<path class="st1" d="M384.5,454.8v10.8h4.3v2.7h-7v-13.4H384.5z"/>
	<path class="st1" d="M390.2,465.6h2.6c0.8,0,1.4-0.6,1.4-1.4v-9.4h2.7v9.4c0,2.7-1.4,4-4,4h-2.7V465.6z"/>
	<path class="st1" d="M400.9,468.2v-13.4h6.7v2.7h-4v2.7h3.5v2.7h-3.5v2.7h4.3v2.7H400.9z"/>
	<path class="st1" d="M417.3,468.3c-8.9,0-9.3-13.3,0-13.6c1.6-0.1,2.9,0.4,3.1,0.5l-0.3,2.7c-0.5-0.2-1.4-0.5-2.8-0.5
		c-5.4,0.2-5.2,8.2,0,8.2c0.2,0,0.5,0,0.8-0.1v-4h2.7v5.9C419.8,468,418.6,468.3,417.3,468.3z"/>
	<path class="st1" d="M429.1,468.2c1.6-3.6,3.2-7.2,4.9-10.8h-4.1v-2.6h8.1c-1.6,3.6-3.2,7.2-4.8,10.7h5v2.7H429.1z M437.7,451.5
		l-2.7,2.4h-1.8l-2.7-2.4h2.9l0.7,0.8l0.7-0.8H437.7z"/>
	<path class="st1" d="M441.3,468.2v-13.4h2.7v13.4H441.3z"/>
	<path class="st1" d="M451.7,468.5l-5.6-13.7h3.1l1.8,4.5l1,2.8l1-2.7l1.8-4.6h3.1l-5.6,13.7H451.7z"/>
	<path class="st1" d="M466.1,454.6c9.2,0,9.2,13.9,0,13.9S456.9,454.6,466.1,454.6z M466.1,457.3c-5.4,0-5.4,8.3,0,8.3
		S471.5,457.3,466.1,457.3z"/>
	<path class="st1" d="M477.9,468.2v-10.8h-3.3v-2.7h9.4v2.7h-3.3v10.8H477.9z"/>
	<path class="st1" d="M490,454.3h0.3l5.7,13.9h-3l-0.5-1.4h-4.5l-0.5,1.4h-3L490,454.3z M491.3,464.3l-1.2-3.5l-1.3,3.5H491.3z"/>
	<path class="st1" d="M500,468.4c-2,0-2-3,0-3C502.1,465.4,502,468.4,500,468.4z"/>
</g>
<g>
	<path class="st3" d="M196.4,362.1c-8.1,0-16.3-1.1-24.2-3.2c-1.4-0.4-2.7-0.8-4.1-1.2c-21.9-7-40.2-21.9-51.7-41.9
		c-12.2-21.3-15.4-46.2-9-69.9c6.4-23.7,21.7-43.5,43.1-55.8c14-8,29.7-12.2,45.6-12.2c8.1,0,16.3,1.1,24.3,3.3
		c23.7,6.4,43.5,21.7,55.8,43.1c10.4,18.1,14.3,38.5,11.2,59.1l-0.1,0.6h-9l0.1-0.8c3.1-19-0.4-37.8-9.9-54.5
		c-11.1-19.3-29-33.1-50.4-38.9c-7.2-1.9-14.6-2.9-21.9-2.9c-14.4,0-28.6,3.8-41.3,11.1c-19.3,11.1-33.1,29-38.9,50.4
		c-5.8,21.5-2.9,43.9,8.1,63.2c11,19.3,29,33.1,50.4,38.9c8.1,2.2,16.6,3.1,25.1,2.8l0.4-0.1c6.7-0.3,13.6-1.5,20.3-3.5l0.2,0l0.2,0
		c5.2,1,10.6,1.5,16.3,1.5l3,0l-2.7,1.3c-4.4,2.2-8.9,4-13.5,5.4l-0.2,0.1c-0.2,0.1-0.4,0.2-0.5,0.2
		C214.5,360.8,205.5,362.1,196.4,362.1z"/>
</g>
<path class="st1" d="M228.6,267c-1.1-7.6-8.3-13-16.2-11.9c-7.9,1.1-13.3,8.3-12.2,15.8c1.1,7.7,8.2,13,16.1,11.9
	C224.2,281.7,229.7,274.7,228.6,267z M215.3,275.8c-3.9,0.5-7.3-2-7.8-5.9c-0.5-3.8,2-7.4,5.9-7.9c3.9-0.5,7.3,2.2,7.8,6
	C221.8,271.9,219.2,275.3,215.3,275.8z"/>
<path class="st1" d="M266,300.8c-1.1-7.6-8.3-13-16.2-11.9c-7.9,1.1-13.3,8.3-12.2,15.8c1.1,7.7,8.2,13,16.1,11.9
	C261.5,315.6,267,308.5,266,300.8z M252.7,309.7c-3.9,0.5-7.3-2-7.8-5.9c-0.5-3.8,2-7.4,5.9-7.9c3.9-0.5,7.3,2.2,7.8,6
	C259.1,305.8,256.6,309.1,252.7,309.7z"/>
<g>
	<path class="st1" d="M212.8,314.2h-11.4l50.5-55.2h11.4L212.8,314.2z"/>
</g>
<path class="st1" d="M242,337.8c-1.5,0.1-3.1,0.2-4.6,0.2c-21.3,0-34.4-7.9-41.7-14.6c-10.2-9.3-16.1-22.4-16.1-35.9v-0.7h-8.9v0.7
	c0,16,6.9,31.5,19,42.5c8.4,7.7,23.6,16.9,47.7,16.9c2.7,0,5.5-0.2,8.4-0.4L242,337.8z"/>
</svg>
