<?xml version="1.0" encoding="utf-8"?>
<!-- Generator: Adobe Illustrator 19.0.0, SVG Export Plug-In . SVG Version: 6.00 Build 0)  -->
<svg version="1.1" id="Layer_1" xmlns="http://www.w3.org/2000/svg" xmlns:xlink="http://www.w3.org/1999/xlink" x="0px" y="0px"
	 viewBox="0 0 612 612" style="enable-background:new 0 0 612 612;" xml:space="preserve">
<metadata><?xpacket begin="﻿" id="W5M0MpCehiHzreSzNTczkc9d"?>
<x:xmpmeta xmlns:x="adobe:ns:meta/" x:xmptk="Adobe XMP Core 5.6-c067 79.157747, 2015/03/30-23:40:42        ">
   <rdf:RDF xmlns:rdf="http://www.w3.org/1999/02/22-rdf-syntax-ns#">
      <rdf:Description rdf:about=""/>
   </rdf:RDF>
</x:xmpmeta>
                                                                                                    
                                                                                                    
                                                                                                    
                                                                                                    
                                                                                                    
                                                                                                    
                                                                                                    
                                                                                                    
                                                                                                    
                                                                                                    
                                                                                                    
                                                                                                    
                                                                                                    
                                                                                                    
                                                                                                    
                                                                                                    
                                                                                                    
                                                                                                    
                                                                                                    
                                                                                                    
                           
<?xpacket end="w"?></metadata>
<style type="text/css">
	.st0{fill:#FFFFFF;stroke:#000000;stroke-miterlimit:10;}
	.st1{fill:#0083BF;}
	.st2{fill:#59AFE1;}
	.st3{fill:#74C1EC;}
</style>
<rect class="st0" width="612" height="612"/>
<g>
	<g>
		<path class="st1" d="M332.3,304.9c2.4,1.7,5,1.7,5.9,1.7c1.2-0.1,2.3-1,2.1-2.1c-0.1-1.2-1-1.7-2.1-2.1c-3.2-1.2-6.2-2.8-6.2-6.3
			s2.4-6.2,5.9-6.3c1.1-0.1,2.5-0.1,5.2,0.9l-0.5,4c-2.3-0.9-3.6-0.9-4.2-0.9c-1.5,0.1-2.1,1.2-2.1,2.3c0.1,1.2,1.1,1.7,2.3,2.1
			c3.2,1.2,6,3,6,6.4c0,3.5-2.4,6.1-6.3,6.3c-1.2,0.1-3.7-0.1-6.6-1.5L332.3,304.9z"/>
		<path class="st1" d="M354.1,311.1l-8.6-21.2h4.8l2.8,6.9l1.5,4.3l1.5-4.2l2.8-7.1h4.8l-8.6,21.2H354.1z"/>
		<path class="st1" d="M363.3,306.5h4c1.2,0,2.1-0.9,2.1-2.1v-14.5h4.2v14.5c0,4.2-2.1,6.2-6.2,6.2h-4.1V306.5z"/>
		<path class="st1" d="M378.9,310.6v-20.8h10.4v4.2H383v4.2h5.5v4.1H383v4.2h6.6v4.2H378.9z"/>
		<path class="st1" d="M396.7,310.6V294h-5.2v-4.1H406v4.1h-5.2v16.6H396.7z"/>
		<path class="st1" d="M408.2,304.9c2.4,1.7,5,1.7,5.9,1.7c1.2-0.1,2.3-1,2.1-2.1c-0.1-1.2-1-1.7-2.1-2.1c-3.2-1.2-6.2-2.8-6.2-6.3
			s2.4-6.2,5.9-6.3c1.1-0.1,2.5-0.1,5.2,0.9l-0.5,4c-2.3-0.9-3.6-0.9-4.2-0.9c-1.5,0.1-2.1,1.2-2.1,2.3c0.1,1.2,1.1,1.7,2.3,2.1
			c3.2,1.2,6,3,6,6.4c0,3.5-2.4,6.1-6.3,6.3c-1.2,0.1-3.7-0.1-6.6-1.5L408.2,304.9z"/>
		<path class="st1" d="M424.7,289.9h4.2c0,2.8,0,5.5,0,8.3l5.2-8.3h4.8l-6.7,10.2l7.3,10.5h-5.1l-5.5-8.1c0,2.7,0,5.5,0,8.1h-4.2
			V289.9z"/>
		<path class="st1" d="M442.3,310.6v-20.8h4.1v20.8H442.3z"/>
		<path class="st1" d="M338.9,343.3h-6.2v-20.8h6.2C352.8,322.5,352.8,343.3,338.9,343.3z M336.9,326.7v12.5h2
			c8.1,0,8.1-12.5,0-12.5H336.9z"/>
		<path class="st1" d="M359.4,321.8h0.4l8.7,21.5h-4.7l-0.8-2.2h-6.9l-0.8,2.2h-4.7L359.4,321.8z M361.6,337.1l-1.9-5.4l-1.9,5.4
			H361.6z"/>
		<path class="st1" d="M375.6,343.3h-4.1v-21.2h1.1l10.5,12.2v-11.7h4.2v21.2h-1.1L375.6,332V343.3z"/>
		<path class="st1" d="M332.3,370.2c2.4,1.7,5,1.7,5.9,1.7c1.2-0.1,2.3-1,2.1-2.1c-0.1-1.2-1-1.7-2.1-2.1c-3.2-1.2-6.2-2.8-6.2-6.3
			s2.4-6.2,5.9-6.3c1.1-0.1,2.5-0.1,5.2,0.9l-0.5,4c-2.3-0.9-3.6-0.9-4.2-0.9c-1.5,0.1-2.1,1.2-2.1,2.3c0.1,1.2,1.1,1.7,2.3,2.1
			c3.2,1.2,6,3,6,6.4c0,3.5-2.4,6.1-6.3,6.3c-1.2,0.1-3.7-0.1-6.6-1.5L332.3,370.2z"/>
		<path class="st1" d="M350.9,375.9v-16.6h-5.2v-4.1h14.5v4.1H355v16.6H350.9z"/>
		<path class="st1" d="M368.6,354.4h0.4l8.7,21.5h-4.7l-0.8-2.2h-6.9l-0.8,2.2h-4.7L368.6,354.4z M370.8,369.8l-1.9-5.4l-1.9,5.4
			H370.8z"/>
		<path class="st1" d="M382.5,375.9v-16.6h-5.2v-4.1h14.5v4.1h-5.2v16.6H382.5z"/>
		<path class="st1" d="M394.8,375.9v-20.8h4.2v20.8H394.8z"/>
		<path class="st1" d="M404,370.2c2.4,1.7,5,1.7,5.9,1.7c1.2-0.1,2.3-1,2.1-2.1c-0.1-1.2-1-1.7-2.1-2.1c-3.2-1.2-6.2-2.8-6.2-6.3
			s2.4-6.2,5.9-6.3c1.1-0.1,2.5-0.1,5.2,0.9l-0.5,4c-2.3-0.9-3.6-0.9-4.2-0.9c-1.5,0.1-2.1,1.2-2.1,2.3c0.1,1.2,1.1,1.7,2.3,2.1
			c3.2,1.2,6,3,6,6.4c0,3.5-2.4,6.1-6.3,6.3c-1.2,0.1-3.7-0.1-6.6-1.5L404,370.2z"/>
		<path class="st1" d="M422.5,375.9v-16.6h-5.2v-4.1h14.5v4.1h-5.2v16.6H422.5z"/>
		<path class="st1" d="M434.9,375.9v-20.8h4.2v20.8H434.9z"/>
		<path class="st1" d="M444.4,355.2h4.2c0,2.8,0,5.5,0,8.3l5.2-8.3h4.8l-6.7,10.2l7.3,10.5H454l-5.5-8.1c0,2.7,0,5.5,0,8.1h-4.2
			V355.2z"/>
		<path class="st1" d="M461.9,375.9v-20.8h10.4v4.2h-6.2v4.2h5.5v4.1h-5.5v4.2h6.6v4.2H461.9z"/>
		<path class="st2" d="M336.6,394.8c0-0.8-0.6-1.4-1.5-1.4c-1.3-0.1-2.8,0.7-3.3,1.1l-0.7-2.8c1.1-0.8,2.8-1.4,4.2-1.3
			c4.2,0.2,5.6,3.9,3.2,7.2l-2.8,4.4h4.2v2.9h-9.4l5.3-8.5C336.6,395.4,336.6,394.8,336.6,394.8z"/>
		<path class="st2" d="M342.3,397.8c0-4.1,1.4-7.3,4.9-7.3c3.6,0,4.9,3.3,4.9,7.3c0,4.1-1.4,7.3-4.9,7.3
			C343.7,405.1,342.3,401.9,342.3,397.8z M349.4,397.8c0-2.6-0.5-4.7-2.2-4.7c-1.6,0-2.1,2.1-2.1,4.7c0,2.6,0.5,4.7,2.1,4.7
			C348.8,402.4,349.4,400.4,349.4,397.8z"/>
		<path class="st2" d="M355.8,405.1c-2.2,0-2.2-3.2,0-3.2C358,401.9,358,405.1,355.8,405.1z"/>
		<path class="st2" d="M359,390.7h5.2v14.2h-2.8v-11.4H359V390.7z"/>
		<path class="st2" d="M367.4,397.8c0-4.1,1.4-7.3,4.9-7.3c3.6,0,4.9,3.3,4.9,7.3c0,4.1-1.4,7.3-4.9,7.3
			C368.8,405.1,367.4,401.9,367.4,397.8z M374.4,397.8c0-2.6-0.5-4.7-2.2-4.7c-1.6,0-2.1,2.1-2.1,4.7c0,2.6,0.5,4.7,2.1,4.7
			C373.9,402.4,374.4,400.4,374.4,397.8z"/>
		<path class="st2" d="M380.9,405.1c-2.2,0-2.2-3.2,0-3.2C383.1,401.9,383,405.1,380.9,405.1z"/>
		<path class="st2" d="M390.6,394.8c0-0.8-0.6-1.4-1.5-1.4c-1.3-0.1-2.8,0.7-3.3,1.1l-0.7-2.8c1.1-0.8,2.8-1.4,4.2-1.3
			c4.2,0.2,5.6,3.9,3.2,7.2l-2.8,4.4h4.2v2.9h-9.4l5.3-8.5C390.6,395.4,390.6,394.8,390.6,394.8z"/>
		<path class="st2" d="M396.3,397.8c0-4.1,1.4-7.3,4.9-7.3c3.6,0,4.9,3.3,4.9,7.3c0,4.1-1.4,7.3-4.9,7.3
			C397.7,405.1,396.3,401.9,396.3,397.8z M403.4,397.8c0-2.6-0.5-4.7-2.2-4.7c-1.6,0-2.1,2.1-2.1,4.7c0,2.6,0.5,4.7,2.1,4.7
			C402.8,402.4,403.4,400.4,403.4,397.8z"/>
		<path class="st2" d="M407.9,390.7h5.2v14.2h-2.8v-11.4h-2.3V390.7z"/>
		<path class="st2" d="M425,400.8c0,2.4-1.6,4.2-4.3,4.3c-0.7,0-2.7,0-4.5-0.6l0.3-2.8c4.4,1.5,5.7,0.3,5.7-0.9
			c0-1.7-1.1-2.2-5.4-2.5v-7.5h7.3v2.7h-4.4v2.5C423.1,396.2,425,397.5,425,400.8z"/>
		<path class="st1" d="M331.9,422.1h5.1c2.3,0,3.7,1.7,3.7,3.9c0,1-0.4,2-1.2,2.6c0.9,0.6,1.3,1.6,1.3,2.6c0,2.2-1.7,3.9-3.8,3.9
			h-5.1V422.1z M334.5,427.3h1.6h0.7c0.7,0,1.2-0.6,1.2-1.3c0-0.7-0.5-1.3-1.2-1.3h-2.3V427.3z M334.5,432.5h1.6h0.7
			c0.7,0,1.3-0.6,1.3-1.3s-0.6-1.3-1.3-1.3h-2.3V432.5z"/>
		<path class="st1" d="M350.2,421.9c8.9,0,8.9,13.4,0,13.4C341.3,435.3,341.3,421.9,350.2,421.9z M350.2,424.6c-5.2,0-5.2,8,0,8
			S355.4,424.6,350.2,424.6z"/>
		<path class="st1" d="M362.7,422.1v10.4h4.1v2.6h-6.7v-13H362.7z"/>
		<path class="st1" d="M368.2,432.5h2.5c0.7,0,1.3-0.6,1.3-1.3v-9.1h2.6v9.1c0,2.6-1.3,3.9-3.9,3.9h-2.6V432.5z"/>
		<path class="st1" d="M378.5,435.1v-13h2.6v13H378.5z"/>
		<path class="st1" d="M390.3,435.1v-13h5.1c5,0,5,8,0,8h-2.5v5H390.3z M395.2,427.6c1.7,0,1.7-2.9,0-2.9h-2.3v2.9H395.2z"/>
		<path class="st1" d="M407.7,421.9c8.9,0,8.9,13.4,0,13.4C398.8,435.3,398.8,421.9,407.7,421.9z M407.7,424.6c-5.2,0-5.2,8,0,8
			S412.9,424.6,407.7,424.6z"/>
		<path class="st1" d="M421.5,435.1h-3.9v-13h3.9C430.1,422.1,430.1,435.1,421.5,435.1z M420.2,424.7v7.8h1.3c5,0,5-7.8,0-7.8H420.2
			z"/>
		<path class="st1" d="M434.8,421.7h0.3l5.5,13.4h-2.9l-0.5-1.4h-4.3l-0.5,1.4h-2.9L434.8,421.7z M436.2,431.3l-1.2-3.4l-1.2,3.4
			H436.2z"/>
		<path class="st1" d="M448.6,424.6c-5.1,0-5.1,7.9,0,7.9c1.1,0,2-0.3,2.5-0.6l0.3,2.7c-0.8,0.3-1.9,0.5-2.8,0.5
			c-8.8,0-8.8-13.2,0-13.2c0.9,0,1.8,0.2,2.6,0.5l-0.3,2.7C450.4,424.9,449.7,424.6,448.6,424.6z"/>
		<path class="st1" d="M454.5,435.1v-13h2.6v13H454.5z"/>
		<path class="st1" d="M461.9,435.2c-2,0-2-2.9,0-2.9C463.8,432.3,463.8,435.2,461.9,435.2z"/>
		<path class="st1" d="M331.9,445h5.1c2.3,0,3.7,1.7,3.7,3.9c0,1-0.4,2-1.2,2.6c0.9,0.6,1.3,1.6,1.3,2.6c0,2.2-1.7,3.9-3.8,3.9h-5.1
			V445z M334.5,450.3h1.6h0.7c0.7,0,1.2-0.6,1.2-1.3c0-0.7-0.5-1.3-1.2-1.3h-2.3V450.3z M334.5,455.4h1.6h0.7c0.7,0,1.3-0.6,1.3-1.3
			s-0.6-1.3-1.3-1.3h-2.3V455.4z"/>
		<path class="st1" d="M350.2,444.8c8.9,0,8.9,13.4,0,13.4C341.3,458.2,341.3,444.8,350.2,444.8z M350.2,447.5c-5.2,0-5.2,8,0,8
			S355.4,447.5,350.2,447.5z"/>
		<path class="st1" d="M362.7,445.1v10.4h4.1v2.6h-6.7v-13H362.7z"/>
		<path class="st1" d="M368.2,455.4h2.5c0.7,0,1.3-0.6,1.3-1.3v-9.1h2.6v9.1c0,2.6-1.3,3.9-3.9,3.9h-2.6V455.4z"/>
		<path class="st1" d="M378.5,458v-13h2.6v13H378.5z"/>
		<path class="st1" d="M389.2,458c1.6-3.5,3.1-7,4.7-10.5h-4v-2.5h7.9c-1.6,3.5-3.1,6.9-4.7,10.4h4.8v2.6H389.2z M397.5,441.9
			l-2.6,2.3h-1.7l-2.6-2.3h2.8l0.7,0.8l0.7-0.8H397.5z"/>
		<path class="st1" d="M401,458v-13h2.6v13H401z"/>
		<path class="st1" d="M411,458.3l-5.4-13.2h3l1.7,4.3l0.9,2.7l0.9-2.6l1.7-4.4h3l-5.4,13.2H411z"/>
		<path class="st1" d="M424.9,444.8c8.9,0,8.9,13.4,0,13.4C416,458.2,416,444.8,424.9,444.8z M424.9,447.5c-5.2,0-5.2,8,0,8
			S430.1,447.5,424.9,447.5z"/>
		<path class="st1" d="M436.3,458v-10.4H433v-2.6h9.1v2.6h-3.2V458H436.3z"/>
		<path class="st1" d="M444.5,458v-13h2.6v13H444.5z"/>
		<path class="st1" d="M451.9,458.2c-2,0-2-2.9,0-2.9C453.9,455.2,453.8,458.2,451.9,458.2z"/>
	</g>
</g>
<g id="XMLID_25_">
	<path id="XMLID_26_" class="st3" d="M216.1,355.6c-7.9,0-15.7-1.1-23.3-3.1c-1.3-0.4-2.6-0.8-4-1.2c-21.1-6.8-38.8-21.1-49.9-40.4
		c-11.8-20.6-14.9-44.6-8.7-67.5c6.2-22.9,21-42,41.6-53.8c13.5-7.7,28.7-11.8,44-11.8c7.9,0,15.7,1.1,23.4,3.1
		c22.9,6.2,42,21,53.8,41.6c10,17.5,13.8,37.2,10.8,57l-0.1,0.6h-8.7l0.1-0.8c3-18.3-0.4-36.5-9.6-52.6c-10.7-18.6-28-32-48.7-37.6
		c-6.9-1.9-14.1-2.8-21.2-2.8c-13.9,0-27.6,3.7-39.8,10.7c-18.6,10.7-32,27.9-37.6,48.7c-5.6,20.7-2.8,42.4,7.8,61
		c10.7,18.6,27.9,32,48.7,37.6c7.8,2.1,16.1,3,24.3,2.7l0.4-0.1c6.5-0.3,13.1-1.4,19.6-3.4l0.2,0l0.2,0c5,1,10.3,1.5,15.7,1.5l2.9,0
		l-2.6,1.3c-4.2,2.1-8.6,3.8-13,5.2l-0.2,0.1c-0.2,0.1-0.3,0.2-0.5,0.2C233.5,354.3,224.8,355.6,216.1,355.6z"/>
</g>
<path id="XMLID_22_" class="st1" d="M247.2,263.8c-1-7.3-8-12.5-15.6-11.5c-7.6,1.1-12.8,8-11.8,15.3c1,7.4,7.9,12.5,15.5,11.5
	C242.9,278,248.2,271.2,247.2,263.8z M234.4,272.3c-3.8,0.5-7-1.9-7.5-5.7c-0.5-3.7,1.9-7.1,5.7-7.6c3.8-0.5,7,2.1,7.6,5.8
	C240.6,268.5,238.1,271.8,234.4,272.3z"/>
<path id="XMLID_16_" class="st1" d="M283.2,296.4c-1-7.3-8-12.5-15.6-11.5c-7.6,1.1-12.8,8-11.8,15.3c1,7.4,7.9,12.5,15.5,11.5
	C278.9,310.7,284.3,303.9,283.2,296.4z M270.4,305c-3.8,0.5-7-1.9-7.5-5.7c-0.5-3.7,1.9-7.1,5.7-7.6c3.8-0.5,7,2.1,7.6,5.8
	C276.6,301.2,274.2,304.5,270.4,305z"/>
<g id="XMLID_11_">
	<path id="XMLID_12_" class="st1" d="M231.9,309.4h-11l48.8-53.3h11L231.9,309.4z"/>
</g>
<path id="XMLID_1_" class="st1" d="M260.1,332.2c-1.5,0.1-3,0.2-4.4,0.2c-20.6,0-33.2-7.6-40.3-14.1c-9.9-9-15.5-21.7-15.5-34.7
	v-0.7h-8.5v0.7c0,15.4,6.7,30.4,18.3,41c8.2,7.4,22.7,16.3,46,16.3c2.6,0,5.3-0.1,8.1-0.4L260.1,332.2z"/>
</svg>
