<?xml version="1.0" encoding="UTF-8" standalone="no"?>
<!-- Created with Inkscape (http://www.inkscape.org/) -->
<svg
   xmlns:dc="http://purl.org/dc/elements/1.1/"
   xmlns:cc="http://creativecommons.org/ns#"
   xmlns:rdf="http://www.w3.org/1999/02/22-rdf-syntax-ns#"
   xmlns:svg="http://www.w3.org/2000/svg"
   xmlns="http://www.w3.org/2000/svg"
   xmlns:sodipodi="http://sodipodi.sourceforge.net/DTD/sodipodi-0.dtd"
   xmlns:inkscape="http://www.inkscape.org/namespaces/inkscape"
   width="142"
   height="142"
   id="svg3371"
   sodipodi:version="0.32"
   inkscape:version="0.46"
   version="1.0"
   sodipodi:docname="CensusStatDepartment.svg"
   inkscape:output_extension="org.inkscape.output.svg.inkscape">
  <defs
     id="defs3373">
    <inkscape:perspective
       sodipodi:type="inkscape:persp3d"
       inkscape:vp_x="0 : 526.18109 : 1"
       inkscape:vp_y="0 : 1000 : 0"
       inkscape:vp_z="744.09448 : 526.18109 : 1"
       inkscape:persp3d-origin="372.04724 : 350.78739 : 1"
       id="perspective3379" />
  </defs>
  <sodipodi:namedview
     id="base"
     pagecolor="#ffffff"
     bordercolor="#666666"
     borderopacity="1.0"
     gridtolerance="10000"
     guidetolerance="10"
     objecttolerance="10"
     inkscape:pageopacity="0.0"
     inkscape:pageshadow="2"
     inkscape:zoom="0.90896159"
     inkscape:cx="351.5"
     inkscape:cy="351.5"
     inkscape:document-units="px"
     inkscape:current-layer="layer1"
     showgrid="false"
     inkscape:window-width="1440"
     inkscape:window-height="844"
     inkscape:window-x="0"
     inkscape:window-y="22" />
  <metadata
     id="metadata3376">
    <rdf:RDF>
      <cc:Work
         rdf:about="">
        <dc:format>image/svg+xml</dc:format>
        <dc:type
           rdf:resource="http://purl.org/dc/dcmitype/StillImage" />
      </cc:Work>
    </rdf:RDF>
  </metadata>
  <g
     inkscape:label="Layer 1"
     inkscape:groupmode="layer"
     id="layer1"
     transform="translate(-25.187508,-743.86672)">
    <g
       style="display:inline"
       id="g3359"
       transform="matrix(0.1996257,0,0,0.1996257,21.287931,721.21976)">
      <rect
         y="274.50284"
         x="179.6642"
         height="389.21982"
         width="391.07175"
         id="rect2481"
         style="opacity:1;fill:#ce0000;fill-opacity:1;stroke:none;stroke-width:2;stroke-linecap:round;stroke-linejoin:miter;stroke-miterlimit:4;stroke-dasharray:none;stroke-opacity:1;display:inline" />
      <path
         id="path2474"
         d="M 370.66882,118.47634 C 179.19568,120.9044 24.543828,277.05552 24.543828,469.10134 C 24.543828,662.6593 181.64211,819.75754 375.20007,819.75763 C 568.75804,819.75763 725.85629,662.65928 725.85632,469.10134 C 725.85632,275.54336 568.75805,118.47636 375.20007,118.47634 C 373.6879,118.47634 372.17648,118.45722 370.66882,118.47634 z M 375.20007,134.82009 C 559.72534,134.82008 709.48132,284.57608 709.48132,469.10134 C 709.48135,653.62658 559.72533,803.38263 375.20007,803.38263 C 190.67481,803.38263 40.918828,653.6266 40.918828,469.10134 C 40.918829,284.57605 190.67481,134.82009 375.20007,134.82009 z"
         style="opacity:1;fill:#ce0000;fill-opacity:1;stroke:none;stroke-width:2;stroke-linecap:round;stroke-linejoin:miter;stroke-miterlimit:4;stroke-dasharray:none;stroke-opacity:1;display:inline" />
      <path
         id="path2553"
         d="M 375.20007,190.94086 C 221.64408,190.94086 97.012577,315.57239 97.012575,469.12836 C 97.012575,622.68435 221.64408,747.28461 375.20007,747.28461 C 528.75606,747.28461 653.38758,622.68436 653.38757,469.12836 C 653.38757,315.57237 528.75606,190.94086 375.20007,190.94086 z M 375.20007,200.28461 C 523.59451,200.28461 644.01257,320.73392 644.01257,469.12836 C 644.0126,617.5228 523.59451,737.94086 375.20007,737.94086 C 226.80563,737.94086 106.35632,617.5228 106.35632,469.12836 C 106.35632,320.73392 226.80563,200.28461 375.20007,200.28461 z"
         style="opacity:1;fill:#ce0000;fill-opacity:1;stroke:none;stroke-width:2;stroke-linecap:round;stroke-linejoin:miter;stroke-miterlimit:4;stroke-dasharray:none;stroke-opacity:1;display:inline" />
      <rect
         y="326.51981"
         x="197.53198"
         height="11.688283"
         width="354.15497"
         id="rect2559"
         style="opacity:1;fill:#ffffff;fill-opacity:1;stroke:none;stroke-width:2;stroke-linecap:round;stroke-linejoin:miter;stroke-miterlimit:4;stroke-dasharray:none;stroke-opacity:1" />
      <rect
         style="opacity:1;fill:#ffffff;fill-opacity:1;stroke:none;stroke-width:2;stroke-linecap:round;stroke-linejoin:miter;stroke-miterlimit:4;stroke-dasharray:none;stroke-opacity:1"
         id="rect2561"
         width="354.15497"
         height="11.688283"
         x="197.53198"
         y="380.28592" />
      <rect
         style="opacity:1;fill:#ffffff;fill-opacity:1;stroke:none;stroke-width:2;stroke-linecap:round;stroke-linejoin:miter;stroke-miterlimit:4;stroke-dasharray:none;stroke-opacity:1"
         id="rect2563"
         width="354.15497"
         height="11.688283"
         x="197.53198"
         y="434.05206" />
      <rect
         y="487.81818"
         x="197.53198"
         height="11.688283"
         width="354.15497"
         id="rect2565"
         style="opacity:1;fill:#ffffff;fill-opacity:1;stroke:none;stroke-width:2;stroke-linecap:round;stroke-linejoin:miter;stroke-miterlimit:4;stroke-dasharray:none;stroke-opacity:1" />
      <rect
         y="541.58423"
         x="197.53198"
         height="11.688283"
         width="354.15497"
         id="rect2567"
         style="opacity:1;fill:#ffffff;fill-opacity:1;stroke:none;stroke-width:2;stroke-linecap:round;stroke-linejoin:miter;stroke-miterlimit:4;stroke-dasharray:none;stroke-opacity:1" />
      <rect
         style="opacity:1;fill:#ffffff;fill-opacity:1;stroke:none;stroke-width:2;stroke-linecap:round;stroke-linejoin:miter;stroke-miterlimit:4;stroke-dasharray:none;stroke-opacity:1"
         id="rect2569"
         width="354.15497"
         height="11.688283"
         x="197.53198"
         y="595.35034" />
      <path
         sodipodi:nodetypes="ccccccc"
         id="path2571"
         d="M 519.69052,290.57193 C 425.79966,299.69914 377.32015,383.32464 366.31844,464.85838 C 346.58294,573.43719 299.682,617.30468 223.08666,621.39931 C 201.05617,626.75246 208.60988,650.6972 229.42435,644.84876 C 321.8958,631.09028 369.09845,586.27842 390.40166,470.5623 C 403.39728,397.54255 427.23713,331.9782 520.32429,314.02138 C 542.87429,312.38483 539.1383,287.15642 519.69052,290.57193 z"
         style="fill:#ffffff;fill-rule:evenodd;stroke:none;stroke-width:1px;stroke-linecap:butt;stroke-linejoin:miter;stroke-opacity:1" />
    </g>
  </g>
</svg>
