<?xml version="1.0" encoding="utf-8"?>
<!-- Generator: Adobe Illustrator 19.0.0, SVG Export Plug-In . SVG Version: 6.00 Build 0)  -->
<svg version="1.1" id="Layer_1" xmlns="http://www.w3.org/2000/svg" xmlns:xlink="http://www.w3.org/1999/xlink" x="0px" y="0px"
	 viewBox="0 0 612 612" style="enable-background:new 0 0 612 612;" xml:space="preserve">
<metadata><?xpacket begin="﻿" id="W5M0MpCehiHzreSzNTczkc9d"?>
<x:xmpmeta xmlns:x="adobe:ns:meta/" x:xmptk="Adobe XMP Core 5.6-c067 79.157747, 2015/03/30-23:40:42        ">
   <rdf:RDF xmlns:rdf="http://www.w3.org/1999/02/22-rdf-syntax-ns#">
      <rdf:Description rdf:about=""/>
   </rdf:RDF>
</x:xmpmeta>
                                                                                                    
                                                                                                    
                                                                                                    
                                                                                                    
                                                                                                    
                                                                                                    
                                                                                                    
                                                                                                    
                                                                                                    
                                                                                                    
                                                                                                    
                                                                                                    
                                                                                                    
                                                                                                    
                                                                                                    
                                                                                                    
                                                                                                    
                                                                                                    
                                                                                                    
                                                                                                    
                           
<?xpacket end="w"?></metadata>
<style type="text/css">
	.st0{fill:#FFFFFF;}
	.st1{fill:#0083BF;}
	.st2{fill:#59AFE1;}
	.st3{fill:#74C1EC;}
</style>
<rect class="st0" width="612" height="612"/>
<g id="XMLID_1_">
	<g>
		<path id="XMLID_1475_" class="st1" d="M313.6,284.2V299h2.2v7.9h-4.3v-4.2h-11.3v4.2h-4.3V299c0.7-0.1,1.4-0.4,2.1-1.1
			c1.4-1.4,1.6-3.4,1.6-6.1v-7.6H313.6z M304.3,292.2c0,0.9-0.1,2.5-0.4,3.9c-0.3,1.2-0.8,2-1.6,2.8h6.6v-11.1h-4.5V292.2z"/>
		<path id="XMLID_1473_" class="st1" d="M322.5,293.8l-6.7-9.6h5.8l3.5,5.1l3.4-5.1h5.8l-6.9,9.6v8.9h-4.8V293.8z"/>
		<path id="XMLID_1471_" class="st1" d="M340.9,291.1h6.9v-6.9h4.8v18.5h-4.8v-7.5h-6.9v7.5H336v-18.5h4.8V291.1z"/>
		<path id="XMLID_1469_" class="st1" d="M361.1,284.2v11.7l7-11.7h4.9v18.5h-4.8V291l-7,11.7h-4.9v-18.5H361.1z"/>
		<path id="XMLID_1467_" class="st1" d="M387.2,288.2h-5.7v3.1h5.4v4.1h-5.4v3.2h5.7v4.1h-10.5v-18.5h10.5V288.2z"/>
		<path id="XMLID_1465_" class="st1" d="M399.8,294.6l-5,8.1h-6.1l6.8-9.5l-6.2-9.1h5.6l4.9,8.1v-8.1h4.8v8.1l4.9-8.1h5.6l-6.2,9.1
			l6.8,9.5h-6.1l-5-8.1v8.1h-4.8V294.6z"/>
		<path id="XMLID_1463_" class="st1" d="M422.9,293.8l-6.7-9.6h5.8l3.5,5.1l3.4-5.1h5.8l-6.9,9.6v8.9h-4.8V293.8z"/>
		<path id="XMLID_1461_" class="st1" d="M436,285.7c0.9-0.6,1.7-1,2.6-1.3c1.4-0.5,2.6-0.7,3.9-0.7c2.7,0,4.1,0.9,5,1.7
			c1,1,1.4,2.1,1.4,3.5c0,1-0.2,1.8-0.8,2.7c-0.5,0.7-1.1,1.2-1.7,1.5v0.1c0.7,0.2,1.5,0.6,2.1,1.2c0.6,0.6,1.3,1.6,1.3,3.1
			c0,1.8-0.9,3.4-2.3,4.4c-1.6,1.1-3.8,1.3-5.2,1.3c-1.6,0-3-0.2-4.5-0.8c-1.1-0.5-2.2-1.2-3.1-1.9l2.4-3.5c0.6,0.7,1.3,1.2,1.9,1.6
			c0.9,0.4,1.6,0.6,2.5,0.6c0.7,0,1.5-0.1,2-0.5c0.6-0.3,0.9-0.9,0.9-1.5c0-0.6-0.3-1.1-0.8-1.4c-0.3-0.2-1-0.4-2.3-0.4h-1.8v-3.7
			h1.2c0.9,0,2.3-0.1,2.9-0.8c0.3-0.3,0.5-0.8,0.5-1.2c0-0.5-0.3-1-0.7-1.3c-0.5-0.3-1.1-0.5-1.8-0.5c-0.4,0-1.2,0-2.2,0.5
			c-0.5,0.2-1.1,0.7-1.5,1L436,285.7z"/>
		<path id="XMLID_1459_" class="st1" d="M457.2,284.2v18.5h-4.8v-18.5H457.2z"/>
		<path id="XMLID_1457_" class="st1" d="M477.1,284.2v18.5h-4.8v-14.5h-4.7v6.8c0,1.8-0.1,4.6-1.9,6.4c-1,0.9-2.4,1.6-4.3,1.6
			c-1,0-1.8-0.2-2.2-0.2v-4.4c0.3,0.1,0.7,0.2,1.1,0.2c0.8,0,1.3-0.2,1.6-0.6c0.3-0.3,1-1.1,1-3.5v-10.2H477.1z"/>
		<path id="XMLID_1455_" class="st1" d="M485.6,284.2v18.5h-4.8v-18.5H485.6z"/>
		<path id="XMLID_1453_" class="st1" d="M494,291.8l5.9-7.6h5.9l-7.4,8.8l8,9.8h-6.2l-6.3-8v8h-4.8v-18.5h4.8V291.8z"/>
		<path id="XMLID_1451_" class="st1" d="M311,333.5c-1.9,0.7-3,0.9-4.2,0.9c-3.2,0-5.6-1.3-7.2-2.8c-1.8-1.8-2.8-4.3-2.8-6.8
			c0-2.6,1.1-5.1,2.8-6.8c1.6-1.7,4.1-2.9,7-2.9c0.9,0,2.4,0.1,4.3,0.9v5.8c-1.6-1.9-3.4-2-4.2-2c-1.4,0-2.4,0.4-3.3,1.2
			c-1.1,1.1-1.6,2.5-1.6,3.8c0,1.3,0.5,2.7,1.5,3.6c0.8,0.8,2.1,1.3,3.4,1.3c0.7,0,2.5-0.1,4.2-1.9V333.5z"/>
		<path id="XMLID_1449_" class="st1" d="M321.3,319.5V334h-4.8v-14.5h-3.9v-4.1h12.7v4.1H321.3z"/>
		<path id="XMLID_1446_" class="st1" d="M337.5,330.9h-6.7l-1.3,3.1h-5.1l7.1-18.5h5.3l7,18.5h-5.1L337.5,330.9z M336.2,327.2
			l-2.1-6l-2,6H336.2z"/>
		<path id="XMLID_1444_" class="st1" d="M351.7,319.5V334h-4.8v-14.5h-3.9v-4.1h12.7v4.1H351.7z"/>
		<path id="XMLID_1442_" class="st1" d="M362.5,315.4v11.7l7-11.7h4.9V334h-4.8v-11.7l-6.9,11.7h-4.9v-18.5H362.5z"/>
		<path id="XMLID_1440_" class="st1" d="M391.1,333.5c-1.9,0.7-3,0.9-4.2,0.9c-3.2,0-5.6-1.3-7.2-2.8c-1.8-1.8-2.8-4.3-2.8-6.8
			c0-2.6,1.1-5.1,2.8-6.8c1.6-1.7,4.1-2.9,7-2.9c0.9,0,2.4,0.1,4.3,0.9v5.8c-1.6-1.9-3.4-2-4.2-2c-1.4,0-2.4,0.4-3.3,1.2
			c-1.1,1.1-1.6,2.5-1.6,3.8c0,1.3,0.5,2.7,1.5,3.6c0.8,0.8,2.1,1.3,3.4,1.3c0.7,0,2.5-0.1,4.2-1.9V333.5z"/>
		<path id="XMLID_1438_" class="st1" d="M401.5,319.5V334h-4.8v-14.5h-3.9v-4.1h12.7v4.1H401.5z"/>
		<path id="XMLID_1436_" class="st1" d="M412.3,315.4v11.7l7-11.7h4.9V334h-4.8v-11.7l-7,11.7h-4.9v-18.5H412.3z"/>
		<path id="XMLID_1434_" class="st1" d="M432.7,323.1l5.9-7.6h5.9l-7.4,8.8l8,9.8h-6.2l-6.3-8v8h-4.8v-18.5h4.8V323.1z"/>
		<path id="XMLID_1431_" class="st1" d="M459.3,330.9h-6.7l-1.2,3.1h-5.1l7.1-18.5h5.3l7,18.5h-5.1L459.3,330.9z M458.1,327.2
			l-2.1-6l-2,6H458.1z"/>
		<path id="XMLID_1429_" class="st1" d="M479.1,323.1l5.9-7.6h5.9l-7.4,8.8l8,9.8h-6.2l-6.3-8v8h-4.8v-18.5h4.8V323.1z"/>
		<path id="XMLID_1427_" class="st1" d="M498.8,325.1l-6.7-9.6h5.8l3.5,5.1l3.4-5.1h5.8l-6.9,9.6v8.9h-4.8V325.1z"/>
		<path id="XMLID_1425_" class="st1" d="M517.1,322.3h7v-6.9h4.8V334h-4.8v-7.5h-7v7.5h-4.8v-18.5h4.8V322.3z"/>
		<path id="XMLID_1423_" class="st1" d="M537.4,315.4V334h-4.8v-18.5H537.4z"/>
		<path id="XMLID_1421_" class="st2" d="M301.6,352.1c0-0.8-0.6-1.3-1.4-1.4c-1.2-0.1-2.7,0.7-3.2,1.1l-0.7-2.6
			c1.1-0.8,2.7-1.3,4-1.2c4,0.2,5.3,3.7,3.1,6.9l-2.7,4.2h4.1v2.8h-9l5.1-8.1C301.7,352.6,301.6,352.1,301.6,352.1z"/>
		<path id="XMLID_1418_" class="st2" d="M307.1,354.9c0-3.9,1.3-7,4.7-7c3.4,0,4.7,3.1,4.7,7c0,3.9-1.3,7-4.7,7
			C308.4,362,307.1,358.8,307.1,354.9z M313.9,354.9c0-2.4-0.5-4.5-2.1-4.5c-1.5,0-2,2-2,4.5c0,2.5,0.5,4.5,2,4.5
			C313.4,359.4,313.9,357.4,313.9,354.9z"/>
		<path id="XMLID_1416_" class="st2" d="M320.1,361.9c-2.1,0-2.1-3.1,0-3.1C322.2,358.8,322.1,361.9,320.1,361.9z"/>
		<path id="XMLID_1414_" class="st2" d="M323.1,348.1h4.9v13.6h-2.7v-10.9h-2.2V348.1z"/>
		<path id="XMLID_1411_" class="st2" d="M331.1,354.9c0-3.9,1.3-7,4.7-7c3.4,0,4.7,3.1,4.7,7c0,3.9-1.3,7-4.7,7
			C332.4,362,331.1,358.8,331.1,354.9z M337.8,354.9c0-2.4-0.5-4.5-2.1-4.5c-1.5,0-2,2-2,4.5c0,2.5,0.5,4.5,2,4.5
			C337.3,359.4,337.8,357.4,337.8,354.9z"/>
		<path id="XMLID_1409_" class="st2" d="M344,361.9c-2.1,0-2.1-3.1,0-3.1C346.1,358.8,346.1,361.9,344,361.9z"/>
		<path id="XMLID_1407_" class="st2" d="M353.3,352.1c0-0.8-0.6-1.3-1.4-1.4c-1.2-0.1-2.7,0.7-3.2,1.1l-0.7-2.6
			c1.1-0.8,2.7-1.3,4-1.2c4,0.2,5.3,3.7,3.1,6.9l-2.7,4.2h4.1v2.8h-9l5.1-8.1C353.4,352.6,353.3,352.1,353.3,352.1z"/>
		<path id="XMLID_1404_" class="st2" d="M358.8,354.9c0-3.9,1.3-7,4.7-7c3.4,0,4.7,3.1,4.7,7c0,3.9-1.3,7-4.7,7
			C360.1,362,358.8,358.8,358.8,354.9z M365.6,354.9c0-2.4-0.5-4.5-2.1-4.5c-1.5,0-2,2-2,4.5c0,2.5,0.5,4.5,2,4.5
			C365.1,359.4,365.6,357.4,365.6,354.9z"/>
		<path id="XMLID_1402_" class="st2" d="M370,348.1h4.9v13.6h-2.7v-10.9H370V348.1z"/>
		<path id="XMLID_1400_" class="st2" d="M386.3,357.8c0,2.3-1.5,4-4.1,4.1c-0.7,0-2.6,0-4.4-0.6l0.2-2.7c4.2,1.5,5.5,0.3,5.4-0.9
			c0-1.6-1-2.1-5.2-2.4v-7.2h7v2.6h-4.2v2.4C384.5,353.4,386.3,354.6,386.3,357.8z"/>
		<path id="XMLID_1398_" class="st1" d="M305.3,390.4c-1.2,0.4-1.9,0.6-2.6,0.6c-2,0-3.5-0.8-4.5-1.7c-1.1-1.1-1.8-2.7-1.8-4.2
			c0-1.7,0.7-3.2,1.8-4.3c1-1,2.6-1.8,4.4-1.8c0.6,0,1.5,0.1,2.7,0.6v3.6c-1-1.2-2.1-1.3-2.6-1.3c-0.9,0-1.5,0.3-2.1,0.8
			c-0.7,0.7-1,1.6-1,2.4c0,0.8,0.3,1.7,0.9,2.3c0.5,0.5,1.3,0.8,2.2,0.8c0.5,0,1.6-0.1,2.6-1.2V390.4z"/>
		<path id="XMLID_1395_" class="st1" d="M315,388.7h-4.2l-0.8,1.9h-3.2l4.4-11.6h3.3l4.4,11.6h-3.2L315,388.7z M314.2,386.4
			l-1.3-3.8l-1.3,3.8H314.2z"/>
		<path id="XMLID_1393_" class="st1" d="M328,390.7v-9h-4.2v9h-3v-11.6H331v11.6H328z"/>
		<path id="XMLID_1390_" class="st1" d="M341,388.7h-4.2l-0.8,1.9h-3.2l4.4-11.6h3.3l4.4,11.6h-3.2L341,388.7z M340.2,386.4
			l-1.3-3.8l-1.3,3.8H340.2z"/>
		<path id="XMLID_1388_" class="st1" d="M357.5,379.1v11.6h-3v-9.1h-2.9v4.2c0,1.1-0.1,2.9-1.2,4c-0.6,0.6-1.5,1-2.7,1
			c-0.6,0-1.1-0.1-1.4-0.2v-2.8c0.2,0.1,0.5,0.1,0.7,0.1c0.5,0,0.8-0.2,1-0.3c0.2-0.2,0.6-0.7,0.6-2.2v-6.4H357.5z"/>
		<path id="XMLID_1384_" class="st1" d="M360.3,379.1h3v4.5h1.5c0.9,0,2.4,0.1,3.5,1.1c0.8,0.8,0.9,1.8,0.9,2.5
			c0,0.8-0.1,1.7-0.9,2.4c-1,1-2.5,1.1-3.7,1.1h-4.3V379.1z M364.5,388.3c0.3,0,1,0,1.3-0.3c0.2-0.2,0.3-0.5,0.3-0.9
			c0-0.4-0.2-0.7-0.3-0.9c-0.3-0.3-0.9-0.3-1.3-0.3h-1.2v2.4H364.5z M370.2,379.1h3v11.6h-3V379.1z"/>
		<path id="XMLID_1381_" class="st1" d="M390.7,379.1v9.3h1.4v4.9h-2.7v-2.6h-7.1v2.6h-2.7v-4.9c0.5-0.1,0.9-0.2,1.3-0.7
			c0.9-0.9,1-2.2,1-3.8v-4.8H390.7z M384.8,384.1c0,0.6,0,1.6-0.3,2.4c-0.2,0.7-0.5,1.3-1,1.8h4.1v-6.9h-2.8V384.1z"/>
		<path id="XMLID_1379_" class="st1" d="M400.8,381.6h-3.6v1.9h3.4v2.6h-3.4v2h3.6v2.6h-6.6v-11.6h6.6V381.6z"/>
		<path id="XMLID_1376_" class="st1" d="M406.3,386.8v3.8h-3v-11.6h4.8c1,0,2.1,0.2,2.9,1c0.9,0.9,1.1,1.8,1.1,2.8
			c0,0.9-0.1,2-1,2.9c-0.9,0.9-2,1-2.9,1H406.3z M406.3,384.4h1c0.3,0,0.9,0,1.3-0.4c0.4-0.3,0.4-0.8,0.4-1.1c0-0.3,0-0.7-0.3-1
			c-0.3-0.4-0.9-0.4-1.3-0.4h-1V384.4z"/>
		<path id="XMLID_1374_" class="st1" d="M420.7,381.6h-3.6v1.9h3.4v2.6h-3.4v2h3.6v2.6h-6.6v-11.6h6.6V381.6z"/>
		<path id="XMLID_1372_" class="st1" d="M426.2,383.9l3.7-4.8h3.7l-4.6,5.5l5,6.1h-3.9l-3.9-5v5h-3v-11.6h3V383.9z"/>
		<path id="XMLID_1370_" class="st1" d="M440.6,381.6v9h-3v-9h-2.5v-2.6h8v2.6H440.6z"/>
		<path id="XMLID_1368_" class="st1" d="M451.5,381.6h-3.6v1.9h3.4v2.6h-3.4v2h3.6v2.6h-6.6v-11.6h6.6V381.6z"/>
		<path id="XMLID_1365_" class="st1" d="M457.1,386.8v3.8h-3v-11.6h4.8c1,0,2.1,0.2,2.9,1c0.9,0.9,1.1,1.8,1.1,2.8
			c0,0.9-0.1,2-1,2.9c-0.9,0.9-2,1-2.9,1H457.1z M457.1,384.4h1c0.3,0,0.9,0,1.3-0.4c0.4-0.3,0.4-0.8,0.4-1.1c0-0.3,0-0.7-0.3-1
			c-0.3-0.4-0.9-0.4-1.3-0.4h-1V384.4z"/>
		<path id="XMLID_1363_" class="st1" d="M463.6,390.5c-0.2-0.2-0.5-0.6-0.5-1.3c0-0.6,0.3-1,0.5-1.3c0.4-0.4,0.9-0.5,1.3-0.5
			c0.4,0,0.9,0.2,1.3,0.6c0.3,0.3,0.5,0.7,0.5,1.3c0,0.6-0.2,1-0.5,1.3c-0.4,0.4-0.8,0.5-1.3,0.5C464.5,391,464,390.9,463.6,390.5z"
			/>
		<path id="XMLID_1360_" class="st1" d="M296.9,400.7h7.5v2.6H300v2h1.2c1.5,0,2.8,0.2,3.7,1.1c0.5,0.6,0.9,1.4,0.9,2.4
			c0,0.9-0.3,1.8-1,2.5c-0.9,0.9-2.3,1-3.7,1h-4.1V400.7z M301,409.9c0.3,0,1,0,1.3-0.4c0.2-0.2,0.3-0.5,0.3-0.8
			c0-0.4-0.2-0.7-0.3-0.9c-0.3-0.3-0.9-0.3-1.3-0.3h-1v2.4H301z"/>
		<path id="XMLID_1357_" class="st1" d="M315,410.3h-4.2l-0.8,1.9h-3.2l4.4-11.6h3.3l4.4,11.6h-3.2L315,410.3z M314.2,408l-1.3-3.8
			l-1.3,3.8H314.2z"/>
		<path id="XMLID_1355_" class="st1" d="M323.8,405.4l3.7-4.8h3.7l-4.6,5.5l3.1,3.6h1.6v5.1h-2.7v-2.6h-0.8l-4-5v5h-3v-11.6h3V405.4
			z"/>
		<path id="XMLID_1353_" class="st1" d="M335.9,400.7l2.2,5.2l1.9-5.2h3.2l-5.2,11.6h-3.2l1.6-3.2l-3.9-8.3H335.9z"/>
		<path id="XMLID_1350_" class="st1" d="M350.9,410.3h-4.2l-0.8,1.9h-3.2l4.4-11.6h3.3l4.4,11.6h-3.2L350.9,410.3z M350.1,408
			l-1.3-3.8l-1.3,3.8H350.1z"/>
		<path id="XMLID_1348_" class="st1" d="M360.3,403.2v9h-3v-9h-2.5v-2.6h8v2.6H360.3z"/>
		<path id="XMLID_1346_" class="st1" d="M369.6,403.2v9h-3v-9h-2.4v-2.6h8v2.6H369.6z"/>
		<path id="XMLID_1342_" class="st1" d="M373.9,400.7h3v4.5h1.5c0.9,0,2.4,0.1,3.5,1.1c0.8,0.8,0.9,1.8,0.9,2.5
			c0,0.8-0.1,1.7-0.9,2.4c-1,1-2.5,1.1-3.7,1.1h-4.3V400.7z M378.1,409.9c0.3,0,1,0,1.3-0.3c0.2-0.2,0.3-0.5,0.3-0.9
			c0-0.4-0.2-0.7-0.3-0.9c-0.3-0.3-0.9-0.3-1.3-0.3h-1.2v2.4H378.1z M383.7,400.7h3v11.6h-3V400.7z"/>
		<path id="XMLID_1338_" class="st1" d="M404.8,410.8c-1.2,1.1-2.9,1.7-4.6,1.7s-3.4-0.6-4.6-1.7c-1.2-1.2-1.8-2.8-1.8-4.3
			c0-1.5,0.6-3.2,1.8-4.3c1.2-1.1,2.8-1.7,4.6-1.7s3.4,0.6,4.6,1.7c1.2,1.2,1.8,2.8,1.8,4.3C406.6,408,406,409.6,404.8,410.8z
			 M397.1,407.4c0.2,0.6,0.5,1.1,0.9,1.5c0.6,0.5,1.4,0.8,2.2,0.8c0.8,0,1.5-0.3,2.1-0.7c0.7-0.5,0.9-1.1,1-1.6H397.1z M403.1,405.2
			c-0.2-0.6-0.6-1.1-1-1.4c-0.5-0.4-1.2-0.7-2-0.7c-0.8,0-1.4,0.2-1.9,0.6c-0.6,0.4-0.9,0.9-1,1.4H403.1z"/>
		<path id="XMLID_1336_" class="st1" d="M408,412.2l2-11.6h3l2.3,6.2l2.5-6.2h3l1.7,11.6h-3l-0.9-6.7l-2.8,6.7h-1.2l-2.7-6.7l-1,6.7
			H408z"/>
		<path id="XMLID_1334_" class="st1" d="M427.8,400.7v11.6h-3v-11.6H427.8z"/>
		<path id="XMLID_1331_" class="st1" d="M433.7,408.4v3.8h-3v-11.6h4.8c1,0,2.1,0.2,2.9,1c0.9,0.9,1.1,1.8,1.1,2.8
			c0,0.9-0.1,2-1,2.9c-0.9,0.9-2,1-2.9,1H433.7z M433.7,406h1c0.3,0,0.9,0,1.3-0.4c0.4-0.3,0.4-0.8,0.4-1.1c0-0.3,0-0.7-0.3-1
			c-0.3-0.4-0.9-0.4-1.3-0.4h-1V406z"/>
		<path id="XMLID_1329_" class="st1" d="M449.2,405.4l3.7-4.8h3.7l-4.6,5.5l5,6.1h-3.9l-3.9-5v5h-3v-11.6h3V405.4z"/>
		<path id="XMLID_1327_" class="st1" d="M465.4,403.2h-3.6v1.9h3.4v2.6h-3.4v2h3.6v2.6h-6.6v-11.6h6.6V403.2z"/>
		<path id="XMLID_1325_" class="st1" d="M475.1,412.2v-9H471v9h-3v-11.6h10.2v11.6H475.1z"/>
		<path id="XMLID_1323_" class="st1" d="M484,400.7v11.6h-3v-11.6H484z"/>
		<path id="XMLID_1321_" class="st1" d="M497.1,400.7v11.6h-3v-9.1h-2.9v4.2c0,1.1-0.1,2.9-1.2,4c-0.6,0.6-1.5,1-2.7,1
			c-0.6,0-1.1-0.1-1.4-0.2v-2.8c0.2,0.1,0.5,0.1,0.7,0.1c0.5,0,0.8-0.2,1-0.3c0.2-0.2,0.6-0.7,0.6-2.2v-6.4H497.1z"/>
		<path id="XMLID_1319_" class="st1" d="M502.9,400.7v11.6h-3v-11.6H502.9z"/>
		<path id="XMLID_1317_" class="st1" d="M506,412c-0.2-0.2-0.5-0.6-0.5-1.3c0-0.6,0.3-1,0.5-1.3c0.4-0.4,0.9-0.5,1.3-0.5
			c0.4,0,0.9,0.2,1.3,0.6c0.3,0.3,0.5,0.7,0.5,1.3c0,0.6-0.2,1-0.5,1.3c-0.4,0.4-0.8,0.5-1.3,0.5C506.9,412.6,506.4,412.5,506,412z"
			/>
	</g>
</g>
<g id="XMLID_174_">
	<path id="XMLID_175_" class="st3" d="M186.2,345.8c-7.5,0-15-1-22.3-3c-1.3-0.3-2.5-0.7-3.8-1.1c-20.2-6.5-37.2-20.2-47.8-38.7
		c-11.3-19.7-14.3-42.7-8.3-64.6c6-21.9,20.1-40.3,39.8-51.6c12.9-7.4,27.5-11.3,42.2-11.3c7.5,0,15.1,1,22.4,3
		c21.9,6,40.3,20.1,51.6,39.8c9.6,16.7,13.2,35.6,10.4,54.6l-0.1,0.6H262l0.1-0.8c2.8-17.5-0.4-34.9-9.2-50.4
		c-10.2-17.8-26.8-30.6-46.6-36c-6.6-1.8-13.5-2.7-20.3-2.7c-13.3,0-26.5,3.5-38.1,10.2c-17.8,10.2-30.6,26.8-36,46.6
		c-5.4,19.8-2.7,40.6,7.5,58.4c10.2,17.8,26.8,30.6,46.6,36c7.5,2,15.4,2.9,23.2,2.6l0.4-0.1c6.2-0.3,12.5-1.4,18.7-3.2l0.2,0l0.2,0
		c4.8,0.9,9.8,1.4,15,1.4l2.8,0l-2.5,1.2c-4,2-8.2,3.7-12.5,5l-0.2,0.1c-0.2,0.1-0.3,0.2-0.5,0.2
		C202.9,344.6,194.6,345.8,186.2,345.8z"/>
</g>
<path id="XMLID_171_" class="st1" d="M216,257.8c-1-7-7.7-12-15-11c-7.3,1-12.3,7.6-11.3,14.6c1,7.1,7.6,12,14.9,11
	C211.9,271.5,217,264.9,216,257.8z M203.7,266c-3.6,0.5-6.7-1.9-7.2-5.5c-0.5-3.5,1.8-6.8,5.4-7.3c3.6-0.5,6.7,2,7.2,5.5
	C209.7,262.4,207.3,265.5,203.7,266z"/>
<path id="XMLID_168_" class="st1" d="M250.5,289.1c-1-7-7.7-12-15-11c-7.3,1-12.3,7.6-11.3,14.6c1,7.1,7.6,12,14.9,11
	C246.4,302.8,251.5,296.2,250.5,289.1z M238.2,297.3c-3.6,0.5-6.7-1.9-7.2-5.4c-0.5-3.5,1.8-6.8,5.4-7.3c3.6-0.5,6.7,2,7.2,5.5
	C244.2,293.7,241.8,296.8,238.2,297.3z"/>
<g id="XMLID_165_">
	<path id="XMLID_166_" class="st1" d="M201.4,301.5h-10.5l46.7-51.1h10.5L201.4,301.5z"/>
</g>
<path id="XMLID_20_" class="st1" d="M228.4,323.3c-1.4,0.1-2.8,0.1-4.2,0.1c-19.7,0-31.8-7.3-38.6-13.5
	c-9.5-8.6-14.9-20.7-14.9-33.2v-0.7h-8.2v0.7c0,14.8,6.4,29.1,17.5,39.3c7.8,7.1,21.8,15.6,44.1,15.6c2.5,0,5.1-0.1,7.7-0.4
	L228.4,323.3z"/>
</svg>
