<?xml version="1.0" encoding="utf-8"?>
<!-- Generator: Adobe Illustrator 19.0.0, SVG Export Plug-In . SVG Version: 6.00 Build 0)  -->
<svg version="1.1" id="Layer_1" xmlns="http://www.w3.org/2000/svg" xmlns:xlink="http://www.w3.org/1999/xlink" x="0px" y="0px"
	 viewBox="0 0 612 612" style="enable-background:new 0 0 612 612;" xml:space="preserve">
<metadata><?xpacket begin="﻿" id="W5M0MpCehiHzreSzNTczkc9d"?>
<x:xmpmeta xmlns:x="adobe:ns:meta/" x:xmptk="Adobe XMP Core 5.6-c067 79.157747, 2015/03/30-23:40:42        ">
   <rdf:RDF xmlns:rdf="http://www.w3.org/1999/02/22-rdf-syntax-ns#">
      <rdf:Description rdf:about=""/>
   </rdf:RDF>
</x:xmpmeta>
                                                                                                    
                                                                                                    
                                                                                                    
                                                                                                    
                                                                                                    
                                                                                                    
                                                                                                    
                                                                                                    
                                                                                                    
                                                                                                    
                                                                                                    
                                                                                                    
                                                                                                    
                                                                                                    
                                                                                                    
                                                                                                    
                                                                                                    
                                                                                                    
                                                                                                    
                                                                                                    
                           
<?xpacket end="w"?></metadata>
<style type="text/css">
	.st0{fill:#0083BF;}
	.st1{fill:#FFFFFF;}
	.st2{fill:#90CEF1;}
	.st3{fill:#74C1EC;}
</style>
<rect y="0" class="st0" width="612" height="612"/>
<g id="XMLID_1_">
	<path id="XMLID_186_" class="st1" d="M308.5,286v14.8h2.2v7.9h-4.3v-4.2h-11.3v4.2h-4.3v-7.9c0.7-0.1,1.4-0.4,2.1-1.1
		c1.4-1.4,1.6-3.4,1.6-6.1V286H308.5z M299.2,294.1c0,0.9-0.1,2.5-0.4,3.9c-0.3,1.2-0.8,2-1.6,2.8h6.6v-11.1h-4.5V294.1z"/>
	<path id="XMLID_184_" class="st1" d="M317.4,295.6l-6.7-9.6h5.8l3.5,5.1l3.4-5.1h5.8l-6.9,9.6v8.9h-4.8V295.6z"/>
	<path id="XMLID_182_" class="st1" d="M335.8,292.9h6.9V286h4.8v18.5h-4.8V297h-6.9v7.5H331V286h4.8V292.9z"/>
	<path id="XMLID_180_" class="st1" d="M356,286v11.7l7-11.7h4.9v18.5h-4.8v-11.7l-7,11.7h-4.9V286H356z"/>
	<path id="XMLID_178_" class="st1" d="M382.1,290.1h-5.7v3.1h5.4v4.1h-5.4v3.2h5.7v4.1h-10.5V286h10.5V290.1z"/>
	<path id="XMLID_15_" class="st1" d="M394.7,296.4l-5,8.1h-6.1l6.8-9.5l-6.2-9.1h5.6l4.9,8.1V286h4.8v8.1l4.9-8.1h5.6l-6.2,9.1
		l6.8,9.5h-6.1l-5-8.1v8.1h-4.8V296.4z"/>
	<path id="XMLID_16_" class="st1" d="M417.8,295.6l-6.7-9.6h5.8l3.5,5.1l3.4-5.1h5.8l-6.9,9.6v8.9h-4.8V295.6z"/>
	<path id="XMLID_18_" class="st1" d="M430.9,287.5c0.9-0.6,1.7-1,2.6-1.3c1.4-0.5,2.6-0.7,3.9-0.7c2.7,0,4.1,0.9,5,1.7
		c1,1,1.4,2.1,1.4,3.5c0,1-0.2,1.8-0.8,2.7c-0.5,0.7-1.1,1.2-1.7,1.5v0.1c0.7,0.2,1.5,0.6,2.1,1.2c0.6,0.6,1.3,1.6,1.3,3.1
		c0,1.8-0.9,3.4-2.3,4.4c-1.6,1.1-3.8,1.3-5.2,1.3c-1.6,0-3-0.2-4.5-0.8c-1.1-0.5-2.2-1.2-3.1-1.9l2.4-3.5c0.6,0.7,1.3,1.2,1.9,1.6
		c0.9,0.4,1.6,0.6,2.5,0.6c0.7,0,1.5-0.1,2-0.5c0.6-0.3,0.9-0.9,0.9-1.5c0-0.6-0.3-1.1-0.8-1.4c-0.3-0.2-1-0.4-2.3-0.4h-1.8v-3.7
		h1.2c0.9,0,2.3-0.1,2.9-0.8c0.3-0.3,0.5-0.8,0.5-1.2c0-0.5-0.3-1-0.7-1.3c-0.5-0.3-1.1-0.5-1.8-0.5c-0.4,0-1.2,0-2.2,0.5
		c-0.5,0.2-1.1,0.7-1.5,1L430.9,287.5z"/>
	<path id="XMLID_13_" class="st1" d="M452.1,286v18.5h-4.8V286H452.1z"/>
	<path id="XMLID_11_" class="st1" d="M472,286v18.5h-4.8V290h-4.7v6.8c0,1.8-0.1,4.6-1.9,6.4c-1,0.9-2.4,1.6-4.3,1.6
		c-1,0-1.8-0.2-2.2-0.2v-4.4c0.3,0.1,0.7,0.2,1.1,0.2c0.8,0,1.3-0.2,1.6-0.6c0.3-0.3,1-1.1,1-3.5V286H472z"/>
	<path id="XMLID_5_" class="st1" d="M480.5,286v18.5h-4.8V286H480.5z"/>
	<path id="XMLID_27_" class="st1" d="M488.9,293.6l5.9-7.6h5.9l-7.4,8.8l8,9.8h-6.2l-6.3-8v8h-4.8V286h4.8V293.6z"/>
	<path id="XMLID_29_" class="st1" d="M305.9,335.3c-1.9,0.7-3,0.9-4.2,0.9c-3.2,0-5.6-1.3-7.2-2.8c-1.8-1.8-2.8-4.3-2.8-6.8
		c0-2.6,1.1-5.1,2.8-6.8c1.6-1.7,4.1-2.9,7-2.9c0.9,0,2.4,0.1,4.3,0.9v5.8c-1.6-1.9-3.4-2-4.2-2c-1.4,0-2.4,0.4-3.3,1.2
		c-1.1,1.1-1.6,2.5-1.6,3.8c0,1.3,0.5,2.7,1.5,3.6c0.8,0.8,2.1,1.3,3.4,1.3c0.7,0,2.5-0.1,4.2-1.9V335.3z"/>
	<path id="XMLID_31_" class="st1" d="M316.2,321.3v14.5h-4.8v-14.5h-3.9v-4.1h12.7v4.1H316.2z"/>
	<path id="XMLID_33_" class="st1" d="M332.4,332.7h-6.7l-1.3,3.1h-5.1l7.1-18.5h5.3l7,18.5h-5.1L332.4,332.7z M331.1,329l-2.1-6
		l-2,6H331.1z"/>
	<path id="XMLID_36_" class="st1" d="M346.6,321.3v14.5h-4.8v-14.5h-3.9v-4.1h12.7v4.1H346.6z"/>
	<path id="XMLID_38_" class="st1" d="M357.4,317.2v11.7l7-11.7h4.9v18.5h-4.8v-11.7l-6.9,11.7h-4.9v-18.5H357.4z"/>
	<path id="XMLID_40_" class="st1" d="M386.1,335.3c-1.9,0.7-3,0.9-4.2,0.9c-3.2,0-5.6-1.3-7.2-2.8c-1.8-1.8-2.8-4.3-2.8-6.8
		c0-2.6,1.1-5.1,2.8-6.8c1.6-1.7,4.1-2.9,7-2.9c0.9,0,2.4,0.1,4.3,0.9v5.8c-1.6-1.9-3.4-2-4.2-2c-1.4,0-2.4,0.4-3.3,1.2
		c-1.1,1.1-1.6,2.5-1.6,3.8c0,1.3,0.5,2.7,1.5,3.6c0.8,0.8,2.1,1.3,3.4,1.3c0.7,0,2.5-0.1,4.2-1.9V335.3z"/>
	<path id="XMLID_42_" class="st1" d="M396.4,321.3v14.5h-4.8v-14.5h-3.9v-4.1h12.7v4.1H396.4z"/>
	<path id="XMLID_44_" class="st1" d="M407.3,317.2v11.7l7-11.7h4.9v18.5h-4.8v-11.7l-7,11.7h-4.9v-18.5H407.3z"/>
	<path id="XMLID_46_" class="st1" d="M427.6,324.9l5.9-7.6h5.9l-7.4,8.8l8,9.8h-6.2l-6.3-8v8h-4.8v-18.5h4.8V324.9z"/>
	<path id="XMLID_48_" class="st1" d="M454.3,332.7h-6.7l-1.2,3.1h-5.1l7.1-18.5h5.3l7,18.5h-5.1L454.3,332.7z M453,329l-2.1-6l-2,6
		H453z"/>
	<path id="XMLID_51_" class="st1" d="M474,324.9l5.9-7.6h5.9l-7.4,8.8l8,9.8h-6.2l-6.3-8v8h-4.8v-18.5h4.8V324.9z"/>
	<path id="XMLID_53_" class="st1" d="M493.7,326.9l-6.7-9.6h5.8l3.5,5.1l3.4-5.1h5.8l-6.9,9.6v8.9h-4.8V326.9z"/>
	<path id="XMLID_55_" class="st1" d="M512,324.2h7v-6.9h4.8v18.5H519v-7.5h-7v7.5h-4.8v-18.5h4.8V324.2z"/>
	<path id="XMLID_57_" class="st1" d="M532.3,317.2v18.5h-4.8v-18.5H532.3z"/>
	<path id="XMLID_59_" class="st2" d="M296.5,353.9c0-0.8-0.6-1.3-1.4-1.4c-1.2-0.1-2.7,0.7-3.2,1.1l-0.7-2.6c1.1-0.8,2.7-1.3,4-1.2
		c4,0.2,5.3,3.7,3.1,6.9l-2.7,4.2h4.1v2.8h-9l5.1-8.1C296.6,354.4,296.5,353.9,296.5,353.9z"/>
	<path id="XMLID_61_" class="st2" d="M302,356.7c0-3.9,1.3-7,4.7-7c3.4,0,4.7,3.1,4.7,7c0,3.9-1.3,7-4.7,7
		C303.4,363.8,302,360.6,302,356.7z M308.8,356.7c0-2.4-0.5-4.5-2.1-4.5c-1.5,0-2,2-2,4.5c0,2.5,0.5,4.5,2,4.5
		C308.3,361.2,308.8,359.2,308.8,356.7z"/>
	<path id="XMLID_64_" class="st2" d="M315,363.7c-2.1,0-2.1-3.1,0-3.1C317.1,360.6,317,363.7,315,363.7z"/>
	<path id="XMLID_66_" class="st2" d="M318,349.9h4.9v13.6h-2.7v-10.9H318V349.9z"/>
	<path id="XMLID_68_" class="st2" d="M326,356.7c0-3.9,1.3-7,4.7-7c3.4,0,4.7,3.1,4.7,7c0,3.9-1.3,7-4.7,7
		C327.3,363.8,326,360.6,326,356.7z M332.8,356.7c0-2.4-0.5-4.5-2.1-4.5c-1.5,0-2,2-2,4.5c0,2.5,0.5,4.5,2,4.5
		C332.2,361.2,332.8,359.2,332.8,356.7z"/>
	<path id="XMLID_71_" class="st2" d="M338.9,363.7c-2.1,0-2.1-3.1,0-3.1C341,360.6,341,363.7,338.9,363.7z"/>
	<path id="XMLID_73_" class="st2" d="M348.2,353.9c0-0.8-0.6-1.3-1.4-1.4c-1.2-0.1-2.7,0.7-3.2,1.1L343,351c1.1-0.8,2.7-1.3,4-1.2
		c4,0.2,5.3,3.7,3.1,6.9l-2.7,4.2h4.1v2.8h-9l5.1-8.1C348.3,354.4,348.2,353.9,348.2,353.9z"/>
	<path id="XMLID_75_" class="st2" d="M353.7,356.7c0-3.9,1.3-7,4.7-7c3.4,0,4.7,3.1,4.7,7c0,3.9-1.3,7-4.7,7
		C355.1,363.8,353.7,360.6,353.7,356.7z M360.5,356.7c0-2.4-0.5-4.5-2.1-4.5c-1.5,0-2,2-2,4.5c0,2.5,0.5,4.5,2,4.5
		C360,361.2,360.5,359.2,360.5,356.7z"/>
	<path id="XMLID_78_" class="st2" d="M364.9,349.9h4.9v13.6h-2.7v-10.9h-2.2V349.9z"/>
	<path id="XMLID_80_" class="st2" d="M381.2,359.6c0,2.3-1.5,4-4.1,4.1c-0.7,0-2.6,0-4.4-0.6l0.2-2.7c4.2,1.5,5.5,0.3,5.4-0.9
		c0-1.6-1-2.1-5.2-2.4v-7.2h7v2.6H376v2.4C379.4,355.2,381.2,356.4,381.2,359.6z"/>
	<path id="XMLID_82_" class="st1" d="M300.2,392.2c-1.2,0.4-1.9,0.6-2.6,0.6c-2,0-3.5-0.8-4.5-1.7c-1.1-1.1-1.8-2.7-1.8-4.2
		c0-1.7,0.7-3.2,1.8-4.3c1-1,2.6-1.8,4.4-1.8c0.6,0,1.5,0.1,2.7,0.6v3.6c-1-1.2-2.1-1.3-2.6-1.3c-0.9,0-1.5,0.3-2.1,0.8
		c-0.7,0.7-1,1.6-1,2.4c0,0.8,0.3,1.7,0.9,2.3c0.5,0.5,1.3,0.8,2.2,0.8c0.5,0,1.6-0.1,2.6-1.2V392.2z"/>
	<path id="XMLID_84_" class="st1" d="M309.9,390.5h-4.2l-0.8,1.9h-3.2l4.4-11.6h3.3l4.4,11.6h-3.2L309.9,390.5z M309.1,388.2
		l-1.3-3.8l-1.3,3.8H309.1z"/>
	<path id="XMLID_87_" class="st1" d="M322.9,392.5v-9h-4.2v9h-3v-11.6h10.2v11.6H322.9z"/>
	<path id="XMLID_89_" class="st1" d="M335.9,390.5h-4.2l-0.8,1.9h-3.2l4.4-11.6h3.3l4.4,11.6h-3.2L335.9,390.5z M335.1,388.2
		l-1.3-3.8l-1.3,3.8H335.1z"/>
	<path id="XMLID_92_" class="st1" d="M352.4,380.9v11.6h-3v-9.1h-2.9v4.2c0,1.1-0.1,2.9-1.2,4c-0.6,0.6-1.5,1-2.7,1
		c-0.6,0-1.1-0.1-1.4-0.2v-2.8c0.2,0.1,0.5,0.1,0.7,0.1c0.5,0,0.8-0.2,1-0.3c0.2-0.2,0.6-0.7,0.6-2.2v-6.4H352.4z"/>
	<path id="XMLID_94_" class="st1" d="M355.2,380.9h3v4.5h1.5c0.9,0,2.4,0.1,3.5,1.1c0.8,0.8,0.9,1.8,0.9,2.5c0,0.8-0.1,1.7-0.9,2.4
		c-1,1-2.5,1.1-3.7,1.1h-4.3V380.9z M359.4,390.1c0.3,0,1,0,1.3-0.3c0.2-0.2,0.3-0.5,0.3-0.9c0-0.4-0.2-0.7-0.3-0.9
		c-0.3-0.3-0.9-0.3-1.3-0.3h-1.2v2.4H359.4z M365.1,380.9h3v11.6h-3V380.9z"/>
	<path id="XMLID_98_" class="st1" d="M385.6,380.9v9.3h1.4v4.9h-2.7v-2.6h-7.1v2.6h-2.7v-4.9c0.5-0.1,0.9-0.2,1.3-0.7
		c0.9-0.9,1-2.2,1-3.8v-4.8H385.6z M379.8,385.9c0,0.6,0,1.6-0.3,2.4c-0.2,0.7-0.5,1.3-1,1.8h4.1v-6.9h-2.8V385.9z"/>
	<path id="XMLID_101_" class="st1" d="M395.7,383.4h-3.6v1.9h3.4v2.6h-3.4v2h3.6v2.6h-6.6v-11.6h6.6V383.4z"/>
	<path id="XMLID_103_" class="st1" d="M401.2,388.6v3.8h-3v-11.6h4.8c1,0,2.1,0.2,2.9,1c0.9,0.9,1.1,1.8,1.1,2.8c0,0.9-0.1,2-1,2.9
		c-0.9,0.9-2,1-2.9,1H401.2z M401.2,386.2h1c0.3,0,0.9,0,1.3-0.4c0.4-0.3,0.4-0.8,0.4-1.1c0-0.3,0-0.7-0.3-1
		c-0.3-0.4-0.9-0.4-1.3-0.4h-1V386.2z"/>
	<path id="XMLID_106_" class="st1" d="M415.6,383.4H412v1.9h3.4v2.6H412v2h3.6v2.6H409v-11.6h6.6V383.4z"/>
	<path id="XMLID_108_" class="st1" d="M421.1,385.7l3.7-4.8h3.7l-4.6,5.5l5,6.1h-3.9l-3.9-5v5h-3v-11.6h3V385.7z"/>
	<path id="XMLID_110_" class="st1" d="M435.5,383.4v9h-3v-9H430v-2.6h8v2.6H435.5z"/>
	<path id="XMLID_112_" class="st1" d="M446.4,383.4h-3.6v1.9h3.4v2.6h-3.4v2h3.6v2.6h-6.6v-11.6h6.6V383.4z"/>
	<path id="XMLID_114_" class="st1" d="M452,388.6v3.8h-3v-11.6h4.8c1,0,2.1,0.2,2.9,1c0.9,0.9,1.1,1.8,1.1,2.8c0,0.9-0.1,2-1,2.9
		c-0.9,0.9-2,1-2.9,1H452z M452,386.2h1c0.3,0,0.9,0,1.3-0.4c0.4-0.3,0.4-0.8,0.4-1.1c0-0.3,0-0.7-0.3-1c-0.3-0.4-0.9-0.4-1.3-0.4
		h-1V386.2z"/>
	<path id="XMLID_117_" class="st1" d="M458.5,392.3c-0.2-0.2-0.5-0.6-0.5-1.3c0-0.6,0.3-1,0.5-1.3c0.4-0.4,0.9-0.5,1.3-0.5
		c0.4,0,0.9,0.2,1.3,0.6c0.3,0.3,0.5,0.7,0.5,1.3c0,0.6-0.2,1-0.5,1.3c-0.4,0.4-0.8,0.5-1.3,0.5
		C459.4,392.8,458.9,392.7,458.5,392.3z"/>
	<path id="XMLID_119_" class="st1" d="M291.9,402.5h7.5v2.6h-4.5v2h1.2c1.5,0,2.8,0.2,3.7,1.1c0.5,0.6,0.9,1.4,0.9,2.4
		c0,0.9-0.3,1.8-1,2.5c-0.9,0.9-2.3,1-3.7,1h-4.1V402.5z M295.9,411.7c0.3,0,1,0,1.3-0.4c0.2-0.2,0.3-0.5,0.3-0.8
		c0-0.4-0.2-0.7-0.3-0.9c-0.3-0.3-0.9-0.3-1.3-0.3h-1v2.4H295.9z"/>
	<path id="XMLID_122_" class="st1" d="M309.9,412.1h-4.2l-0.8,1.9h-3.2l4.4-11.6h3.3l4.4,11.6h-3.2L309.9,412.1z M309.1,409.8
		l-1.3-3.8l-1.3,3.8H309.1z"/>
	<path id="XMLID_125_" class="st1" d="M318.7,407.2l3.7-4.8h3.7l-4.6,5.5l3.1,3.6h1.6v5.1h-2.7v-2.6h-0.8l-4-5v5h-3v-11.6h3V407.2z"
		/>
	<path id="XMLID_127_" class="st1" d="M330.8,402.5l2.2,5.2l1.9-5.2h3.2l-5.2,11.6h-3.2l1.6-3.2l-3.9-8.3H330.8z"/>
	<path id="XMLID_129_" class="st1" d="M345.8,412.1h-4.2l-0.8,1.9h-3.2l4.4-11.6h3.3l4.4,11.6h-3.2L345.8,412.1z M345,409.8
		l-1.3-3.8l-1.3,3.8H345z"/>
	<path id="XMLID_132_" class="st1" d="M355.2,405v9h-3v-9h-2.5v-2.6h8v2.6H355.2z"/>
	<path id="XMLID_134_" class="st1" d="M364.5,405v9h-3v-9H359v-2.6h8v2.6H364.5z"/>
	<path id="XMLID_136_" class="st1" d="M368.8,402.5h3v4.5h1.5c0.9,0,2.4,0.1,3.5,1.1c0.8,0.8,0.9,1.8,0.9,2.5c0,0.8-0.1,1.7-0.9,2.4
		c-1,1-2.5,1.1-3.7,1.1h-4.3V402.5z M373,411.7c0.3,0,1,0,1.3-0.3c0.2-0.2,0.3-0.5,0.3-0.9c0-0.4-0.2-0.7-0.3-0.9
		c-0.3-0.3-0.9-0.3-1.3-0.3h-1.2v2.4H373z M378.6,402.5h3v11.6h-3V402.5z"/>
	<path id="XMLID_140_" class="st1" d="M399.7,412.6c-1.2,1.1-2.9,1.7-4.6,1.7s-3.4-0.6-4.6-1.7c-1.2-1.2-1.8-2.8-1.8-4.3
		c0-1.5,0.6-3.2,1.8-4.3c1.2-1.1,2.8-1.7,4.6-1.7s3.4,0.6,4.6,1.7c1.2,1.2,1.8,2.8,1.8,4.3C401.5,409.8,400.9,411.4,399.7,412.6z
		 M392,409.2c0.2,0.6,0.5,1.1,0.9,1.5c0.6,0.5,1.4,0.8,2.2,0.8c0.8,0,1.5-0.3,2.1-0.7c0.7-0.5,0.9-1.1,1-1.6H392z M398,407
		c-0.2-0.6-0.6-1.1-1-1.4c-0.5-0.4-1.2-0.7-2-0.7c-0.8,0-1.4,0.2-1.9,0.6c-0.6,0.4-0.9,0.9-1,1.4H398z"/>
	<path id="XMLID_144_" class="st1" d="M403,414.1l2-11.6h3l2.3,6.2l2.5-6.2h3l1.7,11.6h-3l-0.9-6.7l-2.8,6.7h-1.2l-2.7-6.7l-1,6.7
		H403z"/>
	<path id="XMLID_146_" class="st1" d="M422.7,402.5v11.6h-3v-11.6H422.7z"/>
	<path id="XMLID_148_" class="st1" d="M428.6,410.2v3.8h-3v-11.6h4.8c1,0,2.1,0.2,2.9,1c0.9,0.9,1.1,1.8,1.1,2.8c0,0.9-0.1,2-1,2.9
		c-0.9,0.9-2,1-2.9,1H428.6z M428.6,407.8h1c0.3,0,0.9,0,1.3-0.4c0.4-0.3,0.4-0.8,0.4-1.1c0-0.3,0-0.7-0.3-1
		c-0.3-0.4-0.9-0.4-1.3-0.4h-1V407.8z"/>
	<path id="XMLID_2_" class="st1" d="M444.1,407.2l3.7-4.8h3.7l-4.6,5.5l5,6.1H448l-3.9-5v5h-3v-11.6h3V407.2z"/>
	<path id="XMLID_153_" class="st1" d="M460.3,405h-3.6v1.9h3.4v2.6h-3.4v2h3.6v2.6h-6.6v-11.6h6.6V405z"/>
	<path id="XMLID_155_" class="st1" d="M470,414.1v-9h-4.2v9h-3v-11.6h10.2v11.6H470z"/>
	<path id="XMLID_157_" class="st1" d="M478.9,402.5v11.6h-3v-11.6H478.9z"/>
	<path id="XMLID_159_" class="st1" d="M492,402.5v11.6h-3V405H486v4.2c0,1.1-0.1,2.9-1.2,4c-0.6,0.6-1.5,1-2.7,1
		c-0.6,0-1.1-0.1-1.4-0.2v-2.8c0.2,0.1,0.5,0.1,0.7,0.1c0.5,0,0.8-0.2,1-0.3c0.2-0.2,0.6-0.7,0.6-2.2v-6.4H492z"/>
	<path id="XMLID_161_" class="st1" d="M497.8,402.5v11.6h-3v-11.6H497.8z"/>
	<path id="XMLID_163_" class="st1" d="M500.9,413.9c-0.2-0.2-0.5-0.6-0.5-1.3c0-0.6,0.3-1,0.5-1.3c0.4-0.4,0.9-0.5,1.3-0.5
		c0.4,0,0.9,0.2,1.3,0.6c0.3,0.3,0.5,0.7,0.5,1.3c0,0.6-0.2,1-0.5,1.3c-0.4,0.4-0.8,0.5-1.3,0.5
		C501.8,414.4,501.3,414.3,500.9,413.9z"/>
</g>
<g id="XMLID_174_">
	<path id="XMLID_175_" class="st3" d="M181.1,347.6c-7.5,0-15-1-22.3-3c-1.3-0.3-2.5-0.7-3.8-1.1c-20.2-6.5-37.2-20.2-47.8-38.7
		c-11.3-19.7-14.3-42.7-8.3-64.6c6-21.9,20.1-40.3,39.8-51.6c12.9-7.4,27.5-11.3,42.2-11.3c7.5,0,15.1,1,22.4,3
		c21.9,6,40.3,20.1,51.6,39.8c9.6,16.7,13.2,35.6,10.4,54.6l-0.1,0.6h-8.3l0.1-0.8c2.8-17.5-0.4-34.9-9.2-50.4
		c-10.2-17.8-26.8-30.6-46.6-36c-6.6-1.8-13.5-2.7-20.3-2.7c-13.3,0-26.5,3.5-38.1,10.2c-17.8,10.2-30.6,26.8-36,46.6
		c-5.4,19.8-2.7,40.6,7.5,58.4c10.2,17.8,26.8,30.6,46.6,36c7.5,2,15.4,2.9,23.2,2.6l0.4-0.1c6.2-0.3,12.5-1.4,18.7-3.2l0.2,0l0.2,0
		c4.8,0.9,9.8,1.4,15,1.4l2.8,0l-2.5,1.2c-4,2-8.2,3.7-12.5,5l-0.2,0.1c-0.2,0.1-0.3,0.2-0.5,0.2
		C197.8,346.4,189.5,347.6,181.1,347.6z"/>
</g>
<path id="XMLID_171_" class="st1" d="M210.9,259.6c-1-7-7.7-12-15-11c-7.3,1-12.3,7.6-11.3,14.6c1,7.1,7.6,12,14.9,11
	C206.8,273.3,211.9,266.7,210.9,259.6z M198.6,267.8c-3.6,0.5-6.7-1.9-7.2-5.5c-0.5-3.5,1.8-6.8,5.4-7.3c3.6-0.5,6.7,2,7.2,5.5
	C204.6,264.2,202.2,267.3,198.6,267.8z"/>
<path id="XMLID_168_" class="st1" d="M245.4,290.9c-1-7-7.7-12-15-11c-7.3,1-12.3,7.6-11.3,14.6c1,7.1,7.6,12,14.9,11
	C241.3,304.6,246.4,298,245.4,290.9z M233.1,299.1c-3.6,0.5-6.7-1.9-7.2-5.4c-0.5-3.5,1.8-6.8,5.4-7.3c3.6-0.5,6.7,2,7.2,5.5
	C239.1,295.5,236.7,298.6,233.1,299.1z"/>
<g id="XMLID_165_">
	<path id="XMLID_166_" class="st1" d="M196.3,303.3h-10.5l46.7-51.1H243L196.3,303.3z"/>
</g>
<path id="XMLID_20_" class="st1" d="M223.3,325.1c-1.4,0.1-2.8,0.1-4.2,0.1c-19.7,0-31.8-7.3-38.6-13.5
	c-9.5-8.6-14.9-20.7-14.9-33.2V278h-8.2v0.7c0,14.8,6.4,29.1,17.5,39.3c7.8,7.1,21.8,15.6,44.1,15.6c2.5,0,5.1-0.1,7.7-0.4
	L223.3,325.1z"/>
</svg>
