<?xml version="1.0" encoding="utf-8"?>
<!-- Generator: Adobe Illustrator 19.0.0, SVG Export Plug-In . SVG Version: 6.00 Build 0)  -->
<svg version="1.1" id="Layer_1" xmlns="http://www.w3.org/2000/svg" xmlns:xlink="http://www.w3.org/1999/xlink" x="0px" y="0px"
	 viewBox="0 0 612 612" style="enable-background:new 0 0 612 612;" xml:space="preserve">
<style type="text/css">
	.st0{fill:#0083BF;}
	.st1{fill:#FFFFFF;}
	.st2{fill:#90CEF1;}
	.st3{fill:#74C1EC;}
</style>
<rect class="st0" width="612" height="612"/>
<g>
	<g>
		<path class="st1" d="M318.4,307.7v-21.5h8.5c8.4,0,8.3,13.3,0,13.3h-4.2v8.2H318.4z M326.5,295.2c2.9,0,2.9-4.8,0-4.8h-3.8v4.8
			H326.5z"/>
		<path class="st1" d="M342.5,285.3h0.4l9.1,22.3h-4.9l-0.9-2.3h-7.1l-0.8,2.3h-4.9L342.5,285.3z M344.7,301.3l-2-5.6l-2,5.6H344.7z
			"/>
		<path class="st1" d="M359.3,307.7H355v-22h1.1l10.9,12.7v-12.2h4.3v22h-1.1l-10.9-12.2V307.7z"/>
		<path class="st1" d="M383.4,307.7H377v-21.5h6.4C397.7,286.1,397.7,307.7,383.4,307.7z M381.3,290.4v12.9h2.1
			c8.4,0,8.4-12.9,0-12.9H381.3z"/>
		<path class="st1" d="M404.8,285.3h0.4l9.1,22.3h-4.9l-0.9-2.3h-7.1l-0.8,2.3h-4.9L404.8,285.3z M407,301.3l-2-5.6l-2,5.6H407z"/>
		<path class="st1" d="M417.3,307.7v-21.5h4.3v21.5H417.3z"/>
		<path class="st1" d="M436.8,307.8c-14.2,0-14.9-21.3,0-21.8c2.6-0.1,4.6,0.7,5,0.8l-0.5,4.4c-0.8-0.4-2.2-0.8-4.5-0.8
			c-8.7,0.3-8.3,13.2,0,13.2c0.4,0,0.8-0.1,1.2-0.1v-6.5h4.4v9.5C440.7,307.3,438.8,307.8,436.8,307.8z"/>
		<path class="st1" d="M454.1,307.7h-6.4v-21.5h6.4C468.5,286.1,468.5,307.7,454.1,307.7z M452,290.4v12.9h2.1
			c8.4,0,8.4-12.9,0-12.9H452z"/>
		<path class="st1" d="M469.4,307.7v-21.5h4.3v21.5H469.4z"/>
		<path class="st1" d="M488.9,307.8c-14.2,0-14.9-21.3,0-21.8c2.6-0.1,4.6,0.7,5,0.8l-0.5,4.4c-0.8-0.4-2.2-0.8-4.5-0.8
			c-8.7,0.3-8.3,13.2,0,13.2c0.4,0,0.8-0.1,1.2-0.1v-6.5h4.4v9.5C492.8,307.3,491,307.8,488.9,307.8z"/>
		<path class="st1" d="M506.1,285.3h0.4l9.1,22.3h-4.9l-0.9-2.3h-7.1l-0.8,2.3h-4.9L506.1,285.3z M508.3,301.3l-2-5.6l-2,5.6H508.3z
			"/>
		<path class="st1" d="M522.9,307.7h-4.3v-22h1.1l10.9,12.7v-12.2h4.3v22h-1.1l-10.9-12.2V307.7z"/>
		<path class="st1" d="M550.3,307.8c-14.2,0-14.9-21.3,0-21.8c2.6-0.1,4.6,0.7,5,0.8l-0.5,4.4c-0.8-0.4-2.2-0.8-4.5-0.8
			c-8.7,0.3-8.3,13.2,0,13.2c0.4,0,0.8-0.1,1.2-0.1v-6.5h4.4v9.5C554.2,307.3,552.3,307.8,550.3,307.8z"/>
		<path class="st1" d="M325.5,319.2h0.4l9.1,22.3h-4.9l-0.9-2.3h-7.1l-0.8,2.3h-4.9L325.5,319.2z M327.7,335.2l-2-5.6l-2,5.6H327.7z
			"/>
		<path class="st1" d="M348.7,341.5l-4.3-8.2h-2.1v8.2H338V320h8.5c7.7,0,8.4,10.8,2.1,12.7l5,8.9H348.7z M342.3,329.1h3.8
			c2.9,0,2.9-4.8,0-4.8h-3.8V329.1z"/>
		<path class="st1" d="M363.5,319.2h0.4l9.1,22.3h-4.9l-0.9-2.3h-7.1l-0.8,2.3h-4.9L363.5,319.2z M365.7,335.2l-2-5.6l-2,5.6H365.7z
			"/>
		<path class="st1" d="M381.4,342l-8.8-22h4.8l4.3,11l4.2-10.8h0.2l4.2,10.8l4.3-11h4.8l-8.8,21.9H390l-3.9-9.5l-3.9,9.6H381.4z"/>
		<path class="st1" d="M415,341.5h-4.3v-22h1.1l10.9,12.7V320h4.3v22h-1.1L415,329.8V341.5z"/>
		<path class="st1" d="M442.4,341.7c-14.2,0-14.9-21.3,0-21.8c2.6-0.1,4.6,0.7,5,0.8l-0.5,4.4c-0.8-0.4-2.2-0.8-4.5-0.8
			c-8.7,0.3-8.3,13.2,0,13.2c0.4,0,0.8-0.1,1.2-0.1v-6.5h4.4v9.5C446.3,341.1,444.4,341.7,442.4,341.7z"/>
		<path class="st1" d="M318.4,375.4v-21.5h10.8v4.3h-6.5v4.3h5.7v4.3h-5.7v4.3h6.8v4.3H318.4z"/>
		<path class="st1" d="M333.8,369.5c2.5,1.7,5.1,1.8,6.1,1.7c1.3-0.1,2.3-1,2.2-2.2c-0.1-1.2-1-1.8-2.2-2.2
			c-3.4-1.2-6.4-2.9-6.4-6.6c0-3.6,2.5-6.4,6.1-6.6c1.1-0.1,2.6-0.1,5.4,0.9l-0.5,4.2c-2.4-1-3.7-0.9-4.4-0.9
			c-1.5,0.1-2.2,1.2-2.1,2.4c0.1,1.2,1.2,1.7,2.4,2.2c3.3,1.2,6.2,3.2,6.2,6.6c0,3.6-2.5,6.3-6.5,6.5c-1.2,0.1-3.9-0.1-6.8-1.6
			L333.8,369.5z"/>
		<path class="st1" d="M353.2,375.4v-17.2h-5.4v-4.3h15v4.3h-5.4v17.2H353.2z"/>
		<path class="st1" d="M371.8,353.1h0.4l9.1,22.3h-4.9l-0.9-2.3h-7.1l-0.8,2.3h-4.9L371.8,353.1z M374,369.1l-2-5.6l-2,5.6H374z"/>
		<path class="st1" d="M390.8,375.4h-6.4v-21.5h6.4C405.1,353.9,405.1,375.4,390.8,375.4z M388.6,358.2v12.9h2.1
			c8.4,0,8.4-12.9,0-12.9H388.6z"/>
		<path class="st1" d="M406,375.4v-21.5h4.3v21.5H406z"/>
		<path class="st1" d="M415.4,369.5c2.5,1.7,5.1,1.8,6.1,1.7c1.3-0.1,2.3-1,2.2-2.2c-0.1-1.2-1-1.8-2.2-2.2
			c-3.4-1.2-6.4-2.9-6.4-6.6c0-3.6,2.5-6.4,6.1-6.6c1.1-0.1,2.6-0.1,5.4,0.9l-0.5,4.2c-2.4-1-3.7-0.9-4.4-0.9
			c-1.5,0.1-2.2,1.2-2.1,2.4c0.1,1.2,1.2,1.7,2.4,2.2c3.3,1.2,6.2,3.2,6.2,6.6c0,3.6-2.5,6.3-6.5,6.5c-1.2,0.1-3.9-0.1-6.8-1.6
			L415.4,369.5z"/>
		<path class="st1" d="M434.8,375.4v-17.2h-5.4v-4.3h15v4.3h-5.4v17.2H434.8z"/>
		<path class="st1" d="M447.7,375.4v-21.5h4.3v21.5H447.7z"/>
		<path class="st1" d="M457.5,353.9h4.3c0,2.9,0,5.7,0,8.6l5.4-8.6h5l-7,10.6l7.6,10.9h-5.3l-5.7-8.4c0,2.8,0,5.7,0,8.4h-4.3V353.9z
			"/>
		<path class="st1" d="M482,353.1h0.4l9.1,22.3h-4.9l-0.9-2.3h-7.1l-0.8,2.3H473L482,353.1z M484.2,369.1l-2-5.6l-2,5.6H484.2z"/>
		<path class="st2" d="M322.3,395.1c0-0.8-0.7-1.4-1.5-1.5c-1.3-0.1-2.9,0.8-3.4,1.2l-0.7-2.9c1.1-0.8,2.9-1.4,4.4-1.3
			c4.3,0.2,5.8,4,3.3,7.5l-2.9,4.5h4.4v3h-9.8l5.5-8.8C322.4,395.7,322.3,395.1,322.3,395.1z"/>
		<path class="st2" d="M328.3,398.1c0-4.2,1.4-7.6,5.1-7.6c3.7,0,5.1,3.4,5.1,7.6c0,4.2-1.4,7.6-5.1,7.6
			C329.7,405.7,328.3,402.3,328.3,398.1z M335.6,398.1c0-2.6-0.6-4.8-2.2-4.8c-1.6,0-2.2,2.2-2.2,4.8c0,2.7,0.6,4.8,2.2,4.8
			C335.1,403,335.6,400.8,335.6,398.1z"/>
		<path class="st2" d="M342.4,405.7c-2.2,0-2.2-3.3,0-3.3C344.6,402.4,344.6,405.7,342.4,405.7z"/>
		<path class="st2" d="M345.7,390.8h5.4v14.8h-2.9v-11.8h-2.4V390.8z"/>
		<path class="st2" d="M354.4,398.1c0-4.2,1.4-7.6,5.1-7.6c3.7,0,5.1,3.4,5.1,7.6c0,4.2-1.4,7.6-5.1,7.6
			C355.8,405.7,354.4,402.3,354.4,398.1z M361.7,398.1c0-2.6-0.6-4.8-2.2-4.8c-1.6,0-2.2,2.2-2.2,4.8c0,2.7,0.6,4.8,2.2,4.8
			C361.2,403,361.7,400.8,361.7,398.1z"/>
		<path class="st2" d="M368.5,405.7c-2.2,0-2.2-3.3,0-3.3C370.7,402.4,370.7,405.7,368.5,405.7z"/>
		<path class="st2" d="M378.5,395.1c0-0.8-0.7-1.4-1.5-1.5c-1.3-0.1-2.9,0.8-3.4,1.2l-0.7-2.9c1.1-0.8,2.9-1.4,4.4-1.3
			c4.3,0.2,5.8,4,3.3,7.5l-2.9,4.5h4.4v3h-9.8l5.5-8.8C378.5,395.7,378.5,395.1,378.5,395.1z"/>
		<path class="st2" d="M384.5,398.1c0-4.2,1.4-7.6,5.1-7.6c3.7,0,5.1,3.4,5.1,7.6c0,4.2-1.4,7.6-5.1,7.6
			C385.9,405.7,384.5,402.3,384.5,398.1z M391.8,398.1c0-2.6-0.6-4.8-2.2-4.8c-1.6,0-2.2,2.2-2.2,4.8c0,2.7,0.6,4.8,2.2,4.8
			C391.2,403,391.8,400.8,391.8,398.1z"/>
		<path class="st2" d="M396.6,390.8h5.4v14.8H399v-11.8h-2.4V390.8z"/>
		<path class="st2" d="M414.3,401.2c0,2.5-1.7,4.3-4.4,4.5c-0.8,0-2.8,0-4.7-0.7l0.3-2.9c4.6,1.6,5.9,0.3,5.9-0.9
			c0-1.7-1.1-2.3-5.6-2.6v-7.8h7.5v2.8h-4.5v2.6C412.4,396.5,414.3,397.8,414.3,401.2z"/>
		<path class="st1" d="M328.9,422h0.8v13.7H327l0-7.5l-3.4,3.6l-3.4-3.6v7.5h-2.7V422h0.9l5.3,5.9L328.9,422z"/>
		<path class="st1" d="M337.9,421.7h0.3l5.7,13.9h-3l-0.5-1.4h-4.5l-0.5,1.4h-3L337.9,421.7z M339.3,431.7l-1.2-3.5l-1.3,3.5H339.3z
			"/>
		<path class="st1" d="M353,435.7v-5.4h-4v5.4h-2.7v-13.4h2.7v5.4h4v-5.4h2.7v13.4H353z"/>
		<path class="st1" d="M359.7,431v-8.8h2.7v8.7c0,2.8,4.4,2.8,4.4,0v-8.7h2.7v8.8C369.5,437.4,359.7,437.4,359.7,431z"/>
		<path class="st1" d="M373.2,432c1.5,1.1,3.2,1.1,3.8,1.1c0.8-0.1,1.5-0.6,1.4-1.4c-0.1-0.8-0.6-1.1-1.4-1.4c-2.1-0.8-4-1.8-4-4.1
			c0-2.3,1.6-4,3.8-4.1c0.7,0,1.6,0,3.3,0.6l-0.3,2.6c-1.5-0.6-2.3-0.6-2.7-0.6c-1,0.1-1.4,0.8-1.3,1.5c0.1,0.8,0.7,1.1,1.5,1.3
			c2.1,0.8,3.9,2,3.9,4.1c0,2.2-1.5,3.9-4.1,4.1c-0.8,0.1-2.4,0-4.3-1L373.2,432z"/>
		<path class="st1" d="M388.3,421.7h0.3l5.7,13.9h-3l-0.5-1.4h-4.5l-0.5,1.4h-3L388.3,421.7z M389.7,431.7l-1.2-3.5l-1.3,3.5H389.7z
			"/>
		<path class="st1" d="M399,429.6l-4.7-7.4h3.3l2.7,4.6l2.7-4.6h3.3l-4.7,7.4v6.1H399V429.6z"/>
		<path class="st1" d="M417.1,435.7h-2.7v-13.7h0.7l6.8,7.9v-7.6h2.7v13.7h-0.7l-6.8-7.6V435.7z"/>
		<path class="st1" d="M432.7,421.7h0.3l5.7,13.9h-3l-0.5-1.4h-4.5l-0.5,1.4h-3L432.7,421.7z M434.1,431.7l-1.2-3.5l-1.3,3.5H434.1z
			"/>
		<path class="st1" d="M451.1,435.7h-4v-13.4h4C460,422.2,460,435.7,451.1,435.7z M449.8,424.9v8.1h1.3c5.2,0,5.2-8.1,0-8.1H449.8z"
			/>
		<path class="st1" d="M465.1,421.7h0.3l5.7,13.9h-3l-0.5-1.4H463l-0.5,1.4h-3L465.1,421.7z M466.4,431.7l-1.2-3.5l-1.3,3.5H466.4z"
			/>
		<path class="st1" d="M474.8,435.7v-10.8h-3.3v-2.7h9.4v2.7h-3.3v10.8H474.8z"/>
		<path class="st1" d="M489.5,422c9.3,0,9.3,13.9,0,13.9C480.2,435.8,480.2,422,489.5,422z M489.5,424.7c-5.4,0-5.4,8.3,0,8.3
			C494.8,433.1,494.8,424.7,489.5,424.7z"/>
		<path class="st1" d="M499.5,432c1.5,1.1,3.2,1.1,3.8,1.1c0.8-0.1,1.5-0.6,1.4-1.4c-0.1-0.8-0.6-1.1-1.4-1.4c-2.1-0.8-4-1.8-4-4.1
			c0-2.3,1.6-4,3.8-4.1c0.7,0,1.6,0,3.3,0.6l-0.3,2.6c-1.5-0.6-2.3-0.6-2.7-0.6c-1,0.1-1.4,0.8-1.3,1.5c0.1,0.8,0.7,1.1,1.5,1.3
			c2.1,0.8,3.9,2,3.9,4.1c0,2.2-1.5,3.9-4.1,4.1c-0.8,0.1-2.4,0-4.3-1L499.5,432z"/>
		<path class="st1" d="M511.6,435.8c-2,0-2-3,0-3C513.7,432.8,513.6,435.8,511.6,435.8z"/>
		<path class="st1" d="M328.9,444.6h0.8v13.7H327l0-7.5l-3.4,3.6l-3.4-3.6v7.5h-2.7v-13.7h0.9l5.3,5.9L328.9,444.6z"/>
		<path class="st1" d="M337.9,444.3h0.3l5.7,13.9h-3l-0.5-1.4h-4.5l-0.5,1.4h-3L337.9,444.3z M339.3,454.3l-1.2-3.5l-1.3,3.5H339.3z
			"/>
		<path class="st1" d="M352.2,458.3c-8.9,0-9.3-13.3,0-13.6c1.6-0.1,2.9,0.4,3.1,0.5l-0.3,2.7c-0.5-0.2-1.4-0.5-2.8-0.5
			c-5.4,0.2-5.2,8.2,0,8.2c0.2,0,0.5,0,0.8-0.1v-4h2.7v5.9C354.6,458,353.5,458.3,352.2,458.3z"/>
		<path class="st1" d="M363.6,444.3h0.3l5.7,13.9h-3l-0.5-1.4h-4.5l-0.5,1.4h-3L363.6,444.3z M364.9,454.3l-1.2-3.5l-1.3,3.5H364.9z
			"/>
		<path class="st1" d="M374.7,458.3H372v-13.7h0.7l6.8,7.9v-7.6h2.7v13.7h-0.7l-6.8-7.6V458.3z"/>
		<path class="st1" d="M390.3,458.3h-4v-13.4h4C399.2,444.8,399.2,458.3,390.3,458.3z M389,447.5v8.1h1.3c5.2,0,5.2-8.1,0-8.1H389z"
			/>
		<path class="st1" d="M404.3,444.3h0.3l5.7,13.9h-3l-0.5-1.4h-4.5l-0.5,1.4h-3L404.3,444.3z M405.6,454.3l-1.2-3.5l-1.3,3.5H405.6z
			"/>
		<path class="st1" d="M415.4,458.3h-2.7v-13.7h0.7l6.8,7.9v-7.6h2.7v13.7h-0.7l-6.8-7.6V458.3z"/>
		<path class="st1" d="M433.1,458.3c-8.9,0-9.3-13.3,0-13.6c1.6-0.1,2.9,0.4,3.1,0.5l-0.3,2.7c-0.5-0.2-1.4-0.5-2.8-0.5
			c-5.4,0.2-5.2,8.2,0,8.2c0.2,0,0.5,0,0.8-0.1v-4h2.7v5.9C435.5,458,434.3,458.3,433.1,458.3z"/>
		<path class="st1" d="M446,444.8h5.3c2.4,0,3.9,1.7,3.8,4.1c0,1-0.4,2.1-1.2,2.7c0.9,0.6,1.4,1.6,1.4,2.7c0,2.3-1.8,4-4,4H446
			V444.8z M448.7,450.2h1.6h0.8c0.8,0,1.2-0.6,1.2-1.4c0-0.8-0.5-1.3-1.2-1.3h-2.4V450.2z M448.7,455.6h1.6h0.8
			c0.8,0,1.4-0.6,1.4-1.4c0-0.8-0.6-1.3-1.4-1.3h-2.4V455.6z"/>
		<path class="st1" d="M458.7,453.6v-8.8h2.7v8.7c0,2.8,4.4,2.8,4.4,0v-8.7h2.7v8.8C468.5,460,458.7,460,458.7,453.6z"/>
		<path class="st1" d="M479.2,458.3v-5.4h-4v5.4h-2.7v-13.4h2.7v5.4h4v-5.4h2.7v13.4H479.2z"/>
		<path class="st1" d="M490,444.3h0.3l5.7,13.9h-3l-0.5-1.4h-4.5l-0.5,1.4h-3L490,444.3z M491.4,454.3l-1.2-3.5l-1.3,3.5H491.4z"/>
		<path class="st1" d="M500.7,452.2l-4.7-7.4h3.3l2.7,4.6l2.7-4.6h3.3l-4.7,7.4v6.1h-2.7V452.2z"/>
		<path class="st1" d="M510.1,458.4c-2,0-2-3,0-3C512.1,455.4,512.1,458.4,510.1,458.4z"/>
	</g>
</g>
<g>
	<path class="st3" d="M197.3,354.4c-8.2,0-16.3-1.1-24.2-3.2c-1.4-0.4-2.7-0.8-4.1-1.2c-21.9-7-40.3-21.9-51.8-41.9
		c-12.2-21.4-15.4-46.2-9-70c6.4-23.8,21.8-43.6,43.1-55.9c14-8,29.8-12.2,45.7-12.2c8.2,0,16.3,1.1,24.3,3.3
		c23.8,6.5,43.6,21.8,55.9,43.1c10.4,18.1,14.3,38.6,11.2,59.2l-0.1,0.6h-9l0.1-0.8c3.1-19-0.4-37.9-10-54.6
		c-11.1-19.3-29-33.2-50.5-39c-7.2-2-14.6-2.9-22-2.9c-14.4,0-28.7,3.8-41.3,11.1c-19.3,11.1-33.2,29-39,50.5
		c-5.8,21.5-2.9,44,8.1,63.3c11.1,19.3,29,33.2,50.5,39c8.1,2.2,16.7,3.1,25.2,2.8l0.4-0.1c6.8-0.3,13.6-1.5,20.3-3.5l0.2,0l0.2,0
		c5.2,1,10.7,1.5,16.3,1.5l3,0l-2.7,1.3c-4.4,2.2-8.9,4-13.5,5.4l-0.2,0.1c-0.2,0.1-0.4,0.2-0.5,0.2
		C215.4,353,206.4,354.4,197.3,354.4z"/>
</g>
<path class="st1" d="M229.6,259c-1.1-7.6-8.3-13-16.2-11.9c-7.9,1.1-13.3,8.3-12.2,15.9c1.1,7.7,8.2,13,16.1,11.9
	C225.1,273.8,230.6,266.7,229.6,259z M216.2,267.9c-3.9,0.5-7.3-2-7.8-5.9c-0.5-3.8,2-7.4,5.9-7.9c3.9-0.5,7.3,2.2,7.8,6
	C222.7,264,220.1,267.4,216.2,267.9z"/>
<path class="st1" d="M266.9,292.9c-1.1-7.6-8.3-13-16.2-11.9c-7.9,1.1-13.3,8.3-12.2,15.9c1.1,7.7,8.2,13,16.1,11.9
	C262.5,307.7,268,300.6,266.9,292.9z M253.6,301.8c-3.9,0.5-7.3-2-7.8-5.9c-0.5-3.8,2-7.4,5.9-7.9c3.9-0.5,7.3,2.2,7.8,6
	C260.1,297.9,257.5,301.3,253.6,301.8z"/>
<g>
	<path class="st1" d="M213.7,306.4h-11.4l50.6-55.3h11.4L213.7,306.4z"/>
</g>
<path class="st1" d="M243,330c-1.5,0.1-3.1,0.2-4.6,0.2c-21.3,0-34.5-7.9-41.8-14.6c-10.2-9.4-16.1-22.5-16.1-36v-0.7h-8.9v0.7
	c0,16,6.9,31.5,19,42.5c8.5,7.7,23.6,16.9,47.7,16.9c2.7,0,5.5-0.2,8.4-0.4L243,330z"/>
</svg>
