<?xml version="1.0" encoding="utf-8"?>
<!-- Generator: Adobe Illustrator 19.0.0, SVG Export Plug-In . SVG Version: 6.00 Build 0)  -->
<svg version="1.1" id="Layer_1" xmlns="http://www.w3.org/2000/svg" xmlns:xlink="http://www.w3.org/1999/xlink" x="0px" y="0px"
	 viewBox="0 0 612 612" style="enable-background:new 0 0 612 612;" xml:space="preserve">
<style type="text/css">
	.st0{fill:#FFFFFF;}
	.st1{fill:#0083BF;}
	.st2{fill:#59AFE1;}
	.st3{fill:#74C1EC;}
</style>
<rect class="st0" width="612" height="612"/>
<g>
	<g>
		<path class="st1" d="M315.4,306.6v-21h8.3c8.2,0,8.1,12.9,0,12.9h-4.1v8H315.4z M323.3,294.5c2.8,0,2.8-4.7,0-4.7h-3.7v4.7H323.3z
			"/>
		<path class="st1" d="M339,284.8h0.4l8.8,21.8h-4.7l-0.9-2.3h-7l-0.8,2.3h-4.8L339,284.8z M341.2,300.4l-1.9-5.5l-2,5.5H341.2z"/>
		<path class="st1" d="M355.4,306.6h-4.2v-21.4h1.1l10.6,12.3v-11.9h4.2V307H366l-10.6-11.9V306.6z"/>
		<path class="st1" d="M378.8,306.6h-6.3v-21h6.3C392.8,285.6,392.8,306.6,378.8,306.6z M376.8,289.8v12.6h2.1
			c8.2,0,8.2-12.6,0-12.6H376.8z"/>
		<path class="st1" d="M399.7,284.8h0.4l8.8,21.8h-4.7l-0.9-2.3h-7l-0.8,2.3h-4.8L399.7,284.8z M401.8,300.4l-1.9-5.5l-2,5.5H401.8z
			"/>
		<path class="st1" d="M411.8,306.6v-21h4.2v21H411.8z"/>
		<path class="st1" d="M430.9,306.7c-13.9,0-14.6-20.8,0-21.3c2.5-0.1,4.5,0.6,4.9,0.8l-0.5,4.3c-0.8-0.4-2.2-0.8-4.4-0.8
			c-8.5,0.3-8.1,12.8,0,12.8c0.4,0,0.8-0.1,1.2-0.1V296h4.3v9.2C434.7,306.2,432.9,306.7,430.9,306.7z"/>
		<path class="st1" d="M447.8,306.6h-6.3v-21h6.3C461.8,285.6,461.8,306.6,447.8,306.6z M445.7,289.8v12.6h2.1
			c8.2,0,8.2-12.6,0-12.6H445.7z"/>
		<path class="st1" d="M462.6,306.6v-21h4.2v21H462.6z"/>
		<path class="st1" d="M481.7,306.7c-13.9,0-14.6-20.8,0-21.3c2.5-0.1,4.5,0.6,4.9,0.8l-0.5,4.3c-0.8-0.4-2.2-0.8-4.4-0.8
			c-8.5,0.3-8.1,12.8,0,12.8c0.4,0,0.8-0.1,1.2-0.1V296h4.3v9.2C485.5,306.2,483.7,306.7,481.7,306.7z"/>
		<path class="st1" d="M498.5,284.8h0.4l8.8,21.8H503l-0.9-2.3h-7l-0.8,2.3h-4.8L498.5,284.8z M500.6,300.4l-1.9-5.5l-2,5.5H500.6z"
			/>
		<path class="st1" d="M514.8,306.6h-4.2v-21.4h1.1l10.6,12.3v-11.9h4.2V307h-1.1l-10.6-11.9V306.6z"/>
		<path class="st1" d="M541.5,306.7c-13.9,0-14.6-20.8,0-21.3c2.5-0.1,4.5,0.6,4.9,0.8l-0.5,4.3c-0.8-0.4-2.2-0.8-4.4-0.8
			c-8.5,0.3-8.1,12.8,0,12.8c0.4,0,0.8-0.1,1.2-0.1V296h4.3v9.2C545.3,306.2,543.5,306.7,541.5,306.7z"/>
		<path class="st1" d="M322.4,317.8h0.4l8.8,21.8H327l-0.9-2.3h-7l-0.8,2.3h-4.8L322.4,317.8z M324.6,333.4l-1.9-5.5l-2,5.5H324.6z"
			/>
		<path class="st1" d="M345,339.6l-4.2-8h-2v8h-4.2v-21h8.3c7.5,0,8.2,10.5,2.1,12.3l4.9,8.7H345z M338.8,327.5h3.7
			c2.8,0,2.8-4.7,0-4.7h-3.7V327.5z"/>
		<path class="st1" d="M359.5,317.8h0.4l8.8,21.8H364l-0.9-2.3h-7l-0.8,2.3h-4.8L359.5,317.8z M361.6,333.4l-1.9-5.5l-2,5.5H361.6z"
			/>
		<path class="st1" d="M376.9,340l-8.6-21.4h4.7l4.2,10.7l4.1-10.5h0.2l4.1,10.5l4.2-10.7h4.7l-8.6,21.3h-0.8l-3.8-9.3l-3.8,9.4
			H376.9z"/>
		<path class="st1" d="M409.7,339.6h-4.2v-21.4h1.1l10.6,12.3v-11.9h4.2V340h-1.1l-10.6-11.9V339.6z"/>
		<path class="st1" d="M436.3,339.7c-13.9,0-14.6-20.8,0-21.3c2.5-0.1,4.5,0.6,4.9,0.8l-0.5,4.3c-0.8-0.4-2.2-0.8-4.4-0.8
			c-8.5,0.3-8.1,12.8,0,12.8c0.4,0,0.8-0.1,1.2-0.1v-6.3h4.3v9.2C440.1,339.2,438.3,339.7,436.3,339.7z"/>
		<path class="st1" d="M315.4,372.6v-21H326v4.2h-6.3v4.2h5.5v4.2h-5.5v4.2h6.7v4.2H315.4z"/>
		<path class="st1" d="M330.5,366.9c2.4,1.7,5,1.8,6,1.7c1.2-0.1,2.3-1,2.2-2.1c-0.1-1.2-1-1.7-2.2-2.1c-3.3-1.2-6.2-2.9-6.2-6.4
			c0-3.5,2.4-6.2,5.9-6.4c1.1-0.1,2.5-0.1,5.2,0.9l-0.5,4.1c-2.3-0.9-3.6-0.9-4.3-0.9c-1.5,0.1-2.2,1.2-2.1,2.4
			c0.1,1.2,1.1,1.7,2.3,2.1c3.3,1.2,6.1,3.1,6.1,6.4c0,3.5-2.4,6.2-6.3,6.4c-1.2,0.1-3.8-0.1-6.6-1.5L330.5,366.9z"/>
		<path class="st1" d="M349.4,372.6v-16.8h-5.2v-4.2h14.6v4.2h-5.2v16.8H349.4z"/>
		<path class="st1" d="M367.6,350.9h0.4l8.8,21.8h-4.7l-0.9-2.3h-7l-0.8,2.3h-4.8L367.6,350.9z M369.7,366.4l-1.9-5.5l-2,5.5H369.7z
			"/>
		<path class="st1" d="M386,372.6h-6.3v-21h6.3C400,351.6,400,372.6,386,372.6z M384,355.8v12.6h2.1c8.2,0,8.2-12.6,0-12.6H384z"/>
		<path class="st1" d="M400.8,372.6v-21h4.2v21H400.8z"/>
		<path class="st1" d="M410.1,366.9c2.4,1.7,5,1.8,6,1.7c1.2-0.1,2.3-1,2.2-2.1c-0.1-1.2-1-1.7-2.2-2.1c-3.3-1.2-6.2-2.9-6.2-6.4
			c0-3.5,2.4-6.2,5.9-6.4c1.1-0.1,2.5-0.1,5.2,0.9l-0.5,4.1c-2.3-0.9-3.6-0.9-4.3-0.9c-1.5,0.1-2.2,1.2-2.1,2.4
			c0.1,1.2,1.1,1.7,2.3,2.1c3.3,1.2,6.1,3.1,6.1,6.4c0,3.5-2.4,6.2-6.3,6.4c-1.2,0.1-3.8-0.1-6.6-1.5L410.1,366.9z"/>
		<path class="st1" d="M429,372.6v-16.8h-5.2v-4.2h14.6v4.2h-5.2v16.8H429z"/>
		<path class="st1" d="M441.5,372.6v-21h4.2v21H441.5z"/>
		<path class="st1" d="M451.1,351.6h4.2c0,2.8,0,5.6,0,8.4l5.3-8.4h4.9l-6.8,10.4l7.4,10.6h-5.2l-5.6-8.2c0,2.7,0,5.5,0,8.2h-4.2
			V351.6z"/>
		<path class="st1" d="M475,350.9h0.4l8.8,21.8h-4.7l-0.9-2.3h-7l-0.8,2.3h-4.8L475,350.9z M477.1,366.4l-1.9-5.5l-2,5.5H477.1z"/>
		<path class="st2" d="M319.3,391.7c0-0.8-0.6-1.4-1.5-1.5c-1.3-0.1-2.9,0.7-3.3,1.2l-0.7-2.8c1.1-0.8,2.9-1.4,4.3-1.3
			c4.2,0.2,5.6,3.9,3.2,7.3l-2.8,4.4h4.3v2.9h-9.5l5.4-8.5C319.4,392.3,319.3,391.7,319.3,391.7z"/>
		<path class="st2" d="M325.2,394.7c0-4.1,1.4-7.4,4.9-7.4c3.6,0,5,3.3,5,7.4c0,4.1-1.4,7.4-5,7.4
			C326.5,402.2,325.2,398.8,325.2,394.7z M332.3,394.7c0-2.6-0.5-4.7-2.2-4.7c-1.6,0-2.1,2.1-2.1,4.7c0,2.6,0.5,4.7,2.1,4.7
			C331.7,399.4,332.3,397.3,332.3,394.7z"/>
		<path class="st2" d="M338.8,402.1c-2.2,0-2.2-3.2,0-3.2C341.1,398.9,341,402.1,338.8,402.1z"/>
		<path class="st2" d="M342.1,387.6h5.2V402h-2.9v-11.5h-2.4V387.6z"/>
		<path class="st2" d="M350.6,394.7c0-4.1,1.4-7.4,4.9-7.4c3.6,0,5,3.3,5,7.4c0,4.1-1.4,7.4-5,7.4
			C352,402.2,350.6,398.8,350.6,394.7z M357.7,394.7c0-2.6-0.5-4.7-2.2-4.7c-1.6,0-2.1,2.1-2.1,4.7c0,2.6,0.5,4.7,2.1,4.7
			C357.2,399.4,357.7,397.3,357.7,394.7z"/>
		<path class="st2" d="M364.3,402.1c-2.2,0-2.2-3.2,0-3.2C366.5,398.9,366.4,402.1,364.3,402.1z"/>
		<path class="st2" d="M374.1,391.7c0-0.8-0.6-1.4-1.5-1.5c-1.3-0.1-2.9,0.7-3.3,1.2l-0.7-2.8c1.1-0.8,2.9-1.4,4.3-1.3
			c4.2,0.2,5.6,3.9,3.2,7.3l-2.8,4.4h4.3v2.9H368l5.4-8.5C374.1,392.3,374.1,391.7,374.1,391.7z"/>
		<path class="st2" d="M379.9,394.7c0-4.1,1.4-7.4,4.9-7.4c3.6,0,5,3.3,5,7.4c0,4.1-1.4,7.4-5,7.4
			C381.3,402.2,379.9,398.8,379.9,394.7z M387,394.7c0-2.6-0.5-4.7-2.2-4.7c-1.6,0-2.1,2.1-2.1,4.7c0,2.6,0.5,4.7,2.1,4.7
			C386.5,399.4,387,397.3,387,394.7z"/>
		<path class="st2" d="M391.7,387.6h5.2V402h-2.9v-11.5h-2.4V387.6z"/>
		<path class="st2" d="M408.9,397.7c0,2.4-1.6,4.2-4.3,4.4c-0.7,0-2.7,0-4.6-0.6l0.3-2.9c4.5,1.5,5.8,0.3,5.7-0.9
			c0-1.7-1.1-2.2-5.5-2.5v-7.6h7.3v2.8h-4.4v2.5C407.1,393.2,408.9,394.4,408.9,397.7z"/>
		<path class="st1" d="M325.8,418h0.8v13.3h-2.7l0-7.3l-3.4,3.5l-3.4-3.5v7.3h-2.7V418h0.8l5.2,5.8L325.8,418z"/>
		<path class="st1" d="M334.5,417.7h0.3l5.5,13.6h-3l-0.5-1.4h-4.3l-0.5,1.4h-3L334.5,417.7z M335.8,427.4l-1.2-3.4l-1.2,3.4H335.8z
			"/>
		<path class="st1" d="M349.2,431.3v-5.2h-3.9v5.2h-2.6v-13.1h2.6v5.2h3.9v-5.2h2.6v13.1H349.2z"/>
		<path class="st1" d="M355.8,426.7v-8.5h2.6v8.5c0,2.8,4.3,2.8,4.3,0v-8.5h2.6v8.5C365.3,433,355.8,433,355.8,426.7z"/>
		<path class="st1" d="M368.9,427.7c1.5,1.1,3.1,1.1,3.7,1c0.8-0.1,1.4-0.6,1.4-1.3c-0.1-0.8-0.6-1.1-1.4-1.3
			c-2.1-0.8-3.9-1.8-3.9-4c0-2.2,1.5-3.9,3.7-4c0.7,0,1.6,0,3.3,0.6l-0.3,2.5c-1.4-0.6-2.3-0.6-2.7-0.6c-0.9,0.1-1.4,0.7-1.3,1.5
			c0.1,0.7,0.7,1.1,1.5,1.3c2,0.8,3.8,1.9,3.8,4c0,2.2-1.5,3.8-4,4c-0.7,0.1-2.4,0-4.1-1L368.9,427.7z"/>
		<path class="st1" d="M383.6,417.7h0.3l5.5,13.6h-3l-0.5-1.4h-4.3l-0.5,1.4h-3L383.6,417.7z M385,427.4l-1.2-3.4l-1.2,3.4H385z"/>
		<path class="st1" d="M394,425.4l-4.6-7.2h3.2l2.7,4.5l2.7-4.5h3.2l-4.6,7.2v5.9H394V425.4z"/>
		<path class="st1" d="M411.7,431.3h-2.6v-13.4h0.7l6.6,7.7v-7.4h2.6v13.4h-0.7l-6.6-7.4V431.3z"/>
		<path class="st1" d="M426.9,417.7h0.3l5.5,13.6h-3l-0.5-1.4h-4.3l-0.5,1.4h-3L426.9,417.7z M428.3,427.4l-1.2-3.4l-1.2,3.4H428.3z
			"/>
		<path class="st1" d="M444.8,431.3h-3.9v-13.1h3.9C453.5,418.2,453.5,431.3,444.8,431.3z M443.5,420.8v7.9h1.3c5.1,0,5.1-7.9,0-7.9
			H443.5z"/>
		<path class="st1" d="M458.4,417.7h0.3l5.5,13.6h-3l-0.5-1.4h-4.3l-0.5,1.4h-3L458.4,417.7z M459.8,427.4l-1.2-3.4l-1.2,3.4H459.8z
			"/>
		<path class="st1" d="M467.9,431.3v-10.5h-3.3v-2.6h9.1v2.6h-3.3v10.5H467.9z"/>
		<path class="st1" d="M482.2,418c9,0,9,13.5,0,13.5C473.2,431.5,473.2,418,482.2,418z M482.2,420.7c-5.2,0-5.2,8.1,0,8.1
			C487.5,428.8,487.5,420.7,482.2,420.7z"/>
		<path class="st1" d="M492,427.7c1.5,1.1,3.1,1.1,3.7,1c0.8-0.1,1.4-0.6,1.4-1.3c-0.1-0.8-0.6-1.1-1.4-1.3c-2.1-0.8-3.9-1.8-3.9-4
			c0-2.2,1.5-3.9,3.7-4c0.7,0,1.6,0,3.3,0.6l-0.3,2.5c-1.4-0.6-2.3-0.6-2.7-0.6c-0.9,0.1-1.4,0.7-1.3,1.5c0.1,0.7,0.7,1.1,1.5,1.3
			c2,0.8,3.8,1.9,3.8,4c0,2.2-1.5,3.8-4,4c-0.7,0.1-2.4,0-4.1-1L492,427.7z"/>
		<path class="st1" d="M503.8,431.4c-2,0-2-3,0-3C505.8,428.5,505.8,431.4,503.8,431.4z"/>
		<path class="st1" d="M325.8,440h0.8v13.3h-2.7l0-7.3l-3.4,3.5l-3.4-3.5v7.3h-2.7V440h0.8l5.2,5.8L325.8,440z"/>
		<path class="st1" d="M334.5,439.7h0.3l5.5,13.6h-3l-0.5-1.4h-4.3l-0.5,1.4h-3L334.5,439.7z M335.8,449.5l-1.2-3.4l-1.2,3.4H335.8z
			"/>
		<path class="st1" d="M348.4,453.4c-8.7,0-9.1-13,0-13.3c1.6-0.1,2.8,0.4,3.1,0.5l-0.3,2.7c-0.5-0.2-1.4-0.5-2.8-0.5
			c-5.3,0.2-5.1,8,0,8c0.2,0,0.5,0,0.7-0.1v-3.9h2.7v5.8C350.8,453.1,349.7,453.4,348.4,453.4z"/>
		<path class="st1" d="M359.5,439.7h0.3l5.5,13.6h-3l-0.5-1.4h-4.3l-0.5,1.4h-3L359.5,439.7z M360.8,449.5l-1.2-3.4l-1.2,3.4H360.8z
			"/>
		<path class="st1" d="M370.3,453.3h-2.6V440h0.7l6.6,7.7v-7.4h2.6v13.4H377l-6.6-7.4V453.3z"/>
		<path class="st1" d="M385.6,453.3h-3.9v-13.1h3.9C394.3,440.2,394.3,453.3,385.6,453.3z M384.3,442.8v7.9h1.3c5.1,0,5.1-7.9,0-7.9
			H384.3z"/>
		<path class="st1" d="M399.2,439.7h0.3l5.5,13.6h-3l-0.5-1.4h-4.3l-0.5,1.4h-3L399.2,439.7z M400.5,449.5l-1.2-3.4l-1.2,3.4H400.5z
			"/>
		<path class="st1" d="M410,453.3h-2.6V440h0.7l6.6,7.7v-7.4h2.6v13.4h-0.7l-6.6-7.4V453.3z"/>
		<path class="st1" d="M427.2,453.4c-8.7,0-9.1-13,0-13.3c1.6-0.1,2.8,0.4,3.1,0.5l-0.3,2.7c-0.5-0.2-1.4-0.5-2.8-0.5
			c-5.3,0.2-5.1,8,0,8c0.2,0,0.5,0,0.7-0.1v-3.9h2.7v5.8C429.6,453.1,428.5,453.4,427.2,453.4z"/>
		<path class="st1" d="M439.9,440.2h5.2c2.3,0,3.8,1.7,3.7,4c0,1-0.4,2-1.2,2.6c0.9,0.6,1.4,1.6,1.4,2.6c0,2.2-1.7,3.9-3.9,3.9h-5.2
			V440.2z M442.5,445.5h1.6h0.8c0.8,0,1.2-0.6,1.2-1.3c0-0.7-0.5-1.3-1.2-1.3h-2.3V445.5z M442.5,450.7h1.6h0.8
			c0.8,0,1.3-0.6,1.3-1.3c0-0.7-0.6-1.3-1.3-1.3h-2.3V450.7z"/>
		<path class="st1" d="M452.3,448.8v-8.5h2.6v8.5c0,2.8,4.3,2.8,4.3,0v-8.5h2.6v8.5C461.7,455,452.3,455,452.3,448.8z"/>
		<path class="st1" d="M472.2,453.3v-5.2h-3.9v5.2h-2.6v-13.1h2.6v5.2h3.9v-5.2h2.6v13.1H472.2z"/>
		<path class="st1" d="M482.7,439.7h0.3l5.5,13.6h-3l-0.5-1.4h-4.3l-0.5,1.4h-3L482.7,439.7z M484.1,449.5l-1.2-3.4l-1.2,3.4H484.1z
			"/>
		<path class="st1" d="M493.1,447.4l-4.6-7.2h3.2l2.7,4.5l2.7-4.5h3.2l-4.6,7.2v5.9h-2.6V447.4z"/>
		<path class="st1" d="M502.3,453.5c-2,0-2-3,0-3C504.3,450.5,504.3,453.5,502.3,453.5z"/>
	</g>
</g>
<g>
	<path class="st3" d="M197.4,352.1c-7.9,0-15.9-1.1-23.6-3.2c-1.3-0.4-2.7-0.8-4-1.2c-21.4-6.8-39.3-21.4-50.5-40.9
		c-11.9-20.8-15-45.1-8.8-68.2c6.3-23.2,21.2-42.5,42.1-54.5c13.6-7.8,29-11.9,44.6-11.9c8,0,15.9,1.1,23.7,3.2
		c23.2,6.3,42.5,21.2,54.4,42.1c10.1,17.7,13.9,37.6,10.9,57.7l-0.1,0.6h-8.8l0.1-0.8c3-18.5-0.4-36.9-9.7-53.2
		c-10.8-18.8-28.3-32.3-49.2-38c-7-1.9-14.2-2.9-21.4-2.9c-14,0-28,3.7-40.3,10.8c-18.8,10.8-32.3,28.3-38,49.2
		c-5.7,21-2.9,42.9,7.9,61.7c10.8,18.8,28.3,32.3,49.2,38c7.9,2.2,16.2,3.1,24.5,2.7l0.4-0.1c6.6-0.3,13.2-1.4,19.8-3.4l0.2,0l0.2,0
		c5.1,1,10.4,1.5,15.9,1.5l2.9,0l-2.6,1.3c-4.3,2.1-8.7,3.9-13.2,5.3L224,348c-0.2,0.1-0.3,0.2-0.5,0.2
		C215.1,350.8,206.3,352.1,197.4,352.1z"/>
</g>
<path class="st1" d="M228.9,259.2c-1-7.4-8.1-12.7-15.8-11.6c-7.7,1.1-13,8.1-11.9,15.5c1,7.5,8,12.7,15.7,11.6
	C224.6,273.6,229.9,266.7,228.9,259.2z M215.9,267.8c-3.8,0.5-7.1-2-7.6-5.8c-0.5-3.7,1.9-7.2,5.7-7.7c3.8-0.5,7.1,2.1,7.6,5.8
	C222.2,264,219.7,267.3,215.9,267.8z"/>
<path class="st1" d="M265.3,292.2c-1-7.4-8.1-12.7-15.8-11.6c-7.7,1.1-13,8.1-11.9,15.5c1,7.5,8,12.7,15.7,11.6
	C261,306.6,266.4,299.7,265.3,292.2z M252.4,300.9c-3.8,0.5-7.1-2-7.6-5.8c-0.5-3.7,1.9-7.2,5.7-7.7c3.8-0.5,7.1,2.1,7.6,5.8
	C258.7,297,256.2,300.3,252.4,300.9z"/>
<g>
	<path class="st1" d="M213.5,305.3h-11.1l49.3-53.9h11.1L213.5,305.3z"/>
</g>
<path class="st1" d="M242,328.3c-1.5,0.1-3,0.2-4.4,0.2c-20.8,0-33.6-7.7-40.7-14.2c-10-9.1-15.7-21.9-15.7-35.1v-0.7h-8.6v0.7
	c0,15.6,6.7,30.7,18.5,41.5c8.2,7.5,23,16.5,46.5,16.5c2.6,0,5.4-0.1,8.2-0.4L242,328.3z"/>
</svg>
