<?xml version="1.0" encoding="utf-8"?>
<!-- Generator: Adobe Illustrator 19.0.0, SVG Export Plug-In . SVG Version: 6.00 Build 0)  -->
<svg version="1.1" id="Layer_1" xmlns="http://www.w3.org/2000/svg" xmlns:xlink="http://www.w3.org/1999/xlink" x="0px" y="0px"
	 viewBox="0 0 612 612" style="enable-background:new 0 0 612 612;" xml:space="preserve">
<metadata><?xpacket begin="﻿" id="W5M0MpCehiHzreSzNTczkc9d"?>
<x:xmpmeta xmlns:x="adobe:ns:meta/" x:xmptk="Adobe XMP Core 5.6-c067 79.157747, 2015/03/30-23:40:42        ">
   <rdf:RDF xmlns:rdf="http://www.w3.org/1999/02/22-rdf-syntax-ns#">
      <rdf:Description rdf:about=""/>
   </rdf:RDF>
</x:xmpmeta>
                                                                                                    
                                                                                                    
                                                                                                    
                                                                                                    
                                                                                                    
                                                                                                    
                                                                                                    
                                                                                                    
                                                                                                    
                                                                                                    
                                                                                                    
                                                                                                    
                                                                                                    
                                                                                                    
                                                                                                    
                                                                                                    
                                                                                                    
                                                                                                    
                                                                                                    
                                                                                                    
                           
<?xpacket end="w"?></metadata>
<style type="text/css">
	.st0{fill:#FFFFFF;stroke:#000000;stroke-miterlimit:10;}
	.st1{fill:#0083BF;}
	.st2{fill:#59AFE1;}
	.st3{fill:#74C1EC;}
</style>
<rect y="0" class="st0" width="612" height="612"/>
<g>
	<g>
		<path class="st1" d="M264.9,306.1l2.8-16.5h4.2l3.3,8.8l3.5-8.8h4.3l2.5,16.5h-4.3l-1.2-9.5l-4,9.5h-1.7l-3.8-9.5l-1.4,9.5H264.9z
			"/>
		<path class="st1" d="M292.8,289.7v16.5h-4.3v-16.5H292.8z"/>
		<path class="st1" d="M304.9,298.9l-4.5,7.2h-5.4l6-8.4l-5.5-8.1h4.9l4.4,7.2v-7.2h4.3v7.2l4.4-7.2h4.9l-5.5,8.1l6,8.4h-5.4
			l-4.5-7.2v7.2h-4.3V298.9z"/>
		<path class="st1" d="M325.6,295.8h6.2v-6.2h4.3v16.5h-4.3v-6.7h-6.2v6.7h-4.3v-16.5h4.3V295.8z"/>
		<path class="st1" d="M350.1,303.4h-6l-1.1,2.8h-4.5l6.3-16.5h4.7l6.2,16.5h-4.6L350.1,303.4z M348.9,300.1l-1.9-5.3l-1.8,5.3
			H348.9z"/>
		<path class="st1" d="M362.3,300.7v5.5H358v-16.5h6.8c1.4,0,2.9,0.3,4.2,1.5c1.3,1.2,1.5,2.6,1.5,4c0,1.3-0.2,2.8-1.5,4.1
			c-1.3,1.3-2.8,1.4-4.1,1.4H362.3z M362.3,297.2h1.4c0.4,0,1.3,0,1.8-0.5c0.5-0.4,0.5-1.1,0.5-1.5c0-0.4,0-1-0.5-1.5
			c-0.5-0.5-1.3-0.6-1.8-0.6h-1.5V297.2z"/>
		<path class="st1" d="M388.3,304.1c-1.7,1.6-4.1,2.4-6.5,2.4c-2.4,0-4.8-0.8-6.5-2.4c-1.8-1.7-2.6-4-2.6-6.2c0-2.2,0.8-4.5,2.6-6.2
			c1.7-1.6,4.1-2.4,6.5-2.4c2.4,0,4.8,0.8,6.5,2.4c1.8,1.7,2.6,4,2.6,6.2C390.9,300.1,390,302.4,388.3,304.1z M378.4,294.7
			c-0.9,0.9-1.3,2.1-1.3,3.2c0,1.5,0.7,2.5,1.3,3.1c0.8,0.8,1.9,1.3,3.3,1.3c1.5,0,2.5-0.5,3.3-1.3c0.8-0.8,1.3-1.9,1.3-3.2
			c0-1.3-0.6-2.4-1.3-3.2c-0.9-0.9-2.2-1.3-3.3-1.3C380.6,293.4,379.3,293.9,378.4,294.7z"/>
		<path class="st1" d="M408,289.7v13.2h2v7h-3.9v-3.7h-10v3.7h-3.9v-7c0.6-0.1,1.3-0.3,1.9-1c1.2-1.3,1.4-3.1,1.4-5.4v-6.8H408z
			 M399.7,296.8c0,0.8-0.1,2.2-0.4,3.5c-0.3,1-0.7,1.8-1.4,2.5h5.8V293h-4V296.8z"/>
		<path class="st1" d="M416.9,295.8h6.2v-6.2h4.3v16.5h-4.3v-6.7h-6.2v6.7h-4.3v-16.5h4.3V295.8z"/>
		<path class="st1" d="M435.5,289.7V300l6.2-10.4h4.4v16.5h-4.3v-10.4l-6.2,10.4h-4.4v-16.5H435.5z"/>
		<path class="st1" d="M454.2,289.7V300l6.2-10.4h4.4v16.5h-4.3v-10.4l-6.2,10.4h-4.4v-16.5H454.2z M462.4,285.1
			c-0.5,1.3-1.3,2-2,2.4c-0.7,0.4-1.7,0.6-3.2,0.6c-0.9,0-2.2-0.1-3.1-0.6c-0.7-0.4-1.6-1.1-2-2.4l2.9-1.1c0.1,0.5,0.4,0.9,0.8,1.2
			c0.5,0.3,1.1,0.4,1.5,0.4c0.3,0,1,0,1.5-0.4c0.3-0.2,0.6-0.7,0.8-1.2L462.4,285.1z"/>
		<path class="st1" d="M488.1,289.7v13.2h2v7h-3.9v-3.7h-10v3.7h-3.9v-7c0.6-0.1,1.3-0.3,1.9-1c1.2-1.3,1.4-3.1,1.4-5.4v-6.8H488.1z
			 M479.8,296.8c0,0.8-0.1,2.2-0.4,3.5c-0.3,1-0.7,1.8-1.4,2.5h5.8V293h-4V296.8z"/>
		<path class="st1" d="M502.2,293.3h-5.1v2.7h4.8v3.6h-4.8v2.8h5.1v3.6h-9.4v-16.5h9.4V293.3z"/>
		<path class="st1" d="M509.8,295.8h6.2v-6.2h4.3v16.5H516v-6.7h-6.2v6.7h-4.3v-16.5h4.3V295.8z"/>
		<path class="st1" d="M524.1,289.7h4.3v6.4h2.1c1.2,0,3.5,0.1,4.9,1.5c1.1,1.1,1.3,2.5,1.3,3.5c0,1.6-0.5,2.7-1.3,3.5
			c-1.4,1.4-3.7,1.6-5.2,1.6h-6.1V289.7z M530.1,302.8c0.5,0,1.4,0,1.9-0.5c0.3-0.3,0.4-0.7,0.4-1.2c0-0.6-0.2-1-0.5-1.2
			c-0.5-0.4-1.2-0.5-1.8-0.5h-1.7v3.4H530.1z"/>
		<path class="st1" d="M277.5,333.5c-1.7,0.6-2.6,0.8-3.7,0.8c-2.9,0-5-1.1-6.4-2.5c-1.6-1.6-2.5-3.9-2.5-6c0-2.3,1-4.6,2.5-6.1
			c1.5-1.5,3.7-2.6,6.2-2.6c0.8,0,2.1,0.1,3.9,0.8v5.1c-1.4-1.7-3-1.8-3.7-1.8c-1.2,0-2.2,0.4-3,1.1c-1,0.9-1.4,2.2-1.4,3.4
			c0,1.1,0.5,2.4,1.3,3.2c0.7,0.7,1.9,1.1,3.1,1.1c0.6,0,2.2-0.1,3.7-1.7V333.5z"/>
		<path class="st1" d="M287.3,321.1V334H283v-12.9h-3.5v-3.6h11.3v3.6H287.3z"/>
		<path class="st1" d="M302.3,331.2h-6l-1.1,2.8h-4.5l6.3-16.5h4.7l6.2,16.5h-4.6L302.3,331.2z M301.1,327.9l-1.9-5.3l-1.8,5.3
			H301.1z"/>
		<path class="st1" d="M315.5,321.1V334h-4.3v-12.9h-3.5v-3.6h11.3v3.6H315.5z"/>
		<path class="st1" d="M325.7,317.5v10.4l6.2-10.4h4.4V334H332v-10.4l-6.2,10.4h-4.4v-16.5H325.7z"/>
		<path class="st1" d="M351.8,333.5c-1.7,0.6-2.6,0.8-3.7,0.8c-2.9,0-5-1.1-6.4-2.5c-1.6-1.6-2.5-3.9-2.5-6c0-2.3,1-4.6,2.5-6.1
			c1.5-1.5,3.7-2.6,6.2-2.6c0.8,0,2.1,0.1,3.9,0.8v5.1c-1.4-1.7-3-1.8-3.7-1.8c-1.2,0-2.2,0.4-3,1.1c-1,0.9-1.4,2.2-1.4,3.4
			c0,1.1,0.5,2.4,1.3,3.2c0.7,0.7,1.9,1.1,3.1,1.1c0.6,0,2.2-0.1,3.7-1.7V333.5z"/>
		<path class="st1" d="M361.5,321.1V334h-4.3v-12.9h-3.5v-3.6h11.3v3.6H361.5z"/>
		<path class="st1" d="M371.7,317.5v10.4l6.2-10.4h4.4V334H378v-10.4l-6.2,10.4h-4.4v-16.5H371.7z"/>
		<path class="st1" d="M390.4,324.3l5.2-6.8h5.3l-6.6,7.8l7.1,8.7h-5.5l-5.6-7.1v7.1h-4.3v-16.5h4.3V324.3z"/>
		<path class="st1" d="M408.1,317.5v10.4l6.2-10.4h4.4V334h-4.3v-10.4l-6.2,10.4h-4.4v-16.5H408.1z"/>
		<path class="st2" d="M269.2,350.1c0-0.7-0.5-1.2-1.3-1.2c-1.1-0.1-2.4,0.6-2.8,1l-0.6-2.3c0.9-0.7,2.4-1.2,3.6-1.1
			c3.6,0.2,4.8,3.3,2.7,6.1l-2.4,3.7h3.6v2.5h-8l4.5-7.2C269.2,350.6,269.2,350.1,269.2,350.1z"/>
		<path class="st2" d="M274.1,352.6c0-3.4,1.2-6.2,4.2-6.2c3,0,4.2,2.8,4.2,6.2c0,3.4-1.2,6.2-4.2,6.2
			C275.3,358.8,274.1,356,274.1,352.6z M280.1,352.6c0-2.2-0.5-4-1.8-4c-1.3,0-1.8,1.8-1.8,4c0,2.2,0.5,4,1.8,4
			C279.6,356.5,280.1,354.8,280.1,352.6z"/>
		<path class="st2" d="M285.6,358.8c-1.8,0-1.8-2.7,0-2.7C287.5,356.1,287.4,358.8,285.6,358.8z"/>
		<path class="st2" d="M288.4,346.5h4.4v12.1h-2.4V349h-2V346.5z"/>
		<path class="st2" d="M295.5,352.6c0-3.4,1.2-6.2,4.2-6.2c3,0,4.2,2.8,4.2,6.2c0,3.4-1.2,6.2-4.2,6.2
			C296.7,358.8,295.5,356,295.5,352.6z M301.5,352.6c0-2.2-0.5-4-1.8-4c-1.3,0-1.8,1.8-1.8,4c0,2.2,0.5,4,1.8,4
			C301.1,356.5,301.5,354.8,301.5,352.6z"/>
		<path class="st2" d="M307,358.8c-1.8,0-1.8-2.7,0-2.7C308.9,356.1,308.9,358.8,307,358.8z"/>
		<path class="st2" d="M315.3,350.1c0-0.7-0.5-1.2-1.3-1.2c-1.1-0.1-2.4,0.6-2.8,1l-0.6-2.3c0.9-0.7,2.4-1.2,3.6-1.1
			c3.6,0.2,4.8,3.3,2.7,6.1l-2.4,3.7h3.6v2.5h-8l4.5-7.2C315.3,350.6,315.3,350.1,315.3,350.1z"/>
		<path class="st2" d="M320.2,352.6c0-3.4,1.2-6.2,4.2-6.2c3,0,4.2,2.8,4.2,6.2c0,3.4-1.2,6.2-4.2,6.2
			C321.4,358.8,320.2,356,320.2,352.6z M326.2,352.6c0-2.2-0.5-4-1.8-4c-1.3,0-1.8,1.8-1.8,4c0,2.2,0.5,4,1.8,4
			C325.7,356.5,326.2,354.8,326.2,352.6z"/>
		<path class="st2" d="M330.1,346.5h4.4v12.1h-2.4V349h-2V346.5z"/>
		<path class="st2" d="M344.6,355.1c0,2-1.4,3.5-3.7,3.7c-0.6,0-2.3,0-3.9-0.5l0.2-2.4c3.8,1.3,4.9,0.3,4.8-0.8
			c0-1.4-0.9-1.9-4.6-2.1v-6.4h6.2v2.3H340v2.1C343.1,351.3,344.6,352.3,344.6,355.1z"/>
		<path class="st1" d="M268.9,376.3v8h-2.7v-8h-2.2v-2.3h7.1v2.3H268.9z"/>
		<path class="st1" d="M282.4,383.1c-1.1,1-2.5,1.5-4.1,1.5s-3-0.5-4.1-1.5c-1.1-1.1-1.6-2.5-1.6-3.8c0-1.4,0.5-2.8,1.6-3.9
			c1-1,2.5-1.5,4.1-1.5s3,0.5,4.1,1.5c1.1,1,1.6,2.5,1.6,3.9C284,380.6,283.5,382,282.4,383.1z M276.2,377.3c-0.6,0.5-0.8,1.3-0.8,2
			c0,0.9,0.4,1.5,0.8,1.9c0.5,0.5,1.2,0.8,2.1,0.8c0.9,0,1.6-0.3,2.1-0.8c0.5-0.5,0.8-1.2,0.8-2c0-0.8-0.4-1.5-0.8-2
			c-0.6-0.5-1.4-0.8-2.1-0.8C277.6,376.4,276.8,376.7,276.2,377.3z"/>
		<path class="st1" d="M291.8,380.3c-0.7,0.1-1.4,0.2-2.1,0.2c-0.8,0-2,0-2.8-0.8c-0.7-0.7-0.8-1.7-0.8-2.4v-3.2h2.7v2.8
			c0,0.3,0,0.8,0.3,1.1c0.3,0.3,0.9,0.3,1.3,0.3c0.5,0,1,0,1.5-0.1v-4.1h2.7v10.3h-2.7V380.3z"/>
		<path class="st1" d="M300.2,377.9h3.9v-3.8h2.7v10.3H304v-4.2h-3.9v4.2h-2.7v-10.3h2.7V377.9z"/>
		<path class="st1" d="M312.4,374.1v10.3h-2.7v-10.3H312.4z"/>
		<path class="st1" d="M315.3,374.1h2.7v8h2.6v-8h2.7v8h2.6v-8h2.7v10.3h-13.2V374.1z"/>
		<path class="st1" d="M334.2,374.1v10.3h-2.7v-10.3H334.2z"/>
		<path class="st1" d="M349.8,374.1v8.2h1.2v4.4h-2.4v-2.3h-6.3v2.3h-2.4v-4.4c0.4-0.1,0.8-0.2,1.2-0.6c0.8-0.8,0.9-1.9,0.9-3.4
			v-4.2H349.8z M344.6,378.6c0,0.5,0,1.4-0.2,2.2c-0.2,0.6-0.5,1.1-0.9,1.6h3.6v-6.2h-2.5V378.6z"/>
		<path class="st1" d="M359.9,382.6h-3.7l-0.7,1.7h-2.8l4-10.3h2.9l3.9,10.3h-2.9L359.9,382.6z M359.2,380.6l-1.2-3.3l-1.1,3.3
			H359.2z"/>
		<path class="st1" d="M368.2,377.9h3.9v-3.8h2.7v10.3H372v-4.2h-3.9v4.2h-2.7v-10.3h2.7V377.9z"/>
		<path class="st1" d="M380.4,374.1v10.3h-2.7v-10.3H380.4z"/>
		<path class="st1" d="M383.5,384.2c-0.2-0.2-0.5-0.6-0.5-1.1s0.3-0.9,0.5-1.1c0.4-0.4,0.8-0.5,1.1-0.5c0.4,0,0.8,0.2,1.1,0.5
			c0.3,0.3,0.4,0.6,0.4,1.1c0,0.5-0.2,0.8-0.5,1.1c-0.3,0.3-0.7,0.5-1.1,0.5C384.3,384.7,383.9,384.6,383.5,384.2z"/>
		<path class="st1" d="M274,392.6v10.3h-2.7v-8h-2.6v3.8c0,1-0.1,2.5-1.1,3.6c-0.5,0.5-1.3,0.9-2.4,0.9c-0.5,0-1-0.1-1.2-0.1v-2.5
			c0.2,0.1,0.4,0.1,0.6,0.1c0.4,0,0.7-0.1,0.9-0.3c0.2-0.2,0.5-0.6,0.5-1.9v-5.7H274z"/>
		<path class="st1" d="M279.6,392.6v10.3h-2.7v-10.3H279.6z"/>
		<path class="st1" d="M288.9,402.9v-8h-3.7v8h-2.7v-10.3h9v10.3H288.9z"/>
		<path class="st1" d="M294.6,392.6h2.7v8h2.6v-8h2.7v8h2.6v-8h2.7v10.3h-13.2V392.6z"/>
		<path class="st1" d="M316.7,394.9h-3.2v1.7h3v2.3h-3v1.8h3.2v2.3h-5.9v-10.3h5.9V394.9z"/>
		<path class="st1" d="M328,398.4l-2.8,4.5h-3.4l3.8-5.2l-3.4-5h3.1l2.7,4.5v-4.5h2.7v4.5l2.7-4.5h3.1l-3.4,5l3.8,5.2h-3.4l-2.8-4.5
			v4.5H328V398.4z"/>
		<path class="st1" d="M341.5,392.6v6.5l3.9-6.5h2.7v10.3h-2.7v-6.5l-3.9,6.5h-2.7v-10.3H341.5z"/>
		<path class="st1" d="M355.1,394.9v8h-2.7v-8h-2.2v-2.3h7.1v2.3H355.1z"/>
		<path class="st1" d="M363.7,394.9v8H361v-8h-2.2v-2.3h7.1v2.3H363.7z"/>
		<path class="st1" d="M370,399c-0.4-0.1-1-0.2-1.5-0.8c-0.5-0.6-0.8-1.2-0.8-2.2c0-1,0.3-1.9,0.8-2.4c0.9-0.9,2.2-1,2.9-1h4v10.3
			h-2.7v-3.5h-0.3l-2.2,3.5h-3.1L370,399z M372.7,394.9H372c-0.3,0-0.8,0-1.2,0.4c-0.2,0.2-0.4,0.4-0.4,0.9c0,0.4,0.1,0.7,0.3,0.9
			c0.3,0.3,0.8,0.4,1.2,0.4h0.8V394.9z"/>
		<path class="st1" d="M378.6,402.7c-0.2-0.2-0.5-0.6-0.5-1.1s0.3-0.9,0.5-1.1c0.4-0.4,0.8-0.5,1.1-0.5c0.4,0,0.8,0.2,1.1,0.5
			c0.3,0.3,0.4,0.6,0.4,1.1s-0.2,0.8-0.5,1.1c-0.3,0.3-0.7,0.5-1.1,0.5C379.4,403.2,378.9,403.1,378.6,402.7z"/>
	</g>
</g>
<g>
	<path class="st3" d="M166.6,344.5c-6.7,0-13.4-0.9-19.9-2.7c-1.1-0.3-2.3-0.6-3.4-1c-18-5.8-33.1-18-42.5-34.4
		c-10.1-17.5-12.7-37.9-7.4-57.5c5.3-19.5,17.9-35.8,35.4-45.9c11.5-6.6,24.5-10.1,37.5-10.1c6.7,0,13.4,0.9,19.9,2.7
		c19.5,5.3,35.8,17.9,45.8,35.4c8.5,14.9,11.7,31.7,9.2,48.6l-0.1,0.5h-7.4l0.1-0.7c2.5-15.6-0.3-31.1-8.2-44.8
		c-9.1-15.9-23.8-27.2-41.4-32c-5.9-1.6-12-2.4-18-2.4c-11.8,0-23.5,3.1-33.9,9.1c-15.8,9.1-27.2,23.8-32,41.4
		c-4.8,17.6-2.4,36.1,6.7,51.9c9.1,15.9,23.8,27.2,41.4,32c6.7,1.8,13.7,2.6,20.7,2.3l0.4-0.1c5.5-0.2,11.2-1.2,16.7-2.9l0.1,0
		l0.1,0c4.3,0.8,8.7,1.2,13.4,1.3l2.4,0l-2.2,1.1c-3.6,1.8-7.3,3.3-11.1,4.5L189,341c-0.2,0.1-0.3,0.1-0.4,0.2
		C181.4,343.4,174,344.5,166.6,344.5z"/>
</g>
<path class="st1" d="M193.1,266.2c-0.9-6.2-6.8-10.7-13.3-9.8c-6.5,0.9-10.9,6.8-10,13c0.9,6.3,6.8,10.7,13.2,9.8
	C189.4,278.4,193.9,272.6,193.1,266.2z M182.1,273.5c-3.2,0.5-6-1.6-6.4-4.8c-0.4-3.1,1.6-6.1,4.8-6.5c3.2-0.5,6,1.8,6.4,4.9
	C187.4,270.3,185.3,273.1,182.1,273.5z"/>
<path class="st1" d="M223.7,294.1c-0.9-6.2-6.8-10.7-13.3-9.8c-6.5,0.9-10.9,6.8-10,13c0.9,6.3,6.8,10.7,13.2,9.8
	C220.1,306.2,224.6,300.4,223.7,294.1z M212.8,301.3c-3.2,0.4-6-1.6-6.4-4.8c-0.4-3.1,1.6-6.1,4.8-6.5c3.2-0.4,6,1.8,6.4,4.9
	C218.1,298.1,216,300.9,212.8,301.3z"/>
<g>
	<path class="st1" d="M180.1,305.1h-9.4l41.5-45.4h9.4L180.1,305.1z"/>
</g>
<path class="st1" d="M204.1,324.5c-1.3,0.1-2.5,0.1-3.7,0.1c-17.5,0-28.3-6.5-34.3-12c-8.4-7.7-13.2-18.4-13.2-29.5v-0.6h-7.3v0.6
	c0,13.1,5.7,25.9,15.6,34.9c6.9,6.3,19.4,13.9,39.2,13.9c2.2,0,4.5-0.1,6.9-0.3L204.1,324.5z"/>
</svg>
