<?xml version="1.0" encoding="utf-8"?>
<!-- Generator: Adobe Illustrator 19.0.0, SVG Export Plug-In . SVG Version: 6.00 Build 0)  -->
<svg version="1.1" id="Layer_1" xmlns="http://www.w3.org/2000/svg" xmlns:xlink="http://www.w3.org/1999/xlink" x="0px" y="0px"
	 viewBox="0 0 612 612" style="enable-background:new 0 0 612 612;" xml:space="preserve">
<metadata><?xpacket begin="﻿" id="W5M0MpCehiHzreSzNTczkc9d"?>
<x:xmpmeta xmlns:x="adobe:ns:meta/" x:xmptk="Adobe XMP Core 5.6-c067 79.157747, 2015/03/30-23:40:42        ">
   <rdf:RDF xmlns:rdf="http://www.w3.org/1999/02/22-rdf-syntax-ns#">
      <rdf:Description rdf:about=""/>
   </rdf:RDF>
</x:xmpmeta>
                                                                                                    
                                                                                                    
                                                                                                    
                                                                                                    
                                                                                                    
                                                                                                    
                                                                                                    
                                                                                                    
                                                                                                    
                                                                                                    
                                                                                                    
                                                                                                    
                                                                                                    
                                                                                                    
                                                                                                    
                                                                                                    
                                                                                                    
                                                                                                    
                                                                                                    
                                                                                                    
                           
<?xpacket end="w"?></metadata>
<style type="text/css">
	.st0{fill:#0083BF;}
	.st1{fill:#FFFFFF;}
	.st2{fill:#90CEF1;}
	.st3{fill:#74C1EC;}
</style>
<rect y="0" class="st0" width="612" height="612"/>
<g>
	<g>
		<path class="st1" d="M271.2,301.7l2.9-17.2h4.4l3.5,9.2l3.7-9.2h4.5l2.6,17.2h-4.5l-1.3-9.9l-4.2,9.9H281l-4-9.9l-1.5,9.9H271.2z"
			/>
		<path class="st1" d="M300.3,284.5v17.2h-4.5v-17.2H300.3z"/>
		<path class="st1" d="M312.9,294.1l-4.6,7.6h-5.6l6.3-8.8l-5.8-8.4h5.2l4.6,7.5v-7.5h4.4v7.5l4.6-7.5h5.2l-5.7,8.4l6.3,8.8h-5.6
			l-4.6-7.6v7.6h-4.4V294.1z"/>
		<path class="st1" d="M334.4,290.9h6.4v-6.4h4.5v17.2h-4.5v-7h-6.4v7H330v-17.2h4.5V290.9z"/>
		<path class="st1" d="M360,298.8h-6.2l-1.2,2.9h-4.7l6.6-17.2h4.9l6.5,17.2H361L360,298.8z M358.8,295.4l-1.9-5.6l-1.9,5.6H358.8z"
			/>
		<path class="st1" d="M372.7,296v5.7h-4.5v-17.2h7.1c1.5,0,3,0.3,4.4,1.6c1.3,1.3,1.6,2.7,1.6,4.2c0,1.4-0.2,3-1.5,4.3
			c-1.3,1.3-2.9,1.5-4.3,1.5H372.7z M372.7,292.4h1.5c0.5,0,1.3-0.1,1.9-0.5c0.5-0.5,0.6-1.2,0.6-1.6c0-0.5,0-1.1-0.5-1.6
			c-0.5-0.5-1.3-0.6-1.9-0.6h-1.5V292.4z"/>
		<path class="st1" d="M399.8,299.5c-1.8,1.7-4.2,2.6-6.8,2.6c-2.6,0-5-0.9-6.8-2.6c-1.8-1.8-2.7-4.2-2.7-6.4c0-2.3,0.9-4.7,2.7-6.4
			c1.8-1.7,4.2-2.6,6.8-2.6c2.6,0,5,0.9,6.8,2.6c1.8,1.7,2.7,4.2,2.7,6.4C402.5,295.4,401.6,297.8,399.8,299.5z M389.5,289.8
			c-0.9,0.9-1.4,2.2-1.4,3.4c0,1.5,0.7,2.6,1.4,3.2c0.8,0.8,2,1.4,3.5,1.4c1.5,0,2.7-0.5,3.5-1.3c0.8-0.8,1.4-2,1.4-3.3
			c0-1.3-0.6-2.5-1.4-3.3c-1-0.9-2.3-1.4-3.5-1.4C391.8,288.4,390.4,288.9,389.5,289.8z"/>
		<path class="st1" d="M420.3,284.5v13.7h2.1v7.3h-4v-3.9h-10.5v3.9h-4v-7.3c0.7-0.1,1.3-0.4,2-1c1.3-1.3,1.5-3.2,1.5-5.6v-7.1
			H420.3z M411.7,292c0,0.8-0.1,2.3-0.4,3.6c-0.3,1.1-0.8,1.9-1.5,2.6h6.1v-10.3h-4.2V292z"/>
		<path class="st1" d="M429.7,290.9h6.4v-6.4h4.5v17.2h-4.5v-7h-6.4v7h-4.5v-17.2h4.5V290.9z"/>
		<path class="st1" d="M449.1,284.5v10.8l6.4-10.8h4.6v17.2h-4.5v-10.8l-6.4,10.8h-4.6v-17.2H449.1z"/>
		<path class="st1" d="M468.5,284.5v10.8l6.4-10.8h4.6v17.2h-4.5v-10.8l-6.4,10.8h-4.6v-17.2H468.5z M477.1,279.7
			c-0.5,1.3-1.4,2.1-2.1,2.5c-0.7,0.4-1.8,0.7-3.3,0.7c-1,0-2.2-0.1-3.2-0.7c-0.7-0.4-1.6-1.2-2.1-2.5l3-1.1c0.2,0.5,0.5,1,0.8,1.2
			c0.5,0.4,1.1,0.4,1.6,0.4c0.4,0,1.1,0,1.6-0.4c0.4-0.3,0.7-0.7,0.8-1.2L477.1,279.7z"/>
		<path class="st1" d="M503.9,284.5v13.7h2.1v7.3h-4v-3.9h-10.5v3.9h-4v-7.3c0.7-0.1,1.3-0.4,2-1c1.3-1.3,1.5-3.2,1.5-5.6v-7.1
			H503.9z M495.3,292c0,0.8-0.1,2.3-0.4,3.6c-0.3,1.1-0.8,1.9-1.5,2.6h6.1v-10.3h-4.2V292z"/>
		<path class="st1" d="M518.6,288.3h-5.3v2.9h5v3.8h-5v3h5.3v3.8h-9.8v-17.2h9.8V288.3z"/>
		<path class="st1" d="M526.5,290.9h6.4v-6.4h4.5v17.2H533v-7h-6.4v7h-4.5v-17.2h4.5V290.9z"/>
		<path class="st1" d="M541.4,284.5h4.5v6.7h2.2c1.2,0,3.6,0.1,5.1,1.6c1.2,1.2,1.4,2.7,1.4,3.6c0,1.7-0.5,2.8-1.3,3.6
			c-1.5,1.5-3.8,1.6-5.4,1.6h-6.4V284.5z M547.6,298.2c0.5,0,1.4,0,1.9-0.5c0.3-0.3,0.5-0.7,0.5-1.3c0-0.6-0.2-1-0.5-1.3
			c-0.5-0.5-1.3-0.5-1.9-0.5h-1.7v3.6H547.6z"/>
		<path class="st1" d="M284.3,330.2c-1.8,0.6-2.8,0.8-3.9,0.8c-3,0-5.2-1.2-6.7-2.6c-1.7-1.7-2.6-4-2.6-6.3c0-2.5,1.1-4.8,2.6-6.3
			c1.5-1.6,3.8-2.7,6.5-2.7c0.8,0,2.2,0.1,4,0.9v5.3c-1.4-1.8-3.1-1.9-3.9-1.9c-1.3,0-2.3,0.4-3.1,1.1c-1.1,1-1.5,2.3-1.5,3.5
			c0,1.2,0.5,2.5,1.4,3.4c0.7,0.7,1.9,1.2,3.2,1.2c0.7,0,2.3-0.1,3.9-1.8V330.2z"/>
		<path class="st1" d="M294.4,317.3v13.4H290v-13.4h-3.6v-3.8h11.8v3.8H294.4z"/>
		<path class="st1" d="M310.1,327.8h-6.2l-1.2,2.9H298l6.6-17.2h4.9l6.5,17.2h-4.8L310.1,327.8z M308.9,324.4l-1.9-5.6l-1.9,5.6
			H308.9z"/>
		<path class="st1" d="M323.9,317.3v13.4h-4.5v-13.4h-3.6v-3.8h11.8v3.8H323.9z"/>
		<path class="st1" d="M334.6,313.5v10.8l6.4-10.8h4.6v17.2h-4.5v-10.8l-6.4,10.8h-4.6v-17.2H334.6z"/>
		<path class="st1" d="M361.7,330.2c-1.8,0.6-2.8,0.8-3.9,0.8c-3,0-5.2-1.2-6.7-2.6c-1.7-1.7-2.6-4-2.6-6.3c0-2.5,1.1-4.8,2.6-6.3
			c1.5-1.6,3.8-2.7,6.5-2.7c0.8,0,2.2,0.1,4,0.9v5.3c-1.4-1.8-3.1-1.9-3.9-1.9c-1.3,0-2.3,0.4-3.1,1.1c-1.1,1-1.5,2.3-1.5,3.5
			c0,1.2,0.5,2.5,1.4,3.4c0.7,0.7,1.9,1.2,3.2,1.2c0.7,0,2.3-0.1,3.9-1.8V330.2z"/>
		<path class="st1" d="M371.9,317.3v13.4h-4.5v-13.4h-3.6v-3.8h11.8v3.8H371.9z"/>
		<path class="st1" d="M382.5,313.5v10.8l6.4-10.8h4.6v17.2H389v-10.8l-6.4,10.8H378v-17.2H382.5z"/>
		<path class="st1" d="M402,320.6l5.5-7.1h5.5l-6.8,8.1l7.4,9.1h-5.8l-5.8-7.5v7.5h-4.5v-17.2h4.5V320.6z"/>
		<path class="st1" d="M420.4,313.5v10.8l6.4-10.8h4.6v17.2H427v-10.8l-6.4,10.8H416v-17.2H420.4z"/>
		<path class="st2" d="M275.6,347.5c0-0.7-0.6-1.2-1.3-1.3c-1.1-0.1-2.5,0.7-2.9,1l-0.6-2.4c1-0.7,2.5-1.2,3.8-1.1
			c3.7,0.2,5,3.5,2.8,6.4l-2.5,3.9h3.8v2.6h-8.4l4.7-7.5C275.6,348,275.6,347.5,275.6,347.5z"/>
		<path class="st2" d="M280.7,350.1c0-3.6,1.2-6.5,4.3-6.5c3.2,0,4.4,2.9,4.4,6.5c0,3.6-1.2,6.5-4.4,6.5
			C282,356.6,280.7,353.7,280.7,350.1z M287,350.1c0-2.3-0.5-4.1-1.9-4.1c-1.4,0-1.9,1.9-1.9,4.1c0,2.3,0.5,4.1,1.9,4.1
			C286.5,354.2,287,352.4,287,350.1z"/>
		<path class="st2" d="M292.7,356.6c-1.9,0-1.9-2.8,0-2.8C294.7,353.7,294.6,356.6,292.7,356.6z"/>
		<path class="st2" d="M295.6,343.8h4.6v12.6h-2.5v-10.1h-2.1V343.8z"/>
		<path class="st2" d="M303.1,350.1c0-3.6,1.2-6.5,4.3-6.5c3.2,0,4.4,2.9,4.4,6.5c0,3.6-1.2,6.5-4.4,6.5
			C304.3,356.6,303.1,353.7,303.1,350.1z M309.3,350.1c0-2.3-0.5-4.1-1.9-4.1c-1.4,0-1.9,1.9-1.9,4.1c0,2.3,0.5,4.1,1.9,4.1
			C308.8,354.2,309.3,352.4,309.3,350.1z"/>
		<path class="st2" d="M315.1,356.6c-1.9,0-1.9-2.8,0-2.8C317,353.7,317,356.6,315.1,356.6z"/>
		<path class="st2" d="M323.7,347.5c0-0.7-0.6-1.2-1.3-1.3c-1.1-0.1-2.5,0.7-2.9,1l-0.6-2.4c1-0.7,2.5-1.2,3.8-1.1
			c3.7,0.2,5,3.5,2.8,6.4l-2.5,3.9h3.8v2.6h-8.4l4.7-7.5C323.7,348,323.7,347.5,323.7,347.5z"/>
		<path class="st2" d="M328.8,350.1c0-3.6,1.2-6.5,4.3-6.5c3.2,0,4.4,2.9,4.4,6.5c0,3.6-1.2,6.5-4.4,6.5
			C330,356.6,328.8,353.7,328.8,350.1z M335,350.1c0-2.3-0.5-4.1-1.9-4.1c-1.4,0-1.9,1.9-1.9,4.1c0,2.3,0.5,4.1,1.9,4.1
			C334.6,354.2,335,352.4,335,350.1z"/>
		<path class="st2" d="M339.2,343.8h4.6v12.6h-2.5v-10.1h-2.1V343.8z"/>
		<path class="st2" d="M354.3,352.7c0,2.1-1.4,3.7-3.8,3.8c-0.7,0-2.4,0-4-0.6l0.2-2.5c3.9,1.3,5.1,0.3,5-0.8c0-1.5-0.9-1.9-4.8-2.2
			v-6.7h6.4v2.4h-3.9v2.2C352.7,348.7,354.3,349.8,354.3,352.7z"/>
		<path class="st1" d="M275.3,373.9v8.4h-2.8v-8.4h-2.3v-2.4h7.4v2.4H275.3z"/>
		<path class="st1" d="M289.3,380.9c-1.1,1-2.6,1.6-4.2,1.6c-1.6,0-3.1-0.5-4.2-1.6c-1.1-1.1-1.7-2.6-1.7-4c0-1.4,0.5-2.9,1.7-4
			c1.1-1,2.6-1.6,4.2-1.6c1.6,0,3.1,0.5,4.2,1.6c1.1,1.1,1.7,2.6,1.7,4C291,378.3,290.5,379.8,289.3,380.9z M282.9,374.8
			c-0.6,0.6-0.9,1.4-0.9,2.1c0,1,0.5,1.6,0.9,2c0.5,0.5,1.2,0.9,2.2,0.9c0.9,0,1.7-0.3,2.2-0.8c0.5-0.5,0.9-1.2,0.9-2.1
			c0-0.8-0.4-1.6-0.9-2.1c-0.6-0.6-1.4-0.9-2.2-0.9C284.3,374,283.5,374.2,282.9,374.8z"/>
		<path class="st1" d="M299.2,378c-0.7,0.1-1.5,0.2-2.2,0.2c-0.8,0-2.1,0-2.9-0.8c-0.8-0.7-0.9-1.7-0.9-2.5v-3.3h2.8v2.9
			c0,0.3,0,0.8,0.3,1.1c0.3,0.3,1,0.3,1.3,0.3c0.5,0,1.1,0,1.6-0.1v-4.2h2.8v10.7h-2.8V378z"/>
		<path class="st1" d="M307.9,375.5h4v-4h2.8v10.7h-2.8v-4.3h-4v4.3h-2.8v-10.7h2.8V375.5z"/>
		<path class="st1" d="M320.6,371.5v10.7h-2.8v-10.7H320.6z"/>
		<path class="st1" d="M323.7,371.5h2.8v8.4h2.7v-8.4h2.8v8.4h2.7v-8.4h2.8v10.7h-13.8V371.5z"/>
		<path class="st1" d="M343.4,371.5v10.7h-2.8v-10.7H343.4z"/>
		<path class="st1" d="M359.6,371.5v8.6h1.3v4.6h-2.5v-2.4h-6.5v2.4h-2.5v-4.6c0.4-0.1,0.8-0.2,1.2-0.6c0.8-0.8,0.9-2,0.9-3.5v-4.4
			H359.6z M354.2,376.2c0,0.5,0,1.4-0.3,2.3c-0.2,0.7-0.5,1.2-0.9,1.6h3.8v-6.4h-2.6V376.2z"/>
		<path class="st1" d="M370.2,380.4h-3.9l-0.7,1.8h-2.9l4.1-10.7h3l4,10.7h-3L370.2,380.4z M369.5,378.3l-1.2-3.5l-1.2,3.5H369.5z"
			/>
		<path class="st1" d="M378.8,375.5h4v-4h2.8v10.7h-2.8v-4.3h-4v4.3H376v-10.7h2.8V375.5z"/>
		<path class="st1" d="M391.5,371.5v10.7h-2.8v-10.7H391.5z"/>
		<path class="st1" d="M394.8,382c-0.2-0.2-0.5-0.6-0.5-1.2c0-0.6,0.3-1,0.5-1.2c0.4-0.4,0.8-0.5,1.2-0.5c0.4,0,0.8,0.2,1.2,0.5
			c0.3,0.3,0.5,0.6,0.5,1.2s-0.2,0.9-0.5,1.2c-0.3,0.3-0.8,0.5-1.2,0.5C395.6,382.5,395.2,382.4,394.8,382z"/>
		<path class="st1" d="M280.6,390.8v10.7h-2.8v-8.4h-2.7v3.9c0,1-0.1,2.7-1.1,3.7c-0.6,0.5-1.4,0.9-2.5,0.9c-0.6,0-1.1-0.1-1.3-0.1
			V399c0.2,0.1,0.4,0.1,0.6,0.1c0.4,0,0.7-0.1,0.9-0.3c0.2-0.2,0.6-0.6,0.6-2v-5.9H280.6z"/>
		<path class="st1" d="M286.5,390.8v10.7h-2.8v-10.7H286.5z"/>
		<path class="st1" d="M296.2,401.6v-8.4h-3.8v8.4h-2.8v-10.7h9.4v10.7H296.2z"/>
		<path class="st1" d="M302.1,390.8h2.8v8.4h2.7v-8.4h2.8v8.4h2.7v-8.4h2.8v10.7h-13.8V390.8z"/>
		<path class="st1" d="M325.1,393.2h-3.3v1.8h3.1v2.4h-3.1v1.9h3.3v2.4H319v-10.7h6.1V393.2z"/>
		<path class="st1" d="M337,396.9l-2.9,4.7h-3.5l3.9-5.5l-3.6-5.3h3.2l2.9,4.7v-4.7h2.8v4.7l2.9-4.7h3.2l-3.6,5.3l3.9,5.5h-3.5
			l-2.9-4.7v4.7H337V396.9z"/>
		<path class="st1" d="M351.1,390.8v6.8l4-6.8h2.8v10.7h-2.8v-6.8l-4,6.8h-2.8v-10.7H351.1z"/>
		<path class="st1" d="M365.2,393.2v8.4h-2.8v-8.4h-2.3v-2.4h7.4v2.4H365.2z"/>
		<path class="st1" d="M374.1,393.2v8.4h-2.8v-8.4h-2.3v-2.4h7.4v2.4H374.1z"/>
		<path class="st1" d="M380.8,397.5c-0.4-0.1-1-0.2-1.6-0.8c-0.6-0.6-0.8-1.3-0.8-2.3c0-1.1,0.4-2,0.9-2.5c0.9-1,2.3-1.1,3-1.1h4.1
			v10.7h-2.8v-3.7h-0.3l-2.3,3.7h-3.2L380.8,397.5z M383.6,393.2h-0.8c-0.3,0-0.8,0-1.2,0.4c-0.2,0.2-0.4,0.5-0.4,0.9
			c0,0.4,0.1,0.7,0.3,0.9c0.3,0.3,0.8,0.4,1.2,0.4h0.8V393.2z"/>
		<path class="st1" d="M389.7,401.4c-0.2-0.2-0.5-0.6-0.5-1.2c0-0.6,0.3-1,0.5-1.2c0.4-0.4,0.8-0.5,1.2-0.5c0.4,0,0.8,0.2,1.2,0.5
			c0.3,0.3,0.5,0.6,0.5,1.2s-0.2,0.9-0.5,1.2c-0.3,0.3-0.8,0.5-1.2,0.5C390.5,401.9,390.1,401.8,389.7,401.4z"/>
	</g>
</g>
<g>
	<path class="st3" d="M168.6,341.6c-7,0-14-0.9-20.7-2.8c-1.2-0.3-2.3-0.7-3.5-1c-18.7-6-34.5-18.8-44.3-35.9
		c-10.5-18.3-13.2-39.6-7.7-59.9c5.5-20.3,18.6-37.3,36.9-47.8c12-6.9,25.5-10.5,39.1-10.5c7,0,14,0.9,20.8,2.8
		c20.3,5.5,37.3,18.6,47.8,36.9c8.9,15.5,12.2,33,9.6,50.7l-0.1,0.5h-7.7l0.1-0.7c2.6-16.2-0.3-32.4-8.5-46.7
		c-9.5-16.5-24.8-28.4-43.2-33.4c-6.2-1.7-12.5-2.5-18.8-2.5c-12.3,0-24.5,3.3-35.4,9.5c-16.5,9.5-28.4,24.8-33.4,43.2
		c-5,18.4-2.5,37.6,7,54.2c9.5,16.5,24.8,28.4,43.2,33.4c7,1.9,14.3,2.7,21.6,2.4l0.4-0.1c5.8-0.3,11.6-1.3,17.4-3l0.1,0l0.1,0
		c4.4,0.8,9.1,1.3,13.9,1.3l2.6,0l-2.3,1.1c-3.7,1.9-7.6,3.4-11.6,4.6l-0.2,0.1c-0.2,0.1-0.3,0.1-0.4,0.2
		C184.1,340.5,176.4,341.6,168.6,341.6z"/>
</g>
<path class="st1" d="M196.2,260.1c-0.9-6.5-7.1-11.1-13.9-10.2c-6.7,0.9-11.4,7.1-10.5,13.6c0.9,6.6,7,11.1,13.8,10.2
	C192.4,272.7,197.1,266.6,196.2,260.1z M184.8,267.6c-3.3,0.5-6.2-1.7-6.7-5.1c-0.5-3.3,1.7-6.3,5-6.8c3.3-0.5,6.3,1.9,6.7,5.1
	C190.3,264.3,188.1,267.2,184.8,267.6z"/>
<path class="st1" d="M228.2,289.1c-0.9-6.5-7.1-11.1-13.9-10.2c-6.7,0.9-11.4,7.1-10.5,13.6c0.9,6.6,7,11.1,13.8,10.2
	C224.4,301.7,229.1,295.7,228.2,289.1z M216.8,296.7c-3.3,0.5-6.2-1.7-6.7-5.1c-0.5-3.3,1.7-6.3,5-6.8c3.3-0.5,6.3,1.9,6.7,5.1
	C222.3,293.3,220.2,296.2,216.8,296.7z"/>
<g>
	<path class="st1" d="M182.7,300.6h-9.8l43.3-47.4h9.8L182.7,300.6z"/>
</g>
<path class="st1" d="M207.7,320.8c-1.3,0.1-2.6,0.1-3.9,0.1c-18.3,0-29.5-6.8-35.8-12.5c-8.8-8-13.8-19.2-13.8-30.8v-0.6h-7.6v0.6
	c0,13.7,5.9,27,16.3,36.4c7.2,6.6,20.2,14.5,40.9,14.5c2.3,0,4.7-0.1,7.2-0.3L207.7,320.8z"/>
</svg>
