<?xml version="1.0" encoding="utf-8"?>
<!-- Generator: Adobe Illustrator 16.0.0, SVG Export Plug-In . SVG Version: 6.00 Build 0)  -->
<!DOCTYPE svg PUBLIC "-//W3C//DTD SVG 1.1//EN" "http://www.w3.org/Graphics/SVG/1.1/DTD/svg11.dtd">
<svg version="1.1" id="Layer_1" xmlns="http://www.w3.org/2000/svg" xmlns:xlink="http://www.w3.org/1999/xlink" x="0px" y="0px"
	 width="612px" height="612px" viewBox="0 0 612 612" enable-background="new 0 0 612 612" xml:space="preserve">
<rect y="0" fill="#0083BF" width="612.001" height="612"/>
<g>
	<g>
		<path fill="#74C1EC" d="M198.633,352.303c-7.963,0-15.911-1.065-23.633-3.159c-1.337-0.362-2.675-0.763-3.996-1.186
			c-21.383-6.853-39.318-21.382-50.516-40.92c-11.952-20.857-15.072-45.121-8.78-68.323c6.294-23.203,21.253-42.567,42.107-54.52
			c13.652-7.819,29.073-11.953,44.614-11.953c7.964,0,15.934,1.066,23.717,3.177c23.203,6.298,42.559,21.253,54.512,42.11
			c10.146,17.694,13.933,37.674,10.955,57.776l-0.091,0.589h-8.779l0.128-0.802c2.992-18.526-0.369-36.946-9.724-53.261
			c-10.804-18.858-28.302-32.371-49.268-38.061c-7.034-1.903-14.241-2.871-21.435-2.871c-14.047,0-27.985,3.736-40.324,10.804
			c-18.843,10.804-32.359,28.302-38.057,49.272c-5.688,20.978-2.871,42.907,7.934,61.754c10.804,18.851,28.303,32.367,49.276,38.057
			c7.933,2.153,16.259,3.067,24.578,2.735l0.415-0.076c6.597-0.295,13.268-1.443,19.818-3.423l0.166-0.045l0.166,0.03
			c5.055,0.967,10.403,1.473,15.882,1.496l2.915,0.015l-2.605,1.292c-4.277,2.115-8.712,3.899-13.193,5.296l-0.172,0.09
			c-0.204,0.099-0.34,0.167-0.491,0.212C216.282,350.997,207.488,352.303,198.633,352.303z"/>
	</g>
	<path fill="#FFFFFF" d="M230.117,259.281c-1.043-7.419-8.129-12.678-15.821-11.605c-7.691,1.077-12.966,8.073-11.93,15.488
		c1.051,7.506,8.03,12.694,15.73,11.62C225.788,273.704,231.167,266.791,230.117,259.281z M217.129,267.932
		c-3.801,0.533-7.102-1.96-7.631-5.768c-0.521-3.709,1.941-7.2,5.75-7.729c3.809-0.532,7.132,2.146,7.653,5.856
		C223.438,264.094,220.938,267.404,217.129,267.932z"/>
	<path fill="#FFFFFF" d="M266.609,292.374c-1.043-7.416-8.122-12.678-15.812-11.605c-7.7,1.081-12.974,8.069-11.938,15.489
		c1.05,7.51,8.039,12.696,15.73,11.619C262.281,306.801,267.658,299.884,266.609,292.374z M253.629,301.028
		c-3.801,0.533-7.109-1.957-7.639-5.765c-0.521-3.713,1.942-7.2,5.75-7.732c3.801-0.529,7.133,2.142,7.654,5.855
		C259.923,297.191,257.438,300.492,253.629,301.028z"/>
	<g>
		<path fill="#FFFFFF" d="M214.682,305.467h-11.152l49.382-54.005h11.122L214.682,305.467z"/>
	</g>
	<path fill="#FFFFFF" d="M243.195,328.538c-1.496,0.079-2.999,0.155-4.451,0.155c-20.821,0-33.666-7.736-40.774-14.227
		c-9.997-9.134-15.731-21.933-15.731-35.125v-0.687h-8.65v0.687c0,15.617,6.754,30.75,18.548,41.517
		c8.25,7.54,23.037,16.524,46.579,16.524c2.652,0,5.41-0.147,8.167-0.374L243.195,328.538z"/>
</g>
<g>
	<g>
		<path fill="#90CEF1" d="M322.828,362.388c0-0.809-0.645-1.413-1.49-1.451c-1.277-0.083-2.871,0.748-3.33,1.148l-0.713-2.788
			c1.111-0.809,2.871-1.368,4.285-1.308c4.238,0.219,5.652,3.937,3.227,7.307l-2.85,4.396h4.283v2.932h-9.527l5.389-8.56
			C322.873,362.978,322.828,362.388,322.828,362.388z"/>
		<path fill="#90CEF1" d="M328.658,365.395c0-4.095,1.398-7.404,4.951-7.404c3.588,0,4.963,3.309,4.963,7.404
			c0,4.103-1.375,7.427-4.963,7.427C330.057,372.822,328.658,369.498,328.658,365.395z M335.783,365.395
			c0-2.584-0.543-4.7-2.174-4.7c-1.596,0-2.139,2.115-2.139,4.7c0,2.607,0.543,4.708,2.139,4.708
			C335.24,370.103,335.783,368.002,335.783,365.395z"/>
		<path fill="#90CEF1" d="M342.357,372.762c-2.176,0-2.176-3.249,0-3.249C344.578,369.513,344.52,372.762,342.357,372.762z"/>
		<path fill="#90CEF1" d="M349.543,358.21h5.227v14.416h-2.861v-11.529h-2.365V358.21z"/>
		<path fill="#90CEF1" d="M358.004,365.395c0-4.095,1.391-7.404,4.941-7.404c3.596,0,4.973,3.309,4.973,7.404
			c0,4.103-1.377,7.427-4.973,7.427C359.395,372.822,358.004,369.498,358.004,365.395z M365.129,365.395
			c0-2.584-0.545-4.7-2.184-4.7c-1.594,0-2.139,2.115-2.139,4.7c0,2.607,0.545,4.708,2.139,4.708
			C364.584,370.103,365.129,368.002,365.129,365.395z"/>
		<path fill="#90CEF1" d="M371.703,372.762c-2.184,0-2.184-3.249,0-3.249C373.924,369.513,373.863,372.762,371.703,372.762z"/>
		<path fill="#90CEF1" d="M385.363,362.388c0-0.809-0.643-1.413-1.49-1.451c-1.275-0.083-2.869,0.748-3.33,1.148l-0.711-2.788
			c1.109-0.809,2.871-1.368,4.285-1.308c4.238,0.219,5.65,3.937,3.225,7.307l-2.848,4.396h4.283v2.932h-9.527l5.387-8.56
			C385.408,362.978,385.363,362.388,385.363,362.388z"/>
		<path fill="#90CEF1" d="M391.203,365.395c0-4.095,1.391-7.404,4.941-7.404c3.596,0,4.971,3.309,4.971,7.404
			c0,4.103-1.375,7.427-4.971,7.427C392.594,372.822,391.203,369.498,391.203,365.395z M398.328,365.395
			c0-2.584-0.545-4.7-2.184-4.7c-1.594,0-2.139,2.115-2.139,4.7c0,2.607,0.545,4.708,2.139,4.708
			C397.783,370.103,398.328,368.002,398.328,365.395z"/>
		<path fill="#90CEF1" d="M403.027,358.21h5.229v14.416h-2.865v-11.529h-2.363V358.21z"/>
		<path fill="#90CEF1" d="M420.27,368.387c0,2.403-1.641,4.216-4.346,4.359c-0.748,0.039-2.705,0-4.602-0.649l0.264-2.864
			c4.482,1.534,5.773,0.303,5.75-0.906c0-1.7-1.064-2.222-5.469-2.546v-7.593h7.352v2.765h-4.443v2.523
			C418.41,363.801,420.27,365.055,420.27,368.387z"/>
	</g>
</g>
<g>
	<path fill="#FFFFFF" d="M328.252,388.596h0.811v13.072h-2.611l0.019-7.184l-3.296,3.457l-3.295-3.457v7.184h-2.61v-13.072h0.828
		l5.077,5.654L328.252,388.596z"/>
	<path fill="#FFFFFF" d="M331.956,401.668v-12.874h6.446v2.575h-3.871v2.575h3.385v2.575h-3.385v2.575h4.087v2.575H331.956z"/>
	<path fill="#FFFFFF" d="M343.604,388.794v10.299h4.087v2.575h-6.662v-12.874H343.604z"/>
	<path fill="#FFFFFF" d="M356.33,401.668v-5.149h-3.853v5.149h-2.575v-12.874h2.575v5.15h3.853v-5.15h2.575v12.874H356.33z"/>
	<path fill="#FFFFFF" d="M367.994,388.578c8.858,0,8.858,13.27,0,13.27C359.135,401.848,359.135,388.578,367.994,388.578z
		 M367.994,391.225c-5.15,0-5.15,7.958,0,7.958C373.144,399.183,373.144,391.225,367.994,391.225z"/>
	<path fill="#FFFFFF" d="M383.456,401.668l-2.593-4.916h-1.242v4.916h-2.575v-12.874h5.077c4.592,0,5.042,6.464,1.261,7.562
		l2.989,5.312H383.456z M379.621,394.25h2.269c1.746,0,1.746-2.881,0-2.881h-2.269V394.25z"/>
	<path fill="#FFFFFF" d="M388.08,401.668v-12.874h6.446v2.575h-3.871v2.575h3.385v2.575h-3.385v2.575h4.087v2.575H388.08z"/>
	<path fill="#FFFFFF" d="M396.881,398.139c1.477,1.044,3.079,1.081,3.674,1.026c0.756-0.054,1.404-0.594,1.332-1.296
		c-0.054-0.738-0.612-1.062-1.332-1.314c-2.017-0.738-3.817-1.765-3.817-3.925s1.494-3.817,3.637-3.925
		c0.667-0.036,1.549-0.036,3.205,0.54l-0.324,2.485c-1.422-0.576-2.232-0.558-2.629-0.54c-0.918,0.054-1.332,0.72-1.278,1.44
		c0.072,0.72,0.702,1.044,1.44,1.296c1.999,0.738,3.728,1.891,3.728,3.943c0,2.143-1.477,3.781-3.89,3.907
		c-0.72,0.054-2.322-0.036-4.068-0.936L396.881,398.139z"/>
	<path fill="#FFFFFF" d="M415.62,401.668h-3.835v-12.874h3.835C424.19,388.794,424.19,401.668,415.62,401.668z M414.36,391.369
		v7.724h1.26c5.006,0,5.006-7.724,0-7.724H414.36z"/>
	<path fill="#FFFFFF" d="M428.312,388.326h0.27l5.42,13.342h-2.899l-0.521-1.386h-4.268l-0.504,1.386h-2.917L428.312,388.326z
		 M429.626,397.869l-1.171-3.349l-1.206,3.349H429.626z"/>
	<path fill="#FFFFFF" d="M439.633,401.668h-3.835v-12.874h3.835C448.203,388.794,448.203,401.668,439.633,401.668z M438.373,391.369
		v7.724h1.26c5.006,0,5.006-7.724,0-7.724H438.373z"/>
	<path fill="#FFFFFF" d="M454.664,388.578c8.858,0,8.858,13.27,0,13.27C445.805,401.848,445.805,388.578,454.664,388.578z
		 M454.664,391.225c-5.15,0-5.15,7.958,0,7.958C459.813,399.183,459.813,391.225,454.664,391.225z"/>
	<path fill="#FFFFFF" d="M463.444,398.139c1.477,1.044,3.079,1.081,3.674,1.026c0.756-0.054,1.404-0.594,1.332-1.296
		c-0.054-0.738-0.612-1.062-1.332-1.314c-2.017-0.738-3.817-1.765-3.817-3.925s1.494-3.817,3.637-3.925
		c0.666-0.036,1.549-0.036,3.205,0.54l-0.324,2.485c-1.422-0.576-2.232-0.558-2.629-0.54c-0.918,0.054-1.332,0.72-1.278,1.44
		c0.072,0.72,0.702,1.044,1.44,1.296c1.999,0.738,3.728,1.891,3.728,3.943c0,2.143-1.477,3.781-3.89,3.907
		c-0.72,0.054-2.322-0.036-4.068-0.936L463.444,398.139z"/>
	<path fill="#FFFFFF" d="M473.777,401.794c-1.944,0-1.944-2.899,0-2.899C475.758,398.895,475.704,401.794,473.777,401.794z"/>
	<path fill="#FFFFFF" d="M328.252,410.196h0.811v13.072h-2.611l0.019-7.184l-3.296,3.457l-3.295-3.457v7.184h-2.61v-13.072h0.828
		l5.077,5.653L328.252,410.196z"/>
	<path fill="#FFFFFF" d="M331.956,423.268v-12.874h6.446v2.575h-3.871v2.575h3.385v2.575h-3.385v2.575h4.087v2.575H331.956z"/>
	<path fill="#FFFFFF" d="M343.604,410.394v10.299h4.087v2.575h-6.662v-12.874H343.604z"/>
	<path fill="#FFFFFF" d="M356.33,423.268v-5.149h-3.853v5.149h-2.575v-12.874h2.575v5.15h3.853v-5.15h2.575v12.874H356.33z"/>
	<path fill="#FFFFFF" d="M367.994,410.178c8.858,0,8.858,13.27,0,13.27C359.135,423.448,359.135,410.178,367.994,410.178z
		 M367.994,412.825c-5.15,0-5.15,7.958,0,7.958C373.144,420.783,373.144,412.825,367.994,412.825z"/>
	<path fill="#FFFFFF" d="M383.456,423.268l-2.593-4.916h-1.242v4.916h-2.575v-12.874h5.077c4.592,0,5.042,6.464,1.261,7.562
		l2.989,5.312H383.456z M379.621,415.85h2.269c1.746,0,1.746-2.881,0-2.881h-2.269V415.85z"/>
	<path fill="#FFFFFF" d="M388.08,423.268v-12.874h6.446v2.575h-3.871v2.575h3.385v2.575h-3.385v2.575h4.087v2.575H388.08z"/>
	<path fill="#FFFFFF" d="M396.881,419.739c1.477,1.044,3.079,1.08,3.674,1.026c0.756-0.054,1.404-0.594,1.332-1.296
		c-0.054-0.738-0.612-1.062-1.332-1.314c-2.017-0.738-3.817-1.764-3.817-3.925s1.494-3.817,3.637-3.925
		c0.667-0.036,1.549-0.036,3.205,0.54l-0.324,2.485c-1.422-0.576-2.232-0.558-2.629-0.54c-0.918,0.054-1.332,0.72-1.278,1.44
		c0.072,0.72,0.702,1.044,1.44,1.296c1.999,0.738,3.728,1.891,3.728,3.943c0,2.143-1.477,3.781-3.89,3.907
		c-0.72,0.054-2.322-0.036-4.068-0.936L396.881,419.739z"/>
	<path fill="#FFFFFF" d="M415.782,423.538l-5.329-13.144h2.971l1.71,4.286l0.937,2.665l0.918-2.575l1.729-4.375h2.972l-5.33,13.144
		H415.782z"/>
	<path fill="#FFFFFF" d="M423.251,423.268v-12.874h2.575v12.874H423.251z"/>
	<path fill="#FFFFFF" d="M432.559,423.268h-3.835v-12.874h3.835C441.129,410.394,441.129,423.268,432.559,423.268z M431.299,412.969
		v7.725h1.26c5.006,0,5.006-7.725,0-7.725H431.299z"/>
	<path fill="#FFFFFF" d="M445.249,409.926h0.27l5.42,13.342h-2.899l-0.521-1.386h-4.268l-0.504,1.386h-2.917L445.249,409.926z
		 M446.563,419.469l-1.171-3.349l-1.206,3.349H446.563z"/>
	<path fill="#FFFFFF" d="M452.465,419.739c1.477,1.044,3.079,1.08,3.674,1.026c0.756-0.054,1.404-0.594,1.332-1.296
		c-0.054-0.738-0.612-1.062-1.332-1.314c-2.017-0.738-3.817-1.764-3.817-3.925s1.494-3.817,3.637-3.925
		c0.667-0.036,1.549-0.036,3.205,0.54l-0.324,2.485c-1.422-0.576-2.232-0.558-2.629-0.54c-0.918,0.054-1.332,0.72-1.278,1.44
		c0.072,0.72,0.702,1.044,1.44,1.296c1.999,0.738,3.728,1.891,3.728,3.943c0,2.143-1.477,3.781-3.89,3.907
		c-0.72,0.054-2.322-0.036-4.068-0.936L452.465,419.739z"/>
	<path fill="#FFFFFF" d="M462.797,423.394c-1.944,0-1.944-2.899,0-2.899C464.777,420.495,464.724,423.394,462.797,423.394z"/>
</g>
<g>
	<path fill="#FFFFFF" d="M323.607,306.503h-6.179v-20.74h6.179C337.415,285.764,337.415,306.503,323.607,306.503z M321.577,289.912
		v12.444h2.03c8.063,0,8.063-12.444,0-12.444H321.577z"/>
	<path fill="#FFFFFF" d="M337.845,306.503v-20.74h4.148v20.74H337.845z"/>
	<path fill="#FFFFFF" d="M353.535,285.009h0.435l8.731,21.494h-4.67l-0.842-2.233h-6.874l-0.812,2.233h-4.699L353.535,285.009z
		 M355.652,300.383l-1.885-5.395l-1.944,5.395H355.652z"/>
	<path fill="#FFFFFF" d="M391.527,285.444h1.306v21.059h-4.206l0.029-11.574l-5.309,5.569l-5.309-5.569v11.574h-4.206v-21.059h1.335
		l8.18,9.108L391.527,285.444z"/>
	<path fill="#FFFFFF" d="M397.381,299.281v-13.517h4.148v13.488c0,4.351,6.729,4.351,6.729,0v-13.488h4.119v13.517
		C412.378,309.143,397.381,309.143,397.381,299.281z"/>
	<path fill="#FFFFFF" d="M421.104,306.503h-4.148v-21.175h1.103l10.472,12.183v-11.719h4.177v21.146h-1.103l-10.5-11.719V306.503z"
		/>
	<path fill="#FFFFFF" d="M443.55,306.503h-6.179v-20.74h6.179C457.357,285.764,457.357,306.503,443.55,306.503z M441.52,289.912
		v12.444h2.03c8.063,0,8.063-12.444,0-12.444H441.52z"/>
	<path fill="#FFFFFF" d="M457.787,306.503v-20.74h4.148v20.74H457.787z"/>
	<path fill="#FFFFFF" d="M473.478,285.009h0.435l8.731,21.494h-4.67l-0.842-2.233h-6.874l-0.812,2.233h-4.699L473.478,285.009z
		 M475.595,300.383l-1.885-5.395l-1.944,5.395H475.595z"/>
	<path fill="#FFFFFF" d="M489.688,285.764v16.592h6.584v4.148H485.54v-20.74H489.688z"/>
	<path fill="#FFFFFF" d="M323.607,341.303h-6.179v-20.74h6.179C337.415,320.563,337.415,341.303,323.607,341.303z M321.577,324.711
		v12.444h2.03c8.063,0,8.063-12.444,0-12.444H321.577z"/>
	<path fill="#FFFFFF" d="M344.053,319.809h0.435l8.731,21.494h-4.67l-0.842-2.233h-6.874l-0.812,2.233h-4.699L344.053,319.809z
		 M346.17,335.183l-1.885-5.395l-1.944,5.395H346.17z"/>
	<path fill="#FFFFFF" d="M364.351,341.303v-20.74h10.385v4.148h-6.236v4.148h5.453v4.148h-5.453v4.148h6.584v4.148H364.351z"/>
	<path fill="#FFFFFF" d="M378.532,335.618c2.378,1.683,4.96,1.741,5.917,1.654c1.219-0.087,2.263-0.958,2.146-2.089
		c-0.087-1.189-0.986-1.711-2.146-2.117c-3.249-1.189-6.149-2.843-6.149-6.324s2.407-6.149,5.859-6.324
		c1.073-0.058,2.495-0.058,5.163,0.871l-0.521,4.003c-2.292-0.928-3.598-0.899-4.235-0.87c-1.479,0.087-2.146,1.16-2.06,2.32
		c0.116,1.16,1.131,1.683,2.32,2.088c3.22,1.189,6.005,3.046,6.005,6.353c0,3.452-2.379,6.092-6.266,6.294
		c-1.16,0.087-3.742-0.058-6.556-1.508L378.532,335.618z"/>
	<path fill="#FFFFFF" d="M397.73,341.303v-16.592h-5.163v-4.119h14.475v4.119h-5.163v16.592H397.73z"/>
	<path fill="#FFFFFF" d="M415.219,319.809h0.435l8.731,21.494h-4.67l-0.842-2.233h-6.874l-0.812,2.233h-4.699L415.219,319.809z
		 M417.336,335.183l-1.885-5.395l-1.944,5.395H417.336z"/>
	<path fill="#FFFFFF" d="M429.341,341.303v-16.592h-5.163v-4.119h14.475v4.119h-5.163v16.592H429.341z"/>
	<path fill="#FFFFFF" d="M441.78,341.303v-20.74h4.148v20.74H441.78z M448.249,315.168l-2.697,3.742h-3.655l1.422-3.742H448.249z"/>
	<path fill="#FFFFFF" d="M450.161,335.618c2.378,1.683,4.96,1.741,5.917,1.654c1.219-0.087,2.263-0.958,2.146-2.089
		c-0.087-1.189-0.986-1.711-2.146-2.117c-3.249-1.189-6.149-2.843-6.149-6.324s2.407-6.149,5.859-6.324
		c1.073-0.058,2.495-0.058,5.163,0.871l-0.521,4.003c-2.292-0.928-3.598-0.899-4.235-0.87c-1.479,0.087-2.146,1.16-2.06,2.32
		c0.116,1.16,1.131,1.683,2.32,2.088c3.22,1.189,6.005,3.046,6.005,6.353c0,3.452-2.379,6.092-6.266,6.294
		c-1.16,0.087-3.742-0.058-6.556-1.508L450.161,335.618z"/>
	<path fill="#FFFFFF" d="M469.359,341.303v-16.592h-5.163v-4.119h14.475v4.119h-5.163v16.592H469.359z"/>
	<path fill="#FFFFFF" d="M481.8,341.303v-20.74h4.148v20.74H481.8z"/>
	<path fill="#FFFFFF" d="M500.217,324.479c-8.209,0-8.209,12.647,0,12.647c1.799,0,3.22-0.522,4.003-0.928l0.551,4.293
		c-1.276,0.522-3.104,0.87-4.554,0.87c-14.068,0-14.039-21.059,0-21.059c1.45,0,2.843,0.261,4.09,0.812l-0.493,4.264
		C503.03,324.972,502.016,324.479,500.217,324.479z"/>
	<path fill="#FFFFFF" d="M514.948,319.809h0.435l8.731,21.494h-4.67l-0.842-2.233h-6.874l-0.812,2.233h-4.699L514.948,319.809z
		 M517.065,335.183l-1.885-5.395l-1.944,5.395H517.065z"/>
</g>
</svg>
